<?xml version="1.0" encoding="UTF-8"?><svg xmlns="http://www.w3.org/2000/svg" xmlns:xlink="http://www.w3.org/1999/xlink">
<symbol 
  viewBox="0 0 24 24" 
  id="icon-add" 
  xmlns="http://www.w3.org/2000/svg">
  <path d="M12 0a1 1 0 01.993.883L13 1v10h10a1 1 0 01.117 1.993L23 13H13v10a1 1 0 01-1.993.117L11 23V13H1a1 1 0 01-.117-1.993L1 11h10V1a1 1 0 011-1z" />
</symbol>
<symbol 
  viewBox="0 0 24 24" 
  id="icon-alert" 
  xmlns="http://www.w3.org/2000/svg">
  <path d="M1.01 22a1 1 0 01.117 1.993L1 24a1 1 0 01-.117-1.993L1.01 22zM1 0c.513 0 .936.366.993.837L2 .947v16.106c0 .523-.448.947-1 .947-.513 0-.936-.366-.993-.837L0 17.053V.947C0 .424.448 0 1 0z"/>
</symbol>
<symbol 
  viewBox="0 0 24 24" 
  id="icon-blog-post" 
  xmlns="http://www.w3.org/2000/svg">
  <path d="M7.6 0A5.38 5.38 0 0112 2.287a5.384 5.384 0 014.142-2.28L16.4 0H23a1 1 0 01.993.883L24 1v16.667a1 1 0 01-.883.993l-.117.007h-7.7c-1.268 0-2.3 1.042-2.3 2.333 0 .598-.402.927-.845.99l-.103.009h-.104c-.447-.02-.881-.31-.941-.866l-.012-.293c-.078-1.163-.995-2.09-2.138-2.168l-.157-.005H1a1 1 0 01-.993-.884L0 17.667V1A1 1 0 01.883.007L1 0h6.6zm0 2H2v14.666h6.7c.746 0 1.447.192 2.058.528l.242.144V5.444l-.005-.189C10.905 3.565 9.611 2.2 7.97 2.02l-.184-.015L7.6 2zM22 2h-5.6c-1.813 0-3.298 1.439-3.395 3.255l-.005.19v11.892l.223-.132a4.248 4.248 0 011.617-.514l.251-.02.209-.004 6.7-.001V2z" />
</symbol>
<symbol 
  viewBox="0 0 24 24" 
  id="icon-calendar" 
  xmlns="http://www.w3.org/2000/svg">
  <path d="M15.5 0a1 1 0 01.993.883L16.5 1v1H19a3 3 0 012.995 2.824L22 5v16a3 3 0 01-2.824 2.995L19 24H3a3 3 0 01-2.995-2.824L0 21V5a3 3 0 012.824-2.995L3 2h2.5V1A1 1 0 017.493.883L7.5 1v1h7V1a1 1 0 011-1zM20 10.5H2V21a1 1 0 00.883.993L3 22h16a1 1 0 00.993-.883L20 21V10.5zM5.5 4H3a1 1 0 00-.993.883L2 5v3.5h18V5a1 1 0 00-.883-.993L19 4h-2.5v1a1 1 0 01-1.993.117L14.5 5V4h-7v1a1 1 0 01-1.993.117L5.5 5V4z" />
</symbol>
<symbol 
  viewBox="0 0 24 24" 
  id="icon-check" 
  xmlns="http://www.w3.org/2000/svg">
  <path d="M22.296.29a1 1 0 011.492 1.326l-.084.094-15.125 15a1 1 0 01-1.314.082l-.094-.082L.296 9.892A1 1 0 011.61 8.389l.094.083 6.17 6.118L22.296.29z" />
</symbol>
<symbol 
  viewBox="0 0 24 24" 
  id="icon-chevron-down" 
  xmlns="http://www.w3.org/2000/svg">
  <path d="M.293 5.293a1 1 0 011.32-.083l.094.083L12 15.585 22.293 5.293a1 1 0 011.32-.083l.094.083a1 1 0 01.083 1.32l-.083.094-11 11a1 1 0 01-1.32.083l-.094-.083-11-11a1 1 0 010-1.414z" />
</symbol>
<symbol 
  viewBox="0 0 24 24" 
  id="icon-chevron-left" 
  xmlns="http://www.w3.org/2000/svg">
  <path d="M11.293.293a1 1 0 011.497 1.32l-.083.094L2.415 12l10.292 10.293a1 1 0 01.083 1.32l-.083.094a1 1 0 01-1.32.083l-.094-.083-11-11a1 1 0 01-.083-1.32l.083-.094 11-11z" />
</symbol>
<symbol 
  viewBox="0 0 24 24" 
  id="icon-chevron-right" 
  xmlns="http://www.w3.org/2000/svg">
  <path d="M.293.293A1 1 0 011.613.21l.094.083 11 11a1 1 0 01.083 1.32l-.083.094-11 11a1 1 0 01-1.497-1.32l.083-.094L10.585 12 .293 1.707A1 1 0 01.21.387L.293.293z" />
</symbol>
<symbol 
  viewBox="0 0 24 24" 
  id="icon-chevron-up" 
  xmlns="http://www.w3.org/2000/svg">
  <path d="M11.293.293a1 1 0 011.32-.083l.094.083 11 11a1 1 0 01-1.32 1.497l-.094-.083L12 2.415 1.707 12.707a1 1 0 01-1.32.083l-.094-.083a1 1 0 01-.083-1.32l.083-.094 11-11z" />
</symbol>
<symbol 
  viewBox="0 0 24 24" 
  id="icon-clock" 
  xmlns="http://www.w3.org/2000/svg">
  <path d="M12 0c6.627 0 12 5.373 12 12s-5.373 12-12 12S0 18.627 0 12 5.373 0 12 0zm0 2C6.477 2 2 6.477 2 12s4.477 10 10 10 10-4.477 10-10S17.523 2 12 2zm0 2a1 1 0 01.993.883L13 5v6.165l3.49 1.963a1 1 0 01.433 1.257l-.051.105a1 1 0 01-1.257.433l-.105-.051-4-2.25a1 1 0 01-.503-.753L11 11.75V5a1 1 0 011-1z" />
</symbol>
<symbol 
  viewBox="0 0 24 24" 
  id="icon-close" 
  xmlns="http://www.w3.org/2000/svg">
  <path d="M23.314.686a1 1 0 01.077 1.327l-.077.088-9.9 9.898 9.9 9.9a1 1 0 01-1.327 1.492l-.088-.077-9.9-9.9-9.898 9.9a1 1 0 01-1.492-1.327l.077-.088 9.9-9.9-9.9-9.898A1 1 0 012.013.609l.088.077 9.898 9.9 9.9-9.9a1 1 0 011.415 0z"/>
</symbol>
<symbol 
  viewBox="0 0 24 24" 
  id="icon-error" 
  xmlns="http://www.w3.org/2000/svg">
  <path d="M12.005 18a1.498 1.498 0 01.287 2.97l-.144.023-.153.007a1.498 1.498 0 01-.287-2.97l.144-.023.153-.007zM12 3c.73 0 1.5.656 1.5 1.498v10.004a1.498 1.498 0 01-2.972.278l-.02-.134-.008-.144V4.498C10.5 3.681 11.16 3 12 3z"/>
</symbol>
<symbol 
  viewBox="0 0 24 24" 
  id="icon-facebook" 
  xmlns="http://www.w3.org/2000/svg">
  <path d="M24 12.073C24 5.403 18.629 0 12 0S0 5.404 0 12.073C0 18.099 4.388 23.093 10.125 24v-8.437H7.077v-3.49h3.048v-2.66c0-3.025 1.79-4.697 4.532-4.697 1.314 0 2.687.236 2.687.236v2.97H15.83c-1.49 0-1.955.93-1.955 1.885v2.266h3.328l-.532 3.49h-2.796V24C19.612 23.094 24 18.099 24 12.073z"/>
</symbol>
<symbol 
  viewBox="0 0 24 24" 
  id="icon-file" 
  xmlns="http://www.w3.org/2000/svg">
  <path d="M11.125 0a1 1 0 01.6.2l.1.085 7.874 7.7a1 1 0 01.292.582L20 8.7v12.1c0 1.711-1.361 3.101-3.066 3.195L16.75 24H3.25C1.522 24 .101 22.67.005 20.982L0 20.8V3.2C0 1.489 1.361.099 3.066.005L3.25 0h7.875zM10 2H3.25c-.652 0-1.18.477-1.244 1.078L2 3.2v17.6c0 .617.488 1.132 1.121 1.194L3.25 22h13.5c.652 0 1.18-.477 1.244-1.078L18 20.8V10h-7a1 1 0 01-.993-.883L10 9V2zm6.852 6L12 3.255V8h4.852z" />
</symbol>
<symbol 
  viewBox="0 0 24 24" 
  id="icon-instagram" 
  xmlns="http://www.w3.org/2000/svg">
  <path d="M12 0c6.627 0 12 5.373 12 12s-5.373 12-12 12S0 18.627 0 12 5.373 0 12 0zM9.113 5.05C7.994 5.101 7 5.357 6.18 6.176c-.822.818-1.075 1.812-1.13 2.933-.066 1.156-.066 4.62 0 5.777.052 1.121.308 2.114 1.13 2.933.821.818 1.811 1.075 2.933 1.13 1.155.066 4.619.066 5.774 0 1.122-.052 2.115-.308 2.933-1.13.818-.819 1.075-1.812 1.13-2.933.066-1.156.066-4.618 0-5.774-.052-1.121-.308-2.114-1.13-2.933-.818-.818-1.811-1.075-2.933-1.13-1.155-.066-4.619-.066-5.774 0zm2.889 1.211c1.018 0 3.207-.08 4.125.281a2.362 2.362 0 011.33 1.331c.366.922.282 3.109.282 4.127 0 1.018.084 3.208-.281 4.127a2.362 2.362 0 01-1.33 1.33c-.922.366-3.108.282-4.126.282-1.019 0-3.208.08-4.126-.281a2.362 2.362 0 01-1.33-1.331c-.366-.922-.282-3.109-.282-4.127 0-1.018-.081-3.208.281-4.127a2.362 2.362 0 011.33-1.33c.922-.366 3.108-.282 4.127-.282zm0 2.15A3.583 3.583 0 008.412 12a3.583 3.583 0 003.59 3.59A3.583 3.583 0 0015.59 12a3.583 3.583 0 00-3.588-3.59zm0 1.255A2.336 2.336 0 0114.335 12a2.338 2.338 0 01-2.333 2.334A2.338 2.338 0 019.668 12a2.336 2.336 0 012.334-2.334zm3.735-2.24a.837.837 0 100 1.675.837.837 0 000-1.674z" />
</symbol>
<symbol 
  viewBox="0 0 24 24" 
  id="icon-linkedin" 
  xmlns="http://www.w3.org/2000/svg">
  <path d="M12 0c6.627 0 12 5.373 12 12s-5.373 12-12 12S0 18.627 0 12 5.373 0 12 0zM8.134 9.653H5.23V19h2.903V9.653zm7.389-.234c-1.413 0-2.36.775-2.747 1.509h-.04V9.653H9.952V19h2.9v-4.628c0-1.219.23-2.397 1.74-2.397 1.487 0 1.509 1.39 1.509 2.475V19H19v-5.134c0-2.513-.54-4.447-3.477-4.447zM6.68 5C5.753 5 5 5.753 5 6.681s.753 1.697 1.68 1.697c.929 0 1.682-.769 1.682-1.697S7.609 5 6.68 5z" />
</symbol>
<symbol 
  viewBox="0 0 24 24" 
  id="icon-minus" 
  xmlns="http://www.w3.org/2000/svg">
  <path d="M23 11a1 1 0 01.117 1.993L23 13H1a1 1 0 01-.117-1.993L1 11h22z" />
</symbol>
<symbol 
  viewBox="0 0 24 24" 
  id="icon-search" 
  xmlns="http://www.w3.org/2000/svg">
 <path d="M10.5 0C16.299 0 21 4.701 21 10.5c0 2.544-.905 4.877-2.41 6.694l.023.016.094.083 5 5a1 1 0 01-1.32 1.497l-.094-.083-5-5a1.008 1.008 0 01-.1-.117A10.453 10.453 0 0110.5 21C4.701 21 0 16.299 0 10.5S4.701 0 10.5 0zm0 2a8.5 8.5 0 100 17 8.5 8.5 0 000-17z" />
</symbol>
<symbol 
  viewBox="0 0 24 24" 
  id="icon-success" 
  xmlns="http://www.w3.org/2000/svg">
  <path d="M17.91 6.374a1.186 1.186 0 011.737.008c.404.427.467 1.084.158 1.605l-.085.128-.08.092L9.64 18.629a1.184 1.184 0 01-1.52.17l-.122-.087-.088-.083-4.546-4.737a1.337 1.337 0 01-.007-1.825 1.185 1.185 0 011.527-.179l.122.089.088.082 3.68 3.835 9.138-9.52z" />
</symbol>
<symbol 
  viewBox="0 0 24 24" 
  id="icon-trash" 
  xmlns="http://www.w3.org/2000/svg">
  <path d="M14.286 0c1.744 0 3.183 1.327 3.28 3.018l.005.182v1.3H22a1 1 0 01.117 1.993L22 6.5h-1v14.3c0 1.715-1.38 3.101-3.1 3.195l-.186.005H6.286c-1.744 0-3.184-1.327-3.28-3.018L3 20.8V6.5H2a1 1 0 01-.117-1.993L2 4.5h4.428V3.2c0-1.715 1.38-3.101 3.1-3.195L9.715 0h4.572zM19 6.5H5v14.3c0 .613.499 1.131 1.153 1.194l.133.006h11.428c.674 0 1.215-.48 1.28-1.079L19 20.8V6.5zM9.5 10a1 1 0 01.993.883L10.5 11v7a1 1 0 01-1.993.117L8.5 18v-7a1 1 0 011-1zm5 0a1 1 0 01.993.883L15.5 11v7a1 1 0 01-1.993.117L13.5 18v-7a1 1 0 011-1zm-.214-8H9.714c-.673 0-1.214.48-1.279 1.079L8.43 3.2l-.001 1.3h7.143V3.2c0-.613-.498-1.131-1.152-1.194L14.286 2z" />
</symbol>
<symbol 
  viewBox="0 0 24 24" 
  id="icon-twitter" 
  xmlns="http://www.w3.org/2000/svg">
  <path d="M12 0c6.627 0 12 5.373 12 12s-5.373 12-12 12S0 18.627 0 12 5.373 0 12 0zm3.076 6c-1.817 0-3.28 1.36-3.28 3.028 0 .235.031.469.082.694-2.72-.131-5.147-1.331-6.761-3.169-.285.45-.447.966-.447 1.528 0 1.05.579 1.978 1.462 2.522a3.512 3.512 0 01-1.482-.384v.037c0 1.472 1.127 2.69 2.63 2.972a3.74 3.74 0 01-.864.103 4.47 4.47 0 01-.62-.047c.417 1.2 1.625 2.072 3.067 2.1a6.921 6.921 0 01-4.071 1.294c-.274 0-.528-.01-.792-.037A9.833 9.833 0 009.036 18c6.03 0 9.33-4.613 9.33-8.616 0-.13 0-.262-.01-.393A6.78 6.78 0 0020 7.425a7.008 7.008 0 01-1.888.469c.68-.375 1.198-.966 1.441-1.669-.63.347-1.34.6-2.08.731A3.403 3.403 0 0015.075 6z" />
</symbol>
<symbol 
  viewBox="0 0 24 24" 
  id="icon-warning" 
  xmlns="http://www.w3.org/2000/svg">
  <path d="M12.005 17.5a1.498 1.498 0 01.287 2.97l-.144.023-.153.007a1.498 1.498 0 01-.287-2.97l.144-.023.153-.007zM12 4.475c.73 0 1.5.656 1.5 1.498v8.029c0 .817-.66 1.498-1.5 1.498-.73 0-1.5-.694-1.5-1.498V5.973c0-.817.66-1.498 1.5-1.498z"/>
</symbol>
<symbol 
  viewBox="0 0 24 24" 
  id="icon-webinars" 
  xmlns="http://www.w3.org/2000/svg">
  <path d="M7 23a1 1 0 01-.117-1.993L7 21h4v-3H3a3 3 0 01-2.995-2.824L0 15V4a3 3 0 012.824-2.995L3 1h18a3 3 0 012.995 2.824L24 4v11a3 3 0 01-2.824 2.995L21 18h-8v3h4a1 1 0 01.117 1.993L17 23H7zM21 3H3a1 1 0 00-.993.883L2 4v11a1 1 0 00.883.993L3 16h18a1 1 0 00.993-.883L22 15V4a1 1 0 00-.883-.993L21 3z" />
</symbol>
<symbol 
  viewBox="0 0 24 24" 
  id="icon-workshops" 
  xmlns="http://www.w3.org/2000/svg">
  <path d="M7 13a1 1 0 01.117 1.993L7 15H3.524l2.823 2.653a8 8 0 0013.2-2.987 1 1 0 011.886.668 10 10 0 01-7.22 6.417 9.99 9.99 0 01-9.03-2.44l-.228-.222L2 16.31V20a1 1 0 01-.883.993L1 21a1 1 0 01-.993-.883L0 20v-6l.002-.068.015-.116.02-.09.027-.079.047-.106.027-.048.058-.087.033-.043.042-.048c.027-.028.052-.052.079-.075l-.079.075a1.01 1.01 0 01.29-.213l.106-.045.157-.041.101-.013L1 13h6zm11.816-8.31l.229.221L22 7.69V4a1 1 0 01.883-.993L23 3a1 1 0 01.993.883L24 4l-.002 6.068-.01.092-.018.083-.034.109-.047.107-.047.08-.042.062-.071.084a1.026 1.026 0 01-.079.075l.079-.075a1.01 1.01 0 01-.248.192l-.054.028-.094.038-.116.033-.14.021L23 11h-6a1 1 0 01-.117-1.993L17 9h3.476l-2.823-2.653a8 8 0 00-13.2 2.987 1 1 0 11-1.886-.668 10 10 0 017.22-6.417 9.99 9.99 0 019.03 2.44z" />
</symbol>
<symbol 
  viewBox="0 0 24 24" 
  id="icon-youtube" 
  xmlns="http://www.w3.org/2000/svg">
 <path d="M12 0c6.627 0 12 5.373 12 12s-5.373 12-12 12S0 18.627 0 12 5.373 0 12 0zm.19 7h-.38c-.853.005-4.324.037-5.28.3a1.774 1.774 0 00-1.237 1.265c-.258.982-.289 2.904-.292 3.35v.19c.003.447.034 2.368.292 3.35.16.616.635 1.081 1.237 1.246C7.622 17 12 17 12 17s4.378 0 5.47-.3a1.747 1.747 0 001.237-1.244C19 14.339 19 12.01 19 12.01s0-2.329-.293-3.445a1.774 1.774 0 00-1.237-1.266c-.956-.262-4.427-.294-5.28-.298zm-1.622 2.895l3.66 2.115-3.66 2.115v-4.23z" />
</symbol>
</svg>