<?xml version="1.0" encoding="utf-8"?><svg xmlns="http://www.w3.org/2000/svg" xmlns:xlink="http://www.w3.org/1999/xlink"><symbol viewBox="0 0 24 24" id="icon-add" xmlns="http://www.w3.org/2000/svg"><path d="M12 0a1 1 0 01.993.883L13 1v10h10a1 1 0 01.117 1.993L23 13H13v10a1 1 0 01-1.993.117L11 23V13H1a1 1 0 01-.117-1.993L1 11h10V1a1 1 0 011-1z"/></symbol><symbol viewBox="0 0 2 24" id="icon-alert" xmlns="http://www.w3.org/2000/svg"><path d="M1.01 22a1 1 0 01.117 1.993L1 24a1 1 0 01-.117-1.993L1.01 22zM1 0c.513 0 .936.366.993.837L2 .947v16.106c0 .523-.448.947-1 .947-.513 0-.936-.366-.993-.837L0 17.053V.947C0 .424.448 0 1 0z"/></symbol><symbol viewBox="0 0 20 20" id="icon-arrow-right" xmlns="http://www.w3.org/2000/svg"><path d="M16.172 9l-6.071-6.071 1.414-1.414L20 10l-8.485 8.485-1.414-1.414L16.172 11H0V9z"/></symbol><symbol viewBox="0 0 40 40" id="icon-blob-1" xmlns="http://www.w3.org/2000/svg"><path d="M16.168 39.658c-3.057-.618-5.866-2.1-8.262-4.027a22.013 22.013 0 01-2.968-2.917 16.242 16.242 0 01-1.585-2.25C2.31 29.154 1.47 27.692.917 26.13c-1.018-2.873-1.174-5.964-.54-8.934.583-2.73 1.957-5.151 3.897-7.176.185-.276.377-.548.575-.816.42-.571.891-1.104 1.346-1.648 1.777-2.12 4.007-3.905 6.467-5.22a19.748 19.748 0 018.681-2.33c1.52-.046 3.057.184 4.528.536 1.304.31 2.563.791 3.756 1.384.72.358 1.42.718 2.097 1.15a18.408 18.408 0 013.47 2.866 16.972 16.972 0 014.269 7.957c.475 2.105.61 4.276.501 6.427-.073 1.448-.295 2.86-.608 4.276-.322 1.46-.9 2.835-1.586 4.164-1.436 2.782-3.925 4.954-6.568 6.626-.209.132-.42.26-.635.384a16.865 16.865 0 01-5.035 3.116A16.252 16.252 0 0119.579 40c-1.145 0-2.29-.115-3.41-.342z" fill="#0062C3" fill-rule="evenodd"/></symbol><symbol viewBox="0 0 40 40" id="icon-blob-2" xmlns="http://www.w3.org/2000/svg"><path d="M19.24 39.995a19.995 19.995 0 01-2.256-.186 17.121 17.121 0 01-4.024-1.105 25.604 25.604 0 01-6.358-3.773c-2.207-1.78-4.02-4.219-4.889-6.856a14.909 14.909 0 01-.28-.957C.61 25.488.234 23.703.077 21.9c-.17-2.435-.106-4.904.624-7.264.412-1.336.927-2.64 1.618-3.872.619-1.097 1.348-2.123 2.131-3.119a22.564 22.564 0 015.68-5.091C11.35 1.786 12.738 1.243 14.117.8a17.14 17.14 0 014.229-.774C23.37-.26 28.169 1.805 31.98 4.789c2.083 1.63 3.922 3.658 5.254 5.892 1.334 2.239 2.218 4.653 2.601 7.201.384 2.548.064 5.175-.618 7.649-.682 2.477-1.973 4.918-3.612 6.941-1.714 2.115-3.861 3.782-6.333 5.036a23.686 23.686 0 01-3.91 1.548c-1.284.384-2.634.713-3.977.83-.619.053-1.239.114-1.86.114-.095 0-.19-.001-.285-.005z" fill="#0062C3" fill-rule="evenodd"/></symbol><symbol viewBox="0 0 40 40" id="icon-blog-3" xmlns="http://www.w3.org/2000/svg"><path d="M18.804 39.956c-2.58-.126-5.118-.708-7.575-1.496-1.622-.52-3.215-1.21-4.657-2.13-2.555-1.627-4.58-3.965-5.664-6.848C-.45 25.868-.093 21.913.735 18.224c.569-2.535 1.574-5.007 2.84-7.26 1.551-2.76 3.709-5.151 6.327-6.88.884-.584 4.55-2.405 5.462-2.81C16.55.75 17.796.439 19.064.216c1.172-.205 2.37-.23 3.556-.208 1.3.025 2.661.224 3.912.587.669.194 1.322.424 1.976.667.655.241 1.274.615 1.888.948 1.207.652 2.264 1.604 3.265 2.536.938.871 1.766 1.947 2.465 3.026 1.352 2.086 2.457 4.405 3.09 6.828.348 1.333.63 2.676.727 4.053.129 1.796.049 3.582-.337 5.345-.27 1.23-.592 2.482-1.095 3.638a28.995 28.995 0 01-1.813 3.543c-1.257 2.068-2.964 3.92-4.918 5.304a16.982 16.982 0 01-3.43 1.905c-.712.287-1.43.535-2.159.773-1.178.383-2.427.562-3.65.718-.704.09-1.415.122-2.127.122-.537 0-1.075-.018-1.61-.044z" fill="#0062C3" fill-rule="evenodd"/></symbol><symbol viewBox="0 0 24 22" id="icon-blog-post" xmlns="http://www.w3.org/2000/svg"><path d="M7.6 0A5.38 5.38 0 0112 2.287a5.384 5.384 0 014.142-2.28L16.4 0H23a1 1 0 01.993.883L24 1v16.667a1 1 0 01-.883.993l-.117.007h-7.7c-1.268 0-2.3 1.042-2.3 2.333 0 .598-.402.927-.845.99l-.103.009h-.104c-.447-.02-.881-.31-.941-.866l-.012-.293c-.078-1.163-.995-2.09-2.138-2.168l-.157-.005H1a1 1 0 01-.993-.884L0 17.667V1A1 1 0 01.883.007L1 0h6.6zm0 2H2v14.666h6.7c.746 0 1.447.192 2.058.528l.242.144V5.444l-.005-.189C10.905 3.565 9.611 2.2 7.97 2.02l-.184-.015L7.6 2zM22 2h-5.6c-1.813 0-3.298 1.439-3.395 3.255l-.005.19v11.892l.223-.132a4.248 4.248 0 011.617-.514l.251-.02.209-.004 6.7-.001V2z"/></symbol><symbol viewBox="0 0 22 24" id="icon-calendar" xmlns="http://www.w3.org/2000/svg"><path d="M15.5 0a1 1 0 01.993.883L16.5 1v1H19a3 3 0 012.995 2.824L22 5v16a3 3 0 01-2.824 2.995L19 24H3a3 3 0 01-2.995-2.824L0 21V5a3 3 0 012.824-2.995L3 2h2.5V1A1 1 0 017.493.883L7.5 1v1h7V1a1 1 0 011-1zM20 10.5H2V21a1 1 0 00.883.993L3 22h16a1 1 0 00.993-.883L20 21V10.5zM5.5 4H3a1 1 0 00-.993.883L2 5v3.5h18V5a1 1 0 00-.883-.993L19 4h-2.5v1a1 1 0 01-1.993.117L14.5 5V4h-7v1a1 1 0 01-1.993.117L5.5 5V4z"/></symbol><symbol viewBox="0 0 24 24" id="icon-chat" xmlns="http://www.w3.org/2000/svg"><path d="M13.2 18.95a10.46 10.46 0 01-6.82-2.88 9.47 9.47 0 01-2.77-5.12 5.56 5.56 0 00-1.73 4 5.5 5.5 0 001.34 3.59.93.93 0 01.16 1l-.71 1.75 2.2-1a.91.91 0 01.74 0 7.29 7.29 0 002.74.56 6.88 6.88 0 004.85-1.9zm10.73.31a.94.94 0 01-.21 1 1 1 0 01-.66.27 1 1 0 01-.38-.08l-5-2.22a11 11 0 01-1.94.54 8.08 8.08 0 01-2.84 2.76 8.86 8.86 0 01-4.41 1.2h-.1a9 9 0 01-3.13-.56l-3.94 1.78a.87.87 0 01-.38.08 1 1 0 01-.66-.26.94.94 0 01-.21-1l1.37-3.39A7.3 7.3 0 010 14.95a7.57 7.57 0 013.51-6.28 9.09 9.09 0 013-5.92A10.64 10.64 0 0113.73 0 10.65 10.65 0 0121 2.75a9.05 9.05 0 013 6.73 10.61 10.61 0 01-.1 1.35.96.96 0 11-1.9-.28 7.94 7.94 0 00.08-1.07c0-4.19-3.76-7.6-8.39-7.6s-8.35 3.41-8.35 7.6c0 3.67 3.38 7.6 8.39 7.6a9 9 0 003.57-.72 1 1 0 01.75 0l3.28 1.45-1.11-2.73a.94.94 0 111.74-.7zM16.5 9.52a.94.94 0 10.94-.94.94.94 0 00-.94.94zm-3.75 0a.94.94 0 10.94-.94.94.94 0 00-.94.94zm-2.81-.94a.94.94 0 11-.94.94.94.94 0 01.94-.94z"/></symbol><symbol viewBox="0 0 24 17" id="icon-check" xmlns="http://www.w3.org/2000/svg"><path d="M22.296.29a1 1 0 011.492 1.326l-.084.094-15.125 15a1 1 0 01-1.314.082l-.094-.082L.296 9.892A1 1 0 011.61 8.389l.094.083 6.17 6.118L22.296.29z"/></symbol><symbol viewBox="0 0 21 21" id="icon-checkmark" xmlns="http://www.w3.org/2000/svg"><g fill="none" fill-rule="evenodd"><path d="M0 0h16v14H0z"/><circle fill="#0062C3" cx="10.5" cy="10.5" r="10.5"/><path stroke="#FFF" stroke-width="2" stroke-linecap="round" d="M5.833 10.166L9.167 13.5l6-6"/></g></symbol><symbol viewBox="0 0 24 24" id="icon-chevron-down" xmlns="http://www.w3.org/2000/svg"><path d="M.293 5.293a1 1 0 011.32-.083l.094.083L12 15.585 22.293 5.293a1 1 0 011.32-.083l.094.083a1 1 0 01.083 1.32l-.083.094-11 11a1 1 0 01-1.32.083l-.094-.083-11-11a1 1 0 010-1.414z"/></symbol><symbol viewBox="0 0 13 24" id="icon-chevron-left" xmlns="http://www.w3.org/2000/svg"><path d="M11.293.293a1 1 0 011.497 1.32l-.083.094L2.415 12l10.292 10.293a1 1 0 01.083 1.32l-.083.094a1 1 0 01-1.32.083l-.094-.083-11-11a1 1 0 01-.083-1.32l.083-.094 11-11z"/></symbol><symbol viewBox="0 0 13 24" id="icon-chevron-right" xmlns="http://www.w3.org/2000/svg"><path d="M.293.293A1 1 0 011.613.21l.094.083 11 11a1 1 0 01.083 1.32l-.083.094-11 11a1 1 0 01-1.497-1.32l.083-.094L10.585 12 .293 1.707A1 1 0 01.21.387L.293.293z"/></symbol><symbol viewBox="0 0 24 13" id="icon-chevron-up" xmlns="http://www.w3.org/2000/svg"><path d="M11.293.293a1 1 0 011.32-.083l.094.083 11 11a1 1 0 01-1.32 1.497l-.094-.083L12 2.415 1.707 12.707a1 1 0 01-1.32.083l-.094-.083a1 1 0 01-.083-1.32l.083-.094 11-11z"/></symbol><symbol viewBox="0 0 24 24" id="icon-clock" xmlns="http://www.w3.org/2000/svg"><path d="M12 0c6.627 0 12 5.373 12 12s-5.373 12-12 12S0 18.627 0 12 5.373 0 12 0zm0 2C6.477 2 2 6.477 2 12s4.477 10 10 10 10-4.477 10-10S17.523 2 12 2zm0 2a1 1 0 01.993.883L13 5v6.165l3.49 1.963a1 1 0 01.433 1.257l-.051.105a1 1 0 01-1.257.433l-.105-.051-4-2.25a1 1 0 01-.503-.753L11 11.75V5a1 1 0 011-1z"/></symbol><symbol viewBox="0 0 24 24" id="icon-close" xmlns="http://www.w3.org/2000/svg"><path d="M23.314.686a1 1 0 01.077 1.327l-.077.088-9.9 9.898 9.9 9.9a1 1 0 01-1.327 1.492l-.088-.077-9.9-9.9-9.898 9.9a1 1 0 01-1.492-1.327l.077-.088 9.9-9.9-9.9-9.898A1 1 0 012.013.609l.088.077 9.898 9.9 9.9-9.9a1 1 0 011.415 0z"/></symbol><symbol viewBox="0 0 80 80" id="icon-dribbble" xmlns="http://www.w3.org/2000/svg"><path d="M39.363 40.979c.953-.401 1.978-.654 2.965-1.096-.457-.86-.894-1.847-1.293-2.644-.141-.292-.243-.651-.51-.838-6.347 1.84-13.383 2.989-21.592 2.967-.165 6.627 2.241 11.249 5.414 14.756 3.66-5.665 8.53-10.423 15.016-13.145zm4.316 2.511c-7.31 2.637-13.052 6.841-16.625 13.213 2.401 1.888 5.662 3.516 9.475 4.19 4.194.739 8.593-.044 11.73-1.417-.943-5.407-2.464-10.547-4.19-15.081-.113-.293-.098-.696-.39-.905zM30.987 20.933c-5.876 2.933-10 7.623-11.667 14.761 7.305-.085 13.791-.991 19.526-2.644-2.481-4.178-4.975-8.338-7.859-12.117zM40 4.316C20.289 4.316 4.316 20.294 4.316 40S20.289 75.684 40 75.684c17.966 0 32.826-13.283 35.31-30.561.243-1.181.355-2.396.335-3.648.019-.488.039-.982.039-1.475C75.684 20.294 59.706 4.316 40 4.316zm18.243 52.449c-1.968 2.156-4.306 3.888-7.086 5.286-2.765 1.392-5.92 2.462-9.662 2.644-7.888.384-14.068-2.651-18.175-6.442-4.233-3.908-7.431-9.142-7.99-16.693-.296-4.015.491-7.563 1.677-10.569 1.23-3.125 2.688-5.468 4.7-7.667 2.819-3.077 6.649-5.755 11.473-7.089a26.348 26.348 0 015.351-.904c8.068-.52 14.034 2.731 18.233 6.508 4.19 3.762 7.485 9.232 7.927 16.756.468 7.918-2.574 13.947-6.448 18.17zM47.742 42.459c1.628 4.731 3.125 9.589 4.058 15.018 1.166-.654 2.202-1.558 3.159-2.515 2.916-2.919 5.069-6.7 5.925-11.599-3.628-1.062-8.716-1.604-13.142-.904zm-4.704-10.632c4.413-1.791 8.34-4.073 10.953-7.669-3.465-2.916-8.462-5.553-14.821-5.217-1.541.078-2.678.192-4.058.515 2.372 3.482 4.899 7.094 6.96 10.763.3.529.504 1.159.966 1.608zm1.545 3.22c.496.967.996 2.046 1.419 3.03.151.36.214.78.515 1.033 4.899-.549 10.345-.141 14.627.707-.165-5.786-2.085-9.815-4.768-13.084-3.061 3.639-7.122 6.283-11.793 8.314z"/></symbol><symbol viewBox="0 0 24 24" id="icon-error" xmlns="http://www.w3.org/2000/svg"><g fill="none" fill-rule="evenodd"><path d="M24 12c0 6.629-5.373 12-12 12S0 18.629 0 12C0 5.375 5.373 0 12 0s12 5.375 12 12z" fill="#DC4A56"/><path d="M12.005 18a1.498 1.498 0 01.287 2.97l-.144.023-.153.007a1.498 1.498 0 01-.287-2.97l.144-.023.153-.007zM12 3c.73 0 1.5.656 1.5 1.498v10.004a1.498 1.498 0 01-2.972.278l-.02-.134-.008-.144V4.498C10.5 3.681 11.16 3 12 3z"/></g></symbol><symbol viewBox="0 0 24 24" id="icon-facebook" xmlns="http://www.w3.org/2000/svg"><path fill-rule="evenodd" d="M24 12.073C24 5.403 18.629 0 12 0S0 5.404 0 12.073C0 18.099 4.388 23.093 10.125 24v-8.437H7.077v-3.49h3.048v-2.66c0-3.025 1.79-4.697 4.532-4.697 1.314 0 2.687.236 2.687.236v2.97H15.83c-1.49 0-1.955.93-1.955 1.885v2.266h3.328l-.532 3.49h-2.796V24C19.612 23.094 24 18.099 24 12.073z"/></symbol><symbol viewBox="0 0 18 19" id="icon-facebook-small" xmlns="http://www.w3.org/2000/svg"><path d="M9.586 18.25v-6.797H7.32V8.836h2.266V6.883c0-1.12.312-1.98.937-2.578.625-.6 1.446-.899 2.461-.899.808 0 1.485.026 2.032.078v2.383h-1.407c-.494 0-.846.117-1.054.352-.157.182-.235.495-.235.937v1.68h2.617l-.351 2.617H12.32v6.797h4.453a.922.922 0 00.704-.293.97.97 0 00.273-.684V1.727a.919.919 0 00-.293-.704.97.97 0 00-.684-.273H1.227a.952.952 0 00-.704.273.952.952 0 00-.273.704v15.546c0 .26.091.489.273.684a.919.919 0 00.704.293h8.359z" fill-rule="nonzero"/></symbol><symbol viewBox="0 0 20 24" id="icon-file" xmlns="http://www.w3.org/2000/svg"><path d="M11.125 0a1 1 0 01.6.2l.1.085 7.874 7.7a1 1 0 01.292.582L20 8.7v12.1c0 1.711-1.361 3.101-3.066 3.195L16.75 24H3.25C1.522 24 .101 22.67.005 20.982L0 20.8V3.2C0 1.489 1.361.099 3.066.005L3.25 0h7.875zM10 2H3.25c-.652 0-1.18.477-1.244 1.078L2 3.2v17.6c0 .617.488 1.132 1.121 1.194L3.25 22h13.5c.652 0 1.18-.477 1.244-1.078L18 20.8V10h-7a1 1 0 01-.993-.883L10 9V2zm6.852 6L12 3.255V8h4.852z"/></symbol><symbol viewBox="0 0 80 80" id="icon-flickr" xmlns="http://www.w3.org/2000/svg"><path d="M40.077 2.762c-20.567 0-37.238 16.673-37.238 37.24 0 20.562 16.67 37.235 37.238 37.235 20.562 0 37.232-16.673 37.232-37.235 0-20.567-16.67-37.24-37.232-37.24M26.486 51.035c-6.095 0-11.035-4.942-11.035-11.032 0-6.098 4.939-11.043 11.035-11.043s11.04 4.945 11.04 11.043c0 6.092-4.945 11.032-11.04 11.032m27.179 0c-6.095 0-11.04-4.942-11.04-11.032 0-6.098 4.945-11.043 11.04-11.043S64.7 33.905 64.7 40.003c0 6.092-4.94 11.032-11.035 11.032"/></symbol><symbol viewBox="0 0 41 42" id="icon-floating-form-chat" xmlns="http://www.w3.org/2000/svg"><g fill="none"><path fill="#163045" d="M35.654 6.635c-6.968-6.919-18.22-8.161-26.412-2.7A19.135 19.135 0 004.377 8.59C.196 14.326-.595 22.118 2.387 28.955c.197.403.262.858.185 1.3l-2.059 8.61c-.141.67.067 1.364.556 1.849.399.39.942.603 1.503.589.374-.01 3.448-.592 9.222-1.747.448-.053.972-.421 1.4-.284 9.223 2.945 20.01-.731 23.715-6.337 3.706-5.605 5.713-19.38-1.255-26.3z"/><path fill="#FFF" d="M30.24 35.86c-4.417 2.408-10.913 2.42-15.564.487a6.79 6.79 0 00-2.573-.528 7.155 7.155 0 00-1.153.102l-5.764.772.844-5.707a6.198 6.198 0 00-.432-3.676c-1.959-4.588-1.348-9.83 1.093-14.186 2.442-4.357 6.773-7.37 11.753-8.174 5.234-.848 10.561.356 14.312 4.056 3.75 3.7 5.754 9.505 4.894 14.668-.859 5.164-2.994 9.778-7.41 12.186z"/><path fill="#163045" d="M28.041 26.384a1.01 1.01 0 011.002 1.15 1.38 1.38 0 01-1.319 1.19l-13.608.482a1.387 1.387 0 01-1.434-1.336l-.001-.486a1 1 0 011-1h14.36zm-4.59-5.747c.96 0 1.832.562 2.227 1.437a1.017 1.017 0 01-.926 1.437H14.117a1.437 1.437 0 010-2.874h9.335zm-9.334-5.723l15.372.246c.638.01 1.149.53 1.149 1.168a1.15 1.15 0 01-1.148 1.15c-2.25.005-4.366.024-6.345.056-2.068.035-5.077.1-9.028.195a1.402 1.402 0 01-1.436-1.367v-.034c0-.781.633-1.414 1.413-1.414h.023z"/></g></symbol><symbol viewBox="0 0 45 44" id="icon-floating-form-close" xmlns="http://www.w3.org/2000/svg"><g fill="none"><path fill="#0B3047" d="M23.151 0c.77 0 1.532.042 2.286.125 2.103.233 4.1.73 5.95 1.5.979.405 1.868.837 2.693 1.316a22.254 22.254 0 012.473 1.668 22.013 22.013 0 017.046 9.476 22.287 22.287 0 011.38 6.067c.097 1.11.11 2.184.03 3.232a23.26 23.26 0 01-.447 3.192 22.205 22.205 0 01-5.67 10.667 21.97 21.97 0 01-4.828 3.802 21.76 21.76 0 01-5.715 2.312c-2.134.518-4.3.73-6.398.61-2.15-.122-4.221-.519-6.141-1.198-1.955-.69-3.764-1.608-5.374-2.742-1.687-1.189-3.166-2.538-4.4-4.038-1.326-1.614-2.399-3.321-3.186-5.115a22.154 22.154 0 01-1.07-2.932 21.941 21.941 0 01-.623-3 22.56 22.56 0 01-.218-3.205c.009-1.022.095-2.067.255-3.137.152-1.019.365-1.998.645-2.938.28-.94.635-1.883 1.065-2.853.14-.313.386-.563.675-.733l.063-.035.076-.151c.258-.507.535-1 .83-1.48l.3-.473c2.166-3.306 5.173-5.994 8.649-7.694A21.796 21.796 0 0118.568.478l.576-.113.573-.096A22.401 22.401 0 0123.151 0z"/><path fill="#FFF" d="M20.58 3.142c-1.659.234-3.276.678-4.808 1.317a19.805 19.805 0 00-4.165 2.433 19.87 19.87 0 00-3.471 3.474 19.87 19.87 0 00-1.78 2.8l-.07.137.009.036c.03.19.03.38 0 .569l-.04.188-.047.135-.12.28a19.624 19.624 0 00-1.292 4.709 20.092 20.092 0 00-.005 5.032c.233 1.629.67 3.223 1.296 4.742a19.844 19.844 0 002.447 4.176 19.903 19.903 0 003.316 3.316 19.737 19.737 0 004.14 2.422c1.5.617 3.068 1.046 4.658 1.275 1.673.211 3.37.212 5.033.005a19.872 19.872 0 004.805-1.314 19.994 19.994 0 004.211-2.472 19.88 19.88 0 003.354-3.363 19.518 19.518 0 002.38-4.075 19.137 19.137 0 001.28-4.623c.22-1.72.229-3.444.02-5.097a19.532 19.532 0 00-1.29-4.77 19.672 19.672 0 00-2.467-4.22 19.885 19.885 0 00-3.402-3.395 19.446 19.446 0 00-4.141-2.421 19.594 19.594 0 00-4.24-1.218l-.548-.085-.55-.061a19.999 19.999 0 00-4.512.068z"/><path fill="#0B3047" d="M31.49 12.748c.251.396.285.932.052 1.341-.08.141-.158.272-.235.396l-.212.33c-.13.198-.232.342-.342.471l-.875.951-1.492 1.705-.716.848-1.18 1.432-.839.985 3.722 3.79.725.753c.574.602.931 1 1.328 1.484l.601.745c.36.453.752.96 1.253 1.617.383.501.306 1.264-.105 1.732a1.371 1.371 0 01-1.508.38l-.111-.052a2.617 2.617 0 01-.64-.381l-.188-.161-.2-.185a3.4 3.4 0 01-.222-.233l-.461-.54-.31-.371a39.213 39.213 0 00-1.154-1.314l-1.814-1.963-1.73-1.822-1.129-1.203a92.212 92.212 0 00-2.203 2.788l-1.123 1.467-.772.954c-.04.049-.079.092-.12.138l-.56.617c-.642.707-1.347 1.375-2.314 2.22-.272.238-.685.303-1.03.222a1.274 1.274 0 01-.79-.558 1.317 1.317 0 01-.175-.982c.07-.319.219-.524.49-.76l.114-.1a24.631 24.631 0 001.617-1.571l.65-.719.605-.75c.115-.142.217-.275.36-.47l.882-1.195a100.617 100.617 0 012.507-3.283c-.39-.415-.746-.802-1.084-1.176l-.744-.835c-.09-.102-.178-.205-.273-.316l-2.036-2.411c-.094-.11-.173-.201-.249-.286l-.437-.472c-.58-.622-.871-.926-1.22-1.273-.508-.508-.588-1.305-.18-1.882l.094-.12.108-.109c.227-.205.518-.33.825-.36.399-.035.792.095 1.077.38l.414.42.888.935c.287.305.427.457.59.646l1.234 1.44.627.735a42.476 42.476 0 001.917 2.094l.302.308.415-.509c.209-.26.383-.485.678-.87l.968-1.262.347-.434c.122-.148.254-.307.415-.497l1.074-1.267.373-.447a9.39 9.39 0 01.385-.431l.4-.393c.073-.068.128-.118.169-.152l.036-.028.065-.07.329-.287.06-.05c.09-.074.185-.132.3-.188l.239-.107.11-.04.111-.029.114-.016c.468-.043.95.208 1.202.606z"/></g></symbol><symbol viewBox="0 0 80 80" id="icon-github" xmlns="http://www.w3.org/2000/svg"><path d="M40.183 3.163C20.29 3.163 4.162 19.71 4.162 40.101c0 16.322 10.324 30.151 24.635 35.04.226.048.418.064.612.064 1.335 0 1.849-.981 1.849-1.833 0-.884-.032-3.2-.048-6.288-1.351.306-2.557.435-3.634.435-6.931 0-8.507-5.386-8.507-5.386-1.641-4.263-4.004-5.404-4.004-5.404-3.135-2.204-.016-2.267.225-2.267h.017c3.618.32 5.516 3.825 5.516 3.825 1.801 3.153 4.212 4.037 6.368 4.037 1.688 0 3.216-.546 4.117-.964.321-2.38 1.253-4.005 2.283-4.938-7.993-.934-16.403-4.101-16.403-18.252 0-4.036 1.399-7.332 3.698-9.906-.37-.933-1.607-4.696.354-9.777 0 0 .257-.08.803-.08 1.303 0 4.246.498 9.102 3.875 2.878-.82 5.95-1.221 9.022-1.238 3.054.017 6.142.418 9.021 1.238 4.856-3.377 7.8-3.875 9.103-3.875.546 0 .804.08.804.08 1.96 5.082.723 8.845.354 9.777 2.3 2.589 3.698 5.886 3.698 9.906 0 14.184-8.427 17.303-16.451 18.22 1.287 1.142 2.445 3.393 2.445 6.834 0 4.938-.049 8.925-.049 10.131 0 .868.498 1.85 1.832 1.85.194 0 .419-.017.645-.064 14.328-4.889 24.636-18.734 24.636-35.04C76.204 19.71 60.076 3.163 40.183 3.163z"/></symbol><symbol viewBox="0 0 24 24" id="icon-instagram" xmlns="http://www.w3.org/2000/svg"><path d="M12 0c6.627 0 12 5.373 12 12s-5.373 12-12 12S0 18.627 0 12 5.373 0 12 0zM9.113 5.05C7.994 5.101 7 5.357 6.18 6.176c-.822.818-1.075 1.812-1.13 2.933-.066 1.156-.066 4.62 0 5.777.052 1.121.308 2.114 1.13 2.933.821.818 1.811 1.075 2.933 1.13 1.155.066 4.619.066 5.774 0 1.122-.052 2.115-.308 2.933-1.13.818-.819 1.075-1.812 1.13-2.933.066-1.156.066-4.618 0-5.774-.052-1.121-.308-2.114-1.13-2.933-.818-.818-1.811-1.075-2.933-1.13-1.155-.066-4.619-.066-5.774 0zm2.889 1.211c1.018 0 3.207-.08 4.125.281a2.362 2.362 0 011.33 1.331c.366.922.282 3.109.282 4.127 0 1.018.084 3.208-.281 4.127a2.362 2.362 0 01-1.33 1.33c-.922.366-3.108.282-4.126.282-1.019 0-3.208.08-4.126-.281a2.362 2.362 0 01-1.33-1.331c-.366-.922-.282-3.109-.282-4.127 0-1.018-.081-3.208.281-4.127a2.362 2.362 0 011.33-1.33c.922-.366 3.108-.282 4.127-.282zm0 2.15A3.583 3.583 0 008.412 12a3.583 3.583 0 003.59 3.59A3.583 3.583 0 0015.59 12a3.583 3.583 0 00-3.588-3.59zm0 1.255A2.336 2.336 0 0114.335 12a2.338 2.338 0 01-2.333 2.334A2.338 2.338 0 019.668 12a2.336 2.336 0 012.334-2.334zm3.735-2.24a.837.837 0 100 1.675.837.837 0 000-1.674z"/></symbol><symbol viewBox="0 0 18 19" id="icon-instagram-small" xmlns="http://www.w3.org/2000/svg"><path d="M9.332 18.25c1.52-.003 2.628-.022 3.32-.059.743-.039 1.387-.15 1.934-.332a4.553 4.553 0 001.7-1.074 4.553 4.553 0 001.073-1.7c.183-.546.293-1.19.332-1.933.04-.742.059-1.96.059-3.652v-.651a99.25 99.25 0 00-.04-2.982c-.051-.755-.168-1.406-.35-1.953a4.553 4.553 0 00-1.075-1.7 4.553 4.553 0 00-1.7-1.073c-.546-.183-1.19-.293-1.933-.332C11.91.769 10.692.75 9 .75h-.332c-1.52.003-2.628.022-3.32.059-.743.039-1.387.15-1.934.332a4.553 4.553 0 00-1.7 1.074 4.553 4.553 0 00-1.073 1.7c-.183.546-.293 1.19-.332 1.933C.269 6.59.25 7.808.25 9.5v.332c.003 1.52.022 2.628.059 3.32.039.743.15 1.387.332 1.934a4.553 4.553 0 001.074 1.7 4.164 4.164 0 001.7 1.034c.546.209 1.19.332 1.933.371.742.04 1.96.059 3.652.059h.332zm.605-1.563h-1.9a51.83 51.83 0 01-2.084-.039c-.963-.052-1.667-.156-2.11-.312-.78-.313-1.34-.872-1.679-1.68-.156-.442-.26-1.146-.312-2.11a56.99 56.99 0 01-.04-2.421l.001-1.589c.003-.88.015-1.574.039-2.083.052-.99.156-1.693.312-2.11a2.82 2.82 0 011.68-1.679c.442-.156 1.146-.26 2.11-.312a56.99 56.99 0 012.421-.04h1.25c1.042 0 1.849.014 2.422.04.99.052 1.693.156 2.11.312a2.82 2.82 0 011.679 1.68c.156.416.26 1.12.312 2.11.026.546.04 1.353.04 2.421v1.25c0 1.042-.014 1.849-.04 2.422-.052.963-.156 1.667-.312 2.11-.313.78-.872 1.34-1.68 1.679-.416.156-1.12.26-2.11.312a55.32 55.32 0 01-2.421.04h.312zm3.75-10.82a.951.951 0 00.723-.312 1.22 1.22 0 00.332-.742c0-.287-.104-.534-.312-.743a1.014 1.014 0 00-.743-.312c-.286 0-.533.104-.742.312a1.014 1.014 0 00-.312.743c0 .286.104.533.312.742.209.208.456.312.742.312zM9 13.992c.807 0 1.556-.202 2.246-.605a4.505 4.505 0 001.64-1.64c.404-.691.606-1.44.606-2.247 0-.807-.202-1.556-.605-2.246a4.505 4.505 0 00-1.64-1.64A4.371 4.371 0 009 5.007c-.807 0-1.556.202-2.246.605-.69.404-1.237.95-1.64 1.64a4.371 4.371 0 00-.606 2.247c0 .807.202 1.556.605 2.246.404.69.95 1.237 1.64 1.64.691.404 1.44.606 2.247.606zm0-1.562a2.822 2.822 0 01-2.07-.86 2.822 2.822 0 01-.86-2.07c0-.807.287-1.497.86-2.07A2.822 2.822 0 019 6.57c.807 0 1.497.287 2.07.86.573.573.86 1.263.86 2.07 0 .807-.287 1.497-.86 2.07a2.822 2.822 0 01-2.07.86z" fill-rule="nonzero"/></symbol><symbol viewBox="0 0 24 24" id="icon-linkedin" xmlns="http://www.w3.org/2000/svg"><path d="M12 0c6.627 0 12 5.373 12 12s-5.373 12-12 12S0 18.627 0 12 5.373 0 12 0zM8.134 9.653H5.23V19h2.903V9.653zm7.389-.234c-1.413 0-2.36.775-2.747 1.509h-.04V9.653H9.952V19h2.9v-4.628c0-1.219.23-2.397 1.74-2.397 1.487 0 1.509 1.39 1.509 2.475V19H19v-5.134c0-2.513-.54-4.447-3.477-4.447zM6.68 5C5.753 5 5 5.753 5 6.681s.753 1.697 1.68 1.697c.929 0 1.682-.769 1.682-1.697S7.609 5 6.68 5z"/></symbol><symbol viewBox="0 0 18 19" id="icon-linkedin-small" xmlns="http://www.w3.org/2000/svg"><path d="M16.5 18.25c.339 0 .631-.124.879-.371.247-.247.371-.54.371-.879V2c0-.339-.124-.631-.371-.879A1.201 1.201 0 0016.5.75h-15c-.339 0-.632.124-.879.371C.374 1.37.25 1.661.25 2v15c0 .339.124.632.371.879s.54.371.879.371h15zM4.234 6.258a1.4 1.4 0 01-1.054-.45c-.287-.299-.43-.65-.43-1.054s.143-.755.43-1.055a1.4 1.4 0 011.054-.449c.417 0 .775.15 1.075.45.3.299.449.65.449 1.054s-.15.755-.45 1.055c-.299.3-.657.449-1.074.449zm5.508 9.492H7.164V7.39h2.5v1.133h.04c.181-.364.468-.664.858-.898a3.01 3.01 0 011.602-.43c1.198 0 2.044.378 2.54 1.133.364.6.546 1.55.546 2.852v4.57h-2.578v-4.062c0-.678-.065-1.172-.195-1.485-.183-.495-.573-.742-1.172-.742-.6 0-1.029.221-1.29.664-.182.339-.273.833-.273 1.484v4.141zm-4.18 0H2.945V7.39h2.617v8.36z" fill-rule="nonzero"/></symbol><symbol viewBox="0 0 24 24" id="icon-minus" xmlns="http://www.w3.org/2000/svg"><path d="M23 11a1 1 0 01.117 1.993L23 13H1a1 1 0 01-.117-1.993L1 11h22z"/></symbol><symbol viewBox="0 0 18 13" id="icon-quotemark" xmlns="http://www.w3.org/2000/svg"><path d="M16.574 1.11c.126.154.138.34.053.495l-.054.08c-.086.135-.192.26-.305.38l-.344.35c-.193.197-.38.4-.563.604-.34.397-.659.805-.955 1.233-.195.31-.373.625-.539.95-.101.222-.197.447-.288.673.26-.145.54-.25.834-.302.524-.093 1.057.006 1.555.163.53.168 1.03.532 1.344.964.298.412.46.876.577 1.359.08.342.107.697.11 1.046.005.385-.03.775-.123 1.15-.192.774-.655 1.472-1.285 1.995-.59.488-1.39.722-2.165.748L14.32 13a3.385 3.385 0 01-2.332-.902 3.094 3.094 0 01-.694-.932 5.24 5.24 0 01-.343-1.067 6.786 6.786 0 01-.12-2.135c.068-.737.253-1.45.483-2.154a9.94 9.94 0 01.867-1.916 8.143 8.143 0 011.36-1.754 6.25 6.25 0 011.26-.972c.24-.134.512-.243.785-.294.344-.063.753-.05.987.236zM6.766.107l.107.058c.142.07.26.181.33.326a.683.683 0 01-.131.783.758.758 0 01-.32.19l-.61.478c-.284.23-.561.468-.834.708-.325.295-.634.603-.929.925-.254.305-.49.619-.712.945-.23.363-.44.733-.635 1.114-.093.202-.18.406-.26.612.316-.2.667-.366 1.041-.43.613-.107 1.25-.016 1.782.298.254.15.464.333.66.546.153.168.26.372.369.567a3.1 3.1 0 01.312.93c.092.479.04.992-.058 1.464-.09.43-.25.864-.434 1.266-.267.577-.585 1.113-1.115 1.513-.33.249-.773.4-1.187.462a3.855 3.855 0 01-.447.04A5.838 5.838 0 013.3 12.9c-.554-.02-1.097-.221-1.576-.47-.598-.312-1.062-.886-1.33-1.474a4.338 4.338 0 01-.376-1.479c-.067-.869.07-1.75.286-2.595.466-1.83 1.397-3.574 2.774-4.947A10.31 10.31 0 014.914.485 3.364 3.364 0 016.037.02c.237-.046.507-.017.73.086z" fill="#FFF" fill-rule="evenodd"/></symbol><symbol viewBox="0 0 24 24" id="icon-search" xmlns="http://www.w3.org/2000/svg"><path d="M10.5 0C16.299 0 21 4.701 21 10.5c0 2.544-.905 4.877-2.41 6.694l.023.016.094.083 5 5a1 1 0 01-1.32 1.497l-.094-.083-5-5a1.008 1.008 0 01-.1-.117A10.453 10.453 0 0110.5 21C4.701 21 0 16.299 0 10.5S4.701 0 10.5 0zm0 2a8.5 8.5 0 100 17 8.5 8.5 0 000-17z"/></symbol><symbol viewBox="0 0 24 24" id="icon-success" xmlns="http://www.w3.org/2000/svg"><g fill="none" fill-rule="evenodd"><path d="M24 12c0 6.627-5.373 12-12 12S0 18.627 0 12 5.373 0 12 0s12 5.373 12 12z" fill="#1FA75D"/><path d="M17.91 6.374a1.186 1.186 0 011.737.008c.404.427.467 1.084.158 1.605l-.085.128-.08.092-10 10.422a1.184 1.184 0 01-1.52.17l-.122-.087-.088-.083-4.546-4.737a1.337 1.337 0 01-.007-1.825 1.185 1.185 0 011.527-.179l.122.089.088.082 3.68 3.835 9.138-9.52z"/></g></symbol><symbol viewBox="0 0 151 50" id="icon-think-logo" xmlns="http://www.w3.org/2000/svg"><g fill="#fff" fill-rule="evenodd"><path d="M148.39 28.916h.4l.32 1.014c.035.117.068.255.079.286h.005c.01-.03.046-.169.081-.286l.332-1.014h.401l.232 1.7h-.42l-.095-.8a4.105 4.105 0 01-.028-.251h-.006c-.007.028-.033.13-.069.245l-.25.806h-.405l-.25-.806c-.031-.105-.06-.22-.067-.245h-.005c0 .028-.008.14-.02.252l-.1.8h-.37l.235-1.7zM58.256 10.01H54.56V6.75H66.3v3.26h-3.914v10.87h-4.13zM135.893 44.647c-.585 0-1.052-.03-1.403-.097a6.45 6.45 0 01-.717-.158l.558-3c.072.028.196.058.374.096.178.034.454.054.824.054.371 0 .682-.036.934-.108.25-.072.45-.17.608-.301.159-.126.288-.277.387-.45.101-.17.186-.357.259-.558l.321-.928-3.943-10.274h4.048l1.885 5.871h.087l1.563-5.87h3.921l-4.262 11.515c-.272.729-.564 1.378-.879 1.902-.316.518-.678.966-1.093 1.31a3.93 3.93 0 01-1.467.754c-.564.157-1.232.242-2.005.242M126.36 30.175c.157-.17.335-.318.534-.49.2-.17.436-.314.707-.457.273-.142.575-.25.91-.336a4.532 4.532 0 011.126-.126c.601 0 1.104.092 1.51.27.41.177.736.427.988.74.25.313.415.687.528 1.114.116.43.158.894.158 1.394v7.293h-3.913V33.1c0-.43-.04-.733-.203-.912-.165-.179-.41-.268-.78-.268-.373 0-.642.111-.897.332-.257.221-.511.398-.511.526v6.799h-3.913V28.923h2.271c1.406 0 1.484 1.252 1.484 1.252M115.39 37.212c.33 0 .622-.053.823-.159.199-.108.304-.219.521-.333v-1.49h-.359c-.613 0-1.107.073-1.479.274-.372.198-.556.493-.556.91 0 .54.35.798 1.05.798m-1.33 2.636c-.458 0-.883-.064-1.284-.192a2.99 2.99 0 01-1.048-.578 2.657 2.657 0 01-.708-.965c-.172-.386-.259-.835-.259-1.35 0-.671.155-1.25.463-1.737a3.655 3.655 0 011.231-1.186c.515-.309 1.11-.48 1.79-.623.677-.143 1.389-.162 2.13-.162h.36v-.427a.87.87 0 00-.31-.688c-.184-.156-.579-.235-1.149-.235-.314 0-.62.035-.896.107a5.967 5.967 0 00-.765.247 3.507 3.507 0 00-.591.3 9.283 9.283 0 01-.396.249l-1.545-2.275c.173-.157.4-.323.687-.504a6.222 6.222 0 011.018-.502 8.35 8.35 0 011.327-.397 7.677 7.677 0 011.638-.16c1.672 0 2.843.319 3.591.953.75.636 1.086 1.724 1.086 3.27v2.934c0 .857.075 1.575.147 2.17.072.593.19 1.045.276 1.48h-3.77c-.057-.218-.105-.287-.139-.485a5.602 5.602 0 01-.075-.533 3.27 3.27 0 01-.43.44c-.17.152-.375.29-.61.419a3.608 3.608 0 01-1.769.43M103.97 36.955c.541 0 .957-.213 1.243-.64.285-.432.426-1.11.426-2.037 0-.874-.13-1.514-.395-1.93-.264-.413-.639-.622-1.125-.622-.2 0-.374.028-.524.086a1.87 1.87 0 00-.407.215c-.12.086-.266.17-.353.257-.084.085-.014.157-.231.215v3.942c.217.128.355.247.555.353.198.109.495.16.81.16zm-5.062-8.032h3.696v1.175c.217-.371.669-.686 1.112-.943.443-.257 1.01-.386 1.712-.386 1.37 0 2.427.476 3.17 1.425.742.95 1.115 2.32 1.115 4.106 0 .84-.118 1.605-.354 2.291-.237.687-.564 1.269-.986 1.746-.423.48-.926.851-1.51 1.114a4.63 4.63 0 01-1.93.397c-.571 0-1.083-.068-1.453-.204a4.103 4.103 0 01-.876-.418v5.133h-3.696V28.923zM84.472 30.153c.143-.17.31-.313.502-.476a4.36 4.36 0 01.665-.449c.249-.142.533-.25.847-.336a4.152 4.152 0 011.093-.126c.728 0 1.31.14 1.747.42.434.278.751.668.952 1.168.473-.542.961-.943 1.467-1.2.508-.257 1.14-.385 1.897-.385.571 0 1.054.09 1.446.27.394.176.708.425.942.738.236.313.428.686.527 1.113.102.43.177.894.177 1.394v7.293h-3.913V33.1c0-.43-.06-.734-.189-.912-.128-.179-.357-.268-.683-.268a1.09 1.09 0 00-.748.268c-.208.178-.337.376-.554.59v6.799h-3.913V33.1c0-.43-.059-.734-.211-.912-.15-.179-.359-.268-.645-.268-.372 0-.653.103-.851.312-.2.207-.25.376-.467.502v6.843h-3.913V28.923h2.423c1.34 0 1.402 1.23 1.402 1.23M73.588 37.063c.614 0 1.008-.233 1.177-.696.173-.466.258-1.132.258-2.005 0-.883-.103-1.58-.31-2.09-.206-.506-.618-.761-1.23-.761-.615 0-1.016.237-1.201.709-.187.472-.279 1.143-.279 2.013 0 .873.11 1.564.331 2.07.223.507.64.76 1.254.76m-.064 2.786c-.943 0-1.764-.149-2.464-.45-.7-.301-1.282-.702-1.746-1.21a5.023 5.023 0 01-1.04-1.758 6.33 6.33 0 01-.342-2.07c0-.728.115-1.426.342-2.099a5.088 5.088 0 011.04-1.779 5.175 5.175 0 011.746-1.242c.7-.313 1.521-.471 2.464-.471.943 0 1.763.148 2.463.451.699.3 1.28.7 1.746 1.198.463.5.811 1.078 1.04 1.736.228.658.341 1.352.341 2.078 0 .717-.113 1.41-.341 2.082a5.311 5.311 0 01-1.028 1.788c-.459.521-1.041.943-1.748 1.264-.706.321-1.53.482-2.473.482M62.618 39.848c-1.3 0-2.425-.204-3.374-.612-.95-.407-1.736-.949-2.356-1.625a6.698 6.698 0 01-1.395-2.358 8.602 8.602 0 01-.46-2.796c0-.974.158-1.906.472-2.799a6.636 6.636 0 011.425-2.355c.635-.68 1.437-1.222 2.4-1.63.963-.407 2.089-.61 3.373-.61.944 0 1.783.1 2.519.3a6.846 6.846 0 011.983.879l-1.758 2.957a6.34 6.34 0 00-1.21-.558c-.423-.142-.954-.215-1.598-.215-.528 0-.995.097-1.403.291-.407.19-.75.46-1.028.803a3.515 3.515 0 00-.631 1.23 5.47 5.47 0 00-.216 1.576c0 .603.07 1.157.205 1.66a3.7 3.7 0 00.62 1.31c.28.362.625.65 1.04.856.414.207.9.31 1.456.31.772 0 1.386-.11 1.844-.332.457-.22.849-.446 1.178-.672l1.627 2.825a5.29 5.29 0 01-.748.516 7.387 7.387 0 01-1.082.514 8.717 8.717 0 01-1.35.387 7.805 7.805 0 01-1.533.148M98.908 5.445h3.913V14.1l2.626-3.655h4.114l-3.557 4.694 3.557 5.74h-4.392l-2.348-4.186v4.187h-3.913zM90.245 11.612c.158-.17.335-.359.536-.53.2-.172.436-.335.707-.479.272-.142.574-.26.91-.347a4.58 4.58 0 011.127-.13c.598 0 1.102.089 1.508.268.408.176.737.424.987.738.25.313.431.686.544 1.113.116.428.17.893.17 1.393v7.242h-3.913v-6.43c0-.428-.053-.731-.216-.91-.165-.178-.418-.268-.788-.268-.372 0-.63.112-.886.333-.257.22-.501.397-.501.525v6.749h-3.914V10.445h2.246c1.406 0 1.483 1.167 1.483 1.167M80.212 20.88h3.913V10.445h-3.913V20.88zm1.901-11.514c-.622 0-1.126-.2-1.517-.6a1.97 1.97 0 01-.577-1.415c0-.542.192-1.01.577-1.404.39-.394.895-.59 1.517-.59.625 0 1.132.196 1.518.59.388.393.581.862.581 1.404 0 .543-.193 1.014-.58 1.414-.387.4-.894.6-1.519.6zM67.604 5.445h3.695v6.02c.218-.143.367-.294.567-.45.2-.157.454-.305.711-.44.257-.136.563-.247.892-.333a4.487 4.487 0 011.12-.127c.6 0 1.105.089 1.512.268.408.178.74.423.988.738.25.315.438.684.552 1.115.115.428.18.894.18 1.392v7.252h-3.913v-6.438c0-.427-.06-.731-.223-.91-.165-.177-.422-.268-.792-.268-.373 0-.734.11-.99.332-.258.222-.386.396-.604.525v6.759h-3.695V5.445zM147.202 29.254h-.462v-.338h1.34v.338h-.464v1.362h-.414zM21.52 40.062c-.498-2.274-3.223-3.582-6.087-2.922-2.863.662-4.78 3.048-4.28 5.323.5 2.278 3.227 3.584 6.088 2.921 2.863-.661 4.78-3.042 4.28-5.322M22.447 45.104c-1.63.377-2.721 1.734-2.435 3.029.283 1.294 1.837 2.041 3.467 1.666 1.631-.376 2.72-1.736 2.435-3.033-.284-1.292-1.837-2.042-3.467-1.662M40.246 22.619h-3.04l-1.776-2.952v2.952h-2.61V11.967h2.609v5.905l1.97-2.645h2.846l-2.461 3.333 2.461 4.059zm-8.73 0h-2.608v-4.51c0-.296-.039-.506-.152-.629-.114-.124-.29-.185-.547-.185a.965.965 0 00-.653.23c-.179.153-.387.273-.387.363v4.73H24.56v-7.39h1.59c.85 0 .971.863.971.863.11-.119.233-.221.372-.34.137-.119.3-.22.488-.318a2.95 2.95 0 011.409-.32c.415 0 .763.063 1.045.186.282.124.509.295.682.511.173.22.25.476.33.773.079.296.07.618.07.964v5.072zm-8.54-8.438c-.268.277-.618.416-1.05.416-.432 0-.782-.139-1.05-.416a1.357 1.357 0 01-.401-.978c0-.377.133-.7.402-.973.267-.272.617-.408 1.05-.408.431 0 .781.136 1.049.408.267.273.4.596.4.973 0 .375-.133.702-.4.978zm-2.329 8.438h2.609v-7.392h-2.609v7.392zm-1.304 0h-2.609v-4.51c0-.296-.08-.506-.195-.629-.113-.124-.311-.185-.567-.185a.886.886 0 00-.622.23c-.179.153-.355.273-.355.363v4.73h-2.826v-10.65h2.826v4.082c0-.098.18-.202.319-.312a3 3 0 01.457-.303 2.791 2.791 0 011.365-.319c.415 0 .76.062 1.043.185.28.124.507.295.681.511a2.1 2.1 0 01.371.772c.079.297.112.618.112.964v5.072zm-8.623.028c-.341.09-.764.133-1.268.133-.525 0-.959-.062-1.305-.186a1.975 1.975 0 01-.823-.518 1.929 1.929 0 01-.447-.8 4 4 0 01-.143-1.045v-3.047H5.647v-1.957h1.087v-1.956h2.609v1.956h1.739v1.957h-1.74v2.454c0 .355.087.61.18.763.095.153.28.23.517.23.218 0 .419-.028.581-.081a3.23 3.23 0 00.37-.142l.52 1.972a4.61 4.61 0 01-.79.267zM36.625 6.716C35.205 2.839 30.615 0 25.166 0c-3.995 0-7.525 1.525-9.687 3.869-.102-.003-.2-.008-.3-.008C6.793 3.86 0 9.63 0 16.755c0 4.235 2.406 7.995 6.124 10.344.52 4.453 4.906 7.933 10.24 7.933a11.85 11.85 0 003.649-.573c2.057 1.27 4.557 2.02 7.258 2.02 6.14 0 11.263-3.866 12.412-8.993 3.795-1.807 6.406-5.56 6.406-9.902 0-5.429-4.084-9.94-9.464-10.868z"/></g></symbol><symbol viewBox="0 0 24 24" id="icon-trash" xmlns="http://www.w3.org/2000/svg"><path d="M14.286 0c1.744 0 3.183 1.327 3.28 3.018l.005.182v1.3H22a1 1 0 01.117 1.993L22 6.5h-1v14.3c0 1.715-1.38 3.101-3.1 3.195l-.186.005H6.286c-1.744 0-3.184-1.327-3.28-3.018L3 20.8V6.5H2a1 1 0 01-.117-1.993L2 4.5h4.428V3.2c0-1.715 1.38-3.101 3.1-3.195L9.715 0h4.572zM19 6.5H5v14.3c0 .613.499 1.131 1.153 1.194l.133.006h11.428c.674 0 1.215-.48 1.28-1.079L19 20.8V6.5zM9.5 10a1 1 0 01.993.883L10.5 11v7a1 1 0 01-1.993.117L8.5 18v-7a1 1 0 011-1zm5 0a1 1 0 01.993.883L15.5 11v7a1 1 0 01-1.993.117L13.5 18v-7a1 1 0 011-1zm-.214-8H9.714c-.673 0-1.214.48-1.279 1.079L8.43 3.2l-.001 1.3h7.143V3.2c0-.613-.498-1.131-1.152-1.194L14.286 2z"/></symbol><symbol viewBox="0 0 24 24" id="icon-twitter" xmlns="http://www.w3.org/2000/svg"><path d="M12 0c6.627 0 12 5.373 12 12s-5.373 12-12 12S0 18.627 0 12 5.373 0 12 0zm3.076 6c-1.817 0-3.28 1.36-3.28 3.028 0 .235.031.469.082.694-2.72-.131-5.147-1.331-6.761-3.169-.285.45-.447.966-.447 1.528 0 1.05.579 1.978 1.462 2.522a3.512 3.512 0 01-1.482-.384v.037c0 1.472 1.127 2.69 2.63 2.972a3.74 3.74 0 01-.864.103 4.47 4.47 0 01-.62-.047c.417 1.2 1.625 2.072 3.067 2.1a6.921 6.921 0 01-4.071 1.294c-.274 0-.528-.01-.792-.037A9.833 9.833 0 009.036 18c6.03 0 9.33-4.613 9.33-8.616 0-.13 0-.262-.01-.393A6.78 6.78 0 0020 7.425a7.008 7.008 0 01-1.888.469c.68-.375 1.198-.966 1.441-1.669-.63.347-1.34.6-2.08.731A3.403 3.403 0 0015.075 6z"/></symbol><symbol viewBox="0 0 20 17" id="icon-twitter-small" xmlns="http://www.w3.org/2000/svg"><path d="M6.289 16.625c2.396 0 4.518-.612 6.367-1.836 1.693-1.094 3.008-2.565 3.946-4.414.911-1.745 1.367-3.555 1.367-5.43 0-.234-.013-.403-.04-.507A9.016 9.016 0 0020 2.289a8.81 8.81 0 01-2.344.664c.886-.547 1.485-1.302 1.797-2.265a8.345 8.345 0 01-2.617.976 4.64 4.64 0 00-1.348-.937 3.913 3.913 0 00-1.66-.352c-.73 0-1.406.182-2.031.547a4.014 4.014 0 00-1.485 1.504 4.067 4.067 0 00-.546 2.05c0 .313.026.626.078.938a11.354 11.354 0 01-4.707-1.25 11.31 11.31 0 01-3.73-3.047A3.927 3.927 0 00.82 3.168c0 .716.17 1.374.508 1.973a4.55 4.55 0 001.328 1.484A3.861 3.861 0 01.82 6.078v.078c0 .964.313 1.823.938 2.578a4.133 4.133 0 002.344 1.446c-.365.078-.73.117-1.094.117-.235 0-.482-.013-.742-.04a4.08 4.08 0 001.425 2.013c.69.533 1.491.8 2.403.8-1.51 1.172-3.216 1.758-5.117 1.758-.365 0-.69-.013-.977-.039 1.901 1.224 3.997 1.836 6.289 1.836z" fill-rule="nonzero"/></symbol><symbol viewBox="0 0 24 22" id="icon-warning" xmlns="http://www.w3.org/2000/svg"><path d="M23.73 18.547c.769 1.313-.196 2.953-1.732 2.953H2.002c-1.539 0-2.5-1.643-1.732-2.953l9.998-17.063c.77-1.313 2.696-1.31 3.464 0l9.998 17.063z"/><path d="M12.005 17.5a1.498 1.498 0 01.287 2.97l-.144.023-.153.007a1.498 1.498 0 01-.287-2.97l.144-.023.153-.007zM12 4.475c.73 0 1.5.656 1.5 1.498v8.029c0 .817-.66 1.498-1.5 1.498-.73 0-1.5-.694-1.5-1.498V5.973c0-.817.66-1.498 1.5-1.498z"/></symbol><symbol viewBox="0 0 24 24" id="icon-webinars" xmlns="http://www.w3.org/2000/svg"><path d="M7 23a1 1 0 01-.117-1.993L7 21h4v-3H3a3 3 0 01-2.995-2.824L0 15V4a3 3 0 012.824-2.995L3 1h18a3 3 0 012.995 2.824L24 4v11a3 3 0 01-2.824 2.995L21 18h-8v3h4a1 1 0 01.117 1.993L17 23H7zM21 3H3a1 1 0 00-.993.883L2 4v11a1 1 0 00.883.993L3 16h18a1 1 0 00.993-.883L22 15V4a1 1 0 00-.883-.993L21 3z"/></symbol><symbol viewBox="0 0 24 24" id="icon-workshops" xmlns="http://www.w3.org/2000/svg"><path d="M7 13a1 1 0 01.117 1.993L7 15H3.524l2.823 2.653a8 8 0 0013.2-2.987 1 1 0 011.886.668 10 10 0 01-7.22 6.417 9.99 9.99 0 01-9.03-2.44l-.228-.222L2 16.31V20a1 1 0 01-.883.993L1 21a1 1 0 01-.993-.883L0 20v-6l.002-.068.015-.116.02-.09.027-.079.047-.106.027-.048.058-.087.033-.043.042-.048a1.09 1.09 0 01.079-.075l-.079.075a1.01 1.01 0 01.29-.213l.106-.045.157-.041.101-.013L1 13h6zm11.816-8.31l.229.221L22 7.69V4a1 1 0 01.883-.993L23 3a1 1 0 01.993.883L24 4l-.002 6.068-.01.092-.018.083-.034.109-.047.107-.047.08-.042.062-.071.084a1.026 1.026 0 01-.079.075l.079-.075a1.01 1.01 0 01-.248.192l-.054.028-.094.038-.116.033-.14.021L23 11h-6a1 1 0 01-.117-1.993L17 9h3.476l-2.823-2.653a8 8 0 00-13.2 2.987 1 1 0 11-1.886-.668 10 10 0 017.22-6.417 9.99 9.99 0 019.03 2.44z"/></symbol><symbol viewBox="0 0 24 24" id="icon-youtube" xmlns="http://www.w3.org/2000/svg"><path d="M12 0c6.627 0 12 5.373 12 12s-5.373 12-12 12S0 18.627 0 12 5.373 0 12 0zm.19 7h-.38c-.853.005-4.324.037-5.28.3a1.774 1.774 0 00-1.237 1.265c-.258.982-.289 2.904-.292 3.35v.19c.003.447.034 2.368.292 3.35.16.616.635 1.081 1.237 1.246C7.622 17 12 17 12 17s4.378 0 5.47-.3a1.747 1.747 0 001.237-1.244C19 14.339 19 12.01 19 12.01s0-2.329-.293-3.445a1.774 1.774 0 00-1.237-1.266c-.956-.262-4.427-.294-5.28-.298zm-1.622 2.895l3.66 2.115-3.66 2.115v-4.23z"/></symbol><symbol viewBox="0 0 23 15" id="icon-youtube-small" xmlns="http://www.w3.org/2000/svg"><path d="M11.5 15l3.555-.04c2.5-.077 4.088-.207 4.765-.39.469-.13.873-.364 1.211-.703.339-.338.573-.729.703-1.172.183-.703.313-1.784.39-3.242l.04-1.953-.04-1.953c-.077-1.432-.207-2.5-.39-3.203a2.708 2.708 0 00-.703-1.211 2.708 2.708 0 00-1.21-.703c-.678-.183-2.266-.313-4.766-.39L11.5 0 7.945.04c-2.5.077-4.088.207-4.765.39-.47.13-.873.364-1.211.703a2.708 2.708 0 00-.703 1.21c-.183.704-.313 1.772-.391 3.204-.026.73-.04 1.38-.04 1.953l.04 1.953c.078 1.458.208 2.54.39 3.242.13.443.365.834.704 1.172a2.7 2.7 0 001.21.703c.678.183 2.266.313 4.766.39L11.5 15zm-2.188-4.297V4.336L14.898 7.5l-5.586 3.203z" fill-rule="nonzero"/></symbol></svg>
