<?xml version="1.0" encoding="UTF-8"?><svg xmlns="http://www.w3.org/2000/svg" xmlns:xlink="http://www.w3.org/1999/xlink"><symbol viewBox="0 0 24 24" id="icon-add" xmlns="http://www.w3.org/2000/svg"><path d="M22.286 9.429H14.57V1.714C14.571.768 13.804 0 12.857 0h-1.714c-.947 0-1.714.768-1.714 1.714V9.43H1.714C.768 9.429 0 10.196 0 11.143v1.714c0 .947.768 1.714 1.714 1.714H9.43v7.715c0 .946.767 1.714 1.714 1.714h1.714c.947 0 1.714-.768 1.714-1.714V14.57h7.715c.946 0 1.714-.767 1.714-1.714v-1.714c0-.947-.768-1.714-1.714-1.714z"/></symbol><symbol viewBox="0 0 24 24" id="icon-alert" xmlns="http://www.w3.org/2000/svg"><path d="M15.75 20.25A3.754 3.754 0 0112 24a3.754 3.754 0 01-3.75-3.75A3.754 3.754 0 0112 16.5a3.754 3.754 0 013.75 3.75zM8.684 1.181l.638 12.75c.03.599.524 1.069 1.123 1.069h3.11c.6 0 1.093-.47 1.123-1.069l.638-12.75A1.125 1.125 0 0014.192 0H9.808c-.644 0-1.156.539-1.124 1.181z"/></symbol><symbol viewBox="0 0 24 24" id="icon-check" xmlns="http://www.w3.org/2000/svg"><path d="M8.151 20.55l-7.8-7.8a1.2 1.2 0 010-1.697l1.697-1.697a1.2 1.2 0 011.698 0L9 14.61 20.254 3.356a1.2 1.2 0 011.698 0l1.697 1.697a1.2 1.2 0 010 1.697l-13.8 13.8a1.2 1.2 0 01-1.698 0z"/></symbol><symbol viewBox="0 0 24 24" id="icon-chevron-down" xmlns="http://www.w3.org/2000/svg"><path d="M11.067 19.102l-10.68-11a1.387 1.387 0 010-1.921l1.245-1.283a1.292 1.292 0 011.863-.002L12 13.613l8.505-8.717a1.292 1.292 0 011.863.002l1.246 1.283c.515.53.515 1.39 0 1.921l-10.681 11c-.515.53-1.35.53-1.866 0z"/></symbol><symbol viewBox="0 0 24 24" id="icon-chevron-left" xmlns="http://www.w3.org/2000/svg"><path d="M4.898 11.067l11-10.68a1.387 1.387 0 011.921 0l1.283 1.245c.53.515.53 1.348.002 1.863L10.386 12l8.718 8.505a1.292 1.292 0 01-.002 1.863l-1.284 1.246c-.53.515-1.39.515-1.92 0l-11-10.682a1.292 1.292 0 010-1.865z"/></symbol><symbol viewBox="0 0 24 24" id="icon-chevron-right" xmlns="http://www.w3.org/2000/svg"><path d="M19.102 12.933l-11 10.68c-.53.516-1.39.516-1.921 0l-1.283-1.245a1.292 1.292 0 01-.002-1.863L13.613 12 4.896 3.495a1.292 1.292 0 01.002-1.863L6.18.386a1.387 1.387 0 011.921 0l11 10.681c.53.515.53 1.35 0 1.866z"/></symbol><symbol viewBox="0 0 24 24" id="icon-chevron-up" xmlns="http://www.w3.org/2000/svg"><path d="M12.933 4.898l10.68 11c.516.53.516 1.39 0 1.921l-1.245 1.283c-.514.53-1.348.53-1.863.002L12 10.387l-8.505 8.717a1.292 1.292 0 01-1.863-.002L.386 17.82a1.387 1.387 0 010-1.921l10.681-11c.515-.53 1.35-.53 1.866 0z"/></symbol><symbol viewBox="0 0 24 24" id="icon-close" xmlns="http://www.w3.org/2000/svg"><path d="M16.55 12l6.822-6.823a2.145 2.145 0 000-3.033L21.856.628a2.145 2.145 0 00-3.033 0L12 7.451 5.177.628a2.145 2.145 0 00-3.033 0L.628 2.144a2.145 2.145 0 000 3.033L7.451 12 .628 18.823a2.145 2.145 0 000 3.033l1.516 1.516a2.145 2.145 0 003.033 0L12 16.549l6.823 6.823a2.145 2.145 0 003.033 0l1.516-1.516a2.145 2.145 0 000-3.033L16.549 12z"/></symbol><symbol viewBox="0 0 24 24" id="icon-file" xmlns="http://www.w3.org/2000/svg"><path d="M13.5 6.375V0H4.125C3.502 0 3 .502 3 1.125v21.75C3 23.498 3.502 24 4.125 24h15.75c.623 0 1.125-.502 1.125-1.125V7.5h-6.375A1.128 1.128 0 0113.5 6.375zm3 11.063c0 .309-.253.562-.563.562H8.064a.564.564 0 01-.563-.563v-.375c0-.309.253-.562.563-.562h7.874c.31 0 .563.253.563.563v.375zm0-3c0 .309-.253.562-.563.562H8.064a.564.564 0 01-.563-.563v-.374c0-.31.253-.563.563-.563h7.874c.31 0 .563.253.563.563v.374zm0-3.376v.376c0 .309-.253.562-.563.562H8.064a.564.564 0 01-.563-.563v-.374c0-.31.253-.563.563-.563h7.874c.31 0 .563.253.563.563zM21 5.715V6h-6V0h.286c.3 0 .586.117.797.328l4.589 4.594c.21.21.328.497.328.792z"/></symbol><symbol viewBox="0 0 24 24" id="icon-minus" xmlns="http://www.w3.org/2000/svg"><path d="M22.286 9.5H1.714C.768 9.5 0 10.246 0 11.167v1.666c0 .92.768 1.667 1.714 1.667h20.572c.946 0 1.714-.746 1.714-1.667v-1.666c0-.92-.768-1.667-1.714-1.667z"/></symbol><symbol viewBox="0 0 24 24" id="icon-search" xmlns="http://www.w3.org/2000/svg"><path d="M23.626 20.711l-4.665-4.664a1.122 1.122 0 00-.795-.328h-.762a9.683 9.683 0 002.058-5.988A9.73 9.73 0 009.731 0 9.73 9.73 0 000 9.731a9.73 9.73 0 009.731 9.731c2.26 0 4.337-.767 5.988-2.058v.762c0 .3.117.585.328.795l4.664 4.665c.44.44 1.151.44 1.586 0l1.324-1.324c.44-.44.44-1.151.005-1.59zM9.73 15.72a5.985 5.985 0 01-5.988-5.988A5.985 5.985 0 019.73 3.743a5.985 5.985 0 015.988 5.988 5.985 5.985 0 01-5.988 5.988z"/></symbol><symbol viewBox="0 0 24 24" id="icon-trash" xmlns="http://www.w3.org/2000/svg"><path d="M3 21.75A2.25 2.25 0 005.25 24h13.5A2.25 2.25 0 0021 21.75V6H3v15.75zm12.75-12a.75.75 0 111.5 0v10.5a.75.75 0 11-1.5 0V9.75zm-4.5 0a.75.75 0 111.5 0v10.5a.75.75 0 11-1.5 0V9.75zm-4.5 0a.75.75 0 011.5 0v10.5a.75.75 0 11-1.5 0V9.75zm15-8.25h-5.625l-.44-.877A1.125 1.125 0 0014.676 0H9.319a1.112 1.112 0 00-1.003.623l-.441.877H2.25a.75.75 0 00-.75.75v1.5c0 .414.336.75.75.75h19.5a.75.75 0 00.75-.75v-1.5a.75.75 0 00-.75-.75z"/></symbol></svg>