<?xml version="1.0" encoding="utf-8"?><svg xmlns="http://www.w3.org/2000/svg" xmlns:xlink="http://www.w3.org/1999/xlink"><symbol viewBox="0 0 24 24" id="icon-add" xmlns="http://www.w3.org/2000/svg"><path d="M12 0a1 1 0 01.993.883L13 1v10h10a1 1 0 01.117 1.993L23 13H13v10a1 1 0 01-1.993.117L11 23V13H1a1 1 0 01-.117-1.993L1 11h10V1a1 1 0 011-1z"/></symbol><symbol viewBox="0 0 2 24" id="icon-alert" xmlns="http://www.w3.org/2000/svg"><path d="M1.01 22a1 1 0 01.117 1.993L1 24a1 1 0 01-.117-1.993L1.01 22zM1 0c.513 0 .936.366.993.837L2 .947v16.106c0 .523-.448.947-1 .947-.513 0-.936-.366-.993-.837L0 17.053V.947C0 .424.448 0 1 0z"/></symbol><symbol viewBox="0 0 24 22" id="icon-blog-post" xmlns="http://www.w3.org/2000/svg"><path d="M7.6 0A5.38 5.38 0 0112 2.287a5.384 5.384 0 014.142-2.28L16.4 0H23a1 1 0 01.993.883L24 1v16.667a1 1 0 01-.883.993l-.117.007h-7.7c-1.268 0-2.3 1.042-2.3 2.333 0 .598-.402.927-.845.99l-.103.009h-.104c-.447-.02-.881-.31-.941-.866l-.012-.293c-.078-1.163-.995-2.09-2.138-2.168l-.157-.005H1a1 1 0 01-.993-.884L0 17.667V1A1 1 0 01.883.007L1 0h6.6zm0 2H2v14.666h6.7c.746 0 1.447.192 2.058.528l.242.144V5.444l-.005-.189C10.905 3.565 9.611 2.2 7.97 2.02l-.184-.015L7.6 2zM22 2h-5.6c-1.813 0-3.298 1.439-3.395 3.255l-.005.19v11.892l.223-.132a4.248 4.248 0 011.617-.514l.251-.02.209-.004 6.7-.001V2z"/></symbol><symbol viewBox="0 0 22 24" id="icon-calendar" xmlns="http://www.w3.org/2000/svg"><path d="M15.5 0a1 1 0 01.993.883L16.5 1v1H19a3 3 0 012.995 2.824L22 5v16a3 3 0 01-2.824 2.995L19 24H3a3 3 0 01-2.995-2.824L0 21V5a3 3 0 012.824-2.995L3 2h2.5V1A1 1 0 017.493.883L7.5 1v1h7V1a1 1 0 011-1zM20 10.5H2V21a1 1 0 00.883.993L3 22h16a1 1 0 00.993-.883L20 21V10.5zM5.5 4H3a1 1 0 00-.993.883L2 5v3.5h18V5a1 1 0 00-.883-.993L19 4h-2.5v1a1 1 0 01-1.993.117L14.5 5V4h-7v1a1 1 0 01-1.993.117L5.5 5V4z"/></symbol><symbol viewBox="0 0 24 17" id="icon-check" xmlns="http://www.w3.org/2000/svg"><path d="M22.296.29a1 1 0 011.492 1.326l-.084.094-15.125 15a1 1 0 01-1.314.082l-.094-.082L.296 9.892A1 1 0 011.61 8.389l.094.083 6.17 6.118L22.296.29z"/></symbol><symbol viewBox="0 0 24 24" id="icon-chevron-down" xmlns="http://www.w3.org/2000/svg"><path d="M.293 5.293a1 1 0 011.32-.083l.094.083L12 15.585 22.293 5.293a1 1 0 011.32-.083l.094.083a1 1 0 01.083 1.32l-.083.094-11 11a1 1 0 01-1.32.083l-.094-.083-11-11a1 1 0 010-1.414z"/></symbol><symbol viewBox="0 0 13 24" id="icon-chevron-left" xmlns="http://www.w3.org/2000/svg"><path d="M11.293.293a1 1 0 011.497 1.32l-.083.094L2.415 12l10.292 10.293a1 1 0 01.083 1.32l-.083.094a1 1 0 01-1.32.083l-.094-.083-11-11a1 1 0 01-.083-1.32l.083-.094 11-11z"/></symbol><symbol viewBox="0 0 13 24" id="icon-chevron-right" xmlns="http://www.w3.org/2000/svg"><path d="M.293.293A1 1 0 011.613.21l.094.083 11 11a1 1 0 01.083 1.32l-.083.094-11 11a1 1 0 01-1.497-1.32l.083-.094L10.585 12 .293 1.707A1 1 0 01.21.387L.293.293z"/></symbol><symbol viewBox="0 0 24 13" id="icon-chevron-up" xmlns="http://www.w3.org/2000/svg"><path d="M11.293.293a1 1 0 011.32-.083l.094.083 11 11a1 1 0 01-1.32 1.497l-.094-.083L12 2.415 1.707 12.707a1 1 0 01-1.32.083l-.094-.083a1 1 0 01-.083-1.32l.083-.094 11-11z"/></symbol><symbol viewBox="0 0 24 24" id="icon-clock" xmlns="http://www.w3.org/2000/svg"><path d="M12 0c6.627 0 12 5.373 12 12s-5.373 12-12 12S0 18.627 0 12 5.373 0 12 0zm0 2C6.477 2 2 6.477 2 12s4.477 10 10 10 10-4.477 10-10S17.523 2 12 2zm0 2a1 1 0 01.993.883L13 5v6.165l3.49 1.963a1 1 0 01.433 1.257l-.051.105a1 1 0 01-1.257.433l-.105-.051-4-2.25a1 1 0 01-.503-.753L11 11.75V5a1 1 0 011-1z"/></symbol><symbol viewBox="0 0 24 24" id="icon-close" xmlns="http://www.w3.org/2000/svg"><path d="M23.314.686a1 1 0 01.077 1.327l-.077.088-9.9 9.898 9.9 9.9a1 1 0 01-1.327 1.492l-.088-.077-9.9-9.9-9.898 9.9a1 1 0 01-1.492-1.327l.077-.088 9.9-9.9-9.9-9.898A1 1 0 012.013.609l.088.077 9.898 9.9 9.9-9.9a1 1 0 011.415 0z"/></symbol><symbol viewBox="0 0 80 80" id="icon-dribbble" xmlns="http://www.w3.org/2000/svg"><path d="M39.363 40.979c.953-.401 1.978-.654 2.965-1.096-.457-.86-.894-1.847-1.293-2.644-.141-.292-.243-.651-.51-.838-6.347 1.84-13.383 2.989-21.592 2.967-.165 6.627 2.241 11.249 5.414 14.756 3.66-5.665 8.53-10.423 15.016-13.145zm4.316 2.511c-7.31 2.637-13.052 6.841-16.625 13.213 2.401 1.888 5.662 3.516 9.475 4.19 4.194.739 8.593-.044 11.73-1.417-.943-5.407-2.464-10.547-4.19-15.081-.113-.293-.098-.696-.39-.905zM30.987 20.933c-5.876 2.933-10 7.623-11.667 14.761 7.305-.085 13.791-.991 19.526-2.644-2.481-4.178-4.975-8.338-7.859-12.117zM40 4.316C20.289 4.316 4.316 20.294 4.316 40S20.289 75.684 40 75.684c17.966 0 32.826-13.283 35.31-30.561.243-1.181.355-2.396.335-3.648.019-.488.039-.982.039-1.475C75.684 20.294 59.706 4.316 40 4.316zm18.243 52.449c-1.968 2.156-4.306 3.888-7.086 5.286-2.765 1.392-5.92 2.462-9.662 2.644-7.888.384-14.068-2.651-18.175-6.442-4.233-3.908-7.431-9.142-7.99-16.693-.296-4.015.491-7.563 1.677-10.569 1.23-3.125 2.688-5.468 4.7-7.667 2.819-3.077 6.649-5.755 11.473-7.089a26.348 26.348 0 015.351-.904c8.068-.52 14.034 2.731 18.233 6.508 4.19 3.762 7.485 9.232 7.927 16.756.468 7.918-2.574 13.947-6.448 18.17zM47.742 42.459c1.628 4.731 3.125 9.589 4.058 15.018 1.166-.654 2.202-1.558 3.159-2.515 2.916-2.919 5.069-6.7 5.925-11.599-3.628-1.062-8.716-1.604-13.142-.904zm-4.704-10.632c4.413-1.791 8.34-4.073 10.953-7.669-3.465-2.916-8.462-5.553-14.821-5.217-1.541.078-2.678.192-4.058.515 2.372 3.482 4.899 7.094 6.96 10.763.3.529.504 1.159.966 1.608zm1.545 3.22c.496.967.996 2.046 1.419 3.03.151.36.214.78.515 1.033 4.899-.549 10.345-.141 14.627.707-.165-5.786-2.085-9.815-4.768-13.084-3.061 3.639-7.122 6.283-11.793 8.314z"/></symbol><symbol viewBox="0 0 24 24" id="icon-error" xmlns="http://www.w3.org/2000/svg"><g fill="none" fill-rule="evenodd"><path d="M24 12c0 6.629-5.373 12-12 12S0 18.629 0 12C0 5.375 5.373 0 12 0s12 5.375 12 12z" fill="#DC4A56"/><path d="M12.005 18a1.498 1.498 0 01.287 2.97l-.144.023-.153.007a1.498 1.498 0 01-.287-2.97l.144-.023.153-.007zM12 3c.73 0 1.5.656 1.5 1.498v10.004a1.498 1.498 0 01-2.972.278l-.02-.134-.008-.144V4.498C10.5 3.681 11.16 3 12 3z"/></g></symbol><symbol viewBox="0 0 24 24" id="icon-facebook" xmlns="http://www.w3.org/2000/svg"><path fill-rule="evenodd" d="M24 12.073C24 5.403 18.629 0 12 0S0 5.404 0 12.073C0 18.099 4.388 23.093 10.125 24v-8.437H7.077v-3.49h3.048v-2.66c0-3.025 1.79-4.697 4.532-4.697 1.314 0 2.687.236 2.687.236v2.97H15.83c-1.49 0-1.955.93-1.955 1.885v2.266h3.328l-.532 3.49h-2.796V24C19.612 23.094 24 18.099 24 12.073z"/></symbol><symbol viewBox="0 0 20 24" id="icon-file" xmlns="http://www.w3.org/2000/svg"><path d="M11.125 0a1 1 0 01.6.2l.1.085 7.874 7.7a1 1 0 01.292.582L20 8.7v12.1c0 1.711-1.361 3.101-3.066 3.195L16.75 24H3.25C1.522 24 .101 22.67.005 20.982L0 20.8V3.2C0 1.489 1.361.099 3.066.005L3.25 0h7.875zM10 2H3.25c-.652 0-1.18.477-1.244 1.078L2 3.2v17.6c0 .617.488 1.132 1.121 1.194L3.25 22h13.5c.652 0 1.18-.477 1.244-1.078L18 20.8V10h-7a1 1 0 01-.993-.883L10 9V2zm6.852 6L12 3.255V8h4.852z"/></symbol><symbol viewBox="0 0 80 80" id="icon-flickr" xmlns="http://www.w3.org/2000/svg"><path d="M40.077 2.762c-20.567 0-37.238 16.673-37.238 37.24 0 20.562 16.67 37.235 37.238 37.235 20.562 0 37.232-16.673 37.232-37.235 0-20.567-16.67-37.24-37.232-37.24M26.486 51.035c-6.095 0-11.035-4.942-11.035-11.032 0-6.098 4.939-11.043 11.035-11.043s11.04 4.945 11.04 11.043c0 6.092-4.945 11.032-11.04 11.032m27.179 0c-6.095 0-11.04-4.942-11.04-11.032 0-6.098 4.945-11.043 11.04-11.043S64.7 33.905 64.7 40.003c0 6.092-4.94 11.032-11.035 11.032"/></symbol><symbol viewBox="0 0 41 42" id="icon-floating-form-chat" xmlns="http://www.w3.org/2000/svg"><g fill="none"><path fill="#163045" d="M35.654 6.635c-6.968-6.919-18.22-8.161-26.412-2.7A19.135 19.135 0 004.377 8.59C.196 14.326-.595 22.118 2.387 28.955c.197.403.262.858.185 1.3l-2.059 8.61c-.141.67.067 1.364.556 1.849.399.39.942.603 1.503.589.374-.01 3.448-.592 9.222-1.747.448-.053.972-.421 1.4-.284 9.223 2.945 20.01-.731 23.715-6.337 3.706-5.605 5.713-19.38-1.255-26.3z"/><path fill="#FFF" d="M30.24 35.86c-4.417 2.408-10.913 2.42-15.564.487a6.79 6.79 0 00-2.573-.528 7.155 7.155 0 00-1.153.102l-5.764.772.844-5.707a6.198 6.198 0 00-.432-3.676c-1.959-4.588-1.348-9.83 1.093-14.186 2.442-4.357 6.773-7.37 11.753-8.174 5.234-.848 10.561.356 14.312 4.056 3.75 3.7 5.754 9.505 4.894 14.668-.859 5.164-2.994 9.778-7.41 12.186z"/><path fill="#163045" d="M28.041 26.384a1.01 1.01 0 011.002 1.15 1.38 1.38 0 01-1.319 1.19l-13.608.482a1.387 1.387 0 01-1.434-1.336l-.001-.486a1 1 0 011-1h14.36zm-4.59-5.747c.96 0 1.832.562 2.227 1.437a1.017 1.017 0 01-.926 1.437H14.117a1.437 1.437 0 010-2.874h9.335zm-9.334-5.723l15.372.246c.638.01 1.149.53 1.149 1.168a1.15 1.15 0 01-1.148 1.15c-2.25.005-4.366.024-6.345.056-2.068.035-5.077.1-9.028.195a1.402 1.402 0 01-1.436-1.367v-.034c0-.781.633-1.414 1.413-1.414h.023z"/></g></symbol><symbol viewBox="0 0 45 44" id="icon-floating-form-close" xmlns="http://www.w3.org/2000/svg"><g fill="none"><path fill="#0B3047" d="M23.151 0c.77 0 1.532.042 2.286.125 2.103.233 4.1.73 5.95 1.5.979.405 1.868.837 2.693 1.316a22.254 22.254 0 012.473 1.668 22.013 22.013 0 017.046 9.476 22.287 22.287 0 011.38 6.067c.097 1.11.11 2.184.03 3.232a23.26 23.26 0 01-.447 3.192 22.205 22.205 0 01-5.67 10.667 21.97 21.97 0 01-4.828 3.802 21.76 21.76 0 01-5.715 2.312c-2.134.518-4.3.73-6.398.61-2.15-.122-4.221-.519-6.141-1.198-1.955-.69-3.764-1.608-5.374-2.742-1.687-1.189-3.166-2.538-4.4-4.038-1.326-1.614-2.399-3.321-3.186-5.115a22.154 22.154 0 01-1.07-2.932 21.941 21.941 0 01-.623-3 22.56 22.56 0 01-.218-3.205c.009-1.022.095-2.067.255-3.137.152-1.019.365-1.998.645-2.938.28-.94.635-1.883 1.065-2.853.14-.313.386-.563.675-.733l.063-.035.076-.151c.258-.507.535-1 .83-1.48l.3-.473c2.166-3.306 5.173-5.994 8.649-7.694A21.796 21.796 0 0118.568.478l.576-.113.573-.096A22.401 22.401 0 0123.151 0z"/><path fill="#FFF" d="M20.58 3.142c-1.659.234-3.276.678-4.808 1.317a19.805 19.805 0 00-4.165 2.433 19.87 19.87 0 00-3.471 3.474 19.87 19.87 0 00-1.78 2.8l-.07.137.009.036c.03.19.03.38 0 .569l-.04.188-.047.135-.12.28a19.624 19.624 0 00-1.292 4.709 20.092 20.092 0 00-.005 5.032c.233 1.629.67 3.223 1.296 4.742a19.844 19.844 0 002.447 4.176 19.903 19.903 0 003.316 3.316 19.737 19.737 0 004.14 2.422c1.5.617 3.068 1.046 4.658 1.275 1.673.211 3.37.212 5.033.005a19.872 19.872 0 004.805-1.314 19.994 19.994 0 004.211-2.472 19.88 19.88 0 003.354-3.363 19.518 19.518 0 002.38-4.075 19.137 19.137 0 001.28-4.623c.22-1.72.229-3.444.02-5.097a19.532 19.532 0 00-1.29-4.77 19.672 19.672 0 00-2.467-4.22 19.885 19.885 0 00-3.402-3.395 19.446 19.446 0 00-4.141-2.421 19.594 19.594 0 00-4.24-1.218l-.548-.085-.55-.061a19.999 19.999 0 00-4.512.068z"/><path fill="#0B3047" d="M31.49 12.748c.251.396.285.932.052 1.341-.08.141-.158.272-.235.396l-.212.33c-.13.198-.232.342-.342.471l-.875.951-1.492 1.705-.716.848-1.18 1.432-.839.985 3.722 3.79.725.753c.574.602.931 1 1.328 1.484l.601.745c.36.453.752.96 1.253 1.617.383.501.306 1.264-.105 1.732a1.371 1.371 0 01-1.508.38l-.111-.052a2.617 2.617 0 01-.64-.381l-.188-.161-.2-.185a3.4 3.4 0 01-.222-.233l-.461-.54-.31-.371a39.213 39.213 0 00-1.154-1.314l-1.814-1.963-1.73-1.822-1.129-1.203a92.212 92.212 0 00-2.203 2.788l-1.123 1.467-.772.954c-.04.049-.079.092-.12.138l-.56.617c-.642.707-1.347 1.375-2.314 2.22-.272.238-.685.303-1.03.222a1.274 1.274 0 01-.79-.558 1.317 1.317 0 01-.175-.982c.07-.319.219-.524.49-.76l.114-.1a24.631 24.631 0 001.617-1.571l.65-.719.605-.75c.115-.142.217-.275.36-.47l.882-1.195a100.617 100.617 0 012.507-3.283c-.39-.415-.746-.802-1.084-1.176l-.744-.835c-.09-.102-.178-.205-.273-.316l-2.036-2.411c-.094-.11-.173-.201-.249-.286l-.437-.472c-.58-.622-.871-.926-1.22-1.273-.508-.508-.588-1.305-.18-1.882l.094-.12.108-.109c.227-.205.518-.33.825-.36.399-.035.792.095 1.077.38l.414.42.888.935c.287.305.427.457.59.646l1.234 1.44.627.735a42.476 42.476 0 001.917 2.094l.302.308.415-.509c.209-.26.383-.485.678-.87l.968-1.262.347-.434c.122-.148.254-.307.415-.497l1.074-1.267.373-.447a9.39 9.39 0 01.385-.431l.4-.393c.073-.068.128-.118.169-.152l.036-.028.065-.07.329-.287.06-.05c.09-.074.185-.132.3-.188l.239-.107.11-.04.111-.029.114-.016c.468-.043.95.208 1.202.606z"/></g></symbol><symbol viewBox="0 0 80 80" id="icon-github" xmlns="http://www.w3.org/2000/svg"><path d="M40.183 3.163C20.29 3.163 4.162 19.71 4.162 40.101c0 16.322 10.324 30.151 24.635 35.04.226.048.418.064.612.064 1.335 0 1.849-.981 1.849-1.833 0-.884-.032-3.2-.048-6.288-1.351.306-2.557.435-3.634.435-6.931 0-8.507-5.386-8.507-5.386-1.641-4.263-4.004-5.404-4.004-5.404-3.135-2.204-.016-2.267.225-2.267h.017c3.618.32 5.516 3.825 5.516 3.825 1.801 3.153 4.212 4.037 6.368 4.037 1.688 0 3.216-.546 4.117-.964.321-2.38 1.253-4.005 2.283-4.938-7.993-.934-16.403-4.101-16.403-18.252 0-4.036 1.399-7.332 3.698-9.906-.37-.933-1.607-4.696.354-9.777 0 0 .257-.08.803-.08 1.303 0 4.246.498 9.102 3.875 2.878-.82 5.95-1.221 9.022-1.238 3.054.017 6.142.418 9.021 1.238 4.856-3.377 7.8-3.875 9.103-3.875.546 0 .804.08.804.08 1.96 5.082.723 8.845.354 9.777 2.3 2.589 3.698 5.886 3.698 9.906 0 14.184-8.427 17.303-16.451 18.22 1.287 1.142 2.445 3.393 2.445 6.834 0 4.938-.049 8.925-.049 10.131 0 .868.498 1.85 1.832 1.85.194 0 .419-.017.645-.064 14.328-4.889 24.636-18.734 24.636-35.04C76.204 19.71 60.076 3.163 40.183 3.163z"/></symbol><symbol viewBox="0 0 24 24" id="icon-instagram" xmlns="http://www.w3.org/2000/svg"><path d="M12 0c6.627 0 12 5.373 12 12s-5.373 12-12 12S0 18.627 0 12 5.373 0 12 0zM9.113 5.05C7.994 5.101 7 5.357 6.18 6.176c-.822.818-1.075 1.812-1.13 2.933-.066 1.156-.066 4.62 0 5.777.052 1.121.308 2.114 1.13 2.933.821.818 1.811 1.075 2.933 1.13 1.155.066 4.619.066 5.774 0 1.122-.052 2.115-.308 2.933-1.13.818-.819 1.075-1.812 1.13-2.933.066-1.156.066-4.618 0-5.774-.052-1.121-.308-2.114-1.13-2.933-.818-.818-1.811-1.075-2.933-1.13-1.155-.066-4.619-.066-5.774 0zm2.889 1.211c1.018 0 3.207-.08 4.125.281a2.362 2.362 0 011.33 1.331c.366.922.282 3.109.282 4.127 0 1.018.084 3.208-.281 4.127a2.362 2.362 0 01-1.33 1.33c-.922.366-3.108.282-4.126.282-1.019 0-3.208.08-4.126-.281a2.362 2.362 0 01-1.33-1.331c-.366-.922-.282-3.109-.282-4.127 0-1.018-.081-3.208.281-4.127a2.362 2.362 0 011.33-1.33c.922-.366 3.108-.282 4.127-.282zm0 2.15A3.583 3.583 0 008.412 12a3.583 3.583 0 003.59 3.59A3.583 3.583 0 0015.59 12a3.583 3.583 0 00-3.588-3.59zm0 1.255A2.336 2.336 0 0114.335 12a2.338 2.338 0 01-2.333 2.334A2.338 2.338 0 019.668 12a2.336 2.336 0 012.334-2.334zm3.735-2.24a.837.837 0 100 1.675.837.837 0 000-1.674z"/></symbol><symbol viewBox="0 0 24 24" id="icon-linkedin" xmlns="http://www.w3.org/2000/svg"><path d="M12 0c6.627 0 12 5.373 12 12s-5.373 12-12 12S0 18.627 0 12 5.373 0 12 0zM8.134 9.653H5.23V19h2.903V9.653zm7.389-.234c-1.413 0-2.36.775-2.747 1.509h-.04V9.653H9.952V19h2.9v-4.628c0-1.219.23-2.397 1.74-2.397 1.487 0 1.509 1.39 1.509 2.475V19H19v-5.134c0-2.513-.54-4.447-3.477-4.447zM6.68 5C5.753 5 5 5.753 5 6.681s.753 1.697 1.68 1.697c.929 0 1.682-.769 1.682-1.697S7.609 5 6.68 5z"/></symbol><symbol viewBox="0 0 24 24" id="icon-minus" xmlns="http://www.w3.org/2000/svg"><path d="M23 11a1 1 0 01.117 1.993L23 13H1a1 1 0 01-.117-1.993L1 11h22z"/></symbol><symbol viewBox="0 0 24 24" id="icon-search" xmlns="http://www.w3.org/2000/svg"><path d="M10.5 0C16.299 0 21 4.701 21 10.5c0 2.544-.905 4.877-2.41 6.694l.023.016.094.083 5 5a1 1 0 01-1.32 1.497l-.094-.083-5-5a1.008 1.008 0 01-.1-.117A10.453 10.453 0 0110.5 21C4.701 21 0 16.299 0 10.5S4.701 0 10.5 0zm0 2a8.5 8.5 0 100 17 8.5 8.5 0 000-17z"/></symbol><symbol viewBox="0 0 24 24" id="icon-success" xmlns="http://www.w3.org/2000/svg"><g fill="none" fill-rule="evenodd"><path d="M24 12c0 6.627-5.373 12-12 12S0 18.627 0 12 5.373 0 12 0s12 5.373 12 12z" fill="#1FA75D"/><path d="M17.91 6.374a1.186 1.186 0 011.737.008c.404.427.467 1.084.158 1.605l-.085.128-.08.092-10 10.422a1.184 1.184 0 01-1.52.17l-.122-.087-.088-.083-4.546-4.737a1.337 1.337 0 01-.007-1.825 1.185 1.185 0 011.527-.179l.122.089.088.082 3.68 3.835 9.138-9.52z"/></g></symbol><symbol viewBox="0 0 24 24" id="icon-trash" xmlns="http://www.w3.org/2000/svg"><path d="M14.286 0c1.744 0 3.183 1.327 3.28 3.018l.005.182v1.3H22a1 1 0 01.117 1.993L22 6.5h-1v14.3c0 1.715-1.38 3.101-3.1 3.195l-.186.005H6.286c-1.744 0-3.184-1.327-3.28-3.018L3 20.8V6.5H2a1 1 0 01-.117-1.993L2 4.5h4.428V3.2c0-1.715 1.38-3.101 3.1-3.195L9.715 0h4.572zM19 6.5H5v14.3c0 .613.499 1.131 1.153 1.194l.133.006h11.428c.674 0 1.215-.48 1.28-1.079L19 20.8V6.5zM9.5 10a1 1 0 01.993.883L10.5 11v7a1 1 0 01-1.993.117L8.5 18v-7a1 1 0 011-1zm5 0a1 1 0 01.993.883L15.5 11v7a1 1 0 01-1.993.117L13.5 18v-7a1 1 0 011-1zm-.214-8H9.714c-.673 0-1.214.48-1.279 1.079L8.43 3.2l-.001 1.3h7.143V3.2c0-.613-.498-1.131-1.152-1.194L14.286 2z"/></symbol><symbol viewBox="0 0 24 24" id="icon-twitter" xmlns="http://www.w3.org/2000/svg"><path d="M12 0c6.627 0 12 5.373 12 12s-5.373 12-12 12S0 18.627 0 12 5.373 0 12 0zm3.076 6c-1.817 0-3.28 1.36-3.28 3.028 0 .235.031.469.082.694-2.72-.131-5.147-1.331-6.761-3.169-.285.45-.447.966-.447 1.528 0 1.05.579 1.978 1.462 2.522a3.512 3.512 0 01-1.482-.384v.037c0 1.472 1.127 2.69 2.63 2.972a3.74 3.74 0 01-.864.103 4.47 4.47 0 01-.62-.047c.417 1.2 1.625 2.072 3.067 2.1a6.921 6.921 0 01-4.071 1.294c-.274 0-.528-.01-.792-.037A9.833 9.833 0 009.036 18c6.03 0 9.33-4.613 9.33-8.616 0-.13 0-.262-.01-.393A6.78 6.78 0 0020 7.425a7.008 7.008 0 01-1.888.469c.68-.375 1.198-.966 1.441-1.669-.63.347-1.34.6-2.08.731A3.403 3.403 0 0015.075 6z"/></symbol><symbol viewBox="0 0 24 22" id="icon-warning" xmlns="http://www.w3.org/2000/svg"><path d="M23.73 18.547c.769 1.313-.196 2.953-1.732 2.953H2.002c-1.539 0-2.5-1.643-1.732-2.953l9.998-17.063c.77-1.313 2.696-1.31 3.464 0l9.998 17.063z"/><path d="M12.005 17.5a1.498 1.498 0 01.287 2.97l-.144.023-.153.007a1.498 1.498 0 01-.287-2.97l.144-.023.153-.007zM12 4.475c.73 0 1.5.656 1.5 1.498v8.029c0 .817-.66 1.498-1.5 1.498-.73 0-1.5-.694-1.5-1.498V5.973c0-.817.66-1.498 1.5-1.498z"/></symbol><symbol viewBox="0 0 24 24" id="icon-webinars" xmlns="http://www.w3.org/2000/svg"><path d="M7 23a1 1 0 01-.117-1.993L7 21h4v-3H3a3 3 0 01-2.995-2.824L0 15V4a3 3 0 012.824-2.995L3 1h18a3 3 0 012.995 2.824L24 4v11a3 3 0 01-2.824 2.995L21 18h-8v3h4a1 1 0 01.117 1.993L17 23H7zM21 3H3a1 1 0 00-.993.883L2 4v11a1 1 0 00.883.993L3 16h18a1 1 0 00.993-.883L22 15V4a1 1 0 00-.883-.993L21 3z"/></symbol><symbol viewBox="0 0 24 24" id="icon-workshops" xmlns="http://www.w3.org/2000/svg"><path d="M7 13a1 1 0 01.117 1.993L7 15H3.524l2.823 2.653a8 8 0 0013.2-2.987 1 1 0 011.886.668 10 10 0 01-7.22 6.417 9.99 9.99 0 01-9.03-2.44l-.228-.222L2 16.31V20a1 1 0 01-.883.993L1 21a1 1 0 01-.993-.883L0 20v-6l.002-.068.015-.116.02-.09.027-.079.047-.106.027-.048.058-.087.033-.043.042-.048a1.09 1.09 0 01.079-.075l-.079.075a1.01 1.01 0 01.29-.213l.106-.045.157-.041.101-.013L1 13h6zm11.816-8.31l.229.221L22 7.69V4a1 1 0 01.883-.993L23 3a1 1 0 01.993.883L24 4l-.002 6.068-.01.092-.018.083-.034.109-.047.107-.047.08-.042.062-.071.084a1.026 1.026 0 01-.079.075l.079-.075a1.01 1.01 0 01-.248.192l-.054.028-.094.038-.116.033-.14.021L23 11h-6a1 1 0 01-.117-1.993L17 9h3.476l-2.823-2.653a8 8 0 00-13.2 2.987 1 1 0 11-1.886-.668 10 10 0 017.22-6.417 9.99 9.99 0 019.03 2.44z"/></symbol><symbol viewBox="0 0 24 24" id="icon-youtube" xmlns="http://www.w3.org/2000/svg"><path d="M12 0c6.627 0 12 5.373 12 12s-5.373 12-12 12S0 18.627 0 12 5.373 0 12 0zm.19 7h-.38c-.853.005-4.324.037-5.28.3a1.774 1.774 0 00-1.237 1.265c-.258.982-.289 2.904-.292 3.35v.19c.003.447.034 2.368.292 3.35.16.616.635 1.081 1.237 1.246C7.622 17 12 17 12 17s4.378 0 5.47-.3a1.747 1.747 0 001.237-1.244C19 14.339 19 12.01 19 12.01s0-2.329-.293-3.445a1.774 1.774 0 00-1.237-1.266c-.956-.262-4.427-.294-5.28-.298zm-1.622 2.895l3.66 2.115-3.66 2.115v-4.23z"/></symbol></svg>