<?xml version="1.0" encoding="utf-8"?><svg xmlns="http://www.w3.org/2000/svg" xmlns:xlink="http://www.w3.org/1999/xlink"><symbol viewBox="0 0 270 159" id="icon-client-logo-andesa" xmlns="http://www.w3.org/2000/svg"><g fill-rule="nonzero"><path d="M70.756 69.4l44-63.8c5.2-6.6 19.3-6 24.5.6l60.1 76.6c-12.2-7.5-26.8-12.9-42.8-15.8l-31.9-38.1c-5.5-6.6-14.5-6.6-19.9 0l-34 40.5z"/><path d="M.1 157.8L4.7 147c5.4-12.3 9.8-23 13.1-32.2.2 0 .5 0 .8.1.3 0 .6.1.9.1.3 0 .6.1.8.1.3 0 .8 0 1.2-.1.5-.1.8-.1 1.2-.2l.5 1c5.2 13.8 10.7 27.5 16.5 41.1l.3.7v.6c-.9 0-1.8-.1-2.6-.1-1.2-.1-2.1-.1-2.8-.1-1.7 0-3.5.1-5.2.3-1.8-5.8-3.2-10.1-4.4-12.9-1.2 0-2.3 0-3.5-.1-1.5-.1-2.8-.1-3.5-.1-1.6 0-4.1.1-7.6.2l-.3.9c-.7 2-1.4 4-2.2 6.1-.7 2-1.3 3.9-1.8 5.9-2-.3-3.9-.3-5.9 0v-.5H.1zM12 141.5h11.5c-1.4-3.8-3.2-8.8-5.6-14.7-2.2 5.2-4.1 9.9-5.6 14.2l-.3.5zm45.1 16.6c-.8-.1-1.6-.2-2.5-.2-.9 0-2 .1-2.9.3.5-4.5.7-9.2.9-14 .1-4.8.2-10.1.2-15.9v-10.2c0-1.3 0-2.3-.1-3 1.4.2 2.3.3 2.8.3.6 0 1.5-.1 2.9-.3 2.5 2.8 4.8 5.3 7 7.6 2.4 2.6 4.8 5.2 7.3 7.8 2.6 2.9 5 5.3 6.9 7.4 2.1 2.3 4.1 4.6 6.2 6.9v-21c0-1-.1-2.3-.2-3.9-.1-1.2-.1-2.4-.2-3.6l-.1-1.3c1.4.2 2.3.3 2.8.3s.9 0 1.5-.1c.5-.1.9-.1 1.4-.2-.1 1.6-.2 2.8-.2 3.6-.2 3.1-.5 5.8-.5 7.9 0 1.4 0 2.4-.1 3.2 0 .8-.1 1.8-.1 3 0 1-.1 2.2-.1 3.2v22.2c-.1-.1-.3-.1-.7-.1-.3-.1-1-.1-1.7-.1-1.2 0-2.1.1-2.6.2-7.7-9.1-14.6-16.8-20.6-23.1l-6.8-7.1c-.1 3.9-.2 6.7-.2 8.4v5.9c0 7.1.1 12.6.5 16.1l-.8-.2zm56.9-42.8c.7 0 1.7 0 3.2-.1 1.5 0 2.5-.1 3.3-.1 3 0 5.3.1 6.9.2 3.7.3 6.6.9 8.8 1.7 2.4.9 4.4 2.4 5.9 4.1 3.5 3.8 5.2 8.6 5.2 14.4 0 3.6-.6 6.8-1.8 9.6-1.2 2.8-3.1 5.4-5.8 7.7-2.3 2.1-4.7 3.5-7.3 4.3-2.5.8-5.5 1.2-9 1.2-4.5 0-7.9 0-10.1-.1-.3-.1-.8-.1-1.5-.1-1.3 0-3.1.1-5.5.2.3-7.4.6-14.7.6-22v-6.4c0-1 0-2.5-.1-4.6-.1-1.5-.1-3.1-.1-4.6 0-.9-.1-1.8-.1-2.8 0-.9-.1-1.8-.1-2.8 3.1.1 5.8.2 7.5.2zm6.7 39.2c3.1 0 5.6-.3 7.6-1.2 2-.8 3.7-2.3 5.3-4.5 2.3-3.5 3.5-7.9 3.5-13.4 0-2.3-.3-4.6-1-6.8-.7-2.3-1.7-4.1-3-5.6-1.5-1.7-3.2-2.9-5.1-3.5-1.9-.6-4.1-.9-6.9-.9-.5 0-1.3 0-2.2.1-1 .1-1.7.1-2.3.1-.2 7-.3 17.6-.3 31.6v4c.8.1 2.3.1 4.4.1zm39.7-39.5c1.2 0 2.8.1 4.8.2 2.1.1 3.8.2 5.2.2 2.2 0 4.7 0 7.6-.1 2.9-.1 5.2-.1 6.7-.1-.1 1-.1 2.6-.1 4.7.1.2.1.5.1.8-6.1-.6-10.9-.8-14.4-.8-.1 1.5-.1 3.7-.1 6.6v7l14.4-.5c-.2 1.3-.3 2.3-.3 2.9 0 .6.1 1.4.3 2.4-4.1-.3-7.9-.5-11.3-.5h-3.1v16c3.9 0 8.8-.2 14.5-.8-.1 1-.1 2.5-.1 4.6.1.2.1.5.1.8-1.8 0-3.8-.1-5.6-.2-2.5-.1-4.4-.1-5.6-.1-.8 0-2.1 0-3.8.1-1.7.1-2.9.1-3.7.1-1.2 0-3 .1-5.6.2 0-.3.1-1 .1-1.8s.1-1.4.1-1.7c0-1.2.1-3.1.1-5.8.1-2.6.1-4.7.1-6v-16.9c0-1 0-2.8-.1-5-.1-1.6-.1-3.3-.2-5l-.1-1.3zm56.6 8.6c-1.4-3.6-3.8-5.4-7.3-5.4-2.1 0-3.8.6-5.1 1.6-1.3 1.2-1.8 2.5-1.8 4.4 0 1.5.7 2.8 2 3.8s3.3 2.3 6.1 3.8 5 2.8 6.6 3.8c1.6 1.2 2.8 2.4 3.5 4.1.7 1.5 1 3.3 1 5.6 0 2-.5 3.9-1.4 5.9-1.3 2.6-3.5 4.6-6.7 6.1-2.3 1.2-5.2 1.6-8.5 1.6-3.9 0-7.4-.9-10.1-2.6.9-3.1 1.5-5.8 1.8-7.9h1.2c.5 2.1 1.5 3.8 3.1 5 1.6 1.2 3.5 1.7 5.6 1.7 2.1 0 3.8-.6 5.2-1.6 1.4-1.2 2.2-2.6 2.2-4.6 0-1.7-.8-3.5-2.3-4.8-2-1.4-4.4-2.8-7-4-.8-.5-1.7-.9-2.9-1.7-1.2-.7-1.8-1.2-2.2-1.4-1.4-.9-2.4-2.2-3.1-4-.7-1.7-1.2-3.6-1.2-5.5 0-4.1 1.6-7.4 4.7-9.9 1.5-1.2 2.9-2 4.4-2.4 1.5-.5 3.2-.7 5.4-.7 3.7 0 6.8.8 9.4 2.5 0 .1.2.2.5.5-.7 2.1-1.4 4.1-2 6.2l-1.1-.1zm12.3 34.2l4.6-10.8c5.4-12.3 9.8-23 13.1-32.2.2 0 .5 0 .8.1.3 0 .6.1.9.1.3 0 .6.1.8.1.3 0 .7 0 1.2-.1s.8-.1 1.2-.2l.5 1c5.2 13.8 10.7 27.5 16.5 41.1l.3.7v.6c-.9 0-1.8-.1-2.6-.1-1.2-.1-2.1-.1-2.8-.1-1.7 0-3.5.1-5.2.3-1.8-5.8-3.2-10.1-4.4-12.9-1.2 0-2.3 0-3.5-.1-1.5-.1-2.8-.1-3.5-.1-1.6 0-4.1.1-7.6.2l-.3.9c-.7 2.1-1.5 4-2.2 6.1-.7 2-1.3 3.9-1.8 5.9-2-.3-3.9-.3-5.9 0v-.5h-.1zm12.7-16.3h11.5c-1.4-3.8-3.2-8.8-5.6-14.7-2.2 5.2-5.9 14.7-5.9 14.7zM68.6 80.3l38.5-48.8c5-3.3 11.3-2.5 15.5 2.5l4.4 5.3s-18.3 23.5-18.4 23.5c2.4-.1 4.3-.1 4.8-.1 15.8 0 23.5 1.6 30.9 3.5-4.3-.1-8.5-.6-12.8-.6-14.6 0-28.6 2.2-41.2 6-6.3 2-12.3 4.3-18 7-1.1.4-2.4 1-3.7 1.7"/><path d="M131.5 70.8c37.3 0 70 14.5 88.8 36.4-21.9-15.9-53.5-25.9-88.8-25.9s-66.9 10-88.8 25.9c18.8-21.9 51.5-36.4 88.8-36.4"/></g></symbol><symbol viewBox="0 0 335 113" id="icon-client-logo-nemours" xmlns="http://www.w3.org/2000/svg"><g fill-rule="nonzero"><path d="M8.4 2.4H.5V.1h20l29.1 49.4h.2v-47h-7.9V.2h19v2.3H53v67.4h-2.6L11.9 4.6h-.2V66h7.9v2.3H.6V66h7.9V2.4M95 55.6c-1.4 6.8-8.3 12-14.2 12-11.2 0-12.4-8.3-12.4-18.5v-4.3h29c-.1-11.3-7.9-18.4-18.4-18.4-12.2 0-20.2 11.2-20.2 23.4 0 11.5 10 19.9 20.5 19.9 9 0 16-4.5 18.1-14.2H95v.1zM68.5 41.8c.1-2.6.5-5 1-6.8.2-.7 3-6.6 9.1-6.6 5.1 0 9.4 2.4 9.4 9.8v3.6H68.5zm98.6 23.7v2.3h-18.9v-2.3h5.8v-29c0-4.8-2.4-7.1-5.8-7.1-6.3 0-11.5 9.1-11.5 14.7v21.4h5.4v2.3h-18.9v-2.3h5.4v-29c0-4.8-2.4-7.1-5.8-7.1-6.3 0-11.5 9.1-11.5 16.8v19.2h5.8v2.3H98.2v-2.3h5.2V29.7h-5.2v-2.3h1.6c3.8 0 7.8-.1 11.5-1v9.7h.2c3.6-5.8 6.3-9.7 13.8-9.7 5.9 0 10.4 3.5 10.9 9.6h.2c3.3-5.6 7.5-9.6 14.2-9.6 3.8 0 11.1 1.4 11.1 12v27.2l5.4-.1m20.6-39c-10.7 0-19.8 9.1-19.8 21.6 0 12.6 9 21.6 19.8 21.6 10.7 0 19.8-9.2 19.8-21.6 0-12.5-9-21.6-19.8-21.6zm0 2.1c10.4 0 10.5 10.9 10.5 19.6 0 8.7-.1 19.6-10.5 19.6s-10.5-10.9-10.5-19.6c.1-8.7.2-19.6 10.5-19.6zm64.9 39.7h-2.2c-3.7 0-7.5.3-11.2.7v-8.4h-.2c-2.6 5.6-8.2 9.1-14.9 9.1-10 0-12.1-5.1-12.1-10V29.8h-5.5v-2.4h2.1c3.8 0 7.8-.1 11.5-1v32.4c0 6.3 3.2 7.6 6.2 7.6 7.3 0 12.4-6.1 12.4-13.5v-23h-5.9v-2.4h2.4c3.8 0 7.8-.1 11.5-1V66h5.9v2.5M267.5 36h.2c1.8-4.6 6-9.6 11.6-9.6 3.6 0 6.3 1.8 6.3 5.8 0 2.5-2.6 3.8-4.8 3.8-1.8 0-4-2.1-4-4 0-.8.5-1.7.5-2.2 0-.6-.6-.6-.9-.6-.1 0-3.6 1.4-5.9 6-1.5 3-2.5 6.9-2.5 11.1v19.3h7.9v2.3h-23v-2.3h7V29.9h-7v-2.3h3.2c3.8 0 7.8-.1 11.5-1V36m45.9-8.5V39h-2.3c-1.5-6-5.1-10.2-11.2-10.6-8.4-.2-9.7 6.3-9.7 7.6 0 3 .8 4.5 16.5 7.7 7.9 1.6 10.7 5.3 10.7 11.7 0 8.9-6.7 14.2-14.7 14.2-4.3 0-8.9-1.7-11.7-5.1l-2.3 3.7h-2.3V54.6h2.3c2 7.5 7 12.9 14.5 12.9 4.6 0 9.9-3.6 9.9-8.9 0-4-5.6-5.9-14.2-8.1-6.8-1.6-12.7-2.5-12.7-11.5 0-4.4 2.6-12.7 13.8-12.7 3.2 0 6.3 1.3 9.6 3.8l1.8-2.8 2 .2M205.3 88.6l.7.2c.2 0 .3-.1.6-.1.2 0 .3.3.6.3.1-.1.1-.1.2-.1.2 0 .3.1.6.1s.6-.3.8-.1v.1h.5v.1c-.7.1-1.4 0-2.1 0-.3 0-.6.1-.9.1l-.5-.1h-1c-.2 0-.3-.1-.6-.2h-.2c-.1 0-.2-.1-.2-.2.3-.1.9 0 1.4 0l.1-.1m7.7 0c.5 0 .8.1 1.2.1h1.7c.3-.1.8.1 1 .1h.8c.1-.2.5 0 .5-.1.2 0 .5-.1.7 0 .1 0 .2.1.3.1h.9c.2 0 .3.2.6.2 0 0-.1 0 0 0 .1-.1.3-.1.5-.1.1 0 .2.1.5.1h1.5c.2 0 .3.1.6.1s.3 0 .5-.1c.5 0 .8.1 1.3.1h.6c.1 0 .2.1.2.1 0 .1-.2.1-.5.1-.2 0-.5 0-.7-.1h-.8c-.2 0-.3 0-.6-.1h-.3c-.2 0-2.1-.1-2.1-.2-.1 0-.5-.1-.5 0s.2.1.3.1v.1c-.3 0-.5-.1-.8-.2h-2.1c-.2 0-.3-.1-.6-.1-.1 0-.2.1-.5.1-.1 0-.5 0-.5-.1h-2.2c-.3 0-.7-.1-1-.1-.1 0-.2 0-.2-.1 0 0-.1-.1-.1 0v.2c-.2 0-.5-.1-.8-.1h-.8s0-.2-.1-.2l-.1-.1s0-.1.1-.1h.2c.2-.1 1 0 1.4 0l-.1.3m-2.6 0c.2 0 .9 0 .9.2h-.1c-.3.1-.7 0-.8-.2m-46.9-1c.1 0 .2 0 .3.1v.1c-.1 0-.5.1-.5-.1.1 0 .1-.1.2-.1m-.8 1c.1 0 .2.1.2.2-.1 0-.6 0-.6-.1.2-.1.3-.1.4-.1m6.3 0c.1 0 .2.1.2.2h-.3s0-.1.1-.2c0 .1 0 0 0 0m16 0c.2 0 .3 0 .6.1v.1c-.1 0-.2.1-.5 0 0 0-.1 0-.1-.1-.1 0 0 0 0-.1m8.8 0c.1 0 .2.1.3.1v.1c-.2 0-.6 0-.7-.1 0-.1.3-.1.4-.1m-49.3-1c.1 0 .3.3.1.3h-.1s-.1-.2 0-.3m31.9 1h.7v.1c-.1 0-.5.1-.7-.1m3.9 0c.1 0 .2.1.3.1 0 .1 0 0 0 0-.1.1-.5 0-.3-.1m1.7 0h.7v.1c-.1 0-.6.1-.6 0h-.1v-.1m6.7 0c.1 0 .3.1.3.2-.1 0-.3 0-.3-.2 0 .1 0 0 0 0m-13.1 0c.1 0 .2.1.2.2 0 0-.1 0-.1.1h-.1c-.1-.1 0-.2 0-.3"/><path d="M176.5 88.6h.2v.1h-.2c-.1 0-.1 0 0-.1m51.2.9c.3.1.5 0 .9 0 .5.1.9.1 1.3.2.1 0 .1 0 .1.1h-2.7c.1-.2.3-.2.4-.3m-77.4-.9c.1 0 .3.1.5.1-.1 0-.7 0-.7-.1 0 .1.2 0 .2 0m-4.3 0c.1 0 .2.1.3.1v.1h-.9v-.1h.3c.2 0 .2 0 .3-.1"/><path d="M145.4 88.6c.1 0 .1 0 .1.1v.1h-.3c.2 0 .2-.1.2-.2 0 .1 0 .1 0 0m50 .9c.2 0 .5.1.6.1h1.2v.1c-.3.1-.3 0-.6 0-.5 0-.8.1-1.2 0 0 0-.1 0-.1-.1l.1-.1c-.1.1 0 0 0 0m33.7 0c.1 0 .7.1.7.1-.1 0-.3.1-.5.1.1 0-.3-.1-.2-.2m-47.1 0h1.8v.2c-.3.1-.7 0-1-.1-.2 0-.4.1-.8-.1m15.1 0h.9v.1c-.2 0-.5 0-.9-.1m9.5 0h.7v.1c-.3 0-.5 0-.7-.1m3.2 0c.1 0 .6 0 .6.2-.1.1-.2.1-.2.2-.1 0-.7.1-.7 0 0 0 .2-.1.1-.1 0 0 0-.1.1-.1 0-.1 0-.1.1-.2m20.2 1h1.5c.1 0 .3.1.5.1v.1c-.1 0-.2.1-.3.1-.2 0-.5-.1-.7-.2h-.2c-.3 0-.5 0-.8-.1m2.9 0c1 0 2.1 0 3.2.1.1 0 .2.1.3.1.2 0 .5 0 .8.1.1.1.3.1.5.1.6 0 1.3.1 1.8.1.1 0 .2.1.5.1h.6c.2.1.5.2.7.2h1.7c.3 0 .7.1 1 .2h.8c.6.1 1 .2 1.6.2.2.1.3.1.6.1.1 0 .1.2.2.2v.1c-.3 0-.6-.1-.8-.1-.1 0-.2-.1-.3-.1-.3-.1-.7 0-1 0-.3 0-.8-.1-1.2-.2-.2 0-.3 0-.6.1-.2 0-.5-.2-.8-.2-.2 0-.5.1-.7.1-.2 0-.3-.1-.6-.1s-.7.1-.9 0c-.8 0-1.5-.1-2.2-.3-.1 0-.3-.1-.5-.1-.3-.1-.7 0-1.2-.1-.2 0-.5-.1-.6-.1h-.8c-.3 0-.7-.2-1-.3-.4-.1-.8.2-1.1-.2m-20.9-1c.3 0 .6.1.9.1h.1c.3.1.7.1 1.2.1v.1c-.2 0-.5-.1-.8 0-.2 0-.5.2-.7.1h-.1c-.1.1-.1.1-.2.1-.2 0-.9-.2-.9-.3-.1-.1.2-.1.5-.2m-4.5 0c.1 0 .7 0 .7.1v.1c-.3 0-.5 0-.7-.2m7.7 1h1c.1 0 .2.1.3.2.2.1.6.1.9.1.2-.1.6 0 .8 0h1s.1.1.1 0h.1s.1 0 .1.1-.2.1-.3.2l-.2.2h-.1c0-.1 0-.2-.1-.2-.3-.2-2.6.1-2.6-.3-.2 0-.9 0-1-.1 0 0-.1-.1 0-.1-.1-.1 0-.1 0-.1m5.6 0c.5 0 .9.1 1.3.2h.7c.1 0 .2 0 .5.1.3 0 .6-.1.9-.1.2 0 .6.1.8.1.1 0 .3.1.3.2-.3.1-.6 0-.9 0h-.8c-.2 0-.5 0-.8.1h-1.9c-.1 0-.2-.2-.2-.3 0-.3.1-.3.1-.3m5.8 0c.3 0 .6.1.9.1.3-.2.6 0 .9.1h.5c.1 0 .2.2.3.2v.1h-.5c-.2 0-.2-.1-.2-.1h-.2c-.2 0-.6-.1-.8-.1-.3 0-.6.1-.8 0-.1 0-.2 0-.2-.1-.1-.2 0-.2.1-.2"/><path d="M236.7 90.5h.5v.1c-.1.1-.3.1-.5.1v-.2m-96-1h.8v.1h-.2c0 .1.1.2.1.3h-.1v-.3c-.3.1-.5.1-.6-.1 0 .1 0 .1 0 0 0 .1 0 0 0 0m78.3 1h.2s0 .1-.1.1c1 0 2 .1 3 .1.1-.1.5 0 .6 0h1.7v.5h-.8c-.3 0-.6-.1-.9-.2-.8-.1-1.6 0-2.5-.1-.2 0-.6 0-.9-.1-.2-.1-.3-.3-.3-.3-.1 0-.3-.1-.2-.1.1.1.2.1.2.1m5.5.9c.1 0 .3.1.3.1.1-.1.3-.1.5-.1v.3c-.1 0-.3-.1-.5-.1h-.4l.1-.2m-32.9 0c.2 0 .3.1.6.1h1.1c-.1 0-.2 0-.3.1-.1 0-.2 0-.5-.1-.2 0-.5.1-.7.1-.1 0-.2-.1-.5-.1v-.1h.3m34.9 0c.1 0 .3.1.5.1h1.4c.2-.1.5.1.7.1 0 .1 0 0 0 0 0 .1-.1.2-.1.3h-.5c-.1-.1-.3-.1-.5-.2h-.5c-.2 0-.2-.1-.5-.1-.2 0-.5.1-.8 0-.1 0-.2 0-.2-.1l.5-.1m-19.5 0c.1 0 .5.1.5.3-.2.1-.3.1-.6.2-.1 0-.2.1-.2.1v-.1c.1-.2.2-.4.3-.5m22.9 0c.5 0 .9.1 1.4.1.1-.1.3 0 .5 0 .2-.1.5.1.7.1h.8c.1 0 .2.1.3.1.6 0 1.3.1 1.8.1.1 0 .2 0 .5.1h.6c.2 0 .3.1.6.2h1.6c.2.1.5.1.7.1.2 0 .3.1.6.1h.7c.3 0 .8.2 1.2.2.3.1.6 0 .9.1.1 0 .3.1.5.1 0 .1 0 0 0 0v.1c-.1 0-.2 0-.3.1-.3 0-.8-.1-1.2-.1h-1c-.1 0-.1-.1-.2-.1s-.2-.1-.5-.1c-.1 0-.1-.1-.2-.1-.2 0-.3.2-.6.1-.2 0-.5-.2-.7-.2-.2 0-.3 0-.6.1-.3 0-.6-.1-.9-.1-.2 0-.5.1-.7.1-.2 0-.3 0-.6-.1h-.3c-.2-.1-.5-.1-.8-.1h-.6l-.5-.1c-.5-.1-.9 0-1.4-.1-.3-.1-.8 0-1.2-.1-.3 0-.7-.2-1-.3-.2 0-.5 0-.7-.1-.1 0-.2-.1-.2-.1.3-.1.6-.1.8-.1m-35.5 0h.9v.1c-.4 0-.7 0-.9-.1m8.4 0h.7v.1c-.3 0-.5 0-.7-.1m6.4 0c.7.1 1.3.2 2.1.2v.1c-.2 0-.5-.1-.8 0-.3.1-.8.3-1 .2-.2 0-.5-.1-.7-.1-.1 0-.1 0-.2-.1v-.1c0-.2.4-.2.6-.2m-4.5 0h.6v.2c-.4-.1-.5-.1-.6-.2m-64-.9c.1 0 .2 0 .2.1-.1-.1-.2-.1-.2-.1m77.4 1.9c.7.1 1.4.1 2.1.2.1 0 .3.1.5.1-.2.1-.6.1-.9.1H218v-.1c0-.1 0 0 0 0 0-.2 0-.2.1-.3m3.3 0c.2 0 1 .1 1 .2v.1c-.3 0-.7-.1-1-.1-.2 0-.3 0-.6.1-.1 0-.2-.1-.2-.1v-.1c.2-.1.5-.1.6-.1h.2m1.5 0c.3 0 .6.1.9.1.2 0 .3 0 .6-.1.3 0 .6.1 1 .1.2-.1.9.2.9.5-.2.1-.7.1-.8-.1-.1 0-.1-.2-.2-.2 0 0-.2-.1-.2 0s-.1.1-.1.2h-.1v-.1c-.1-.3-.9-.3-1.3-.2-.1 0-.2.1-.3.1-.2 0-.3-.1-.5-.1s-.1 0-.1-.1c0 0 .1-.1.2-.1m3.6.9c.1 0 .5 0 .5.1v.1c-.1 0-.7 0-.7-.1.1-.1.1-.1.2-.1m17.7 0c.5.1 1.2 0 1.6.1.2 0 .3.1.5.1 0 0 .1 0 .1-.1h.1c.2.2 1.5.1 2 .2.2 0 .5.1.7.1h.6c.9.1 1.8.2 2.8.3.3 0 .6.1.9.2h.5c.2 0 .2 0 .3.1h.7c.2 0 .3.1.6.1 0 0 .1 0 .1-.1.2.1.5.1.8.2h.1c.5.1.9.1 1.4.2.2.1.5.1.7.2h.7v.1c-.1 0-.5 0-.5.1-.1-.1-.2 0-.3-.1h-.9c-.2 0-.5.1-.7.1h-.2V95s.2 0 .2-.1v-.1h-.5v.3h-.1c0-.1 0-.2-.1-.2h-.3c-.3 0-.6-.1-.9-.1-.2 0-.2-.1-.5-.2-.2-.1-.8 0-1 0h-1.4c-.3 0-.7-.2-1-.2-1-.1-2.1-.1-3.2-.1-.2 0-.5-.2-.7-.2H246c-.3 0-.8 0-1.2-.1-.2-.4-.6-.6-.6-.7m-16.5 0c.1 0 .3 0 .3.1-.1 0-.8 0-.8-.1h.5m5.7 0c.2 0 .6.1.6.5h.1c0-.2 0-.3.2-.3.1-.1.3.1.3.3-.1 0-.1-.1-.2-.1v.1h1.2c0 .1-.1.1-.1.2h.1c-.3.1-.9.1-1.3 0 0 0-.1 0-.1-.1s-.1-.2-.1-.2h-1.2v-.5c.1.1.4.2.5.1"/><path d="M233 93.3s.1.1.2.1h-.2c-.1 0-.1 0 0-.1m3.7 0c.1 0 .7 0 .7.1-.1.1-.7.1-.7-.1-.1.1 0 .1 0 0m.5.9c.1 0 .3.2.3.3h-.9c0-.1 0 0 0 0 .1-.1.3 0 .6 0 .1-.2.1-.2 0-.3m2.6 0h.6c.1 0 .2 0 .3.1 0 .1-.1.2 0 .2s.6 0 .6.1h-.8c-.1 0-.2-.1-.3-.1-.2-.1-.5-.1-.7-.2 0 0-.1 0 0-.1.1.1.2.1.3 0m-2.2 0h.6v.1c-.2 0-.4 0-.6-.1m3.7 0h.5c.2 0 .2 0 .3.1-.2.2-.5.2-.8-.1.1.1 0 0 0 0m1.1 0c.1 0 .7 0 .7.1h-.1c-.4.1-.6.1-.6-.1m8.4 0h.9v.1c-.3.1-.7.2-.9-.1m-3.8 0h.3c0 .1-.1.1-.2.1 0 .1 0 0-.1-.1"/><path d="M247.1 94.2c.2 0 .5.1.7.1.1 0 .1.1.3.1h.5c.2.3.5.2.8.2.2 0 .5 0 .7.1.3-.2.3 0 .7 0-.1.1-.6.1-.6.2-.1 0 0 0 0 0-.1-.1-.2-.1-.3-.1-.2 0-.3.1-.6.1-.1 0-.2 0-.3-.1-.2 0-.9 0-.8-.3h-.6c-.1 0-.2 0-.3-.1-.3 0-.3-.1-.2-.2m-.6 0c.1 0 .5.1.3.1 0 .1-.1.3-.2.3l-.1-.1h-.3c0-.1.1-.1.2-.1 0-.1 0-.1.1-.2m-2.3 0c.1 0 .2 0 .2.1 0 0-.1 0-.2-.1 0 .1 0 0 0 0m.9.9h.3c.1.1.1.1-.3 0m15.1 0c.3.1.8.1 1.2.2.1 0 .3.1.5.1.2-.1.7.1 1 .1 0 .1.1.2.1.3-.1 0-.2-.2-.3-.2h-.5c-.2 0-.3.1-.6.1-.1 0-.2-.1-.5-.2-.2 0-.6 0-.8-.1 0 .1-.1-.2-.1-.3m-8.3 0c.2.1.5.1.8.1v.1h-.7c-.1 0-.1 0-.2-.1 0 .1 0 0 .1-.1m12.3 0c.5 0 .8.2 1.3.2h.3c.1 0 .3.1.6.1.6 0 1.3.2 2 .2.1 0 .3.1.5.1.6 0 .6.1 1.2.1l.6.1h-.6c-.3 0-.8-.1-1.2-.1-.4 0-.5-.2-.8-.2-.3 0-.8-.2-1.2-.1h-1.3c-.1 0-.2 0-.3-.1-.1 0-.5.1-.5 0-.1 0-.8-.1-.8-.1.1 0 0 0 0 0 .1-.1.1-.2.2-.2m-7.7 1.1c.1 0 .8.1.8.2v.1c-.1-.1-.8-.1-.8-.3-.1 0-.1 0 0 0m1.9 0c.1 0 .3.1.5.1h-.5v-.1m.9 0h.7c.2 0 .3.1.6.1.2-.1.5.1.7.1h.6c.2.1.3.1.7.1.2-.1.6-.1.8 0 .1 0 .2.1.3.1v-.1c.2-.1.5.1.6.2.2 0 .3.1.6.1-.3 0-.8.1-1.2 0-.2 0-.3-.2-.6-.2h-1c-.3 0-.8-.1-1.2-.1h-.6c-.1-.1-.2-.1-.3-.2-.2-.1-.6-.2-.8-.2l.1.1m0 .9c.1 0 .5 0 .5.1-.3-.1-.4 0-.5-.1m7.6 0c.2 0 .3 0 .6.1v.1c-.1-.1-.7 0-.6-.2m-6.7 0h.9v.1c-.2 0-.7 0-.9-.1m7.5 0h.9-.1c-.1.1-.1.1-.2.1.1.1-.6-.1-.6-.1m2.9.9c.1 0 .9.1.9.1-.3.4-.8.2-.9-.1m2.1 0c.1 0 .2.1.3.1h.2s.2 0 .2.1v.1h-.9v-.1c0-.2 0-.2.2-.2M25.1 94.2c.2.1.5.1.8.1v.1c-.2 0-1.8 0-1.8-.1.1 0 .5 0 .5-.1 0 .1.3.1.5 0m-2.7 0h.6v.1c-.1 0-.9.2-.9.1 0-.2.2-.1.3-.2M267 98.9c.5.1.8.3 1.2.3 0 .1.3.3.5.3v.3c-.5 0-.9-.1-1.4-.2v-.2c-.1-.1-.3-.3-.6-.3.2-.1.2-.1.3-.2"/><path d="M266.9 98.9h.2c-.1.1-.1.2-.1.3-.1.1-.2-.2-.1-.3-.1 0 0 0 0 0M19.6 95.1c.1 0 .6 0 .6.1h-1v-.1c.1.1.2.1.4 0m250.3 3.8c.5 0 1.2.2 1.6.2v.1c-.2 0-.6-.1-.8-.1-.1 0-1.5.2-.9-.2 0 .1 0 .1.1 0m-.2.9c.1 0 .2 0 .2.1h-.1c-.1.1-.1.1-.1-.1M17.4 95.1h.8v.1c-.4.1-.7.1-.8-.1m.9 0c.2 0 .9 0 .9.2-.2.2-.8 0-.9-.2m254.4 4.7c.5.1.9.1 1.4.2 0 .1 0 .2.1.2h.1v-.1c.1.1.1.2.1.3-.3 0-.6-.1-.8-.2-.2 0-.6-.1-.8-.1-.1 0-.1-.1-.2-.1 0-.1 0 0 0 0-.1 0-.1 0 .1-.2m4.1 1c.1 0 .2.1.3.1h1.2c.2 0 .2.2.5.2.2.1.6 0 .8.1.1 0 .2.1.3.1v.1c-.3.1-.7 0-1-.1h-.6c-.1 0-.2-.1-.3-.1-.3 0-.8 0-1.2-.1-.2 0-.3-.1-.6-.1v-.1c.1-.1.1-.1.2-.1.2.1.3.1.4 0m4.1 0h.6l.2.2v.3c-.1 0-.1-.1-.2-.1-.2-.1-.3 0-.6 0-.1 0-.1-.1-.2-.1.2-.1.2-.2.2-.3 0 .1 0 .1 0 0M8.2 96.2c.1 0 .7 0 .7.1-.2 0-.6 0-.7.1 0 0 0 .1-.1.1-.1.1-.3.2-.5.2l-.6-.2c0-.1.2-.1.3-.1.3-.1.6-.1.9-.2m274.7 5.6c.3 0 .6.1.8.1v.1c-.5 0-.5.1-.8-.1 0 0-.1 0-.1-.1h.1m1.7 0c.2 0 .3.1.6.1.1-.1 2.8.5 3 .6.1 0 .1.1.1.2-.2 0-1.7-.2-1.8-.2-.1 0-.3-.1-.5-.1-.3-.1-1.4-.1-1.4-.6M6.4 97.1h.5v.3c-.6.1-1 .6-1.7.1-.1-.1-.2-.1-.2-.2.6-.2 1.1-.1 1.4-.2m268 4.7c.2.1.5.1.7.1v.1h-.8c0-.1 0-.2.1-.2m1 0c.1 0 .7 0 .7.1-.1.1-.1.1-.2.1s-.7-.1-.7-.1c.1-.1.2-.1.2-.1m1.9 0h.5v.3h.3c-.5.2-.6-.3-.9-.3-.1.1-.1.1.1 0m.9 0c.2 0 .5 0 .7.1v.1h-.9l.2-.2m.9.9c.2 0 .3 0 .6.1v.1c-.3-.1-.7-.1-.6-.2m.9 0h1.2c.2 0 .3.1.6.1.1 0 0 .1.1.1s.8 0 .8.1v.1h-1.3c-.3 0-.6-.1-.9 0-.1 0-.2.1-.2 0-.1 0 0 0 0 0h.1c-.1 0 0 0 0 0-.1 0-.5-.1-.5-.1.1-.2.1-.2.1-.3m23.5 3.7c.2 0 .8 0 .9.2-.3.1-.8.1-.9-.2m-19.6-3.7h.9c.2.2.7.1 1 .1.1 0 .2.1.3.2.1 0 .2 0 .2.1.1.1.2.1.3.2.2.1.7 0 .9.1h.7v.1h-1.4c-.2 0-.5-.1-.8-.1-.5-.6-1.5-.2-2.2-.3 0 0-.5-.2-.2-.2.2-.1.2-.2.3-.2M3.3 98h.2v.1h-.3l.1-.1c-.1.1 0 0 0 0m169.5 3.8h.3v.1h-.4l.1-.1c-.1 0-.1 0 0 0m4.6 0h.2v.1h-.2v-.1m.9 0h.7v.1c-.2-.1-.5 0-.7-.1m97.3-2.9c.5 0 .7.2 1.3.2.1 0 .1.1.3.2 0 0-.5-.1-1-.1-.2 0-.5-.1-.7-.2-.1 0-.1 0-.1-.1h.2c-.2 0 0 0 0 0m-77.8 3.8s.3.2.2.2c-.2.1-.5.1-.7 0-.1 0-.2-.1-.2-.1.2 0 .5 0 .7-.1m-38.1-.9c.1 0 .7.1.7.2-.1 0-.3.1-.5.1-.1 0-.2 0-.3-.1v-.1l.1-.1m14.2 0h.2v.1c-.1 0-.3 0-.3-.1h.1m2.5 0c.2 0 .5 0 .7.1 0 .1 0 0 0 0v.1c-.1 0-.7 0-.7-.2"/><path d="M178.9 101.8c.1 0 .3.1.3.2h-.1c-.1.1-.7 0-.8-.1h.1c.1-.1.3-.1.5-.1m34.8.9s.6.1.3.1c-.1.1-.2.1-.5.2-.1 0-.1 0-.2-.1-.1 0-.1.1-.1.1v-.3c.1 0 .2 0 .3.1.1-.1.1-.1.2-.1m-56-.9c.2 0 .5 0 .7.1v.1h-.7c-.1-.1-.1-.2 0-.2-.1 0-.1 0 0 0m9.5 0c.1 0 .7 0 .7.1h-.1c-.2.1-.5.1-.8.1 0-.1 0 0 0 0v-.1c.1-.1.2-.1.2-.1m6.7 0h.2c-.1 0-.6 0-.6-.1.2.1.4.1.4.1m3.5 0c.1 0 .5 0 .5.1-.2 0-.5 0-.5-.1m-21.6 0h.6v.1c-.4 0-.5 0-.6-.1m30 .9h.7c.1 0 .2.1.2.1v.1h-.9v-.2m31.1 0h.6c-.2 0-.6.2-.6 0m57.4-4.7c.2 0 .6 0 .6.2-.3 0-.5 0-.6-.2m-102.5 3.8h.7v.1h-.5c-.2 0-.3-.1-.2-.1m-25.6 0l.5.1c.1 0 .1 0 .2.1h.3v.1h-.1c-.5.2-1.2.1-1.7.1-.1 0 0 0 0-.1v-.1c.2-.2.6-.2.8-.2m69.8 1.8c.2 0 .5 0 .7.1-.4.2-.5.1-.7-.1m72.5-1.8c.2.1.6.2.7.3 0 0 .1.1 0 .1-.2 0-.3-.2-.5-.2-.1 0-.2 0-.3-.1l-.1-.1h.2c0-.1 0 .1 0 0m5.6 2.9c.1 0 .9-.1.9 0-.1 0-.6.3-.6.1l-.3-.1m-15.9-5.8c.1 0 .8 0 .8.1l.1.1h-.1c-.2 0-.8 0-.8-.2-.1.1-.1.1 0 0m-28.2 5.7c.6.1 1.2.1 1.7.1v.1c-.3 0-1.8.1-1.7-.2-.1 0 0 0 0 0m3.7 0h.2c.1-.1.6 0 .7 0-.4.2-.8.3-.9 0m36.7.9c.1 0 .8 0 .8.1v.1c-.1 0-.9.1-.9-.1.1 0 .1 0 .1-.1m-9.1 0c.6.1 1.3.1 1.8.2h.1c.2 0 .3.2.6.2.1 0 .2.1.3.1.1 0 .3-.1.5-.1s1.5.2 1.6.2c.2 0 .6.1.9.1h.2s0 .1.1.1v.1c-.7 0-2.8-.1-3.3-.2-.1 0-.1 0-.2-.1-.1 0-.2 0-.5-.1-.1 0-.2-.1-.3-.1h-1.7c-.1 0-.5 0-.5-.1 0 0-.1-.1 0-.1.2-.1.3-.1.4-.2m1.5-5.7c.2 0 1.8 0 1.8.2-.2.1-.3.1-.7.1v-.1c0-.1-1 0-1.2 0 .1.1.1 0 .1-.2m-2.8 5.7c.1 0 .2 0 .2.1-.1 0-.2 0-.2-.1m11.5 0c.3 0 .7 0 .9.1.1 0 .9.1 1 .1.8.1 1.3.3 1.2.2-.1 0 1.2-.2 1.2.3v.1c-.3 0-1.5-.2-1.8-.2-.3 0-1.8-.1-1.7-.6-.2 0-.6.1-.8.1h-.2v-.1s-.1-.1 0-.1c0 0 0-.1.1-.1.1.4.1.3.1.2m-5.8-4.7c.2 0 .3.1.6.1v.1h-.1c-.3.1-.7.1-.5-.2M279 99c.1 0 .7 0 .7.1v-.2h-.2c-.2 0-.3.4-.5.1m5.6.8c.3 0 .6.1.8.1v.1c-.2.1-.5.1-.8-.2m2.8 6.7s-.7 0-.7.1h-.1c.1 0 0 0 0 0 0-.2.8-.1.8-.1m-177.8-3.8h1.8c.1 0 0 0 0 0v.1c-.3.1-1.7.3-1.8-.1m186.4 3.7c.1 0 .3 0 .3.1.1.1-.3.1-.3-.1-.1.1 0 .2 0 0 0 .1 0 .1 0 0m12.2 2c.1 0 .3 0 .3.1v.1c0-.1-.2-.1-.3-.2"/><path d="M296 106.5h.7v.1h-.1c-.2.1-.5 0-.6-.1m-202.6-2.9h.2c-.5.3-1.2.2-1.8.2.1-.2 1-.1 1.4-.1-.1.1.1-.1.2-.1m195.3 2.8h.3l.3.1v.2h-.9v-.1h.1s0-.1.2-.2m2.6-4.6c.1 0 .2.1.3.1v.1h-.3v-.2m12.2 5.6c.3.1.6.1.9.1v.1c-.1.1-.2 0-.5 0-.1 0-.2.1-.2.1-.1 0-.2-.1-.3-.1-.2 0-.3 0-.6.1v.1c0-.1-.1-.2-.2-.2.1-.2.8-.1.8 0l.1-.2c-.1 0-.1 0 0 0-.1 0 0 0 0 0"/><path d="M302.6 107.4h.6v.1h-.1c-.3.1-.4-.1-.5-.1m-4.7-1c.3 0 .5.2.9.2.3-.1 3 .8 3.2.9.3.1.7.1.9.2.1.1.2 0 .5.1s.7.1 1 .1c0 .1-.1.1-.1.2h-.1c-.2-.1-.3-.1-.6-.1-.1 0-.2.1-.5.1-.2 0-.5-.1-.7-.2-.2-.1-1.4 0-1.4-.3-.2 0-2.2-.6-2.5-.6-.1 0-.2-.2-.5-.2-.1.1-.2.1-.3.1h-.1s.1-.1 0-.1c.4-.2.2-.3.3-.4m8.4 1c.1 0 .3 0 .3.1h.2c.2 0 0 .3.2.3 0 .1.2 0 .2.1h-.4c0-.1-.2-.5-.2-.5-.1 0-.2.1-.2 0 0 .3-.1.2-.1 0m-15 0c.3 0 .6.2.9.2v.1h-.9v-.3m-212.4-3.8h-.3v.1c.2 0 .5.1.7.1.1 0 .2-.1.2-.1-.3-.1-.4-.1-.6-.1m203 3.8c.1 0 .9 0 .9.1h-.7c-.1.1-.4-.1-.2-.1"/><path d="M291.3 107.4h.5v.2c-.3.1-.4 0-.5-.2m25.5 2.8h.6v.1c-.2 0-.8.1-.6-.1m-7.6-1.8c.3 0 .6.1.9.1v.1c-.4 0-.7 0-.9-.2m.9 0c.1 0 .7.5.9.5l-.5-.2h-.5c.1-.2.1-.2.1-.3m-12.2-2.9c.1 0 .7.1.9.1v.2c-.1 0-.8-.2-.9-.2v-.1c0 .1 0 .1 0 0m-4.8 1.9h.5c-.1.2-.1.5-.5.5v-.5m2.2 0c.7.1 3.1.5 3.5.9-1.3-.1-3.1-.3-3.8-.7.1 0 .2-.2.3-.2m1 1.9c.2 0 .5.1.7.1 0 .1 0 .2-.1.3-.1.1-.6 0-.7 0h-.1v-.1c0-.1 0-.1.2-.3m8.1 0h.3v.1c-.2 0-.2 0-.3-.1m-6.4 0c.5 0 .8.1 1.3.1l.5.1v.1h-1.5c-.1 0-.2 0-.3-.1-.1-.1 0-.2 0-.2"/><path d="M299.1 109.3c.2 0 .3.1.6.1v.1c-.1 0-.9 0-.9-.1h.2c.1 0 .1-.1.1-.1m6 0c.2 0 .5.2.6.2.1 0 .2 0 .3.1.1 0 .1 0 .2.1v.1c-.7.1-1.2-.2-1.7-.3 0 0-.1 0-.1-.1.3 0 .5 0 .7-.1 0 .1 0 0 0 0m-2.6 0c.1 0 .2.1.2.1v.1c0 .1-.1.1-.1.2.1 0 .1-.1.2-.1.2.1.3.2.6.2.1 0 0 0 0 0v.1c-.5.1-1.2-.1-1.5-.3-.1-.1-.2-.1-.3-.1v-.2c.3.2.8.3.9 0m4.8.9c.3 0 .7 0 1 .1.2.1.5.2.8.2 0 0 .6 0 .6.2.5 0 1.3.1 1.3.2-.1 0-.1 0-.1.1-.1 0-.2-.1-.5-.1-.1 0-.7-.1-.9-.1 0 0-.5 0-.5-.1-.5-.3-1.4 0-1.7-.5 0 .2-.1.1 0 0 0 .1 0 0 0 0m8 0c-.1.1-.3.1-.5 0h.5m.5 0c.1 0 .2.1.2.2h-.1c-.1 0-.1-.1-.1-.2-.1.1-.1 0 0 0"/><path d="M315.8 110.2c.1.1.1.1.1.2h-.1c-.1 0-.1-.1 0-.2m1.9.9c.1 0 .2 0 .2.1-.1 0-.2 0-.2-.1m1 0h.5v.1c-.1 0-.6 0-.6-.1 0 .1 0 .1.1 0"/><path d="M317.7 111.1c.1 0 .3.1.3.2h-.3v-.2c0 .1 0 0 0 0m-4.7 0h.7c.1 0 .3.2.2.2-.5.2-.8.2-.9-.2m5.7 0c.2 0 .3.2.8.2-.2 0-.9 0-.9-.2 0 .1 0 .1.1 0m2.9 1.1c.1 0 .3.1.5.1v.1c-.1 0-.3-.1-.5-.1h-.2v-.1h.2m-32-9.5c.1 0 .2.1.3.1 0 0-.1 0-.1.1h-.3c0-.1 0 0 0 0 0-.1 0-.2.1-.2"/><path d="M289.7 102.7c.1.1.2.2.3.2h.2v.2h-.2v.2c-.1 0-.3-.1-.3-.2-.1 0-.2 0-.3-.1v-.1c0-.1.1-.1.1-.2h.2m.7.9h.2v.1c-.1.1-.2.1-.2-.1 0 .2 0 .2 0 0m15.8 5.3c-.1 0-.3-.1-.5-.2h.6l.1.1c-.1 0-.2 0-.2.1zm5.7.8l-3.1-.5-2-.3c-.2 0-.3-.1-.5-.1s0-.1 0-.1h-.2c-.5 0-1.5-.2-1.7-.1 0 .1.2.1.2.2.5 0 2.1.6 2.2.5.1 0 .2.1.3.2.1 0 .2-.1.3-.1 0-.1.3 0 .3 0h-.1v.1c-.1 0 1 .1 1.4.1.2 0 .2 0 .3.1.2 0 .9.2 1 .1.2 0 .3.1.7.1v.2-.1s.8 0 .9.1c.1 0 1.3.3 1.4.2 0 0 .2 0 .3.1-.3-.1-.9-.3-1-.3-.2-.1-.3-.2-.7-.4zm-18.8-6.1c0 .2.2.2 0 0"/><path d="M292 103.4c-.3 0-.1.2-.6 0 0 0-.2.1-.2 0 .1 0 .1-.1.1-.2.2.1.5.1.7.2zm7.8 1.5c-.2 0-.9.1-1.2 0-.1 0-.1 0-.3-.1-.2 0-.2-.1-.5-.1-.1 0-.1-.1-.1-.1-.1 0-.1 0-.1.1h-.3c0 .1 0 0 0 0s-.1 0 0 0c0 .1-.9-.3-1.2-.3-.1 0-.2-.1-.2-.1-.1 0-.3-.6-.5-.6 0 .1-.8 0-.9 0-.1 0-.1-.6-.6-.3 0 .1-.1 0-.1 0v.3c0 .1 0 .1-.1.2 0-.1-.1-.3-.1-.3-.1-.1-.1.3-.3.2-.1 0-.2-.1-.3-.1 0 .1 0-.1-.1-.1-.2 0-.3-.2-.6-.3-.1 0-.1 0-.2-.1l-.1-.1c0 .2-.8-.3-.9-.3l-.5.1c.1.2.3.1.6.2.1.1.1.3.2.3.1.1.3.1.5.2.1.1.1 0 .2.1-.5-.3.7 0 .8.1 0-.1.2 0 .3 0 .1 0 0 .2 0 .2.2 0 .2-.1.3-.3.1 0 0-.1.1-.1v-.1c0 .1 0 0 0 0 0 .1 0 .2-.1.3v.1c.2 0 .5-.2.7-.3.1 0 .1.1.1.1 0 .1.2 0 .2 0 .2 0 .5-.1.7 0 .1 0 .2.1.3.1.5.1.3.3.8.3.1 0 .6.2.6.3h.9c.3 0 .1.1.5.1.2 0 .2.1.5.1s.7.1 1.3.1l.8.3c-.3.5-1-.1-1.1-.1zm-27.5 2c0 .1-.3 0-.3-.1.1-.1.2-.1.3.1zm-.9-2.3h-.7c-.5-.1-.9-.2-1.5-.1 0-.1.2-.1.3-.2.1 0 .1 0 .1.1 0-.1.1-.2.2-.3.1 0 .3.1.5.1h.8c.1 0 .3.1.5.1s.3 0 .5.1.2.2.2.3c-.1 0-.3.1-.5.1 0 0-.2-.2-.4-.2zm.1.3c-.1 0-.2 0-.3.1-.2 0-.6-.1-.8 0-.2 0-.6 0-.8-.1v-.1c.3 0 .8.1 1.2 0 .1 0 .4 0 .7.1zm-2.5-1c-.1 0-.1.2-.2.3-.2 0-.5-.1-.7-.2h-.7c-.1 0 0-.2 0-.2 0-.1.1 0 .2 0 0-.2.5-.2.6-.2.3 0 .5.2.8.3zm-.4 1.9c0 .1-.3 0-.3 0 0-.1 0 0 .1 0h.2zm-.2-3.1h.2c-.1.1-.2.1-.2 0-.1.1-.1.1-.1 0 0 .1 0 0 .1 0zm1.1 0h.3v.1h-.1c-.1 0-.2 0-.3-.1 0 .1.1.1.1 0zm2.2.7h.2v.1c0 .1-.2 0-.2.1-.2-.2 0-.2 0-.2zm-4.5-.8c-.3 0-1.2 0-1.5-.1.1 0 0 0 0 0 .1 0 .3 0 .5.1.5-.1.8-.2 1 0 .2-.1 0-.1 0 0zm-.5 2.9c.1-.1.2-.1.3-.1.1.1-.2.1-.3.1zm-.8-1.1c-.1 0-.2 0-.3-.1v-.1c0-.1.2-.1.2-.1h.1c.1.1 0 .2 0 .3zm-.6.7s-.1 0 0 0c-.2 0-.2 0-.2-.1 0 .1.1.1.2.1zm-.6-3c-.1 0-.2.1-.2.1-.3 0-.9-.1-1.2-.2v-.2c-.2 0-.6 0-.8-.1h.7c.1.1.3.1.5.2.3.1.7.2 1 .2zm-1 3.7h-.6c.1-.1.3-.1.6 0zm-1.5-2.7c.1-.1.2-.2.3-.2.1.1.3.1.5.2 0 .2-.6 0-.8 0zm-.1.5h-.3c0-.1 0 0 .1 0h.3-.1c.2-.1 0 0 0 0zm-.8 2.2c0-.1 0-.1 0 0 .1-.1.2-.1.3-.1h.2c0 .1-.4.1-.5.1zm-.6-3.1c.3 0 .7-.1.9.2-.1 0 0 0 0 0h-.3c-.3.2-.4-.1-.6-.2zm0-1.1c0 .1-.3 0-.5 0v-.1h.1c.1-.1.3-.1.4.1 0-.2 0 0 0 0zm-.1 4.2h-.6.6zm-.8-1.2c-.2 0-.2 0-.3-.1.1-.1.1-.1.3.1zm0 .9c0 .1-.7 0-.8 0h-.1c.1 0 .2-.1.2-.1.3-.2.5-.2.7.1zm-1.2-.1h-1.2c0-.2 0-.2-.2-.5.3 0 .7 0 .9.1.3.2.4.2.5.4 0 .1.1 0 0 0zm-1.6-2.1c-.1 0-.1 0 0 0 0-.2.8-.1.9-.2h1c.2 0 .3.1.6.1v.4c0-.1 0-.1-.1-.1 0 .1 0 .1-.1.1-.3 0-.6-.1-.8-.2-.5 0-1.2.1-1.5-.1zm-.8-.8c-.3 0-.6-.1-.9-.1v-.1h.2c.3 0 .7 0 .9-.1.3 0 .8 0 1 .2.1 0 0 0 0 .1-.1 0-.3 0-.5.1-.1 0-.4 0-.7-.1zm-.4.8c-.2 0-.6-.2-.7-.5h.5c.4 0 .4.1.2.5zm-.8-3.5c0-.2.2-.2.3-.2v-.1c.2 0 .3.2.6.2.7 0 1.4.1 2 .1.2 0 .8.3.9.3 0 0 .2-.2.3-.2 0 .2-.1.2-.2.3 0 .1.1.1.1.1 0 .1-.2.1-.3.1-.3 0-.6-.2-.9-.2-.1 0-.3 0-.5-.1s-.6-.2-.8-.1h-.5c-.2 0-.6-.2-.8-.1 0 .1-.2.1-.2-.1-.1.2 0 .2 0 0zm-.1-.1c-.1 0-.1.1-.1.1-.2 0-.5-.1-.6-.1-.2 0-.3.1-.6.1-.1 0-.7-.2-.8-.2.1 0 .1 0 .1-.1 0 0-.3 0-.5.1-.1 0-.1-.1-.2-.1h-1.3c-.1 0-.3-.1-.5-.1h-.6c-.3-.1-.8-.2-1.2-.2h-.6c-.1-.1-.2-.1-.5-.2h-.1c-.2 0-.5 0-.6-.1-.1 0 0 0 0 0s.1 0 .1-.1c0-.2-.8-.2-1-.3-.1 0-.3-.2-.5-.2h-.4c-.3 0-.8 0-1.2-.1-.4-.1-.6-.2-.9-.2-.1 0 0-.1 0-.2.3 0 .7-.1.9-.2.1 0 .2.1.3.1-.1 0-.2.1-.3 0v.1c.3 0 .7 0 .9.1.2 0 .3.1.6.1h.6c.1 0 .1 0 .2.1.3.1.7.1 1 0 .1 0 0-.1 0-.1.1 0 .1.1.2.2.1 0 .2.1.3.1h.5-.1c0 .1.1.1.2.2.2 0 .3-.1.6-.1.2 0 .5.1.7.1.1 0 .3 0 .5-.1v-.1h-.8c-.1 0-.2 0-.3-.1.5 0 1.5-.2 1.7.2.2 0 .3.1.6.1s.3.1.6.1h.8c0 .1-.1.2-.1.2-.2 0-.5-.1-.6-.1h-.3c-.5 0-1-.1-1.4.1h-.5c-.3 0-.9-.1-1.2.1v.1c.8 0 2.2-.3 2.8.2 0 .1.1 0 .1 0 .7 0 1.4.2 2.1 0 0 .3.9.3 1.2.3l.2.2zm-.9 2.3h-.3.3s-.1 0 0 0zm-1.8-.3c-.2 0-.2 0 0 0 0 .1-.1.1-.1.1-.1 0-.2-.1-.2-.1h-.3c0-.1 0 0 0 0s.2-.1.6 0zm-6.5-3.1h-.2c-.1 0-.2 0-.3.1h-.6c-.1-.1-.3-.1-.5-.2v-.1c.1 0 .2 0 .2-.1h.6c.2 0 .5 0 .7.1.1.1.1.2.1.2zm-1.1 5.2c-.2 0-.3.1-.6.1s-.6-.1-.9 0c0 .2.3.2.5.2h-.8c0-.1-.1-.2-.1-.3-.1 0 .5-.3.6-.3v-.1c-.1 0-.1-.1-.2-.1h.6c.1 0 .3.1.5.1s.6 0 .7.2c-.2.2-.3.2-.3.2zm-2-3.4c-.3 0-.9.6-1.2 0h-.3c0-.1-.1 0-.2 0s-.2-.1-.3-.1v-.1c.1 0 .1-.1.2-.1l.6.1c.2 0 .6-.1.8-.1.1.1.3.2.4.3 0-.1 0-.1 0 0zm-.6 3.5c-.3 0-.5.2-.7-.1.1 0 .1-.1.2-.1s.2.1.3.1c.3 0 .2.1.2.1zm-.9.2c0 .1-.1 0 0 0-.2.1-.3.1-.5 0v-.1h-.1c-.1 0 0-.2 0-.2h.5c0 .1 0 .1.1.2h-.2l.2.1-.1-.1c0 .1.1.1.1.1zm3.2-3.2c0-.1-.2-.2-.3-.2-.1 0-.2 0-.2.1-.3.1-.8 0-.9-.2-.1 0 0 0 0-.1s.1-.1.2-.1c.3 0 .6.1.9.1.1 0 .3 0 .5.1v.1l-.2.2zm-3.8-2.8c0-.1.1-.1 0 0 .5 0 .8 0 1.2-.2.5 0 .8.2 1.2.2h.6v.3c-.1 0-.1 0-.2.1-.3 0-.6-.1-.9-.1-.1 0-.2-.1-.3-.1-.5 0-.9 0-1.3-.1-.2 0-.3 0-.3-.1zm-.3-.6h-.2v.1h-.3s.3.1.3.2v.1c-.1 0-.1 0-.1.1-.1 0 0 .1 0 .2-.1 0-.3 0-.5.1-.1 0-.1-.5 0-.5 0-.2-.6-.2-.7-.2-.1 0 0-.1 0-.1-.1 0 0 0 0 0 .2 0 .3 0 .6-.1.3 0 .8 0 1.2-.1h.1l.2.2c-.1 0-.1.1-.1.1-.3-.2-.4-.2-.5-.1zm.1 6.4c-.1.1-.2 0-.2 0-.1 0 0-.1 0-.2.1.1.2.1.2.2 0-.1 0 0 0 0zm-.7.1h-.3c-.2 0-.6.1-.6-.2h.9v.2zm-1.4-.8c.1 0 .1-.1.2-.1h.7c.1 0 .1.2.1.3h-.6c0-.1-.1-.1-.4-.2zm1.1-3.1s-.3.1-.3-.1c0 0 .1 0 .3.1zm-.4-2.3c0 .1 0 0 0 0 0 .1-.1.1-.1.1-.2 0-.6 0-.7-.2.2.1.6-.1.8.1zm-.9-1.4c.1 0 .2 0 .3-.1 0 0 .2.1.1.1.1.1-.2.1-.4 0zm1 .2h.7c0 .1.1.1.1.1-.2 0-.6-.1-.7.1h-.2c0-.1 0-.1.1-.2zm11.4.4c.1 0 .2.1.3.2h-.2c-.2 0-.5 0-.6-.1 0 .1.5-.1.5-.1zm2.6 1.6c.2.1.3.1.6.2v.1c-.1 0-.8.1-.7-.1-.2-.2-.1-.2.1-.2zm.5.1h.2c.1 0 0 0 0 0 0-.1.7-.1.9-.1v-.1c-.1 0 0 0 0-.1.2 0 .9 0 .9.1.1 0 .1 0 .2-.1 0 .1 0 .1.1.1.2.2.5 0 .8.1.2 0 .5.1.8.1.1 0-.1.2-.1.3h-.2c-.3 0-.7 0-.9-.3h-.1c0 .1 0 0 0 0h-.6v-.1c0-.1-.1 0-.2 0-.2 0-.3.1-.6.1-.1 0-.3-.1-.6-.1 0 .2-.3.2-.6.1zm1.1-1.3h.1v.1h-.3c.1-.1.2-.1.2-.1zm3.3 3.7h.3v.1c-.2 0-.2 0-.3-.1zm1.7 1.6c-.1 0-.2.1-.3.1-.2 0-.6 0-.7.1-.2 0-.5-.1-.7-.2v-.3h.6c.1.1.2.1.3.3.2-.1.5-.4.8 0zm-22.3-5.1c0 .1-.1.1-.1.1h-.3c-.1 0-.1-.2-.2-.3.1 0 0 0 0 0 .1 0 .4 0 .6.2 0-.1 0-.1 0 0zm-1.1-.1h-.3c-.2 0-.5-.1-.7-.1h-.3c0-.1 0 0 .1 0 .3 0 .7 0 1.2.1zm-2.1-.8h-.8c-.1 0-.2-.1-.3-.1-.1 0-.1 0-.2.1h-.2v-.2h-.3c-.1 0-.1 0-.1-.1-.1-.2.1-.3.3-.5h.5c0 .2 1 .2 1.2.5.1 0 .2-.1.5-.1h.5c0 .1 0 .1.1.2h.6c.3 0 .8.2 1.2.2 0-.1 0-.1-.1-.1.2 0 .3.1.6.2 0 0 0 .1-.1.1s-.3.1-.6.1-.8-.1-1 0c-.2 0-.6 0-.8-.1-.6.1-.8-.3-1-.2zm.2.7c-.1 0-.1.1-.2.1s-.2-.1-.3-.1c-.1 0 .1-.1.2-.1.2 0 .2.1.3.1.1 0 0 0 0 0zm-.9-.2h-.1c0 .1-.2 0-.3 0h.1c.1-.1.2-.1.3 0zm-1.2 0c0-.1-.1 0-.1 0 0-.1.1-.1.2-.1h.2c0 .1-.1.1-.3.1zm-.7-.7c-.1 0-.2 0-.3-.1-.2 0-.3.1-.6.1s-.5-.1-.6-.1c-.2 0-.6 0-.8-.1v-.1c.1 0 .2-.1.5-.1h.8c.3 0 .6.1.8.2 0-.1.1-.1.1-.1 0-.1.2.1.2.1.1 0-.1.1-.1.2zm-.8 2.8h-.3c.1 0 0 0 0 0 .1 0 .1 0 .1-.1s.1-.1.2.1c-.1-.2-.1 0 0 0zm-.5 0c0 .1-.3 0-.5.1-.3 0-.7 0-1-.1v-.1h.1c0-.1 0-.1-.1-.1h.2c.1 0 .2.1.3.1.5-.1.8-.3 1 .1zm-2.3-.4c0-.1-.2 0 0 0h-.3c0-.1.1-.1.2-.1-.1 0 .1 0 .1.1zm-1.7-2.1h-.1c0-.1-.1-.1-.1-.2h.3c.1.1-.1.2-.1.2zm-1 1.9c-.1 0-.5-.1-.5-.1 0-.1.1-.1.2-.1s.1.1.2.1.1.1.1.1zm-.7-2.8c0-.1 0-.1 0 0l.1-.1h.7c-.1 0-.2.1-.3.1h-.5zm-.7.7c0 .1-.5 0-.6 0v-.1c.3.1.4.1.6.1zm-1.2-.8c0-.1.1-.1.2-.1h.8c0 .2-.3.2-.5.2s-.4 0-.5-.1zm-2 3.5c-.1 0-.2-.1-.2-.1 0-.1.1-.1.1-.1h.2c0-.1-.1 0-.1.2zm-4.7-3.7v.1c-.1 0 0 0 0 0h-.3c-.1 0 .1-.2.1-.2h.2v.1c0-.1 0 0 0 0zm-2.9-1.8c0 .2 0 0 0 0-.1 0-.1-.1-.1-.1.1 0 0 0 0 0h.2s0 .1-.1.1zm-1.8 9.7h-.3c0-.1 0 0 0 0 0-.1 0 0 0 0h.3c.1-.2 0-.1 0 0zm-.8-9.3c-.1.1-.5 0-.6 0v-.1c0-.1.3 0 .5-.1-.1 0 .2.2.1.2zm0 8.9c0 .1-.6 0-.7 0 0-.1.2-.1.3-.1.1-.1.2-.1.4.1 0-.2 0 0 0 0zm-1.2-7.8c-.1 0-.3-.1-.5-.1v-.1h.3c.1.1.2.1.2.2zm-2.3-.1c-.1 0-.3.1-.5.1-.3 0-.7-.1-1-.1.1 0 .2 0 .2-.1h.6c.3 0 .6.1.9.1 0-.1 0-.1-.1-.1.1 0 .2-.1.3-.2.1 0 .3.1.3.3.1.3-.5 0-.7 0zm.1 7.9l.1-.1h.3v.1h-.4zm.4.2c-.2 0-.5.1-.7 0 0-.1.3 0 .3-.1.2 0 .4 0 .4.1.1 0 .1 0 0 0zm-2.3-1.3s0 .1 0 0c-.2.1-.3 0-.5-.1h.3l.2.1zm-.7-1.5v-.2c.2 0 .3.1.6.1.1 0-.1.1-.1.1-.3.1-.4 0-.5 0zm-.7 2.4c0-.1 0-.2.1-.2.1.1.1.1.3.1 0 .3-.3.1-.4.1zm-1.1-2.9c0 .1-.5 0-.6 0-.1 0-.1.1-.2.1-.2 0-.5-.1-.8-.1 0-.1.1-.2.1-.3.3 0 .5.1.8.2.3-.1.5-.1.7.1zm-1.8 2.9s-.1 0 0 0c-.1 0-.1-.1 0 0 0-.1.1-.1.2-.1-.1 0 0-.1 0-.2.1 0 .9.1.8.3 0 .2-.9 0-1 0zm-.9-8c0-.1.1-.1.2-.2.2 0 .3 0 .3.2h-.5zm-.6-2.5c.2 0 .5 0 .6.1-.1 0 0 .2 0 .3-.2-.1-.5-.2-.6-.4zm.1 9.9c-.2.1-.5.1-.6.1l-.1.1c-.2.1-.6-.1-.8-.2 0-.1.1-.2.2-.3.2 0 .5.2.7.2h.2c.2-.1.3-.1.4.1zm-1.7.3h-.2c-.1 0 0-.3 0-.3.2 0 .2.1.2.3zm-.4-2.6v-.1c0-.1.1-.1.2-.1.2 0 .5 0 .6.1v.1c0 .1-.1.1-.2.1-.2 0-.3-.1-.6-.1zm.6-7.8h.6c.2 0 .1 0 .1.1-.1 0-.1.1-.1.1-.2.1-.5.1-.6-.2zm2.9 7.6h.1v.2c0 .1 0 .1-.1.1h-.1c0 .1.1-.1.1-.3zm-4.1 2.8h-.2c0-.1 0-.1.1-.1-.1 0-.2 0-.2-.1.1 0 .3 0 .3.1.1-.1.1-.1 0 .1.1-.1.1-.1 0 0zm-.8-9.3c-.1 0 0 .1 0 .1h-.2v-.2s.2 0 .2.1zm-1.1 1.1c0-.1.1-.1.1-.1.3 0 .8.3.8.2-.2 0-.7.2-.9-.1zm.9 8.1c-.1 0-.1 0 0 0h-.3c-.1 0 0 0 0 0-.1 0 0 0 0 0 .1 0 0 0 0 0h.3c-.1-.1-.1 0 0 0zm-1.2-.1c-.1.1-.1 0-.2 0 0 .1 0 0-.1.1-.1 0-.1-.1-.1-.2v-.1c.1 0 .1-.1.2-.2.2 0 .6 0 .7.1-.1.3-.4.3-.5.3zm-.4-8.1c.2 0 .5 0 .6.2h-.2c0 .2-.3 0-.3-.1-.3 0-.1-.1-.1-.1zm-1.6 5.5c0-.1 0 0 0 0h-.2c0-.1 0 0 .1 0h.6c0 .1.1.2.2.2-.3 0-.5-.2-.7-.2zm-.6.6c-.1 0-.3 0-.5-.1v-.1c0-.1 0 0 .1 0h.7c.1.1-.1.2-.3.2zm-1.6-6.1c.1 0-.1.1-.1.1-.3 0-.8-.2-1-.1-.3 0-.6 0-.9-.2V94c.1 0 .2 0 .2-.1.3 0 .6.1.8.1h.6c.1 0 .2.1.5.1.1 0 .2-.1.5-.1 0-.1.3.1.3.2.2.1.3 0 .3.2l-1.2-.1zm.8 5.1c-.1 0-.1 0 0 0-.2.1-.3 0-.5 0 0-.1.1-.1.1-.2.1.1.3.1.4.2zm-.3 3.1h-.5v-.1c.3-.1.4 0 .5.1zm-2-.4l.2-.2c.2 0 .6 0 .7.2 0 .2-.8 0-.9 0zm0-1.8c.1 0 .1-.1.2-.1h.2v.1c0 .1-.3 0-.4 0zm.3 2.8h-.9c0-.1 0-.1.1-.2-.1 0-.2-.1-.3-.2 0 0 .2-.1.3-.1.5.1.8.1 1 .6 0-.1-.1-.1-.2-.1zm-1.3-1.3c0 .1-.3 0-.3 0s0-.1-.1-.1c.2-.1.3-.1.4.1zm.2-7.4c-.1 0-.1.1-.2.1h-.1s-.3-.1-.3-.2v-.1c0-.1 0 0 .1 0 .3 0 .5 0 .5.2zm-1-2.4c0-.1-.7.1-.7.1h-.9c-.1 0-.2-.1-.2-.1v-.1c.1 0 .2-.1.3-.1.3.1.7.1 1.2.1.1 0 .2.1.3.1.3 0 .6 0 .8.2 0-.2.5-.1.6-.1 0 .1.1.2.1.3 0 .1-.1.1-.1.1-.1 0-.3.1-.5.1-.2-.2-.7-.4-.9-.6zm-.6 6.8c.2 0 .3.1.5.3-.3.2-.6 0-.5-.3zm-.6-2.1h-.5c.1 0 .2 0 .3-.1.2 0 .2 0 .2.1zm-.5-2.4c-.1 0-.2 0-.3.1-.1 0-.3-.1-.5-.1s.1-.1.1-.2c.2 0 .5 0 .7.1.1 0 0 .1 0 .1zm0 5.9c0 .1-.1.1-.1.1h-1c-.1 0-.3-.1-.5-.1s-.3.1-.6.1c-.1 0-.3-.1-.6-.1-.5 0-1.2.1-1.5-.1h-.1c0-.1.3-.1.5-.1s.5.1.6.1c.2 0 .3 0 .6.1 0-.1 0-.1.1-.1.3-.1.6 0 .9 0 .6 0 1.2-.3 1.7.1zm-1.9 1.2c-.1 0 0 0 0 0-.2.1-.3-.1-.3-.2.2 0 .4.1.3.2.1 0 0 0 0 0zm-3.2-2.3s.2-.1.2-.2c.2.1.7.2.9.1 0 .1.1.1.1.1 0 .1 0 .1-.1.1h-.5c-.1.2-.4.4-.6-.1zm.3 1c-.1.1-.2.1-.2.1h-.5v-.1c.1 0 .1 0 .2-.1.2 0 .3 0 .5.1zm-1-.8c0-.1.1-.1.2-.1h.1c0 .1 0 .1-.1.1 0 .1-.1 0-.2 0zm1-5.2c0 .2-.3.2-.3 0h.3zm3.4-2.3h.6c.1.1-.4.1-.6 0 0 0 0 .1 0 0zm-5.2 0c0-.1 0-.1 0 0 0-.1.1-.1.1-.1 0-.1-.1-.2-.2-.2-.5-.1-.9 0-1.5 0H175c0 .1.1.1.1.1.2.1.5.1.7.1.8.1 1.5.1 2.3.1-.1 0-.1.1-.1.1h-.3c-.3 0-.8-.1-1 0-.1 0-.2.2-.3.2-.3 0-.6-.2-.8-.2-.2-.1-.6 0-.8-.1-.1 0 0 0-.1-.1s-.5-.1-.5.1h-.2v-.1c-.2-.2-.3 0-.6 0s-.3-.1-.6-.1-.3.1-.5.1-.5-.1-.6-.1c0-.1.7-.2.8-.3-.5 0-1-.3-1.5 0-.3 0-.7-.2-1-.1-.1 0 0-.2.1-.3.3-.1.6.1.9.1h2.5v-.1h.8c.1 0 .3-.1.5 0 .2 0 .3.1.6.1h2c.1 0 .2-.1.3-.1.1 0 .2 0 .3.2h.3c.5 0 .8.1 1.3.1s.8-.1 1.4-.1c.6 0 1 .1 1.6.1.8 0 1.6-.2 2.4-.1.1 0 .3.1.5.1s.5.1.7.1c-.2 0-.5.1-.7.1-.3 0-.7-.1-1 0-.2 0-.5-.1-.7-.1h-1.6s-.2 0-.2.1.1.1.1.1c.2.1.5 0 .7 0 .3 0 .6 0 .9.1v.1c-.1 0-.2 0-.2.1h-.1c0-.1-.1-.1-.1-.1 0 .1-.1.1-.2.2-.3 0-.6-.2-.9-.2-.5 0-1.5.6-1.7 0-.1 0-.3.2-.5.2-.8.2-1 .1-1.3-.1zm.7 8.3c-.1 0-.1.1-.2.1-.2 0-.3-.1-.6 0-.3 0-.6 0-.9-.1 0-.1.1-.2.2-.3.4 0 1 .2 1.5.3zm-2.1-6c0-.1.2-.1.3-.1.1 0 .2 0 .3.1.1 0-.1.2-.1.2h-.3c0-.1-.1-.2-.2-.2zm.9 7.5h-.3c-.3 0-.7.3-.9-.1-.1 0 .1-.2.1-.2.4 0 .7.1 1.1.3zM176 100s0 .1 0 0c-.6 0-1 .1-1.5 0v-.1c0-.1.1 0 .1 0h.9c.2 0 .3-.1.6-.1v-.1c.1 0 .2 0 .3-.1.2 0 .5 0 .7.1 0 .1 0 0 0 0 0 .1 0 .1-.1.2s-.8-.1-1 .1zm.5 1.7c0 .1-.2 0-.3 0v-.1c.1 0 .1-.1.2-.2.1 0 .1.2.1.3zm-.7-2.9c.1 0 0 .2 0 .3 0-.1-.3-.2-.3-.2 0-.1 0 0 .1 0 0-.1.1-.1.2-.1zm.1-4.3h.3c0 .2-.5.1-.6.1.2.1.3.1.3-.1zm.7-.8c0 .1-.6.2-.7.1-.1 0 0-.2 0-.2.3.1.5.1.7.1zm-2.3.5c-.2 0 .1-.3.2-.3 0-.1.2 0 .2 0 .1 0 .1-.1.2-.1h.6v.2c-.1 0-.1.1-.2.1-.2 0-.5.1-.6.1h-.4zm-.9-.2c-.2.2-.5 0-.7 0 0 .1-.7.1-.8.1h-.1c.1 0 .1 0 .1-.1.3-.5.7-.1 1-.3.2-.1.6-.1.5.3 0-.2 0 0 0 0zm-.7 7.2c-.1 0-.1 0 0 0l-.1.1c-.1 0-.3-.1-.5-.2.1 0 .3 0 .6.1zm-1.1-7.6l.2.2v.1h-.1c-.3-.1-.1-.2-.1-.3zm.4 5.5c-.3 0-.9-.2-.9-.5.1 0 .2.1.3.1.1.1.2.1.3.2h.2c.1.1.1.1.1.2.1-.1 0 0 0 0zm-1.3-.3c-.1 0-.3.1-.5.2h-.1c0-.2-.1-.2 0-.5.3.1.5.2.6.3 0-.1 0-.1 0 0zm-.5-1.8c.1-.1.1-.1.2-.1s.3 0 .5.1c-.1 0-.2 0-.2.1-.3 0-.4 0-.5-.1zm-.3 3c0 .1-.3 0-.3 0v-.2s.1 0 .3.2c0-.2 0 0 0 0zm-.5-5.9c-.2 0-1-.2-1.2-.1-.2 0 .1-.3.1-.5.2 0 .3.2.6.2h.8c.3 0 .7.1 1 .2v.1c-.1 0-.3-.1-.5-.1-.4.1-.6.2-.8.2zm-.7 2.3c0-.1.1-.1.1-.2.1 0 .2.1.3.2-.1.1-.2.1-.4 0zm.2 3.6c-.2 0-.9.1-.9-.2.3 0 .8-.1 1.2.1-.2.1-.3.1-.3.1zm-.6 1.3c0-.1-.6-.2-.6-.3.4 0 .6.1.6.3zm-.5-9.8c-.1 0-.1.1-.2.1-.2 0-.6-.2-.8-.1-.1 0-.1.1-.1.1-.1 0-.1-.1-.2-.1 0 0-.3-.1-.5 0-.1 0 0 0 0 0 .1 0-.1.2-.1.2-.2 0-.3-.1-.6-.2h-1.4c-.2 0-.2 0-.3.1-.2 0-.3-.1-.6-.1-.1 0-.1-.1-.2-.1 0-.1.1 0 .2 0 .2 0 .5 0 .7-.1.5 0 .9.1 1.3 0 .3.1.9.2 1.3.2.1 0 .3 0 .5-.1.1 0 .2 0 .3.1.1-.1.3-.1.7 0zm-.3 9.6c-.1 0-.1.1-.2.1-.1.1-.3.1-.5.1v-.2c.1 0 .1 0 .2-.1.2 0 .3 0 .5.1 0-.1 0 0 0 0zm-.8.1h-.2v-.2c.1 0 .2 0 .3.1-.1 0-.1.1-.1.1zm0-1.4h.7c0 .2-.6.1-.8.1 0-.1 0-.1.1-.1 0-.1 0 0 0 0zm0-5.8c-.1 0-.1 0-.2.1h-.5V94c.1 0 .2 0 .3-.1.2-.1.2-.1.4.1 0-.2 0-.2 0 0zm-.9 5.8c.1-.1.2 0 .3 0v.2c-.1.1-.3 0-.3-.2zm-.3-6c.1 0 .1-.1.2-.1l.1.1c-.1.2-.2.2-.3 0zm-4.4-2.6c.2.2.8.2 1 .2 0 .1-.3.1-.5.1 0 .1 0 .1.1.1-.1 0-.1 0-.2.1 0 .1-.2-.1-.2-.2-.1 0-.2.2-.5.2-.2.1-.6-.1-.8 0h-.9c0-.1.1-.1.2-.1-.2 0-.1-.3-.3-.5-.2-.1-1.7-.1-2-.1-.3 0-.7 0-1.2-.1-.2 0-.5.1-.7.1h-1c-.1 0-.3-.1-.5-.1h-.5c0 .1-.2.2-.3.2 0 .1-.3-.2-.5-.2l-.5-.1v-.1c.2 0 .3-.1.6-.1h1.4c.5 0 .9.1 1.4-.1h.5c.2 0 .3 0 .6.1h.3c.3 0 .6.1.9.1.3 0 .7-.1 1.2 0 .3 0 .6.2.9 0h-.1.7c.1 0 .2 0 .3.1h1.6c.3 0 .8.1 1.2.1h1.8c.2 0 .5-.1.6-.1h.9c.2 0 .3 0 .5.2.1 0 .2 0 .2-.1.3 0 1-.1 1.2.2-.1 0-.2 0-.2.1-.2 0-1-.1-1.3 0h-.6c-.5 0-.9 0-1.3-.1h-.6c-.5 0-.8-.1-1.3-.1h-.3c0 .1-1.7 0-1.8.2zm-1.6 2.6c-.2.1-2.4 0-2.5 0-.1 0 0 0 0-.1.1 0 .1 0 .2-.1.4.1 1.9-.1 2.3.2.1 0 0 0 0 0zM156 99c-.1 0-.1 0 0 0-.1 0-.2 0-.2.1h-.2v-.2h.5s0 .1.1.1c-.2-.1-.2-.1-.2 0zm-1.8.7c0-.1.1-.2.1-.2.6.1 1.2 0 1.7.1.1.4-1.5.1-1.8.1zm-1.1-8.2h.3c.2.2-.2 0-.3 0zm-.4 9.9h-.3v-.2c0-.1.2-.1.2-.1.1 0 .1 0 .1.1.1 0 0 .1 0 .2zm-1.1-9.7h-.1c0-.1.1-.1.2-.2.1 0 0-.2 0-.3.1 0 .1 0 .2-.1.2.1.3.1.6.2v.1c-.3-.1-.6.1-.9.3zm-.8-.8c-.3 0-.8-.1-1.2 0 0-.1-.2.1-.2.1s.1.1.1.2h-.7v-.1h.3-.5c0-.1-.3-.1-.2-.6h-.1c0 .1-.5.3-.6.3-.1 0-.6-.2-.7-.2h-.1c0 .1.3.1.5.1v.1c-.1 0-.2.1-.3.1-.3 0-.6-.1-.9 0h-1.3c-.1 0-.3 0-.5.1-.2 0-.3 0-.6-.1h-.3c-.1 0-.2-.1-.3-.1-.2 0-.3.1-.6.1-.1 0-.2-.1-.3-.1-.1 0-.3.1-.6.2h-.1v.2h.2-1c.1 0 .2-.1.3-.1-.1 0-.1-.1-.2-.1-.2-.1-.5-.1-.7 0v.2h.3c-.1 0-.2.1-.3.1-.3 0-.6 0-.9-.1-.2 0-.3.1-.5.1h-.3c-.2.1-.3.2-.6.2s-.6-.2-.6-.6h.1v.2h.2c0-.1 0-.1-.1-.1 0-.1.1 0 .2 0 .5 0 1.5.1 2 0 0-.1-.1-.1-.1-.1-.3-.3-.6-.1-1-.1-.2 0-.5-.1-.7 0-.2-.1-.3-.2-.6-.2v.1h-.1v-.3c0-.1 0 0 .1 0h1.2c.2 0 .5-.1.7 0 .5 0 .7.2 1.2.2v-.1h-.1c.1 0 .2-.2.2-.3-.2 0-.3 0-.6-.1-.1-.1-.2-.2-.3-.2-.2-.1-.9-.1-1.2 0-.1 0-.2.1-.3.1-.2 0-.3-.1-.6 0-.1 0-.2-.1-.5-.1h-.5c0 .1-.1.1-.1.1h-.1c.1 0 .1-.2.1-.3v-.1c.2 0 1.5 0 1.7-.1 0-.1-.1 0-.2 0v-.1h1.5c.2 0 .3.1.6.1v-.1h-.1c0-.1 0 0 0 0h1.2v-.1c-.3 0-.6-.1-.8-.1 0-.1.1 0 .1 0 .1 0 .3 0 .5-.1h.9c.2 0 .5-.1.7 0 .3 0 .7.2.9.1.1 0 .2-.1.2-.3.1 0 .2 0 .3-.1.2 0 .3 0 .6.1.1 0 0 .1 0 .2s.1 0 .1 0c.1 0 .3 0 .5-.1l.1-.1c0 .2.3.2.6.2.1 0 .2.1.3.1.1 0 .1-.1.2 0 .1 0 .2.2.5.1.1 0 .2-.1.5-.2.1-.1.3 0 .6 0 0-.1 0-.1.1-.1.2-.1.6 0 .8 0 .2 0 .3 0 .6-.1.2 0 1.4.1 1.4.2h.1V89c.3-.2 1 .1 1.4.1.7.1 1.5 0 2.2.1.1 0 .2.1.3.1-.1 0-.3 0-.5.1h-.8c-.1 0-.3-.1-.6 0-.3 0-.9-.2-1 .2h-.6v-.1c0-.1.2-.1.2-.1h.1c-.2 0-.3-.1-.6 0-.2 0-.5-.2-.5-.5h-.1c0 .1-.2.2-.3.3 0 .1-.3 0-.3-.1 0 .1-.2.1-.2.2-.2 0-.7-.1-.9-.1h-.6c-.2 0-.6-.1-.8 0 0 0-.8 0-.9.1-.2 0 .3.2.3.2.3.1.8 0 1.2.2h.1c0 .1 0 0-.1.1-.2 0-.5.1-.8.1h-.7c-.3 0-.7 0-1.2-.1h-3.9c-.1 0-.3.1-.3.2s.2.1.2.2v.1c0 .2.8-.1.9-.1.1 0 .1.1.2.1 0 .1.3 0 .5 0l.2.2c.1 0 .2-.1.3-.1.2 0 .3.1.6.1.1-.1.2-.1.5-.2.2 0 .5-.1.6-.1.3-.1.7 0 1 0 .1 0 .3-.1.5-.1s.3 0 .6.1c.2 0 .6.1.8.1.3 0 .7 0 1 .1.2 0 .2.1.5.1.6 0 2.1-.1 2.4.2-.1 0-.2 0-.3.1 0 .1-.4-.1-.7.1zm.4.6c-.2 0-.2 0-.3-.1 0 0 .2 0 .3.1zm-.6 7.3h-.8v-.1c.1 0 .1 0 .2-.1.2 0 .3.1.6 0v.2zm-1.4-7.1h-.7c-.3 0-.7 0-1-.1 0-.1 0-.1.1-.1h1.3c.3 0 .5.1.7 0 .1 0 .1-.1.2-.1.2.2.6.2.8.2v.1c-.1 0-.2.1-.5.1-.3-.1-.7-.3-.9-.1zm-1.7 9.4c-.3 0-.7.1-.9-.1 0-.1.1-.1.2-.1.3 0 .6.1.9 0l-.2.2zm-1.7-9.6c-.1 0 0-.1 0-.2.2 0 .6 0 .8.1-.1.1-.7.1-.8.1zm.5 10.8c0 .1-.3 0-.5 0 0-.1 0-.1.1-.1s.3-.1.4.1c.2 0 .2 0 0 0zm-.9-10.5h-.1c-.2 0-.3 0-.5-.1 0 .1-.5.1-.6.1-.1 0-.1-.1-.2-.1.1 0 .1 0 .2-.1 0-.1 0 0-.1 0 .2 0 .5.1.7.2.2-.1.4-.1.6 0zm-1.8 0h-.1c0-.1 0-.1.1-.1 0 0 .1 0 0 .1.1-.1.1-.1 0 0zm-.1 0c-.1 0-.1.1-.2.1-.2 0-.6 0-.8-.1.1 0 0 0 0 0 .1 0 .3-.1.5-.1.1-.2.2-.2.5.1 0-.1 0-.1 0 0zm-1.4-.1h-.3c-.3 0-.7-.1-.9-.1v-.1h.7c.1 0 .2 0 .5.2zm-2.1 10.8v-.1c0-.1.2-.1.2-.1.3.2-.1.2-.2.2zm-.3-.4c-.1.1-.2.1-.3.1h-.3v-.1c.1 0 .2-.1.2-.1.1-.1.2-.1.4.1 0-.1 0 0 0 0zm-1.2 0s-.3.3-.3.5c0 0 .2.1.3.1h-1.2c0-.1.3-.2.5-.2h-.2c.1 0 .2-.1.2-.2h-.5c-.1.1-.2.1-.3.2h-.5c0-.2 0-.2-.1-.3v-.1c.1 0 .3-.1.5-.1.5 0 1-.1 1.6.1 0-.1 0-.1 0 0zm-2.9-10.6s0 .2 0 0c.1 0 0 0 0 0 .1-.1.2-.1.2-.2l.3.1h.7c.1 0 0 .1 0 .2s-.1 0-.1 0c-.3.1-.7.3-1.1-.1zm-.4-1.7v-.1h.1c.3 0 .8.1 1.2.1h-1.3zm-.3-.4c-.1 0-.1.1-.1.1 0 .1-.1 0-.2 0-.6 0-1.6-.2-2.1 0-.2 0-.3-.1-.6-.1h-1c-.5-.1-.7-.2-1.2 0h-1.5c-.1.1.1.2.1.3-.3 0-.8-.3-1.3-.1-.3 0-.7-.1-.9-.1v-.2c.1 0 .2-.1.2-.2.1 0 .2 0 .3.1.1 0 .2-.1.3-.1.2 0 .6.3.8.1.1 0 .1.1.2.1 0-.1 0-.1.1-.2.2-.3.6-.1.9-.2.1 0 .2-.1.3-.1l.5-.1c.2 0 .5.1.7.2 0 .1.3 0 .5 0 .5-.1.9 0 1.4 0h1c.2 0 .3-.1.6 0 .2 0 .3.1.6.1s.6-.1.8 0v.1c-.1 0-.1 0-.2.1-.1 0-.1.2-.2.3.2 0 .2-.1 0-.1zm-1.7 1.5c-.1 0-.1-.2-.1-.2h.2c.1 0 .6 0 .7.1 0 .1-.7.2-.8.1zm.7 11.7s-.1 0-.1.1h-.3c-.2 0-.6-.1-.8-.1 0-.1.1-.1.1-.2h-.3l-.7-.1v-.1c.1 0 .1-.1.2-.1.2 0 .3-.1.6-.1.1.1.3.2.5.5h.6c.1 0 0-.1 0-.1 0-.1.2 0 .2 0 0 .1 0 .1-.1.1.1 0 .2.1.1.1zM130.1 90c.1-.1.1-.1 0 0 0-.1.8-.2.9-.2.2 0 .3.1.6.1l.5.1c-.1 0-.6 0-.7.1h-.2c-.4.1-.8.1-1.1-.1zm1.5 1.2h-.2c-.6 0-1.2-.1-1.7-.1v-.2c0-.1 0 0 .1 0 .3 0 .7-.1 1-.1.5 0 .7.1 1.2.1 0 .1.1.1.2 0h.1c0 .1-.3.1-.5.2-.1.1-.2.1-.2.1zm-1.8-1c-.2 0-.5 0-.6-.2h.6c.1-.1 0 .2 0 .2zm-2 1.7c-.2 0-.6 0-.8-.1-.1 0 0 0 0 0 .1 0 .2-.1.3-.1.1 0 .2 0 .3-.1.3 0 .7.1 1 .1.1.1-.7.2-.8.2zm0 10.5h-.3v-.1h.4c0-.2-.1 0-.1.1zm-.6-.1c-.1 0-.3.1-.3.2-.1 0 0 0 0 0h-.9c0-.1.2 0 .2 0v-.2c.2 0 .6.1.8 0 0-.2.1-.2.2 0 0-.2 0 0 0 0zm-1.7.2h-1.3.2c.1 0 0-.2-.1-.2h.6v.1c-.2 0 .4 0 .6.1 0-.1 0 0 0 0zm-1.6-.2c-.1-.1-.3-.1-.5-.2 0-.1.1-.1.2-.1s.3 0 .5.1c-.1 0-.1.2-.2.2zm-.9-10.2c-.3 0-.6-.1-.8-.1-.3 0-.6.1-.9 0-.1-.1-.2-.1-.2-.1 0 .1-.3.1-.3.1-.2-.1-1.4-.2-1.5-.5-.1-.3.5 0 .6.1.2 0 .5-.2.7-.2.2 0 .5.2.7.2.1 0 .3-.1.5 0 .2 0 .3.1.6.1s.7-.3 1.2-.1h.1s.1-.1.1-.2c.1 0 .2-.1.3-.1h.1c-.1 0-.1.2-.2.2.2.1.6.1.9.2h.1v.1c-.3 0-.6.1-.9.1-.2 0-.3-.1-.6-.1-.3.2-.3.3-.5.3zm.3 9.7c0 .1-.1.1-.1.2-.2.2-.7.3-.9.1.1 0 .2-.1.2-.1.3-.1.6-.1.7-.3l.1.1zm-3.4 1.1h-.2c-.2 0-.7 0-.9-.1.3 0 .6-.1.9-.1-.1.1 0 .1.2.2zm-2.2-11.6c.1-.1.2-.1.3-.1.2 0 .5.1.8.1v.1c-.1 0-.2 0-.3.1-.4-.1-.7-.1-.8-.2zm-.7.9c-.3 0-.8 0-1-.1 0-.1.2-.2.2-.2.1 0-.1-.1-.1-.1-.2-.1-.7 0-.9-.2 0 .2-.3.1-.5.1-.1 0-.1-.1-.2-.1 0-.1.1-.2.2-.2h1.2l.9.3h-.2v.2c0 .1.2 0 .2 0v-.2c0-.1.3-.1.5-.1v.2c.5 0 .3.1.7.3-.1.1-.9.1-1 .1zm.8 10.2c0 .1-.3 0-.5 0 .1 0 .1-.1.2-.1.2-.2.2-.2.3.1 0-.1 0-.1 0 0zm-1.2-.1c0 .1-.5.1-.6-.1.3-.1.4-.1.6.1 0 .1 0 0 0 0zm-2.3.5h-1.4c0-.1.3-.2.5-.2.3 0 .6.1.9.1v.1c.1 0 0 0 0 0zm-1.5-11.5c.2 0 .3 0 .6.1.2 0 .5-.1.7.1 0 .1-.1.1-.1.2-.1 0-.3 0-.5-.1h-.8c-.1-.1 0-.2.1-.3zm2.3-.7c-.1 0-.2.1-.2.2-.2 0-.5 0-.6-.1-.3 0-.8.1-1 0h-.1v-.2h.2c.3.1.7.1 1 .1.2-.1.5-.2.7 0 0-.1 0-.1 0 0zm-3.5-.6c0-.1.1-.1.2-.1.2 0 .6-.1.8-.1 0-.1 0-.1-.1-.2-.1 0 .6-.2.6-.3.2 0 .5.1.6.1h.3l.2.1c.2 0 .3 0 .6.1.2.1.5.2.7 0 .1 0 .1.2.1.3h-.1c-.1 0-.2-.1-.3 0h-.2c-.3 0-.7 0-.8-.2-.1 0-.3.1-.5.1s-.3 0-.5-.1c-.2 0-.3.2-.6.2-.5.3-.7.1-1 .1zm-.5 10.2h-.8v-.1c.1 0 .2-.1.3-.1.5.1.9-.1 1.3.2h.1c-.2 0-.7-.1-.9 0zm-1.4-7.8c0-.1.2-.1.3-.2h.9c.2 0 .6 0 .8.1v.1c-.1 0-.2.1-.2.1h-1c-.2 0-.5-.1-.8-.1zm0 7.9c0 .1 0 0 0 0-.2 0-.5.1-.6.1-.3 0-.7-.1-1 0h-2.4v-.1c.5 0 1 .1 1.4 0 .1-.1.2-.1.3-.2.2.1.3.1.6.1.1 0 .2.1.2.1h.6c.2 0 .6-.3.9-.2.1 0 0 .2 0 .2zm-2.5 2.2c0-.1 0-.1-.1-.2 0-.1.5-.1.6-.1.1 0 .1-.1.2-.1.3.1.8.1 1 .3 0 .2-1.5.1-1.7.1zm-.6.3h-.1v.2h-.5c-.1 0-.2-.1-.3-.1h-.3c-.3 0-.7-.1-1-.1-.1 0-.2 0-.5.1-.1 0-.2.1-.3.1-.1 0-.2-.1-.3-.1 0-.1-.2 0-.3 0v-.1c.8 0 .9.2 1.5-.3.3.2.9.2 1.4.2 0-.2.6-.6.7.1.1-.1.1-.1 0 0zm-4.4-1.9c0 .1-.5 0-.6 0h-.3v-.3c.5 0 .8-.1.9.3.2 0 0 0 0 0zm-.9 2c0-.1.1-.2.2-.2.2 0 .3 0 .6-.1.1.1.1.1.1.2-.4.1-.5.3-.9.1zm-.1-1.2h-.2c0-.1.2-.2.2-.3h.9c0 .1-.5.1-.6.1h-.1c0 .1-.1.1-.2.1v.1zm-.8-8.8c0-.1 0-.1 0 0 0-.2.3-.2.5-.2h.8c.1 0 0 .1 0 .1 0 .1-.2 0-.2.1h-1.1zm-.1 8.3c0-.1 0-.1 0 0 0-.1-.8-.2-.9-.2v-.2c.2 0 .5-.2.6-.3.2 0 .3 0 .5.1.1 0 .1.1.2.1 0 .1 0 .2.1.3-.1-.1-.5.2-.5.2zm.1 1.7c0-.1 0 0 0 0 0 .1-.6 0-.6 0 .1 0 .1-.1.2-.1.2 0 .3.1.6.1-.2-.1-.2-.1-.2 0 .1-.1.1-.1.2-.1-.1.1-.2.1-.2.1zm-1.3-1.2v-.3c.1 0 .1 0 .2-.1.2 0 .3 0 .6.1 0 .1-.1.1-.1.2-.2 0-.2.1-.5.1.1-.1-.1 0-.2 0zm-.7 1.5h-.3c0-.1.1-.2.1-.3.1 0 .1.1.2.1s.3-.1.5-.1c0 .1.2.2.2.3h-.7zm-.7-1.6l.1-.1h.7v.1c-.2.1-.5.1-.8 0zm-.2-.6s0-.1 0 0c-.1 0-.1.2-.1.2h-.2c0-.1.1-.1.1-.1v-.1c-.1 0-.1 0-.1-.1.1 0 .1-.1.2-.2.2.1.6.1.8.1 0 .1-.2.2-.1.2v-.1h-.2c0 .1 0 .1 0 0h-.1c-.1.1-.2 0-.3.1zm0 .6c-.1 0-.3.1-.5.1-.1 0-.2-.1-.3-.2.2-.1.5-.1.8.1 0-.2 0 0 0 0zm-.7 1.8v-.2c-.2 0-.6 0-.8-.1v-.1l.7-.3c.2 0 .3.1.6.1 0 .1 0 .2.1.3.1.1-.1.5-.6.3zm-1.5-1.5c-.2 0-.2.1-.5.1h-.5c-.2 0-.8-.1-1 0-.3 0-.7-.1-1-.2 0-.1.1 0 .2 0 .6 0 1-.1 1.5-.5.2 0 .5.2.7.2.1 0 .2-.1.5-.1h.8l.3.2c.1 0 .2.1.3.1h.1v.1c-.5.1-.9.1-1.4.1zm-.3 1.3c-.1 0 0 .2 0 .2h-.1c0-.1-.1 0-.1 0 .1 0 .1-.2.1-.2h-.2c-.1 0 0 .2 0 .2-.1 0-.2-.2-.2-.2l-.2.2c-.1 0-.1-.3-.1-.5.1.2.4.2.8.3 0-.1 0 0 0 0zM91.4 91v-.2c0-.1.6-.1.7-.1.1 0 .3.1.5.1.1 0 0 .1 0 .1-.4.2-1 .1-1.2.1zm.2 10.2c-.1 0-.2.1-.3.1-.2 0-.5 0-.7.1 0 .1 0 0-.1 0-.3-.1-.7-.1-1-.3.1 0 .2 0 .3-.1.5 0 .6.1 1-.1.4.1.6.2.8.3zM88.8 91h-.1c-.3 0-.7-.1-.9 0 0 .2.6.1.7.3 0 .3-.7.1-.8.1v-.1c0-.1-.1 0-.2 0s-.2.1-.3.1c-.3 0-.5-.2-.7-.5-.1 0 0 .1 0 .1 0 .1-.1 0-.1 0h-.7c-.2 0-.5.1-.7.1V91c0-.1 0 0 0 0 .2 0 .3-.1.5-.3h.3c.2 0 .5-.2.6-.1.1 0 .3-.1.5-.1h.7c.1 0 0-.1 0-.2.3 0 1 .1 1.4 0h.1v-.1c-.1 0-.1 0-.1-.1.5 0 .8.1 1.2.3 0 .1-.1.3-.2.5h-.1c-.1 0 0 .1 0 .2h-.3c-.1 0-.7 0-.8-.1zm-.3 10.4c-.3 0-.6 0-.9-.1 0 .1-.1.1-.2.2-.1 0-.2-.2-.2-.3l.2-.2c.2 0 .3.1.6.1s.7 0 1-.1c0 .1 0 0-.1 0v.1c.1 0 .1 0 .2-.1.1.4-.3.4-.6.4zm-.2 2.1c-.1 0-.2.1-.2.2 0-.1-.6.1-.7.1-.1 0-.2-.1-.3-.1-.1 0-.2 0-.5-.1-.1 0-.2-.1-.3-.1v-.1c.1 0 .2-.1.2-.1.3-.1.8 0 1.2-.1.1.1.4.1.6.3zm-2.2-2.1c0-.1.3-.1.5-.1s.3 0 .3.2c-.1 0 0 .1 0 .1-.2 0-.4 0-.8-.2zm-1 0c0-.1.1-.1.1-.2h.5v.1c-.1 0 0 0 0 0h-.1c-.2.1-.3.1-.5.1zm.8 2.1c-.1 0-.2.5-.6.2-.1 0-.1.1-.2.1-.2 0-.5-.1-.7-.1h-.1c0 .1-.1.1-.2.1 0 .1-.1 0-.1 0 0-.3-.1-.2.2-.6.2 0 .3.1.6.1.3.2.7.1 1.1.2 0-.1 0 0 0 0zm-2.4-1.7c-.3 0-.7-.1-1-.1.3 0 .9-.2 1.2-.3.2.1.5.3.7.3v.1h-.9zm-.7 2c.1-.1.3-.1.5-.2h.2v.2c.1.2-.6.1-.7 0zm-.4 0h-.7c0-.1.2-.1.2-.1.3-.1.4.1.5.1.1 0 .1 0 0 0zm1.5-11.7c-.1 0-.6 0-.3-.3.1-.1.2-.1.3-.1v.4zm.4-.6c-.1 0-.2.2-.3.2 0 0 0-.2-.1-.2 0-.1 0 0 .1 0 .2-.1.2 0 .3 0zm-2.7.7c-.1 0-.1 0 0 0 0-.1.5-.2.6-.3h.1v-.1c-.2 0-.3-.1-.6-.3-.1 0-.2.1-.2.2-.2.1-.6.1-.7 0l-.2-.2h-.4c0-.1-.1 0-.2.1 0-.1-.2-.1-.2-.2 0-.2.7-.1.8-.1v-.2c.1 0 .3.1.5.1h.6c.1 0 .3.1.5.1h.5-.1.1c.1 0 .2.1.3.1.2 0 .2-.1 0-.2 0-.1 0 0 .1 0 .2 0 .3.1.6.1.1 0 .2 0 .3.1 0-.2.3-.2.6-.2v-.1h-.1.1c.2.1.3.1.5.2-.1 0 0 0 0 0h-.7c-.1 0 0 .1 0 .2-.3 0-.6.2-.9.3 0 .3.2.3.6.3v.1c-.1 0-.1.1-.2.1h-.5c-1.3.1-1.7.1-1.8-.1zm-.2.2c0 .1-.1.1-.1.1 0 .1 0 0-.1 0-.2 0-.8-.1-1 0-.3 0-.9-.1-1.3 0h-.6c-.3 0-.5-.1-.7 0h-.3c0-.1 0-.1.1-.1 0-.1.2 0 .2 0 .1 0 .3 0 .5-.1h.6c.1 0 .3-.1.5-.1s.2.1.3.1c.1 0 .1-.1.2-.1 0-.2.3.1.3.2 0-.1.2-.3.3-.3.1 0 .2.1.5.1.4-.1.4 0 .6.2zm-.4 11.7c-.2.1-1.6 0-2 0v-.1c.3 0 .9-.1 1.3-.3.3 0 .5.1.8.2-.1.1-.1.1-.1.2zm-3.8-12.3c-.1 0-.2.1-.3.1-.3.1-.9.1-1.2-.1-.1 0 0-.1 0-.2.1 0 .6-.1.6-.1.4 0 .7 0 .9.3 0-.1 0 0 0 0zm-.2 12.5s-.3.2-.5.2-.3-.1-.5-.1h-.3c-.3 0-.5 0-.8.1-.2 0-.2-.1-.3-.2 0-.1-.3.1-.3.2h-.1c0-.1 0 0 0 0 0 .1-.7.1-.9.1h-.1c0-.1-1-.2-1.3-.2v-.1c0-.1.1 0 .2 0 .3 0 .7-.1 1.2-.2.3 0 .6.1.9.2 0-.1.3-.2.5-.3h1.2c.2 0 .5.1.7.1.2 0 .3-.1.6 0h.1c-.3.1-.3.1-.3.2zm-5.3.5H71c0-.1 0-.1.1-.1.3 0 .4 0 .6.1zm-.9 0c0-.2 0-.3.1-.3l.5.1v.1c-.2 0-.3-.1-.3.1h-.3zm-.3-12.7c0 .1 0 .1-.1.1s-.3-.1-.6-.1h-.3c0 .1 0 0-.1 0-.1-.1 0-.3.1-.5 0-.1-.1-.1-.1-.1v-.1c.1 0 .2 0 .3-.1h.7c.2 0 .5.1.6.1v.1c.1 0 0 0 0 0-.2.3-.4.4-.5.6zm-1.3.4h-.9v-.1c.1 0 .2-.1.2-.2.1 0 .1.1.1.2.2 0 .6.1.6.1zm-1.7-.6c-.2 0-.2 0 0 0v-.1h.9v.1c-.1 0-.1 0-.2.1-.3 0-.6 0-.7-.1zm3.9 0c.1.1.2.2.1.3-.1.1-.2-.1-.3-.1-.1 0 .1-.1.2-.2zm.1.8c.1 0 .2-.1.5-.1v-.1c-.1 0-.1 0-.1-.1h-.1c.1 0 .2-.1.3-.1 0-.1-.2-.2-.3-.2l-.1-.3s.5 0 .6-.1c.2.2.2.7.1 1 .2 0 .3 0 .5.1v.1c-.1 0-.2.1-.2.2-.3 0-.6-.1-.9 0-.1-.2-.2-.3-.3-.4zm1.7.1c-.1 0-.1.1-.2.1 0 .1 0 0 0 0 0-.1 0-.1-.1-.1 0-.1.1-.2.1-.3l.1.1c0 .1 0 .1.1.2zm-.7-1.1c.1 0 .1-.1.2-.1.1.1.3.2.6.3-.1 0-.2.1-.3.1-.1 0-.2-.1-.5-.3 0 .1 0 0 0 0zm1.8-.3c.2 0 .5.1.8.1 0 .1 0 .2.1.5 0 .1-.1.1-.2.2-.1 0-.3-.1-.6-.2h.1c.1-.3-.1-.5-.2-.6zm3.5-.3h.9c.1 0 0 .1 0 .2s-.7-.1-.9 0v-.2zm16-1.2h.3c0 .1-.3.1-.5.1.1-.1.2-.1.2-.1zm.6 1.5c-.1.1-.1.1-.1.2-.1 0-.2-.1-.3-.2.2-.1.3-.1.4 0zm.7 1.6c0-.1.2-.1.3-.1.2 0 .3 0 .5.1-.1 0-.1 0-.2.1-.1-.1-.4-.1-.6-.1.1 0 .1 0 0 0 .1 0 0 0 0 0zm4.1-1.8c-.1.1-.2.1-.3.1-.2 0-.5-.1-.8-.1.2 0 .6 0 .8-.1.1 0 .2.1.3.1zm-1.7 1.4c.2 0 .5.1.7.1.5 0 1.3-.2 1.7.1 0 .2-1 .1-1.3.1-.1 0-.3 0-.5.1-.1 0-.1-.1-.1-.1 0-.1-.7 0-.8 0 0-.1-.1-.1-.1-.1v-.1c.2 0 .3-.1.4-.1zm-.8 8.7c0 .1-.1.1-.1.1-.1 0-.2-.1-.2-.2h.1c.1 0 .1 0 .2.1zm-.3-10c-.1 0-.2-.1-.3-.1 0-.1.2-.1.3-.2.3 0 .7.1 1.2.1v.1c-.1 0-.5.1-.6.1-.3.1-.4.1-.6 0zm-1.3-1.4h1.1c0 .1 0 .2.2.2.1 0 0-.1 0-.1 0-.1 0 0 0 0 .3 0 .8-.1 1 .1-.1 0-.1 0-.1.1 0 0 .1.1.2 0 .2 0 .5.1.7.1.2 0 .3.2.6.1.1 0 .2-.1.3-.1v-.1c-.1 0-.3-.1-.5-.1 0-.1.1-.1.1-.2.1 0 .3 0 .5.1h.3c0-.3.1-.2.3-.2.1 0 .2-.1.3-.1.7 0 1.2 0 1.7.2-.1 0-.3 0-.5.1h-.6c-.3.2-.7.3-1 .6 0-.1 0 0-.1 0-.1.1-.2.2-.5.2-.3.1-.6-.1-.9 0h-.6c-.1 0-.3 0-.5-.1h-.9c-.2 0-.6-.1-.8 0-.2 0-.3-.1-.5-.2 0 .2-.2.5-.3.2.1 0 .2-.1.2-.2h-.3c-.3 0-.6-.1-.9-.2h.3c.6-.3 1-.3 1.2-.4zm6.2.4s.1.1.2.1v.1h-.1c0 .1 0 0-.1 0-.2 0-.1-.2 0-.2zm2 .7c-.1 0-.2.1-.5.2-.3 0-.8-.2-1.2 0 0-.2-.9 0-1.2-.3.1 0 .2-.1.3-.1.7.3 1.9-.2 2.6.2zm-.6-1h.3v.1h-.4l.1-.1zm.2 2.2v-.1c0-.1 0 0 .1 0 0 0 .1.1.2.1h-.3zm.9 8.3c-.1.1-.2.1-.3.2-.1 0-.2 0-.3-.1.1-.2.4-.1.6-.1zm.2-7.9s-.2 0 0 0h-.1c-.1 0-.1-.1-.2-.1 0 0 .5 0 .6-.1.1 0 .1.1.2.1v.1c-.1 0-.1.1-.2.1s-.3 0-.3-.1zm0 7.9c-.1 0 0-.1 0-.1h.2c.1.1-.1.1-.2.1zm.2-9.6c.1.1.3.1.6.1 0 .1-.1.1-.2.2h-1c-.1-.3.5-.2.6-.3zm1 9.5c.2 0-.1.3-.1.3-.2 0-.6 0-.7-.2 0-.1.3-.1.5-.1h.3zm1.4-7.7h-.2c-.5 0-.9-.2-.5-.6.2 0 .5.1.7.1v.5zm0-2c0-.1.2-.1.2-.1h.8c.1 0-.1.1-.2.2-.2.1-.4.1-.8-.1.1.2.1 0 0 0 .1 0 0 0 0 0zm1.2 1.7c.1 0 .1-.1.2-.1s.2.1.2.2c-.2 0-.3-.1-.4-.1zm2.2-1.5c0 .1-.2.1-.3.1-.5 0-.6-.1-.7-.5h.1c.3 0 .7 0 .8.2-.1 0-.1 0 .1.2zm-4.7-.9c.2-.2.7-.1.9-.1v-.1h-.1v-.2c0-.1.1 0 .2 0 .2 0 .5 0 .6.1.1.1.2.1.5.1.1 0 .2-.1.5-.1 0-.1 0-.3-.1-.3h.1c0-.1 0 0 0 0 .2 0 .3.1.6.1h.5c.2 0 .2.1.3.2.1 0 .2 0 .3.1 0-.2.5-.3.7-.2.1 0 .2.1.3.1.1 0 .3-.1.5-.2h.2c0 .1 0 .2.1.2 0 .2-.6.1-.7.1-.2.1.3.2.3.2 0 .1.1.1.1.2-.1 0-.1.1-.2.1-.3.1-.7 0-.7-.3h-.1c0 .1-.1.1-.1.1h-.6c-.3 0-.3.1-.5.2-.1 0-.3.1-.5.1h-.2c-.2 0-.5-.1-.7-.1 0 .1-.1.2-.2.3-.3 0-.5-.2-.8-.1v.2c0 .1-.6-.1-.8-.1-.1-.2-.6-.3-.4-.6zm0-.5c.2 0 .3 0 .5.1-.1 0 0 0 0 0h-.3s-.2 0-.2-.1c0 .1 0 .1 0 0zm11.7 1.2c0 .1-.2 0-.2 0s-.2 0-.2.1h-.3v-.2h.6v.1c0-.1.1 0 .1 0zm1.1-.2c0-.1-.1-.1-.1-.1v-.1c.1 0 .1 0 .2-.1.1 0 .1 0 .2.1v.1c-.2 0-.2.1-.3.1.1.1.1.1 0 0-.1.1 0 0 0 0zm.9-.1c.1-.1.2-.1.3-.2 0 0-.2-.1-.2-.2.2 0 .5 0 .6.1.1 0 0 0 0 0 0 .1.1 0 .2 0v-.2h1.2c0 .1 0 .2.1.2-.8.3-1.5.6-2.2.3.2 0 0 0 0 0zm-.1 12c0-.1 0-.1 0 0l.1-.1c.2 0 .5 0 .6.1-.1 0-.2.1-.3.1-.1-.1-.3-.1-.4-.1zm-3.1-12.7c.1-.1.2-.1.3-.1.2 0 .5.1.6 0-.2-.1-.6-.1-.8-.2 0-.3 1.6-.5 1.7 0h.6l.3-.1c.2 0 .2.1.5.1.5 0 .9-.1 1.4-.1 0 0 .1-.1.1-.2h.6c.2 0 .5.1.7.1.1 0 .2-.1.3-.1h.5c.3 0 1-.1 1.4.1.1.1.2.2 0 .3-.2.1-.6 0-.8.1 0-.1-.3.1-.5.1-.1 0 0 0 0 0 .1 0 .1 0 .1.1h-.6c0-.3-.5-.2-.6-.1h-.2c-.2 0-.5 0-.7-.1h-.7c-.2 0-.6 0-.8.1-.3 0-.9-.1-1.2 0-.5 0-.7-.3-1.2-.5-.1 0 0 0 0 .1s.2.1.2.1c-.1 0-.1.1-.1.1-.2.1-.6.8-1.1.2-.1.1 0 0 0 0zm10.3 2c.2 0 .3.1.6.1v.1c0 .1-.3 0-.5 0-.2-.1-.1-.2-.1-.2zm-1.3-1.7c.2 0 .5.1.7.1.1 0 .2-.1.3-.1.2-.1.5-.1.7-.1v.2c0 .1 0 0 .1 0v-.2c.2 0 .5.1.7.2.2 0 .5.1.7.1v.1h-.6c-.1 0-.2 0-.3.1-.3 0-.6-.2-.9 0-.5 0-.9-.2-1.3 0-.2 0-.5-.1-.7-.1h-.3c-.1 0-.2 0-.3-.1h-.6v-.1c0-.1.2-.1.3-.1 0-.1-.1-.1-.1-.2.1 0 .2-.1.3-.1.2.1.3.2.6.3.2.2.5 0 .7 0zm11.9.4c-.1.1-.2.1-.3.1 0 .2-.2.2-.3.1 0-.1-.1-.1-.1-.2.1 0 .2-.1.2-.2.1 0 .2.1.3.1 0 .1 0 .1.2.1zm-.3-1.5c.1 0 .9 0 1 .1-.1.1-.5.1-.7.1h-.3c-.1-.1-.1-.2 0-.2zm2.9-.2c.3 0 .7 0 1 .1v.1h-.6c-.1 0-.2 0-.3.1h-.2c-.1-.3 0-.3.1-.3zm30 2.8c0 .2-.7 0-.7 0h.7zm-3.5-1.8l.7-.1c.5 0 1 .1 1.5 0 .5.1.9.1 1.4.1.1 0 .3 0 .5-.1.1 0 .2 0 .3.1.2 0 .6 0 .8.1 0 .1 0 0 0 0 0 .1-.1.1-.2.1-.2 0-.5-.1-.8-.1-.1 0 0 .1 0 .1h-.1c0 .1-.6-.5-.7 0-.1 0-.1 0-.1.1-.1 0-.3-.1-.5-.1-.3-.1-.7 0-1 0h-.6c-.1 0-.2.1-.3.1-.1 0-.7-.2-.9-.3zm6.3.1l-.1.1c0 .1-.2 0-.2-.1h.3zm0 0c.1 0 .1 0 0 0 .1 0 .1 0 0 0h.3c.2.1-.2.1-.3 0zM66.9 92.5c-.1 0-.2.1-.3.1-.1 0-.7 0-.7-.2s.5-.2.6-.3c0 0 .2.3.4.4zm-2.7-.1c0 .2-.6.3-.7.3 0-.1.1-.2.1-.2.1-.3.3-.2.7-.5h.9c0 .4-.7.4-1 .4zm-2.6.3c0 .1-.8 0-.9 0v-.2c.2.1.5 0 .7 0 .2.1.2.1.2.2zm0 10.4c-.1 0-.1.1-.2.1s-.1-.1-.2-.1c0 .1 0 .1-.1.1-.2 0-.6 0-.8-.1.1 0 .2-.1.2-.2.4 0 .7 0 1.1.2 0-.2 0 0 0 0zm-.9 2c-.1 0 0 0 0 0h-.1c0 .1 0 0-.1 0v-.2c.1.2.1.2.2.2zm-.7-1.6c0 .1 0 .1 0 0l-.1.1h-.1c0-.1.1-.2.2-.3 0 0 .1 0 .2.1-.1 0-.2.1-.2.1zm-.1 2l-.3.1h-.7c-.1 0 0 0 0 0 .1 0 .8-.1.8-.2-.1-.2 0-.2.2.1 0-.1 0 0 0 0zm-1.2-12.6c0-.1.7-.5.8-.5.1 0 .2.1.3.1v.1c-.2 0-.6.2-.8.3h-.3s-.1 0 0 0zm-.4 12.7c-.2.1-.2.1 0 0-.3 0-.6-.1-.8-.1h-.3c0-.1.1-.2.2-.3.3 0 .8.1 1.2.1-.2.1-.3.2-.3.3zm-.7.5h-1.2c0-.1.1-.2.1-.2 0-.1.1-.1.2-.1.3-.1.6-.1.9.3.1-.2 0-.2 0 0zM57 92.8c.3 0 .7 0 .8.5l-.5.1c-.1 0-.2-.1-.2-.2-.2 0-.1-.3-.1-.4zm1 .1c.1 0 .2.1.2.2-.1 0-.2.2-.5.1.1-.2.3-.2.3-.3zm-2.2 13c-.2 0-.5.1-.6 0 .1 0 0 0 0 0h.6zm-.5.4c-.1 0-.3-.1-.5 0h-.6c-.3 0-.6 0-.9-.1 0 0 .3-.2.5-.3.2 0 .3.1.6.2s.6 0 .9 0v.2zm-2.7.2h-2.4v-.2c.3 0 .6 0 .8-.1.6 0 1.2.1 1.6.1 0 0 .2 0 .2.1s-.1.1-.2.1zm-2.9-12.8c0-.1.1-.1.1-.2.5 0 .8 0 1.2.1-.1 0 0 0 0 0-.1 0 0 .1 0 .1-.2 0-.3 0-.6-.1h-.5c-.1.1-.2.1-.2.1zm-.9 12.8c-.3 0-.3-.1-.6-.2 0-.3.3 0 .5 0 0-.1.2-.2.2-.2.2 0 .3 0 .6.2.1.1-.5-.2-.7.2zm2.5-2.9l.6.1c0 .1 0 .1-.1.1h-.7c-.1 0 .1 0 .2-.2zm-.1-10.1s.1 0 .2.1v.2h-.3c0-.1.1-.2.1-.3zm.8 10.3c.1 0 .2-.1.3-.1.2 0 .3 0 .5.1.1 0 0 0 0 0-.1 0-.1 0-.1.1-.2.1-.4 0-.7-.1 0 .1 0 0 0 0zm-4.3.5c-.1 0-.1.1-.2.1H47c0-.1.2-.1.3-.1.1-.1.2-.1.4 0zm-1.9 2.7c-.1 0-.1.1-.2.1H45c0-.1.1-.2.2-.3.3-.1.4-.1.6.2zm-1.9-.3h-.1c0-.1.1-.1.1-.2.3 0 .6.1.9.1-.1.1-.8.1-.9.1zm-13.6.3c-.2 0-.7.3-.8.5-.2 0-.5 0-.7.1-.2 0-1.5-.1-1.5-.2s0-.1.1-.1c.2-.1.6 0 .9 0 .5 0 .9 0 1.3-.2.2-.4.4-.4.7-.1 0-.1 0 0 0 0zm-4.5.4c0 .1-.7.1-.8.1h.1c.2-.3.8-.4.7-.1zm-1.2.4c-.1 0-.1 0-.2.1-.2 0-.6 0-.8-.1v-.1c.1 0 .1 0 .2-.1h.8v.2zm-3.5.3h-.6v-.1c.1 0 .2-.1.2-.1.2 0 .5 0 .7.1 0 0-.3 0-.3.1zm-7.5-10.8c0-.1-.3-.1-.5-.2.1 0 0 0 0 0h.6c.1 0 0 .2-.1.2zm259.3 7h.3c-.1.2-.3.1-.6.1.1 0 .2-.1.3-.1zm23.2 5.3c-.2 0-.6-.2-.8-.2-.3 0-1.8.1-2.1-.2-.1-.1-.8-.1-.9-.1 0 .1-.8 0-.9.1-.2 0-.5-.1-.7-.1 0-.1-.1-.1-.2-.1 0-.2-.5-.2-.6-.2-.1 0-.1.1-.1 0-.3 0-.7.1-1 .1-.2 0-.6-.6-.8-.5-.3 0-1.3-.5-1.5-.2h-.1c0-.1-.2-.2-.3-.5h-.1c0 .1 0 .1-.1.1 0-.1-.2-.1-.3-.1-.1 0-.2 0-.3.1h-.7c-.1 0-.1-.2-.1-.2-.2 0-.5.2-.7 0 0-.1-.7 0-.8 0-.1 0-.1.1-.1.1-.2 0-.5-.1-.6 0-.1 0-.2-.1-.3-.2-.1 0 0 0 0 0 0-.1.1 0 .2 0v-.1c-.3 0-.7-.2-1-.3h-.5c-.2 0-.3-.1-.6-.1h-.5c-.2 0-.5-.2-.8-.2 0 .1-.1.1-.1 0-.3 0-1 0-1.3-.2h-.1c0 .1-.2 0-.2 0 0 .1-.3.1-.3.1h-.1c0-.2-1.2-.3-1.4-.5 0 .1-.6-.1-.7-.1-.1 0-.1.1-.2.1-.2 0-.5-.1-.7-.2-.6 0-1.3.1-1.7-.2.2 0 .5-.1.6-.1h.9c.6 0 1 .1 1.6.1.1 0 .2 0 .3-.1.2 0 .3.1.5.1s.3 0 .6-.1c0-.1-.1-.1-.2-.1h.7s.5.3.6.3c0 .1 0 .1.1.2.2.1.5 0 .7.1.5 0 .9.1 1.3.1.1 0 .2 0 .2-.1v-.1c-.7 0-1.3-.1-2-.1 0-.1.1 0 .1 0 .2 0 .5-.1.7-.1.5 0 .6-.2 1.2-.2.6.1 1.7.3 2.3.3.1 0 .3 0 .5-.1.2 0 .5.1.7.1.1 0 .2 0 .3-.1h.8c.3 0 .8.1 1.2.2.1 0 .2.2.5.2.1 0 .2-.1.5-.1.2 0 .3.1.6.1.3.1.8 0 1 .2.3 0 .7.1 1 .1h.6c-.1 0-.1 0-.1.1v.1h1.3v-.1c-.1 0-.2-.1-.3-.1 0-.1.2-.1.3-.1v-.1c-.2-.2-.7 0-.9-.1-.2-.1-.3-.2-.7-.2-.2 0-.3 0-.6.1h-.7c0-.1.1-.1.1-.2-.1 0-.3 0-.3.1h-.1c0-.1 0 0 .1 0h-.1v.1c-.1 0-.3-.1-.5-.1-.5 0-1.3.1-1.6-.1v-.1h.1v-.1c-.3 0-.5-.1-.9-.1v-.2h-.3l-.7-.1h-.8c-.1 0-.2-.1-.3-.1-.3 0-.7-.1-1.2-.1-.2 0-.3-.1-.6-.2h-.6c-.1-.1-.3-.1-.5-.2h-.7c-.1 0-.2-.1-.5-.1 0 0-.6-.1-.7 0-.2 0-.3 0-.6-.1h-1.4v-.1c0-.1-.2-.1-.3-.1-.3-.1-.7-.1-.9-.1-.2 0-.5-.1-.7-.1h-.8c-.2 0-.3-.1-.6-.2 0 .1-.5 0-.6 0-.3 0-.6 0-.8-.1-.1 0-.2-.1-.5-.2h-.9c-.2 0-.2-.2-.5-.2h-.3c-.3-.1-.8-.1-1.3-.2-.1 0-.1-.1-.1-.2 0-.2.9-.1 1.2-.1v-.2h.1c.1 0 .1.1.2.1s.3.1.5.1h1.2v.1h-.2c0 .1.1.1.1.1.6.1 1.4-.1 1.7.2.3 0 .6.1.9.1h1.5c0-.1-.2-.1-.3-.1-.5 0-.8-.1-1.3-.2-.1 0-.2-.1-.5-.1h-1.4s-.5-.1-.6-.1c0 0-.1-.1-.2-.1-.3 0-.5-.1-.7-.2-.3-.1-.6-.1-.9-.2 0 .1 0 0-.1.1-.2.1-.5 0-.7-.1-.5 0-.9-.1-1.4-.1-.2 0-.5-.1-.7-.1 0-.1 0-.1-.1-.1s-.3 0-.5-.1-.6-.1-.8-.2h-.5c-.2 0-.2-.1-.3 0-.3 0-1-.1-1.4 0h-.6v.2c.7 0 1.3.2 1.8.3h1.2c.3 0 .5.3.8.3.2 0 .3 0 .6-.2h.1c0 .3.8.2 1 .3v.1c-.1 0-.3.1-.5.1h-1.2c-.3-.1-.8-.2-1.2-.3 0 .1-.3.1-.3.2-.1 0-.2-.1-.3-.1-.1 0-.5.1-.6.1-.3 0-1.3-.2-1.4-.3-.1 0 0 0-.1.1-.3 0-.7-.1-.7-.5 0-.1-.1.1-.1.1.1 0-.1.1-.1.1h-.3v-.1c-.1 0 0-.1 0-.2-.2 0-.3 0-.6-.1-.1 0-.1-.1-.2-.2v-.1c.1 0 .2-.1.3-.1.2-.1.5 0 .7.1 0 .1 0 .1-.1.1 0 .1.1 0 .2 0 0-.1 0-.2.2-.3v-.1h-.1c0-.1-.1 0-.1 0h-.1c0-.1-.1-.1-.2-.1 0-.1 0-.2-.1-.3h-.1c-.3 0-.7 0-.9-.1-.1 0-.2-.1-.3-.1h-.7c-.2 0-.3-.1-.6-.1 0-.1.1-.2.1-.3.9 0 2 .2 2.8.5v-.1c.1 0 0 0 0-.1s.3 0 .5 0v.2c.1 0 .1 0 .2-.1.3-.1.8-.2 1.2 0v-.1c0-.1.2 0 .3 0 .2 0 .3.1.6.2.3 0 .6 0 .9.1h.7c.2.1.5.2.6.3h.1c.1 0 .2 0 .3-.1-.1-.1-.2-.1-.3-.2l-.2-.2c-.1-.1-.3-.1-.6-.2 0-.1-.1 0-.1 0 0-.1-.1-.1-.1-.1-.2-.1-.6 0-.9 0-.5 0-.7-.3-1.2-.2 0 0-.6-.1-.8 0-.2 0-.3-.1-.6-.1s-.7 0-1-.1c-.1-.1-.2-.1-.3-.2-.2 0-.3 0-.6-.1-.2 0-.5-.1-.7-.1-.2 0-.3.1-.6.1-.2 0-.3-.1-.5-.2s-.5-.2-.8-.1c-.2 0-.3 0-.6-.1-.3 0-.9 0-1.2-.1V99h.2c.1 0 .2 0 .3.1.1 0 .3.1.2.1 0 .1.1.1.2.1h1.3c.2 0 .6 0 .8.1h.8v-.1h-.3s-.3-.2-.3-.3h-.1s-.3.2-.6-.1c-.5 0-.9-.1-1.4-.1-.1 0 0-.1 0-.2h-1.5c-.1 0-.2-.1-.3-.1 0 .1-.7.1-.8.1h.2v-.1h-1.2s-.2.2-.2.3c0 0 .5.1.6.1v.1h-.3c-.2 0-.5-.1-.7.1-.1 0-.3-.1-.5-.1v-.2h.6c.1 0 0 0 0-.1v-.2c0-.2-.3-.2-.6-.2 0 .1-.6 0-.6.3-.5 0-.6-.5-1-.2 0 .1-.1 0-.1 0-.3-.2-.5-.1-.8-.1-.2 0-.7-.1-.8-.3 0-.1-.2 0-.3 0-1 0-2.1-.1-3-.1v-.2c-.2 0-.8-.1-1 0h-.5c-.1 0-.1-.1-.2 0h-.6c-.3 0-.5-.2-.7-.2-.3 0-.7-.1-.9-.1-.5 0-.9.1-1.4-.1-.1 0 0-.1 0-.2h-.6c-.1 0-.2-.1-.3-.1-.2 0-.6-.1-.7 0h-.3s-.7-.2-.9-.1h-1c-.7-.1-1.3-.2-2-.3h-.6c-.3 0-1-.2-1.4-.2-.1 0-.1-.1-.1-.1h.9v-.2h.3V96h-.8c-.2 0-.7-.2-.9-.1-.3 0-1.2-.1-1.5 0h-.4c0 .1 0 .1.1.1.6.2 1.5-.1 2.1.2v.1c-.1 0-.2.1-.3.1h-1.7c-.3-.1-1.3-.3-1.7-.1-.3 0-.6 0-.7-.2h-.9c-.2 0-.7-.1-.9 0-.6 0-1.2 0-1.7-.1h-1.2c-.1 0-.2-.1-.3-.1h-.8c-.2 0-.7-.1-.9 0h-1.3c-.3 0-.6 0-.8-.1 0-.1 0 0-.1 0 0 .1 0 0-.1 0-.2 0-.3-.1-.5-.1h-.8l-.1-.2v-.1c.1 0 .1 0 .2-.1h.6v-.2h-.1c0 .1-.3 0-.5 0-.8-.1-1.7 0-2.5-.1-.1 0-.2-.1-.3-.2-.2-.1-.5 0-.7 0-.1 0-.3 0-.3.1-.1 0 0 0 0 .1.2 0 .6-.1.9 0 .2.1.2.2.5.2.7.1 1.6-.1 2.3.1v.1c-.1 0-.1.1-.1.2 0-.1-.5.1-.6.1h-.1c0-.1-.6-.2-.7-.2-.1 0-.1.1-.2.1-.2.1-.3 0-.6-.1 0-.1-.9 0-1 0-.2 0-.6-.1-.8.1-.2 0-.3-.1-.6-.1h-1c-.1 0-.2.1-.5.1-.2 0-.9-.2-1-.3v.1c0-.1-.3 0-.3 0 0 .1.2.1.2.2h.1c0 .1-.7 0-.8 0 .1 0 .1 0 .2-.1.1 0-.2-.1-.3-.2 0 0-.3.3-.5.3-.3 0-.8 0-1.2-.1h-.1.2s-.3-.2-.6-.2-.9-.1-1 .3c-.3 0-1.2-.3-1.4-.3-.3 0-.6-.1-.9-.1-.3 0-1.6.1-1.7-.2-.1 0 0 0 0-.1.8 0 1.6-.1 2.3-.1h-.1c0-.1 0 0-.1 0 0 .1 0 0-.1 0 0 .1-.1 0-.1 0-.6-.2-.9-.6-1.6-.2-.1 0-.2-.1-.3-.1-.2 0-.3.1-.6.1-.1 0-.2-.1-.3-.1h-.6c-.2 0-.3.2-.5.2h-.3c0-.1.1-.1.1-.1v-.1c-.1 0-.2 0-.2-.1-.2 0-.3.1-.6 0-.2 0-.6-.2-.8-.1-.2 0-.6-.1-.7.1 0 0 1 .1.6.2 0 .7-.7.2-1 .3h-.9c-.2 0-.5-.1-.7 0h-.6c-.3 0-.9-.2-1.3.1-.3 0-.6-.1-.7-.3 0-.1-.1 0-.1 0h-.3c-.1 0-.2.1-.3.1-.1 0-.6 0-.7-.2v.1h-.7c.2 0 .3-.5.7-.3.1 0 0 0 0 0h-.2.3c0-.1-.1-.1-.1-.1 0-.2.5-.1.6-.1.1 0 .2-.1.3 0h.2c.1 0 .2-.1.3-.1V94c-.2 0-.5-.1-.7 0-.5 0-.9-.1-1.4-.1h-.3c-.3 0-1.3-.2-1.5-.1-.2 0-.5 0-.7-.1 0-.1.2-.2.3-.3.2 0 .3.2.6.2h.9c.1 0 .2-.1.3-.1.1 0 .3 0 .5.1.5 0 .9 0 1.4.1.5 0 .8-.1 1.4-.1.5 0 1 .1 1.5.1.3 0 .8-.1 1.2-.1h2.8c.2 0 .5.1.7.1.5 0 .8-.3 1.3 0 0 .1 0 0 .1 0s.3.1.5.1h.6c.5 0 .8-.1 1.3-.1h1c.5.1.9.2 1.4.2.5 0 .9-.2 1.4-.2.1 0 .3 0 .5.1h.6c.6.1 1.3.2 1.8-.1.1 0 .1.1.1.1.2.1.3.2.6.2h2.1c.2 0 .6.1.8.1.1 0 .3 0 .5-.1h1.5c.2 0 .3.1.6.1s.5-.1.7-.1c.2 0 .3.1.6.1h2.3c.1 0 0 .1 0 .2h.5v-.1c0-.1-.1-.1-.1-.1 0-.1-.1-.1-.1-.2-.1-.1-.3-.1-.6-.1v-.2c-.2 0-.5-.1-.7 0-.3 0-.9-.2-1.3 0h-1.2c-.2 0-.5 0-.6-.1H214c-.2 0-.3-.1-.6-.1-.1 0-.2 0-.5.1-.2 0-.5 0-.6-.1-.1 0-.2.1-.3.1h-.2c-.3 0-1.3-.1-1.5-.3h-.2c-.3-.2-.7 0-1 .1 0 .1 0 0 0 0 0-.1-.1 0-.1 0-.2 0-.3 0-.6-.1-.1-.1-.2-.2-.5-.2-.6-.1-1.4 0-2-.1-.2 0-.6 0-.7-.1-.1 0-.1-.1-.1-.1 0-.1.1 0 .2 0h.8c.5 0 .8-.1 1.3 0v-.1h-.2c0 .1-.9-.3-1-.5v.1c0 .1-.8.2-.9-.1-.2 0-.3.1-.6.2-.2 0-.3 0-.5-.2-.1 0-.2.1-.3.1h-.6v.1c0 .1-.5 0-.6 0h.2c0-.1-.1-.1-.1-.2-.2-.1-.3 0-.6 0-.5 0-1-.1-1.5-.1v.1c.1 0 0 0 0 0 .2 0 .6.1.8.1 0 .1-.1.1-.2.1 0 .2-.1.3-.3.3h-.6c-.6 0-1 0-1.6-.1-.2 0-.5.1-.7.1-.6 0-1.2-.1-1.6 0-.3 0-.5-.3-.8-.3-.2 0-.5.1-.7.1h-1.4s.1-.2.2-.3c.1-.1.3-.1.5-.1-.1 0-.1.1-.1.1h.4-.2V92l.2-.1c.3.1.8.1 1.2 0v-.1c-.2 0-.3-.1-.6 0-1.2 0-2.2-.1-3.3-.2 0 .1-.5.1-.3.1-.1 0-.1-.1-.2-.2-.1 0-.2-.1-.3-.1 0 .1-.6.2-.8.3-.2 0-.3-.1-.6-.1-.2 0-.6.1-.8 0h-.6c-.3 0-.9-.2-1.3 0-.2 0-.3 0-.3.2.3 0 1.5 0 1.7.1-.1 0-.1 0-.2.1-.1 0-.1-.1-.2-.1 0-.1 0 0 0 0 0 .1-.2.1-.2.1-.3 0-.6-.1-.9-.1-.2 0-.3.1-.5.1s-.2 0-.3.1c-.5.1-.6.2-.9-.2v.1c.1 0 0 .1 0 .1h-.1c-.1 0-.2.1-.2.1-.2 0-.5-.1-.7-.2-.1-.1-.1-.1-.3-.2v-.1c.1 0 .1-.1.1-.1v-.1c-.2-.1-.5-.1-.6-.2-.5-.1-.8 0-1.3 0-.2 0-.5-.1-.7 0h-.8c-.1 0-.1 0-.1.1s.1.1.1.1c.8.2 1.7.1 2.6.1v.1c0 .1-.2.1-.2.1h-1.2c-.1 0-.2.1-.3.2-.1.1-.3 0-.5 0 0-.3-.7-.2-.9-.3-.2 0-.6-.2-.8 0-.1 0-.7-.2-.6 0-.2 0-.5-.1-.7-.1-.2 0-.3 0-.5.1-.2 0-.6 0-.7-.1.2 0 .5-.1.7-.1 0-.2-.2-.1-.3-.1 0-.1-.1-.1-.2-.1 0 .1 0 0 0 0 0 .1-.1 0-.1 0-.1 0-.2-.2-.5-.2-.1 0-.1.2-.2.2-.2.1-.6 0-.8 0 0-.1-.1-.1-.1-.2-.7-.5-1.2 0-1.8 0h-.6v-.2c-.1 0-.3.2-.3.3 0 .1-.1 0-.2 0h-.6c-.5-.1-1-.2-1.4 0-.2 0-.5-.1-.6-.1h-.9c-.2 0-.3-.1-.5 0-.7 0-1.4.1-2.1 0v.1c.1 0 .2.1.2.1.3.1.7.1 1 .1-.3.1-.3 0-.6.3-.1 0-.2-.1-.2-.2-.1 0-.3.2-.5.2h-.6c-.3 0-.6.1-.8.1h-.5c.1 0 .1-.1.2-.1s0-.3-.1-.5c0-.1-.8-.1-.9-.1-.3 0-.7-.2-1 0-.3 0-.8 0-1.2-.1 0 .1-.1.1-.2.1h-.2c-.3 0-1-.1-1.3 0h-1c0-.1 0 0 0 0 0 .1-.2.2-.3.2 0-.1-.7-.5-.8-.5.1 0 .2-.1.3-.1.2 0 1.2-.2 1.3-.1 0 .1.2 0 .3 0 .2 0 .3.1.6.1.2-.1.5-.2.8-.2.3 0 .6.2.9.2.1 0 .2-.1.3-.2.1 0 .2 0 .3-.1.1.1.1.1.2.1.2.1.6.1.8 0 .1 0 .2-.1.5-.2.3 0 .8 0 1.2.1h.7c.2 0 .3 0 .6.1.1 0 .1.1.3.1.3 0 .3-.3.8-.1 0 .1 0 0 0 0 0 .1 0 0-.1 0 0 .1 0 0 0 0h.3c.1 0 .2.1.2.1.2 0 .3-.1.6 0 .1 0 .2.1.5.1h.7c.2 0 .3-.1.6-.1v-.2c.3 0 1-.2 1.3.1h.6c.6 0 .7 0 1.2.1 0-.1 0 0 0 0 0-.2.3-.3.5-.3s.2 0 .3-.1c.1 0 .2.1.2.1.2 0 .5.1.7.1.2.1.6.2.8.3.2 0 .3-.2.5-.2.3-.1.8-.2 1.2-.2l.3.1c.6 0 1-.2 1.3.3 0 .1.1.1.2.1h.1c-.1 0-.1 0-.1-.1h.9c.1 0 .1-.1.2-.2.2 0 .5-.1.6-.1h.1v.1c-.1 0-.1.1-.2.1v.1c.1 0 0 0 0 0h.7v-.1c.2-.1.3 0 .6 0s.5-.1.7-.1c.1 0 .2.1.3.1.2 0 .3 0 .6.1.5.1.9.2 1.4.2.5 0 .6-.2 1-.2 0-.1 0-.1-.1-.1 0-.1.2 0 .3 0 0 .1 0 .1-.1.1v.1h.2c0 .1.1.1.2.2.3.2.8.1 1.2.1h1.6c.1 0 .3.1.5.1s.1-.2.1-.2c-.1 0-.1 0-.2-.1.1 0 .3-.1.5-.1s.2.1.3.1c.1 0 .3.1.5.1s.1.1.2.1.2.1.3.1l.3.3c.1 0 .2-.1.3-.1.1 0 .1.1.2.2.2 0 .3 0 .6-.1-.1 0-.2-.2-.3-.2 0-.1.3-.1.5-.1.3 0 .6.1.9.1.5 0 .8-.1 1.3-.1.1 0 .3 0 .5.1h.5c.2 0 .2 0 .3.1h.9v.1c0 .1-.2.1-.2.1s.1.2.5 0 .7-.1 1.2-.1c.2 0 .5-.1.8-.1h.8c.1 0 .2 0 .3-.1h.5c.1 0 .3-.1.6-.1s.5.1.7.1c.3 0 .6-.1.9 0 .2 0 .5.1.7 0 0-.1 0-.1-.1-.1-.6-.2-1.5-.1-2.2-.1-.2 0-.6-.1-.8 0-.2 0-.3-.2-.6-.2h-.7c-.2 0-.3-.1-.6-.1h-1.7c-.1 0-.2.1-.3.1h-.5c-.3 0-.6-.1-.9-.1-1.2 0-2.3-.1-3.5-.1h-.6c-.1 0-.3 0-.5-.1-.7 0-1.5-.1-2.1 0-.1 0-.3.1-.5.2-.3 0-.6-.1-.9-.2h-.7c-.1 0-.3 0-.5-.1l-3-.1h-2.9c-.2 0-.2-.1-.5-.1h-1.6v.1h-1.7c-.2 0-.3 0-.6.1-.1 0-.5-.1-.6 0h-.6c-.2 0-.5-.1-.7-.1h-1.8c-.1 0-.3 0-.5.1-.2 0-.5 0-.7.1-.7 0-1.2-.2-1.8-.2h-.5c-.5 0-.8 0-1.3.1h-.3c-.2 0-.6-.1-.8-.1h-2.1c-.2 0-.6-.1-.7 0-.2 0-.5-.1-.7 0h-2.6c-.3 0-.8-.1-1.2 0-.3 0-.7-.1-1 0-.2 0-.8-.1-1-.1h-.3c-.5 0-2-.1-2.3 0h-2.4c0-.1 0 0 0 0 0 .1 0 0 0 0-.5.1-.9 0-1.3.2h-.5c0-.1.1-.1.1-.1v-.1c-.3 0-1.2-.1-1.4.1h-.1c0-.2-.5-.1-.5 0h-.2c-.1-.2-.7-.1-.8 0 0 .1-.8 0-.9 0h-.8c-.3 0-.6.1-.8.1h-.3c-.1 0-.3 0-.3.1-.2 0-.5-.2-.7-.2v-.2c-.2 0-.5 0-.7.1-.3 0-.6.1-.9 0-.7 0-1.5-.1-2.2-.1-.3 0-.6.1-.9.1h-2.9c-.1 0-.1 0-.2.1.1 0 0 0 0 0-.1 0-.1 0-.2-.1h-.1c0 .1-.1.1-.1.1-.5 0-1.7-.1-2 0h-1c-.2 0-.3 0-.6.1h-1.5c-.5 0-1-.1-1.4.1h-.2.3v-.1c-.2 0-.5 0-.6.1-.3 0-.6-.1-.9-.1h-.5c-.3 0-.9-.1-1.2 0h-2.1c-.2 0-.3 0-.6.1h-2.4c-.1 0-.2.1-.3.1h-4.1c-.5 0-1-.1-1.4.1-.3 0-.8-.1-1 0-.1 0-.3 0-.5.1 0-.2-.5-.2-.6 0h-2.9c-.2 0-.6.1-.7 0-.1 0-.1 0-.1.1-.1 0-.2-.1-.3 0h-.1c0-.1-.3-.1-.5-.1 0 .1.2.1.2.1 0 .1 0 .1-.1.2 0-.1 0 0-.1 0s-.2.1-.3.1c-.2 0-.6-.1-.8-.2 0 .1-.6.1-.6.1 0 .1-.7-.1-.8 0-.3 0-1.3-.1-1.6 0-.2 0-.9 0-1.2.1-.3 0-.8-.1-1.2.1-.6 0-.9.1-1.5.1v.1c0 .1 0 0 0 0h-3c-.2 0-.5 0-.7.1-.2 0-.7-.1-.9.1.1 0 0 0 0 0-.1 0-.1 0-.2-.1 0 .3-1.8-.1-1.5.5-.1 0-.2.1-.2.2-.3 0-.8 0-1 .1 0 .1-.1 0-.2 0 0 .1-.5 0-.6.3-.1 0-.2-.1-.3-.1 0 .3-.7-.2-.7-.3 0-.1.1 0 .2 0 .7 0 1.4.1 2.1 0 .1 0 0-.1-.1-.1-.3-.2-1.3-.2-1.7-.1h-.2c-.2 0-.5-.1-.7 0-.2 0-.3.1-.6.1h-.6c-.1 0-.2.1-.3.1-.2 0-.6 0-.7.2-.1 0-.5-.1-.6-.2-.3-.1-1.2-.1-1.5 0-.3 0-1.6-.1-1.7.1-.1 0-.1 0-.2-.1h-.1l-.1.1c-.1 0-.1-.1-.1-.1h-.1v.1c-.2 0-.6.1-.8.1-.2 0-.5-.1-.7 0-.5 0-.8.1-1.2.1-.3 0-.8-.1-1.2-.1-.2 0-.5.1-.7.1-.2 0-.5 0-.7.1-.3 0-1.3-.1-1.5 0h-.3c0 .1 0 0 0 0 0-.1 0 0-.1 0-.3.1-.8.1-1.2.1h-.8c-.1 0-.1.1-.2.1-.2 0-.6.1-.8.1h-1.3c-.2 0-.3.1-.6.1-.5 0-1-.1-1.5.1-.1 0-.3 0-.5.1-.3 0-.7 0-.9-.1 0 .1 0 0 0 0-.6.1-1.3 0-1.7.1h-.3c-.2 0-.5 0-.6.1H66c-.1 0-.2.1-.3.1h-.5s-.3 0-.2.1h-.2c-.2-.1-.1-.2-.5-.1-.1 0 0 .1 0 .1-.3 0-.7 0-1 .1h-.2c-.2 0-.5 0-.6.1 0 .1-.1 0-.2 0-.6 0-1.2-.1-1.6.1-.3 0-.7-.1-.9 0-.3 0-.6-.1-.9-.1-.3 0-.6 0-.8.1h-.9c0-.1 0 0 0 0 0 .1-.2.1-.3.1-.6 0-1 0-1.5.1-.2 0-.3.1-.5.1-.3 0-1.8-.1-2 .1-.1 0-.1 0-.2-.1 0 .1-.3.1-.3.2h-1c-.1 0-.3.1-.5.1h-.5c-.2 0-.2.1-.5.1h-1.7c-.1 0-.2 0-.3.1h-.7c-.1 0-.2.1-.5.1-.5 0-.9-.1-1.3 0 0 .1-.8.1-1 .1 0 .1-.2.1-.3.1h-.9c-.1 0-.2.1-.3.1-.1 0-.3 0-.5.1-.1 0-.2.1-.2.1-.2 0-.5 0-.7.1h-1.3c-.3 0-.3.1-.5.1s-.8-.1-1 0h-.8c-.1 0-.2.1-.3.1h-.7c-.2 0-.3.1-.6.1-.7 0-1.3-.1-1.8.2-.2 0-.6 0-.8.1-.3 0-.6 0-.8.1h-.6c-.3 0-.8.1-1.2.2h-.3c-.3 0-.6-.1-.9 0-.2 0-.9 0-1.2.1h-.3c-.2 0-.3 0-.6.1-.3 0-.6 0-.9.1-.1 0-.2.1-.3.1-.2 0-.5.1-.7.1h-.3c0 .1 0 0 0 0 0-.1-.1 0-.1 0-.3 0-.6.1-.9.2h-1.2c-.1 0-.2.1-.3.1-.2 0-.3.1-.6.1s-.7-.1-.9.1h-.3c-.1 0-.2 0-.3.1-.3 0-1.2.1-1.4.3-.2 0-.5 0-.7.1h-.5c-.2 0-.3.2-.6.2s-.6-.1-.9-.1c-.1 0 0 0 0-.1.3 0 .8-.1 1-.3 0-.1 1-.1 1.3-.1 0-.1-.1-.1-.1-.1v-.1c.1 0 .1 0 .1-.1-.1 0-.1 0-.2.1-.9 0-1.6.2-2.4.3-.3.1-.6.1-.8.2-.3 0-.7 0-.9.1-.2.1-.3.1-.6.2-.3 0-.8.1-1 .2-.2 0-.3.1-.6.1h-.8l-.1.1c-.5 0-.9.2-1.4.2 0 .1.1.2.2.3 0 0-.7.5-.8.6-.3 0-.7 0-.9.2 0 .1-.1 0-.2 0H6.8c0 .1-.3.1-.3.2 0 0-.5.2-.5.5 0 .7 1.3.1 1.5.1.2 0 .5.1.6.2.1 0 0 .1 0 .1-.1 0-.1.1-.2.2 0 0-.3.2-.5.3-.1 0 0 0 0 .1s.1.1.1.1l-.1.5h-.2v.2c.2 0 .5 0 .6.1v.2c-.2 0-.5 0-.6.1 0 .1-.2 0-.1.2 0 .2.9 0 1.2.3v.1c-.1.1-.3.1-.5.1-.2.1-.6.3-.7.5 0 .1-.1 0-.1.1-.5.1-.8.7-1.2.9 0 .1.1.1.1.2.1 0 0 .1 0 .2h-.2c-.1.1-.7.6-.7.7-.1.2-.1.3-.2.5 0 .1.2.2.3.2 0 .1 0 .1.1.1.2.3.5 0 .8 0 .2 0 .3.2.6.2.1 0 0 .2 0 .3 0 .1 0 .3.1.5s1.5.2 1.6.2c0 .1.3.2.5.2 0 .1 0 0 0 0 0-.1 0-.1.1-.1 0 .1.2.1.2.2.1 0 0 .1 0 .2.1 0 .2.1.3.2-.1 0-.2 0-.3.1 0 .1.2.2.3.2 0 .2-.6.2-.7.2h-.1c0 .2-.3.2-.5.3-.2 0-.5.2-.7.5-.3.5-.5 1.6.1 2.1 0 .1 0 .1-.1.1.1 0 .2.1.3.1h.6v-.1c.1 0 .1.1.2.1h.3v-.1h.9c.2-.1.5-.1.7-.2h.6c.2 0 .6-.1.8-.1.2 0 .5 0 .6-.1 0-.1.2 0 .2 0 .7 0 1.6.2 2.1-.2 0-.1.6 0 .7 0 .6 0 .9-.1 1.4-.2h.7c.1 0 .2-.1.5-.1.2-.1.5 0 .7-.1.2 0 .5-.1.7-.1h1.4v-.1c0-.1.1 0 .2 0h.9c.1 0 .3-.1.5-.2h.7c.7 0 1.3-.1 2-.2h.6c.1 0 .3-.1.5-.1h.6c.1 0 .2-.1.3-.1h.7c.1 0 .3 0 .5-.1h1.4v-.2H31c.6-.1 1.2-.2 1.7-.3.5 0 .9 0 1.4-.1.1 0 .2-.1.5-.1h1.2c.4 0 .7-.1 1.2-.1v-.2h.9c.2 0 .6-.1.8-.1v-.1c0-.1.6 0 .7 0 0 .2.2.2.3.2 0-.2.3-.1.5-.1h1.6c.1 0 .3-.1.5-.1s.3 0 .6-.1c.8 0 1.5 0 2.3-.2.1 0 .3-.3.5 0 .2 0 .3-.1.6-.1h1.2c.2 0 .5-.1.8-.1v-.1l-.2-.1.6.1h.8c.1 0 .3 0 .5-.1h.8c.5-.1.9-.1 1.5-.2h1.3c.2 0 .3-.1.5-.2h1.2c.2 0 .5 0 .7.1.3 0 .6-.1.9-.1v-.1c0-.1.1 0 .1 0h.5c.3 0 .7.1 1-.1 0-.1-.1-.1-.1-.2v-.1h.7c0 .1 0 .1.1.2.3 0 .6-.1.8-.1.6 0 .9.1 1.4-.3 0-.1.1 0 .1 0h1.6c-.1.1 0 0 .1.1.2 0 .5-.1.8-.1v-.1c-.1 0-.2-.1-.3-.1-.1 0 0 0 0 0 .1 0 .1-.1.2-.1.2 0 .3.1.6.1h.8v.1c-.1 0-.2 0-.3.1-.2 0-.3-.1-.6 0v.1h1.2v-.2c0-.1 1.2-.1 1.4-.1.1 0 0-.1.1-.1h.3c.1 0 .2.1.3.1h.6c.1 0 0-.2 0-.2 0-.1.1 0 .2 0h.9c.1 0 .2.1.3.1h.6c0-.1-.3-.2-.5-.2-.1 0-.2-.1-.3-.1 0-.1.1-.1.1-.1v-.1c0-.1 0-.1-.1-.1-.3-.1-1.3-.1-1.5.1 0 .1.2 0 .2.2 0 0-.2-.1-.3-.1 0-.1-.1-.1-.1-.2h.8c.1 0 .2-.1.3-.1.3 0 .9.5 1.2 0 .1 0 .2.1.3.1v-.3c0-.1 0 0 .1 0 .5 0 1.6-.2 1.8.1h-.1c-.2 0-.5 0-.7.2h-.3c-.2 0-.3 0-.6.1 0 .1.1.1 0 .2.3 0 .7 0 1 .1v-.2h.1v.2l.1-.1c.1-.1.5-.2.7-.1.1 0 .1.1.2.1.2 0 .3-.1.6-.1.1 0 0-.1 0-.1h.2v.2h.2c0-.1.1-.1.2-.2.5-.2 1 0 1.5 0 .2 0 .6 0 .8-.1.5 0 .8 0 1.3-.1 0 0 .3.1.5.1.6 0 1 0 1.6-.1.2 0 .3-.1.6-.1.6-.1 2.3.2 2.5-.1h.1c0 .1.1.1.1.1.3.2 1 .1 1.4 0 .1 0 .2-.1.3-.1.1 0 .2 0 .3.1 0 .1.2 0 .2 0 .2 0 .3.1.6 0 .1 0 .2-.1.3-.1h1.6v-.2h.2v.2h.1c0-.3 1.6.1 1.8-.3h3.2c0-.1-.2-.1-.3-.2 0-.1 0 0-.1 0v-.1h.3c.1 0 .2-.1.3-.1 0-.1 0 0 .1 0 0 .1.1.1.1.2.3.1.7 0 1 0 .3 0 .7.1 1 .1h3v-.1c-.1 0-.2-.1-.2-.1 0-.3 1.2 0 1.2 0 0 .1-.2 0-.3.1h-.3c.3.1.6 0 .8 0h.8v-.1h-.2v-.1h3.1s.2-.3.3-.1c0 0-.1.1-.1.2.2 0 .2 0 .3-.1h.1c0 .1.1.1.2.1.2 0 .2-.1.5-.2h.9v.2h.1v-.1c0-.1 0 0 .1 0h1.3c0-.2-.7-.2-.8-.2v-.1h.3c.3 0 .7 0 1 .1v.1c-.1 0-.1 0-.2.1v.1h.6c.1 0 .2 0 .3.1.1 0 .2 0 .3-.1.5 0 .9 0 1.4-.1.2 0 .5 0 .7-.1 0-.1 0 0 .1 0h.5c.1 0 .2.1.2.1.1 0 .2-.1.3-.1 0-.1-.1-.1-.1-.1s.6-.1.7-.1c0 .1.1 0 .1 0v.1c-.1 0-.1 0-.2.1v.2c.1 0 .1-.1.1-.1.1 0 .2.1.3.1.2.1.6 0 .7-.1 0-.1-.1-.2-.2-.2 0-.3 1 .1 1-.3 0-.1.2 0 .2 0v.2h.9c.1 0 .3 0 .5.1.2 0 .5-.1.8 0 .5 0 .8.1 1.2 0 .1 0 0-.1 0-.2s.1 0 .2 0h2c0 .1-.1.1-.2.2 0 .1.1 0 .2 0h2.4c0-.1 0-.1-.1-.2.2 0 .5 0 .6.1h1.4c.3 0 .6.1.9 0v-.1c-.2 0-.3 0-.6-.1H123c-.2 0-.3 0-.5-.1-.1 0 0 0 0 0 .1 0 .2-.1.3-.1.2 0 .3.1.6.1h1.5c.2 0 .5.1.7.1.2 0 .6-.1.7.1-.3 0-.6 0-.9.1v.1c.1 0 .2 0 .3.1h1.4c.5-.1.5-.3.9-.3-.1 0-.1.1-.2.1 0 .3 1.2-.1 1.4-.1 0-.1 0-.1-.1-.2h.5v.1h-.2c0 .1.2 0 .3 0v.1h-.5v.1h.6c0-.3.6-.2.8-.2.1 0 .2 0 .3-.1 0-.1-.2-.1-.2-.2v-.1c.5 0 1 0 1.5.1 0 .1-.2.1-.2.1-.1 0 0 0 0 .1.1 0 .2.1.3.1h1c.1 0 .2 0 .3-.1h1.5c.2 0 .5.1.8.1.6 0 1.2 0 1.7-.1v-.1c-.5 0-.8-.1-1.3-.1h.8c.2 0 .5 0 .7.1h-.2c0 .1.2.1.2.1.2.1.6 0 .8 0 .3 0 .6.1.9.1.1 0 .3-.1.5-.1h.6c.1 0 .2-.1.5-.1-.1 0 0 0 0 0h.2v-.2c.3 0 1.2 0 1.3.2.1 0 .3-.1.5-.2 0-.1-.1-.1-.1-.1 0-.1 0-.1.1-.2 0-.1-.2 0-.2 0v-.2c.1 0 .5.3.7.5v.1c-.1 0 0 0 0 .1h-.1c0 .1 0 0 0 0 .5.1 1 .1 1.6.1.6 0 1.2 0 1.6-.1 0-.1-.5 0-.6 0v-.1c.2 0 .5 0 .7.1h2.1c.6 0 1.7.2 2.2 0-.3 0-.8 0-1.2-.1h-.1v-.1c.2 0 .5-.1.7-.1h.5c.2 0 .2 0 .3-.1.3 0 .7 0 1 .2v-.1c0-.1.2 0 .3 0h-.1c.3 0 .5.1.8.1v.1c-.1 0-.2 0-.3.1 0 .1.5.1.6.1v-.2c.1 0 .2.1.3.2.3.1.7.2 1 .1v-.1c-.3 0-.5.2-.8 0-.1 0 0-.1 0-.2h-.3c-.3 0-.7 0-.9-.1.2 0 .5-.3.7-.1.1 0 .2 0 .2-.1.2 0 .9 0 1.2.1.1 0 .1.1.1.1h-.1c0-.1-.1 0-.1.1h.6v.1c.1 0 .1 0 .1.1h.1l.9-.1c.3 0 .6 0 .9-.1 0 .1-.2.1-.2.1 0 .1.7.1.8.1v-.1c0-.1-.1-.1-.1-.1v-.1c.1 0 .2-.1.2-.2.1 0 .1.1.2.1v-.1h1.5v.1h-.1.1c0 .1.1.1.1.1.6 0 2.3-.1 2.6.3 0 .1 0 0 .1 0 .5 0 .9.1 1.4.1.1 0 .3 0 .5-.1v-.1c-.2 0-.6-.1-.8-.1-.1 0 0 0 0-.1.3 0 .9-.1 1 .2.1 0 .1-.1.2-.1 0 0 .5-.1.6-.1v-.1c0-.1-.3 0-.3 0h-.4v-.1h.3c.2 0 .3 0 .6.1.5 0 .7-.1 1.2 0v.1c-.1 0-.1 0-.1.1v.1h.3c0-.1-.1-.1-.1-.1v-.1c.2 0 .5-.1.7-.1.3 0 .6.1.9.1.2 0 .8-.1.6.2-.2 0-.5 0-.6-.1-.2 0-.5 0-.7.1 0 .1.1.1.1.1.2.1.5 0 .7 0 .5 0 1.5-.1 1.8.2 0 .1.1.1.1.1.2.1.5 0 .8 0 .2 0 .5.1.7.1.2 0 .2-.2.5-.2.2 0 .5.1.7.1.2 0 .3-.1.6-.2v-.2h-.3.3c.1 0 .2 0 .3-.1h1.1c.1 0 0 0 0 0 .3 0 .6-.2.8-.2h.5c.2 0 .1.1.2.2-.1 0-.1.1-.2.1-.2 0-.5-.1-.7 0-.1 0 0 .1.1.1.2.1.3.1.6.2h.6c.2 0 .6.1.8.1h.6v-.1h-1.4c0-.7 1.6-.3 2-.1 0 .1-.3.1-.5.1 0 .1.7.1.9.1v-.1c-.1 0-.2-.1-.3-.1-.1 0 0 0 0 0 .1 0 0 0 0 0 .1 0 .2-.1.3-.1.2 0 .5.1.7.1.2 0 .3-.1.5-.1s.3.1.6.1h.9v-.1c0-.1.2 0 .3 0 .2 0 .5.1.7.1.1 0 .2-.1.3-.1h.3c.1 0 .2 0 .3-.1.2 0 .3.1.6.1h.3c.1 0 .2.1.2.2.3 0 .7.1 1 .1.3 0 .7 0 1.2-.1 0-.1-.1-.1-.1-.2.3 0 .7-.1 1 0 .2.1.5.1.7.2.2 0 .5-.1.7-.1 0 .1 0 .1-.1.1.2 0 .3.1.6.1-.1 0 0 0 0 0-.1 0 0 0 0 0h-.2c0 .1 0 0-.1 0 0 .1 0 0 .1.1.6.1 1.3.1 1.8.1.3 0 .7.1.9 0-.1 0-.6-.1-.5-.2.1-.1.3-.1.6-.2 0 .1 0 .1.1.1.2 0 .5 0 .6.1.1 0 .3.1.5.1 0 0 .1 0 .1-.1h.5c0 .1 0 0-.1.1-.1 0 0 .1 0 .1h.3c.3-.1.7-.1 1-.2.1 0 .2-.1.3-.1h.6c.3 0 .7-.1 1-.1 0-.1 0-.1.1-.1.2-.1.6.1.8.1.3 0 .7.1 1 .1h.5c.3 0 .8.1 1.2 0 .1 0 .1-.1.2-.2h.2c.1 0 0 .1 0 .2.2 0 .5-.1.6-.1.2.1.3.1.6.2s.7 0 1.2 0l.5.1h.3c.3 0 .6.1.9.1.2 0 .5 0 .7-.1.2-.1.3-.1.7-.1h.7c.1 0 .3.1.5.1.8.1 1.5.1 2.3.1.2 0 .6 0 .9-.1.2 0 .5-.1.8-.1.3 0 .5.1.8.2h.7c.1 0 .3 0 .5.1.2 0 .3-.1.6-.2.2-.1.3 0 .6 0 .1 0 .2-.1.3-.1v-.2c0 .1.1.1.1.2v-.2c0-.1.6 0 .8 0h-.2v.1c.2 0 .7-.1.9.1h-.2v.2c.3 0 .5 0 .8-.1-.1 0-.2-.1-.3-.1h1c0 .1-.2.1-.3.1 0 .1 0 0 0 0 .1 0 .2 0 .2.1h.6c0-.1-.1-.1-.1-.2 0-.3.7-.1.8 0h.3c0 .1 0 .1-.1.1.1 0 .2.1.3 0h.1l-.1-.2.8.1c.1 0 .2 0 .3.1.1 0 .2-.1.3-.1.2 0 .5.1.7.1h.6c.3 0 .3.1.6.1.1 0 .2-.1.5-.1.2 0 .3.1.6.1.3.1.7.1 1 .1h.9c.7 0 1.4.1 2.2.1h.1s0 .1-.1.1c0 .1.3.1.5.1 0-.1 0-.1.1-.2.2-.1 1.7 0 1.8.1h-.2c0 .1 0 .1-.1.1.6 0 1.3 0 1.8.1.1 0 .2.2.5.2.1 0 .2 0 .3-.1h.7c.2 0 .3.1.6.1h.7c.3 0 .7.1 1 0 .1 0-.1-.1-.2-.1v-.1h.6v.1h-.2v.1c.1 0 .1 0 .2.1.5 0 1 .1 1.5.1 1.2 0 2.3 0 3.3.1.2 0 .3.2.6.2h.6c0-.1 0-.1-.1-.1 0-.1-.2 0-.2 0 .1 0 .2 0 .3-.1h.6c.3 0 .6-.1.9 0 0 .1 0 .1-.1.1v.1h.6c.1 0 .2-.1.2-.1.2 0 .5.1.8.1l.7-.1h.8v-.1h.7v.1h-.1c0 .1-.1 0-.2 0h-.2c0 .1.8.1.9.1.1 0 .2.1.2.1s0-.1.1-.1c.3 0 .6.1.9.1.2 0 .5-.1.7-.1h.7c.3 0 .8-.2 1.2-.2.2 0 .5 0 .7.1.6.1 1.2.3 1.7.1-.1-.2-1-.2-1.2-.2v-.1c.1 0 .1 0 .1-.1h.6c.3 0 .3-.1.6-.1s.5.1.7.1c.3.1.7.2.9.3 0-.1.6-.1.7-.1v.1h-.1c0 .1.1.1.2.1.2 0 1.2 0 1.3.2-.1.1-.3 0-.5 0 0 .1-.8 0-.8.1 0 0 0 .1.1.1.3 0 .6.1.8.1h.5c.2 0 .1 0 .1.1.2 0 .5.1.7.1.3 0 .8-.1 1.2 0 .2 0 .3.2.7.2.5 0 1 0 1.6.1.2 0 .5.2.7.2.1 0 .1-.1.2-.1 0-.1.3 0 .5 0h1.8c.2 0 .3-.1.6-.1.1 0 .3.1.5.1h.6c0 .2-.2.1-.2.2.1.1.5 0 .6-.1v-.1h-.3c0-.1.5 0 .6.1.5.1.8.1 1.3.2.2 0 .5.1.7.1h.2c.1 0 .2.1.3.1.2 0 .3-.1.6-.1.2 0 .3.2.7.2.3 0 .8 0 1.2.1v.1c0 .1 0 0 .1 0 .2 0 .3 0 .6.1h.7c0-.1-.1-.1-.2-.1v-.1h.5-.1c-.1 0 0 0 0 .1h.9v-.1h-.6 1c.3 0 .8.1 1 0 .1 0 0-.1 0-.2-.1 0-.3.1-.5.1s-.3 0-.5-.1h-1.1v-.1c0-.2.8 0 .9 0 .1 0 .2 0 .3-.1h-.1v-.1c.2 0 1 .3 1.3.5.1.1.2.2.5.3 0-.1 0-.1-.1-.1h.2c.1 0 0 .1 0 .2s.1 0 .1 0c0-.1 0-.1.1-.2 0-.1.2 0 .3 0v.3c-.1 0-.2 0-.2.1s0 .1.1.2c-.1 0-.2.1-.2.2s.3.1.3.1v-.2c.1 0 .1.1.2.1.1.1.2.1.5.1 0 .1-.1.1-.2.1v.1c0 .1.3 0 .5 0h.6c.3 0 .6.1.9.2h.8c.5.1.9.1 1.4.1 0-.1-.8-.1-.9-.1 0 0 .1-.1.1-.2-.2-.1-.6-.1-.8-.2 0-.1 0-.1-.1-.2 0-.1-.1 0-.2 0 0-.1-.1-.1-.1-.1 0-.1.1-.1.1-.2.2-.1.5.1.7.1h.6c.3 0 .3.1.6.1.1 0 .2.1.3.1.2 0 .5-.1.6-.1.1.1.2.1.5.1.5.1.9.1 1.4.2 0 .1.6.2.7.2v.1c-.1 0-.1 0-.2.1-.2 0-.5 0-.6.1 0 .5.9.3 1.3.3v.1c0 .1-.1.1-.2.1h-.7v.1c.3 0 1.4 0 1.6.2h-.1c0 .1-.2.1-.3.1h-.1 1.2c.1 0 .1-.3.5-.2v.2c.1 0 .1-.1.2-.1h.5-.1c0 .1.2 0 .2 0h.3c.1 0 .3 0 .5.1h1.7v-.1c-.2 0-.3-.1-.6-.1v-.1c.3 0 .6-.1.8-.1.1 0 .2.1.3.1v.1c-.1 0 0 0 0 .1-.1 0 0 .1 0 .1.7 0 3 .2 3.6 0 0 0 .1.1.1 0 .1 0 0-.1.1-.1 0 .5.2.3.6.2-1.9-1-1.9-1.2-1.9-1.3zM327.6 64h1.2c.7-.1.9-.6.9-1 0-1-1-1-1.4-1-.9 0-.9.1-.9.9v1.2h.2V64zm1.2-3c.7 0 1.3 0 1.7.3.6.3 1 .9 1 1.6 0 1-.7 1.6-1.7 1.8.6.2.7.9.8 1.3l.1.7c.1.5.2.7.3.7.1 0 .3-.1.5-.9l.8.1c-.2.8-.5 2.2-1.6 2.2-1 0-1.3-1-1.6-2.2-.2-1-.3-1.5-1.2-1.6h-.2v2.2c0 .6.1.6.8.7v.8h-3.3v-.8c.3 0 .6-.1.7-.2.1-.1.1-.1.1-.8v-4.4c0-.6 0-.7-.8-.7v-.9h1.6l2 .1zm-.4-1.6c-3.1 0-5.5 2.5-5.5 5.5 0 3.1 2.4 5.5 5.4 5.5 3.1 0 5.5-2.4 5.5-5.5 0-2.9-2.3-5.5-5.4-5.5zm-.1 11.5c-3.1 0-6-2.4-6-6.1 0-3.5 2.8-6.1 6-6.1 3.5 0 6.1 2.8 6 6.1.1 3.5-2.6 6.1-6 6.1z"/></g></symbol><symbol viewBox="0 0 249 199" id="icon-client-logo-sanofi" xmlns="http://www.w3.org/2000/svg"><g fill-rule="nonzero"><path d="M241.5 198.1h6.7v-48.4h-6.7zM165.1 149.269c13.6 0 24.4 10.7 24.4 24.4 0 13.4-11.1 24.2-24.4 24.2-13.5 0-24.5-10.8-24.5-24.2-.1-13.6 10.8-24.4 24.5-24.4m-.3 6.4c-9.6 0-17.2 7.9-17.2 18 0 9.8 7.7 17.6 17.4 17.6s17.4-7.8 17.4-17.6c0-10.2-7.4-18-17.6-18m-147.8-.6c-4.4 0-8.2 3-7.7 7.6.2 2 1.2 3.1 3.1 4.4.5.3 1.6.8 3 1.3s3.1 1 4.7 1.6c3.5 1.2 6.9 2.5 8.5 4 2.5 2.4 4 5.4 4 9.1 0 9-7.3 15.1-15.9 15.1-8.8 0-16-6-16.2-14.6h6.8c.9 6 4.7 8.6 9.4 8.6 4.4 0 9-2.8 9-7.9 0-2.8-1.4-4.8-3.9-6.2-.7-.3-1.6-.7-2.8-1.2-1.2-.3-2.4-.8-3.8-1.3-2.6-.9-5.5-1.8-7.3-2.9-3.5-2-5.6-5.6-5.6-9.7 0-8.1 6.2-13.9 15-13.9 6.9 0 13.9 5.3 14.4 13h-6.9c-.3-4.3-3.9-7-7.8-7m189.3-5.269h22.8v6.4h-20.5v15.7h20.5v6.4h-20.5V198h-7v-43.6c.1-2.6 2.1-4.6 4.7-4.6M98.6 160.5v37.2h-7v-44c0-2.8 2.2-5 4.8-5 1.7 0 3.1.7 4.1 2.3 6.9 11.4 19.6 32.9 21 35.2V149h7v44c0 2.8-2.2 5-4.8 5-1.7 0-3.1-.7-4.1-2.3-6.9-11.3-19.6-32.8-21-35.2m-47.8 23.1l-5 13.5h-7.4l17.4-45.4c.7-1.7 2.4-3 4.5-3 2 0 3.8 1.3 4.5 3l17.4 45.4h-7.4l-5-13.5h-19zm9.5-25.5l-7.1 19.3h14.3l-7.2-19.3zM183.6 43.5c-19.8-29-42-3.6-64.3-6.7C97.2 33.7 96.4 3.5 123.7 1c.7-.1 1.3-.1 2-.1 27.2.2 50.1 18.1 57.9 42.6m.6 1.4c1.5 5.3 2.3 11.1 2.3 16.8 0 34-27.5 61.4-61.4 61.4-14.9 0-28.6-5.3-39.1-14.2 4.1 1.7 9.1 2.4 13.4 2.4 55.5.4 31.7-73.6 84.8-66.4"/><path d="M103.2 104.5c-7.7 4.7-20 3.3-28.6-8.3-1.8-2.4-3.5-5.1-4.8-7.8-3.8-7.9-5.9-16.8-5.9-26.1 0-2.5.1-5 .5-7.4C77.9 73 93.3 72.4 103.2 78.3c4.4 2.8 7.3 7.6 7.3 13.1.1 5.5-2.9 10.4-7.3 13.1"/></g></symbol><symbol viewBox="0 0 312 133" id="icon-client-logo-unitedway" xmlns="http://www.w3.org/2000/svg"><g fill-rule="nonzero"><path d="M.3.6V133h310.9V.6H.3zm183 129.9H3V3.2h180.2v127.2h.1v.1zm125.4 0H185.8V3.2h122.7v127.2h.2v.1z"/><path d="M94.9 69.7l-5.8 28.1-4.3-28.2c-.1-.7-.1-.8-.8-.8h-8.3c-.8 0-1 .1-1 1.2 0 3.1.8 4.3 3 4.5l.8.1 6.3 34.8c.2.8.3.9 1 .9h5.5c.9 0 .9 0 1-.9l5.4-27.1 4.6 27.1c.2.9.2.9 1 .9h5.5c.7 0 .8-.1 1-.9l7.1-34.8h.8c2.2-.2 3-1.4 3-4.5 0-1-.1-1-.8-1.2h-8.1c-.7 0-.7.1-.8.8l-4.6 28.2-5.5-28.1c-.1-.8-.2-.9-1.2-.9H96c-.9-.3-.9 0-1.1.8zm-6.7-44.5c2.3 0 4-2 4-4.5 0-2.4-1.8-4.4-4-4.4-2.3 0-4.1 2-4.1 4.4 0 2.6 1.8 4.5 4.1 4.5zm-4.1 28.1c-2.9 0-3.8 1-3.8 4.4 0 1 .1 1 .9 1h13.9c.8 0 .9-.1.9-1 0-3.3-.9-4.4-3.8-4.4h-.7V28.7c0-.6 0-.7-.6-.7h-9.8c-.8 0-.9.1-.9 1 0 3.3.9 4.4 3.8 4.4h.7v19.8l-.6.1zm16.8-19.8h1.2v14.4c0 5.9 0 12 7.1 12 3.9 0 7.3-1 7.3-1.8 0-.1-.2-1.3-.3-1.8-.6-2.3-.8-3.2-5-2.6-.6.1-1 0-1.4-.3-.8-.8-.8-2.6-.8-4.1V33.8h3.8c2.9 0 3.8-1 3.8-4.4 0-1-.1-1-.9-1h-6.8v-8.6c0-.8-.1-.9-.3-.9-.3 0-1.7.2-2.4.2-2 .3-4 1.8-4 5.3v3.9h-3.9c-.8 0-.9.1-.9 1-.3 3.2.6 4.2 3.5 4.2zm30.5 26.4c4.6 0 9.9-2.2 9.9-3.6 0-.2-.2-1.3-.6-2.2-.2-.7-.6-1.4-2.5-1.3-1.5.1-3.9.8-6.1.8-4.3 0-6.4-2.6-6.4-8.3h15.4c.9 0 1.2-.2 1.2-1.4 0-11.3-3.8-17-11.2-17-7.4 0-12.2 6.7-12.2 16.8-.1 13.4 6.7 16.2 12.5 16.2zM126 39.4c.2-2.1.6-7 5-7 4.3 0 4.3 5 4.3 7.5H126v-.5zm29.1 20.5c4.8 0 8.1-3.6 8.1-3.6l.3 1.4c.2 1 .3 1.2 1.2 1.2h7.9c.8 0 .9-.1.9-1 0-3.3-.9-4.4-3.9-4.4-.3-1.3-.6-2.4-.6-5.5V17.3c0-.6 0-.7-.6-.7h-9c-.8 0-1 .1-1 1 0 3.2.9 4.4 3.6 4.4h.2v7.1l-.6-.3c-1-.7-2.4-1.7-5.4-1.7-7 0-10.7 6.1-10.7 17.7 0 9.7 3.5 15.1 9.6 15.1zm2.7-27.1c1.7 0 3.1.3 4.5 1.4v17.5c-.9 1-2.2 2.3-5 2.3-4.1 0-5-3.8-5-10.4.2-7 1-10.8 5.5-10.8zm-107.4.7c.3 1.4.6 2.4.6 5.6v14.3c-2.9 0-3.7 1-3.7 4.4 0 1 .1 1 .9 1h9c.6 0 .6-.1.6-.7V35.8c.8-.8 2.6-2.8 5.1-2.8 3.3 0 3.5 3.9 3.5 5.5V58c0 .6 0 .7.6.7h8.9c.8 0 .9-.1.9-1 0-3.2-.9-4.4-3.7-4.4V36.7c0-6.8-2.2-9.8-7.1-9.8-4.5 0-6.9 2.5-8.8 4.5-.1-.7-.3-1.3-.3-1.3-.3-1.4-.6-2.2-1.4-2.2H48c-.8 0-.9.1-.9 1-.1 3.4.7 4.5 3.3 4.6zM140.7 99V88.1c0-6.9-3-9.9-9.8-9.9-4.7 0-9.8 2.1-9.8 3.3 0 .1.2 1.2.6 2.1.1.3.5 1.4 2.4 1.2.8-.1 4.3-.7 5.8-.7 3.8 0 4.3 2.2 4.3 4.8v2.2c-4.8 0-15.2 0-15.2 10.5 0 5.9 3.2 9.6 8.5 9.6 4 0 6-2.2 7.1-3.5l.5-.5.1.8c.2 1.3.5 2.2 1.5 2.2h7c.9 0 .9-.1.9-1 0-3.1-.7-4.3-3.3-4.4-.2-1.4-.6-2.9-.6-5.8zm-6.6 4.2c-.8.8-2.3 2.5-4.6 2.5s-4-2-4-4.5c0-5 5.2-5.3 7.7-5.3h.9v7.3z"/><path d="M146.7 84.6h.9s5.4 19 8.3 26.9l-.5 1.5c-.9 3-2.5 4.4-5 4.4-.6 0-3.9-.5-3.9-.5-1.8-.1-2.4.7-2.6 1.3-.3.9-.6 2.1-.6 2.3 0 1.4 5.1 2.9 7.6 2.9 2.6 0 6.3-1 8.2-5.6 2-5 10.2-33.2 10.2-33.2h.9c1.8-.3 2.5-1.4 2.5-4.3 0-1-.1-1.2-.9-1.2H165c-.7 0-.7.1-.9.8l-5.6 21.8-5.9-21.8c-.2-.7-.2-.8-.9-.8H145c-.8 0-.9.1-.9 1.2 0 2.9.8 4 2.6 4.3zM14.9 24.2h.2v20.3c0 10.9 4 15.5 13.5 15.5s13.5-4.6 13.5-15.5V24.2h.2c3 0 3.9-1 3.9-4.5 0-1-.1-1.2-1-1.2H31.7c-.8 0-.9.1-.9.6v.6c0 3.5.9 4.5 3.8 4.5h.2v20.3c0 3.9 0 9.1-6.2 9.1-5.8 0-6.2-4.1-6.2-9.1V24.2h.2c2.9 0 3.8-1.2 3.8-4.5V19c-.1-.3-.2-.5-.9-.5H12c-.8 0-1 .1-1 1.2-.1 3.5.9 4.5 3.9 4.5zM270.8 77c.5.2 2 .9 2.4 1 .5.2.7.1 1-.5 1.5-3.6 2.4-7.5 2.4-11.6 0-16.2-13.1-29.4-29.4-29.4-16.2 0-29.4 13.1-29.4 29.4 0 3.3.6 6.4 1.6 9.4.1.5.3.7.9.5.6-.2 1.7-.8 2.3-1 .6-.3.6-.6.3-1-.8-2.5-1.3-5.1-1.3-7.8 0-14 11.4-25.4 25.4-25.4 14 0 25.4 11.4 25.4 25.4 0 3.6-.8 7-2.1 10.1.2.4.2.7.5.9z"/><path d="M202.8 84.2c.7-.3 5.2-2.4 5.9-2.8.8-.3.5-.9.3-1.3-1.6-4.4-2.5-9.1-2.5-14 0-22.6 18.3-40.8 40.8-40.8 22.5 0 40.8 18.3 40.8 40.8 0 5.6-1.2 11.1-3.2 16-.1.3-.2.9.5 1.3s5 2.2 5.6 2.4c.6.2 1 .2 1.4-.7 2.5-5.9 3.8-12.3 3.8-19.1 0-26.9-21.9-48.8-48.8-48.8s-49 21.8-49 48.8c0 6.2 1.2 12.1 3.2 17.5.3.5.5 1 1.2.7z"/><path d="M277.5 79.9c.5.2 2.9 1.3 3.2 1.5.5.2.8.1 1-.5 2-4.6 3.1-9.7 3.1-14.9 0-20.7-16.8-37.7-37.5-37.7S209.6 45.2 209.6 66c0 4.6.8 9 2.3 13 .1.2.2.7.9.5.6-.3 2.6-1.3 3.2-1.5.6-.2.5-.7.3-.9-1.3-3.5-2-7.1-2-10.9 0-18 14.6-32.7 32.6-32.7s32.6 14.6 32.6 32.7c0 4.6-.9 9-2.6 13 .3 0 0 .5.6.7z"/><path d="M252.5 50.2c0-2.9-2.4-5.3-5.2-5.3-2.9 0-5.2 2.3-5.2 5.3 0 2.9 2.3 5.2 5.2 5.2 2.9.1 5.2-2.3 5.2-5.2z"/><path d="M245.4 82.9h3.8c1 0 1.8-.8 1.8-1.8V69.6c.1-1.5 1-3.3 2.1-4.4l10.8-10.8c.7-.7.7-2 0-2.6l-2-2c-.7-.7-2-.7-2.6 0l-9.8 9.8c-.7.6-1.2 1-2.3 1-1.3 0-1.7-.3-2.3-1l-9.8-9.8c-.3-.3-.8-.6-1.3-.6s-.9.2-1.3.6l-2 2c-.7.7-.7 2 0 2.6l10.8 10.8c1 1 2.1 3 2.1 4.4v11.5c.1.9.9 1.8 2 1.8z"/><path d="M283.3 87c-1.8.7-5.3 4-6.8 5.4l-.5.1c.6-.6 2.9-3.6 3.6-4.6 1.8-3.1-1.6-6-5.5-3.8-1.5.8-3.9 3.5-5.1 4.4l-.3.1c.6-.6 2.8-3.3 3.3-4.3 1.7-2.5-1.8-4.8-4.8-3-2.2 1.3-3.9 3.1-5.8 4.5l-.3.1c.5-.5 1.7-2 2.2-2.4 1.8-2.1-.8-4.4-3.5-2.9-2.6 1.4-6.3 5.1-10.5 7.7 2 1 5.3 1.2 10.6 3.5s7 7.6 3.6 11.7c-3.2 3.9-8.1 2.5-12.3 1.3-4.8-1.5-6.6-3.1-12.6-5.2-3.8-1.4-5.4-1.3-5.3-2.4.1-1.3 3.3-.5 6.4.6 8.6 3.1 20 10.2 22.9 2.5 2.2-6-7.7-8.6-11.5-9.3-5.3-1-9-5-13.6-7.4-6.9-3.7-12.3-3.8-16.2-3.1-4.3.8-10.4 4.3-14 6.4-2.5 1.5-2.4 3.8.1 7.4 8.9 12.6 23.5 20.8 40 20.8 17.5 0 32.8-9.3 41.5-23.1 1.7-3.3-1.3-6.7-5.6-5z"/></g></symbol><symbol viewBox="0 0 335 112" id="icon-client-logo-whyy" xmlns="http://www.w3.org/2000/svg"><path d="M278.5.3c-21.3 0-39.7 12-49.1 29.4h25l6.9 17.7h.7c.7-2 1.3-3.9 2.1-5.9l4.5-11.9H294l-21.3 35.6V92h-22.1V65.2l-21.3-34.8c-4 7.8-6.1 16.6-6.1 25.3 0 30.6 24.9 55.5 55.5 55.5s55.5-24.9 55.5-55.5C333.9 25.1 309.1.3 278.5.3zM23.4 30.1l7.8 37h.5c.5-3.8.9-7.7 2-11.4l6.6-25.6h17.4l8.5 37h.5c.3-3.6.7-7.4 1.6-10.9l6.3-26h23.6L76.2 92H56.4l-7.1-33.6h-.7c-.2 3.2-.5 6.3-1.2 9.3L41.1 92H21.9L0 30.2l23.4-.1zm78 0h21.8v20.8h14V30.1H159v61.8h-21.8V70.4h-14v21.5h-21.8V30.1zm86.3 0l6.9 17.2h.7c.7-2 1.3-3.9 2.1-5.9l4.5-11.3h25.4L206 65.3V92h-22.1V65.3l-21.6-35.2h25.4z" fill-rule="nonzero"/></symbol></svg>