<svg width="60" height="65" xmlns="http://www.w3.org/2000/svg"><g id="Page-1" stroke="none" stroke-width="1" fill="none" fill-rule="evenodd"><g id="think-company-logo-horizontal-blue" fill="#0062C3" fill-rule="nonzero"><path d="M28.1 51.9c-.6-2.9-4.1-4.6-7.8-3.7-3.7.8-6.1 3.9-5.5 6.8.6 2.9 4.1 4.6 7.8 3.7 3.7-.9 6.1-3.9 5.5-6.8zm1.2 6.4c-2.1.5-3.5 2.2-3.1 3.9.4 1.6 2.3 2.6 4.4 2.1 2.1-.5 3.5-2.2 3.1-3.9-.4-1.6-2.3-2.6-4.4-2.1zM47.4 9.4C45.6 4.5 39.7.8 32.8.8c-5.1 0-9.6 1.9-12.3 4.9h-.4C9.3 5.7.7 13.1.7 22.2c0 5.4 3.1 10.2 7.8 13.2.7 5.7 6.3 10.1 13.1 10.1 1.6 0 3.2-.3 4.7-.7 2.6 1.6 5.8 2.6 9.3 2.6 7.8 0 14.4-4.9 15.8-11.5 4.8-2.3 8.2-7.1 8.2-12.6-.2-7-5.4-12.8-12.2-13.9zM14.3 29.7c-.4.1-1 .2-1.6.2-.7 0-1.2-.1-1.7-.2-.4-.2-.8-.4-1-.7-.3-.3-.5-.6-.6-1-.1-.4-.2-.8-.2-1.3v-3.9H7.9v-2.5h1.4v-2.5h3.3v2.5h2.2v2.5h-2.2v3.1c0 .5.1.8.2 1 .1.2.4.3.7.3.3 0 .5 0 .7-.1.2-.1.4-.1.5-.2l.7 2.5c-.3 0-.6.2-1.1.3zm11-.1H22v-5.7c0-.4-.1-.6-.2-.8-.1-.2-.4-.2-.7-.2-.3 0-.6.1-.8.3-.2.2-.5.3-.5.5v6h-3.6V16.1h3.6v5.2c0-.1.2-.3.4-.4.2-.1.4-.3.6-.4.2-.1.5-.2.8-.3.3-.1.6-.1 1-.1.5 0 1 .1 1.3.2.4.2.6.4.9.7.2.3.4.6.5 1 .1.4.1.8.1 1.2v6.4h-.1zm5 0H27v-9.4h3.3v9.4zM30 18.9c-.3.4-.8.5-1.3.5-.6 0-1-.2-1.3-.5-.3-.4-.5-.8-.5-1.2 0-.5.2-.9.5-1.2.3-.3.8-.5 1.3-.5.6 0 1 .2 1.3.5.3.3.5.8.5 1.2 0 .4-.2.8-.5 1.2zm10.9 10.7h-3.3v-5.7c0-.4 0-.6-.2-.8-.1-.2-.4-.2-.7-.2-.3 0-.6.1-.8.3-.2.2-.5.3-.5.5v6H32v-9.4h2c1.1 0 1.2 1.1 1.2 1.1.1-.2.3-.3.5-.4.2-.2.4-.3.6-.4.2-.1.5-.2.8-.3.3-.1.6-.1 1-.1.5 0 1 .1 1.3.2.4.2.6.4.9.7.2.3.3.6.4 1 .1.4.1.8.1 1.2v6.3h.1zm11.1 0h-3.9l-2.3-3.8v3.8h-3.3V16.1h3.3v7.5l2.5-3.4H52l-3.1 4.2 3.1 5.2z" id="Shape"/></g></g></svg>
