<svg width="47" height="50" xmlns="http://www.w3.org/2000/svg"><g fill="#FFF" fill-rule="evenodd"><path d="M21.52 40.062c-.498-2.274-3.223-3.582-6.087-2.922-2.863.662-4.78 3.048-4.28 5.323.5 2.278 3.227 3.584 6.088 2.921 2.863-.661 4.78-3.042 4.28-5.322M22.447 45.104c-1.63.377-2.721 1.734-2.435 3.029.283 1.294 1.837 2.041 3.467 1.666 1.631-.376 2.72-1.736 2.435-3.033-.284-1.292-1.837-2.042-3.467-1.662M40.246 22.619h-3.04l-1.776-2.952v2.952H32.82V11.967h2.609v5.905l1.97-2.645h2.846l-2.461 3.333 2.461 4.059zm-8.73 0h-2.608v-4.51c0-.296-.039-.506-.152-.629-.114-.124-.29-.185-.547-.185a.965.965 0 00-.653.23c-.179.153-.387.273-.387.363v4.73H24.56v-7.39h1.59c.85 0 .971.863.971.863.11-.119.233-.221.372-.34.137-.119.3-.22.488-.318.188-.099.398-.173.631-.234.231-.058.49-.086.778-.086.415 0 .763.063 1.045.186.282.124.509.295.682.511.173.22.25.476.33.773.079.296.07.618.07.964v5.072zm-8.54-8.438c-.268.277-.618.416-1.05.416-.432 0-.782-.139-1.05-.416a1.357 1.357 0 01-.401-.978c0-.377.133-.7.402-.973.267-.272.617-.408 1.05-.408.431 0 .781.136 1.049.408.267.273.4.596.4.973 0 .375-.133.702-.4.978zm-2.329 8.438h2.609v-7.392h-2.609v7.392zm-1.304 0h-2.609v-4.51c0-.296-.08-.506-.195-.629-.113-.124-.311-.185-.567-.185a.886.886 0 00-.622.23c-.179.153-.355.273-.355.363v4.73h-2.826V11.968h2.826v4.082c0-.098.18-.202.319-.312a3 3 0 01.457-.303 2.791 2.791 0 011.365-.319c.415 0 .76.062 1.043.185.28.124.507.295.681.511a2.1 2.1 0 01.371.772c.079.297.112.618.112.964v5.072zm-8.623.028c-.341.09-.764.133-1.268.133-.525 0-.959-.062-1.305-.186-.346-.122-.62-.295-.823-.518a1.929 1.929 0 01-.447-.8 4 4 0 01-.143-1.045v-3.047H5.647v-1.957h1.087v-1.956h2.609v1.956h1.739v1.957h-1.74v2.454c0 .355.087.61.18.763.095.153.28.23.517.23.218 0 .419-.028.581-.081a3.23 3.23 0 00.37-.142l.52 1.972a4.61 4.61 0 01-.79.267zM36.625 6.716C35.205 2.839 30.615 0 25.166 0c-3.995 0-7.525 1.525-9.687 3.869-.102-.003-.2-.008-.3-.008C6.793 3.86 0 9.63 0 16.755c0 4.235 2.406 7.995 6.124 10.344.52 4.453 4.906 7.933 10.24 7.933 1.285 0 2.515-.206 3.649-.573 2.057 1.27 4.557 2.02 7.258 2.02 6.14 0 11.263-3.866 12.412-8.993 3.795-1.807 6.406-5.56 6.406-9.902 0-5.429-4.084-9.94-9.464-10.868z"/></g></svg>