<svg version="1.1" xmlns="http://www.w3.org/2000/svg" x="0" y="0" viewBox="0 0 317.7 65.3" xml:space="preserve"><style>.st0{fill:#173145}</style><path class="st0" d="M176.5 43.1c-2 0-3.8-.3-5.2-.9-1.5-.6-2.7-1.5-3.7-2.5-1-1.1-1.7-2.3-2.2-3.7-.5-1.4-.7-2.8-.7-4.3s.2-3 .7-4.3c.5-1.4 1.2-2.6 2.2-3.7 1-1.1 2.2-1.9 3.7-2.5 1.5-.6 3.2-.9 5.2-.9 1.5 0 2.8.2 3.9.5s2.2.8 3.1 1.4l-2.7 4.6c-.6-.4-1.2-.6-1.9-.9-.7-.2-1.5-.3-2.5-.3-.8 0-1.5.1-2.2.5-.6.3-1.2.7-1.6 1.2-.4.5-.8 1.2-1 1.9-.2.7-.3 1.6-.3 2.4 0 .9.1 1.8.3 2.6.2.8.5 1.5 1 2 .4.6 1 1 1.6 1.3.6.3 1.4.5 2.3.5 1.2 0 2.2-.2 2.9-.5.7-.3 1.3-.7 1.8-1l2.5 4.4c-.3.2-.7.5-1.2.8-.5.3-1 .6-1.7.8-.6.2-1.3.4-2.1.6h-2.2zm17 0c-1.5 0-2.7-.2-3.8-.7-1.1-.5-2-1.1-2.7-1.9-.7-.8-1.3-1.7-1.6-2.7-.4-1-.5-2.1-.5-3.2s.2-2.2.5-3.3c.4-1 .9-2 1.6-2.8.7-.8 1.6-1.4 2.7-1.9s2.4-.7 3.8-.7c1.5 0 2.7.2 3.8.7 1.1.5 2 1.1 2.7 1.9.7.8 1.3 1.7 1.6 2.7.4 1 .5 2.1.5 3.2s-.2 2.2-.5 3.2c-.4 1-.9 2-1.6 2.8-.7.8-1.6 1.5-2.7 2s-2.4.7-3.8.7zm.1-4.3c1 0 1.6-.4 1.8-1.1.3-.7.4-1.8.4-3.1 0-1.4-.2-2.5-.5-3.2-.3-.8-1-1.2-1.9-1.2-1 0-1.6.4-1.9 1.1-.3.7-.4 1.8-.4 3.1 0 1.4.2 2.4.5 3.2.4.8 1 1.2 2 1.2zm16.9-10.6c.2-.3.5-.5.8-.8.3-.3.6-.5 1-.7.4-.2.8-.4 1.3-.5.5-.1 1.1-.2 1.7-.2 1.1 0 2 .2 2.7.6.7.4 1.2 1 1.5 1.8.7-.8 1.5-1.5 2.3-1.9.8-.4 1.8-.6 2.9-.6.9 0 1.6.1 2.2.4.6.3 1.1.7 1.5 1.1.4.5.6 1.1.8 1.7.2.7.2 1.4.2 2.2v11.3h-6v-9.9c0-.7-.1-1.1-.3-1.4-.2-.3-.6-.4-1.1-.4-.5 0-.9.1-1.2.4l-.9.9v10.6h-6V32.7c0-.7-.1-1.1-.4-1.4-.2-.3-.6-.4-1-.4-.6 0-1 .2-1.3.5-.3.3-.6.6-.7.8v10.6h-6V26.3h3.7c2.2 0 2.3 1.9 2.3 1.9zm22.3-1.9h5.9V28c.5-.6 1-1.1 1.7-1.5.7-.4 1.6-.6 2.7-.6 2.1 0 3.8.7 4.9 2.2 1.2 1.5 1.7 3.6 1.7 6.4 0 1.3-.2 2.5-.5 3.6-.4 1.1-.9 2-1.5 2.7-.7.7-1.4 1.3-2.3 1.7-.9.4-1.9.6-3 .6-.9 0-1.6-.1-2.2-.3-.6-.2-1-.4-1.3-.6V50h-6V26.3zm7.9 12.3c.8 0 1.5-.3 1.9-1 .4-.7.7-1.7.7-3.2 0-1.4-.2-2.4-.6-3-.4-.6-1-1-1.7-1-.3 0-.6 0-.8.1l-.6.3c-.2.1-.4.3-.5.4l-.3.3v6.1c.2.2.5.4.8.5.2.5.6.5 1.1.5zm15.7 4.5c-.7 0-1.4-.1-2-.3-.6-.2-1.2-.5-1.6-.9-.5-.4-.8-.9-1.1-1.5-.3-.6-.4-1.3-.4-2.1 0-1 .2-1.9.7-2.7.5-.8 1.1-1.4 1.9-1.8.8-.5 1.7-.8 2.8-1.1 1.1-.2 2.2-.3 3.3-.3h.5v-.5c0-.5-.1-.8-.4-1.1-.3-.2-.9-.4-1.8-.4-.5 0-1 .1-1.4.2-.4.1-.8.2-1.2.4-.4.1-.7.3-.9.5-.3.2-.5.3-.6.4l-2.4-3.5c.3-.2.6-.5 1.1-.8.4-.3 1-.5 1.6-.8.6-.2 1.3-.4 2.1-.6.8-.2 1.6-.2 2.5-.2 2.6 0 4.5.5 5.6 1.5 1.2 1 1.7 2.7 1.7 5.1V37c0 1.3.1 2.5.2 3.4.1.9.2 1.7.4 2.3h-5.9c-.1-.2-.2-.5-.2-.8-.1-.3-.1-.6-.1-.8-.2.2-.4.5-.7.7l-.9.6c-.4.2-.8.4-1.2.5-.5.2-1 .2-1.6.2zm2.1-4.1c.5 0 .9-.1 1.2-.2.3-.2.6-.3.8-.5v-2.4h-.5c-1 0-1.7.2-2.3.5-.6.3-.9.8-.9 1.4 0 .8.6 1.2 1.7 1.2zm17-10.8c.2-.3.5-.5.8-.8.3-.3.7-.5 1.1-.7.4-.2.9-.4 1.4-.5.5-.1 1.1-.2 1.7-.2.9 0 1.7.1 2.3.4.6.3 1.1.7 1.5 1.1.4.5.7 1.1.8 1.7.2.7.3 1.4.3 2.2v11.3h-6v-10c0-.7-.1-1.1-.4-1.4-.3-.3-.7-.4-1.2-.4-.6 0-1.1.2-1.5.5-.4.3-.7.6-.9.8v10.6h-6V26.3h3.5c2.5 0 2.6 1.9 2.6 1.9zm14.8 22.4c-.9 0-1.6 0-2.2-.2-.5-.1-.9-.2-1.1-.2l.9-4.7c.1 0 .3.1.6.1.3.1.7.1 1.3.1.6 0 1.1-.1 1.5-.2.4-.1.7-.3.9-.5.2-.2.4-.4.6-.7.2-.3.3-.6.4-.9l.5-1.4-6.1-15.9h6.3l2.9 9.1h.1l2.4-9.1h6.1l-6.6 17.8c-.4 1.1-.9 2.1-1.4 2.9-.5.8-1.1 1.5-1.7 2-.6.5-1.4.9-2.3 1.2-.9.5-1.9.6-3.1.6zM78.1 25.7h-6v-5.2h18.3v5.2h-6v17H78v-17zm14.3-6.9h6V28c.2-.2.5-.5.8-.7.3-.2.7-.5 1.1-.7.4-.2.9-.4 1.4-.5.5-.1 1.1-.2 1.7-.2.9 0 1.7.1 2.3.4.6.3 1.1.7 1.5 1.1.4.5.7 1.1.8 1.7.2.7.3 1.4.3 2.2v11.3h-6v-9.9c0-.7-.1-1.1-.4-1.4-.3-.3-.7-.4-1.2-.4-.6 0-1.1.2-1.5.5-.4.3-.7.6-.9.8v10.6h-6v-24zm22.6 6c-1 0-1.8-.3-2.4-.9-.6-.6-.9-1.4-.9-2.2 0-.8.3-1.6.9-2.2.6-.6 1.4-.9 2.4-.9s1.8.3 2.4.9c.6.6.9 1.3.9 2.2 0 .8-.3 1.6-.9 2.2-.6.6-1.4.9-2.4.9zm-3 1.5h6.1v16.4H112V26.3zm29-7.5h6v13.3l4.2-5.8h6.4l-5.5 7.4 5.5 9h-6.8l-3.8-6.6v6.6h-6V18.8zm-13.3 9.4c.2-.3.5-.5.8-.8.3-.3.7-.5 1.1-.7.4-.2.9-.4 1.4-.5.5-.1 1.1-.2 1.7-.2.9 0 1.7.1 2.3.4.6.3 1.1.7 1.5 1.1.4.5.7 1.1.8 1.7.2.7.3 1.4.3 2.2v11.3h-6v-10c0-.7-.1-1.1-.4-1.4-.3-.3-.7-.4-1.2-.4-.6 0-1.1.2-1.5.5-.4.3-.7.6-.9.8v10.6h-6V26.3h3.5c2.4 0 2.6 1.9 2.6 1.9zM309.1 22.7h-1.2v-.9h3.5v.9h-1.2v3.6h-1.1v-3.6zm3.1-.9h1l.8 2.7c.1.3.2.7.2.7 0-.1.1-.4.2-.7l.9-2.7h1l.6 4.4h-.9l-.2-2.1c0-.3-.1-.6-.1-.7 0 .1-.1.3-.2.6l-.7 2.1h-1.1L313 24l-.2-.6c0 .1 0 .4-.1.7l-.3 2.1h-1l.8-4.4z"/><path d="M28.1 51.9c-.6-2.9-4.1-4.6-7.8-3.7-3.7.8-6.1 3.9-5.5 6.8.6 2.9 4.1 4.6 7.8 3.7 3.7-.9 6.1-3.9 5.5-6.8zm1.2 6.4c-2.1.5-3.5 2.2-3.1 3.9.4 1.6 2.3 2.6 4.4 2.1 2.1-.5 3.5-2.2 3.1-3.9-.4-1.6-2.3-2.6-4.4-2.1zM47.4 9.4C45.6 4.5 39.7.8 32.8.8c-5.1 0-9.6 1.9-12.3 4.9h-.4C9.3 5.7.7 13.1.7 22.2c0 5.4 3.1 10.2 7.8 13.2.7 5.7 6.3 10.1 13.1 10.1 1.6 0 3.2-.3 4.7-.7 2.6 1.6 5.8 2.6 9.3 2.6 7.8 0 14.4-4.9 15.8-11.5 4.8-2.3 8.2-7.1 8.2-12.6-.2-7-5.4-12.8-12.2-13.9zM14.3 29.7c-.4.1-1 .2-1.6.2-.7 0-1.2-.1-1.7-.2-.4-.2-.8-.4-1-.7-.3-.3-.5-.6-.6-1-.1-.4-.2-.8-.2-1.3v-3.9H7.9v-2.5h1.4v-2.5h3.3v2.5h2.2v2.5h-2.2v3.1c0 .5.1.8.2 1 .1.2.4.3.7.3.3 0 .5 0 .7-.1.2-.1.4-.1.5-.2l.7 2.5c-.3 0-.6.2-1.1.3zm11-.1H22v-5.7c0-.4-.1-.6-.2-.8-.1-.2-.4-.2-.7-.2-.3 0-.6.1-.8.3-.2.2-.5.3-.5.5v6h-3.6V16.1h3.6v5.2c0-.1.2-.3.4-.4.2-.1.4-.3.6-.4.2-.1.5-.2.8-.3.3-.1.6-.1 1-.1.5 0 1 .1 1.3.2.4.2.6.4.9.7.2.3.4.6.5 1 .1.4.1.8.1 1.2v6.4zm5 0H27v-9.4h3.3v9.4zM30 18.9c-.3.4-.8.5-1.3.5-.6 0-1-.2-1.3-.5-.3-.4-.5-.8-.5-1.2 0-.5.2-.9.5-1.2.3-.3.8-.5 1.3-.5.6 0 1 .2 1.3.5.3.3.5.8.5 1.2 0 .4-.2.8-.5 1.2zm10.9 10.7h-3.3v-5.7c0-.4 0-.6-.2-.8-.1-.2-.4-.2-.7-.2-.3 0-.6.1-.8.3-.2.2-.5.3-.5.5v6H32v-9.4h2c1.1 0 1.2 1.1 1.2 1.1.1-.2.3-.3.5-.4.2-.2.4-.3.6-.4.2-.1.5-.2.8-.3.3-.1.6-.1 1-.1.5 0 1 .1 1.3.2.4.2.6.4.9.7.2.3.3.6.4 1 .1.4.1.8.1 1.2v6.3zm11.1 0h-3.9l-2.3-3.8v3.8h-3.3V16.1h3.3v7.5l2.5-3.4H52l-3.1 4.2 3.1 5.2z" fill="#0062c3"/></svg>