<svg width="249" height="199" viewBox="0 0 249 199" xmlns="http://www.w3.org/2000/svg"><g id="Page-1" stroke="none" stroke-width="1" fill-rule="evenodd"><g id="client-logo-sanofi" fill-rule="nonzero"><path id="Path" d="M241.5 198.1h6.7v-48.4h-6.7z"/><path d="M165.1 149.269c13.6 0 24.4 10.7 24.4 24.4 0 13.4-11.1 24.2-24.4 24.2-13.5 0-24.5-10.8-24.5-24.2-.1-13.6 10.8-24.4 24.5-24.4m-.3 6.4c-9.6 0-17.2 7.9-17.2 18 0 9.8 7.7 17.6 17.4 17.6s17.4-7.8 17.4-17.6c0-10.2-7.4-18-17.6-18m-147.8-.6c-4.4 0-8.2 3-7.7 7.6.2 2 1.2 3.1 3.1 4.4.5.3 1.6.8 3 1.3s3.1 1 4.7 1.6c3.5 1.2 6.9 2.5 8.5 4 2.5 2.4 4 5.4 4 9.1 0 9-7.3 15.1-15.9 15.1-8.8 0-16-6-16.2-14.6h6.8c.9 6 4.7 8.6 9.4 8.6 4.4 0 9-2.8 9-7.9 0-2.8-1.4-4.8-3.9-6.2-.7-.3-1.6-.7-2.8-1.2-1.2-.3-2.4-.8-3.8-1.3-2.6-.9-5.5-1.8-7.3-2.9-3.5-2-5.6-5.6-5.6-9.7 0-8.1 6.2-13.9 15-13.9 6.9 0 13.9 5.3 14.4 13h-6.9c-.3-4.3-3.9-7-7.8-7M206.3 149.8h22.8v6.4h-20.5v15.7h20.5v6.4h-20.5V198h-7v-43.6c.1-2.6 2.1-4.6 4.7-4.6M98.6 160.5v37.2h-7v-44c0-2.8 2.2-5 4.8-5 1.7 0 3.1.7 4.1 2.3 6.9 11.4 19.6 32.9 21 35.2V149h7v44c0 2.8-2.2 5-4.8 5-1.7 0-3.1-.7-4.1-2.3-6.9-11.3-19.6-32.8-21-35.2m-47.8 23.1-5 13.5h-7.4l17.4-45.4c.7-1.7 2.4-3 4.5-3 2 0 3.8 1.3 4.5 3l17.4 45.4h-7.4l-5-13.5h-19Zm9.5-25.5-7.1 19.3h14.3l-7.2-19.3ZM183.6 43.5c-19.8-29-42-3.6-64.3-6.7C97.2 33.7 96.4 3.5 123.7 1c.7-.1 1.3-.1 2-.1 27.2.2 50.1 18.1 57.9 42.6m.6 1.4c1.5 5.3 2.3 11.1 2.3 16.8 0 34-27.5 61.4-61.4 61.4-14.9 0-28.6-5.3-39.1-14.2 4.1 1.7 9.1 2.4 13.4 2.4 55.5.4 31.7-73.6 84.8-66.4" id="Shape"/><path d="M103.2 104.5c-7.7 4.7-20 3.3-28.6-8.3-1.8-2.4-3.5-5.1-4.8-7.8-3.8-7.9-5.9-16.8-5.9-26.1 0-2.5.1-5 .5-7.4C77.9 73 93.3 72.4 103.2 78.3c4.4 2.8 7.3 7.6 7.3 13.1.1 5.5-2.9 10.4-7.3 13.1" id="Path"/></g></g></svg>