<svg width="270" height="159" viewBox="0 0 270 159" xmlns="http://www.w3.org/2000/svg"><g id="Page-1" stroke="none" stroke-width="1" fill-rule="evenodd"><g id="client-logo-andesa" fill-rule="nonzero"><path d="m70.756 69.4 44-63.8c5.2-6.6 19.3-6 24.5.6l60.1 76.6c-12.2-7.5-26.8-12.9-42.8-15.8l-31.9-38.1c-5.5-6.6-14.5-6.6-19.9 0l-34 40.5Z" id="Path"/><path d="M.1 157.8 4.7 147c5.4-12.3 9.8-23 13.1-32.2.2 0 .5 0 .8.1.3 0 .6.1.9.1.3 0 .6.1.8.1.3 0 .8 0 1.2-.1.5-.1.8-.1 1.2-.2l.5 1c5.2 13.8 10.7 27.5 16.5 41.1l.3.7v.6c-.9 0-1.8-.1-2.6-.1-1.2-.1-2.1-.1-2.8-.1-1.7 0-3.5.1-5.2.3-1.8-5.8-3.2-10.1-4.4-12.9-1.2 0-2.3 0-3.5-.1-1.5-.1-2.8-.1-3.5-.1-1.6 0-4.1.1-7.6.2l-.3.9c-.7 2-1.4 4-2.2 6.1-.7 2-1.3 3.9-1.8 5.9-2-.3-3.9-.3-5.9 0v-.5H.1ZM12 141.5h11.5c-1.4-3.8-3.2-8.8-5.6-14.7-2.2 5.2-4.1 9.9-5.6 14.2l-.3.5Zm45.1 16.6c-.8-.1-1.6-.2-2.5-.2-.9 0-2 .1-2.9.3.5-4.5.7-9.2.9-14 .1-4.8.2-10.1.2-15.9v-10.2c0-1.3 0-2.3-.1-3 1.4.2 2.3.3 2.8.3.6 0 1.5-.1 2.9-.3 2.5 2.8 4.8 5.3 7 7.6 2.4 2.6 4.8 5.2 7.3 7.8 2.6 2.9 5 5.3 6.9 7.4 2.1 2.3 4.1 4.6 6.2 6.9v-21c0-1-.1-2.3-.2-3.9-.1-1.2-.1-2.4-.2-3.6l-.1-1.3c1.4.2 2.3.3 2.8.3s.9 0 1.5-.1c.5-.1.9-.1 1.4-.2-.1 1.6-.2 2.8-.2 3.6-.2 3.1-.5 5.8-.5 7.9 0 1.4 0 2.4-.1 3.2 0 .8-.1 1.8-.1 3 0 1-.1 2.2-.1 3.2v22.2c-.1-.1-.3-.1-.7-.1-.3-.1-1-.1-1.7-.1-1.2 0-2.1.1-2.6.2-7.7-9.1-14.6-16.8-20.6-23.1l-6.8-7.1c-.1 3.9-.2 6.7-.2 8.4v5.9c0 7.1.1 12.6.5 16.1l-.8-.2Zm56.9-42.8c.7 0 1.7 0 3.2-.1 1.5 0 2.5-.1 3.3-.1 3 0 5.3.1 6.9.2 3.7.3 6.6.9 8.8 1.7 2.4.9 4.4 2.4 5.9 4.1 3.5 3.8 5.2 8.6 5.2 14.4 0 3.6-.6 6.8-1.8 9.6-1.2 2.8-3.1 5.4-5.8 7.7-2.3 2.1-4.7 3.5-7.3 4.3-2.5.8-5.5 1.2-9 1.2-4.5 0-7.9 0-10.1-.1-.3-.1-.8-.1-1.5-.1-1.3 0-3.1.1-5.5.2.3-7.4.6-14.7.6-22v-6.4c0-1 0-2.5-.1-4.6-.1-1.5-.1-3.1-.1-4.6 0-.9-.1-1.8-.1-2.8 0-.9-.1-1.8-.1-2.8 3.1.1 5.8.2 7.5.2Zm6.7 39.2c3.1 0 5.6-.3 7.6-1.2 2-.8 3.7-2.3 5.3-4.5 2.3-3.5 3.5-7.9 3.5-13.4 0-2.3-.3-4.6-1-6.8-.7-2.3-1.7-4.1-3-5.6-1.5-1.7-3.2-2.9-5.1-3.5-1.9-.6-4.1-.9-6.9-.9-.5 0-1.3 0-2.2.1-1 .1-1.7.1-2.3.1-.2 7-.3 17.6-.3 31.6v4c.8.1 2.3.1 4.4.1Zm39.7-39.5c1.2 0 2.8.1 4.8.2 2.1.1 3.8.2 5.2.2 2.2 0 4.7 0 7.6-.1 2.9-.1 5.2-.1 6.7-.1-.1 1-.1 2.6-.1 4.7.1.2.1.5.1.8-6.1-.6-10.9-.8-14.4-.8-.1 1.5-.1 3.7-.1 6.6v7l14.4-.5c-.2 1.3-.3 2.3-.3 2.9 0 .6.1 1.4.3 2.4-4.1-.3-7.9-.5-11.3-.5h-3.1v16c3.9 0 8.8-.2 14.5-.8-.1 1-.1 2.5-.1 4.6.1.2.1.5.1.8-1.8 0-3.8-.1-5.6-.2-2.5-.1-4.4-.1-5.6-.1-.8 0-2.1 0-3.8.1-1.7.1-2.9.1-3.7.1-1.2 0-3 .1-5.6.2 0-.3.1-1 .1-1.8s.1-1.4.1-1.7c0-1.2.1-3.1.1-5.8.1-2.6.1-4.7.1-6v-16.9c0-1 0-2.8-.1-5-.1-1.6-.1-3.3-.2-5l-.1-1.3Zm56.6 8.6c-1.4-3.6-3.8-5.4-7.3-5.4-2.1 0-3.8.6-5.1 1.6-1.3 1.2-1.8 2.5-1.8 4.4 0 1.5.7 2.8 2 3.8s3.3 2.3 6.1 3.8 5 2.8 6.6 3.8c1.6 1.2 2.8 2.4 3.5 4.1.7 1.5 1 3.3 1 5.6 0 2-.5 3.9-1.4 5.9-1.3 2.6-3.5 4.6-6.7 6.1-2.3 1.2-5.2 1.6-8.5 1.6-3.9 0-7.4-.9-10.1-2.6.9-3.1 1.5-5.8 1.8-7.9h1.2c.5 2.1 1.5 3.8 3.1 5 1.6 1.2 3.5 1.7 5.6 1.7 2.1 0 3.8-.6 5.2-1.6 1.4-1.2 2.2-2.6 2.2-4.6 0-1.7-.8-3.5-2.3-4.8-2-1.4-4.4-2.8-7-4-.8-.5-1.7-.9-2.9-1.7-1.2-.7-1.8-1.2-2.2-1.4-1.4-.9-2.4-2.2-3.1-4-.7-1.7-1.2-3.6-1.2-5.5 0-4.1 1.6-7.4 4.7-9.9 1.5-1.2 2.9-2 4.4-2.4 1.5-.5 3.2-.7 5.4-.7 3.7 0 6.8.8 9.4 2.5 0 .1.2.2.5.5-.7 2.1-1.4 4.1-2 6.2l-1.1-.1Zm12.3 34.2 4.6-10.8c5.4-12.3 9.8-23 13.1-32.2.2 0 .5 0 .8.1.3 0 .6.1.9.1.3 0 .6.1.8.1.3 0 .7 0 1.2-.1s.8-.1 1.2-.2l.5 1c5.2 13.8 10.7 27.5 16.5 41.1l.3.7v.6c-.9 0-1.8-.1-2.6-.1-1.2-.1-2.1-.1-2.8-.1-1.7 0-3.5.1-5.2.3-1.8-5.8-3.2-10.1-4.4-12.9-1.2 0-2.3 0-3.5-.1-1.5-.1-2.8-.1-3.5-.1-1.6 0-4.1.1-7.6.2l-.3.9c-.7 2.1-1.5 4-2.2 6.1-.7 2-1.3 3.9-1.8 5.9-2-.3-3.9-.3-5.9 0v-.5h-.1Zm12.7-16.3h11.5c-1.4-3.8-3.2-8.8-5.6-14.7-2.2 5.2-5.9 14.7-5.9 14.7ZM68.6 80.3l38.5-48.8c5-3.3 11.3-2.5 15.5 2.5l4.4 5.3s-18.3 23.5-18.4 23.5c2.4-.1 4.3-.1 4.8-.1 15.8 0 23.5 1.6 30.9 3.5-4.3-.1-8.5-.6-12.8-.6-14.6 0-28.6 2.2-41.2 6-6.3 2-12.3 4.3-18 7-1.1.4-2.4 1-3.7 1.7" id="Shape"/><path d="M131.5 70.8c37.3 0 70 14.5 88.8 36.4-21.9-15.9-53.5-25.9-88.8-25.9s-66.9 10-88.8 25.9c18.8-21.9 51.5-36.4 88.8-36.4" id="Path"/></g></g></svg>