<svg width="312" height="133" viewBox="0 0 312 133" xmlns="http://www.w3.org/2000/svg"><g id="Page-1" stroke="none" stroke-width="1" fill-rule="evenodd"><g id="client-logo-unitedway" fill-rule="nonzero"><path d="M.3.6V133h310.9V.6H.3Zm183 129.9H3V3.2h180.2v127.2h.1v.1Zm125.4 0H185.8V3.2h122.7v127.2h.2v.1Z" id="Shape"/><path d="m94.9 69.7-5.8 28.1-4.3-28.2c-.1-.7-.1-.8-.8-.8h-8.3c-.8 0-1 .1-1 1.2 0 3.1.8 4.3 3 4.5l.8.1 6.3 34.8c.2.8.3.9 1 .9h5.5c.9 0 .9 0 1-.9l5.4-27.1 4.6 27.1c.2.9.2.9 1 .9h5.5c.7 0 .8-.1 1-.9l7.1-34.8h.8c2.2-.2 3-1.4 3-4.5 0-1-.1-1-.8-1.2h-8.1c-.7 0-.7.1-.8.8l-4.6 28.2-5.5-28.1c-.1-.8-.2-.9-1.2-.9H96c-.9-.3-.9 0-1.1.8Zm-6.7-44.5c2.3 0 4-2 4-4.5 0-2.4-1.8-4.4-4-4.4-2.3 0-4.1 2-4.1 4.4 0 2.6 1.8 4.5 4.1 4.5Zm-4.1 28.1c-2.9 0-3.8 1-3.8 4.4 0 1 .1 1 .9 1h13.9c.8 0 .9-.1.9-1 0-3.3-.9-4.4-3.8-4.4h-.7V28.7c0-.6 0-.7-.6-.7h-9.8c-.8 0-.9.1-.9 1 0 3.3.9 4.4 3.8 4.4h.7v19.8l-.6.1Zm16.8-19.8h1.2v14.4c0 5.9 0 12 7.1 12 3.9 0 7.3-1 7.3-1.8 0-.1-.2-1.3-.3-1.8-.6-2.3-.8-3.2-5-2.6-.6.1-1 0-1.4-.3-.8-.8-.8-2.6-.8-4.1V33.8h3.8c2.9 0 3.8-1 3.8-4.4 0-1-.1-1-.9-1h-6.8v-8.6c0-.8-.1-.9-.3-.9-.3 0-1.7.2-2.4.2-2 .3-4 1.8-4 5.3v3.9h-3.9c-.8 0-.9.1-.9 1-.3 3.2.6 4.2 3.5 4.2Zm30.5 26.4c4.6 0 9.9-2.2 9.9-3.6 0-.2-.2-1.3-.6-2.2-.2-.7-.6-1.4-2.5-1.3-1.5.1-3.9.8-6.1.8-4.3 0-6.4-2.6-6.4-8.3h15.4c.9 0 1.2-.2 1.2-1.4 0-11.3-3.8-17-11.2-17-7.4 0-12.2 6.7-12.2 16.8-.1 13.4 6.7 16.2 12.5 16.2ZM126 39.4c.2-2.1.6-7 5-7 4.3 0 4.3 5 4.3 7.5H126v-.5Zm29.1 20.5c4.8 0 8.1-3.6 8.1-3.6l.3 1.4c.2 1 .3 1.2 1.2 1.2h7.9c.8 0 .9-.1.9-1 0-3.3-.9-4.4-3.9-4.4-.3-1.3-.6-2.4-.6-5.5V17.3c0-.6 0-.7-.6-.7h-9c-.8 0-1 .1-1 1 0 3.2.9 4.4 3.6 4.4h.2v7.1l-.6-.3c-1-.7-2.4-1.7-5.4-1.7-7 0-10.7 6.1-10.7 17.7 0 9.7 3.5 15.1 9.6 15.1Zm2.7-27.1c1.7 0 3.1.3 4.5 1.4v17.5c-.9 1-2.2 2.3-5 2.3-4.1 0-5-3.8-5-10.4.2-7 1-10.8 5.5-10.8Zm-107.4.7c.3 1.4.6 2.4.6 5.6v14.3c-2.9 0-3.7 1-3.7 4.4 0 1 .1 1 .9 1h9c.6 0 .6-.1.6-.7V35.8c.8-.8 2.6-2.8 5.1-2.8 3.3 0 3.5 3.9 3.5 5.5V58c0 .6 0 .7.6.7h8.9c.8 0 .9-.1.9-1 0-3.2-.9-4.4-3.7-4.4V36.7c0-6.8-2.2-9.8-7.1-9.8-4.5 0-6.9 2.5-8.8 4.5-.1-.7-.3-1.3-.3-1.3-.3-1.4-.6-2.2-1.4-2.2H48c-.8 0-.9.1-.9 1-.1 3.4.7 4.5 3.3 4.6ZM140.7 99V88.1c0-6.9-3-9.9-9.8-9.9-4.7 0-9.8 2.1-9.8 3.3 0 .1.2 1.2.6 2.1.1.3.5 1.4 2.4 1.2.8-.1 4.3-.7 5.8-.7 3.8 0 4.3 2.2 4.3 4.8v2.2c-4.8 0-15.2 0-15.2 10.5 0 5.9 3.2 9.6 8.5 9.6 4 0 6-2.2 7.1-3.5l.5-.5.1.8c.2 1.3.5 2.2 1.5 2.2h7c.9 0 .9-.1.9-1 0-3.1-.7-4.3-3.3-4.4-.2-1.4-.6-2.9-.6-5.8Zm-6.6 4.2c-.8.8-2.3 2.5-4.6 2.5s-4-2-4-4.5c0-5 5.2-5.3 7.7-5.3h.9v7.3Z" id="Shape"/><path d="M146.7 84.6h.9s5.4 19 8.3 26.9l-.5 1.5c-.9 3-2.5 4.4-5 4.4-.6 0-3.9-.5-3.9-.5-1.8-.1-2.4.7-2.6 1.3-.3.9-.6 2.1-.6 2.3 0 1.4 5.1 2.9 7.6 2.9 2.6 0 6.3-1 8.2-5.6 2-5 10.2-33.2 10.2-33.2h.9c1.8-.3 2.5-1.4 2.5-4.3 0-1-.1-1.2-.9-1.2H165c-.7 0-.7.1-.9.8l-5.6 21.8-5.9-21.8c-.2-.7-.2-.8-.9-.8H145c-.8 0-.9.1-.9 1.2 0 2.9.8 4 2.6 4.3ZM14.9 24.2h.2v20.3c0 10.9 4 15.5 13.5 15.5s13.5-4.6 13.5-15.5V24.2h.2c3 0 3.9-1 3.9-4.5 0-1-.1-1.2-1-1.2H31.7c-.8 0-.9.1-.9.6v.6c0 3.5.9 4.5 3.8 4.5h.2v20.3c0 3.9 0 9.1-6.2 9.1-5.8 0-6.2-4.1-6.2-9.1V24.2h.2c2.9 0 3.8-1.2 3.8-4.5V19c-.1-.3-.2-.5-.9-.5H12c-.8 0-1 .1-1 1.2-.1 3.5.9 4.5 3.9 4.5ZM270.8 77c.5.2 2 .9 2.4 1 .5.2.7.1 1-.5 1.5-3.6 2.4-7.5 2.4-11.6 0-16.2-13.1-29.4-29.4-29.4-16.2 0-29.4 13.1-29.4 29.4 0 3.3.6 6.4 1.6 9.4.1.5.3.7.9.5.6-.2 1.7-.8 2.3-1 .6-.3.6-.6.3-1-.8-2.5-1.3-5.1-1.3-7.8 0-14 11.4-25.4 25.4-25.4 14 0 25.4 11.4 25.4 25.4 0 3.6-.8 7-2.1 10.1.2.4.2.7.5.9Z" id="Shape"/><path d="M202.8 84.2c.7-.3 5.2-2.4 5.9-2.8.8-.3.5-.9.3-1.3-1.6-4.4-2.5-9.1-2.5-14 0-22.6 18.3-40.8 40.8-40.8 22.5 0 40.8 18.3 40.8 40.8 0 5.6-1.2 11.1-3.2 16-.1.3-.2.9.5 1.3s5 2.2 5.6 2.4c.6.2 1 .2 1.4-.7 2.5-5.9 3.8-12.3 3.8-19.1 0-26.9-21.9-48.8-48.8-48.8s-49 21.8-49 48.8c0 6.2 1.2 12.1 3.2 17.5.3.5.5 1 1.2.7Z" id="Path"/><path d="M277.5 79.9c.5.2 2.9 1.3 3.2 1.5.5.2.8.1 1-.5 2-4.6 3.1-9.7 3.1-14.9 0-20.7-16.8-37.7-37.5-37.7S209.6 45.2 209.6 66c0 4.6.8 9 2.3 13 .1.2.2.7.9.5.6-.3 2.6-1.3 3.2-1.5.6-.2.5-.7.3-.9-1.3-3.5-2-7.1-2-10.9 0-18 14.6-32.7 32.6-32.7s32.6 14.6 32.6 32.7c0 4.6-.9 9-2.6 13 .3 0 0 .5.6.7Z" id="Path"/><path d="M252.5 50.2c0-2.9-2.4-5.3-5.2-5.3-2.9 0-5.2 2.3-5.2 5.3 0 2.9 2.3 5.2 5.2 5.2 2.9.1 5.2-2.3 5.2-5.2Z" id="Path"/><path d="M245.4 82.9h3.8c1 0 1.8-.8 1.8-1.8V69.6c.1-1.5 1-3.3 2.1-4.4l10.8-10.8c.7-.7.7-2 0-2.6l-2-2c-.7-.7-2-.7-2.6 0l-9.8 9.8c-.7.6-1.2 1-2.3 1-1.3 0-1.7-.3-2.3-1l-9.8-9.8c-.3-.3-.8-.6-1.3-.6s-.9.2-1.3.6l-2 2c-.7.7-.7 2 0 2.6l10.8 10.8c1 1 2.1 3 2.1 4.4v11.5c.1.9.9 1.8 2 1.8Z" id="Path"/><path d="M283.3 87c-1.8.7-5.3 4-6.8 5.4l-.5.1c.6-.6 2.9-3.6 3.6-4.6 1.8-3.1-1.6-6-5.5-3.8-1.5.8-3.9 3.5-5.1 4.4l-.3.1c.6-.6 2.8-3.3 3.3-4.3 1.7-2.5-1.8-4.8-4.8-3-2.2 1.3-3.9 3.1-5.8 4.5l-.3.1c.5-.5 1.7-2 2.2-2.4 1.8-2.1-.8-4.4-3.5-2.9-2.6 1.4-6.3 5.1-10.5 7.7 2 1 5.3 1.2 10.6 3.5s7 7.6 3.6 11.7c-3.2 3.9-8.1 2.5-12.3 1.3-4.8-1.5-6.6-3.1-12.6-5.2-3.8-1.4-5.4-1.3-5.3-2.4.1-1.3 3.3-.5 6.4.6 8.6 3.1 20 10.2 22.9 2.5 2.2-6-7.7-8.6-11.5-9.3-5.3-1-9-5-13.6-7.4-6.9-3.7-12.3-3.8-16.2-3.1-4.3.8-10.4 4.3-14 6.4-2.5 1.5-2.4 3.8.1 7.4 8.9 12.6 23.5 20.8 40 20.8 17.5 0 32.8-9.3 41.5-23.1 1.7-3.3-1.3-6.7-5.6-5Z" id="Path"/></g></g></svg>