<svg version="1.1" id="Layer_1" xmlns="http://www.w3.org/2000/svg" x="0" y="0" viewBox="0 0 1080 251" xml:space="preserve"><style>.st0{fill:#163145}</style><g id="NHtDXo.tif"><path class="st0" d="M1080 241.4c-11 0-21.9 0-32.9.1-1.7 0-1.7-.9-1.7-2.2v-24c-27.6 23.7-59 32.6-94.4 25.3-24.6-5.1-44.8-17.8-60.5-37.3-31.6-39.2-31.1-94.8 1-134 12.4-15.1 27.9-25.9 46.4-32.4 18.4-6.5 37.3-7.8 56.5-4.1 19.2 3.8 36 12.4 50.9 25.8 0-1.3.1-2 .1-2.7V34.6c0-1.4.5-1.9 1.9-1.9 10.9.1 21.8.1 32.7.1v208.6zm-106.4-32.7c39.4 0 71.7-31.9 71.8-71.1.1-40-31.8-72.1-71.7-72.2-39.4-.1-71.6 32.1-71.7 71.7-.1 39.4 32 71.5 71.6 71.6zM246.4 0c-2 4.2-4.1 8.5-6.2 12.7-38.4 78-76.9 156-115.4 234-.4.8-.8 1.5-1.4 2.7C82.2 166 41.1 83 0 0h42.6c.4.7.8 1.4 1.1 2C70 54.7 96.2 107.5 122.5 160.1c.4.8.8 1.6 1.5 2.7.6-1.2 1.1-2 1.5-2.9 12.9-26 25.7-52.1 38.6-78.1L204.6-.1c13.9.1 27.9.1 41.8.1zM258.4 153.8c.7 2.2 1.1 4.1 1.8 5.9 11 31 40.7 50.5 73.5 47.9 17.1-1.4 31.9-8.1 44.2-20.1 1.3-1.2 2.5-1.7 4.3-1.7 12.2.1 24.5 0 36.7 0h2.7c-.5 1-.8 1.7-1.2 2.4-17.2 29.4-42.5 47.4-76.1 52.8-53.9 8.7-105-24.7-119.2-77.3-15.2-56 18.3-114.3 74.3-129.7 60.4-16.5 121.8 21.9 133 83.1 1.8 9.9 1.9 20 1.7 30 0 2.1.5 4.8-.6 6-1 1.1-3.8.5-5.8.5H262.1c-1.2 0-2.3.1-3.7.2zm0-35h138.4c-6.5-28.7-35.4-56.9-75-53.9-18.4 1.4-33.9 9.2-46.5 22.6-8.2 8.9-13.8 19.3-16.9 31.3zM657.7 186.5c-3.6 5.3-7 10.8-11 15.9-17.6 21.8-40.3 34.9-68 38.9-55.5 8.1-108.3-29.4-118.9-84.4-10-51.8 18.6-102.5 68.5-120.2 61.7-21.9 127.8 16.2 139.9 80.8 2.2 11.4 1.7 22.9 1.7 34.4 0 1.1-.4 1.7-1.6 1.7H493.9c1 3.1 1.7 5.9 2.8 8.5 11.1 26.1 30.6 41.6 58.8 45.2 22.5 2.8 42.1-4.3 58.6-20 .7-.7 1.9-1.4 2.8-1.4 13.1-.1 26.2 0 39.2 0 .3 0 .7.1 1 .1.2.1.4.3.6.5zm-24.9-67.6c-4.7-24.1-29.7-54-69-54.2-38.4-.2-64.5 28.7-69.6 54.2h138.6zM660.1 32.2H697.3c2.1 0 3.1.7 4 2.5 21.7 43.8 43.5 87.5 65.3 131.3.5.9 1 1.9 1.6 3.2.7-1.2 1.2-2.2 1.7-3.1 22.1-43.8 44.2-87.7 66.2-131.5.9-1.8 1.9-2.4 3.9-2.4 11.6.1 23.2 0 34.8 0 .8 0 1.6.1 3 .1-36.3 72.5-72.5 144.8-108.9 217.6-36.4-72.8-72.4-145-108.8-217.7z"/><path class="st0" d="M67.8.6h111l-55.4 110.5C104.7 74 86.3 37.5 67.8.6z"/></g></svg>