<svg width="335" height="112" viewBox="0 0 335 112" xmlns="http://www.w3.org/2000/svg"><g id="Page-1" stroke="none" stroke-width="1" fill-rule="evenodd"><g id="client-logo-whyy" fill-rule="nonzero"><path d="M278.5.3c-21.3 0-39.7 12-49.1 29.4h25l6.9 17.7h.7c.7-2 1.3-3.9 2.1-5.9l4.5-11.9H294l-21.3 35.6V92h-22.1V65.2l-21.3-34.8c-4 7.8-6.1 16.6-6.1 25.3 0 30.6 24.9 55.5 55.5 55.5s55.5-24.9 55.5-55.5C333.9 25.1 309.1.3 278.5.3ZM23.4 30.1l7.8 37h.5c.5-3.8.9-7.7 2-11.4l6.6-25.6h17.4l8.5 37h.5c.3-3.6.7-7.4 1.6-10.9l6.3-26h23.6L76.2 92H56.4l-7.1-33.6h-.7c-.2 3.2-.5 6.3-1.2 9.3L41.1 92H21.9L0 30.2l23.4-.1Zm78 0h21.8v20.8h14V30.1H159v61.8h-21.8V70.4h-14v21.5h-21.8V30.1Zm86.3 0 6.9 17.2h.7c.7-2 1.3-3.9 2.1-5.9l4.5-11.3h25.4L206 65.3V92h-22.1V65.3l-21.6-35.2h25.4Z" id="Shape"/></g></g></svg>