<svg version="1.1" id="Layer_1" xmlns="http://www.w3.org/2000/svg" x="0" y="0" viewBox="0 0 1080 363.4" xml:space="preserve"><style>.st0{fill:#163145}</style><g id="RDh9H6.tif"><path class="st0" d="M291.2 0c1.1.3 2.2.6 3.3.7 10.7 1.8 18.5 7.9 24.1 17 4.5 7.2 6.9 15.2 8.4 23.4 2.1 10.7 2.2 21.6 1.6 32.5-.7 12.8-2.8 25.5-5.7 37.9-.2.6-.2 1.3-.3 2 .9.3 1.7.6 2.5.9 13.4 4 26.4 9 38.9 15.4 8.7 4.5 17 9.8 24.4 16.2 6.3 5.5 11.8 11.6 15.6 19.1 5.8 11.7 5.1 23.2-1.2 34.5-4.1 7.2-9.7 13.2-16 18.6-10.5 8.8-22.3 15.4-34.7 20.9-8.6 3.8-17.5 7.1-26.5 9.9-.7.2-1.3.5-2.3.8.4 2.1.8 4.1 1.3 6.1 2 8.9 3.4 17.8 4.2 26.8.6 6.5.9 12.9.7 19.4-.3 9.8-1.4 19.5-4.4 28.9-2.5 8.1-6.2 15.7-12.3 21.8-5.2 5.2-11.5 8.4-18.8 9.5-.8.1-1.7.3-2.6.4h-9.5c-4.4-.4-8.7-1.3-12.9-2.5-12.6-3.7-23.9-9.9-34.7-17.2-10.2-6.9-19.5-14.7-28.4-23.2-.4-.4-.9-.7-1.3-1-.4.4-.8.6-1.1.9-4.5 4-8.8 8-13.5 11.8-11.7 9.6-24.3 18-38.3 24.1-8.4 3.7-17.2 6.3-26.3 7.1h-8.7c-1-.2-2-.3-3-.5-7.7-1.2-14.4-4.5-19.8-10.2-4-4.2-6.9-9.2-9.1-14.6-4-9.7-5.5-19.9-6-30.3-.5-9.5.1-19 1.3-28.5 1.1-8.7 2.8-17.2 4.8-25.6.2-.8.3-1.5.4-2.4-.8-.3-1.5-.6-2.2-.8-15.3-4.5-30-10.5-43.9-18.6-8.9-5.2-17.1-11.2-24.3-18.6-4.7-4.8-8.7-10.2-11.6-16.3-4.1-8.9-4.8-18-1.4-27.3 2-5.3 4.9-10.1 8.5-14.5 5.4-6.5 11.7-11.9 18.7-16.6 15.2-10.4 32-17.3 49.4-22.8l6.9-2.1v-.9C83.1 101.9 81 91.3 80 80.4c-.4-5.2-1-10.5-1.1-15.7-.2-8.4.4-16.8 2-25.1 1.5-7.8 3.9-15.2 8.1-22 5.2-8.4 12.5-14 22.2-16.2 7.5-1.7 15-1.1 22.5.6 10.9 2.4 21 7 30.6 12.6 14.1 8.2 26.8 18.2 38.6 29.4.4.4.8.7 1.1.9 5.7-5 11.1-9.9 16.8-14.6 10.7-8.7 22.1-16.4 34.6-22.2 7.4-3.4 15.1-6.2 23.2-7.4 1.3-.2 2.5-.5 3.7-.8 3.1.1 6 .1 8.9.1zm-87.5 247.6c5.4-.2 11-.3 16.7-.5 6.5-.3 12.9-.6 19.4-.9 1.2 0 2-.5 2.6-1.5 2.4-3.8 4.8-7.5 7.2-11.3 10.1-16.1 19.4-32.7 27.9-49.7.8-1.6.8-2.9-.1-4.4-3.6-6.7-7-13.4-10.6-20-7.2-13.3-15.2-26.2-23.4-38.9-1.4-2.2-2.9-3.6-5.7-3.2h-.4c-8.3-.4-16.7-1-25-1.1-14.4-.3-28.8.2-43.2 1.1-1.6.1-2.6.6-3.5 2-3.9 6.2-8 12.3-11.9 18.6-8.4 13.6-16 27.7-23.1 42-.7 1.4-.7 2.6 0 4 5.6 11.3 11.4 22.5 18 33.3 5.7 9.3 11.7 18.5 17.5 27.8.6 1 1.3 1.4 2.4 1.5 3.2.2 6.5.5 9.7.6 8.5.2 16.9.4 25.5.6zM90.6 130.4c-1.1.3-1.8.4-2.6.6-9.3 2.7-18.4 5.9-27.2 9.9-11 5-21.5 10.8-30.6 18.9-4.4 3.9-8.2 8.3-10.8 13.6-2.4 4.9-2.8 10-.4 15 1.1 2.3 2.3 4.6 3.8 6.7 4.8 6.7 11 12 17.8 16.6 12.4 8.5 26 14.6 40.1 19.4 3.1 1.1 6.3 2 9.5 3 .3-.6.5-1.1.6-1.6 5.3-16.8 11.7-33.3 19.1-49.3.4-.9.5-1.7 0-2.6-1.5-3.3-3-6.7-4.5-10.1-5-11.6-9.5-23.4-13.3-35.4-.5-1.5-.9-3-1.5-4.7zm12.1 124.8c-.2.5-.4.9-.5 1.3-1.4 6.9-2.8 13.8-4 20.7-1.3 7-1.7 14.1-1.9 21.3-.3 7.2.3 14.4 1.7 21.5 1 5 2.4 9.9 4.8 14.5 3.9 7.4 9.9 11.2 18.3 11.1 4.6-.1 9-.8 13.4-2.1 9.8-2.8 18.8-7.4 27.3-12.7 9-5.7 17.4-12.3 25.4-19.4 1.8-1.6 3.5-3.3 5.4-5.1-.8-1-1.4-1.8-2.1-2.5-7.8-8.4-15.1-17.2-22.1-26.3-3.3-4.3-6.6-8.8-9.8-13.2-.5-.7-1-1.3-2-1.4-6.7-.6-13.3-1.3-19.9-2.1-6.4-.8-12.8-1.8-19.2-2.9-5-.7-9.8-1.7-14.8-2.7zm114.2 51.3c.7.5 1.3 1 1.8 1.4 6.2 5.8 12.6 11.4 19.5 16.5 9.8 7.2 20 13.6 31.5 17.8 6.2 2.3 12.5 3.8 19.2 3.4 5.3-.3 9.7-2.3 13.1-6.5 3.3-4.1 5.4-8.9 6.8-13.9 2.8-9.3 3.5-19 3.4-28.6-.1-6.4-.6-12.8-1.4-19.1-1-7.3-2.3-14.5-4-21.6-.1-.5-.4-1-.6-1.4h-.4c-17.4 4-35 6.6-52.8 8.2-1.2.1-2 .6-2.7 1.5-1.9 2.9-3.9 5.7-6 8.5-6.2 8-12.5 16-18.8 24-2.7 3.2-5.5 6.2-8.6 9.8zm-25-249c-1.4-1.3-2.7-2.5-4-3.7-9.1-8.4-18.8-15.9-29.3-22.4-7.5-4.6-15.2-8.5-23.6-11.1-5.8-1.8-11.7-3-17.8-2.2-3.8.5-7.2 1.8-10 4.6-2.3 2.3-4 5.1-5.4 8-3.4 7.5-4.7 15.4-5.1 23.5-.3 6.3 0 12.7.2 19 .3 8.7 1.9 17.3 3.6 25.8.7 3.3 1.5 6.6 2.3 10 1.6-.3 3-.7 4.4-.9 9.6-1.7 19.1-3.5 28.7-5 6.4-1 12.8-1.6 19.3-2.3 1.4-.2 2.3-.6 3.2-1.8 10-13.9 20.6-27.4 32.3-40 .3-.3.7-.8 1.2-1.5zm113.4 51.7c.3-.6.4-1 .5-1.3 3-12.6 5-25.4 5.5-38.4.4-9.3-.1-18.6-2.1-27.7-1.3-5.7-3.1-11.2-6.4-16.2-2.8-4.2-6.6-7.1-11.7-7.7-3.1-.4-6.4-.3-9.5.1-7 .9-13.5 3.4-19.8 6.4-16.8 8.2-31.3 19.6-44.7 32.5-.2.2-.3.5-.5.8.9 1 1.7 2 2.6 3 6.4 7.7 13 15.3 19.2 23.1 4.1 5.1 7.8 10.5 11.7 15.8.6.8 1.2 1.2 2.3 1.3 4.8.5 9.6 1.1 14.4 1.6 11.2 1.4 22.3 3.3 33.4 5.6 1.6.4 3.3.7 5.1 1.1zm12.7 21.4c-.2.2-.4.3-.4.4-.2.5-.4 1.1-.6 1.6-5.2 16-11.3 31.7-18.4 47-.6 1.3-.5 2.4.1 3.7 7.4 15.5 13.8 31.3 19.1 47.7.2.6.5 1.2.8 1.9.7-.2 1.3-.3 1.9-.5 8.7-2.6 17.2-5.8 25.5-9.5 10.7-4.8 20.8-10.5 29.8-18.1 4.1-3.5 8-7.3 10.8-12 1-1.6 1.9-3.3 2.6-5 2.5-5.7 1.4-11.1-1.6-16.3-2.7-4.6-6.4-8.5-10.4-12-7.8-6.8-16.7-12-26-16.5-9.1-4.4-18.5-8-28.1-10.9l-5.1-1.5zm-16.4 106.9c-3.9-12.2-8.4-23.9-13.5-35.4-8.1 14-16 27.8-24.1 41.9 12.6-1.6 25-3.6 37.6-6.5zm-181.1-35.2c-5 11.9-9.4 23.7-13.2 35.9 12.4 2.8 24.7 4.6 37.6 6.1-8.9-13.7-16.8-27.5-24.4-42zm84.2 91.5c8.6-9.5 16.3-19.1 23.9-29.4-16.3.7-32.1.5-48.4.2 7.9 10.1 15.7 19.8 24.5 29.2zM204.3 70c-8.5 9.3-16.5 18.7-24.1 28.9 16.2-.5 31.9-.6 48.1.1-7.7-10.2-15.5-19.7-24-29zm83.6 90.9c4.9-11.5 9.2-22.9 12.8-34.6-7.4-2.3-33.9-6.7-36.4-6.2 7.8 13.5 15.6 27.1 23.6 40.8zm-167.3.1c7.2-14.2 15.1-27.7 23.7-41.3-1.3.1-2.2 0-3 .2l-30 5.1c-1.2.2-2.4.6-3.6.9.5 3.8 10.7 31.6 12.9 35.1zM282.1 363.4v-.4h9.5v.4h-9.5zM125.5 363v.4h-8.7v-.4h8.7zM548.9 196c15.4 23.4 30.6 46.3 46 69.5-.9.1-1.4.2-2 .2h-21.2c-1.4 0-2.2-.4-3-1.6-10.5-16.5-21-32.9-31.5-49.4-3.3-5.2-6.7-10.4-10-15.7-.5-.9-1.1-1.3-2.2-1.3h-31.6c-.3 0-.7.1-1.3.1v67.4c-1.8.5-18.6.6-21.2.2 0-.7-.1-1.5-.1-2.3-.1-54.7-.1-109.4-.2-164.1 0-1.4.2-2.9.2-4.4.8-.1 1.4-.1 2-.1 21.8 0 43.5-.1 65.3 0 8.3 0 16.5 1 24.3 4.2 16.8 6.9 26.8 19.4 30 37.2 1.6 9.1 1.3 18.3-1.6 27.1-5.4 16.9-17.2 27.1-34.3 31.6-1.3.3-2.5.6-3.8.8-.9.3-2.1.4-3.8.6zm-56.6-16.9H535.1c4 0 7.9-.3 11.8-1.3 9.3-2.3 16.5-7.5 20.9-16.1 4.2-8.3 4.8-17.1 2.1-26-2.7-9-8.5-15.3-17.2-19.1-5.5-2.4-11.4-3.1-17.3-3.2-13.5-.1-27.1 0-40.6 0-.8 0-1.5.1-2.4.1-.1 21.9-.1 43.6-.1 65.6zM632 210c0 1.1-.1 1.9 0 2.7 1.3 7.2 3.2 14.2 7.2 20.4 6.3 9.8 15 16.3 26.5 18.6 16.1 3.3 30.7-.3 43.9-10 1.8-1.3 3.4-2.9 5.3-4.5 3.2 3.9 6 8 9.1 12.2-.6.6-1.1 1.2-1.6 1.7-6.5 6.1-14 10.5-22.4 13.5-10.3 3.7-21.1 4.7-31.9 3.8-12.5-1-23.9-5.2-33.7-13.2-8.1-6.6-14.1-14.8-17.9-24.5-2.3-5.9-4-11.9-4.4-18.2-.3-5-.7-9.9-.3-14.9 1.1-14.6 6.2-27.6 15.8-38.7 9.3-10.8 21.1-17.4 35.1-19.5 13-2 25.7-.5 37.6 5.6 10 5.2 17.6 13 23 22.8 4.6 8.3 7.3 17.2 8.2 26.6.4 4.4.5 8.8.8 13.1 0 .6-.1 1.3-.1 2.2h-49.9c-16.8.3-33.4.3-50.3.3zm80.9-14.5v-1.7c-.2-6.4-2-12.3-4.9-18-4.2-8.2-10.4-14.4-19.1-18-6.5-2.7-13.3-3.6-20.3-3-9.6.8-17.8 4.5-24.5 11.4-6.4 6.6-10.1 14.6-11.8 23.6-.3 1.8-.4 3.7-.6 5.6 27.2.1 54.1.1 81.2.1zM771.3 172.6c-3.1-4.6-6-8.9-9-13.4 1.9-1.7 3.6-3.4 5.5-5 9.1-7.9 19.7-12.6 31.6-14.5 6-1 12.1-1.1 18.1-.7 8.8.6 17.2 2.4 24.9 7.1 9.3 5.6 14.7 14 16.7 24.6.6 3.4.9 6.8.9 10.3v82.4c0 .7-.1 1.4-.1 2.2H841c-.1-2.2-.2-4.4-.2-6.6v-6.8c-.6.4-1 .5-1.3.8-8 8.3-17.8 13.1-29.1 14.9-9.7 1.6-19.4 1.3-28.6-2.7-14-6-22.7-16.2-24.8-31.5-1.2-8.8-.1-17.4 4-25.4 3.5-6.8 8.7-11.9 15.4-15.6 6-3.3 12.5-5.1 19.4-5.6 9-.6 17.7.5 26.1 3.5 6.9 2.5 12.8 6.4 17.8 11.8.2.2.4.4.7.5h.4c0-.6.1-1.2.1-1.8 0-6.1.1-12.3 0-18.4 0-4.5-.6-8.9-2.7-13-3.1-5.9-8-9.7-14.2-12-5.9-2.1-12-2.7-18.3-2.3-7.2.5-13.9 2.3-20.2 5.8-4.5 2.4-8.4 5.6-11.9 9.2-.8.8-1.4 1.4-2.3 2.2zm69.4 55.1V218c0-1.3-.3-2.4-1.2-3.3-2-1.9-3.9-4.1-6.2-5.7-10.4-7.3-22.1-9.4-34.5-7.3-5.6 1-10.7 3.4-14.9 7.4-7 6.8-9.3 15.2-7.3 24.7 1.2 5.6 4 10.3 8.4 14 6.6 5.6 14.6 7.4 22.9 7.3 5.2-.1 10.3-1 15.2-2.8 6-2.2 11.2-5.5 15.5-10.2 1.4-1.5 2.1-3.1 2.1-5.2-.1-3.1 0-6.2 0-9.2zM986 171.7c-.6-.6-.9-1-1.2-1.3-6.2-7.9-14.2-12.8-24.2-14.1-11.2-1.4-21.8.6-31.2 7.4-6.7 4.8-11.2 11.3-14.2 18.9-2.2 5.6-3.3 11.4-3.6 17.5-.5 8.3.5 16.4 3.4 24.2 4.1 10.7 11 19 21.6 23.8 4.2 1.9 8.5 2.9 13.1 3.4 5.5.6 10.8.1 16-1.4 6.9-2 12.6-5.9 17.3-11.2.9-1 1.8-2.1 2.8-3.3 4.3 3.9 8.5 7.8 12.8 11.7-2.7 3.7-5.7 6.7-9 9.5-7.8 6.6-16.9 10.3-27 11.4-12.2 1.5-24.1.3-35.5-4.8-9.4-4.2-17.1-10.6-23.2-18.9-6.5-8.9-10.3-18.9-11.8-29.8-.6-4.6-1-9.2-.8-13.8.7-15.5 5.2-29.6 15.3-41.6 8.3-9.7 18.7-16.2 31.2-18.9 13.7-3 27.2-2.5 40.2 3.1 7.4 3.2 13.5 8.3 18.7 14.4.6.7 1.1 1.4 1.8 2.4-4 3.8-8.1 7.5-12.5 11.4zM1074.8 246.6c1.3 3.4 2.6 6.6 3.8 9.8.3.7.6 1.5.8 2.2.8 2.2.7 2.6-1.1 4-4.3 3.4-9.3 5.3-14.7 5.9-5.7.6-11.4.6-16.9-1.1-7.1-2.2-12.1-6.8-14.8-13.8-1.8-4.8-2.3-9.8-2.3-14.9v-80h-20.5v-16.9h20.5v-33.7h19.4v33.6c2.2.2 4.3.1 6.4.1H1074.2v16.8h-24.8c-.1.8-.1 1.5-.2 2.1v75c0 3 .5 5.9 1.6 8.6 2.4 5.8 7.6 7.8 12.8 7 4.5-.4 5.9-1 11.2-4.7z"/><path class="st0" d="M203.9 217.7c-19.1.3-36.5-15.9-36.3-36.7.3-21.1 17.7-36.4 37-36.1 18.8.3 36.1 15.5 35.9 36.9-.2 20.7-17.6 36.4-36.6 35.9z"/></g></svg>