<svg version="1.1" id="Layer_1" xmlns="http://www.w3.org/2000/svg" x="0" y="0" viewBox="0 0 2500 679" xml:space="preserve"><style>.st0{fill-rule:evenodd;clip-rule:evenodd;fill:#163145}</style><path class="st0" d="M735.4 502.1V194.5H775l188 247.6V194.5h37.6v307.6H961l-188-250v250h-37.6zm571.2-12.2c-24.9 9.3-51.8 14.2-80.1 14.2-111.3 0-167-53.2-167-160.2 0-101.1 53.7-151.9 161.1-151.9 30.8 0 59.6 4.4 85.9 12.7v34.2c-26.4-10.3-53.7-15.1-81.5-15.1-84 0-126 40-126 119.1 0 85.4 41.5 127.9 124 127.9 13.2 0 27.8-2 43.9-5.4v-103h39.6v127.5h.1zm63.5-106.5v-189h39.6v189c0 59.1 29.3 88.9 88.4 88.9 58.6 0 88.4-29.8 88.4-88.9v-189h39.6v189c0 80.6-42.5 121.1-127.9 121.1s-128.1-40.5-128.1-121.1zm366.2-188.9v275.4h161.1v32.2h-200.7V194.5h39.6zm218.3 307.6h-41.5L2065.9 154l152.8 348.1h-43.9l-39.6-96.7h-101.6l10.7-32.2h77.6L2064.5 234l-109.9 268.1zm306.6 0V194.5h131.3c58.6 0 87.9 24.4 87.9 73.7 0 40-28.8 69.8-85.9 88.9l105.5 145h-52.2l-97.7-138.2V338c58.6-9.3 88.4-31.7 88.4-67.9 0-28.3-16.1-42.5-48.8-42.5h-87.9V502l-40.6.1zM382.3 358.1l-66.4-138.7-58.1 138.7z"/><path class="st0" d="M314.9.1 0 112.4 48.3 529l266.6 147.9 271-149.9 52.2-416.5L314.9.1zm135.3 515.2-43-99.6H231.9l-39.6 98.6-73.2 1.5L315.4 79.2 520 516.7l-69.8-1.4z"/></svg>