<svg version="1.1" id="Layer_1" xmlns="http://www.w3.org/2000/svg" x="0" y="0" viewBox="0 0 1080 754.2" xml:space="preserve"><style>.st0{fill:#163145}</style><path class="st0" d="M1075.8 291.4c-11.7-56.5-39.8-103.1-85.1-138.8-50.1-39.5-107.5-55.2-170.9-48.4-21.7 2.4-42.6 8.1-62.7 16.7l-3.9 1.5c-32.6-54.1-78.9-88.3-141.8-96.7-63-8.4-116.9 12.1-162.2 56.6-1-1.1-1.9-2.2-2.8-3.2-22.6-28.2-50.6-49.3-84-63.1C341.8 7.5 320.3 2.5 298.1.9c-11.8-1.4-22.8-.6-31.3 0-6.3.8-12.6 1.3-18.9 2.4-39.9 6.5-75 23.3-105 50.2-42 37.7-65.4 85.1-69.8 141.5-1.9 25.1.6 49.9 8.1 74 2.5 8.1 5.4 16 8.2 24.2-.7.5-1.6 1.2-2.5 1.8-17.7 10.9-33.2 24.4-46.2 40.6C19 362.5 5.8 393 1.4 427.3c.1 1.4-3.6 23.8.6 52.9 3.7 22.6 11.1 44 22.9 63.7 20.5 34.5 49.1 59.8 85.9 75.5 17.1 7.3 35 11.7 53.6 13.2 13.1 1.1 26.2 1 39.2-.9 4.4-.6 8.9-1.3 13.5-2 .7 1.7 1.4 3.2 2 4.8 9.8 24.6 24.1 46.2 42.8 64.9 23.5 23.5 51.2 40 83.2 49.4 34.7 11.5 70.2 6.7 94.4 3.6 63.3-14.8 108.9-51.7 136.9-110.3.6-1.2 1.2-2.4 1.9-3.7 41 19 82.8 22.5 125.6 9s74.9-40.7 97.6-79.2c.9.1 1.6.2 2.2.3 9.1 1.2 18.1 3 27.2 3.6 20.6 1.3 41.1.3 61.5-3.8 46.4-9.4 86.3-30.9 119.7-64.4 28-28.1 47.6-61.3 58.8-99.5 5.9-20.1 9.2-40.6 9.2-61.7-.1-17.2-.8-34.3-4.3-51.3zm-844.1 88.1c-2.2 14.8-12 24-27.7 25.9-15.1 1.8-29.5-.6-42.8-8.4-1.5-.9-3-2-4.3-3 1.2-6.2 4-13.2 6.4-15.6l6 3.6c8.9 5.2 18.4 7.9 28.7 7.3 2.9-.2 5.8-1.1 8.4-2.3 6.7-3.3 8.6-13.9.1-17.9-5.8-2.7-12.1-4.5-18.2-6.8-5.3-2-10.7-3.8-15.6-6.3-6.6-3.4-11.2-8.8-12.4-16.3-2.6-16.6 5.4-28 19.1-33.2 6.7-2.6 13.8-2.9 20.9-2.4 8.2.6 16.2 2.5 23.6 6.1 1.4.7 2.9 1.3 4 2.3.7.6 1.4 2 1.2 2.7-1.5 4.4-3.2 8.7-5 13.5-2.1-1-3.5-1.6-4.9-2.2-8.3-3.7-17-6.1-26.2-5.7-2.9.1-5.9.9-8.4 2.3-6.4 3.5-6.8 11.5-.8 15.6 2.9 2 6.2 3.4 9.5 4.6 6.1 2.3 12.3 4.1 18.4 6.4 4.9 1.8 9.4 4.4 13.3 8.1 6.1 6 8 13.4 6.7 21.7zm92.7 15.1c0 4.7-.1 4.8-4.7 5.8-12.5 2.8-25.1 5.5-38 4.9-5.9-.3-11.9-.9-17.5-2.5-15.8-4.6-22.1-17.1-20.6-32.1 1.3-13.2 9.2-21.4 21.2-26 9.6-3.7 19.5-4 29.6-2.9 3.2.3 6.4.7 9.7 1 .5-4.2.5-8.1-.9-11.9-1.6-4.6-5.1-6.9-9.5-8.2-6.2-1.8-12.6-1.4-18.9-.6-6.3.8-12.4 2.5-18.1 5.5-.6.3-1.3.5-2.2.8-.6-1-1.2-1.9-1.6-2.9-1-2.6-2-5.3-2.9-7.9-1.4-4-1.3-4.7 2.6-6.6 6-3 12.4-4.7 19-5.6 9.4-1.4 18.8-1.9 28.1.3 14.2 3.4 22.2 12 24.1 26.4.4 3.1.7 6.2.7 9.3-.1 17.6-.1 35.4-.1 53.2zm40.6 3.2c0 5.8 0 5.8-5.9 5.8h-8.9c-5.5 0-5.5 0-5.5-5.3V268.4c.1-1.5 1-2.4 2.4-2.4 5.1-.1 10.2-.1 15.2 0 1.7 0 2.5 1.1 2.5 2.7v3c.2 42 .2 84.1.2 126.1zm104.1-41.5c-.1 1.1-.5 2.2-.9 3.7h-64c.3 2.7.4 4.8.7 7 1.7 11.7 9.5 19.3 21.1 20.9 10.4 1.4 20.5.4 30.3-3.2 1-.4 2.1-.7 4-1.2 1.7 4.7 3.3 9 4.8 13.3.7 2-.7 2.9-2.3 3.4-4.5 1.4-9.1 3.1-13.7 4-10.6 2-21.3 2.2-31.9-.2-17.6-4.1-28.8-14.7-32.8-32.5-3.1-13.8-2.7-27.5 2.7-40.7 6.5-15.7 18.5-24.3 35.5-26.1 5.7-.6 11.2-.4 16.8.9 13.6 3.1 22.2 11.7 26.9 24.5 3.1 8.3 3.4 17.2 2.8 26.2zm14 39.1c-.5-.3-.9-.7-1.3-1.1-.2-.2-.3-.5-.4-.7 1.2-5.7 3.8-12.3 6.1-15.1 1.9 1.1 4 2.3 6 3.5 8.8 5.3 18.4 8 28.6 7.4 3.1-.2 6.4-1.2 9.2-2.7 6.1-3.2 8.1-13.5-.2-17.5-5.9-2.8-12.4-4.6-18.6-6.9-5.2-2-10.6-3.9-15.6-6.4-17.9-9.3-15.4-34.2-2.6-44.1 6-4.7 12.9-7.1 20.3-7.6 11.4-.9 22.5.9 33 5.7.9.4 1.8.9 2.6 1.3 3.9 2.2 3.9 2.3 2.3 6.6-1.3 3.5-2.7 7-4.2 11-1.9-.8-3.3-1.4-4.6-2.1-8.5-3.8-17.3-6.2-26.6-5.8-2.7.1-5.7.8-8.1 2.1-6.6 3.5-7.1 11.7-1 15.9 2.5 1.7 5.4 3 8.3 4.1 4.9 1.8 10 3.1 14.8 5.1 4.8 2 9.7 4 14.1 6.8 9.4 5.9 12.4 15 10.7 25.6-2.1 13.1-10.2 21.1-22.7 23.9-17.6 3.9-34.6.9-50.1-9zm149.1-85.6c-.5 2.8-.9 5.6-1.4 8.3-.9 4.9-1.1 5-6 5H607.5c-.9 5-1.9 9.8-2.7 14.7-4.2 23.7-8.4 47.4-12.8 71.1-1.6 8.5-4 16.8-8.7 24.1-5.6 8.7-13.4 13.8-23.8 14.9-6.4.7-12.7.5-18.8-1.2-4-1.1-4.3-1.7-2.9-5.7 1.3-3.8 2.8-7.6 4.2-11.6 1.4.3 2.3.5 3.2.6 3.9.3 7.8.9 11.7.6 4.6-.3 7.6-3.3 9.8-7.2 3-5.5 4.7-11.5 5.8-17.6 4.4-23.7 8.6-47.4 12.8-71.1.7-3.7 1.3-7.4 2-11.8h-15.8c.5-3.4.6-6.2 1.2-8.8 1.9-8.9-.1-7.9 9.3-7.9h7.9c.5-2.1.9-4 1.3-5.9 1.2-6.4 3.1-12.6 6.1-18.4 5.9-11.2 15.6-16.7 27.9-17.8 6.1-.5 12.1-.2 18 1.6.9.3 1.7.8 3 1.4-1.9 5.3-3.8 10.4-5.7 15.6-2.4-.4-4.3-.8-6.2-1.1-10.8-2-18.2 2.4-21.3 12.9-.9 3-1.5 6-2.2 9-.2.7-.1 1.4-.2 2.8h18.6c3.1.1 3.4.5 3 3.5zm92 44.6c.1 8.6-1 16.5-3.9 24.1-6.4 16.5-18.8 25.2-36.2 26.9-6.8.7-13.6.2-20.1-1.9-13.7-4.5-22.7-13.9-27-27.6-4.3-13.8-4.2-27.8-.1-41.6 5.4-18 20.8-28.7 37.2-29.7 6.3-.4 12.4-.3 18.4 1.5 15.1 4.3 24.6 14.3 29 29.3 2 6.3 2.9 12.8 2.7 19zm73.7-44c-1.2 3.6-2.7 7.1-3.9 10.7-.7 1.9-1.8 2.6-3.8 2.4-2.9-.3-5.9-.4-8.9-.3-8.2.5-14 4.6-17.4 12.1-2.6 5.7-3.1 11.7-3.1 17.8-.1 14.5 0 29.1 0 43.6v3c-.1 3.1-.3 3.3-3.5 3.4-4.4.1-8.8.1-13.1 0-3.2 0-3.5-.5-3.6-3.8V312.1c0-1.8.2-3.6.4-5.6h18.9c.3 2.5.6 4.9.9 7.7 1.2-.8 2.1-1.4 2.9-2.1 9.8-7.9 20.9-8.3 32.5-5.5 2.1.6 2.5 1.4 1.7 3.8zm77.9 90.9c-6.5 2.4-13.4 3.6-20.3 4-9.5.6-18.9-.4-27.7-4.3-13.2-5.8-20.4-16.5-23.6-30.1-3-12.6-2.7-25.2 1.8-37.5 6.2-16.7 18.3-26.3 36-28.7 3.1-.4 6.2-.6 9.2-.9 7.7.3 15.2 1.2 22.5 3.6 3.9 1.2 4.1 1.6 2.7 5.4-1.1 2.9-2.1 5.8-3.2 8.7-1.2 3-1.3 3.1-4.3 2.2-6.5-1.8-13-2.3-19.7-2.1-10.5.3-18.1 5.2-22.2 14.8-5 11.6-5.2 23.6-.8 35.5 3.8 10.2 11.8 15.2 22.4 16 7.2.5 14.4.2 21.3-2.4 2.7-1 3.2-.7 4.3 2.3 1.2 3.2 2.4 6.3 3.5 9.5.9 2.6.7 3-1.9 4zm94.8-45.3c-.2 3.7-.5 4-4.3 4h-59.9c-1.2 17.4 9.2 26.1 21.2 27.8 10.4 1.5 20.5.3 30.4-3.3.8-.3 1.6-.6 2.4-.8.3-.1.6 0 1.3 0 2.6 4.3 3.6 9.4 5.7 14.7-2 1-3.8 2-5.6 2.8-5.9 2.4-12.2 3.4-18.5 4-7.6.6-15.2.7-22.8-.9-19-4-31.1-15.2-34.9-34.6-2.7-13.9-2.1-27.6 3.8-40.6 6.6-14.5 18.2-22.6 34-24.4 5.7-.7 11.3-.6 16.8.7 15.4 3.4 24.4 13.3 28.7 28 2.1 7.3 2.1 14.9 1.7 22.6z"/><path class="st0" d="M282.2 357.4c-3 .3-6.1 1.1-9 2.1-7 2.7-10 7.8-9.6 15.6.3 6.7 3.7 10.6 10.9 12.8.9.3 1.9.5 2.9.7 6.8 1.5 13.5.4 20.2-.5 2.2-.3 4.4-.8 6.6-1.2v-28.5c-3.5-.4-6.6-.9-9.7-1.1-4.2-.1-8.3-.3-12.3.1zM948.8 334.6c-4.9-14.2-23.9-18.8-34.7-8.2-4.9 4.8-7 11-7.9 18h44.2c-.1-1.6 0-2.8-.2-4.1-.4-1.9-.8-3.9-1.4-5.7zM438.6 323.7c-7.7-4.5-15.8-4.2-23.3.5-7.2 4.5-9.5 12-10.6 20.2H449c-.5-8.7-2.7-16.3-10.4-20.7zM689.7 323.4c-12.9-6.2-26.9-.4-31.6 13-2.1 6.1-2.8 12.3-2.5 18.7 0 2.1-.2 4.2 0 6.3.5 6.2 1.8 12.3 5 17.8 3.4 5.8 8.5 8.9 15.1 9.4 1.7.1 3.4.2 5.1.1 9.3-.2 15.5-4.9 18.7-13.3 1.5-3.9 2.5-8.1 3-12.3 1.1-9.7.8-19.4-3-28.7-1.9-4.7-5-8.6-9.8-11z"/></svg>