<svg width="335" height="113" viewBox="0 0 335 113" xmlns="http://www.w3.org/2000/svg"><g id="Page-1" stroke="none" stroke-width="1" fill-rule="evenodd"><g id="client-logo-nemours" fill-rule="nonzero"><path d="M8.4 2.4H.5V.1h20l29.1 49.4h.2v-47h-7.9V.2h19v2.3H53v67.4h-2.6L11.9 4.6h-.2V66h7.9v2.3H.6V66h7.9V2.4M95 55.6c-1.4 6.8-8.3 12-14.2 12-11.2 0-12.4-8.3-12.4-18.5v-4.3h29c-.1-11.3-7.9-18.4-18.4-18.4-12.2 0-20.2 11.2-20.2 23.4 0 11.5 10 19.9 20.5 19.9 9 0 16-4.5 18.1-14.2H95v.1ZM68.5 41.8c.1-2.6.5-5 1-6.8.2-.7 3-6.6 9.1-6.6 5.1 0 9.4 2.4 9.4 9.8v3.6H68.5Zm98.6 23.7v2.3h-18.9v-2.3h5.8v-29c0-4.8-2.4-7.1-5.8-7.1-6.3 0-11.5 9.1-11.5 14.7v21.4h5.4v2.3h-18.9v-2.3h5.4v-29c0-4.8-2.4-7.1-5.8-7.1-6.3 0-11.5 9.1-11.5 16.8v19.2h5.8v2.3H98.2v-2.3h5.2V29.7h-5.2v-2.3h1.6c3.8 0 7.8-.1 11.5-1v9.7h.2c3.6-5.8 6.3-9.7 13.8-9.7 5.9 0 10.4 3.5 10.9 9.6h.2c3.3-5.6 7.5-9.6 14.2-9.6 3.8 0 11.1 1.4 11.1 12v27.2l5.4-.1m20.6-39c-10.7 0-19.8 9.1-19.8 21.6 0 12.6 9 21.6 19.8 21.6 10.7 0 19.8-9.2 19.8-21.6 0-12.5-9-21.6-19.8-21.6Zm0 2.1c10.4 0 10.5 10.9 10.5 19.6 0 8.7-.1 19.6-10.5 19.6s-10.5-10.9-10.5-19.6c.1-8.7.2-19.6 10.5-19.6Zm64.9 39.7h-2.2c-3.7 0-7.5.3-11.2.7v-8.4h-.2c-2.6 5.6-8.2 9.1-14.9 9.1-10 0-12.1-5.1-12.1-10V29.8h-5.5v-2.4h2.1c3.8 0 7.8-.1 11.5-1v32.4c0 6.3 3.2 7.6 6.2 7.6 7.3 0 12.4-6.1 12.4-13.5v-23h-5.9v-2.4h2.4c3.8 0 7.8-.1 11.5-1V66h5.9v2.5M267.5 36h.2c1.8-4.6 6-9.6 11.6-9.6 3.6 0 6.3 1.8 6.3 5.8 0 2.5-2.6 3.8-4.8 3.8-1.8 0-4-2.1-4-4 0-.8.5-1.7.5-2.2 0-.6-.6-.6-.9-.6-.1 0-3.6 1.4-5.9 6-1.5 3-2.5 6.9-2.5 11.1v19.3h7.9v2.3h-23v-2.3h7V29.9h-7v-2.3h3.2c3.8 0 7.8-.1 11.5-1V36m45.9-8.5V39h-2.3c-1.5-6-5.1-10.2-11.2-10.6-8.4-.2-9.7 6.3-9.7 7.6 0 3 .8 4.5 16.5 7.7 7.9 1.6 10.7 5.3 10.7 11.7 0 8.9-6.7 14.2-14.7 14.2-4.3 0-8.9-1.7-11.7-5.1l-2.3 3.7h-2.3V54.6h2.3c2 7.5 7 12.9 14.5 12.9 4.6 0 9.9-3.6 9.9-8.9 0-4-5.6-5.9-14.2-8.1-6.8-1.6-12.7-2.5-12.7-11.5 0-4.4 2.6-12.7 13.8-12.7 3.2 0 6.3 1.3 9.6 3.8l1.8-2.8 2 .2M205.3 88.6l.7.2c.2 0 .3-.1.6-.1.2 0 .3.3.6.3.1-.1.1-.1.2-.1.2 0 .3.1.6.1s.6-.3.8-.1v.1h.5v.1c-.7.1-1.4 0-2.1 0-.3 0-.6.1-.9.1l-.5-.1h-1c-.2 0-.3-.1-.6-.2h-.2c-.1 0-.2-.1-.2-.2.3-.1.9 0 1.4 0l.1-.1m7.7 0c.5 0 .8.1 1.2.1h1.7c.3-.1.8.1 1 .1h.8c.1-.2.5 0 .5-.1.2 0 .5-.1.7 0 .1 0 .2.1.3.1h.9c.2 0 .3.2.6.2 0 0-.1 0 0 0 .1-.1.3-.1.5-.1.1 0 .2.1.5.1h1.5c.2 0 .3.1.6.1s.3 0 .5-.1c.5 0 .8.1 1.3.1h.6c.1 0 .2.1.2.1 0 .1-.2.1-.5.1-.2 0-.5 0-.7-.1h-.8c-.2 0-.3 0-.6-.1h-.3c-.2 0-2.1-.1-2.1-.2-.1 0-.5-.1-.5 0s.2.1.3.1v.1c-.3 0-.5-.1-.8-.2h-2.1c-.2 0-.3-.1-.6-.1-.1 0-.2.1-.5.1-.1 0-.5 0-.5-.1h-2.2c-.3 0-.7-.1-1-.1-.1 0-.2 0-.2-.1 0 0-.1-.1-.1 0v.2c-.2 0-.5-.1-.8-.1h-.8s0-.2-.1-.2l-.1-.1s0-.1.1-.1h.2c.2-.1 1 0 1.4 0l-.1.3m-2.6 0c.2 0 .9 0 .9.2h-.1c-.3.1-.7 0-.8-.2m-46.9-1c.1 0 .2 0 .3.1v.1c-.1 0-.5.1-.5-.1.1 0 .1-.1.2-.1m-.8 1c.1 0 .2.1.2.2-.1 0-.6 0-.6-.1.2-.1.3-.1.4-.1m6.3 0c.1 0 .2.1.2.2h-.3s0-.1.1-.2c0 .1 0 0 0 0m16 0c.2 0 .3 0 .6.1v.1c-.1 0-.2.1-.5 0 0 0-.1 0-.1-.1-.1 0 0 0 0-.1m8.8 0c.1 0 .2.1.3.1v.1c-.2 0-.6 0-.7-.1 0-.1.3-.1.4-.1m-49.3-1c.1 0 .3.3.1.3h-.1s-.1-.2 0-.3m31.9 1h.7v.1c-.1 0-.5.1-.7-.1m3.9 0c.1 0 .2.1.3.1 0 .1 0 0 0 0-.1.1-.5 0-.3-.1m1.7 0h.7v.1c-.1 0-.6.1-.6 0h-.1v-.1m6.7 0c.1 0 .3.1.3.2-.1 0-.3 0-.3-.2 0 .1 0 0 0 0m-13.1 0c.1 0 .2.1.2.2 0 0-.1 0-.1.1h-.1c-.1-.1 0-.2 0-.3" id="Shape"/><path d="M176.5 88.6h.2v.1h-.2c-.1 0-.1 0 0-.1m51.2.9c.3.1.5 0 .9 0 .5.1.9.1 1.3.2.1 0 .1 0 .1.1h-2.7c.1-.2.3-.2.4-.3m-77.4-.9c.1 0 .3.1.5.1-.1 0-.7 0-.7-.1 0 .1.2 0 .2 0m-4.3 0c.1 0 .2.1.3.1v.1h-.9v-.1h.3c.2 0 .2 0 .3-.1" id="Shape"/><path d="M145.4 88.6c.1 0 .1 0 .1.1v.1h-.3c.2 0 .2-.1.2-.2 0 .1 0 .1 0 0m50 .9c.2 0 .5.1.6.1h1.2v.1c-.3.1-.3 0-.6 0-.5 0-.8.1-1.2 0 0 0-.1 0-.1-.1l.1-.1c-.1.1 0 0 0 0m33.7 0c.1 0 .7.1.7.1-.1 0-.3.1-.5.1.1 0-.3-.1-.2-.2m-47.1 0h1.8v.2c-.3.1-.7 0-1-.1-.2 0-.4.1-.8-.1m15.1 0h.9v.1c-.2 0-.5 0-.9-.1m9.5 0h.7v.1c-.3 0-.5 0-.7-.1m3.2 0c.1 0 .6 0 .6.2-.1.1-.2.1-.2.2-.1 0-.7.1-.7 0 0 0 .2-.1.1-.1 0 0 0-.1.1-.1 0-.1 0-.1.1-.2m20.2 1h1.5c.1 0 .3.1.5.1v.1c-.1 0-.2.1-.3.1-.2 0-.5-.1-.7-.2h-.2c-.3 0-.5 0-.8-.1m2.9 0c1 0 2.1 0 3.2.1.1 0 .2.1.3.1.2 0 .5 0 .8.1.1.1.3.1.5.1.6 0 1.3.1 1.8.1.1 0 .2.1.5.1h.6c.2.1.5.2.7.2h1.7c.3 0 .7.1 1 .2h.8c.6.1 1 .2 1.6.2.2.1.3.1.6.1.1 0 .1.2.2.2v.1c-.3 0-.6-.1-.8-.1-.1 0-.2-.1-.3-.1-.3-.1-.7 0-1 0-.3 0-.8-.1-1.2-.2-.2 0-.3 0-.6.1-.2 0-.5-.2-.8-.2-.2 0-.5.1-.7.1-.2 0-.3-.1-.6-.1s-.7.1-.9 0c-.8 0-1.5-.1-2.2-.3-.1 0-.3-.1-.5-.1-.3-.1-.7 0-1.2-.1-.2 0-.5-.1-.6-.1h-.8c-.3 0-.7-.2-1-.3-.4-.1-.8.2-1.1-.2m-20.9-1c.3 0 .6.1.9.1h.1c.3.1.7.1 1.2.1v.1c-.2 0-.5-.1-.8 0-.2 0-.5.2-.7.1h-.1c-.1.1-.1.1-.2.1-.2 0-.9-.2-.9-.3-.1-.1.2-.1.5-.2m-4.5 0c.1 0 .7 0 .7.1v.1c-.3 0-.5 0-.7-.2m7.7 1h1c.1 0 .2.1.3.2.2.1.6.1.9.1.2-.1.6 0 .8 0h1s.1.1.1 0h.1s.1 0 .1.1-.2.1-.3.2l-.2.2h-.1c0-.1 0-.2-.1-.2-.3-.2-2.6.1-2.6-.3-.2 0-.9 0-1-.1 0 0-.1-.1 0-.1-.1-.1 0-.1 0-.1m5.6 0c.5 0 .9.1 1.3.2h.7c.1 0 .2 0 .5.1.3 0 .6-.1.9-.1.2 0 .6.1.8.1.1 0 .3.1.3.2-.3.1-.6 0-.9 0h-.8c-.2 0-.5 0-.8.1h-1.9c-.1 0-.2-.2-.2-.3 0-.3.1-.3.1-.3m5.8 0c.3 0 .6.1.9.1.3-.2.6 0 .9.1h.5c.1 0 .2.2.3.2v.1h-.5c-.2 0-.2-.1-.2-.1h-.2c-.2 0-.6-.1-.8-.1-.3 0-.6.1-.8 0-.1 0-.2 0-.2-.1-.1-.2 0-.2.1-.2" id="Shape"/><path d="M236.7 90.5h.5v.1c-.1.1-.3.1-.5.1v-.2m-96-1h.8v.1h-.2c0 .1.1.2.1.3h-.1v-.3c-.3.1-.5.1-.6-.1 0 .1 0 .1 0 0 0 .1 0 0 0 0m78.3 1h.2s0 .1-.1.1c1 0 2 .1 3 .1.1-.1.5 0 .6 0h1.7v.5h-.8c-.3 0-.6-.1-.9-.2-.8-.1-1.6 0-2.5-.1-.2 0-.6 0-.9-.1-.2-.1-.3-.3-.3-.3-.1 0-.3-.1-.2-.1.1.1.2.1.2.1m5.5.9c.1 0 .3.1.3.1.1-.1.3-.1.5-.1v.3c-.1 0-.3-.1-.5-.1h-.4l.1-.2m-32.9 0c.2 0 .3.1.6.1h1.1c-.1 0-.2 0-.3.1-.1 0-.2 0-.5-.1-.2 0-.5.1-.7.1-.1 0-.2-.1-.5-.1v-.1h.3m34.9 0c.1 0 .3.1.5.1h1.4c.2-.1.5.1.7.1 0 .1 0 0 0 0 0 .1-.1.2-.1.3h-.5c-.1-.1-.3-.1-.5-.2h-.5c-.2 0-.2-.1-.5-.1-.2 0-.5.1-.8 0-.1 0-.2 0-.2-.1l.5-.1m-19.5 0c.1 0 .5.1.5.3-.2.1-.3.1-.6.2-.1 0-.2.1-.2.1v-.1c.1-.2.2-.4.3-.5m22.9 0c.5 0 .9.1 1.4.1.1-.1.3 0 .5 0 .2-.1.5.1.7.1h.8c.1 0 .2.1.3.1.6 0 1.3.1 1.8.1.1 0 .2 0 .5.1h.6c.2 0 .3.1.6.2h1.6c.2.1.5.1.7.1.2 0 .3.1.6.1h.7c.3 0 .8.2 1.2.2.3.1.6 0 .9.1.1 0 .3.1.5.1 0 .1 0 0 0 0v.1c-.1 0-.2 0-.3.1-.3 0-.8-.1-1.2-.1h-1c-.1 0-.1-.1-.2-.1s-.2-.1-.5-.1c-.1 0-.1-.1-.2-.1-.2 0-.3.2-.6.1-.2 0-.5-.2-.7-.2-.2 0-.3 0-.6.1-.3 0-.6-.1-.9-.1-.2 0-.5.1-.7.1-.2 0-.3 0-.6-.1h-.3c-.2-.1-.5-.1-.8-.1h-.6l-.5-.1c-.5-.1-.9 0-1.4-.1-.3-.1-.8 0-1.2-.1-.3 0-.7-.2-1-.3-.2 0-.5 0-.7-.1-.1 0-.2-.1-.2-.1.3-.1.6-.1.8-.1m-35.5 0h.9v.1c-.4 0-.7 0-.9-.1m8.4 0h.7v.1c-.3 0-.5 0-.7-.1m6.4 0c.7.1 1.3.2 2.1.2v.1c-.2 0-.5-.1-.8 0-.3.1-.8.3-1 .2-.2 0-.5-.1-.7-.1-.1 0-.1 0-.2-.1v-.1c0-.2.4-.2.6-.2m-4.5 0h.6v.2c-.4-.1-.5-.1-.6-.2m-64-.9c.1 0 .2 0 .2.1-.1-.1-.2-.1-.2-.1m77.4 1.9c.7.1 1.4.1 2.1.2.1 0 .3.1.5.1-.2.1-.6.1-.9.1H218v-.1c0-.1 0 0 0 0 0-.2 0-.2.1-.3m3.3 0c.2 0 1 .1 1 .2v.1c-.3 0-.7-.1-1-.1-.2 0-.3 0-.6.1-.1 0-.2-.1-.2-.1v-.1c.2-.1.5-.1.6-.1h.2m1.5 0c.3 0 .6.1.9.1.2 0 .3 0 .6-.1.3 0 .6.1 1 .1.2-.1.9.2.9.5-.2.1-.7.1-.8-.1-.1 0-.1-.2-.2-.2 0 0-.2-.1-.2 0s-.1.1-.1.2h-.1v-.1c-.1-.3-.9-.3-1.3-.2-.1 0-.2.1-.3.1-.2 0-.3-.1-.5-.1s-.1 0-.1-.1c0 0 .1-.1.2-.1m3.6.9c.1 0 .5 0 .5.1v.1c-.1 0-.7 0-.7-.1.1-.1.1-.1.2-.1m17.7 0c.5.1 1.2 0 1.6.1.2 0 .3.1.5.1 0 0 .1 0 .1-.1h.1c.2.2 1.5.1 2 .2.2 0 .5.1.7.1h.6c.9.1 1.8.2 2.8.3.3 0 .6.1.9.2h.5c.2 0 .2 0 .3.1h.7c.2 0 .3.1.6.1 0 0 .1 0 .1-.1.2.1.5.1.8.2h.1c.5.1.9.1 1.4.2.2.1.5.1.7.2h.7v.1c-.1 0-.5 0-.5.1-.1-.1-.2 0-.3-.1h-.9c-.2 0-.5.1-.7.1h-.2V95s.2 0 .2-.1v-.1h-.5v.3h-.1c0-.1 0-.2-.1-.2h-.3c-.3 0-.6-.1-.9-.1-.2 0-.2-.1-.5-.2-.2-.1-.8 0-1 0h-1.4c-.3 0-.7-.2-1-.2-1-.1-2.1-.1-3.2-.1-.2 0-.5-.2-.7-.2H246c-.3 0-.8 0-1.2-.1-.2-.4-.6-.6-.6-.7m-16.5 0c.1 0 .3 0 .3.1-.1 0-.8 0-.8-.1h.5m5.7 0c.2 0 .6.1.6.5h.1c0-.2 0-.3.2-.3.1-.1.3.1.3.3-.1 0-.1-.1-.2-.1v.1h1.2c0 .1-.1.1-.1.2h.1c-.3.1-.9.1-1.3 0 0 0-.1 0-.1-.1s-.1-.2-.1-.2h-1.2v-.5c.1.1.4.2.5.1" id="Shape"/><path d="M233 93.3s.1.1.2.1h-.2c-.1 0-.1 0 0-.1m3.7 0c.1 0 .7 0 .7.1-.1.1-.7.1-.7-.1-.1.1 0 .1 0 0m.5.9c.1 0 .3.2.3.3h-.9c0-.1 0 0 0 0 .1-.1.3 0 .6 0 .1-.2.1-.2 0-.3m2.6 0h.6c.1 0 .2 0 .3.1 0 .1-.1.2 0 .2s.6 0 .6.1h-.8c-.1 0-.2-.1-.3-.1-.2-.1-.5-.1-.7-.2 0 0-.1 0 0-.1.1.1.2.1.3 0m-2.2 0h.6v.1c-.2 0-.4 0-.6-.1m3.7 0h.5c.2 0 .2 0 .3.1-.2.2-.5.2-.8-.1.1.1 0 0 0 0m1.1 0c.1 0 .7 0 .7.1h-.1c-.4.1-.6.1-.6-.1m8.4 0h.9v.1c-.3.1-.7.2-.9-.1m-3.8 0h.3c0 .1-.1.1-.2.1 0 .1 0 0-.1-.1" id="Shape"/><path d="M247.1 94.2c.2 0 .5.1.7.1.1 0 .1.1.3.1h.5c.2.3.5.2.8.2.2 0 .5 0 .7.1.3-.2.3 0 .7 0-.1.1-.6.1-.6.2-.1 0 0 0 0 0-.1-.1-.2-.1-.3-.1-.2 0-.3.1-.6.1-.1 0-.2 0-.3-.1-.2 0-.9 0-.8-.3h-.6c-.1 0-.2 0-.3-.1-.3 0-.3-.1-.2-.2m-.6 0c.1 0 .5.1.3.1 0 .1-.1.3-.2.3l-.1-.1h-.3c0-.1.1-.1.2-.1 0-.1 0-.1.1-.2m-2.3 0c.1 0 .2 0 .2.1 0 0-.1 0-.2-.1 0 .1 0 0 0 0m.9.9h.3c.1.1.1.1-.3 0m15.1 0c.3.1.8.1 1.2.2.1 0 .3.1.5.1.2-.1.7.1 1 .1 0 .1.1.2.1.3-.1 0-.2-.2-.3-.2h-.5c-.2 0-.3.1-.6.1-.1 0-.2-.1-.5-.2-.2 0-.6 0-.8-.1 0 .1-.1-.2-.1-.3m-8.3 0c.2.1.5.1.8.1v.1h-.7c-.1 0-.1 0-.2-.1 0 .1 0 0 .1-.1m12.3 0c.5 0 .8.2 1.3.2h.3c.1 0 .3.1.6.1.6 0 1.3.2 2 .2.1 0 .3.1.5.1.6 0 .6.1 1.2.1l.6.1h-.6c-.3 0-.8-.1-1.2-.1-.4 0-.5-.2-.8-.2-.3 0-.8-.2-1.2-.1h-1.3c-.1 0-.2 0-.3-.1-.1 0-.5.1-.5 0-.1 0-.8-.1-.8-.1.1 0 0 0 0 0 .1-.1.1-.2.2-.2m-7.7 1.1c.1 0 .8.1.8.2v.1c-.1-.1-.8-.1-.8-.3-.1 0-.1 0 0 0m1.9 0c.1 0 .3.1.5.1h-.5v-.1m.9 0h.7c.2 0 .3.1.6.1.2-.1.5.1.7.1h.6c.2.1.3.1.7.1.2-.1.6-.1.8 0 .1 0 .2.1.3.1v-.1c.2-.1.5.1.6.2.2 0 .3.1.6.1-.3 0-.8.1-1.2 0-.2 0-.3-.2-.6-.2h-1c-.3 0-.8-.1-1.2-.1h-.6c-.1-.1-.2-.1-.3-.2-.2-.1-.6-.2-.8-.2l.1.1m0 .9c.1 0 .5 0 .5.1-.3-.1-.4 0-.5-.1m7.6 0c.2 0 .3 0 .6.1v.1c-.1-.1-.7 0-.6-.2m-6.7 0h.9v.1c-.2 0-.7 0-.9-.1m7.5 0h.9-.1c-.1.1-.1.1-.2.1.1.1-.6-.1-.6-.1m2.9.9c.1 0 .9.1.9.1-.3.4-.8.2-.9-.1m2.1 0c.1 0 .2.1.3.1h.2s.2 0 .2.1v.1h-.9v-.1c0-.2 0-.2.2-.2M25.1 94.2c.2.1.5.1.8.1v.1c-.2 0-1.8 0-1.8-.1.1 0 .5 0 .5-.1 0 .1.3.1.5 0m-2.7 0h.6v.1c-.1 0-.9.2-.9.1 0-.2.2-.1.3-.2M267 98.9c.5.1.8.3 1.2.3 0 .1.3.3.5.3v.3c-.5 0-.9-.1-1.4-.2v-.2c-.1-.1-.3-.3-.6-.3.2-.1.2-.1.3-.2" id="Shape"/><path d="M266.9 98.9h.2c-.1.1-.1.2-.1.3-.1.1-.2-.2-.1-.3-.1 0 0 0 0 0M19.6 95.1c.1 0 .6 0 .6.1h-1v-.1c.1.1.2.1.4 0m250.3 3.8c.5 0 1.2.2 1.6.2v.1c-.2 0-.6-.1-.8-.1-.1 0-1.5.2-.9-.2 0 .1 0 .1.1 0m-.2.9c.1 0 .2 0 .2.1h-.1c-.1.1-.1.1-.1-.1M17.4 95.1h.8v.1c-.4.1-.7.1-.8-.1m.9 0c.2 0 .9 0 .9.2-.2.2-.8 0-.9-.2m254.4 4.7c.5.1.9.1 1.4.2 0 .1 0 .2.1.2h.1v-.1c.1.1.1.2.1.3-.3 0-.6-.1-.8-.2-.2 0-.6-.1-.8-.1-.1 0-.1-.1-.2-.1 0-.1 0 0 0 0-.1 0-.1 0 .1-.2m4.1 1c.1 0 .2.1.3.1h1.2c.2 0 .2.2.5.2.2.1.6 0 .8.1.1 0 .2.1.3.1v.1c-.3.1-.7 0-1-.1h-.6c-.1 0-.2-.1-.3-.1-.3 0-.8 0-1.2-.1-.2 0-.3-.1-.6-.1v-.1c.1-.1.1-.1.2-.1.2.1.3.1.4 0m4.1 0h.6l.2.2v.3c-.1 0-.1-.1-.2-.1-.2-.1-.3 0-.6 0-.1 0-.1-.1-.2-.1.2-.1.2-.2.2-.3 0 .1 0 .1 0 0M8.2 96.2c.1 0 .7 0 .7.1-.2 0-.6 0-.7.1 0 0 0 .1-.1.1-.1.1-.3.2-.5.2l-.6-.2c0-.1.2-.1.3-.1.3-.1.6-.1.9-.2m274.7 5.6c.3 0 .6.1.8.1v.1c-.5 0-.5.1-.8-.1 0 0-.1 0-.1-.1h.1m1.7 0c.2 0 .3.1.6.1.1-.1 2.8.5 3 .6.1 0 .1.1.1.2-.2 0-1.7-.2-1.8-.2-.1 0-.3-.1-.5-.1-.3-.1-1.4-.1-1.4-.6M6.4 97.1h.5v.3c-.6.1-1 .6-1.7.1-.1-.1-.2-.1-.2-.2.6-.2 1.1-.1 1.4-.2m268 4.7c.2.1.5.1.7.1v.1h-.8c0-.1 0-.2.1-.2m1 0c.1 0 .7 0 .7.1-.1.1-.1.1-.2.1s-.7-.1-.7-.1c.1-.1.2-.1.2-.1m1.9 0h.5v.3h.3c-.5.2-.6-.3-.9-.3-.1.1-.1.1.1 0m.9 0c.2 0 .5 0 .7.1v.1h-.9l.2-.2m.9.9c.2 0 .3 0 .6.1v.1c-.3-.1-.7-.1-.6-.2m.9 0h1.2c.2 0 .3.1.6.1.1 0 0 .1.1.1s.8 0 .8.1v.1h-1.3c-.3 0-.6-.1-.9 0-.1 0-.2.1-.2 0-.1 0 0 0 0 0h.1c-.1 0 0 0 0 0-.1 0-.5-.1-.5-.1.1-.2.1-.2.1-.3m23.5 3.7c.2 0 .8 0 .9.2-.3.1-.8.1-.9-.2m-19.6-3.7h.9c.2.2.7.1 1 .1.1 0 .2.1.3.2.1 0 .2 0 .2.1.1.1.2.1.3.2.2.1.7 0 .9.1h.7v.1h-1.4c-.2 0-.5-.1-.8-.1-.5-.6-1.5-.2-2.2-.3 0 0-.5-.2-.2-.2.2-.1.2-.2.3-.2M3.3 98h.2v.1h-.3l.1-.1c-.1.1 0 0 0 0m169.5 3.8h.3v.1h-.4l.1-.1c-.1 0-.1 0 0 0m4.6 0h.2v.1h-.2v-.1m.9 0h.7v.1c-.2-.1-.5 0-.7-.1m97.3-2.9c.5 0 .7.2 1.3.2.1 0 .1.1.3.2 0 0-.5-.1-1-.1-.2 0-.5-.1-.7-.2-.1 0-.1 0-.1-.1h.2c-.2 0 0 0 0 0m-77.8 3.8s.3.2.2.2c-.2.1-.5.1-.7 0-.1 0-.2-.1-.2-.1.2 0 .5 0 .7-.1m-38.1-.9c.1 0 .7.1.7.2-.1 0-.3.1-.5.1-.1 0-.2 0-.3-.1v-.1l.1-.1m14.2 0h.2v.1c-.1 0-.3 0-.3-.1h.1m2.5 0c.2 0 .5 0 .7.1 0 .1 0 0 0 0v.1c-.1 0-.7 0-.7-.2" id="Shape"/><path d="M178.9 101.8c.1 0 .3.1.3.2h-.1c-.1.1-.7 0-.8-.1h.1c.1-.1.3-.1.5-.1m34.8.9s.6.1.3.1c-.1.1-.2.1-.5.2-.1 0-.1 0-.2-.1-.1 0-.1.1-.1.1v-.3c.1 0 .2 0 .3.1.1-.1.1-.1.2-.1m-56-.9c.2 0 .5 0 .7.1v.1h-.7c-.1-.1-.1-.2 0-.2-.1 0-.1 0 0 0m9.5 0c.1 0 .7 0 .7.1h-.1c-.2.1-.5.1-.8.1 0-.1 0 0 0 0v-.1c.1-.1.2-.1.2-.1m6.7 0h.2c-.1 0-.6 0-.6-.1.2.1.4.1.4.1m3.5 0c.1 0 .5 0 .5.1-.2 0-.5 0-.5-.1m-21.6 0h.6v.1c-.4 0-.5 0-.6-.1m30 .9h.7c.1 0 .2.1.2.1v.1h-.9v-.2m31.1 0h.6c-.2 0-.6.2-.6 0m57.4-4.7c.2 0 .6 0 .6.2-.3 0-.5 0-.6-.2m-102.5 3.8h.7v.1h-.5c-.2 0-.3-.1-.2-.1m-25.6 0 .5.1c.1 0 .1 0 .2.1h.3v.1h-.1c-.5.2-1.2.1-1.7.1-.1 0 0 0 0-.1v-.1c.2-.2.6-.2.8-.2m69.8 1.8c.2 0 .5 0 .7.1-.4.2-.5.1-.7-.1m72.5-1.8c.2.1.6.2.7.3 0 0 .1.1 0 .1-.2 0-.3-.2-.5-.2-.1 0-.2 0-.3-.1l-.1-.1h.2c0-.1 0 .1 0 0m5.6 2.9c.1 0 .9-.1.9 0-.1 0-.6.3-.6.1l-.3-.1m-15.9-5.8c.1 0 .8 0 .8.1l.1.1h-.1c-.2 0-.8 0-.8-.2-.1.1-.1.1 0 0m-28.2 5.7c.6.1 1.2.1 1.7.1v.1c-.3 0-1.8.1-1.7-.2-.1 0 0 0 0 0m3.7 0h.2c.1-.1.6 0 .7 0-.4.2-.8.3-.9 0m36.7.9c.1 0 .8 0 .8.1v.1c-.1 0-.9.1-.9-.1.1 0 .1 0 .1-.1m-9.1 0c.6.1 1.3.1 1.8.2h.1c.2 0 .3.2.6.2.1 0 .2.1.3.1.1 0 .3-.1.5-.1s1.5.2 1.6.2c.2 0 .6.1.9.1h.2s0 .1.1.1v.1c-.7 0-2.8-.1-3.3-.2-.1 0-.1 0-.2-.1-.1 0-.2 0-.5-.1-.1 0-.2-.1-.3-.1h-1.7c-.1 0-.5 0-.5-.1 0 0-.1-.1 0-.1.2-.1.3-.1.4-.2m1.5-5.7c.2 0 1.8 0 1.8.2-.2.1-.3.1-.7.1v-.1c0-.1-1 0-1.2 0 .1.1.1 0 .1-.2m-2.8 5.7c.1 0 .2 0 .2.1-.1 0-.2 0-.2-.1m11.5 0c.3 0 .7 0 .9.1.1 0 .9.1 1 .1.8.1 1.3.3 1.2.2-.1 0 1.2-.2 1.2.3v.1c-.3 0-1.5-.2-1.8-.2-.3 0-1.8-.1-1.7-.6-.2 0-.6.1-.8.1h-.2v-.1s-.1-.1 0-.1c0 0 0-.1.1-.1.1.4.1.3.1.2m-5.8-4.7c.2 0 .3.1.6.1v.1h-.1c-.3.1-.7.1-.5-.2M279 99c.1 0 .7 0 .7.1v-.2h-.2c-.2 0-.3.4-.5.1m5.6.8c.3 0 .6.1.8.1v.1c-.2.1-.5.1-.8-.2m2.8 6.7s-.7 0-.7.1h-.1c.1 0 0 0 0 0 0-.2.8-.1.8-.1m-177.8-3.8h1.8c.1 0 0 0 0 0v.1c-.3.1-1.7.3-1.8-.1m186.4 3.7c.1 0 .3 0 .3.1.1.1-.3.1-.3-.1-.1.1 0 .2 0 0 0 .1 0 .1 0 0m12.2 2c.1 0 .3 0 .3.1v.1c0-.1-.2-.1-.3-.2" id="Shape"/><path d="M296 106.5h.7v.1h-.1c-.2.1-.5 0-.6-.1m-202.6-2.9h.2c-.5.3-1.2.2-1.8.2.1-.2 1-.1 1.4-.1-.1.1.1-.1.2-.1m195.3 2.8h.3l.3.1v.2h-.9v-.1h.1s0-.1.2-.2m2.6-4.6c.1 0 .2.1.3.1v.1h-.3v-.2m12.2 5.6c.3.1.6.1.9.1v.1c-.1.1-.2 0-.5 0-.1 0-.2.1-.2.1-.1 0-.2-.1-.3-.1-.2 0-.3 0-.6.1v.1c0-.1-.1-.2-.2-.2.1-.2.8-.1.8 0l.1-.2c-.1 0-.1 0 0 0-.1 0 0 0 0 0" id="Shape"/><path d="M302.6 107.4h.6v.1h-.1c-.3.1-.4-.1-.5-.1m-4.7-1c.3 0 .5.2.9.2.3-.1 3 .8 3.2.9.3.1.7.1.9.2.1.1.2 0 .5.1s.7.1 1 .1c0 .1-.1.1-.1.2h-.1c-.2-.1-.3-.1-.6-.1-.1 0-.2.1-.5.1-.2 0-.5-.1-.7-.2-.2-.1-1.4 0-1.4-.3-.2 0-2.2-.6-2.5-.6-.1 0-.2-.2-.5-.2-.1.1-.2.1-.3.1h-.1s.1-.1 0-.1c.4-.2.2-.3.3-.4m8.4 1c.1 0 .3 0 .3.1h.2c.2 0 0 .3.2.3 0 .1.2 0 .2.1h-.4c0-.1-.2-.5-.2-.5-.1 0-.2.1-.2 0 0 .3-.1.2-.1 0m-15 0c.3 0 .6.2.9.2v.1h-.9v-.3m-212.4-3.8h-.3v.1c.2 0 .5.1.7.1.1 0 .2-.1.2-.1-.3-.1-.4-.1-.6-.1m203 3.8c.1 0 .9 0 .9.1h-.7c-.1.1-.4-.1-.2-.1" id="Shape"/><path d="M291.3 107.4h.5v.2c-.3.1-.4 0-.5-.2m25.5 2.8h.6v.1c-.2 0-.8.1-.6-.1m-7.6-1.8c.3 0 .6.1.9.1v.1c-.4 0-.7 0-.9-.2m.9 0c.1 0 .7.5.9.5l-.5-.2h-.5c.1-.2.1-.2.1-.3m-12.2-2.9c.1 0 .7.1.9.1v.2c-.1 0-.8-.2-.9-.2v-.1c0 .1 0 .1 0 0m-4.8 1.9h.5c-.1.2-.1.5-.5.5v-.5m2.2 0c.7.1 3.1.5 3.5.9-1.3-.1-3.1-.3-3.8-.7.1 0 .2-.2.3-.2m1 1.9c.2 0 .5.1.7.1 0 .1 0 .2-.1.3-.1.1-.6 0-.7 0h-.1v-.1c0-.1 0-.1.2-.3m8.1 0h.3v.1c-.2 0-.2 0-.3-.1m-6.4 0c.5 0 .8.1 1.3.1l.5.1v.1h-1.5c-.1 0-.2 0-.3-.1-.1-.1 0-.2 0-.2" id="Shape"/><path d="M299.1 109.3c.2 0 .3.1.6.1v.1c-.1 0-.9 0-.9-.1h.2c.1 0 .1-.1.1-.1m6 0c.2 0 .5.2.6.2.1 0 .2 0 .3.1.1 0 .1 0 .2.1v.1c-.7.1-1.2-.2-1.7-.3 0 0-.1 0-.1-.1.3 0 .5 0 .7-.1 0 .1 0 0 0 0m-2.6 0c.1 0 .2.1.2.1v.1c0 .1-.1.1-.1.2.1 0 .1-.1.2-.1.2.1.3.2.6.2.1 0 0 0 0 0v.1c-.5.1-1.2-.1-1.5-.3-.1-.1-.2-.1-.3-.1v-.2c.3.2.8.3.9 0m4.8.9c.3 0 .7 0 1 .1.2.1.5.2.8.2 0 0 .6 0 .6.2.5 0 1.3.1 1.3.2-.1 0-.1 0-.1.1-.1 0-.2-.1-.5-.1-.1 0-.7-.1-.9-.1 0 0-.5 0-.5-.1-.5-.3-1.4 0-1.7-.5 0 .2-.1.1 0 0 0 .1 0 0 0 0m8 0c-.1.1-.3.1-.5 0h.5m.5 0c.1 0 .2.1.2.2h-.1c-.1 0-.1-.1-.1-.2-.1.1-.1 0 0 0" id="Shape"/><path d="M315.8 110.2c.1.1.1.1.1.2h-.1c-.1 0-.1-.1 0-.2m1.9.9c.1 0 .2 0 .2.1-.1 0-.2 0-.2-.1m1 0h.5v.1c-.1 0-.6 0-.6-.1 0 .1 0 .1.1 0" id="Shape"/><path d="M317.7 111.1c.1 0 .3.1.3.2h-.3v-.2c0 .1 0 0 0 0m-4.7 0h.7c.1 0 .3.2.2.2-.5.2-.8.2-.9-.2m5.7 0c.2 0 .3.2.8.2-.2 0-.9 0-.9-.2 0 .1 0 .1.1 0m2.9 1.1c.1 0 .3.1.5.1v.1c-.1 0-.3-.1-.5-.1h-.2v-.1h.2m-32-9.5c.1 0 .2.1.3.1 0 0-.1 0-.1.1h-.3c0-.1 0 0 0 0 0-.1 0-.2.1-.2" id="Shape"/><path d="M289.7 102.7c.1.1.2.2.3.2h.2v.2h-.2v.2c-.1 0-.3-.1-.3-.2-.1 0-.2 0-.3-.1v-.1c0-.1.1-.1.1-.2h.2m.7.9h.2v.1c-.1.1-.2.1-.2-.1 0 .2 0 .2 0 0m15.8 5.3c-.1 0-.3-.1-.5-.2h.6l.1.1c-.1 0-.2 0-.2.1Zm5.7.8-3.1-.5-2-.3c-.2 0-.3-.1-.5-.1s0-.1 0-.1h-.2c-.5 0-1.5-.2-1.7-.1 0 .1.2.1.2.2.5 0 2.1.6 2.2.5.1 0 .2.1.3.2.1 0 .2-.1.3-.1 0-.1.3 0 .3 0h-.1v.1c-.1 0 1 .1 1.4.1.2 0 .2 0 .3.1.2 0 .9.2 1 .1.2 0 .3.1.7.1v.2-.1s.8 0 .9.1c.1 0 1.3.3 1.4.2 0 0 .2 0 .3.1-.3-.1-.9-.3-1-.3-.2-.1-.3-.2-.7-.4Zm-18.8-6.1c0 .2.2.2 0 0" id="Shape"/><path d="M292 103.4c-.3 0-.1.2-.6 0 0 0-.2.1-.2 0 .1 0 .1-.1.1-.2.2.1.5.1.7.2Zm7.8 1.5c-.2 0-.9.1-1.2 0-.1 0-.1 0-.3-.1-.2 0-.2-.1-.5-.1-.1 0-.1-.1-.1-.1-.1 0-.1 0-.1.1h-.3c0 .1 0 0 0 0s-.1 0 0 0c0 .1-.9-.3-1.2-.3-.1 0-.2-.1-.2-.1-.1 0-.3-.6-.5-.6 0 .1-.8 0-.9 0-.1 0-.1-.6-.6-.3 0 .1-.1 0-.1 0v.3c0 .1 0 .1-.1.2 0-.1-.1-.3-.1-.3-.1-.1-.1.3-.3.2-.1 0-.2-.1-.3-.1 0 .1 0-.1-.1-.1-.2 0-.3-.2-.6-.3-.1 0-.1 0-.2-.1l-.1-.1c0 .2-.8-.3-.9-.3l-.5.1c.1.2.3.1.6.2.1.1.1.3.2.3.1.1.3.1.5.2.1.1.1 0 .2.1-.5-.3.7 0 .8.1 0-.1.2 0 .3 0 .1 0 0 .2 0 .2.2 0 .2-.1.3-.3.1 0 0-.1.1-.1v-.1c0 .1 0 0 0 0 0 .1 0 .2-.1.3v.1c.2 0 .5-.2.7-.3.1 0 .1.1.1.1 0 .1.2 0 .2 0 .2 0 .5-.1.7 0 .1 0 .2.1.3.1.5.1.3.3.8.3.1 0 .6.2.6.3h.9c.3 0 .1.1.5.1.2 0 .2.1.5.1s.7.1 1.3.1l.8.3c-.3.5-1-.1-1.1-.1Zm-27.5 2c0 .1-.3 0-.3-.1.1-.1.2-.1.3.1Zm-.9-2.3h-.7c-.5-.1-.9-.2-1.5-.1 0-.1.2-.1.3-.2.1 0 .1 0 .1.1 0-.1.1-.2.2-.3.1 0 .3.1.5.1h.8c.1 0 .3.1.5.1s.3 0 .5.1.2.2.2.3c-.1 0-.3.1-.5.1 0 0-.2-.2-.4-.2Zm.1.3c-.1 0-.2 0-.3.1-.2 0-.6-.1-.8 0-.2 0-.6 0-.8-.1v-.1c.3 0 .8.1 1.2 0 .1 0 .4 0 .7.1Zm-2.5-1c-.1 0-.1.2-.2.3-.2 0-.5-.1-.7-.2h-.7c-.1 0 0-.2 0-.2 0-.1.1 0 .2 0 0-.2.5-.2.6-.2.3 0 .5.2.8.3Zm-.4 1.9c0 .1-.3 0-.3 0 0-.1 0 0 .1 0h.2Zm-.2-3.1h.2c-.1.1-.2.1-.2 0-.1.1-.1.1-.1 0 0 .1 0 0 .1 0Zm1.1 0h.3v.1h-.1c-.1 0-.2 0-.3-.1 0 .1.1.1.1 0Zm2.2.7h.2v.1c0 .1-.2 0-.2.1-.2-.2 0-.2 0-.2Zm-4.5-.8c-.3 0-1.2 0-1.5-.1.1 0 0 0 0 0 .1 0 .3 0 .5.1.5-.1.8-.2 1 0 .2-.1 0-.1 0 0Zm-.5 2.9c.1-.1.2-.1.3-.1.1.1-.2.1-.3.1Zm-.8-1.1c-.1 0-.2 0-.3-.1v-.1c0-.1.2-.1.2-.1h.1c.1.1 0 .2 0 .3Zm-.6.7s-.1 0 0 0c-.2 0-.2 0-.2-.1 0 .1.1.1.2.1Zm-.6-3c-.1 0-.2.1-.2.1-.3 0-.9-.1-1.2-.2v-.2c-.2 0-.6 0-.8-.1h.7c.1.1.3.1.5.2.3.1.7.2 1 .2Zm-1 3.7h-.6c.1-.1.3-.1.6 0Zm-1.5-2.7c.1-.1.2-.2.3-.2.1.1.3.1.5.2 0 .2-.6 0-.8 0Zm-.1.5h-.3c0-.1 0 0 .1 0h.3-.1c.2-.1 0 0 0 0Zm-.8 2.2c0-.1 0-.1 0 0 .1-.1.2-.1.3-.1h.2c0 .1-.4.1-.5.1Zm-.6-3.1c.3 0 .7-.1.9.2-.1 0 0 0 0 0h-.3c-.3.2-.4-.1-.6-.2Zm0-1.1c0 .1-.3 0-.5 0v-.1h.1c.1-.1.3-.1.4.1 0-.2 0 0 0 0Zm-.1 4.2h-.6.6Zm-.8-1.2c-.2 0-.2 0-.3-.1.1-.1.1-.1.3.1Zm0 .9c0 .1-.7 0-.8 0h-.1c.1 0 .2-.1.2-.1.3-.2.5-.2.7.1Zm-1.2-.1h-1.2c0-.2 0-.2-.2-.5.3 0 .7 0 .9.1.3.2.4.2.5.4 0 .1.1 0 0 0Zm-1.6-2.1c-.1 0-.1 0 0 0 0-.2.8-.1.9-.2h1c.2 0 .3.1.6.1v.4c0-.1 0-.1-.1-.1 0 .1 0 .1-.1.1-.3 0-.6-.1-.8-.2-.5 0-1.2.1-1.5-.1Zm-.8-.8c-.3 0-.6-.1-.9-.1v-.1h.2c.3 0 .7 0 .9-.1.3 0 .8 0 1 .2.1 0 0 0 0 .1-.1 0-.3 0-.5.1-.1 0-.4 0-.7-.1Zm-.4.8c-.2 0-.6-.2-.7-.5h.5c.4 0 .4.1.2.5Zm-.8-3.5c0-.2.2-.2.3-.2v-.1c.2 0 .3.2.6.2.7 0 1.4.1 2 .1.2 0 .8.3.9.3 0 0 .2-.2.3-.2 0 .2-.1.2-.2.3 0 .1.1.1.1.1 0 .1-.2.1-.3.1-.3 0-.6-.2-.9-.2-.1 0-.3 0-.5-.1s-.6-.2-.8-.1h-.5c-.2 0-.6-.2-.8-.1 0 .1-.2.1-.2-.1-.1.2 0 .2 0 0Zm-.1-.1c-.1 0-.1.1-.1.1-.2 0-.5-.1-.6-.1-.2 0-.3.1-.6.1-.1 0-.7-.2-.8-.2.1 0 .1 0 .1-.1 0 0-.3 0-.5.1-.1 0-.1-.1-.2-.1h-1.3c-.1 0-.3-.1-.5-.1h-.6c-.3-.1-.8-.2-1.2-.2h-.6c-.1-.1-.2-.1-.5-.2h-.1c-.2 0-.5 0-.6-.1-.1 0 0 0 0 0s.1 0 .1-.1c0-.2-.8-.2-1-.3-.1 0-.3-.2-.5-.2h-.4c-.3 0-.8 0-1.2-.1-.4-.1-.6-.2-.9-.2-.1 0 0-.1 0-.2.3 0 .7-.1.9-.2.1 0 .2.1.3.1-.1 0-.2.1-.3 0v.1c.3 0 .7 0 .9.1.2 0 .3.1.6.1h.6c.1 0 .1 0 .2.1.3.1.7.1 1 0 .1 0 0-.1 0-.1.1 0 .1.1.2.2.1 0 .2.1.3.1h.5-.1c0 .1.1.1.2.2.2 0 .3-.1.6-.1.2 0 .5.1.7.1.1 0 .3 0 .5-.1v-.1h-.8c-.1 0-.2 0-.3-.1.5 0 1.5-.2 1.7.2.2 0 .3.1.6.1s.3.1.6.1h.8c0 .1-.1.2-.1.2-.2 0-.5-.1-.6-.1h-.3c-.5 0-1-.1-1.4.1h-.5c-.3 0-.9-.1-1.2.1v.1c.8 0 2.2-.3 2.8.2 0 .1.1 0 .1 0 .7 0 1.4.2 2.1 0 0 .3.9.3 1.2.3l.2.2Zm-.9 2.3h-.3.3s-.1 0 0 0Zm-1.8-.3c-.2 0-.2 0 0 0 0 .1-.1.1-.1.1-.1 0-.2-.1-.2-.1h-.3c0-.1 0 0 0 0s.2-.1.6 0Zm-6.5-3.1h-.2c-.1 0-.2 0-.3.1h-.6c-.1-.1-.3-.1-.5-.2v-.1c.1 0 .2 0 .2-.1h.6c.2 0 .5 0 .7.1.1.1.1.2.1.2Zm-1.1 5.2c-.2 0-.3.1-.6.1s-.6-.1-.9 0c0 .2.3.2.5.2h-.8c0-.1-.1-.2-.1-.3-.1 0 .5-.3.6-.3v-.1c-.1 0-.1-.1-.2-.1h.6c.1 0 .3.1.5.1s.6 0 .7.2c-.2.2-.3.2-.3.2Zm-2-3.4c-.3 0-.9.6-1.2 0h-.3c0-.1-.1 0-.2 0s-.2-.1-.3-.1v-.1c.1 0 .1-.1.2-.1l.6.1c.2 0 .6-.1.8-.1.1.1.3.2.4.3 0-.1 0-.1 0 0Zm-.6 3.5c-.3 0-.5.2-.7-.1.1 0 .1-.1.2-.1s.2.1.3.1c.3 0 .2.1.2.1Zm-.9.2c0 .1-.1 0 0 0-.2.1-.3.1-.5 0v-.1h-.1c-.1 0 0-.2 0-.2h.5c0 .1 0 .1.1.2h-.2l.2.1-.1-.1c0 .1.1.1.1.1Zm3.2-3.2c0-.1-.2-.2-.3-.2-.1 0-.2 0-.2.1-.3.1-.8 0-.9-.2-.1 0 0 0 0-.1s.1-.1.2-.1c.3 0 .6.1.9.1.1 0 .3 0 .5.1v.1l-.2.2Zm-3.8-2.8c0-.1.1-.1 0 0 .5 0 .8 0 1.2-.2.5 0 .8.2 1.2.2h.6v.3c-.1 0-.1 0-.2.1-.3 0-.6-.1-.9-.1-.1 0-.2-.1-.3-.1-.5 0-.9 0-1.3-.1-.2 0-.3 0-.3-.1Zm-.3-.6h-.2v.1h-.3s.3.1.3.2v.1c-.1 0-.1 0-.1.1-.1 0 0 .1 0 .2-.1 0-.3 0-.5.1-.1 0-.1-.5 0-.5 0-.2-.6-.2-.7-.2-.1 0 0-.1 0-.1-.1 0 0 0 0 0 .2 0 .3 0 .6-.1.3 0 .8 0 1.2-.1h.1l.2.2c-.1 0-.1.1-.1.1-.3-.2-.4-.2-.5-.1Zm.1 6.4c-.1.1-.2 0-.2 0-.1 0 0-.1 0-.2.1.1.2.1.2.2 0-.1 0 0 0 0Zm-.7.1h-.3c-.2 0-.6.1-.6-.2h.9v.2Zm-1.4-.8c.1 0 .1-.1.2-.1h.7c.1 0 .1.2.1.3h-.6c0-.1-.1-.1-.4-.2Zm1.1-3.1s-.3.1-.3-.1c0 0 .1 0 .3.1Zm-.4-2.3c0 .1 0 0 0 0 0 .1-.1.1-.1.1-.2 0-.6 0-.7-.2.2.1.6-.1.8.1Zm-.9-1.4c.1 0 .2 0 .3-.1 0 0 .2.1.1.1.1.1-.2.1-.4 0Zm1 .2h.7c0 .1.1.1.1.1-.2 0-.6-.1-.7.1h-.2c0-.1 0-.1.1-.2Zm11.4.4c.1 0 .2.1.3.2h-.2c-.2 0-.5 0-.6-.1 0 .1.5-.1.5-.1Zm2.6 1.6c.2.1.3.1.6.2v.1c-.1 0-.8.1-.7-.1-.2-.2-.1-.2.1-.2Zm.5.1h.2c.1 0 0 0 0 0 0-.1.7-.1.9-.1v-.1c-.1 0 0 0 0-.1.2 0 .9 0 .9.1.1 0 .1 0 .2-.1 0 .1 0 .1.1.1.2.2.5 0 .8.1.2 0 .5.1.8.1.1 0-.1.2-.1.3h-.2c-.3 0-.7 0-.9-.3h-.1c0 .1 0 0 0 0h-.6v-.1c0-.1-.1 0-.2 0-.2 0-.3.1-.6.1-.1 0-.3-.1-.6-.1 0 .2-.3.2-.6.1Zm1.1-1.3h.1v.1h-.3c.1-.1.2-.1.2-.1Zm3.3 3.7h.3v.1c-.2 0-.2 0-.3-.1Zm1.7 1.6c-.1 0-.2.1-.3.1-.2 0-.6 0-.7.1-.2 0-.5-.1-.7-.2v-.3h.6c.1.1.2.1.3.3.2-.1.5-.4.8 0Zm-22.3-5.1c0 .1-.1.1-.1.1h-.3c-.1 0-.1-.2-.2-.3.1 0 0 0 0 0 .1 0 .4 0 .6.2 0-.1 0-.1 0 0Zm-1.1-.1h-.3c-.2 0-.5-.1-.7-.1h-.3c0-.1 0 0 .1 0 .3 0 .7 0 1.2.1Zm-2.1-.8h-.8c-.1 0-.2-.1-.3-.1-.1 0-.1 0-.2.1h-.2v-.2h-.3c-.1 0-.1 0-.1-.1-.1-.2.1-.3.3-.5h.5c0 .2 1 .2 1.2.5.1 0 .2-.1.5-.1h.5c0 .1 0 .1.1.2h.6c.3 0 .8.2 1.2.2 0-.1 0-.1-.1-.1.2 0 .3.1.6.2 0 0 0 .1-.1.1s-.3.1-.6.1-.8-.1-1 0c-.2 0-.6 0-.8-.1-.6.1-.8-.3-1-.2Zm.2.7c-.1 0-.1.1-.2.1s-.2-.1-.3-.1c-.1 0 .1-.1.2-.1.2 0 .2.1.3.1.1 0 0 0 0 0Zm-.9-.2h-.1c0 .1-.2 0-.3 0h.1c.1-.1.2-.1.3 0Zm-1.2 0c0-.1-.1 0-.1 0 0-.1.1-.1.2-.1h.2c0 .1-.1.1-.3.1Zm-.7-.7c-.1 0-.2 0-.3-.1-.2 0-.3.1-.6.1s-.5-.1-.6-.1c-.2 0-.6 0-.8-.1v-.1c.1 0 .2-.1.5-.1h.8c.3 0 .6.1.8.2 0-.1.1-.1.1-.1 0-.1.2.1.2.1.1 0-.1.1-.1.2Zm-.8 2.8h-.3c.1 0 0 0 0 0 .1 0 .1 0 .1-.1s.1-.1.2.1c-.1-.2-.1 0 0 0Zm-.5 0c0 .1-.3 0-.5.1-.3 0-.7 0-1-.1v-.1h.1c0-.1 0-.1-.1-.1h.2c.1 0 .2.1.3.1.5-.1.8-.3 1 .1Zm-2.3-.4c0-.1-.2 0 0 0h-.3c0-.1.1-.1.2-.1-.1 0 .1 0 .1.1Zm-1.7-2.1h-.1c0-.1-.1-.1-.1-.2h.3c.1.1-.1.2-.1.2Zm-1 1.9c-.1 0-.5-.1-.5-.1 0-.1.1-.1.2-.1s.1.1.2.1.1.1.1.1Zm-.7-2.8c0-.1 0-.1 0 0l.1-.1h.7c-.1 0-.2.1-.3.1h-.5Zm-.7.7c0 .1-.5 0-.6 0v-.1c.3.1.4.1.6.1Zm-1.2-.8c0-.1.1-.1.2-.1h.8c0 .2-.3.2-.5.2s-.4 0-.5-.1Zm-2 3.5c-.1 0-.2-.1-.2-.1 0-.1.1-.1.1-.1h.2c0-.1-.1 0-.1.2Zm-4.7-3.7v.1c-.1 0 0 0 0 0h-.3c-.1 0 .1-.2.1-.2h.2v.1c0-.1 0 0 0 0Zm-2.9-1.8c0 .2 0 0 0 0-.1 0-.1-.1-.1-.1.1 0 0 0 0 0h.2s0 .1-.1.1Zm-1.8 9.7h-.3c0-.1 0 0 0 0 0-.1 0 0 0 0h.3c.1-.2 0-.1 0 0Zm-.8-9.3c-.1.1-.5 0-.6 0v-.1c0-.1.3 0 .5-.1-.1 0 .2.2.1.2Zm0 8.9c0 .1-.6 0-.7 0 0-.1.2-.1.3-.1.1-.1.2-.1.4.1 0-.2 0 0 0 0Zm-1.2-7.8c-.1 0-.3-.1-.5-.1v-.1h.3c.1.1.2.1.2.2Zm-2.3-.1c-.1 0-.3.1-.5.1-.3 0-.7-.1-1-.1.1 0 .2 0 .2-.1h.6c.3 0 .6.1.9.1 0-.1 0-.1-.1-.1.1 0 .2-.1.3-.2.1 0 .3.1.3.3.1.3-.5 0-.7 0Zm.1 7.9.1-.1h.3v.1h-.4Zm.4.2c-.2 0-.5.1-.7 0 0-.1.3 0 .3-.1.2 0 .4 0 .4.1.1 0 .1 0 0 0Zm-2.3-1.3s0 .1 0 0c-.2.1-.3 0-.5-.1h.3l.2.1Zm-.7-1.5v-.2c.2 0 .3.1.6.1.1 0-.1.1-.1.1-.3.1-.4 0-.5 0Zm-.7 2.4c0-.1 0-.2.1-.2.1.1.1.1.3.1 0 .3-.3.1-.4.1Zm-1.1-2.9c0 .1-.5 0-.6 0-.1 0-.1.1-.2.1-.2 0-.5-.1-.8-.1 0-.1.1-.2.1-.3.3 0 .5.1.8.2.3-.1.5-.1.7.1Zm-1.8 2.9s-.1 0 0 0c-.1 0-.1-.1 0 0 0-.1.1-.1.2-.1-.1 0 0-.1 0-.2.1 0 .9.1.8.3 0 .2-.9 0-1 0Zm-.9-8c0-.1.1-.1.2-.2.2 0 .3 0 .3.2h-.5Zm-.6-2.5c.2 0 .5 0 .6.1-.1 0 0 .2 0 .3-.2-.1-.5-.2-.6-.4Zm.1 9.9c-.2.1-.5.1-.6.1l-.1.1c-.2.1-.6-.1-.8-.2 0-.1.1-.2.2-.3.2 0 .5.2.7.2h.2c.2-.1.3-.1.4.1Zm-1.7.3h-.2c-.1 0 0-.3 0-.3.2 0 .2.1.2.3Zm-.4-2.6v-.1c0-.1.1-.1.2-.1.2 0 .5 0 .6.1v.1c0 .1-.1.1-.2.1-.2 0-.3-.1-.6-.1Zm.6-7.8h.6c.2 0 .1 0 .1.1-.1 0-.1.1-.1.1-.2.1-.5.1-.6-.2Zm2.9 7.6h.1v.2c0 .1 0 .1-.1.1h-.1c0 .1.1-.1.1-.3Zm-4.1 2.8h-.2c0-.1 0-.1.1-.1-.1 0-.2 0-.2-.1.1 0 .3 0 .3.1.1-.1.1-.1 0 .1.1-.1.1-.1 0 0Zm-.8-9.3c-.1 0 0 .1 0 .1h-.2v-.2s.2 0 .2.1Zm-1.1 1.1c0-.1.1-.1.1-.1.3 0 .8.3.8.2-.2 0-.7.2-.9-.1Zm.9 8.1c-.1 0-.1 0 0 0h-.3c-.1 0 0 0 0 0-.1 0 0 0 0 0 .1 0 0 0 0 0h.3c-.1-.1-.1 0 0 0Zm-1.2-.1c-.1.1-.1 0-.2 0 0 .1 0 0-.1.1-.1 0-.1-.1-.1-.2v-.1c.1 0 .1-.1.2-.2.2 0 .6 0 .7.1-.1.3-.4.3-.5.3Zm-.4-8.1c.2 0 .5 0 .6.2h-.2c0 .2-.3 0-.3-.1-.3 0-.1-.1-.1-.1Zm-1.6 5.5c0-.1 0 0 0 0h-.2c0-.1 0 0 .1 0h.6c0 .1.1.2.2.2-.3 0-.5-.2-.7-.2Zm-.6.6c-.1 0-.3 0-.5-.1v-.1c0-.1 0 0 .1 0h.7c.1.1-.1.2-.3.2Zm-1.6-6.1c.1 0-.1.1-.1.1-.3 0-.8-.2-1-.1-.3 0-.6 0-.9-.2V94c.1 0 .2 0 .2-.1.3 0 .6.1.8.1h.6c.1 0 .2.1.5.1.1 0 .2-.1.5-.1 0-.1.3.1.3.2.2.1.3 0 .3.2l-1.2-.1Zm.8 5.1c-.1 0-.1 0 0 0-.2.1-.3 0-.5 0 0-.1.1-.1.1-.2.1.1.3.1.4.2Zm-.3 3.1h-.5v-.1c.3-.1.4 0 .5.1Zm-2-.4.2-.2c.2 0 .6 0 .7.2 0 .2-.8 0-.9 0Zm0-1.8c.1 0 .1-.1.2-.1h.2v.1c0 .1-.3 0-.4 0Zm.3 2.8h-.9c0-.1 0-.1.1-.2-.1 0-.2-.1-.3-.2 0 0 .2-.1.3-.1.5.1.8.1 1 .6 0-.1-.1-.1-.2-.1Zm-1.3-1.3c0 .1-.3 0-.3 0s0-.1-.1-.1c.2-.1.3-.1.4.1Zm.2-7.4c-.1 0-.1.1-.2.1h-.1s-.3-.1-.3-.2v-.1c0-.1 0 0 .1 0 .3 0 .5 0 .5.2Zm-1-2.4c0-.1-.7.1-.7.1h-.9c-.1 0-.2-.1-.2-.1v-.1c.1 0 .2-.1.3-.1.3.1.7.1 1.2.1.1 0 .2.1.3.1.3 0 .6 0 .8.2 0-.2.5-.1.6-.1 0 .1.1.2.1.3 0 .1-.1.1-.1.1-.1 0-.3.1-.5.1-.2-.2-.7-.4-.9-.6Zm-.6 6.8c.2 0 .3.1.5.3-.3.2-.6 0-.5-.3Zm-.6-2.1h-.5c.1 0 .2 0 .3-.1.2 0 .2 0 .2.1Zm-.5-2.4c-.1 0-.2 0-.3.1-.1 0-.3-.1-.5-.1s.1-.1.1-.2c.2 0 .5 0 .7.1.1 0 0 .1 0 .1Zm0 5.9c0 .1-.1.1-.1.1h-1c-.1 0-.3-.1-.5-.1s-.3.1-.6.1c-.1 0-.3-.1-.6-.1-.5 0-1.2.1-1.5-.1h-.1c0-.1.3-.1.5-.1s.5.1.6.1c.2 0 .3 0 .6.1 0-.1 0-.1.1-.1.3-.1.6 0 .9 0 .6 0 1.2-.3 1.7.1Zm-1.9 1.2c-.1 0 0 0 0 0-.2.1-.3-.1-.3-.2.2 0 .4.1.3.2.1 0 0 0 0 0Zm-3.2-2.3s.2-.1.2-.2c.2.1.7.2.9.1 0 .1.1.1.1.1 0 .1 0 .1-.1.1h-.5c-.1.2-.4.4-.6-.1Zm.3 1c-.1.1-.2.1-.2.1h-.5v-.1c.1 0 .1 0 .2-.1.2 0 .3 0 .5.1Zm-1-.8c0-.1.1-.1.2-.1h.1c0 .1 0 .1-.1.1 0 .1-.1 0-.2 0Zm1-5.2c0 .2-.3.2-.3 0h.3Zm3.4-2.3h.6c.1.1-.4.1-.6 0 0 0 0 .1 0 0Zm-5.2 0c0-.1 0-.1 0 0 0-.1.1-.1.1-.1 0-.1-.1-.2-.2-.2-.5-.1-.9 0-1.5 0H175c0 .1.1.1.1.1.2.1.5.1.7.1.8.1 1.5.1 2.3.1-.1 0-.1.1-.1.1h-.3c-.3 0-.8-.1-1 0-.1 0-.2.2-.3.2-.3 0-.6-.2-.8-.2-.2-.1-.6 0-.8-.1-.1 0 0 0-.1-.1s-.5-.1-.5.1h-.2v-.1c-.2-.2-.3 0-.6 0s-.3-.1-.6-.1-.3.1-.5.1-.5-.1-.6-.1c0-.1.7-.2.8-.3-.5 0-1-.3-1.5 0-.3 0-.7-.2-1-.1-.1 0 0-.2.1-.3.3-.1.6.1.9.1h2.5v-.1h.8c.1 0 .3-.1.5 0 .2 0 .3.1.6.1h2c.1 0 .2-.1.3-.1.1 0 .2 0 .3.2h.3c.5 0 .8.1 1.3.1s.8-.1 1.4-.1c.6 0 1 .1 1.6.1.8 0 1.6-.2 2.4-.1.1 0 .3.1.5.1s.5.1.7.1c-.2 0-.5.1-.7.1-.3 0-.7-.1-1 0-.2 0-.5-.1-.7-.1h-1.6s-.2 0-.2.1.1.1.1.1c.2.1.5 0 .7 0 .3 0 .6 0 .9.1v.1c-.1 0-.2 0-.2.1h-.1c0-.1-.1-.1-.1-.1 0 .1-.1.1-.2.2-.3 0-.6-.2-.9-.2-.5 0-1.5.6-1.7 0-.1 0-.3.2-.5.2-.8.2-1 .1-1.3-.1Zm.7 8.3c-.1 0-.1.1-.2.1-.2 0-.3-.1-.6 0-.3 0-.6 0-.9-.1 0-.1.1-.2.2-.3.4 0 1 .2 1.5.3Zm-2.1-6c0-.1.2-.1.3-.1.1 0 .2 0 .3.1.1 0-.1.2-.1.2h-.3c0-.1-.1-.2-.2-.2Zm.9 7.5h-.3c-.3 0-.7.3-.9-.1-.1 0 .1-.2.1-.2.4 0 .7.1 1.1.3ZM176 100s0 .1 0 0c-.6 0-1 .1-1.5 0v-.1c0-.1.1 0 .1 0h.9c.2 0 .3-.1.6-.1v-.1c.1 0 .2 0 .3-.1.2 0 .5 0 .7.1 0 .1 0 0 0 0 0 .1 0 .1-.1.2s-.8-.1-1 .1Zm.5 1.7c0 .1-.2 0-.3 0v-.1c.1 0 .1-.1.2-.2.1 0 .1.2.1.3Zm-.7-2.9c.1 0 0 .2 0 .3 0-.1-.3-.2-.3-.2 0-.1 0 0 .1 0 0-.1.1-.1.2-.1Zm.1-4.3h.3c0 .2-.5.1-.6.1.2.1.3.1.3-.1Zm.7-.8c0 .1-.6.2-.7.1-.1 0 0-.2 0-.2.3.1.5.1.7.1Zm-2.3.5c-.2 0 .1-.3.2-.3 0-.1.2 0 .2 0 .1 0 .1-.1.2-.1h.6v.2c-.1 0-.1.1-.2.1-.2 0-.5.1-.6.1h-.4Zm-.9-.2c-.2.2-.5 0-.7 0 0 .1-.7.1-.8.1h-.1c.1 0 .1 0 .1-.1.3-.5.7-.1 1-.3.2-.1.6-.1.5.3 0-.2 0 0 0 0Zm-.7 7.2c-.1 0-.1 0 0 0l-.1.1c-.1 0-.3-.1-.5-.2.1 0 .3 0 .6.1Zm-1.1-7.6.2.2v.1h-.1c-.3-.1-.1-.2-.1-.3Zm.4 5.5c-.3 0-.9-.2-.9-.5.1 0 .2.1.3.1.1.1.2.1.3.2h.2c.1.1.1.1.1.2.1-.1 0 0 0 0Zm-1.3-.3c-.1 0-.3.1-.5.2h-.1c0-.2-.1-.2 0-.5.3.1.5.2.6.3 0-.1 0-.1 0 0Zm-.5-1.8c.1-.1.1-.1.2-.1s.3 0 .5.1c-.1 0-.2 0-.2.1-.3 0-.4 0-.5-.1Zm-.3 3c0 .1-.3 0-.3 0v-.2s.1 0 .3.2c0-.2 0 0 0 0Zm-.5-5.9c-.2 0-1-.2-1.2-.1-.2 0 .1-.3.1-.5.2 0 .3.2.6.2h.8c.3 0 .7.1 1 .2v.1c-.1 0-.3-.1-.5-.1-.4.1-.6.2-.8.2Zm-.7 2.3c0-.1.1-.1.1-.2.1 0 .2.1.3.2-.1.1-.2.1-.4 0Zm.2 3.6c-.2 0-.9.1-.9-.2.3 0 .8-.1 1.2.1-.2.1-.3.1-.3.1Zm-.6 1.3c0-.1-.6-.2-.6-.3.4 0 .6.1.6.3Zm-.5-9.8c-.1 0-.1.1-.2.1-.2 0-.6-.2-.8-.1-.1 0-.1.1-.1.1-.1 0-.1-.1-.2-.1 0 0-.3-.1-.5 0-.1 0 0 0 0 0 .1 0-.1.2-.1.2-.2 0-.3-.1-.6-.2h-1.4c-.2 0-.2 0-.3.1-.2 0-.3-.1-.6-.1-.1 0-.1-.1-.2-.1 0-.1.1 0 .2 0 .2 0 .5 0 .7-.1.5 0 .9.1 1.3 0 .3.1.9.2 1.3.2.1 0 .3 0 .5-.1.1 0 .2 0 .3.1.1-.1.3-.1.7 0Zm-.3 9.6c-.1 0-.1.1-.2.1-.1.1-.3.1-.5.1v-.2c.1 0 .1 0 .2-.1.2 0 .3 0 .5.1 0-.1 0 0 0 0Zm-.8.1h-.2v-.2c.1 0 .2 0 .3.1-.1 0-.1.1-.1.1Zm0-1.4h.7c0 .2-.6.1-.8.1 0-.1 0-.1.1-.1 0-.1 0 0 0 0Zm0-5.8c-.1 0-.1 0-.2.1h-.5V94c.1 0 .2 0 .3-.1.2-.1.2-.1.4.1 0-.2 0-.2 0 0Zm-.9 5.8c.1-.1.2 0 .3 0v.2c-.1.1-.3 0-.3-.2Zm-.3-6c.1 0 .1-.1.2-.1l.1.1c-.1.2-.2.2-.3 0Zm-4.4-2.6c.2.2.8.2 1 .2 0 .1-.3.1-.5.1 0 .1 0 .1.1.1-.1 0-.1 0-.2.1 0 .1-.2-.1-.2-.2-.1 0-.2.2-.5.2-.2.1-.6-.1-.8 0h-.9c0-.1.1-.1.2-.1-.2 0-.1-.3-.3-.5-.2-.1-1.7-.1-2-.1-.3 0-.7 0-1.2-.1-.2 0-.5.1-.7.1h-1c-.1 0-.3-.1-.5-.1h-.5c0 .1-.2.2-.3.2 0 .1-.3-.2-.5-.2l-.5-.1v-.1c.2 0 .3-.1.6-.1h1.4c.5 0 .9.1 1.4-.1h.5c.2 0 .3 0 .6.1h.3c.3 0 .6.1.9.1.3 0 .7-.1 1.2 0 .3 0 .6.2.9 0h-.1.7c.1 0 .2 0 .3.1h1.6c.3 0 .8.1 1.2.1h1.8c.2 0 .5-.1.6-.1h.9c.2 0 .3 0 .5.2.1 0 .2 0 .2-.1.3 0 1-.1 1.2.2-.1 0-.2 0-.2.1-.2 0-1-.1-1.3 0h-.6c-.5 0-.9 0-1.3-.1h-.6c-.5 0-.8-.1-1.3-.1h-.3c0 .1-1.7 0-1.8.2Zm-1.6 2.6c-.2.1-2.4 0-2.5 0-.1 0 0 0 0-.1.1 0 .1 0 .2-.1.4.1 1.9-.1 2.3.2.1 0 0 0 0 0ZM156 99c-.1 0-.1 0 0 0-.1 0-.2 0-.2.1h-.2v-.2h.5s0 .1.1.1c-.2-.1-.2-.1-.2 0Zm-1.8.7c0-.1.1-.2.1-.2.6.1 1.2 0 1.7.1.1.4-1.5.1-1.8.1Zm-1.1-8.2h.3c.2.2-.2 0-.3 0Zm-.4 9.9h-.3v-.2c0-.1.2-.1.2-.1.1 0 .1 0 .1.1.1 0 0 .1 0 .2Zm-1.1-9.7h-.1c0-.1.1-.1.2-.2.1 0 0-.2 0-.3.1 0 .1 0 .2-.1.2.1.3.1.6.2v.1c-.3-.1-.6.1-.9.3Zm-.8-.8c-.3 0-.8-.1-1.2 0 0-.1-.2.1-.2.1s.1.1.1.2h-.7v-.1h.3-.5c0-.1-.3-.1-.2-.6h-.1c0 .1-.5.3-.6.3-.1 0-.6-.2-.7-.2h-.1c0 .1.3.1.5.1v.1c-.1 0-.2.1-.3.1-.3 0-.6-.1-.9 0h-1.3c-.1 0-.3 0-.5.1-.2 0-.3 0-.6-.1h-.3c-.1 0-.2-.1-.3-.1-.2 0-.3.1-.6.1-.1 0-.2-.1-.3-.1-.1 0-.3.1-.6.2h-.1v.2h.2-1c.1 0 .2-.1.3-.1-.1 0-.1-.1-.2-.1-.2-.1-.5-.1-.7 0v.2h.3c-.1 0-.2.1-.3.1-.3 0-.6 0-.9-.1-.2 0-.3.1-.5.1h-.3c-.2.1-.3.2-.6.2s-.6-.2-.6-.6h.1v.2h.2c0-.1 0-.1-.1-.1 0-.1.1 0 .2 0 .5 0 1.5.1 2 0 0-.1-.1-.1-.1-.1-.3-.3-.6-.1-1-.1-.2 0-.5-.1-.7 0-.2-.1-.3-.2-.6-.2v.1h-.1v-.3c0-.1 0 0 .1 0h1.2c.2 0 .5-.1.7 0 .5 0 .7.2 1.2.2v-.1h-.1c.1 0 .2-.2.2-.3-.2 0-.3 0-.6-.1-.1-.1-.2-.2-.3-.2-.2-.1-.9-.1-1.2 0-.1 0-.2.1-.3.1-.2 0-.3-.1-.6 0-.1 0-.2-.1-.5-.1h-.5c0 .1-.1.1-.1.1h-.1c.1 0 .1-.2.1-.3v-.1c.2 0 1.5 0 1.7-.1 0-.1-.1 0-.2 0v-.1h1.5c.2 0 .3.1.6.1v-.1h-.1c0-.1 0 0 0 0h1.2v-.1c-.3 0-.6-.1-.8-.1 0-.1.1 0 .1 0 .1 0 .3 0 .5-.1h.9c.2 0 .5-.1.7 0 .3 0 .7.2.9.1.1 0 .2-.1.2-.3.1 0 .2 0 .3-.1.2 0 .3 0 .6.1.1 0 0 .1 0 .2s.1 0 .1 0c.1 0 .3 0 .5-.1l.1-.1c0 .2.3.2.6.2.1 0 .2.1.3.1.1 0 .1-.1.2 0 .1 0 .2.2.5.1.1 0 .2-.1.5-.2.1-.1.3 0 .6 0 0-.1 0-.1.1-.1.2-.1.6 0 .8 0 .2 0 .3 0 .6-.1.2 0 1.4.1 1.4.2h.1V89c.3-.2 1 .1 1.4.1.7.1 1.5 0 2.2.1.1 0 .2.1.3.1-.1 0-.3 0-.5.1h-.8c-.1 0-.3-.1-.6 0-.3 0-.9-.2-1 .2h-.6v-.1c0-.1.2-.1.2-.1h.1c-.2 0-.3-.1-.6 0-.2 0-.5-.2-.5-.5h-.1c0 .1-.2.2-.3.3 0 .1-.3 0-.3-.1 0 .1-.2.1-.2.2-.2 0-.7-.1-.9-.1h-.6c-.2 0-.6-.1-.8 0 0 0-.8 0-.9.1-.2 0 .3.2.3.2.3.1.8 0 1.2.2h.1c0 .1 0 0-.1.1-.2 0-.5.1-.8.1h-.7c-.3 0-.7 0-1.2-.1h-3.9c-.1 0-.3.1-.3.2s.2.1.2.2v.1c0 .2.8-.1.9-.1.1 0 .1.1.2.1 0 .1.3 0 .5 0l.2.2c.1 0 .2-.1.3-.1.2 0 .3.1.6.1.1-.1.2-.1.5-.2.2 0 .5-.1.6-.1.3-.1.7 0 1 0 .1 0 .3-.1.5-.1s.3 0 .6.1c.2 0 .6.1.8.1.3 0 .7 0 1 .1.2 0 .2.1.5.1.6 0 2.1-.1 2.4.2-.1 0-.2 0-.3.1 0 .1-.4-.1-.7.1Zm.4.6c-.2 0-.2 0-.3-.1 0 0 .2 0 .3.1Zm-.6 7.3h-.8v-.1c.1 0 .1 0 .2-.1.2 0 .3.1.6 0v.2Zm-1.4-7.1h-.7c-.3 0-.7 0-1-.1 0-.1 0-.1.1-.1h1.3c.3 0 .5.1.7 0 .1 0 .1-.1.2-.1.2.2.6.2.8.2v.1c-.1 0-.2.1-.5.1-.3-.1-.7-.3-.9-.1Zm-1.7 9.4c-.3 0-.7.1-.9-.1 0-.1.1-.1.2-.1.3 0 .6.1.9 0l-.2.2Zm-1.7-9.6c-.1 0 0-.1 0-.2.2 0 .6 0 .8.1-.1.1-.7.1-.8.1Zm.5 10.8c0 .1-.3 0-.5 0 0-.1 0-.1.1-.1s.3-.1.4.1c.2 0 .2 0 0 0Zm-.9-10.5h-.1c-.2 0-.3 0-.5-.1 0 .1-.5.1-.6.1-.1 0-.1-.1-.2-.1.1 0 .1 0 .2-.1 0-.1 0 0-.1 0 .2 0 .5.1.7.2.2-.1.4-.1.6 0Zm-1.8 0h-.1c0-.1 0-.1.1-.1 0 0 .1 0 0 .1.1-.1.1-.1 0 0Zm-.1 0c-.1 0-.1.1-.2.1-.2 0-.6 0-.8-.1.1 0 0 0 0 0 .1 0 .3-.1.5-.1.1-.2.2-.2.5.1 0-.1 0-.1 0 0Zm-1.4-.1h-.3c-.3 0-.7-.1-.9-.1v-.1h.7c.1 0 .2 0 .5.2Zm-2.1 10.8v-.1c0-.1.2-.1.2-.1.3.2-.1.2-.2.2Zm-.3-.4c-.1.1-.2.1-.3.1h-.3v-.1c.1 0 .2-.1.2-.1.1-.1.2-.1.4.1 0-.1 0 0 0 0Zm-1.2 0s-.3.3-.3.5c0 0 .2.1.3.1h-1.2c0-.1.3-.2.5-.2h-.2c.1 0 .2-.1.2-.2h-.5c-.1.1-.2.1-.3.2h-.5c0-.2 0-.2-.1-.3v-.1c.1 0 .3-.1.5-.1.5 0 1-.1 1.6.1 0-.1 0-.1 0 0Zm-2.9-10.6s0 .2 0 0c.1 0 0 0 0 0 .1-.1.2-.1.2-.2l.3.1h.7c.1 0 0 .1 0 .2s-.1 0-.1 0c-.3.1-.7.3-1.1-.1Zm-.4-1.7v-.1h.1c.3 0 .8.1 1.2.1h-1.3Zm-.3-.4c-.1 0-.1.1-.1.1 0 .1-.1 0-.2 0-.6 0-1.6-.2-2.1 0-.2 0-.3-.1-.6-.1h-1c-.5-.1-.7-.2-1.2 0h-1.5c-.1.1.1.2.1.3-.3 0-.8-.3-1.3-.1-.3 0-.7-.1-.9-.1v-.2c.1 0 .2-.1.2-.2.1 0 .2 0 .3.1.1 0 .2-.1.3-.1.2 0 .6.3.8.1.1 0 .1.1.2.1 0-.1 0-.1.1-.2.2-.3.6-.1.9-.2.1 0 .2-.1.3-.1l.5-.1c.2 0 .5.1.7.2 0 .1.3 0 .5 0 .5-.1.9 0 1.4 0h1c.2 0 .3-.1.6 0 .2 0 .3.1.6.1s.6-.1.8 0v.1c-.1 0-.1 0-.2.1-.1 0-.1.2-.2.3.2 0 .2-.1 0-.1Zm-1.7 1.5c-.1 0-.1-.2-.1-.2h.2c.1 0 .6 0 .7.1 0 .1-.7.2-.8.1Zm.7 11.7s-.1 0-.1.1h-.3c-.2 0-.6-.1-.8-.1 0-.1.1-.1.1-.2h-.3l-.7-.1v-.1c.1 0 .1-.1.2-.1.2 0 .3-.1.6-.1.1.1.3.2.5.5h.6c.1 0 0-.1 0-.1 0-.1.2 0 .2 0 0 .1 0 .1-.1.1.1 0 .2.1.1.1ZM130.1 90c.1-.1.1-.1 0 0 0-.1.8-.2.9-.2.2 0 .3.1.6.1l.5.1c-.1 0-.6 0-.7.1h-.2c-.4.1-.8.1-1.1-.1Zm1.5 1.2h-.2c-.6 0-1.2-.1-1.7-.1v-.2c0-.1 0 0 .1 0 .3 0 .7-.1 1-.1.5 0 .7.1 1.2.1 0 .1.1.1.2 0h.1c0 .1-.3.1-.5.2-.1.1-.2.1-.2.1Zm-1.8-1c-.2 0-.5 0-.6-.2h.6c.1-.1 0 .2 0 .2Zm-2 1.7c-.2 0-.6 0-.8-.1-.1 0 0 0 0 0 .1 0 .2-.1.3-.1.1 0 .2 0 .3-.1.3 0 .7.1 1 .1.1.1-.7.2-.8.2Zm0 10.5h-.3v-.1h.4c0-.2-.1 0-.1.1Zm-.6-.1c-.1 0-.3.1-.3.2-.1 0 0 0 0 0h-.9c0-.1.2 0 .2 0v-.2c.2 0 .6.1.8 0 0-.2.1-.2.2 0 0-.2 0 0 0 0Zm-1.7.2h-1.3.2c.1 0 0-.2-.1-.2h.6v.1c-.2 0 .4 0 .6.1 0-.1 0 0 0 0Zm-1.6-.2c-.1-.1-.3-.1-.5-.2 0-.1.1-.1.2-.1s.3 0 .5.1c-.1 0-.1.2-.2.2Zm-.9-10.2c-.3 0-.6-.1-.8-.1-.3 0-.6.1-.9 0-.1-.1-.2-.1-.2-.1 0 .1-.3.1-.3.1-.2-.1-1.4-.2-1.5-.5-.1-.3.5 0 .6.1.2 0 .5-.2.7-.2.2 0 .5.2.7.2.1 0 .3-.1.5 0 .2 0 .3.1.6.1s.7-.3 1.2-.1h.1s.1-.1.1-.2c.1 0 .2-.1.3-.1h.1c-.1 0-.1.2-.2.2.2.1.6.1.9.2h.1v.1c-.3 0-.6.1-.9.1-.2 0-.3-.1-.6-.1-.3.2-.3.3-.5.3Zm.3 9.7c0 .1-.1.1-.1.2-.2.2-.7.3-.9.1.1 0 .2-.1.2-.1.3-.1.6-.1.7-.3l.1.1Zm-3.4 1.1h-.2c-.2 0-.7 0-.9-.1.3 0 .6-.1.9-.1-.1.1 0 .1.2.2Zm-2.2-11.6c.1-.1.2-.1.3-.1.2 0 .5.1.8.1v.1c-.1 0-.2 0-.3.1-.4-.1-.7-.1-.8-.2Zm-.7.9c-.3 0-.8 0-1-.1 0-.1.2-.2.2-.2.1 0-.1-.1-.1-.1-.2-.1-.7 0-.9-.2 0 .2-.3.1-.5.1-.1 0-.1-.1-.2-.1 0-.1.1-.2.2-.2h1.2l.9.3h-.2v.2c0 .1.2 0 .2 0v-.2c0-.1.3-.1.5-.1v.2c.5 0 .3.1.7.3-.1.1-.9.1-1 .1Zm.8 10.2c0 .1-.3 0-.5 0 .1 0 .1-.1.2-.1.2-.2.2-.2.3.1 0-.1 0-.1 0 0Zm-1.2-.1c0 .1-.5.1-.6-.1.3-.1.4-.1.6.1 0 .1 0 0 0 0Zm-2.3.5h-1.4c0-.1.3-.2.5-.2.3 0 .6.1.9.1v.1c.1 0 0 0 0 0Zm-1.5-11.5c.2 0 .3 0 .6.1.2 0 .5-.1.7.1 0 .1-.1.1-.1.2-.1 0-.3 0-.5-.1h-.8c-.1-.1 0-.2.1-.3Zm2.3-.7c-.1 0-.2.1-.2.2-.2 0-.5 0-.6-.1-.3 0-.8.1-1 0h-.1v-.2h.2c.3.1.7.1 1 .1.2-.1.5-.2.7 0 0-.1 0-.1 0 0Zm-3.5-.6c0-.1.1-.1.2-.1.2 0 .6-.1.8-.1 0-.1 0-.1-.1-.2-.1 0 .6-.2.6-.3.2 0 .5.1.6.1h.3l.2.1c.2 0 .3 0 .6.1.2.1.5.2.7 0 .1 0 .1.2.1.3h-.1c-.1 0-.2-.1-.3 0h-.2c-.3 0-.7 0-.8-.2-.1 0-.3.1-.5.1s-.3 0-.5-.1c-.2 0-.3.2-.6.2-.5.3-.7.1-1 .1Zm-.5 10.2h-.8v-.1c.1 0 .2-.1.3-.1.5.1.9-.1 1.3.2h.1c-.2 0-.7-.1-.9 0Zm-1.4-7.8c0-.1.2-.1.3-.2h.9c.2 0 .6 0 .8.1v.1c-.1 0-.2.1-.2.1h-1c-.2 0-.5-.1-.8-.1Zm0 7.9c0 .1 0 0 0 0-.2 0-.5.1-.6.1-.3 0-.7-.1-1 0h-2.4v-.1c.5 0 1 .1 1.4 0 .1-.1.2-.1.3-.2.2.1.3.1.6.1.1 0 .2.1.2.1h.6c.2 0 .6-.3.9-.2.1 0 0 .2 0 .2Zm-2.5 2.2c0-.1 0-.1-.1-.2 0-.1.5-.1.6-.1.1 0 .1-.1.2-.1.3.1.8.1 1 .3 0 .2-1.5.1-1.7.1Zm-.6.3h-.1v.2h-.5c-.1 0-.2-.1-.3-.1h-.3c-.3 0-.7-.1-1-.1-.1 0-.2 0-.5.1-.1 0-.2.1-.3.1-.1 0-.2-.1-.3-.1 0-.1-.2 0-.3 0v-.1c.8 0 .9.2 1.5-.3.3.2.9.2 1.4.2 0-.2.6-.6.7.1.1-.1.1-.1 0 0Zm-4.4-1.9c0 .1-.5 0-.6 0h-.3v-.3c.5 0 .8-.1.9.3.2 0 0 0 0 0Zm-.9 2c0-.1.1-.2.2-.2.2 0 .3 0 .6-.1.1.1.1.1.1.2-.4.1-.5.3-.9.1Zm-.1-1.2h-.2c0-.1.2-.2.2-.3h.9c0 .1-.5.1-.6.1h-.1c0 .1-.1.1-.2.1v.1Zm-.8-8.8c0-.1 0-.1 0 0 0-.2.3-.2.5-.2h.8c.1 0 0 .1 0 .1 0 .1-.2 0-.2.1h-1.1Zm-.1 8.3c0-.1 0-.1 0 0 0-.1-.8-.2-.9-.2v-.2c.2 0 .5-.2.6-.3.2 0 .3 0 .5.1.1 0 .1.1.2.1 0 .1 0 .2.1.3-.1-.1-.5.2-.5.2Zm.1 1.7c0-.1 0 0 0 0 0 .1-.6 0-.6 0 .1 0 .1-.1.2-.1.2 0 .3.1.6.1-.2-.1-.2-.1-.2 0 .1-.1.1-.1.2-.1-.1.1-.2.1-.2.1Zm-1.3-1.2v-.3c.1 0 .1 0 .2-.1.2 0 .3 0 .6.1 0 .1-.1.1-.1.2-.2 0-.2.1-.5.1.1-.1-.1 0-.2 0Zm-.7 1.5h-.3c0-.1.1-.2.1-.3.1 0 .1.1.2.1s.3-.1.5-.1c0 .1.2.2.2.3h-.7Zm-.7-1.6.1-.1h.7v.1c-.2.1-.5.1-.8 0Zm-.2-.6s0-.1 0 0c-.1 0-.1.2-.1.2h-.2c0-.1.1-.1.1-.1v-.1c-.1 0-.1 0-.1-.1.1 0 .1-.1.2-.2.2.1.6.1.8.1 0 .1-.2.2-.1.2v-.1h-.2c0 .1 0 .1 0 0h-.1c-.1.1-.2 0-.3.1Zm0 .6c-.1 0-.3.1-.5.1-.1 0-.2-.1-.3-.2.2-.1.5-.1.8.1 0-.2 0 0 0 0Zm-.7 1.8v-.2c-.2 0-.6 0-.8-.1v-.1l.7-.3c.2 0 .3.1.6.1 0 .1 0 .2.1.3.1.1-.1.5-.6.3Zm-1.5-1.5c-.2 0-.2.1-.5.1h-.5c-.2 0-.8-.1-1 0-.3 0-.7-.1-1-.2 0-.1.1 0 .2 0 .6 0 1-.1 1.5-.5.2 0 .5.2.7.2.1 0 .2-.1.5-.1h.8l.3.2c.1 0 .2.1.3.1h.1v.1c-.5.1-.9.1-1.4.1Zm-.3 1.3c-.1 0 0 .2 0 .2h-.1c0-.1-.1 0-.1 0 .1 0 .1-.2.1-.2h-.2c-.1 0 0 .2 0 .2-.1 0-.2-.2-.2-.2l-.2.2c-.1 0-.1-.3-.1-.5.1.2.4.2.8.3 0-.1 0 0 0 0ZM91.4 91v-.2c0-.1.6-.1.7-.1.1 0 .3.1.5.1.1 0 0 .1 0 .1-.4.2-1 .1-1.2.1Zm.2 10.2c-.1 0-.2.1-.3.1-.2 0-.5 0-.7.1 0 .1 0 0-.1 0-.3-.1-.7-.1-1-.3.1 0 .2 0 .3-.1.5 0 .6.1 1-.1.4.1.6.2.8.3ZM88.8 91h-.1c-.3 0-.7-.1-.9 0 0 .2.6.1.7.3 0 .3-.7.1-.8.1v-.1c0-.1-.1 0-.2 0s-.2.1-.3.1c-.3 0-.5-.2-.7-.5-.1 0 0 .1 0 .1 0 .1-.1 0-.1 0h-.7c-.2 0-.5.1-.7.1V91c0-.1 0 0 0 0 .2 0 .3-.1.5-.3h.3c.2 0 .5-.2.6-.1.1 0 .3-.1.5-.1h.7c.1 0 0-.1 0-.2.3 0 1 .1 1.4 0h.1v-.1c-.1 0-.1 0-.1-.1.5 0 .8.1 1.2.3 0 .1-.1.3-.2.5h-.1c-.1 0 0 .1 0 .2h-.3c-.1 0-.7 0-.8-.1Zm-.3 10.4c-.3 0-.6 0-.9-.1 0 .1-.1.1-.2.2-.1 0-.2-.2-.2-.3l.2-.2c.2 0 .3.1.6.1s.7 0 1-.1c0 .1 0 0-.1 0v.1c.1 0 .1 0 .2-.1.1.4-.3.4-.6.4Zm-.2 2.1c-.1 0-.2.1-.2.2 0-.1-.6.1-.7.1-.1 0-.2-.1-.3-.1-.1 0-.2 0-.5-.1-.1 0-.2-.1-.3-.1v-.1c.1 0 .2-.1.2-.1.3-.1.8 0 1.2-.1.1.1.4.1.6.3Zm-2.2-2.1c0-.1.3-.1.5-.1s.3 0 .3.2c-.1 0 0 .1 0 .1-.2 0-.4 0-.8-.2Zm-1 0c0-.1.1-.1.1-.2h.5v.1c-.1 0 0 0 0 0h-.1c-.2.1-.3.1-.5.1Zm.8 2.1c-.1 0-.2.5-.6.2-.1 0-.1.1-.2.1-.2 0-.5-.1-.7-.1h-.1c0 .1-.1.1-.2.1 0 .1-.1 0-.1 0 0-.3-.1-.2.2-.6.2 0 .3.1.6.1.3.2.7.1 1.1.2 0-.1 0 0 0 0Zm-2.4-1.7c-.3 0-.7-.1-1-.1.3 0 .9-.2 1.2-.3.2.1.5.3.7.3v.1h-.9Zm-.7 2c.1-.1.3-.1.5-.2h.2v.2c.1.2-.6.1-.7 0Zm-.4 0h-.7c0-.1.2-.1.2-.1.3-.1.4.1.5.1.1 0 .1 0 0 0Zm1.5-11.7c-.1 0-.6 0-.3-.3.1-.1.2-.1.3-.1v.4Zm.4-.6c-.1 0-.2.2-.3.2 0 0 0-.2-.1-.2 0-.1 0 0 .1 0 .2-.1.2 0 .3 0Zm-2.7.7c-.1 0-.1 0 0 0 0-.1.5-.2.6-.3h.1v-.1c-.2 0-.3-.1-.6-.3-.1 0-.2.1-.2.2-.2.1-.6.1-.7 0l-.2-.2h-.4c0-.1-.1 0-.2.1 0-.1-.2-.1-.2-.2 0-.2.7-.1.8-.1v-.2c.1 0 .3.1.5.1h.6c.1 0 .3.1.5.1h.5-.1.1c.1 0 .2.1.3.1.2 0 .2-.1 0-.2 0-.1 0 0 .1 0 .2 0 .3.1.6.1.1 0 .2 0 .3.1 0-.2.3-.2.6-.2v-.1h-.1.1c.2.1.3.1.5.2-.1 0 0 0 0 0h-.7c-.1 0 0 .1 0 .2-.3 0-.6.2-.9.3 0 .3.2.3.6.3v.1c-.1 0-.1.1-.2.1h-.5c-1.3.1-1.7.1-1.8-.1Zm-.2.2c0 .1-.1.1-.1.1 0 .1 0 0-.1 0-.2 0-.8-.1-1 0-.3 0-.9-.1-1.3 0h-.6c-.3 0-.5-.1-.7 0h-.3c0-.1 0-.1.1-.1 0-.1.2 0 .2 0 .1 0 .3 0 .5-.1h.6c.1 0 .3-.1.5-.1s.2.1.3.1c.1 0 .1-.1.2-.1 0-.2.3.1.3.2 0-.1.2-.3.3-.3.1 0 .2.1.5.1.4-.1.4 0 .6.2Zm-.4 11.7c-.2.1-1.6 0-2 0v-.1c.3 0 .9-.1 1.3-.3.3 0 .5.1.8.2-.1.1-.1.1-.1.2Zm-3.8-12.3c-.1 0-.2.1-.3.1-.3.1-.9.1-1.2-.1-.1 0 0-.1 0-.2.1 0 .6-.1.6-.1.4 0 .7 0 .9.3 0-.1 0 0 0 0Zm-.2 12.5s-.3.2-.5.2-.3-.1-.5-.1h-.3c-.3 0-.5 0-.8.1-.2 0-.2-.1-.3-.2 0-.1-.3.1-.3.2h-.1c0-.1 0 0 0 0 0 .1-.7.1-.9.1h-.1c0-.1-1-.2-1.3-.2v-.1c0-.1.1 0 .2 0 .3 0 .7-.1 1.2-.2.3 0 .6.1.9.2 0-.1.3-.2.5-.3h1.2c.2 0 .5.1.7.1.2 0 .3-.1.6 0h.1c-.3.1-.3.1-.3.2Zm-5.3.5H71c0-.1 0-.1.1-.1.3 0 .4 0 .6.1Zm-.9 0c0-.2 0-.3.1-.3l.5.1v.1c-.2 0-.3-.1-.3.1h-.3Zm-.3-12.7c0 .1 0 .1-.1.1s-.3-.1-.6-.1h-.3c0 .1 0 0-.1 0-.1-.1 0-.3.1-.5 0-.1-.1-.1-.1-.1v-.1c.1 0 .2 0 .3-.1h.7c.2 0 .5.1.6.1v.1c.1 0 0 0 0 0-.2.3-.4.4-.5.6Zm-1.3.4h-.9v-.1c.1 0 .2-.1.2-.2.1 0 .1.1.1.2.2 0 .6.1.6.1Zm-1.7-.6c-.2 0-.2 0 0 0v-.1h.9v.1c-.1 0-.1 0-.2.1-.3 0-.6 0-.7-.1Zm3.9 0c.1.1.2.2.1.3-.1.1-.2-.1-.3-.1-.1 0 .1-.1.2-.2Zm.1.8c.1 0 .2-.1.5-.1v-.1c-.1 0-.1 0-.1-.1h-.1c.1 0 .2-.1.3-.1 0-.1-.2-.2-.3-.2l-.1-.3s.5 0 .6-.1c.2.2.2.7.1 1 .2 0 .3 0 .5.1v.1c-.1 0-.2.1-.2.2-.3 0-.6-.1-.9 0-.1-.2-.2-.3-.3-.4Zm1.7.1c-.1 0-.1.1-.2.1 0 .1 0 0 0 0 0-.1 0-.1-.1-.1 0-.1.1-.2.1-.3l.1.1c0 .1 0 .1.1.2Zm-.7-1.1c.1 0 .1-.1.2-.1.1.1.3.2.6.3-.1 0-.2.1-.3.1-.1 0-.2-.1-.5-.3 0 .1 0 0 0 0Zm1.8-.3c.2 0 .5.1.8.1 0 .1 0 .2.1.5 0 .1-.1.1-.2.2-.1 0-.3-.1-.6-.2h.1c.1-.3-.1-.5-.2-.6Zm3.5-.3h.9c.1 0 0 .1 0 .2s-.7-.1-.9 0v-.2Zm16-1.2h.3c0 .1-.3.1-.5.1.1-.1.2-.1.2-.1Zm.6 1.5c-.1.1-.1.1-.1.2-.1 0-.2-.1-.3-.2.2-.1.3-.1.4 0Zm.7 1.6c0-.1.2-.1.3-.1.2 0 .3 0 .5.1-.1 0-.1 0-.2.1-.1-.1-.4-.1-.6-.1.1 0 .1 0 0 0 .1 0 0 0 0 0Zm4.1-1.8c-.1.1-.2.1-.3.1-.2 0-.5-.1-.8-.1.2 0 .6 0 .8-.1.1 0 .2.1.3.1Zm-1.7 1.4c.2 0 .5.1.7.1.5 0 1.3-.2 1.7.1 0 .2-1 .1-1.3.1-.1 0-.3 0-.5.1-.1 0-.1-.1-.1-.1 0-.1-.7 0-.8 0 0-.1-.1-.1-.1-.1v-.1c.2 0 .3-.1.4-.1Zm-.8 8.7c0 .1-.1.1-.1.1-.1 0-.2-.1-.2-.2h.1c.1 0 .1 0 .2.1Zm-.3-10c-.1 0-.2-.1-.3-.1 0-.1.2-.1.3-.2.3 0 .7.1 1.2.1v.1c-.1 0-.5.1-.6.1-.3.1-.4.1-.6 0Zm-1.3-1.4h1.1c0 .1 0 .2.2.2.1 0 0-.1 0-.1 0-.1 0 0 0 0 .3 0 .8-.1 1 .1-.1 0-.1 0-.1.1 0 0 .1.1.2 0 .2 0 .5.1.7.1.2 0 .3.2.6.1.1 0 .2-.1.3-.1v-.1c-.1 0-.3-.1-.5-.1 0-.1.1-.1.1-.2.1 0 .3 0 .5.1h.3c0-.3.1-.2.3-.2.1 0 .2-.1.3-.1.7 0 1.2 0 1.7.2-.1 0-.3 0-.5.1h-.6c-.3.2-.7.3-1 .6 0-.1 0 0-.1 0-.1.1-.2.2-.5.2-.3.1-.6-.1-.9 0h-.6c-.1 0-.3 0-.5-.1h-.9c-.2 0-.6-.1-.8 0-.2 0-.3-.1-.5-.2 0 .2-.2.5-.3.2.1 0 .2-.1.2-.2h-.3c-.3 0-.6-.1-.9-.2h.3c.6-.3 1-.3 1.2-.4Zm6.2.4s.1.1.2.1v.1h-.1c0 .1 0 0-.1 0-.2 0-.1-.2 0-.2Zm2 .7c-.1 0-.2.1-.5.2-.3 0-.8-.2-1.2 0 0-.2-.9 0-1.2-.3.1 0 .2-.1.3-.1.7.3 1.9-.2 2.6.2Zm-.6-1h.3v.1h-.4l.1-.1Zm.2 2.2v-.1c0-.1 0 0 .1 0 0 0 .1.1.2.1h-.3Zm.9 8.3c-.1.1-.2.1-.3.2-.1 0-.2 0-.3-.1.1-.2.4-.1.6-.1Zm.2-7.9s-.2 0 0 0h-.1c-.1 0-.1-.1-.2-.1 0 0 .5 0 .6-.1.1 0 .1.1.2.1v.1c-.1 0-.1.1-.2.1s-.3 0-.3-.1Zm0 7.9c-.1 0 0-.1 0-.1h.2c.1.1-.1.1-.2.1Zm.2-9.6c.1.1.3.1.6.1 0 .1-.1.1-.2.2h-1c-.1-.3.5-.2.6-.3Zm1 9.5c.2 0-.1.3-.1.3-.2 0-.6 0-.7-.2 0-.1.3-.1.5-.1h.3Zm1.4-7.7h-.2c-.5 0-.9-.2-.5-.6.2 0 .5.1.7.1v.5Zm0-2c0-.1.2-.1.2-.1h.8c.1 0-.1.1-.2.2-.2.1-.4.1-.8-.1.1.2.1 0 0 0 .1 0 0 0 0 0Zm1.2 1.7c.1 0 .1-.1.2-.1s.2.1.2.2c-.2 0-.3-.1-.4-.1Zm2.2-1.5c0 .1-.2.1-.3.1-.5 0-.6-.1-.7-.5h.1c.3 0 .7 0 .8.2-.1 0-.1 0 .1.2Zm-4.7-.9c.2-.2.7-.1.9-.1v-.1h-.1v-.2c0-.1.1 0 .2 0 .2 0 .5 0 .6.1.1.1.2.1.5.1.1 0 .2-.1.5-.1 0-.1 0-.3-.1-.3h.1c0-.1 0 0 0 0 .2 0 .3.1.6.1h.5c.2 0 .2.1.3.2.1 0 .2 0 .3.1 0-.2.5-.3.7-.2.1 0 .2.1.3.1.1 0 .3-.1.5-.2h.2c0 .1 0 .2.1.2 0 .2-.6.1-.7.1-.2.1.3.2.3.2 0 .1.1.1.1.2-.1 0-.1.1-.2.1-.3.1-.7 0-.7-.3h-.1c0 .1-.1.1-.1.1h-.6c-.3 0-.3.1-.5.2-.1 0-.3.1-.5.1h-.2c-.2 0-.5-.1-.7-.1 0 .1-.1.2-.2.3-.3 0-.5-.2-.8-.1v.2c0 .1-.6-.1-.8-.1-.1-.2-.6-.3-.4-.6Zm0-.5c.2 0 .3 0 .5.1-.1 0 0 0 0 0h-.3s-.2 0-.2-.1c0 .1 0 .1 0 0Zm11.7 1.2c0 .1-.2 0-.2 0s-.2 0-.2.1h-.3v-.2h.6v.1c0-.1.1 0 .1 0Zm1.1-.2c0-.1-.1-.1-.1-.1v-.1c.1 0 .1 0 .2-.1.1 0 .1 0 .2.1v.1c-.2 0-.2.1-.3.1.1.1.1.1 0 0-.1.1 0 0 0 0Zm.9-.1c.1-.1.2-.1.3-.2 0 0-.2-.1-.2-.2.2 0 .5 0 .6.1.1 0 0 0 0 0 0 .1.1 0 .2 0v-.2h1.2c0 .1 0 .2.1.2-.8.3-1.5.6-2.2.3.2 0 0 0 0 0Zm-.1 12c0-.1 0-.1 0 0l.1-.1c.2 0 .5 0 .6.1-.1 0-.2.1-.3.1-.1-.1-.3-.1-.4-.1Zm-3.1-12.7c.1-.1.2-.1.3-.1.2 0 .5.1.6 0-.2-.1-.6-.1-.8-.2 0-.3 1.6-.5 1.7 0h.6l.3-.1c.2 0 .2.1.5.1.5 0 .9-.1 1.4-.1 0 0 .1-.1.1-.2h.6c.2 0 .5.1.7.1.1 0 .2-.1.3-.1h.5c.3 0 1-.1 1.4.1.1.1.2.2 0 .3-.2.1-.6 0-.8.1 0-.1-.3.1-.5.1-.1 0 0 0 0 0 .1 0 .1 0 .1.1h-.6c0-.3-.5-.2-.6-.1h-.2c-.2 0-.5 0-.7-.1h-.7c-.2 0-.6 0-.8.1-.3 0-.9-.1-1.2 0-.5 0-.7-.3-1.2-.5-.1 0 0 0 0 .1s.2.1.2.1c-.1 0-.1.1-.1.1-.2.1-.6.8-1.1.2-.1.1 0 0 0 0Zm10.3 2c.2 0 .3.1.6.1v.1c0 .1-.3 0-.5 0-.2-.1-.1-.2-.1-.2Zm-1.3-1.7c.2 0 .5.1.7.1.1 0 .2-.1.3-.1.2-.1.5-.1.7-.1v.2c0 .1 0 0 .1 0v-.2c.2 0 .5.1.7.2.2 0 .5.1.7.1v.1h-.6c-.1 0-.2 0-.3.1-.3 0-.6-.2-.9 0-.5 0-.9-.2-1.3 0-.2 0-.5-.1-.7-.1h-.3c-.1 0-.2 0-.3-.1h-.6v-.1c0-.1.2-.1.3-.1 0-.1-.1-.1-.1-.2.1 0 .2-.1.3-.1.2.1.3.2.6.3.2.2.5 0 .7 0Zm11.9.4c-.1.1-.2.1-.3.1 0 .2-.2.2-.3.1 0-.1-.1-.1-.1-.2.1 0 .2-.1.2-.2.1 0 .2.1.3.1 0 .1 0 .1.2.1Zm-.3-1.5c.1 0 .9 0 1 .1-.1.1-.5.1-.7.1h-.3c-.1-.1-.1-.2 0-.2Zm2.9-.2c.3 0 .7 0 1 .1v.1h-.6c-.1 0-.2 0-.3.1h-.2c-.1-.3 0-.3.1-.3Zm30 2.8c0 .2-.7 0-.7 0h.7Zm-3.5-1.8.7-.1c.5 0 1 .1 1.5 0 .5.1.9.1 1.4.1.1 0 .3 0 .5-.1.1 0 .2 0 .3.1.2 0 .6 0 .8.1 0 .1 0 0 0 0 0 .1-.1.1-.2.1-.2 0-.5-.1-.8-.1-.1 0 0 .1 0 .1h-.1c0 .1-.6-.5-.7 0-.1 0-.1 0-.1.1-.1 0-.3-.1-.5-.1-.3-.1-.7 0-1 0h-.6c-.1 0-.2.1-.3.1-.1 0-.7-.2-.9-.3Zm6.3.1-.1.1c0 .1-.2 0-.2-.1h.3Zm0 0c.1 0 .1 0 0 0 .1 0 .1 0 0 0h.3c.2.1-.2.1-.3 0ZM66.9 92.5c-.1 0-.2.1-.3.1-.1 0-.7 0-.7-.2s.5-.2.6-.3c0 0 .2.3.4.4Zm-2.7-.1c0 .2-.6.3-.7.3 0-.1.1-.2.1-.2.1-.3.3-.2.7-.5h.9c0 .4-.7.4-1 .4Zm-2.6.3c0 .1-.8 0-.9 0v-.2c.2.1.5 0 .7 0 .2.1.2.1.2.2Zm0 10.4c-.1 0-.1.1-.2.1s-.1-.1-.2-.1c0 .1 0 .1-.1.1-.2 0-.6 0-.8-.1.1 0 .2-.1.2-.2.4 0 .7 0 1.1.2 0-.2 0 0 0 0Zm-.9 2c-.1 0 0 0 0 0h-.1c0 .1 0 0-.1 0v-.2c.1.2.1.2.2.2Zm-.7-1.6c0 .1 0 .1 0 0l-.1.1h-.1c0-.1.1-.2.2-.3 0 0 .1 0 .2.1-.1 0-.2.1-.2.1Zm-.1 2-.3.1h-.7c-.1 0 0 0 0 0 .1 0 .8-.1.8-.2-.1-.2 0-.2.2.1 0-.1 0 0 0 0Zm-1.2-12.6c0-.1.7-.5.8-.5.1 0 .2.1.3.1v.1c-.2 0-.6.2-.8.3h-.3s-.1 0 0 0Zm-.4 12.7c-.2.1-.2.1 0 0-.3 0-.6-.1-.8-.1h-.3c0-.1.1-.2.2-.3.3 0 .8.1 1.2.1-.2.1-.3.2-.3.3Zm-.7.5h-1.2c0-.1.1-.2.1-.2 0-.1.1-.1.2-.1.3-.1.6-.1.9.3.1-.2 0-.2 0 0ZM57 92.8c.3 0 .7 0 .8.5l-.5.1c-.1 0-.2-.1-.2-.2-.2 0-.1-.3-.1-.4Zm1 .1c.1 0 .2.1.2.2-.1 0-.2.2-.5.1.1-.2.3-.2.3-.3Zm-2.2 13c-.2 0-.5.1-.6 0 .1 0 0 0 0 0h.6Zm-.5.4c-.1 0-.3-.1-.5 0h-.6c-.3 0-.6 0-.9-.1 0 0 .3-.2.5-.3.2 0 .3.1.6.2s.6 0 .9 0v.2Zm-2.7.2h-2.4v-.2c.3 0 .6 0 .8-.1.6 0 1.2.1 1.6.1 0 0 .2 0 .2.1s-.1.1-.2.1Zm-2.9-12.8c0-.1.1-.1.1-.2.5 0 .8 0 1.2.1-.1 0 0 0 0 0-.1 0 0 .1 0 .1-.2 0-.3 0-.6-.1h-.5c-.1.1-.2.1-.2.1Zm-.9 12.8c-.3 0-.3-.1-.6-.2 0-.3.3 0 .5 0 0-.1.2-.2.2-.2.2 0 .3 0 .6.2.1.1-.5-.2-.7.2Zm2.5-2.9.6.1c0 .1 0 .1-.1.1h-.7c-.1 0 .1 0 .2-.2Zm-.1-10.1s.1 0 .2.1v.2h-.3c0-.1.1-.2.1-.3Zm.8 10.3c.1 0 .2-.1.3-.1.2 0 .3 0 .5.1.1 0 0 0 0 0-.1 0-.1 0-.1.1-.2.1-.4 0-.7-.1 0 .1 0 0 0 0Zm-4.3.5c-.1 0-.1.1-.2.1H47c0-.1.2-.1.3-.1.1-.1.2-.1.4 0Zm-1.9 2.7c-.1 0-.1.1-.2.1H45c0-.1.1-.2.2-.3.3-.1.4-.1.6.2Zm-1.9-.3h-.1c0-.1.1-.1.1-.2.3 0 .6.1.9.1-.1.1-.8.1-.9.1Zm-13.6.3c-.2 0-.7.3-.8.5-.2 0-.5 0-.7.1-.2 0-1.5-.1-1.5-.2s0-.1.1-.1c.2-.1.6 0 .9 0 .5 0 .9 0 1.3-.2.2-.4.4-.4.7-.1 0-.1 0 0 0 0Zm-4.5.4c0 .1-.7.1-.8.1h.1c.2-.3.8-.4.7-.1Zm-1.2.4c-.1 0-.1 0-.2.1-.2 0-.6 0-.8-.1v-.1c.1 0 .1 0 .2-.1h.8v.2Zm-3.5.3h-.6v-.1c.1 0 .2-.1.2-.1.2 0 .5 0 .7.1 0 0-.3 0-.3.1Zm-7.5-10.8c0-.1-.3-.1-.5-.2.1 0 0 0 0 0h.6c.1 0 0 .2-.1.2Zm259.3 7h.3c-.1.2-.3.1-.6.1.1 0 .2-.1.3-.1Zm23.2 5.3c-.2 0-.6-.2-.8-.2-.3 0-1.8.1-2.1-.2-.1-.1-.8-.1-.9-.1 0 .1-.8 0-.9.1-.2 0-.5-.1-.7-.1 0-.1-.1-.1-.2-.1 0-.2-.5-.2-.6-.2-.1 0-.1.1-.1 0-.3 0-.7.1-1 .1-.2 0-.6-.6-.8-.5-.3 0-1.3-.5-1.5-.2h-.1c0-.1-.2-.2-.3-.5h-.1c0 .1 0 .1-.1.1 0-.1-.2-.1-.3-.1-.1 0-.2 0-.3.1h-.7c-.1 0-.1-.2-.1-.2-.2 0-.5.2-.7 0 0-.1-.7 0-.8 0-.1 0-.1.1-.1.1-.2 0-.5-.1-.6 0-.1 0-.2-.1-.3-.2-.1 0 0 0 0 0 0-.1.1 0 .2 0v-.1c-.3 0-.7-.2-1-.3h-.5c-.2 0-.3-.1-.6-.1h-.5c-.2 0-.5-.2-.8-.2 0 .1-.1.1-.1 0-.3 0-1 0-1.3-.2h-.1c0 .1-.2 0-.2 0 0 .1-.3.1-.3.1h-.1c0-.2-1.2-.3-1.4-.5 0 .1-.6-.1-.7-.1-.1 0-.1.1-.2.1-.2 0-.5-.1-.7-.2-.6 0-1.3.1-1.7-.2.2 0 .5-.1.6-.1h.9c.6 0 1 .1 1.6.1.1 0 .2 0 .3-.1.2 0 .3.1.5.1s.3 0 .6-.1c0-.1-.1-.1-.2-.1h.7s.5.3.6.3c0 .1 0 .1.1.2.2.1.5 0 .7.1.5 0 .9.1 1.3.1.1 0 .2 0 .2-.1v-.1c-.7 0-1.3-.1-2-.1 0-.1.1 0 .1 0 .2 0 .5-.1.7-.1.5 0 .6-.2 1.2-.2.6.1 1.7.3 2.3.3.1 0 .3 0 .5-.1.2 0 .5.1.7.1.1 0 .2 0 .3-.1h.8c.3 0 .8.1 1.2.2.1 0 .2.2.5.2.1 0 .2-.1.5-.1.2 0 .3.1.6.1.3.1.8 0 1 .2.3 0 .7.1 1 .1h.6c-.1 0-.1 0-.1.1v.1h1.3v-.1c-.1 0-.2-.1-.3-.1 0-.1.2-.1.3-.1v-.1c-.2-.2-.7 0-.9-.1-.2-.1-.3-.2-.7-.2-.2 0-.3 0-.6.1h-.7c0-.1.1-.1.1-.2-.1 0-.3 0-.3.1h-.1c0-.1 0 0 .1 0h-.1v.1c-.1 0-.3-.1-.5-.1-.5 0-1.3.1-1.6-.1v-.1h.1v-.1c-.3 0-.5-.1-.9-.1v-.2h-.3l-.7-.1h-.8c-.1 0-.2-.1-.3-.1-.3 0-.7-.1-1.2-.1-.2 0-.3-.1-.6-.2h-.6c-.1-.1-.3-.1-.5-.2h-.7c-.1 0-.2-.1-.5-.1 0 0-.6-.1-.7 0-.2 0-.3 0-.6-.1h-1.4v-.1c0-.1-.2-.1-.3-.1-.3-.1-.7-.1-.9-.1-.2 0-.5-.1-.7-.1h-.8c-.2 0-.3-.1-.6-.2 0 .1-.5 0-.6 0-.3 0-.6 0-.8-.1-.1 0-.2-.1-.5-.2h-.9c-.2 0-.2-.2-.5-.2h-.3c-.3-.1-.8-.1-1.3-.2-.1 0-.1-.1-.1-.2 0-.2.9-.1 1.2-.1v-.2h.1c.1 0 .1.1.2.1s.3.1.5.1h1.2v.1h-.2c0 .1.1.1.1.1.6.1 1.4-.1 1.7.2.3 0 .6.1.9.1h1.5c0-.1-.2-.1-.3-.1-.5 0-.8-.1-1.3-.2-.1 0-.2-.1-.5-.1h-1.4s-.5-.1-.6-.1c0 0-.1-.1-.2-.1-.3 0-.5-.1-.7-.2-.3-.1-.6-.1-.9-.2 0 .1 0 0-.1.1-.2.1-.5 0-.7-.1-.5 0-.9-.1-1.4-.1-.2 0-.5-.1-.7-.1 0-.1 0-.1-.1-.1s-.3 0-.5-.1-.6-.1-.8-.2h-.5c-.2 0-.2-.1-.3 0-.3 0-1-.1-1.4 0h-.6v.2c.7 0 1.3.2 1.8.3h1.2c.3 0 .5.3.8.3.2 0 .3 0 .6-.2h.1c0 .3.8.2 1 .3v.1c-.1 0-.3.1-.5.1h-1.2c-.3-.1-.8-.2-1.2-.3 0 .1-.3.1-.3.2-.1 0-.2-.1-.3-.1-.1 0-.5.1-.6.1-.3 0-1.3-.2-1.4-.3-.1 0 0 0-.1.1-.3 0-.7-.1-.7-.5 0-.1-.1.1-.1.1.1 0-.1.1-.1.1h-.3v-.1c-.1 0 0-.1 0-.2-.2 0-.3 0-.6-.1-.1 0-.1-.1-.2-.2v-.1c.1 0 .2-.1.3-.1.2-.1.5 0 .7.1 0 .1 0 .1-.1.1 0 .1.1 0 .2 0 0-.1 0-.2.2-.3v-.1h-.1c0-.1-.1 0-.1 0h-.1c0-.1-.1-.1-.2-.1 0-.1 0-.2-.1-.3h-.1c-.3 0-.7 0-.9-.1-.1 0-.2-.1-.3-.1h-.7c-.2 0-.3-.1-.6-.1 0-.1.1-.2.1-.3.9 0 2 .2 2.8.5v-.1c.1 0 0 0 0-.1s.3 0 .5 0v.2c.1 0 .1 0 .2-.1.3-.1.8-.2 1.2 0v-.1c0-.1.2 0 .3 0 .2 0 .3.1.6.2.3 0 .6 0 .9.1h.7c.2.1.5.2.6.3h.1c.1 0 .2 0 .3-.1-.1-.1-.2-.1-.3-.2l-.2-.2c-.1-.1-.3-.1-.6-.2 0-.1-.1 0-.1 0 0-.1-.1-.1-.1-.1-.2-.1-.6 0-.9 0-.5 0-.7-.3-1.2-.2 0 0-.6-.1-.8 0-.2 0-.3-.1-.6-.1s-.7 0-1-.1c-.1-.1-.2-.1-.3-.2-.2 0-.3 0-.6-.1-.2 0-.5-.1-.7-.1-.2 0-.3.1-.6.1-.2 0-.3-.1-.5-.2s-.5-.2-.8-.1c-.2 0-.3 0-.6-.1-.3 0-.9 0-1.2-.1V99h.2c.1 0 .2 0 .3.1.1 0 .3.1.2.1 0 .1.1.1.2.1h1.3c.2 0 .6 0 .8.1h.8v-.1h-.3s-.3-.2-.3-.3h-.1s-.3.2-.6-.1c-.5 0-.9-.1-1.4-.1-.1 0 0-.1 0-.2h-1.5c-.1 0-.2-.1-.3-.1 0 .1-.7.1-.8.1h.2v-.1h-1.2s-.2.2-.2.3c0 0 .5.1.6.1v.1h-.3c-.2 0-.5-.1-.7.1-.1 0-.3-.1-.5-.1v-.2h.6c.1 0 0 0 0-.1v-.2c0-.2-.3-.2-.6-.2 0 .1-.6 0-.6.3-.5 0-.6-.5-1-.2 0 .1-.1 0-.1 0-.3-.2-.5-.1-.8-.1-.2 0-.7-.1-.8-.3 0-.1-.2 0-.3 0-1 0-2.1-.1-3-.1v-.2c-.2 0-.8-.1-1 0h-.5c-.1 0-.1-.1-.2 0h-.6c-.3 0-.5-.2-.7-.2-.3 0-.7-.1-.9-.1-.5 0-.9.1-1.4-.1-.1 0 0-.1 0-.2h-.6c-.1 0-.2-.1-.3-.1-.2 0-.6-.1-.7 0h-.3s-.7-.2-.9-.1h-1c-.7-.1-1.3-.2-2-.3h-.6c-.3 0-1-.2-1.4-.2-.1 0-.1-.1-.1-.1h.9v-.2h.3V96h-.8c-.2 0-.7-.2-.9-.1-.3 0-1.2-.1-1.5 0h-.4c0 .1 0 .1.1.1.6.2 1.5-.1 2.1.2v.1c-.1 0-.2.1-.3.1h-1.7c-.3-.1-1.3-.3-1.7-.1-.3 0-.6 0-.7-.2h-.9c-.2 0-.7-.1-.9 0-.6 0-1.2 0-1.7-.1h-1.2c-.1 0-.2-.1-.3-.1h-.8c-.2 0-.7-.1-.9 0h-1.3c-.3 0-.6 0-.8-.1 0-.1 0 0-.1 0 0 .1 0 0-.1 0-.2 0-.3-.1-.5-.1h-.8l-.1-.2v-.1c.1 0 .1 0 .2-.1h.6v-.2h-.1c0 .1-.3 0-.5 0-.8-.1-1.7 0-2.5-.1-.1 0-.2-.1-.3-.2-.2-.1-.5 0-.7 0-.1 0-.3 0-.3.1-.1 0 0 0 0 .1.2 0 .6-.1.9 0 .2.1.2.2.5.2.7.1 1.6-.1 2.3.1v.1c-.1 0-.1.1-.1.2 0-.1-.5.1-.6.1h-.1c0-.1-.6-.2-.7-.2-.1 0-.1.1-.2.1-.2.1-.3 0-.6-.1 0-.1-.9 0-1 0-.2 0-.6-.1-.8.1-.2 0-.3-.1-.6-.1h-1c-.1 0-.2.1-.5.1-.2 0-.9-.2-1-.3v.1c0-.1-.3 0-.3 0 0 .1.2.1.2.2h.1c0 .1-.7 0-.8 0 .1 0 .1 0 .2-.1.1 0-.2-.1-.3-.2 0 0-.3.3-.5.3-.3 0-.8 0-1.2-.1h-.1.2s-.3-.2-.6-.2-.9-.1-1 .3c-.3 0-1.2-.3-1.4-.3-.3 0-.6-.1-.9-.1-.3 0-1.6.1-1.7-.2-.1 0 0 0 0-.1.8 0 1.6-.1 2.3-.1h-.1c0-.1 0 0-.1 0 0 .1 0 0-.1 0 0 .1-.1 0-.1 0-.6-.2-.9-.6-1.6-.2-.1 0-.2-.1-.3-.1-.2 0-.3.1-.6.1-.1 0-.2-.1-.3-.1h-.6c-.2 0-.3.2-.5.2h-.3c0-.1.1-.1.1-.1v-.1c-.1 0-.2 0-.2-.1-.2 0-.3.1-.6 0-.2 0-.6-.2-.8-.1-.2 0-.6-.1-.7.1 0 0 1 .1.6.2 0 .7-.7.2-1 .3h-.9c-.2 0-.5-.1-.7 0h-.6c-.3 0-.9-.2-1.3.1-.3 0-.6-.1-.7-.3 0-.1-.1 0-.1 0h-.3c-.1 0-.2.1-.3.1-.1 0-.6 0-.7-.2v.1h-.7c.2 0 .3-.5.7-.3.1 0 0 0 0 0h-.2.3c0-.1-.1-.1-.1-.1 0-.2.5-.1.6-.1.1 0 .2-.1.3 0h.2c.1 0 .2-.1.3-.1V94c-.2 0-.5-.1-.7 0-.5 0-.9-.1-1.4-.1h-.3c-.3 0-1.3-.2-1.5-.1-.2 0-.5 0-.7-.1 0-.1.2-.2.3-.3.2 0 .3.2.6.2h.9c.1 0 .2-.1.3-.1.1 0 .3 0 .5.1.5 0 .9 0 1.4.1.5 0 .8-.1 1.4-.1.5 0 1 .1 1.5.1.3 0 .8-.1 1.2-.1h2.8c.2 0 .5.1.7.1.5 0 .8-.3 1.3 0 0 .1 0 0 .1 0s.3.1.5.1h.6c.5 0 .8-.1 1.3-.1h1c.5.1.9.2 1.4.2.5 0 .9-.2 1.4-.2.1 0 .3 0 .5.1h.6c.6.1 1.3.2 1.8-.1.1 0 .1.1.1.1.2.1.3.2.6.2h2.1c.2 0 .6.1.8.1.1 0 .3 0 .5-.1h1.5c.2 0 .3.1.6.1s.5-.1.7-.1c.2 0 .3.1.6.1h2.3c.1 0 0 .1 0 .2h.5v-.1c0-.1-.1-.1-.1-.1 0-.1-.1-.1-.1-.2-.1-.1-.3-.1-.6-.1v-.2c-.2 0-.5-.1-.7 0-.3 0-.9-.2-1.3 0h-1.2c-.2 0-.5 0-.6-.1H214c-.2 0-.3-.1-.6-.1-.1 0-.2 0-.5.1-.2 0-.5 0-.6-.1-.1 0-.2.1-.3.1h-.2c-.3 0-1.3-.1-1.5-.3h-.2c-.3-.2-.7 0-1 .1 0 .1 0 0 0 0 0-.1-.1 0-.1 0-.2 0-.3 0-.6-.1-.1-.1-.2-.2-.5-.2-.6-.1-1.4 0-2-.1-.2 0-.6 0-.7-.1-.1 0-.1-.1-.1-.1 0-.1.1 0 .2 0h.8c.5 0 .8-.1 1.3 0v-.1h-.2c0 .1-.9-.3-1-.5v.1c0 .1-.8.2-.9-.1-.2 0-.3.1-.6.2-.2 0-.3 0-.5-.2-.1 0-.2.1-.3.1h-.6v.1c0 .1-.5 0-.6 0h.2c0-.1-.1-.1-.1-.2-.2-.1-.3 0-.6 0-.5 0-1-.1-1.5-.1v.1c.1 0 0 0 0 0 .2 0 .6.1.8.1 0 .1-.1.1-.2.1 0 .2-.1.3-.3.3h-.6c-.6 0-1 0-1.6-.1-.2 0-.5.1-.7.1-.6 0-1.2-.1-1.6 0-.3 0-.5-.3-.8-.3-.2 0-.5.1-.7.1h-1.4s.1-.2.2-.3c.1-.1.3-.1.5-.1-.1 0-.1.1-.1.1h.4-.2V92l.2-.1c.3.1.8.1 1.2 0v-.1c-.2 0-.3-.1-.6 0-1.2 0-2.2-.1-3.3-.2 0 .1-.5.1-.3.1-.1 0-.1-.1-.2-.2-.1 0-.2-.1-.3-.1 0 .1-.6.2-.8.3-.2 0-.3-.1-.6-.1-.2 0-.6.1-.8 0h-.6c-.3 0-.9-.2-1.3 0-.2 0-.3 0-.3.2.3 0 1.5 0 1.7.1-.1 0-.1 0-.2.1-.1 0-.1-.1-.2-.1 0-.1 0 0 0 0 0 .1-.2.1-.2.1-.3 0-.6-.1-.9-.1-.2 0-.3.1-.5.1s-.2 0-.3.1c-.5.1-.6.2-.9-.2v.1c.1 0 0 .1 0 .1h-.1c-.1 0-.2.1-.2.1-.2 0-.5-.1-.7-.2-.1-.1-.1-.1-.3-.2v-.1c.1 0 .1-.1.1-.1v-.1c-.2-.1-.5-.1-.6-.2-.5-.1-.8 0-1.3 0-.2 0-.5-.1-.7 0h-.8c-.1 0-.1 0-.1.1s.1.1.1.1c.8.2 1.7.1 2.6.1v.1c0 .1-.2.1-.2.1h-1.2c-.1 0-.2.1-.3.2-.1.1-.3 0-.5 0 0-.3-.7-.2-.9-.3-.2 0-.6-.2-.8 0-.1 0-.7-.2-.6 0-.2 0-.5-.1-.7-.1-.2 0-.3 0-.5.1-.2 0-.6 0-.7-.1.2 0 .5-.1.7-.1 0-.2-.2-.1-.3-.1 0-.1-.1-.1-.2-.1 0 .1 0 0 0 0 0 .1-.1 0-.1 0-.1 0-.2-.2-.5-.2-.1 0-.1.2-.2.2-.2.1-.6 0-.8 0 0-.1-.1-.1-.1-.2-.7-.5-1.2 0-1.8 0h-.6v-.2c-.1 0-.3.2-.3.3 0 .1-.1 0-.2 0h-.6c-.5-.1-1-.2-1.4 0-.2 0-.5-.1-.6-.1h-.9c-.2 0-.3-.1-.5 0-.7 0-1.4.1-2.1 0v.1c.1 0 .2.1.2.1.3.1.7.1 1 .1-.3.1-.3 0-.6.3-.1 0-.2-.1-.2-.2-.1 0-.3.2-.5.2h-.6c-.3 0-.6.1-.8.1h-.5c.1 0 .1-.1.2-.1s0-.3-.1-.5c0-.1-.8-.1-.9-.1-.3 0-.7-.2-1 0-.3 0-.8 0-1.2-.1 0 .1-.1.1-.2.1h-.2c-.3 0-1-.1-1.3 0h-1c0-.1 0 0 0 0 0 .1-.2.2-.3.2 0-.1-.7-.5-.8-.5.1 0 .2-.1.3-.1.2 0 1.2-.2 1.3-.1 0 .1.2 0 .3 0 .2 0 .3.1.6.1.2-.1.5-.2.8-.2.3 0 .6.2.9.2.1 0 .2-.1.3-.2.1 0 .2 0 .3-.1.1.1.1.1.2.1.2.1.6.1.8 0 .1 0 .2-.1.5-.2.3 0 .8 0 1.2.1h.7c.2 0 .3 0 .6.1.1 0 .1.1.3.1.3 0 .3-.3.8-.1 0 .1 0 0 0 0 0 .1 0 0-.1 0 0 .1 0 0 0 0h.3c.1 0 .2.1.2.1.2 0 .3-.1.6 0 .1 0 .2.1.5.1h.7c.2 0 .3-.1.6-.1v-.2c.3 0 1-.2 1.3.1h.6c.6 0 .7 0 1.2.1 0-.1 0 0 0 0 0-.2.3-.3.5-.3s.2 0 .3-.1c.1 0 .2.1.2.1.2 0 .5.1.7.1.2.1.6.2.8.3.2 0 .3-.2.5-.2.3-.1.8-.2 1.2-.2l.3.1c.6 0 1-.2 1.3.3 0 .1.1.1.2.1h.1c-.1 0-.1 0-.1-.1h.9c.1 0 .1-.1.2-.2.2 0 .5-.1.6-.1h.1v.1c-.1 0-.1.1-.2.1v.1c.1 0 0 0 0 0h.7v-.1c.2-.1.3 0 .6 0s.5-.1.7-.1c.1 0 .2.1.3.1.2 0 .3 0 .6.1.5.1.9.2 1.4.2.5 0 .6-.2 1-.2 0-.1 0-.1-.1-.1 0-.1.2 0 .3 0 0 .1 0 .1-.1.1v.1h.2c0 .1.1.1.2.2.3.2.8.1 1.2.1h1.6c.1 0 .3.1.5.1s.1-.2.1-.2c-.1 0-.1 0-.2-.1.1 0 .3-.1.5-.1s.2.1.3.1c.1 0 .3.1.5.1s.1.1.2.1.2.1.3.1l.3.3c.1 0 .2-.1.3-.1.1 0 .1.1.2.2.2 0 .3 0 .6-.1-.1 0-.2-.2-.3-.2 0-.1.3-.1.5-.1.3 0 .6.1.9.1.5 0 .8-.1 1.3-.1.1 0 .3 0 .5.1h.5c.2 0 .2 0 .3.1h.9v.1c0 .1-.2.1-.2.1s.1.2.5 0 .7-.1 1.2-.1c.2 0 .5-.1.8-.1h.8c.1 0 .2 0 .3-.1h.5c.1 0 .3-.1.6-.1s.5.1.7.1c.3 0 .6-.1.9 0 .2 0 .5.1.7 0 0-.1 0-.1-.1-.1-.6-.2-1.5-.1-2.2-.1-.2 0-.6-.1-.8 0-.2 0-.3-.2-.6-.2h-.7c-.2 0-.3-.1-.6-.1h-1.7c-.1 0-.2.1-.3.1h-.5c-.3 0-.6-.1-.9-.1-1.2 0-2.3-.1-3.5-.1h-.6c-.1 0-.3 0-.5-.1-.7 0-1.5-.1-2.1 0-.1 0-.3.1-.5.2-.3 0-.6-.1-.9-.2h-.7c-.1 0-.3 0-.5-.1l-3-.1h-2.9c-.2 0-.2-.1-.5-.1h-1.6v.1h-1.7c-.2 0-.3 0-.6.1-.1 0-.5-.1-.6 0h-.6c-.2 0-.5-.1-.7-.1h-1.8c-.1 0-.3 0-.5.1-.2 0-.5 0-.7.1-.7 0-1.2-.2-1.8-.2h-.5c-.5 0-.8 0-1.3.1h-.3c-.2 0-.6-.1-.8-.1h-2.1c-.2 0-.6-.1-.7 0-.2 0-.5-.1-.7 0h-2.6c-.3 0-.8-.1-1.2 0-.3 0-.7-.1-1 0-.2 0-.8-.1-1-.1h-.3c-.5 0-2-.1-2.3 0h-2.4c0-.1 0 0 0 0 0 .1 0 0 0 0-.5.1-.9 0-1.3.2h-.5c0-.1.1-.1.1-.1v-.1c-.3 0-1.2-.1-1.4.1h-.1c0-.2-.5-.1-.5 0h-.2c-.1-.2-.7-.1-.8 0 0 .1-.8 0-.9 0h-.8c-.3 0-.6.1-.8.1h-.3c-.1 0-.3 0-.3.1-.2 0-.5-.2-.7-.2v-.2c-.2 0-.5 0-.7.1-.3 0-.6.1-.9 0-.7 0-1.5-.1-2.2-.1-.3 0-.6.1-.9.1h-2.9c-.1 0-.1 0-.2.1.1 0 0 0 0 0-.1 0-.1 0-.2-.1h-.1c0 .1-.1.1-.1.1-.5 0-1.7-.1-2 0h-1c-.2 0-.3 0-.6.1h-1.5c-.5 0-1-.1-1.4.1h-.2.3v-.1c-.2 0-.5 0-.6.1-.3 0-.6-.1-.9-.1h-.5c-.3 0-.9-.1-1.2 0h-2.1c-.2 0-.3 0-.6.1h-2.4c-.1 0-.2.1-.3.1h-4.1c-.5 0-1-.1-1.4.1-.3 0-.8-.1-1 0-.1 0-.3 0-.5.1 0-.2-.5-.2-.6 0h-2.9c-.2 0-.6.1-.7 0-.1 0-.1 0-.1.1-.1 0-.2-.1-.3 0h-.1c0-.1-.3-.1-.5-.1 0 .1.2.1.2.1 0 .1 0 .1-.1.2 0-.1 0 0-.1 0s-.2.1-.3.1c-.2 0-.6-.1-.8-.2 0 .1-.6.1-.6.1 0 .1-.7-.1-.8 0-.3 0-1.3-.1-1.6 0-.2 0-.9 0-1.2.1-.3 0-.8-.1-1.2.1-.6 0-.9.1-1.5.1v.1c0 .1 0 0 0 0h-3c-.2 0-.5 0-.7.1-.2 0-.7-.1-.9.1.1 0 0 0 0 0-.1 0-.1 0-.2-.1 0 .3-1.8-.1-1.5.5-.1 0-.2.1-.2.2-.3 0-.8 0-1 .1 0 .1-.1 0-.2 0 0 .1-.5 0-.6.3-.1 0-.2-.1-.3-.1 0 .3-.7-.2-.7-.3 0-.1.1 0 .2 0 .7 0 1.4.1 2.1 0 .1 0 0-.1-.1-.1-.3-.2-1.3-.2-1.7-.1h-.2c-.2 0-.5-.1-.7 0-.2 0-.3.1-.6.1h-.6c-.1 0-.2.1-.3.1-.2 0-.6 0-.7.2-.1 0-.5-.1-.6-.2-.3-.1-1.2-.1-1.5 0-.3 0-1.6-.1-1.7.1-.1 0-.1 0-.2-.1h-.1l-.1.1c-.1 0-.1-.1-.1-.1h-.1v.1c-.2 0-.6.1-.8.1-.2 0-.5-.1-.7 0-.5 0-.8.1-1.2.1-.3 0-.8-.1-1.2-.1-.2 0-.5.1-.7.1-.2 0-.5 0-.7.1-.3 0-1.3-.1-1.5 0h-.3c0 .1 0 0 0 0 0-.1 0 0-.1 0-.3.1-.8.1-1.2.1h-.8c-.1 0-.1.1-.2.1-.2 0-.6.1-.8.1h-1.3c-.2 0-.3.1-.6.1-.5 0-1-.1-1.5.1-.1 0-.3 0-.5.1-.3 0-.7 0-.9-.1 0 .1 0 0 0 0-.6.1-1.3 0-1.7.1h-.3c-.2 0-.5 0-.6.1H66c-.1 0-.2.1-.3.1h-.5s-.3 0-.2.1h-.2c-.2-.1-.1-.2-.5-.1-.1 0 0 .1 0 .1-.3 0-.7 0-1 .1h-.2c-.2 0-.5 0-.6.1 0 .1-.1 0-.2 0-.6 0-1.2-.1-1.6.1-.3 0-.7-.1-.9 0-.3 0-.6-.1-.9-.1-.3 0-.6 0-.8.1h-.9c0-.1 0 0 0 0 0 .1-.2.1-.3.1-.6 0-1 0-1.5.1-.2 0-.3.1-.5.1-.3 0-1.8-.1-2 .1-.1 0-.1 0-.2-.1 0 .1-.3.1-.3.2h-1c-.1 0-.3.1-.5.1h-.5c-.2 0-.2.1-.5.1h-1.7c-.1 0-.2 0-.3.1h-.7c-.1 0-.2.1-.5.1-.5 0-.9-.1-1.3 0 0 .1-.8.1-1 .1 0 .1-.2.1-.3.1h-.9c-.1 0-.2.1-.3.1-.1 0-.3 0-.5.1-.1 0-.2.1-.2.1-.2 0-.5 0-.7.1h-1.3c-.3 0-.3.1-.5.1s-.8-.1-1 0h-.8c-.1 0-.2.1-.3.1h-.7c-.2 0-.3.1-.6.1-.7 0-1.3-.1-1.8.2-.2 0-.6 0-.8.1-.3 0-.6 0-.8.1h-.6c-.3 0-.8.1-1.2.2h-.3c-.3 0-.6-.1-.9 0-.2 0-.9 0-1.2.1h-.3c-.2 0-.3 0-.6.1-.3 0-.6 0-.9.1-.1 0-.2.1-.3.1-.2 0-.5.1-.7.1h-.3c0 .1 0 0 0 0 0-.1-.1 0-.1 0-.3 0-.6.1-.9.2h-1.2c-.1 0-.2.1-.3.1-.2 0-.3.1-.6.1s-.7-.1-.9.1h-.3c-.1 0-.2 0-.3.1-.3 0-1.2.1-1.4.3-.2 0-.5 0-.7.1h-.5c-.2 0-.3.2-.6.2s-.6-.1-.9-.1c-.1 0 0 0 0-.1.3 0 .8-.1 1-.3 0-.1 1-.1 1.3-.1 0-.1-.1-.1-.1-.1v-.1c.1 0 .1 0 .1-.1-.1 0-.1 0-.2.1-.9 0-1.6.2-2.4.3-.3.1-.6.1-.8.2-.3 0-.7 0-.9.1-.2.1-.3.1-.6.2-.3 0-.8.1-1 .2-.2 0-.3.1-.6.1h-.8l-.1.1c-.5 0-.9.2-1.4.2 0 .1.1.2.2.3 0 0-.7.5-.8.6-.3 0-.7 0-.9.2 0 .1-.1 0-.2 0H6.8c0 .1-.3.1-.3.2 0 0-.5.2-.5.5 0 .7 1.3.1 1.5.1.2 0 .5.1.6.2.1 0 0 .1 0 .1-.1 0-.1.1-.2.2 0 0-.3.2-.5.3-.1 0 0 0 0 .1s.1.1.1.1l-.1.5h-.2v.2c.2 0 .5 0 .6.1v.2c-.2 0-.5 0-.6.1 0 .1-.2 0-.1.2 0 .2.9 0 1.2.3v.1c-.1.1-.3.1-.5.1-.2.1-.6.3-.7.5 0 .1-.1 0-.1.1-.5.1-.8.7-1.2.9 0 .1.1.1.1.2.1 0 0 .1 0 .2h-.2c-.1.1-.7.6-.7.7-.1.2-.1.3-.2.5 0 .1.2.2.3.2 0 .1 0 .1.1.1.2.3.5 0 .8 0 .2 0 .3.2.6.2.1 0 0 .2 0 .3 0 .1 0 .3.1.5s1.5.2 1.6.2c0 .1.3.2.5.2 0 .1 0 0 0 0 0-.1 0-.1.1-.1 0 .1.2.1.2.2.1 0 0 .1 0 .2.1 0 .2.1.3.2-.1 0-.2 0-.3.1 0 .1.2.2.3.2 0 .2-.6.2-.7.2h-.1c0 .2-.3.2-.5.3-.2 0-.5.2-.7.5-.3.5-.5 1.6.1 2.1 0 .1 0 .1-.1.1.1 0 .2.1.3.1h.6v-.1c.1 0 .1.1.2.1h.3v-.1h.9c.2-.1.5-.1.7-.2h.6c.2 0 .6-.1.8-.1.2 0 .5 0 .6-.1 0-.1.2 0 .2 0 .7 0 1.6.2 2.1-.2 0-.1.6 0 .7 0 .6 0 .9-.1 1.4-.2h.7c.1 0 .2-.1.5-.1.2-.1.5 0 .7-.1.2 0 .5-.1.7-.1h1.4v-.1c0-.1.1 0 .2 0h.9c.1 0 .3-.1.5-.2h.7c.7 0 1.3-.1 2-.2h.6c.1 0 .3-.1.5-.1h.6c.1 0 .2-.1.3-.1h.7c.1 0 .3 0 .5-.1h1.4v-.2H31c.6-.1 1.2-.2 1.7-.3.5 0 .9 0 1.4-.1.1 0 .2-.1.5-.1h1.2c.4 0 .7-.1 1.2-.1v-.2h.9c.2 0 .6-.1.8-.1v-.1c0-.1.6 0 .7 0 0 .2.2.2.3.2 0-.2.3-.1.5-.1h1.6c.1 0 .3-.1.5-.1s.3 0 .6-.1c.8 0 1.5 0 2.3-.2.1 0 .3-.3.5 0 .2 0 .3-.1.6-.1h1.2c.2 0 .5-.1.8-.1v-.1l-.2-.1.6.1h.8c.1 0 .3 0 .5-.1h.8c.5-.1.9-.1 1.5-.2h1.3c.2 0 .3-.1.5-.2h1.2c.2 0 .5 0 .7.1.3 0 .6-.1.9-.1v-.1c0-.1.1 0 .1 0h.5c.3 0 .7.1 1-.1 0-.1-.1-.1-.1-.2v-.1h.7c0 .1 0 .1.1.2.3 0 .6-.1.8-.1.6 0 .9.1 1.4-.3 0-.1.1 0 .1 0h1.6c-.1.1 0 0 .1.1.2 0 .5-.1.8-.1v-.1c-.1 0-.2-.1-.3-.1-.1 0 0 0 0 0 .1 0 .1-.1.2-.1.2 0 .3.1.6.1h.8v.1c-.1 0-.2 0-.3.1-.2 0-.3-.1-.6 0v.1h1.2v-.2c0-.1 1.2-.1 1.4-.1.1 0 0-.1.1-.1h.3c.1 0 .2.1.3.1h.6c.1 0 0-.2 0-.2 0-.1.1 0 .2 0h.9c.1 0 .2.1.3.1h.6c0-.1-.3-.2-.5-.2-.1 0-.2-.1-.3-.1 0-.1.1-.1.1-.1v-.1c0-.1 0-.1-.1-.1-.3-.1-1.3-.1-1.5.1 0 .1.2 0 .2.2 0 0-.2-.1-.3-.1 0-.1-.1-.1-.1-.2h.8c.1 0 .2-.1.3-.1.3 0 .9.5 1.2 0 .1 0 .2.1.3.1v-.3c0-.1 0 0 .1 0 .5 0 1.6-.2 1.8.1h-.1c-.2 0-.5 0-.7.2h-.3c-.2 0-.3 0-.6.1 0 .1.1.1 0 .2.3 0 .7 0 1 .1v-.2h.1v.2l.1-.1c.1-.1.5-.2.7-.1.1 0 .1.1.2.1.2 0 .3-.1.6-.1.1 0 0-.1 0-.1h.2v.2h.2c0-.1.1-.1.2-.2.5-.2 1 0 1.5 0 .2 0 .6 0 .8-.1.5 0 .8 0 1.3-.1 0 0 .3.1.5.1.6 0 1 0 1.6-.1.2 0 .3-.1.6-.1.6-.1 2.3.2 2.5-.1h.1c0 .1.1.1.1.1.3.2 1 .1 1.4 0 .1 0 .2-.1.3-.1.1 0 .2 0 .3.1 0 .1.2 0 .2 0 .2 0 .3.1.6 0 .1 0 .2-.1.3-.1h1.6v-.2h.2v.2h.1c0-.3 1.6.1 1.8-.3h3.2c0-.1-.2-.1-.3-.2 0-.1 0 0-.1 0v-.1h.3c.1 0 .2-.1.3-.1 0-.1 0 0 .1 0 0 .1.1.1.1.2.3.1.7 0 1 0 .3 0 .7.1 1 .1h3v-.1c-.1 0-.2-.1-.2-.1 0-.3 1.2 0 1.2 0 0 .1-.2 0-.3.1h-.3c.3.1.6 0 .8 0h.8v-.1h-.2v-.1h3.1s.2-.3.3-.1c0 0-.1.1-.1.2.2 0 .2 0 .3-.1h.1c0 .1.1.1.2.1.2 0 .2-.1.5-.2h.9v.2h.1v-.1c0-.1 0 0 .1 0h1.3c0-.2-.7-.2-.8-.2v-.1h.3c.3 0 .7 0 1 .1v.1c-.1 0-.1 0-.2.1v.1h.6c.1 0 .2 0 .3.1.1 0 .2 0 .3-.1.5 0 .9 0 1.4-.1.2 0 .5 0 .7-.1 0-.1 0 0 .1 0h.5c.1 0 .2.1.2.1.1 0 .2-.1.3-.1 0-.1-.1-.1-.1-.1s.6-.1.7-.1c0 .1.1 0 .1 0v.1c-.1 0-.1 0-.2.1v.2c.1 0 .1-.1.1-.1.1 0 .2.1.3.1.2.1.6 0 .7-.1 0-.1-.1-.2-.2-.2 0-.3 1 .1 1-.3 0-.1.2 0 .2 0v.2h.9c.1 0 .3 0 .5.1.2 0 .5-.1.8 0 .5 0 .8.1 1.2 0 .1 0 0-.1 0-.2s.1 0 .2 0h2c0 .1-.1.1-.2.2 0 .1.1 0 .2 0h2.4c0-.1 0-.1-.1-.2.2 0 .5 0 .6.1h1.4c.3 0 .6.1.9 0v-.1c-.2 0-.3 0-.6-.1H123c-.2 0-.3 0-.5-.1-.1 0 0 0 0 0 .1 0 .2-.1.3-.1.2 0 .3.1.6.1h1.5c.2 0 .5.1.7.1.2 0 .6-.1.7.1-.3 0-.6 0-.9.1v.1c.1 0 .2 0 .3.1h1.4c.5-.1.5-.3.9-.3-.1 0-.1.1-.2.1 0 .3 1.2-.1 1.4-.1 0-.1 0-.1-.1-.2h.5v.1h-.2c0 .1.2 0 .3 0v.1h-.5v.1h.6c0-.3.6-.2.8-.2.1 0 .2 0 .3-.1 0-.1-.2-.1-.2-.2v-.1c.5 0 1 0 1.5.1 0 .1-.2.1-.2.1-.1 0 0 0 0 .1.1 0 .2.1.3.1h1c.1 0 .2 0 .3-.1h1.5c.2 0 .5.1.8.1.6 0 1.2 0 1.7-.1v-.1c-.5 0-.8-.1-1.3-.1h.8c.2 0 .5 0 .7.1h-.2c0 .1.2.1.2.1.2.1.6 0 .8 0 .3 0 .6.1.9.1.1 0 .3-.1.5-.1h.6c.1 0 .2-.1.5-.1-.1 0 0 0 0 0h.2v-.2c.3 0 1.2 0 1.3.2.1 0 .3-.1.5-.2 0-.1-.1-.1-.1-.1 0-.1 0-.1.1-.2 0-.1-.2 0-.2 0v-.2c.1 0 .5.3.7.5v.1c-.1 0 0 0 0 .1h-.1c0 .1 0 0 0 0 .5.1 1 .1 1.6.1.6 0 1.2 0 1.6-.1 0-.1-.5 0-.6 0v-.1c.2 0 .5 0 .7.1h2.1c.6 0 1.7.2 2.2 0-.3 0-.8 0-1.2-.1h-.1v-.1c.2 0 .5-.1.7-.1h.5c.2 0 .2 0 .3-.1.3 0 .7 0 1 .2v-.1c0-.1.2 0 .3 0h-.1c.3 0 .5.1.8.1v.1c-.1 0-.2 0-.3.1 0 .1.5.1.6.1v-.2c.1 0 .2.1.3.2.3.1.7.2 1 .1v-.1c-.3 0-.5.2-.8 0-.1 0 0-.1 0-.2h-.3c-.3 0-.7 0-.9-.1.2 0 .5-.3.7-.1.1 0 .2 0 .2-.1.2 0 .9 0 1.2.1.1 0 .1.1.1.1h-.1c0-.1-.1 0-.1.1h.6v.1c.1 0 .1 0 .1.1h.1l.9-.1c.3 0 .6 0 .9-.1 0 .1-.2.1-.2.1 0 .1.7.1.8.1v-.1c0-.1-.1-.1-.1-.1v-.1c.1 0 .2-.1.2-.2.1 0 .1.1.2.1v-.1h1.5v.1h-.1.1c0 .1.1.1.1.1.6 0 2.3-.1 2.6.3 0 .1 0 0 .1 0 .5 0 .9.1 1.4.1.1 0 .3 0 .5-.1v-.1c-.2 0-.6-.1-.8-.1-.1 0 0 0 0-.1.3 0 .9-.1 1 .2.1 0 .1-.1.2-.1 0 0 .5-.1.6-.1v-.1c0-.1-.3 0-.3 0h-.4v-.1h.3c.2 0 .3 0 .6.1.5 0 .7-.1 1.2 0v.1c-.1 0-.1 0-.1.1v.1h.3c0-.1-.1-.1-.1-.1v-.1c.2 0 .5-.1.7-.1.3 0 .6.1.9.1.2 0 .8-.1.6.2-.2 0-.5 0-.6-.1-.2 0-.5 0-.7.1 0 .1.1.1.1.1.2.1.5 0 .7 0 .5 0 1.5-.1 1.8.2 0 .1.1.1.1.1.2.1.5 0 .8 0 .2 0 .5.1.7.1.2 0 .2-.2.5-.2.2 0 .5.1.7.1.2 0 .3-.1.6-.2v-.2h-.3.3c.1 0 .2 0 .3-.1h1.1c.1 0 0 0 0 0 .3 0 .6-.2.8-.2h.5c.2 0 .1.1.2.2-.1 0-.1.1-.2.1-.2 0-.5-.1-.7 0-.1 0 0 .1.1.1.2.1.3.1.6.2h.6c.2 0 .6.1.8.1h.6v-.1h-1.4c0-.7 1.6-.3 2-.1 0 .1-.3.1-.5.1 0 .1.7.1.9.1v-.1c-.1 0-.2-.1-.3-.1-.1 0 0 0 0 0 .1 0 0 0 0 0 .1 0 .2-.1.3-.1.2 0 .5.1.7.1.2 0 .3-.1.5-.1s.3.1.6.1h.9v-.1c0-.1.2 0 .3 0 .2 0 .5.1.7.1.1 0 .2-.1.3-.1h.3c.1 0 .2 0 .3-.1.2 0 .3.1.6.1h.3c.1 0 .2.1.2.2.3 0 .7.1 1 .1.3 0 .7 0 1.2-.1 0-.1-.1-.1-.1-.2.3 0 .7-.1 1 0 .2.1.5.1.7.2.2 0 .5-.1.7-.1 0 .1 0 .1-.1.1.2 0 .3.1.6.1-.1 0 0 0 0 0-.1 0 0 0 0 0h-.2c0 .1 0 0-.1 0 0 .1 0 0 .1.1.6.1 1.3.1 1.8.1.3 0 .7.1.9 0-.1 0-.6-.1-.5-.2.1-.1.3-.1.6-.2 0 .1 0 .1.1.1.2 0 .5 0 .6.1.1 0 .3.1.5.1 0 0 .1 0 .1-.1h.5c0 .1 0 0-.1.1-.1 0 0 .1 0 .1h.3c.3-.1.7-.1 1-.2.1 0 .2-.1.3-.1h.6c.3 0 .7-.1 1-.1 0-.1 0-.1.1-.1.2-.1.6.1.8.1.3 0 .7.1 1 .1h.5c.3 0 .8.1 1.2 0 .1 0 .1-.1.2-.2h.2c.1 0 0 .1 0 .2.2 0 .5-.1.6-.1.2.1.3.1.6.2s.7 0 1.2 0l.5.1h.3c.3 0 .6.1.9.1.2 0 .5 0 .7-.1.2-.1.3-.1.7-.1h.7c.1 0 .3.1.5.1.8.1 1.5.1 2.3.1.2 0 .6 0 .9-.1.2 0 .5-.1.8-.1.3 0 .5.1.8.2h.7c.1 0 .3 0 .5.1.2 0 .3-.1.6-.2.2-.1.3 0 .6 0 .1 0 .2-.1.3-.1v-.2c0 .1.1.1.1.2v-.2c0-.1.6 0 .8 0h-.2v.1c.2 0 .7-.1.9.1h-.2v.2c.3 0 .5 0 .8-.1-.1 0-.2-.1-.3-.1h1c0 .1-.2.1-.3.1 0 .1 0 0 0 0 .1 0 .2 0 .2.1h.6c0-.1-.1-.1-.1-.2 0-.3.7-.1.8 0h.3c0 .1 0 .1-.1.1.1 0 .2.1.3 0h.1l-.1-.2.8.1c.1 0 .2 0 .3.1.1 0 .2-.1.3-.1.2 0 .5.1.7.1h.6c.3 0 .3.1.6.1.1 0 .2-.1.5-.1.2 0 .3.1.6.1.3.1.7.1 1 .1h.9c.7 0 1.4.1 2.2.1h.1s0 .1-.1.1c0 .1.3.1.5.1 0-.1 0-.1.1-.2.2-.1 1.7 0 1.8.1h-.2c0 .1 0 .1-.1.1.6 0 1.3 0 1.8.1.1 0 .2.2.5.2.1 0 .2 0 .3-.1h.7c.2 0 .3.1.6.1h.7c.3 0 .7.1 1 0 .1 0-.1-.1-.2-.1v-.1h.6v.1h-.2v.1c.1 0 .1 0 .2.1.5 0 1 .1 1.5.1 1.2 0 2.3 0 3.3.1.2 0 .3.2.6.2h.6c0-.1 0-.1-.1-.1 0-.1-.2 0-.2 0 .1 0 .2 0 .3-.1h.6c.3 0 .6-.1.9 0 0 .1 0 .1-.1.1v.1h.6c.1 0 .2-.1.2-.1.2 0 .5.1.8.1l.7-.1h.8v-.1h.7v.1h-.1c0 .1-.1 0-.2 0h-.2c0 .1.8.1.9.1.1 0 .2.1.2.1s0-.1.1-.1c.3 0 .6.1.9.1.2 0 .5-.1.7-.1h.7c.3 0 .8-.2 1.2-.2.2 0 .5 0 .7.1.6.1 1.2.3 1.7.1-.1-.2-1-.2-1.2-.2v-.1c.1 0 .1 0 .1-.1h.6c.3 0 .3-.1.6-.1s.5.1.7.1c.3.1.7.2.9.3 0-.1.6-.1.7-.1v.1h-.1c0 .1.1.1.2.1.2 0 1.2 0 1.3.2-.1.1-.3 0-.5 0 0 .1-.8 0-.8.1 0 0 0 .1.1.1.3 0 .6.1.8.1h.5c.2 0 .1 0 .1.1.2 0 .5.1.7.1.3 0 .8-.1 1.2 0 .2 0 .3.2.7.2.5 0 1 0 1.6.1.2 0 .5.2.7.2.1 0 .1-.1.2-.1 0-.1.3 0 .5 0h1.8c.2 0 .3-.1.6-.1.1 0 .3.1.5.1h.6c0 .2-.2.1-.2.2.1.1.5 0 .6-.1v-.1h-.3c0-.1.5 0 .6.1.5.1.8.1 1.3.2.2 0 .5.1.7.1h.2c.1 0 .2.1.3.1.2 0 .3-.1.6-.1.2 0 .3.2.7.2.3 0 .8 0 1.2.1v.1c0 .1 0 0 .1 0 .2 0 .3 0 .6.1h.7c0-.1-.1-.1-.2-.1v-.1h.5-.1c-.1 0 0 0 0 .1h.9v-.1h-.6 1c.3 0 .8.1 1 0 .1 0 0-.1 0-.2-.1 0-.3.1-.5.1s-.3 0-.5-.1h-1.1v-.1c0-.2.8 0 .9 0 .1 0 .2 0 .3-.1h-.1v-.1c.2 0 1 .3 1.3.5.1.1.2.2.5.3 0-.1 0-.1-.1-.1h.2c.1 0 0 .1 0 .2s.1 0 .1 0c0-.1 0-.1.1-.2 0-.1.2 0 .3 0v.3c-.1 0-.2 0-.2.1s0 .1.1.2c-.1 0-.2.1-.2.2s.3.1.3.1v-.2c.1 0 .1.1.2.1.1.1.2.1.5.1 0 .1-.1.1-.2.1v.1c0 .1.3 0 .5 0h.6c.3 0 .6.1.9.2h.8c.5.1.9.1 1.4.1 0-.1-.8-.1-.9-.1 0 0 .1-.1.1-.2-.2-.1-.6-.1-.8-.2 0-.1 0-.1-.1-.2 0-.1-.1 0-.2 0 0-.1-.1-.1-.1-.1 0-.1.1-.1.1-.2.2-.1.5.1.7.1h.6c.3 0 .3.1.6.1.1 0 .2.1.3.1.2 0 .5-.1.6-.1.1.1.2.1.5.1.5.1.9.1 1.4.2 0 .1.6.2.7.2v.1c-.1 0-.1 0-.2.1-.2 0-.5 0-.6.1 0 .5.9.3 1.3.3v.1c0 .1-.1.1-.2.1h-.7v.1c.3 0 1.4 0 1.6.2h-.1c0 .1-.2.1-.3.1h-.1 1.2c.1 0 .1-.3.5-.2v.2c.1 0 .1-.1.2-.1h.5-.1c0 .1.2 0 .2 0h.3c.1 0 .3 0 .5.1h1.7v-.1c-.2 0-.3-.1-.6-.1v-.1c.3 0 .6-.1.8-.1.1 0 .2.1.3.1v.1c-.1 0 0 0 0 .1-.1 0 0 .1 0 .1.7 0 3 .2 3.6 0 0 0 .1.1.1 0 .1 0 0-.1.1-.1 0 .5.2.3.6.2-1.9-1-1.9-1.2-1.9-1.3ZM327.6 64h1.2c.7-.1.9-.6.9-1 0-1-1-1-1.4-1-.9 0-.9.1-.9.9v1.2h.2V64Zm1.2-3c.7 0 1.3 0 1.7.3.6.3 1 .9 1 1.6 0 1-.7 1.6-1.7 1.8.6.2.7.9.8 1.3l.1.7c.1.5.2.7.3.7.1 0 .3-.1.5-.9l.8.1c-.2.8-.5 2.2-1.6 2.2-1 0-1.3-1-1.6-2.2-.2-1-.3-1.5-1.2-1.6h-.2v2.2c0 .6.1.6.8.7v.8h-3.3v-.8c.3 0 .6-.1.7-.2.1-.1.1-.1.1-.8v-4.4c0-.6 0-.7-.8-.7v-.9h1.6l2 .1Zm-.4-1.6c-3.1 0-5.5 2.5-5.5 5.5 0 3.1 2.4 5.5 5.4 5.5 3.1 0 5.5-2.4 5.5-5.5 0-2.9-2.3-5.5-5.4-5.5Zm-.1 11.5c-3.1 0-6-2.4-6-6.1 0-3.5 2.8-6.1 6-6.1 3.5 0 6.1 2.8 6 6.1.1 3.5-2.6 6.1-6 6.1Z" id="Shape"/></g></g></svg>