<svg version="1.1" id="Layer_1" xmlns="http://www.w3.org/2000/svg" x="0" y="0" viewBox="0 0 1080 404.6" xml:space="preserve"><style>.st0{fill:#163145}</style><g id="aTVgTx.tif"><path class="st0" d="M1080 283.3c-2.4.6-4.9 1.8-7.4 1.9-5.6.3-11.2.1-16.9.1-6.4 0-7.4-1-7.4-7.2 0-22.8.1-45.6-.1-68.4 0-5.1-.5-10.2-2-15-3-9.9-14.8-13-21.6-5.1-3.6 4.2-6.5 10.5-6.8 15.9-1 22.6-1 45.2-1.2 67.8-.1 11.9 0 11.9-12.3 11.9h-13.7c-3.9 0-5.8-1.8-5.8-5.8V164.2c0-3.8 1.7-5.6 5.3-5.7 6.5-.1 13-.1 19.5 0 3.6 0 5.5 1.9 5.4 5.6 0 4.3 0 8.8.8 13.3.7-1.3 1.5-2.4 2.1-3.7 7.2-13.7 19.3-20 33.9-17.4 15.2 2.5 24.2 12 26.6 27.7.2 1.5.7 3 1.2 4.4.4 31.8.4 63.4.4 94.9zM467.1 0c3.8 1.5 7.6 3.2 11.5 4.4 13.9 4.4 28 8.7 42.1 14-5.9 1.6-11.8 3.2-17.8 4.8-3.6 1-7.3 1.6-10.7 3-17.3 7.1-34.4 6.8-52 .1-9-3.4-18.5-5.2-29.4-8 3.8-1.4 6.2-2.2 8.8-3.1 13.8-4.3 27.8-8.6 41.6-13 1.6-.5 3.1-1.5 4.6-2.2h1.3zM308.8 0c8.3 2.9 16.7 5.9 25 8.7 9.5 3.1 19 5.9 28.6 9.8-7.8 2.1-15.6 4.2-23.3 6.4-.2 0-.3 0-.5.1-22.3 9.9-44.1 6.4-66.1-1.4-5.9-2.1-12.1-3.4-19.4-5.5 2.5-1 4-1.6 5.5-2 14.7-4.6 29.4-9.2 44-13.8 1.8-.5 3.5-1.5 5.2-2.3h1zM491.1 175.6c6.8-12.7 16.7-19.5 31-19.5 14.7 0 23.7 8.1 29.5 21.6 6.5-14.3 17-21.4 31.7-21.6 18-.3 30.9 11.2 32.4 29 .7 8.3.6 16.8.6 25.2.1 22.3 0 44.6 0 66.8 0 7.2-1.1 8.1-8.2 8.1h-16.4c-6 0-7.4-1.4-7.4-7.4v-66.3c0-3.9 0-7.7-.2-11.6-.3-7.9-3.7-12.6-9.8-13.6-8-1.4-15.1 1.8-17.5 9-1.5 4.2-2.2 8.9-2.2 13.4-.2 22.8-.1 45.6-.1 68.4 0 7.3-.8 8.1-8.1 8.1-5.6 0-11.3-.2-16.9 0-5.1.2-6.9-2-6.8-7 .1-22.5.2-44.9 0-67.4 0-5.2-.5-10.6-1.7-15.6-1.6-6.7-5.6-9.5-11.9-9.9-6.2-.3-11.8 2.5-13.5 8.7-1.8 6.4-2.7 13.4-3 20.2-.3 21-.1 42.1-.1 63.2 0 7.1-.7 7.7-7.9 7.8-5.8 0-11.6-.1-17.4 0-4.3.1-6.4-1.7-6.4-6.2.1-38.1.1-76.1 0-114.3 0-4.5 2-6.4 6.3-6.3h18c4.4 0 6.4 2.1 6.2 6.5-.3 3.6-.2 7.2-.2 10.7zM405.9 270.7c-2.3 2-4.5 4.1-6.8 6-12.9 10.7-27.7 12.5-43.2 8.3-15.3-4.1-24.3-19.9-22.4-37.4 2.3-21.6 15.4-34.6 39.7-38.9 9.2-1.6 18.4-2.5 28.8-3.9-.7-5.5-.7-11.3-2.2-16.7-1.9-6.4-7.5-8.3-13.7-8.4-7.8-.1-14.2 2.6-17.5 10.1-3.5 7.6-3.4 7.7-11.6 7.1-4.9-.4-9.8-1-14.7-1.6-4.2-.5-5.6-2.7-4.5-7.1 3.8-15.3 13.5-25 28.3-29.9 12.6-4.1 25.5-4.9 38.4-1.6 20.1 5 29.1 15.8 29.6 36.5.3 15.4.3 30.8 0 46.4-.1 8.1 2 15.1 7 21.5 4.3 5.6 4.1 6.3-1.4 11.2-4 3.5-7.9 7-11.9 10.3-5.4 4.6-6.8 4.8-11.8-.5-3.5-3.3-6.5-7.2-10.1-11.4zm-3.5-45.9c-.5-.6-1.1-1.3-1.7-1.9-7.3 1.6-14.8 2.2-21.6 4.9-11 4.3-15.2 18.5-9.6 28.8 2.3 4.3 6 6.7 11 6.9 8.3.2 16.1-5.4 18.7-15.5 2.1-7.5 2.3-15.5 3.2-23.2zM708.9 270.7l-5.4 4.8c-11.7 10.8-25.9 13.2-40.8 10.6-17.4-3.1-27.9-18.5-26.3-37.6 1.8-22.1 15.2-35.6 39.9-39.7 9.1-1.6 18.4-2.5 28.1-3.9 0-2.7.1-5.6 0-8.3-.2-10-4.4-15.5-12.6-16.6-10.3-1.5-18.3 3-21.2 12.1-1.3 4.2-3.2 6.1-7.9 5.3-5.3-1-10.9-1.1-16.3-1.7-5.8-.7-6.9-2.3-5.5-7.9 3.8-15.4 14-24.7 28.7-29.4 12.7-4 25.5-4.5 38.4-1.3 19 4.8 28.3 15.9 28.8 35.6.4 15.7.3 31.6.1 47.4-.1 7.9 2 14.8 6.8 21 4.4 5.9 4.2 6.7-1.4 11.6-3.8 3.4-7.7 6.7-11.5 10-5.6 4.9-7 5-12.3-.5-3.4-3.6-6.3-7.5-9.6-11.5zm-4.6-47.9c-7.7 1.7-15.3 2.3-22.1 5-11 4.3-15.3 18.4-9.7 28.8 2.4 4.5 6.2 7 11.5 7 7.7 0 12.8-4.2 16.3-10.6 4.9-9 4.4-18.9 4-30.2zM968.3 217.7c-.6 21.6-4 37.3-14.2 50.7-21.6 28.5-64.7 25.7-81.4-6-13.4-25.3-13.4-52-1.6-78 9-19.6 26.6-29.7 47.5-28.1 22.6 1.7 36.9 14.7 43.9 35.3 3.4 9.8 4.6 20.6 5.8 26.1zm-33.8 3.3c-1.3-9-2.4-19.2-4.4-29.3-1.1-5.4-4.5-9.4-10.3-10.8-9.7-2.3-17.1 2.3-20.1 13.5-3.7 14.2-3 28.5-1.5 42.9.6 6.1 2.1 12.6 4.9 18.1 5.2 10.5 18.5 10.7 24.7.6 1.7-2.6 3.1-5.7 3.5-8.7 1.3-8.1 2-16.4 3.2-26.3zM808.8 184h-12.6c-8.2 0-16.5-.1-24.8 0-4.6 0-6.8-2-6.7-6.7.1-4.4 0-8.8 0-13.2 0-3.8 1.7-6 5.7-6h73.8c3.7 0 5.3 2 5.5 5.6.6 9.5-.8 18-7 26.1-12 15.7-22.9 32.3-34.3 48.6-1 1.4-1.9 2.9-2.9 4.4 8.8 1.3 17.3 2.1 25.6 3.9 5.4 1.2 10.8 3.4 15.5 6.1 2.4 1.4 4.6 4.9 5.1 7.7.7 5.3.4 10.9.2 16.3-.2 4.6-2.7 6.2-7 4.3-26-12.1-51.9-12.1-77.7.1-3.8 1.8-6.5.2-6.7-4.1-.2-6.4-.5-13 .2-19.4.4-3.8 2.2-7.8 4.4-11 12.9-18.8 26-37.5 39.1-56.2 1.4-1.8 2.6-3.7 4.6-6.5zM60.8 270.9c-7.7-2.5-15.3-5.1-22.9-7.6-11.3-3.8-22.6-7.4-33.9-11.4-1.7-.6-3.8-2.9-3.8-4.4-.2-27.9-.2-55.8-.1-83.7 0-.6.3-1.3.6-2.3 13.8 4 27.4 8 40.9 12 5.5 1.6 11.2 3.1 16.6 5.1 1.5.5 3.3 2.7 3.4 4.2.1 28.9 0 57.9-.1 86.8 0 .2-.2.3-.7 1.3zM219.2 270.9c-13.4-4.4-26.5-8.8-39.5-13.1-6-2-12-3.8-17.8-6.2-1.5-.6-3.3-2.7-3.3-4.2-.2-27.9-.1-55.8-.1-83.6 0-.5.3-1 .5-1.9 1.2.2 2.2.3 3.4.6 17.8 5.3 35.6 10.6 53.4 15.7 2.6.7 4.3 1.6 4.3 4.8-.1 28.7-.1 57.4-.2 86.3 0 .2-.3.5-.7 1.6zM317 138.4c-.1-2.2-.3-3.9-.3-5.6 0-26.6.1-53.3-.1-79.9 0-4.5 1.5-6.3 5.8-7.6 17-4.8 33.9-10 50.9-15 1.5-.4 3-.5 5.1-1V35c-.1 26-.2 52-.1 77.8 0 3.9-1.1 5.8-5 7.1-17 5.5-33.9 11.3-50.9 16.9-1.6.6-3.2 1-5.4 1.6zM219.6 294c.2 2.1.4 3.5.4 4.9 0 26.7-.1 53.3-.1 80 0 3.1-.7 4.8-3.9 5.8-18.3 6-36.5 12.3-54.8 18.4-.6.2-1.4.1-2.5.3-.1-1.7-.3-3.2-.3-4.6 0-27 .1-54.1-.1-81.1 0-4 1.1-5.8 5.1-7 18.5-5.3 36.9-11 56.2-16.7zM238.1 28.8C257.7 34.6 277 40.2 296 46c1.4.4 3.1 2.6 3.1 4 .2 29.1.1 58.2.1 87.9-1.8-.3-3.1-.3-4.3-.7-17.6-5.8-35.3-11.7-52.9-17.5-2.6-.8-4.5-1.9-4.5-5.4.1-27.6.1-55.1.1-82.7 0-.7.2-1.3.5-2.8zM79.8 294c10.1 3 19.7 5.8 29.5 8.7 9.2 2.7 18.5 5.4 27.7 8.3 1.6.5 3.8 2.9 3.8 4.4.2 28.4.1 56.8.1 85.2 0 .6-.3 1.4-.5 2.4-1.5-.3-2.7-.5-4-1-17.6-5.8-35.2-11.8-52.8-17.5-3-1-4.2-2.2-4.2-5.5.1-27 .1-54 .1-81-.2-1 .1-2.2.3-4zM140.6 161.7c.1 2.2.2 3.8.2 5.4 0 26.1-.2 52.3 0 78.4 0 4-1.3 5.8-5.1 7.1-16.7 5.4-33.3 11.1-49.8 16.6-2 .6-4 1.2-6.4 1.8-.1-2-.3-3.5-.3-5 0-27 .1-54-.1-81 0-3.9 1-5.8 5.1-7 17.3-4.9 34.5-10.1 51.9-15.3 1.3-.3 2.5-.5 4.5-1zM237.6 271v-39.2c0-15.8-.1-31.6.1-47.4 0-1.9 1.6-5.1 3.1-5.5 19-5.9 38.2-11.4 58.1-17.2.1 2.3.4 4.1.4 5.9 0 26-.2 52 0 77.9 0 3.9-1.1 5.9-5 7.2-17.3 5.6-34.6 11.4-52 17.2-1.2.2-2.6.5-4.7 1.1zM396.9 29c5.6 1.7 11 3.2 16.3 4.8 13.3 3.9 26.5 7.9 39.8 11.7 2.9.8 4.6 1.8 4.6 5.2-.1 28.6-.2 57.1-.2 85.8 0 .3-.2.6-.5 1.6-1.4-.3-2.9-.5-4.2-1.1-17.3-5.7-34.5-11.5-51.9-17.2-2.6-.8-4.8-1.7-4.6-5.2.1-27.4.1-54.7.1-82.1-.1-.9.3-2 .6-3.5zM536.4 29.3c.1 2.3.3 4 .3 5.7-.1 26-.2 52-.1 77.9 0 3.9-1.1 5.9-5 7.2-17.2 5.5-34.2 11.4-51.4 17.1-1.3.4-2.6.6-4.5 1.2-.1-2.1-.3-3.8-.3-5.5 0-26.7.1-53.3-.1-80 0-4.1 1.1-6.1 5.4-7.4 16.9-4.6 33.6-9.8 50.4-14.8 1.5-.6 3.2-.9 5.3-1.4zM396.8 375.9c4.5-15.9 8.8-30.8 13.1-45.6 1.5-5.2 6.7-7.8 11.3-5.4 1.2.6 2.1 3.3 1.8 4.5-6.1 23.3-12.7 46.6-18.9 69.9-1.2 4.2-3.8 4.9-7.5 4.9s-6.4-.8-7.6-4.9c-3.8-13.6-7.7-27.2-11.6-40.9-.4-1.4-.8-2.6-1.8-5.3-4 15.5-7.8 29.8-11.4 44-1.1 4.3-2.7 7.2-8 7.1-5.1 0-7.1-2.1-8.3-6.7-5.9-21.8-12.1-43.5-18.3-65.3-.7-2.9-3.2-6.3 1.7-7.8 5.8-1.8 11.2 0 12.5 4.2 3.6 12.5 6.9 24.9 10.3 37.5.7 2.6 1.6 5.4 2.7 9.3 3.9-14.8 7.5-28.2 11.1-41.6.3-1.4.8-2.6 1.1-4 .6-4.3 3.1-5.6 7.4-5.6s6.2 1.8 7.4 5.7c3.7 13.7 7.6 27.2 11.5 41 .2 1.3.7 2.4 1.5 5zM516.6 332.6c13.2-15.4 37.2-10.3 44.9 7.6 5.5 12.8 5.8 25.8 2.2 39.1-6.9 25-33.4 32-49.7 13.6-.7 1.9-.8 4.1-2 5.3-1.7 1.6-4.1 3.1-6.2 3.1-1.2 0-3.3-3.1-3.4-4.8-.3-10.1-.2-20.4-.2-30.5v-60c0-6.1.7-6.7 7.2-6.7 6.9 0 7.3.4 7.3 6.4-.1 8.6-.1 17-.1 26.9zm-1.5 30.1c.4.1.8.3 1.4.4.2 3.3.3 6.7.6 9.9.2 2.1.8 4.1 1.5 6.1 2.5 7.3 8.8 12.1 15.5 12.1 6.2 0 11.5-4.1 14-11.6 3.8-11.5 3.5-23.1-.8-34.4-2.1-5.5-5.9-9.7-12.1-10.2-6.2-.5-11.3 2.7-13.7 8-3.1 6.2-4.4 13.1-6.4 19.7zM440.7 366.3c1.3 5.5 1.7 10.2 3.5 14.5 2.7 6.8 8.4 10.3 15.5 10.9 6.9.4 12-3.1 15.6-8.9 3-4.9 8.6-6.3 13.2-3 1.2.8 1.6 4.1 1 5.7-4.5 11.7-17.2 19-31 18.3-15.2-.7-25.8-8.7-30.4-23.2-3.8-12-3.6-24.2 1.3-36 5.9-14.3 18.9-22.2 33.3-20.6 15.2 1.6 25.1 10.8 28.5 26.5.6 3.1.8 6.2 1.3 9.4.6 5-1.8 6.5-6.4 6.4-12.7-.1-25.3 0-37.9 0h-7.5zm1.9-11.4h33.8c.2-10.9-6.4-19.2-15.6-19.7-9.3-.7-17.5 8.1-18.2 19.7zM957.6 366.5c1.7 6 2.3 11.5 4.8 15.9 6.5 12.4 22.6 12.7 30.1 1 3.4-5.3 7.5-6.4 13.2-3.8 3.1 1.5 2.5 3.7 1.5 6.1-5.1 11.8-18.1 19.3-31.7 18.3-15.6-1.2-26.2-9.5-30.4-24.6-3.9-13.9-3.1-27.6 4.6-40 7.4-12 18.5-16.6 32.4-14.9 13 1.5 20.9 9.3 24.9 21.1 1.6 4.5 1.9 9.6 2.7 14.4.8 4.9-1.6 6.7-6.2 6.5-12.8-.1-25.7 0-38.4 0h-7.5zm36-11.5c.1-11.7-7.1-20.1-16.5-19.9-9.2.2-17.6 10-16.9 19.9h33.4zM671.6 366.5c1.7 6 2.3 11.6 4.8 16.2 6.7 12.4 22.7 12.4 30.2.5 3.2-5.1 8-6.3 13.3-3.5 3 1.7 2.1 4 1.1 6.3-5.3 11.8-18.3 19.1-31.9 18-18.1-1.6-30.1-13.8-31.8-32.6-.8-9.3-.2-18.6 3.8-27.2 6.3-13.8 18.3-21.1 32.7-19.9 14.7 1.3 24.4 9.7 28.2 24.8 1 3.6 1.1 7.3 1.6 10.9.7 4.9-1.5 6.7-6.2 6.7-12.9-.1-25.7 0-38.5 0-2-.2-3.9-.2-7.3-.2zm2.3-11.6h33.4c.6-10.9-6.7-19.7-16.2-19.7-8.9-.1-17.3 9.3-17.2 19.7zM616.6 323.2c11.2 1.2 21 3.6 27 13.7 1.5 2.5 4.1 5.5.4 8.3-3.8 2.9-10 2-12.5-1.5-5.1-7.3-13.9-10-21.8-6.5-3.9 1.7-6.1 4.3-5.9 8.9.2 4.4 3 6.8 6.8 7.7 5.9 1.5 12 2.3 18.1 3.6 13.6 2.9 20.9 10.8 20.9 22.5 0 11.8-7.1 20-20.5 22.9-9.4 2-18.9 1.6-27.9-2.4-6.5-3-11.2-7.6-13.9-14.4-1.6-3.8 0-5.6 3.5-6.5 4.9-1.4 8.4-1.5 11.5 4.2 4.5 8.8 20.8 11 28.6 4.9 5.4-4.2 4.9-12.4-1.5-15.1-4.4-1.9-9.4-2.5-14.2-3.8-4.9-1.4-9.9-2.3-14.6-4.2-7.7-3.2-11.6-9.5-11.8-17.7-.2-8.2 2.7-15.5 10.5-19.2 5.4-2.7 11.5-3.8 17.3-5.4zM1045.9 323.3c11.2 1.2 20.8 3.8 26.6 14.2 1.4 2.4 3.8 5.3.1 7.8-3.9 2.7-9.9 2.1-12.1-1.1-5.2-7.3-12.7-10-20.6-7.5-4.3 1.4-7.5 3.8-7.4 8.9.1 5.3 3.4 7.5 7.8 8.4 5.8 1.3 11.7 2.1 17.5 3.5 13.4 3.1 20.3 10.7 20.3 22.5s-6.8 19.6-20 22.7c-9.6 2.2-19.2 1.7-28.4-2.3-6.3-2.9-11-7.4-13.7-13.8-1.6-3.7-.6-5.9 3.5-7.1 5-1.3 8.4-1.3 11.4 4.4 4.4 8.7 21 10.8 28.7 4.6 5.3-4.2 5-11.9-1.2-14.8-4.3-2-9.4-2.7-14-4-4.8-1.3-9.6-2.1-14.2-3.9-8-3.3-12.5-9.3-12.7-18.3-.1-9.1 3.4-16.3 11.8-19.9 5.3-2.1 11.1-3 16.6-4.3zM906.9 403.7c-12.6 0-21.5-5.9-26.5-17.3-6.7-15.1-6.5-30.3.4-45.3 5.9-12.8 16.8-18.2 31.6-16.6 11.3 1.2 20.2 9.8 23.3 22.6.6 2.7 1.4 5.3-1.9 6.7-3.8 1.6-9.9 0-11.1-2.9-1.1-2.4-1.6-5.1-2.9-7.3-5.4-9.4-17.2-9.9-23.6-1.1-7.2 10-7.2 33.3.1 43.2 3.1 4.1 7.1 6.2 12.3 5.7 6.8-.7 10.5-5.1 12.7-11.1 2.4-6.4 4.8-7.7 11.3-6.7 3 .5 4.2 2 3.7 5.1-2.5 14.9-14.7 25.2-29.4 25zM813.6 381.1c5.7-17.7 11-34.5 16.4-51.3 1.9-6 6.2-8.2 12.1-6.2 3.7 1.3 2.7 3.8 1.8 6.4-6 18.2-11.9 36.2-17.8 54.4-1.5 4.6-3.3 9.3-4.5 13.9-1.1 3.9-3.3 5.5-7.3 5.1-1.7-.2-3.7.4-5.2-.1-2-.8-4.8-2.1-5.4-3.8-8.2-23.4-16.1-47-24.1-70.5-1.2-3.5 0-5.3 3.8-5.6 9.8-1 10.7-.4 13.8 9.2 4.8 14.7 9.6 29.3 14.4 43.9.6 1.4 1.1 2.6 2 4.6zM95.3 282.7c17.5-5.5 35-11 52.5-16.4 1-.3 2.1-.4 3.1-.1 17.7 5.4 35.4 10.9 53.2 17.4-8.2 2.2-16.5 4.5-24.8 6.8-.6.2-1.4.1-2 .4-18.5 7.5-36.8 7.3-55.3 0-8.4-3.3-17.5-4.8-26.3-7.1-.2-.4-.3-.7-.4-1zM174.8 150.1c12.3-3.9 24.8-7.2 36.8-11.8 11.7-4.5 22.6-4.5 34.2-.1 12.1 4.6 24.9 7.9 37.5 12.8-10.6 2.9-21.2 5.1-31.6 8.7-15.1 5.3-29.7 5.9-44.9.2-10.2-3.8-21.2-5.9-31.8-8.8.1-.3 0-.6-.2-1zM16.6 150.1c11-3.5 22.2-6.2 32.8-10.6 14.2-5.8 27.7-6.1 41.8-.1 9.5 4 19.6 6.3 29.6 9.4 1.4.4 2.7 1.1 5.4 2-18.9 5-36.4 9.6-54 14.2-1.5.4-3.2.2-4.6-.2-16.9-4.5-33.8-9.1-50.7-13.6-.1-.4-.3-.7-.3-1.1zM746.8 334c5.2-3.1 10-7 15.5-8.8 7.9-2.6 11.9 1.9 9.4 9.9-.4 1.4-2.5 2.7-4.1 3.2-11.8 2.7-18.1 8.9-18.9 21.1-.8 12.4-.5 24.9-.6 37.3-.1 6.3-.5 6.8-7 6.9-6.9 0-7.5-.5-7.5-6.9v-62.1c0-4.3-.1-8.2 6-8 6.4.1 7 .4 7.5 7.6-.2.3.1.5-.3-.2zM851.2 363.9v-34.6c0-5.5 1.1-6.2 7.8-6.2 6.7 0 7.7.8 7.7 6.3v68.9c0 5.8-.8 6.3-8.1 6.3-6.8 0-7.4-.5-7.4-6.4v-34.3zM858.9 295.3c4.9 0 9 4.2 9 9.2.1 5.2-4.3 9.5-9.3 9.3-4.9-.2-8.8-4.3-8.8-9.4.2-5 4.3-9.1 9.1-9.1z"/></g></svg>