<svg width="298" height="201" xmlns="http://www.w3.org/2000/svg"><g fill="none" fill-rule="evenodd"><path d="M74.099 121.294c1.7.037 3.079 1.542 3.025 3.245a3.174 3.174 0 01-1.011 2.224c-.612.565-1.386.823-2.205.827l-.693.001c-2.344 0-4.687-.047-7.03-.063-1.5-.008-3.003.004-4.5-.078-.778-.042-1.562-.104-2.326-.257-.828-.168-1.686-.412-2.219-1.118-.31-.414-.356-1.032-.132-1.496.38-.784 1.189-1.183 1.953-1.503.717-.301 1.47-.518 2.223-.704 1.573-.389 3.188-.597 4.797-.764 1.474-.154 2.955-.228 4.435-.277a68.803 68.803 0 013.683-.037zm-6.128-12.93c3.668-.008 7.335.169 10.997.366 7.61.41 15.226.676 22.846.842 3.657.08 7.317.139 10.974.167 3.817.03 7.634.007 11.45.04 3.71.032 7.42.095 11.128.203 3.665.108 7.327.242 10.993.29 5.087.067 10.172.035 15.256-.125 3.756-.141 7.51-.35 11.267-.474 3.675-.123 7.35-.189 11.028-.202 3.615-.012 7.232.05 10.849.05 3.592 0 7.183-.033 10.775-.023 3.056.008 6.11.088 9.167.129 1.852.023 3.353 1.692 3.298 3.536-.062 1.894-1.656 3.349-3.51 3.325-3.465-.045-6.929-.133-10.396-.13-3.568.004-7.138.028-10.706.024-3.424-.003-6.846-.065-10.269-.045-3.414.02-6.827.08-10.24.19-3.762.142-7.522.355-11.286.476-3.392.11-6.784.167-10.178.167l-1.032-.002c-3.215-.01-6.428-.08-9.641-.166l-6.426-.176a530.127 530.127 0 00-6.428-.138c-3.73-.053-7.458-.073-11.187-.071-3.725 0-7.45-.059-11.174-.12-7.576-.12-15.156-.338-22.72-.777-3.694-.214-7.381-.5-11.073-.729-3.697-.23-7.394-.453-11.094-.656-.93-.05-1.86-.1-2.793-.108-.106.007-.212.014-.318.024-1.438.708-3.225-.15-3.591-1.73-.364-1.565.908-3.275 2.56-3.153l.137.009.166-.016c.866-.17 1.727-.362 2.6-.498a32.148 32.148 0 012.667-.308 85.664 85.664 0 015.904-.192zm166.344-13.905c1.645.25 2.868 1.791 2.818 3.453a3.451 3.451 0 01-.79 2.082c-.573.685-1.368 1.076-2.24 1.192-.58.077-1.177.06-1.762.074-.372.01-.744.018-1.114.03-.853.023-1.704.052-2.557.08-1.785.059-3.57.114-5.356.153-3.617.08-7.232.16-10.847.261-3.857.11-7.712.227-11.569.31-3.657.08-7.314.123-10.972.198-7.385.151-14.775.18-22.16.172-3.705-.003-7.41-.084-11.115-.067-3.68.017-7.36.084-11.041.176-3.747.094-7.494.137-11.243.158-2.362.014-4.724.03-7.085.03-1.387 0-2.773-.005-4.16-.021-3.767-.044-7.533-.093-11.301-.094-3.693-.003-7.386-.011-11.08-.052-3.686-.04-7.373-.099-11.059-.187-3.704-.09-7.406-.195-11.112-.224-3.725-.03-7.45-.053-11.169-.238-1.822-.09-3.643-.193-5.46-.37-.933-.09-1.86-.215-2.779-.403-.435-.09-.868-.198-1.294-.328-.444-.134-.908-.316-1.265-.624a1.717 1.717 0 01-.224-.225c-.408-.509-.576-1.189-.276-1.804.444-.91 1.388-1.312 2.313-1.552.917-.236 1.856-.372 2.793-.485 1.765-.215 3.542-.312 5.317-.386 3.823-.157 7.655-.204 11.48-.259 3.69-.053 7.373-.001 11.062.07 3.711.071 7.42.125 11.132.16 3.651.036 7.303.051 10.953.048 3.745-.001 7.49.041 11.234.082 3.827.042 7.654.028 11.481.004 3.662-.021 7.322-.046 10.983-.137 3.736-.095 7.47-.172 11.207-.196 3.72-.024 7.437.047 11.157.06 7.381.025 14.767-.006 22.148-.155 3.653-.073 7.304-.12 10.957-.196 3.85-.08 7.7-.193 11.55-.304 3.636-.105 7.273-.196 10.909-.268 3.447-.07 6.893-.216 10.34-.293.406-.008.793.013 1.196.075z" fill="#0062C3"/><path d="M271.797 41.746c.089.256.138.528.191.794.082.417.186.832.265 1.25.22 1.15.352 2.32.477 3.485.115 1.081.193 2.165.252 3.252.13 2.364.163 4.737.174 7.103.01 2.199-.046 4.397-.12 6.593a454.922 454.922 0 00-.156 5.348l-.049 2.453h0c-.029 2.258-.037 4.517-.057 6.775-.02 2.426-.052 4.851-.083 7.277-.029 2.361-.047 4.722-.02 7.084.026 2.352.095 4.703.166 7.054.141 4.665.283 9.33.426 13.994.073 2.416.147 4.832.2 7.248.048 2.142.059 4.285.062 6.427 0 2.288-.01 4.576-.045 6.863-.034 2.316-.098 4.633-.25 6.945-.142 2.14-.389 4.286-.795 6.394a24.023 24.023 0 01-2.212 6.449 12.38 12.38 0 01-.875 1.425c-.405.575-.895 1.085-1.41 1.56-.435.397-.894.78-1.398 1.083-.484.292-.973.576-1.47.842a17.22 17.22 0 01-3.236 1.332 20.84 20.84 0 01-3.612.71c-1.168.127-2.338.23-3.51.281a88.6 88.6 0 01-3.035.065c-.857.009-1.712.006-2.57.004-1.14 0-2.282-.004-3.423.018-2.254.043-4.507.174-6.76.282-2.038.1-4.08.2-6.122.191-2.25-.01-4.497-.105-6.745-.179a525.42 525.42 0 00-7.017-.19c-2.815-.04-5.626.02-8.44.107-1.436.045-2.873.083-4.31.087-.987.004-1.975-.015-2.963-.035l-1.395-.027h-.038l-.057-.002a1.65 1.65 0 01-.19-.002l-.528-.008.16.002h0l-4.408-.072h0l-4.29-.077-.066-.001-1.491-.012c-1.58-.005-3.158.014-4.738.054-2.214.056-4.43.113-6.645.203-.994.04-1.987.089-2.98.138.111.04.217.094.316.174.16.129.298.3.396.477.17.309.276.637.383.973.193.611.286 1.263.395 1.892.203 1.169.346 2.347.488 3.524.29 2.38.598 4.757.94 7.13.463 3.22.983 6.431 1.529 9.637.096.565-.152 1.114-.565 1.477.574.244 1.15.485 1.724.735 1.142.498 2.294.983 3.465 1.414.953.34 1.911.665 2.868.995.49.17.98.338 1.468.508.57.198 1.146.392 1.698.639.44.196.87.422 1.278.677a4.84 4.84 0 011.25 1.132c.652.835 1.014 1.956.648 2.992-.173.491-.467.899-.777 1.312a4.704 4.704 0 01-1.261 1.16c-.938.592-2.077.757-3.161.847-.955.08-1.914.093-2.87.105-1.153.016-2.305.03-3.456.06-2.162.057-4.324.148-6.488.193-1.223.025-2.447.036-3.671.036-.883 0-1.766-.006-2.648-.017-2.239-.028-4.477-.09-6.715-.133-2.262-.042-4.521-.03-6.783.004-2.191.033-4.382.033-6.572.07-2.16.034-4.321.065-6.482.065-2.25 0-4.497-.034-6.745-.011-2.237.022-4.472.013-6.71-.006-2.218-.02-4.436-.03-6.654-.065-1.441-.023-2.886-.045-4.327-.116l.314-.014c-1.017.036-2.04.078-3.06.078-1.005 0-2.008-.04-3.003-.168-1.055-.134-2.132-.39-3.066-.915a4.163 4.163 0 01-1.308-1.12 4.27 4.27 0 01-.456-.805c-.178-.387-.214-.833-.178-1.252.095-1.073.663-2.03 1.347-2.838.542-.639 1.21-1.157 1.902-1.622 1.541-1.027 3.289-1.73 5.058-2.25a33.794 33.794 0 012.717-.65c.837-.174 1.667-.389 2.506-.555a1.6 1.6 0 01-.032-.617c.283-2.02.512-4.047.796-6.068.286-2.023.603-4.041.917-6.06.335-2.15.672-4.302 1.047-6.447.195-1.116.395-2.233.642-3.339.115-.512.242-1.02.385-1.525.145-.506.304-1.023.522-1.504.127-.28.265-.552.453-.797.079-.102.17-.182.268-.254-1.428.01-2.855.048-4.284.106-2.36.099-4.72.253-7.078.383-4.78.263-9.566.334-14.35.312-3.843-.018-7.686-.136-11.528-.239-3.845-.102-7.689-.225-11.535-.284-4.765-.058-9.53-.056-14.295-.082-2.539-.014-5.078-.016-7.619-.038-2.338-.023-4.68-.034-7.017-.135-2.35-.103-4.687-.333-6.99-.81a32.19 32.19 0 01-3.035-.794c-.557-.173-1.11-.36-1.652-.574a16.83 16.83 0 01-1.82-.869 10.074 10.074 0 01-2.807-2.205 13.944 13.944 0 01-.98-1.266c-.33-.475-.593-.995-.862-1.507-.542-1.034-.987-2.143-1.25-3.28a12.453 12.453 0 01-.259-1.646 19.278 19.278 0 01-.068-1.55c-.021-1.348.011-2.698.041-4.047l.027-1.3h0v.044l.014-1.301c.013-1.74.002-3.479-.062-5.218-.082-2.266-.217-4.53-.262-6.798a465.267 465.267 0 00-.218-7.357 240.559 240.559 0 01-.151-7.213c-.024-3.38-.206-6.758-.247-10.137-.02-1.615-.024-3.24.051-4.853.039-.832.12-1.657.25-2.479.111-.701.26-1.396.37-2.098l.064-.519c.07-.57.506-1.031 1.095-1.06a1.168 1.168 0 011.212 1.095c.02.35.048.7.086 1.05.11.84.213 1.677.274 2.522.079 1.07.023 2.15.004 3.221v-.03c-.028 2.188.01 4.372.084 6.558.08 2.41.143 4.819.16 7.23.018 2.447.082 4.894.177 7.342.048 1.217.092 2.435.127 3.654.033 1.173.044 2.345.073 3.518.067 2.678.25 5.352.3 8.03.032 1.726.017 3.452-.01 5.178l-.055 3.115c.274-.061.552-.096.798-.127 1.097-.137 2.212-.173 3.316-.203 2.295-.063 4.59-.076 6.886-.087 4.673-.023 9.348-.02 14.021-.02 9.483-.003 18.965-.002 28.447-.002h158.202c1.651 0 3.304-.013 4.956.007 1.434.018 2.866.07 4.299.116 1.184.04 2.367.057 3.552.088 1.15.029 2.296.095 3.444.124 2.22.058 4.442.057 6.656.222.094.006.187.013.281.018.52.035.971.362 1.088.873l.072-.45h0c.498-3.459.627-6.953.69-10.443l.016-1.033h0c.057-4.36.056-8.72-.038-13.081-.103-4.72-.282-9.44-.416-14.16-.135-4.675-.33-9.349-.37-14.023-.042-4.776.071-9.553.11-14.328.027-3.123.042-6.248.111-9.37.065-2.904.194-5.805.25-8.709l.004-.221v-.002l.018-1.98c.01-3.307-.066-6.612-.126-9.92-.032-1.774-.092-3.55.112-5.317.053-.452.086-.906.151-1.357.068-.461.239-1.013.788-1.059.595-.048.947.567 1.11 1.05zM128.51 161.479c.133.137.239.282.311.46.122.298.154.623.165.94.021.554-.023 1.107-.07 1.66-.084 1.013-.22 2.025-.35 3.034-.284 2.203-.607 4.4-.928 6.597-.298 2.04-.604 4.079-.9 6.12-.29 1.997-.535 4-.796 6.001-.07.55-.145 1.097-.219 1.646-.113.838-.863 1.46-1.689 1.46a1.644 1.644 0 01-.656-.137c-.285.189-.589.346-.899.496-.747.36-1.535.632-2.314.912-.781.282-1.563.555-2.356.799-.79.242-1.589.456-2.376.708-.497.166-.988.347-1.465.567-.25.124-.495.257-.732.404-.193.13-.379.266-.56.414-.146.13-.287.266-.422.408a6.77 6.77 0 00-.38.473 6.73 6.73 0 00-.337.545 4.297 4.297 0 00-.124.284c-.02.063-.038.126-.055.19-.008.05-.015.1-.02.151v.078h0l.015.126a4.05 4.05 0 00.022.078l.033.035c.086.073.173.144.262.213l.125.075c.102.046.205.088.309.128.313.103.628.191.949.266.5.097 1.004.157 1.513.2 1.924.129 3.855.031 5.779-.042.52-.02 1.041-.043 1.562-.068.513-.027 1.026-.058 1.539-.05.599.01 1.194.052 1.787.137.423.06.844.116 1.268.161l-1.589-.01c2.244.015 4.488.02 6.732.045 2.259.027 4.517.006 6.776-.015 1.176-.011 2.352-.003 3.528.007 1.015.007 2.03.015 3.045.011 2.226-.012 4.452-.05 6.677-.079 2.165-.028 4.328-.036 6.493-.066 2.284-.034 4.566-.016 6.85.031 4.306.088 8.61.185 12.917.07l5.667-.175h0c1.76-.048 3.526-.013 5.285-.102a15.281 15.281 0 001.635-.187 6.5 6.5 0 00.49-.122c.113-.04.224-.085.334-.134.123-.063.245-.13.364-.202.05-.035.099-.07.146-.108a4.79 4.79 0 00.181-.176c.048-.056.095-.113.14-.171l.048-.08.047-.106.008-.027.002-.01V195.322h0a3.443 3.443 0 00-.018-.064 3.533 3.533 0 00-.079-.193 4.672 4.672 0 00-.086-.153 3.302 3.302 0 00-.114-.153 6.21 6.21 0 00-.267-.27 7.597 7.597 0 00-.43-.347 8.256 8.256 0 00-.699-.416c-.71-.36-1.435-.675-2.183-.949-1.703-.597-3.45-1.047-5.177-1.565a30.26 30.26 0 01-2.71-.944c-.736-.3-1.452-.661-2.166-1.013-.587-.288-.89-.96-.619-1.579.068-.154.167-.288.287-.397a1.908 1.908 0 01-.28-.736c-.772-4.539-1.493-9.085-2.052-13.654-.219-1.8-.402-3.602-.56-5.408a41.05 41.05 0 01-.16-2.612 9.743 9.743 0 01.052-1.333c.032-.297.143-.632.331-.868a1.24 1.24 0 01.373-.308c-1.07.055-2.141.106-3.213.146-1.612.058-3.225.079-4.838.079-.931 0-1.862-.007-2.793-.017-4.91-.053-9.823-.193-14.732-.344-2.342-.07-4.684-.127-7.025-.224-2.386-.099-4.77-.22-7.155-.326-2.13-.096-4.262-.166-6.395-.201l-1.069-.005a.737.737 0 01.01.012zm140.662-14.49l-.036.056a1.034 1.034 0 01-.78.473c-.707.045-1.413.106-2.12.131-.666.024-1.333.035-1.998.046-1.301.022-2.603.054-3.904.099-.673.022-1.344.065-2.015.084-.698.02-1.395.032-2.093.046-1.412.029-2.823.076-4.234.125-1.522.052-3.046.054-4.57.054h-77.058l-28.244-.002-14.773.001h0-53.92c-6.316 0-12.631 0-18.946-.003-3.971-.002-7.943-.003-11.915-.03-1.976-.013-3.955-.027-5.931-.105-.953-.037-1.908-.089-2.853-.229a5.061 5.061 0 01-.39-.073c.013.314.033.63.062.946.044.303.102.602.169.9.1.375.218.74.353 1.102.272.662.583 1.301.92 1.932.168.284.345.559.53.83.199.256.406.504.619.747.184.189.371.37.568.545.25.194.506.373.771.546.52.308 1.057.582 1.607.832.727.303 1.475.545 2.23.77 1.381.39 2.779.687 4.197.907 2.462.328 4.948.426 7.428.467h-.09 0c4.891.067 9.781.077 14.672.1l5.897.026c2.948.016 5.897.042 8.845.107 4.28.096 8.56.237 12.842.342l4.125.086 1.763.02c1.828.013 3.656.009 5.484-.01 2.368-.026 4.736-.065 7.102-.176 4.667-.219 9.327-.593 14.002-.618 4.711-.023 9.42.251 14.126.467 2.377.108 4.755.18 7.134.253 2.39.072 4.781.152 7.172.208 1.834.042 3.667.086 5.501.122l2.695.049h.046l1.464.018c2.045.018 4.09.015 6.134-.054 2.38-.079 4.758-.214 7.138-.324 2.232-.103 4.47-.155 6.703-.213 2.13-.057 4.26-.085 6.388-.061 1.551.016 3.101.05 4.651.08l2.13.04.063.002h.093l.04.002h0l-.031-.001H198.85l-.017-.001-.041-.001h-.048.048l.058.001h.085l.67.011.861.012.705.01h.219c.129 0 .258-.001.387.005.177-.003.355.01.53.013l.915.015h0l.921.017h0l.706.012 1.363.005c1.826-.007 3.651-.066 5.476-.121 2.247-.068 4.49-.099 6.739-.075 4.42.046 8.837.279 13.256.368 2.415.028 4.827-.069 7.239-.184l2.894-.141c.964-.046 1.93-.088 2.894-.12 1.422-.046 2.844-.042 4.267-.038.626.001 1.251.003 1.878.001.97-.004 1.943-.014 2.914-.043a53 53 0 003.349-.213 21.515 21.515 0 003.087-.485 18.28 18.28 0 001.784-.564 19.626 19.626 0 001.63-.767c.468-.26.934-.528 1.382-.823.263-.21.518-.425.768-.65.192-.19.377-.383.556-.586.22-.281.424-.57.616-.87.31-.54.578-1.101.835-1.668.338-.796.62-1.613.874-2.44.213-.774.38-1.555.522-2.342zM62.484.88c1.181.013 2.363.035 3.544.07 1.071.03 2.14.083 3.21.121a235.66 235.66 0 0010.173.149c1.104-.003 2.209-.006 3.314.001a591.8 591.8 0 006.655.011c4.1-.02 8.2-.069 12.297-.005 2.048.032 4.097.088 6.145.133 2.116.046 4.234.097 6.35.163 4.188.132 8.377.215 12.568.262 2.186.025 4.371.042 6.557.049 1.003.001 2.004-.003 3.007-.007.884-.004 1.77-.008 2.654-.007 2.233.003 4.465.004 6.697.047 2.153.042 4.307.1 6.46.142 2.397.045 4.795.043 7.192.04a475.64 475.64 0 015.448.016c4.14.045 8.279.143 12.418.214 1.156.018 2.31.028 3.466.02h-.043 0l.227-.001h0l.114-.002h-.104 0l3.89-.047c.649-.006 1.297-.01 1.946-.008 2.231.006 4.461.057 6.692.063 4.256.01 8.512-.004 12.77-.032l2.594-.02-.08.002h0c1.65-.017 3.3-.042 4.95-.08 1.62-.035 3.238-.09 4.857-.116 1.83-.031 3.657-.013 5.486.006.982.01 1.964.02 2.946.023l1.423-.004 1.052-.018c1.22-.03 2.438-.087 3.656-.16 1.654-.095 3.306-.236 4.96-.325 1.827-.098 3.656-.137 5.484-.176 1.81-.037 3.623-.048 5.436-.047 1.509.001 3.018.008 4.526.042 1.33.03 2.667.044 3.993.165 1.49.135 2.976.36 4.42.756a14.29 14.29 0 013.66 1.582c.317.194.623.406.923.627.373.274.646.623.74 1.085.09.435.002.896-.24 1.267-.246.38-.642.649-1.087.74-.414.085-.916.017-1.266-.24-.39-.288-.795-.555-1.215-.797a14.3 14.3 0 00-1.272-.603 14.977 14.977 0 00-1.515-.483 24.469 24.469 0 00-2.63-.465c-1.807-.205-3.634-.222-5.452-.253a227.965 227.965 0 00-4.34-.032l-2.057.01-1.432.02c-3.076.048-6.15.15-9.219.373-1.611.116-3.224.216-4.84.277-1.724.064-3.449.06-5.174.043-1.333-.014-2.666-.03-4-.034l-1.96.002-1.57.027c-1.166.025-2.332.06-3.499.087-1.83.044-3.662.074-5.494.093-4.08.043-8.162.051-12.241.055-2.02.002-4.039.002-6.058-.022-2.043-.025-4.087-.055-6.13-.034h.022c-.863.01-1.727.024-2.591.034l-.696.009h0l-.195.001h0a92.058 92.058 0 01-2.368.007c-1.867-.013-3.733-.058-5.6-.092-2.176-.037-4.353-.079-6.529-.116-4.219-.07-8.436-.033-12.654-.06-2.218-.014-4.435-.08-6.651-.129a339.83 339.83 0 00-6.29-.077c-2.037-.007-4.071.008-6.107.01-2.03 0-4.062-.012-6.092-.03a643.677 643.677 0 01-12.879-.223c-2.065-.058-4.13-.136-6.195-.181-2.18-.049-4.36-.095-6.541-.145-4.008-.091-8.016-.063-12.022-.037-2.5.015-4.998.01-7.497.003-1.911-.004-3.822-.009-5.733-.003-2.208.006-4.416-.018-6.623-.08-2.258-.063-4.514-.176-6.773-.226a176.991 176.991 0 00-3.557-.04l-1.581.006-1.378.025c-1.396.033-2.792.09-4.188.157-.866.043-1.732.093-2.597.146-.939.056-1.877.117-2.81.24-1.435.211-2.84.54-4.244.908-.977.269-1.953.562-2.894.938a17.81 17.81 0 00-1.108.58 19.95 19.95 0 00-1.512 1.034c-.415.339-.806.701-1.19 1.072-.127.132-.25.265-.371.404-.242.338-.459.692-.667 1.051a15.923 15.923 0 00-.753 1.613 22.824 22.824 0 00-.817 2.548 25.293 25.293 0 00-.467 2.583c-.067.58-.122 1.16-.16 1.743-.035.585-.038 1.17-.034 1.757.014.932-.433 10.653-.367 11.583.011.157.017.644.019 1.358v1.386c-.006 3.125-.044 8.17-.047 11.42v.917c.001 1.14.009 1.935.028 2.145.205 2.288-2.859-.33-3.025-2.535-.017-.23-.026-1.742-.028-3.93l-.001-.677v-2.237V38.877l.008-5.225.002-.883.019-9.062v-.518l.001-.24v-.815-.746l-.001-.107a29.283 29.283 0 01.114-3.177c.173-1.85.503-3.678 1.072-5.448.46-1.432 1.048-2.824 1.839-4.106.202-.329.411-.672.665-.965.41-.474.867-.905 1.327-1.33.924-.852 1.986-1.564 3.083-2.171.487-.27.985-.515 1.509-.707a33.147 33.147 0 011.632-.546c.963-.298 1.94-.55 2.92-.785 1.181-.284 2.372-.5 3.579-.642.92-.108 1.848-.158 2.773-.213C54.988.966 58.734.844 62.484.88z" stroke="#252C30" fill="#252C30"/><path d="M108.917 134.757c4.093.02 8.187.029 12.28.039l9.843.017c4.921.011 9.843.031 14.764.087 4.126.048 8.25.187 12.375.302l3.03.08h.052-.04.005l.047.001h0-.012l.352.008.431.01-.044-.001h.089-.043 0c4.08.09 8.16.101 12.24.086 3.87-.014 7.742-.033 11.612-.048 7.86-.033 15.718-.127 23.578-.062 3.72.03 7.439.132 11.158.174 3.78.04 7.558.066 11.337.074 2.101.004 4.202.001 6.303-.001 2.661-.005 5.324-.009 7.985.004.243.001.455.173.467.422.01.234-.184.463-.427.464-3.35.016-6.7.006-10.048.003-3.542-.003-7.082.011-10.624.033-3.822.024-7.643.07-11.463.142-3.854.072-7.708.095-11.562.1-3.828.003-7.655-.037-11.484-.064-3.931-.028-7.864-.037-11.797-.052-3.958-.017-7.917-.045-11.875-.017-4.084.028-8.17.13-12.251.268-8.254.276-16.515.28-24.774.3-8.147.021-16.294.036-24.442.074-.704.003-1.41.004-2.115.004-7.449 0-14.895-.169-22.343-.292a1870.18 1870.18 0 00-24.86-.247c-1.43-.004-2.86-.008-4.29-.037-.685-.014-1.37-.041-2.054-.069-.341-.013-.69-.026-1.032-.073-.34.142-.784-.069-.804-.491a.573.573 0 01.819-.54c.156-.019.314-.028.469-.041.408-.033.815-.046 1.225-.064.927-.038 1.855-.05 2.783-.059 2.01-.02 4.023-.02 6.034-.029a1722.034 1722.034 0 0024.866-.29c3.973-.076 7.946-.134 11.92-.189 4.107-.058 8.212-.048 12.32-.026zm-62.442-30.185l.001.001a.495.495 0 01.046.038c.297.258.399.704.475 1.07.09.423.147.847.199 1.276.108.924.163 1.852.208 2.781.09 1.853.086 3.712.118 5.567.058 3.512.05 7.028-.021 10.54-.017.858-.043 1.715-.064 2.573l-.006.213-.002.073-.04 1.7c-.027 1.155-.06 2.309-.103 3.463-.03.789-.017 1.623-.275 2.378-.07.205-.184.374-.342.522a.707.707 0 01-.484.182.775.775 0 01-.448-.141c-.352-.252-.46-.712-.53-1.113-.134-.776-.133-1.578-.16-2.364-.027-.834-.048-1.669-.072-2.503-.045-1.644-.094-3.288-.123-4.932a302.622 302.622 0 01-.017-10.584c.03-1.876.045-3.752.118-5.626.036-.883.1-1.763.194-2.64.048-.446.111-.89.202-1.329.043-.207.092-.417.169-.615.07-.186.172-.388.335-.51l.008-.005a.515.515 0 01.614-.015zm-.22-71.644c.26.042.35.374.403.589.08.324.113.658.146.99.067.683.101 1.367.123 2.053.049 1.437.073 2.873.088 4.311.028 2.823.044 5.645.058 8.468.014 2.752.035 5.505.044 8.257.01 2.658.014 5.316.028 7.974.013 2.55.04 5.1.06 7.651.01 1.274.01 2.549.02 3.823.009 1.211.038 2.423.044 3.633.001.393.002.786-.005 1.179-.008.458-.016.92-.119 1.368a1 1 0 01-.923.766l-.044.001a.995.995 0 01-.58-.185 1.016 1.016 0 01-.398-.628c-.13-.568-.113-1.17-.114-1.749-.002-.593.005-1.187.015-1.78.02-1.234.03-2.47.033-3.704.006-2.488.047-4.976.061-7.464.016-2.73.017-5.463.03-8.193.013-2.667.026-5.333.041-8 .017-2.818.03-5.637.05-8.455.01-1.419.02-2.838.04-4.258.02-1.425.043-2.853.13-4.275.03-.475.071-.95.14-1.42.048-.334.14-1.032.629-.952zm206.993 25.137l.016-.7-.004.166.018-.793-.004.165c.033-1.504.072-3.006.107-4.51v.05h0l.006-.293h0l.006-.292-.003.15.038-1.684.029-1.275c.032-1.349.07-2.696.144-4.044.045-.814.095-1.627.158-2.441a14.77 14.77 0 01.22-1.635.541.541 0 01-.008-.276.57.57 0 01.526-.437c.402-.018.653.383.574.714.06.263.094.534.125.8.067.582.116 1.164.157 1.75.08 1.123.138 2.25.177 3.376.08 2.3.117 4.603.17 6.903.053 2.268.109 4.536.16 6.804.053 2.274.07 4.549.093 6.824.047 4.49.075 8.98.132 13.47.058 4.595.114 9.188.125 13.784.012 4.507-.07 9.012-.12 13.518a542.977 542.977 0 01-.126 6.727l.004-.19a368.593 368.593 0 00-.087 6.431c-.007 1.548-.007 3.096-.029 4.644l-.03 1.548.005-.17-.025 1.484h0l-.024 1.319h0l-.011.497c-.013.58-.026 1.16-.029 1.74-.001.427-.004.858-.037 1.285-.046.578-.545 1.044-1.125 1.07h-.053c-.634 0-1.134-.5-1.181-1.12-.036-.456-.032-.914-.038-1.37-.008-.712-.023-1.423-.041-2.135l-.049-2.846h0a137.45 137.45 0 01-.041-2.928c-.007-2.098-.011-4.198-.04-6.298-.028-2.128-.087-4.257-.127-6.384-.041-2.172-.06-4.343-.084-6.514-.025-2.261-.08-4.52-.09-6.78-.019-4.568.018-9.136.079-13.703.06-4.525.106-9.05.147-13.574.022-2.61.04-5.223.082-7.834l.047-2.496.002-.115h0l-.001.088.028-1.19.032-1.28zm-158.4-25.73c4.013.002 8.026-.002 12.038.027 4.062.029 8.124.066 12.186.075 4.05.01 8.1-.013 12.15-.031 4.112-.018 8.226-.033 12.337.029 2.074.03 4.146.068 6.217.1 2.033.03 4.068.046 6.1.062 4.04.035 8.08.052 12.12.094 4.035.041 8.071.075 12.108.098 3.879.02 7.756.037 11.635.013 7.996-.047 15.991-.113 23.986-.165 3.745-.025 7.493-.044 11.238-.027 3.219.015 6.436.059 9.655.1.827.011 1.653.02 2.48.029.793.01 1.586.008 2.38.037.203.007.367.196.376.39.01.221-.17.42-.395.428-1.137.041-2.278.036-3.417.047-1.32.014-2.64.038-3.962.055-3.499.041-6.999.073-10.5.067-7.818-.01-15.636-.093-23.455-.146-3.995-.026-7.99-.057-11.986-.063-3.879-.004-7.756.022-11.635.048-4.026.028-8.053.075-12.079.109-4.137.036-8.274.055-12.412.098-4.071.041-8.143.144-12.216.164-4.121.018-8.244-.009-12.367-.027-4.088-.017-8.177-.019-12.265 0-3.987.017-7.973.07-11.96.08-2.39.006-4.782.008-7.174.008-5.75 0-11.499-.012-17.248-.016H74.11c-6.549.004-13.096.008-19.643-.135a140.994 140.994 0 01-3.964-.139 22.684 22.684 0 01-1.809-.14c-.297-.04-.585-.075-.86-.19a.27.27 0 01-.076-.018c-.173-.076-.204-.333-.015-.416a.328.328 0 01.087-.023c.146-.063.293-.103.451-.133.379-.07.766-.099 1.148-.128a66.512 66.512 0 012.721-.143c2.037-.078 4.077-.109 6.116-.136 3.967-.053 7.935-.068 11.903-.066 4.113.001 8.226-.003 12.34-.009 4.112-.004 8.226-.01 12.339-.006z" stroke="#232C30" fill="#252C30"/><path d="M279.31.003c2.158.043 4.29.613 6.28 1.423l.108.044c.105.033.208.073.307.122.23.088.455.207.673.307.234.107.467.219.695.34.51.272 1.01.563 1.501.871.45.282.875.605 1.294.931.45.35.885.718 1.304 1.106a16.036 16.036 0 012.24 2.588 20.745 20.745 0 011.629 2.757 19.124 19.124 0 011.223 3.15c.161.57.31 1.143.44 1.722.13.587.208 1.186.285 1.781.143 1.083.177 2.183.157 3.273a20.346 20.346 0 01-.3 3.124c-.083.478-.177.953-.298 1.423-.127.494-.256.995-.435 1.475a20.681 20.681 0 01-1.32 2.888c-.36.64-.746 1.255-1.181 1.842l-.061.087-.056.068.012-.016-.012.017-.013.017-.003.004-.014.018a16.054 16.054 0 01-2.107 2.25c-1.595 1.4-3.4 2.602-5.33 3.477-.63.287-1.284.53-1.943.746a23.32 23.32 0 01-2.076.59 19.375 19.375 0 01-3.779.452l-.061.001c-.082 0-.163-.004-.243-.013-.567.052-1.138.08-1.71.08-1.583 0-3.085-.21-4.491-.602-.25-.038-.496-.1-.73-.164-1.033-.277-2.03-.71-2.975-1.206-.803-.42-1.59-.882-2.327-1.41-.716-.512-1.373-1.103-1.997-1.723a21.08 21.08 0 01-2.033-2.361 20.01 20.01 0 01-1.22-1.862l.267-.208c-.442.351-.894.69-1.345 1.029-.883.663-1.77 1.323-2.64 2.003-1.745 1.365-3.416 2.824-5.044 4.328l-.292.27.076-.07c-2.762 2.57-5.422 5.251-7.877 8.12.57-.22 1.142-.43 1.72-.63 1.07-.37 2.156-.729 3.264-.966.446-.095.97-.173 1.419-.056.252.066.53.16.714.357.276.299.396.629.324 1.035-.108.607-.7 1.032-1.194 1.321-.449.26-.92.485-1.399.684-1.083.452-2.19.845-3.281 1.276a124.422 124.422 0 00-5.034 2.117c-.234.103-.465.218-.702.314a1.88 1.88 0 01-.705.143c-.193 0-.386-.033-.575-.104a1.71 1.71 0 01-1.062-1.983 1.61 1.61 0 01-.1-.76c.152-1.364.218-2.736.315-4.105.073-1.058.142-2.117.217-3.175.075-1.07.158-2.141.36-3.196.083-.44.2-.879.402-1.28.309-.612 1.01-.981 1.676-.743.764.273.99 1.103 1.038 1.83.041.636-.017 1.278-.045 1.913-.041.987-.088 1.973-.141 2.959l-.072 1.16c.397-.468.8-.932 1.206-1.392a98.51 98.51 0 014.463-4.711 82.125 82.125 0 011.839-1.754l.9-.834c1.646-1.52 3.342-2.987 5.14-4.323.89-.663 1.815-1.307 2.791-1.835.705-.38 1.43-.77 2.196-1.002-.476-1.054-.859-2.15-1.087-3.289-.463-2.304-.48-4.688-.182-7.014.148-1.07.425-2.12.743-3.151.299-.964.709-1.884 1.145-2.791.851-1.773 2.035-3.384 3.39-4.798.68-.71 1.419-1.369 2.191-1.972.759-.595 1.581-1.108 2.423-1.574.761-.42 1.56-.778 2.371-1.089a29.208 29.208 0 012.613-.88 16.035 16.035 0 011.55-.369 34.801 34.801 0 011.56-.234 20.055 20.055 0 013.03-.188z" fill="#0062C3"/><path d="M283.635 14.037c.294.337.444.783.415 1.23-.03.456-.243.856-.573 1.164-1.193 1.114-2.393 2.217-3.582 3.333l1.045.963a163.71 163.71 0 003.048 2.761l.055.047c.696.612.758 1.718.147 2.41a1.69 1.69 0 01-1.273.57c-.402 0-.804-.139-1.125-.42a148.255 148.255 0 01-3.023-2.74c-.45-.417-.899-.833-1.345-1.252l-.337.318c-.74.691-1.484 1.387-2.266 2.03-.533.439-1.072.87-1.674 1.21-.355.2-.835.4-1.27.4-.348 0-.668-.128-.874-.487-.326-.57-.007-1.316.3-1.82.292-.48.65-.91 1.021-1.329.716-.807 1.506-1.553 2.282-2.301l.398-.383a52.281 52.281 0 01-1.994-2.182c-.395-.455-.795-.912-1.136-1.41a2.313 2.313 0 01-.35-.783c-.122-.53.105-1.134.612-1.373.966-.456 1.967.29 2.686.88.313.258.603.55.893.834l.416.41.396.398.016.015-.15-.151c.26.262.516.524.775.787l.254.251c.481-.459.965-.916 1.45-1.37.784-.732 1.562-1.476 2.38-2.17.704-.596 1.769-.546 2.383.16z" fill="#FFF"/><path d="M56.881 14.87c3.09.044 6.178.125 9.268.078.613-.01 1.226-.027 1.839-.043.402-.012.813-.044 1.216-.03 1.684.056 3.108 1.4 3.277 3.098.182 1.824-1.197 3.64-3.043 3.77-.919.067-1.854.058-2.776.08-.808.017-1.617.025-2.425.025-.61 0-1.22-.005-1.828-.013-3.172-.044-6.34-.217-9.51-.298-.845-.021-1.691-.023-2.536-.048-1.224-.035-2.637-.083-3.608-.944-.816-.722-1.132-1.942-.644-2.952.605-1.255 1.83-1.793 3.085-2.16.862-.252 1.78-.361 2.672-.444 1.665-.155 3.343-.142 5.013-.118zm189.71 2.266c1.818.063 3.633.163 5.449.287.647.043 1.299.076 1.947.132.459.04.875.204 1.19.554.296.326.457.765.443 1.208a1.716 1.716 0 01-1.716 1.655h-.021c-.38-.004-.762-.043-1.14-.07l-1.056-.076c-.776-.055-1.552-.102-2.328-.15-1.677-.104-3.356-.183-5.027-.35l.212.02-.284-.027a18.472 18.472 0 01-1.677-.238c-.356-.07-.736-.144-1.068-.303a2.743 2.743 0 01-.536-.313 1.9 1.9 0 01-.332-.346c-.26-.335-.236-.897.05-1.209.782-.85 2.083-.808 3.142-.827.917-.018 1.837.02 2.752.053zm-67.3.348c.335.287.55.702.595 1.144.09.898-.596 1.828-1.517 1.878-.457.026-.916.042-1.374.06l-.222.006c-1.904.066-3.812.137-5.718.137a42.94 42.94 0 01-2.723-.073c-.531-.034-1.07-.068-1.594-.173-.557-.114-1.136-.269-1.62-.582a1.55 1.55 0 01-.661-.9c-.114-.39.051-.855.341-1.12.307-.279.67-.359 1.068-.395.337-.03.675-.048 1.014-.06a98.58 98.58 0 012.232-.054c1.454-.024 2.906-.047 4.36-.097h-.027l-.027.001h.027v-.001l.33-.012.356-.012-.222.008c.872-.031 1.742-.057 2.612-.086h-.022l.753-.03c.26-.01.52-.021.779-.033.463-.02.9.086 1.26.394zm47.117-.788c.82.027 1.636.079 2.452.162.48.049.97.087 1.439.205.35.087.674.351.878.646.25.363.355.82.284 1.256-.132.803-.84 1.426-1.644 1.426h-.066c-.248-.012-.5-.059-.747-.09a26.486 26.486 0 00-.58-.067l.044.004-.06-.006a41.293 41.293 0 00-.161-.016l.093.01c-1.768-.168-3.55-.185-5.325-.134-1.28.048-2.557.143-3.835.193a18.55 18.55 0 01-2.073-.012 5.237 5.237 0 01-1.149-.212c-.453-.137-.876-.518-.789-1.044.099-.586.681-.902 1.154-1.15.496-.26 1.05-.404 1.59-.54.5-.127 1.017-.197 1.526-.273.495-.074.993-.122 1.49-.17a43.233 43.233 0 015.479-.188zm-23.322-.105c.919.024 1.665.838 1.636 1.765-.014.458-.214.9-.546 1.21-.336.31-.75.44-1.195.45-.898.016-1.798-.006-2.695-.009-.97-.003-1.94-.003-2.909 0-.963.003-1.926.02-2.89.035-.414.007-.83.013-1.244.013-.592 0-1.183-.012-1.773-.054-.51-.036-1.062-.097-1.537-.307-.446-.199-1.036-.634-.922-1.212.031-.163.097-.291.191-.42.164-.219.34-.39.581-.53.242-.144.51-.244.778-.32.501-.139 1.017-.213 1.531-.278.971-.12 1.949-.19 2.925-.239 1.965-.103 3.936-.114 5.904-.112l.649-.002a54.598 54.598 0 011.516.01zM22.107 43.06c1.043.162 2.07.463 3.074.783 1.994.637 3.903 1.573 5.585 2.818.864.64 1.683 1.329 2.438 2.094.641.646 1.225 1.335 1.774 2.06.547.716 1.042 1.47 1.503 2.241.476.799.914 1.614 1.28 2.468.745 1.73 1.23 3.556 1.494 5.418.137.96.18 1.923.179 2.892a15.828 15.828 0 01-.302 3.057c-.394 1.964-1.125 3.851-2.045 5.63-.955 1.85-2.146 3.559-3.63 5.03a20.159 20.159 0 01-1.653 1.471l.017.045c.034.095.068.19.105.283.147.356.315.701.5 1.038.282.48.595.938.928 1.383.757.98 1.604 1.892 2.477 2.771a43.727 43.727 0 003.93 3.44 40.534 40.534 0 003.698 2.446c.966.545 1.95 1.051 2.958 1.511l.118.148a58.911 58.911 0 01-1.644-2.15c-.588-.809-1.201-1.66-1.52-2.61-.124-.367-.213-.81-.113-1.188.059-.215.151-.404.325-.552a.991.991 0 01.724-.24c.563.063 1.08.406 1.482.792.387.368.738.766 1.089 1.168.567.647 1.11 1.315 1.66 1.975 1.116 1.341 2.223 2.694 3.427 3.96.084.09.171.178.257.267.14.145.264.29.386.455.212.282.294.684.269 1.028a1.67 1.67 0 01-.149.576c.045.816-.538 1.606-1.374 1.746-1.465.249-2.94.43-4.416.603l-1.06.122.036-.003c-.7.084-1.398.198-2.096.305-.713.11-1.426.201-2.142.284-.432.055-.86.124-1.296.125l-.31.002c-.353 0-.7-.025-1.007-.244-.4-.285-.614-.8-.437-1.276.143-.388.427-.653.77-.873.342-.22.703-.393 1.084-.535.814-.304 1.681-.482 2.53-.662a30.84 30.84 0 011.725-.313l.59.252c-2.136-.878-4.176-2.036-6.079-3.334a40.87 40.87 0 01-5.576-4.605 37.385 37.385 0 01-2.38-2.55 17.509 17.509 0 01-1.634-2.242 12.75 12.75 0 01-.751-1.447l.224-.118c-1.653.907-3.474 1.443-5.32 1.8a21.116 21.116 0 01-4.55.372 19.805 19.805 0 01-4.577-.642c-2.043-.551-4.04-1.344-5.87-2.403a17.15 17.15 0 01-2.47-1.704 15.688 15.688 0 01-2.16-2.207c-.652-.817-1.254-1.677-1.74-2.6-.47-.89-.848-1.83-1.135-2.792a16.528 16.528 0 01-.628-3.248 17.408 17.408 0 01-.616-4.597c0-1.31.146-2.59.423-3.823a1.575 1.575 0 01-.18-.217c-.244-.353-.377-.85-.266-1.273.271-1.038.7-2.038 1.121-3.023.398-.928.873-1.809 1.389-2.677a15.396 15.396 0 011.954-2.617 16.272 16.272 0 012.354-2.111 25.235 25.235 0 015.552-3.017c.987-.389 2.026-.654 3.064-.865 1.067-.216 2.162-.299 3.25-.332a18.197 18.197 0 013.383.23z" fill="#0062C3"/><path d="M16.088 68.82a3.491 3.491 0 01-.472-.286c-.45-.338-.843-.74-1.25-1.128-.579-.55-1.159-1.1-1.734-1.653-.344-.33-.69-.659-1.03-.992-.337-.33-.7-.651-1.002-1.016-.188-.228-.353-.462-.455-.743-.185-.512-.034-1.154.444-1.458.871-.553 1.899-.001 2.642.515.71.494 1.367 1.063 2.012 1.638.472.42.942.84 1.402 1.272.069.064.137.13.204.195.082-.103.163-.206.246-.308.353-.438.711-.871 1.08-1.297.746-.864 1.528-1.7 2.296-2.546 1.264-1.394 2.559-2.761 3.82-4.161.113-.125.226-.253.343-.376.313-.323.691-.54 1.15-.577.452-.035.906.112 1.248.407.692.596.79 1.694.172 2.38a276.523 276.523 0 01-3.494 3.813c-.766.822-1.513 1.662-2.27 2.49-.747.82-1.451 1.67-2.146 2.53-.333.412-.677.803-1.107 1.117-.337.245-.762.342-1.173.375a1.74 1.74 0 01-.926-.191z" fill="#FFF"/></g></svg>