<svg width="267" height="188" xmlns="http://www.w3.org/2000/svg"><g fill="none" fill-rule="evenodd"><path d="M27.562 107.403l-.001-.025v-.003l-.001-.023.003.076-.005-.165v-.027a509.8 509.8 0 01-.136-6.771c-.029-2.274-.05-4.547-.006-6.82.09-4.516.321-9.025.44-13.538.123-4.568.056-9.138-.018-13.705-.038-2.34-.079-4.679-.109-7.019-.03-2.273-.048-4.548-.093-6.822-.044-2.222-.11-4.443-.115-6.666-.003-1.144.005-2.286.028-3.43.02-1.119.043-2.237.157-3.35.064-.618.138-1.235.247-1.846.108-.614.253-1.222.405-1.826.3-1.209.835-2.367 1.6-3.35.358-.462.733-.905 1.174-1.288a15.128 15.128 0 011.567-1.2c.737-.49 1.615-.838 2.478-1.045a12.7 12.7 0 011.788-.321c2.307-.219 4.621-.175 6.934-.106 2.27.066 4.54.138 6.81.161 4.607.048 9.214.054 13.819.065 4.623.01 9.246.05 13.868.063 4.617.012 9.234-.037 13.851-.1 4.481-.063 8.967-.085 13.444.146 2.245.115 4.5.265 6.72.622.58.092 1.15.214 1.712.383.539.164 1.063.393 1.584.606.558.229 1.096.512 1.615.82.555.331 1.04.773 1.483 1.242.37.393.704.824.947 1.307.15.293.293.588.418.892.231.569.436 1.15.59 1.745.288 1.102.468 2.22.608 3.35.27 2.215.308 4.45.368 6.68.061 2.258.104 4.514.087 6.773-.016 2.273-.031 4.55-.083 6.823-.051 2.272-.118 4.545-.149 6.817a196.06 196.06 0 00.037 6.797l.024 1.105.024 1.08.003.09.001.065.001.023v.042-.042c.116 4.494.317 8.984.437 13.477l.02.8.002.09v.012l.001.038v.015c.056 2.194.086 4.391.07 6.585a332.968 332.968 0 01-.139 6.98c-.127 4.445-.278 8.893-.531 13.333-.062 1.08-.13 2.16-.211 3.24a110.35 110.35 0 01-.194 2.27c-.029.299-.045.6-.106.893a9.059 9.059 0 01-.573 1.847c-.435.99-1.236 1.8-2.134 2.375a13.29 13.29 0 01-3.179 1.488 24.306 24.306 0 01-3.42.819c-1.18.19-2.361.346-3.55.44a77.118 77.118 0 01-6.899.225c-2.231-.02-4.462-.107-6.692-.19-2.27-.085-4.538-.162-6.808-.214-2.236-.05-4.472-.088-6.707-.134-2.301-.049-4.604-.108-6.906-.107-4.506.003-9.01.149-13.515.204-2.279.029-4.556.053-6.835.082-2.232.028-4.463.057-6.695.04-2.2-.014-4.41-.033-6.605-.214a22.929 22.929 0 01-1.697-.184c-.6-.095-1.188-.23-1.772-.396a6.56 6.56 0 01-1.64-.712c-.227-.14-.437-.31-.648-.472a5.324 5.324 0 01-.713-.652.996.996 0 01-.087-.107c-2.94-1.464-4.653-4.633-5.14-9.507-.22-.237-.352-.558-.445-.865a8.454 8.454 0 01-.274-1.41c-.112-.901-.199-1.805-.27-2.71a91.66 91.66 0 01-.23-4.426l-.03-1.07-.001-.02-.001-.056-.002-.072v-.02z" fill="#0062C3"/><path d="M19.523 138.192c-.752-.216-1.02-1.092-1.143-1.78-.129-.716-.17-1.437-.211-2.162-.08-1.397-.108-2.797-.144-4.195-.07-2.685-.148-5.37-.15-8.056 0-2.59.073-5.177.107-7.767.03-2.48.035-4.96.002-7.44-.063-4.887-.27-9.773-.291-14.66-.012-2.555-.061-5.11-.075-7.664-.012-2.563.027-5.128.056-7.692.028-2.544.122-5.086.194-7.63.073-2.614.187-5.23.286-7.843.1-2.635.154-5.272.16-7.909.006-2.624-.122-5.246-.185-7.87a424.925 424.925 0 01-.118-7.319c-.016-2.514.025-5.03-.02-7.547-.012-.682-.034-1.365-.06-2.047-.09-2.333-.195-4.665-.287-6.998a110.451 110.451 0 01-.081-3.35c-.01-1.231-.011-2.47.073-3.698.085-1.242.256-2.472.495-3.693a26.63 26.63 0 01.986-3.703c.108-.307.22-.615.354-.914.154-.347.35-.68.551-1.002.405-.651.915-1.235 1.463-1.768 1.05-1.021 2.418-1.752 3.801-2.206 1.028-.338 2.092-.54 3.158-.708C29.49.407 30.553.335 31.61.298a12.71 12.71 0 011.454.022c.56.046 1.114.127 1.67.206A84.69 84.69 0 0037.78.89c.87.071 1.747.06 2.619.058.587 0 1.173-.006 1.761-.014.609-.009 1.1.558 1.084 1.146-.017.627-.539 1.076-1.146 1.084a79.92 79.92 0 01-2.695.008c-.563-.005-1.129-.012-1.691.005l.057-.002-.079.003a22.553 22.553 0 00-.011 0c-.45.019-.9.032-1.35.046-1.32.06-2.63.226-3.947.31-1.25.08-2.505.171-3.742.37-.71.122-1.415.266-2.108.464-.315.101-.623.215-.928.346-.353.166-.694.352-1.03.55a8.099 8.099 0 00-.478.344 9.439 9.439 0 00-.543.509 8.963 8.963 0 00-.51.605c-.15.214-.29.433-.422.66-.09.177-.172.357-.246.542-.324.889-.583 1.8-.801 2.72a30.256 30.256 0 00-.584 3.6c-.098 1.227-.109 2.459-.105 3.689.003 1.09.025 2.181.064 3.271.088 2.283.19 4.566.28 6.847.054 1.378.094 2.756.102 4.134.005 1.2 0 2.401 0 3.603a418.621 418.621 0 00.16 11.296c.035 1.287.09 2.574.122 3.863.062 2.614.019 5.234-.05 7.848-.067 2.653-.191 5.304-.289 7.956-.095 2.554-.184 5.11-.24 7.666-.057 2.611-.068 5.223-.09 7.834-.02 2.582.03 5.161.056 7.742.013 1.242.017 2.483.025 3.722.01 1.416.05 2.83.086 4.245.118 4.682.239 9.363.212 14.047-.015 2.579-.084 5.156-.12 7.733-.039 2.64-.005 5.277.04 7.915.031 1.808.047 3.615.036 5.423a41.292 41.292 0 01-.097 2.837c-.034.46-.077.93-.212 1.372-.088.295-.24.55-.489.736a1.073 1.073 0 01-.647.213 1.15 1.15 0 01-.31-.043zM131.055 4.036a305.95 305.95 0 01-6.308-.112c-4.325-.111-8.65-.186-12.975-.247-4.425-.062-8.852-.096-13.277-.12-2.241-.011-4.482.002-6.722.014-2.21.014-4.42.026-6.628.017-4.273-.02-8.543-.094-12.814-.086-4.402.008-8.804.068-13.205-.019-1.901-.036-3.804-.105-5.698-.275a36.893 36.893 0 01-2.861-.347c-.452-.075-.9-.169-1.349-.257a4.485 4.485 0 01-.61-.154c-.136-.047-.281-.108-.372-.224a.429.429 0 01-.06-.457c.067-.155.213-.252.358-.33a3.78 3.78 0 01.709-.275 13.418 13.418 0 011.581-.38c1.115-.19 2.242-.27 3.372-.336 1.086-.06 2.174-.076 3.26-.095 1.18-.02 2.358-.036 3.537-.051h.017-.016l.553-.007h-.004l.132-.001h-.016.044l.165-.003h-.037a149.528 149.528 0 01.437-.005C64.59.256 66.91.24 69.232.223c2.1-.016 4.202-.035 6.302-.03 4.336.013 8.67.093 13.007.078 2.236-.008 4.472-.034 6.707-.04 2.285-.009 4.568.011 6.852.026 4.385.03 8.77.079 13.153.148 2.104.034 4.208.062 6.312.114 2.142.051 4.283.112 6.425.158 2.054.044 4.107.04 6.16.029 1.227-.007 2.455-.004 3.684-.002.92.002 1.841.004 2.764.003.313-.001.626-.004.938-.008 2-.025 3.999-.065 5.998-.118a151.998 151.998 0 016.714-.028c.905.016 1.617.868 1.571 1.747-.023.445-.23.872-.565 1.164-.332.29-.748.418-1.183.41a150.444 150.444 0 00-4.048-.026l-.106.002h-.108.082c-2.083.033-4.165.1-6.248.136a337.38 337.38 0 01-6.412.034c-.915-.001-1.83.004-2.745.008-.852.005-1.706.01-2.558.01-.291 0-.582 0-.873-.002zM230.876 81.697c-.925-.05-1.593-.844-1.573-1.748.076-3.322.263-6.643.43-9.962.168-3.34.318-6.678.421-10.02.107-3.478.132-6.958.092-10.436v.03c-.041-3.206-.056-6.41-.087-9.616l.002.086-.002-.168v-.046.021c-.027-1.94-.075-3.883-.106-5.826l-.013-.847a6.432 6.432 0 01-.007-.542v-.128.015c-.032-2.474-.03-4.95-.028-7.425.003-2.313.066-4.623.043-6.936-.029-1.52-.071-3.038-.254-4.548a19.865 19.865 0 00-.406-2.011c-.119-.407-.25-.808-.4-1.204-.13-.293-.27-.58-.422-.862-.211-.342-.44-.67-.679-.993a16.28 16.28 0 00-1.145-1.294c-.24-.223-.488-.433-.743-.637a12.55 12.55 0 00-1.027-.679 12.96 12.96 0 00-.877-.451 13.367 13.367 0 00-1.282-.421 27.327 27.327 0 00-2.962-.516c-3.266-.37-6.546-.485-9.83-.532-3.246-.045-6.489-.171-9.734-.23a122.566 122.566 0 00-3.484-.015c-1.51.024-3.015.113-4.523.163-1.647.055-3.291.075-4.94.061-3.205-.024-6.41-.105-9.614-.132-1.23-.01-2.46-.001-3.688.013-2.025.035-4.044.12-6.066.239-.794.046-1.59.069-2.385.108-.513.026-1.018.064-1.53.001-.9-.107-1.49-1.09-1.333-1.937.082-.437.342-.832.712-1.079.344-.23.723-.295 1.122-.262h.015l-.124-.016c.063.008.126.012.189.013.44-.014.879-.044 1.32-.064.65-.027 1.3-.049 1.95-.092 1.56-.103 3.12-.163 4.683-.2 3.284-.082 6.567-.03 9.852.021 2.445.039 4.891.085 7.338.07 1.54-.028 3.08-.097 4.618-.16a94.644 94.644 0 014.844-.07c3.228.034 6.455.17 9.682.228 3.29.06 6.576.103 9.853.418.875.084 1.748.186 2.618.305.84.115 1.666.302 2.486.514 1.656.424 3.202 1.283 4.516 2.367 1.306 1.076 2.41 2.456 3.23 3.933.414.743.691 1.564.923 2.378.229.804.392 1.617.512 2.443.236 1.63.27 3.283.301 4.928.031 1.687.004 3.374-.02 5.06-.046 3.194-.018 6.39.008 9.586.018.228.008.462.009.688.033 2.42.098 4.836.122 7.255.023 2.38.027 4.762.056 7.144.046 3.442.053 6.88-.012 10.32-.065 3.366-.206 6.73-.37 10.092-.197 4.01-.44 8.018-.533 12.032-.02.878-.813 1.575-1.666 1.575-.027 0-.054 0-.082-.002z" fill="#252C30"/><path d="M156.583 3.76c-.292-.01-.585-.035-.878-.052a92.8 92.8 0 01-.865-.053c-.332-.022-.662-.068-.992-.102-.234-.023-.465-.067-.697-.106-.28-.044-.538-.096-.794-.231-.389-.203-.723-.64-.61-1.1.08-.326.31-.565.583-.743.24-.156.51-.218.784-.277.269-.062.53-.111.807-.138.175-.016.35-.03.526-.042.298-.023.596-.023.894-.036.295-.012.59-.035.885-.05.374-.02.749-.01 1.123.001l.126.004c.663.016 1.33.01 1.993-.004a71.7 71.7 0 011.205-.015c.466 0 .929.026 1.395.04l-.055-.002c.232.009.463.024.695.032.134 0 .267-.003.4-.005.148-.003.297-.005.447-.003.302.005.597.003.896.059.136.024.267.063.399.11.073.025.142.062.218.086a1.307 1.307 0 01.57.393c.167.209.263.469.274.736.02.538-.345 1.096-.882 1.232a1.561 1.561 0 00-.142.042l.063-.024c-.266.095-.522.15-.808.177-.23.02-.463-.01-.693-.017l.18.004c-.24-.006-.479-.015-.718-.022-.357-.003-.714.028-1.07.036-.512.012-1.023.016-1.534.022-.826.006-1.652.062-2.478.062h-.192c-.352 0-.703-.001-1.055-.014z" fill="#252C30"/><path d="M164.337 4.158a98.38 98.38 0 01-4.703-.165c-1.656-.091-3.311-.174-4.966-.274a26.664 26.664 0 01-1.612-.133c-.378-.046-.768-.104-1.12-.253-.301-.127-.586-.298-.796-.556-.295-.363-.407-.836-.248-1.287.341-.973 1.527-1.138 2.415-1.14.597 0 1.193.041 1.788.07.791.038 1.583.08 2.373.127 1.71.103 3.423.209 5.136.256l-.214-.005c.824.023 1.648.04 2.473.045.282 0 .565.004.845.044.33.048.65.129.972.208.314.075.63.142.941.227.33.091.653.202.979.304.442.118.886.208 1.338.282.405.05.808.082 1.217.097.422.007.844.001 1.266-.01a.375.375 0 01.383.356.376.376 0 01-.358.383 31.683 31.683 0 00-1.237.083c-.417.045-.828.109-1.24.19a19.52 19.52 0 00-1.66.479 16.965 16.965 0 01-1.58.426c-.46.112-.923.219-1.396.245-.133.007-.267.01-.401.01-.198 0-.397-.006-.595-.009zM212.639 140.674H61.048c-8.215 0-16.43.002-24.643-.005-3.488-.004-6.977.007-10.463-.05-.85-.013-1.7-.032-2.55-.06-.828-.028-1.66-.062-2.484-.158-.723-.084-1.5-.175-2.157-.516-.342-.179-.711-.5-.684-.924.034-.515.607-.816 1.027-.969.812-.298 1.697-.364 2.551-.436.956-.08 1.915-.103 2.873-.126.942-.025 1.885-.034 2.828-.044 3.29-.035 6.583-.035 9.876-.033h2.08c8.196-.003 16.392-.002 24.588-.002H212.65c.356 0 .714-.007 1.07.011.342.017.678.084 1.015.142.083.011.166.021.248.033.333.045.634.165.882.398.28.266.447.638.463 1.025.025.718-.513 1.415-1.24 1.513-.459.062-.913.156-1.375.19a6.936 6.936 0 01-.498.015c-.192 0-.386-.004-.577-.004zM232.383 88.48c-1.984-.082-4.085-.357-5.707-1.597-.878-.67-1.36-1.673-1.65-2.714-.126-.447-.227-.901-.336-1.352-.132-.54-.237-1.088-.109-1.638.098-.416.535-.773.96-.8.504-.034.907.143 1.296.454.33.263.577.632.774.999.327.61.474 1.298.739 1.936.044.089.091.177.14.264l.045.062c.035.039.071.077.108.115.054.045.108.088.164.132.075.048.151.095.228.14.149.074.3.141.452.204.243.082.487.152.736.213.421.084.842.15 1.268.2 1.105.087 2.214.09 3.323.08a171.87 171.87 0 003.642-.06c2.296-.068 4.592-.108 6.888-.14 1.34-.02 2.684-.018 4.024-.065.468-.021.941-.045 1.405-.11.025-.004.051-.01.077-.013a6.34 6.34 0 00.238-.058c.098-.035.195-.072.29-.113.135-.072.267-.149.398-.228.06-.041.12-.084.18-.128l.088-.082.078-.091c.044-.067.085-.135.126-.205.13-.282.244-.57.356-.86l-.077.208.079-.21c.163-.446.308-.897.42-1.358.039-.188.068-.376.1-.566a1.675 1.675 0 011.672-1.4c.441.01.868.198 1.172.52.284.301.486.752.452 1.174-.076.96-.373 1.883-.706 2.783-.216.576-.425 1.189-.783 1.693a5.812 5.812 0 01-.67.79c-.29.289-.654.507-1.003.716a5.568 5.568 0 01-1.886.694 2.59 2.59 0 01-.14.025c-.48.073-.97.094-1.454.12-1.155.067-2.317.058-3.474.073-2.272.03-4.544.051-6.815.122-1.202.036-2.404.066-3.607.08-.647.01-1.295.02-1.942.02-.52 0-1.04-.007-1.56-.029z" fill="#252C30"/><path d="M106.945 170.101c-4.3-.024-8.598-.072-12.897-.173-4.278-.1-8.553-.184-12.83-.225-2.209-.022-4.417-.046-6.626-.05-2.116-.004-4.233.01-6.35.024-4.271.026-8.545.102-12.817.042-4.14-.058-8.277-.179-12.416-.257-4.39-.084-8.783-.094-13.174-.07-2.034.013-4.068.028-6.102.003a176.3 176.3 0 01-6.333-.192c-2.08-.099-4.166-.234-6.231-.505-2.057-.271-4.154-.723-6.047-1.597-.904-.418-1.763-.92-2.495-1.602-.378-.353-.695-.758-1.008-1.167a7.479 7.479 0 01-.838-1.39 6.13 6.13 0 01-.537-2.997c.065-.957.321-1.897.642-2.798.343-.966.842-1.857 1.36-2.737.511-.87 1.091-1.698 1.675-2.52 1.171-1.65 2.427-3.232 3.7-4.804a103.54 103.54 0 013.42-4.012 78.217 78.217 0 013.855-3.961c.74-.716 1.49-1.426 2.296-2.065.315-.252.647-.481.998-.683.336-.194.755-.29 1.134-.184l.076.016c.514.104.904.643.714 1.168l-.01.03c-.06.526-.425 1-.744 1.411-.537.693-1.132 1.34-1.725 1.983-1.128 1.216-2.287 2.4-3.403 3.628a97.27 97.27 0 00-3.479 4.06c-1.194 1.468-2.38 2.942-3.504 4.464l.126-.173c-.98 1.346-1.928 2.707-2.745 4.158-.2.37-.378.747-.54 1.134a13.44 13.44 0 00-.395 1.26c-.051.235-.095.47-.127.708a7.865 7.865 0 00-.013.563c.007.084.016.168.026.252.027.131.058.26.092.39.035.095.07.19.107.283.068.139.139.275.214.41.17.259.354.507.545.752.105.124.212.245.323.363a8 8 0 00.387.327c.2.136.401.263.609.387.425.223.858.419 1.304.598.63.226 1.266.42 1.914.588a34.2 34.2 0 003.591.593l-.224-.022c4.155.417 8.342.538 12.516.57 2.017.017 4.031-.008 6.048-.016 2.2-.01 4.4-.01 6.6.007 4.366.033 8.732.126 13.096.226 2.026.048 4.052.091 6.077.113 2.106.021 4.213.003 6.318-.02 8.581-.085 17.165-.09 25.745.089 4.355.09 8.71.213 13.066.264 2.096.024 4.193.027 6.29.04 2.105.013 4.21.05 6.316.071 4.276.042 8.553-.026 12.829-.045 2.035-.009 4.071-.008 6.108-.016 2.055-.008 4.11-.03 6.165-.04 4.27-.018 8.539-.055 12.808-.105 4.22-.048 8.439-.166 12.66-.238 4.12-.07 8.241-.12 12.362-.2 1.918-.035 3.838-.059 5.757-.071l3.004-.022c1.027-.007 2.054-.023 3.08.02.936.037 1.868.137 2.8.216 1.051.088 2.103.102 3.156.131 1.895.055 3.79.174 5.684.277.809.043 1.62.039 2.429.084.691.039 1.38.086 2.072.115.64.026 1.279.05 1.917.088.604.035 1.209.1 1.812.154.21.02.418.05.627.074.297.035.515.33.506.619-.01.292-.247.569-.548.586-.348.02-.697.037-1.045.048l.09-.004c-.57.022-1.143.06-1.714.065-.62.004-1.239.007-1.858.004-.668-.003-1.335.019-2.003.035-.379.008-.757.008-1.135.008-.388 0-.777 0-1.164.01-2.275.081-4.547.208-6.822.276-2.029.082-4.034.429-6.065.492-1.01.031-2.02.026-3.03.033l-2.949.02c-1.952.015-3.904.053-5.855.087-2.074.038-4.15.052-6.224.089-4.17.075-8.337.152-12.505.243-4.204.09-8.41.123-12.616.16-8.372.073-16.744.069-25.118.13-.637.004-1.274.006-1.91.006-3.625 0-7.25-.063-10.875-.084z" fill="#252C30"/><path d="M40.154 19.163c-1.392-.014-2.783-.058-4.175-.081-.699-.011-1.4-.008-2.1-.023-.534-.013-1.08-.077-1.618-.071-.809.16-1.732-.14-2.37-.637a3.183 3.183 0 01-1.19-2.056 3.187 3.187 0 01.635-2.376c.522-.67 1.24-1.027 2.057-1.19.623-.124 1.287-.025 1.916-.002.715.026 1.433.024 2.15.031 1.46.015 2.923.065 4.383.084 2.833.038 5.67-.001 8.502-.03 1.72-.018 3.17 1.416 3.183 3.132.012 1.733-1.414 3.153-3.134 3.182-1.845.032-3.693.05-5.54.05-.9 0-1.8-.004-2.7-.013zM135.732 17.765c-.6-.06-1.413-.178-1.782-.72a.958.958 0 01-.176-.456v.01c-.086-.654.401-1.16.958-1.406.537-.237 1.157-.293 1.735-.37 1.149-.154 2.31-.222 3.467-.267 2.27-.088 4.547-.105 6.82-.114a97.48 97.48 0 011.089.002c.08 0 .16 0 .243-.002a5.59 5.59 0 01.754.03 1.663 1.663 0 011.442 1.622c.006.833-.613 1.51-1.42 1.645-.402.068-.835.023-1.24.02-.511-.001-1.022 0-1.533.003-1.07.008-2.14.022-3.212.028-1.233.009-2.468.014-3.702.032-.532.007-1.065.02-1.598.02-.616 0-1.232-.017-1.845-.077zM172.33 17.8c-.528.002-1.058 0-1.586-.005a252.78 252.78 0 01-3.36-.038c-1.21-.022-2.419-.065-3.629-.095-1.127-.028-2.255-.034-3.38-.096-.796-.045-2.041-.062-2.29-1.02-.122-.468.06-.9.395-1.224.282-.272.683-.43 1.054-.532.584-.161 1.186-.232 1.788-.285 1.182-.104 2.372-.103 3.558-.09 2.275.027 4.55.06 6.824.067.489.002.978.013 1.465-.01.083-.008.166-.013.248-.014a1.67 1.67 0 011.65 1.425c.063.438-.06.893-.332 1.243-.273.352-.647.535-1.077.623a3.78 3.78 0 01-.738.058c-.199 0-.398-.006-.59-.006zM183.535 16.561c-.265-.042-.53-.086-.777-.199-.4-.182-.727-.564-.657-1.03.11-.74.76-1.094 1.384-1.364.548-.237 1.164-.348 1.75-.44 1.117-.171 2.258-.219 3.387-.26 2.015-.07 4.03-.087 6.046-.064.787.01 1.575.034 2.363.015.903-.02 1.666.754 1.673 1.647.007.915-.743 1.653-1.646 1.674-.882.02-1.764-.011-2.647-.02-1.01-.01-2.021-.013-3.032-.006-1.019.005-2.038.027-3.057.047-1.092.022-2.184.067-3.277.073l-.257.001c-.417 0-.842-.01-1.253-.074zM220.22 17.17c-.666-.01-1.332-.072-1.996-.117-.687-.044-1.373-.092-2.058-.132l.219.012a106.95 106.95 0 00-5.395-.153c-.9-.007-1.8-.004-2.7.028-.455.016-.911.035-1.366.054-.23.01-.462.013-.693.02a1.364 1.364 0 01-.348.15 1.401 1.401 0 01-1.57-.644 1.4 1.4 0 01.226-1.681c.253-.251.604-.39.956-.4.774-.338 1.59-.518 2.435-.622 1.045-.127 2.099-.165 3.15-.179 1.931-.027 3.863.025 5.791.14l-.22-.012c1.054.062 2.108.136 3.16.199l-.219-.012.821.046c.816.048 1.446.85 1.453 1.63.005.88-.73 1.673-1.623 1.673h-.022z" fill="#0062C3"/><path d="M183.772 50.108c-1.367-.01-2.733-.034-4.099-.073-1.277-.038-2.565-.09-3.836-.233a17.43 17.43 0 01-1.497-.223 6.59 6.59 0 01-.68-.174c-.19-.06-.394-.14-.57-.252a.828.828 0 01-.437-1.184l.052-.091c.13-.269.348-.47.633-.626.33-.181.704-.267 1.071-.335.625-.113 1.266-.138 1.9-.146 1.314-.015 2.627 0 3.941.01 2.572.017 5.144.02 7.715.01 2.605-.013 5.209-.023 7.813-.043 2.513-.02 5.024-.09 7.536-.19 1.118-.043 2.243-.143 3.359-.069.703.046 1.282.685 1.375 1.357.106.749-.386 1.584-1.151 1.752a7.995 7.995 0 01-1.198.182c-.335.022-.668.034-1.003.05l-1.768.07c-1.283.05-2.568.095-3.852.123-2.57.058-5.138.06-7.708.072-1.79.008-3.58.021-5.369.021-.742 0-1.485-.002-2.227-.008zM189.44 59.778c-2.145-.022-4.29-.076-6.435-.08-.475-.002-.95 0-1.425 0-1.05.005-2.1.01-3.15-.014a32.17 32.17 0 01-2.504-.13 5.55 5.55 0 01-.58-.09c-.202-.043-.427-.078-.616-.166-.208-.1-.418-.2-.582-.367-.197-.197-.33-.512-.282-.793.122-.741.832-1.031 1.472-1.225.27-.081.558-.12.836-.165.283-.045.565-.079.85-.106 1.117-.11 2.246-.143 3.367-.184 2.175-.079 4.352-.061 6.529-.033 4.26.059 8.52.029 12.78-.084l4.358-.119c.688-.019 1.378-.038 2.068-.054l.875-.019.534-.012c.3-.006.582.031.875.092.7.146 1.198.862 1.203 1.553.003.363-.119.722-.341 1.008-.27.345-.636.524-1.057.61-.294.06-.596.06-.896.067-.227.006-.455.01-.684.015l-1.412.034-2.995.08c-2.162.058-4.321.115-6.482.149-1.523.023-3.046.042-4.57.042-.578 0-1.157-.003-1.736-.01z" fill="#252C30"/><path d="M246.713 106.955c1.396.062 2.79.138 4.184.222 1.279.077 2.557.162 3.83.297.392.042.77.101 1.152.196.314.079.626.177.898.362.365.247.66.605.857.996a4.5 4.5 0 01.357 1.088c.15.709.234 1.43.305 2.15a76.962 76.962 0 01.35 6.4c.016 1.414.004 2.827.011 4.241.016 2.861.049 5.722.054 8.582.002 1.397.015 2.792.019 4.19.003 1.413-.01 2.828-.018 4.242-.016 2.747-.03 5.496-.052 8.243-.01 1.156-.007 2.314-.065 3.468-.015.295-.029.585-.11.87-.098.337-.241.68-.45.962-.16.219-.34.419-.57.566a3.81 3.81 0 01-.607.321 7.573 7.573 0 01-1.05.331c-1.39.35-2.823.532-4.248.662a62.182 62.182 0 01-4.448.231c-.683.014-1.366.02-2.05.02-.743 0-1.487-.007-2.23-.015-1.42-.015-2.84-.052-4.258-.115-1.48-.065-2.959-.138-4.438-.194-1.402-.054-2.805-.107-4.206-.17-1.37-.062-2.74-.132-4.107-.213a114.983 114.983 0 01-2.355-.16 4.99 4.99 0 01-.384-.042c-.266-.043-.526-.174-.75-.317-.362-.232-.637-.624-.768-1.029a4.548 4.548 0 01-.163-.72c-.053-.35-.052-.715-.052-1.07 0-.36.008-.72.02-1.078.023-.714.064-1.424.11-2.135.087-1.39.179-2.78.266-4.17.04-.647.08-1.291.118-1.937.021-.351.047-.699.104-1.047.047-.3.098-.597.136-.898l.063-.711-.138-5.71-.034-.3c-.034-.343-.06-.686-.077-1.03-.062-1.199-.122-2.397-.152-3.597l.001.069c-.072-2.87-.04-5.74-.032-8.61.004-1.39.058-2.78.138-4.168.038-.663.11-1.324.16-1.986.05-.679.1-1.36.197-2.032.109-.75.196-1.513.568-2.186.16-.289.341-.554.589-.775.162-.146.332-.28.508-.408.33-.239.705-.404 1.08-.559 1.37-.568 2.853-.837 4.32-1.004 1.444-.164 2.902-.239 4.354-.304 1.454-.065 2.91-.096 4.365-.128 2.9-.064 5.801-.015 8.698.11z" fill="#0062C3"/><path d="M227.504 141.885a5.528 5.528 0 01-.933-.204c-.584-.167-1.007-.695-.787-1.315.12-.34.456-.558.777-.683a5.73 5.73 0 011.06-.32c.769-.14 1.555-.2 2.334-.202.696-.004 1.392-.042 2.087-.061.282-.009.564-.015.845-.021.423-.01.834-.03 1.234.14.483.2.808.686.812 1.209a1.332 1.332 0 01-.814 1.232c-.392.156-.794.151-1.21.16l-.889.017c-.717.014-1.436.009-2.154.056-.414.027-.833.046-1.252.046-.372 0-.743-.015-1.11-.054zM252.308 147.122c-4.232-.115-8.465-.15-12.696-.17-2.147-.012-4.292-.013-6.438-.024-1.086-.006-2.171-.004-3.257-.018a36.573 36.573 0 01-1.654-.052 6.21 6.21 0 01-.804-.081c-.31-.059-.666-.108-.938-.283a1.714 1.714 0 01-.257-.193 4.918 4.918 0 00-.075-.058c-.323-.248-.359-.757-.061-1.04l.022-.022c.3-.447.854-.662 1.353-.818.537-.169 1.106-.236 1.664-.295 1.127-.119 2.267-.142 3.4-.162 2.149-.038 4.3-.03 6.449-.02 4.234.021 8.468.047 12.7.155l.567.015c.415.01.806.156 1.1.454.28.281.442.67.445 1.066.005.802-.666 1.546-1.484 1.546h-.036zM243.098 151.946a535.22 535.22 0 01-6.789-.128 250.268 250.268 0 01-5.56-.203c-.911-.042-1.825-.08-2.732-.17-.761-.077-1.923-.23-2.217-1.034a.776.776 0 01.025-.73c.212-.456.77-.695 1.233-.801a9.789 9.789 0 011.829-.216c1.17-.042 2.341-.022 3.51.005 2.3.05 4.598.112 6.898.153 1.733.031 3.466.063 5.2.07.9.003 1.8-.004 2.699-.015l1.047-.015c.52-.009 1.043-.038 1.564-.001.745.054 1.32.772 1.327 1.492a1.533 1.533 0 01-1.307 1.514c-.324.046-.652.044-.978.05l-.856.014a195.604 195.604 0 01-2.969.026c-.641 0-1.283-.004-1.924-.011z" fill="#FFF"/><g fill="#0062C3" stroke="#FFF" stroke-width=".5"><path d="M227.7 175.057c-.526-.21-1.023-.522-1.363-.983a2.572 2.572 0 01-.442-1.065c-.054-.3-.068-.606-.088-.91-.025-.362-.046-.725-.071-1.088a5.238 5.238 0 000-.004l-.006-.079.005.079a31.059 31.059 0 00-.139-1.273 9.89 9.89 0 01-.068-1.893c.037-.582.106-1.164.264-1.728.094-.33.247-.648.463-.915.233-.29.587-.481.946-.48a1.285 1.285 0 011.093-1.178c.563-.078 1.137-.084 1.704-.108.524-.022 1.05-.047 1.574-.061 1.007-.026 2.014.007 3.02-.06a21.03 21.03 0 001.087-.1c.208-.026.428-.071.64-.037.378.06.71.248.901.59.143.257.184.555.214.844.032.307.049.617.064.927.037.857.043 1.714.055 2.571.01.962.042 1.924-.01 2.887a13.727 13.727 0 01-.2 1.817c-.114.549-.275 1.062-.6 1.53-.154.219-.336.421-.555.579a2.003 2.003 0 01-.9.343c-.298.045-.605.052-.906.07-.381.02-.764.038-1.145.053-.882.037-1.765.078-2.648.08h-.04c-.963 0-1.943-.046-2.849-.408zm3.156-2.095c.471.002.942-.001 1.413-.01.797-.019 1.598-.033 2.394-.087.085-.007.17-.013.254-.023l.023-.03.037-.068a8.23 8.23 0 00.09-.228c.11-.343.197-.69.271-1.042.066-.378.11-.757.138-1.14.04-.924.061-1.85.06-2.775a39.637 39.637 0 00-.037-1.85 5.31 5.31 0 01-.509.13c-.746.157-1.514.188-2.274.206-.48.01-.963.01-1.444.008-.217 0-.433 0-.65.002-.713.002-1.43.047-2.143.015a2.038 2.038 0 01-.064-.004c.014.07.026.14.036.211.069.466.051.956.041 1.426-.01.474-.028.949-.068 1.423-.035.407-.079.814-.107 1.222-.024.5-.024 1-.015 1.501.006.318.005.638.016.956.034.009.069.017.103.024.323.053.647.092.973.117.375.017.752.016 1.127.016a15.327 15.327 0 01.335 0zM252.472 168.994c-.787-.025-1.576-.041-2.363-.074-1.777-.072-3.551-.209-5.326-.32-.695-.036-1.39-.051-2.086-.066-.465-.011-.946-.009-1.403-.097-.353-.068-.753-.164-1.056-.38a.997.997 0 01-.466-.499c-.12-.29-.085-.596.059-.868l.02-.039c.09-.209.229-.39.425-.527.266-.186.553-.297.867-.376.55-.14 1.14-.17 1.705-.197.977-.048 1.953 0 2.929.058l-.203-.01c.894.052 1.789.109 2.683.163l-.018-.002c1.158.07 2.318.118 3.476.178.425.022.85.042 1.275.062.202.01.404.023.605.037.315.022.6.102.88.25.444.23.718.757.722 1.245.004.57-.351 1.152-.896 1.357-.298.111-.612.141-.93.141-.3 0-.604-.026-.9-.036zM247.768 173.811c-.93-.032-1.861-.07-2.791-.12a25.528 25.528 0 01-1.72-.126c-.51-.06-1.037-.128-1.53-.283-.62-.194-1.254-.466-1.54-1.091-.169-.366-.046-.777.211-1.062.422-.465 1.137-.512 1.722-.546.46-.025.93.01 1.39.028 1.026.04 2.053.063 3.08.1 1.7.064 3.403.114 5.105.078.258-.005.528-.032.783.01.672.113 1.217.605 1.313 1.296.103.73-.372 1.492-1.1 1.671-.351.087-.715.082-1.074.09a78.038 78.038 0 01-3.85-.044z"/><path d="M240.014 179.036a152.93 152.93 0 01-4.217-.124c-1.41-.058-2.82-.106-4.228-.193a205.82 205.82 0 01-4.015-.289c-.602-.049-1.204-.097-1.805-.157-.438-.044-.89-.078-1.298-.254a2.977 2.977 0 01-.922-.63 3.92 3.92 0 01-.475-.6 4.6 4.6 0 01-.434-.791c-.187-.45-.272-.939-.355-1.416-.163-.94-.258-1.887-.342-2.836a1.027 1.027 0 01.918-1.107 1.028 1.028 0 011.107.918c.033.353.075.705.128 1.056.069.416.143.831.218 1.247.07.389.128.782.231 1.164.03.087.063.174.097.26.016.033.032.065.05.097.071.109.148.215.226.32.057.068.116.135.177.2l.056.048.118.074.05.025.03.01c.154.03.31.05.466.066 1.224.126 2.452.214 3.678.303 1.373.102 2.747.186 4.123.248 1.41.062 2.82.12 4.229.165 1.41.043 2.82.06 4.23.068 2.076.013 4.155.007 6.23-.044l.12-.003.064-.001.142-.004.059-.002c1.475-.043 2.945-.144 4.404-.362.593-.1 1.18-.218 1.761-.373.317-.098.627-.207.935-.333.13-.06.259-.125.386-.195l.124-.088a7.39 7.39 0 00.145-.136 4.53 4.53 0 00.1-.114 3.04 3.04 0 00.052-.078l.005-.012a4.02 4.02 0 00.05-.156c.012-.056.021-.11.03-.167.027-.398.013-.802.008-1.2-.004-.41-.01-.82-.015-1.228-.01-.877-.02-1.753-.04-2.63a72.93 72.93 0 00-.095-2.38 28.011 28.011 0 00-.24-2.366 9.89 9.89 0 00-.218-.992 5.813 5.813 0 00-.151-.426 5.303 5.303 0 00-.142-.275 2.812 2.812 0 00-.073-.107 4.479 4.479 0 00-.174-.192 2.145 2.145 0 00-.06-.052 3.667 3.667 0 00-.473-.262 6.608 6.608 0 00-.516-.158 3.941 3.941 0 00-.356-.067c-.487-.045-.977-.044-1.466-.044h-.326l-1.852-.011a459.585 459.585 0 00-3.934-.005c-2.68.003-5.365.015-8.04-.17-1.334-.092-2.667-.21-4.002-.304-1.377-.099-2.754-.215-4.134-.261-.551-.018-1.101-.023-1.652-.012-.427.014-.852.037-1.277.08-.202.02-.402.05-.603.08h-.003c-.152.035-.31.052-.46.083a8.217 8.217 0 00-.541.127 8.46 8.46 0 00-.78.282 6 6 0 00-.463.244 4.34 4.34 0 00-.19.126 2.128 2.128 0 00-.023.021l-.075.09a2.852 2.852 0 00-.085.131 2.186 2.186 0 00-.038.128c-.108.463-.186.934-.24 1.405-.068.656-.124 1.313-.227 1.964a6.72 6.72 0 01-.236 1.053c-.051.156-.12.317-.23.442-.169.193-.42.271-.66.166-.353-.155-.492-.592-.592-.93a4.684 4.684 0 01-.17-1.116c-.03-.666.014-1.328.078-1.99.048-.49.11-.979.222-1.46.075-.32.176-.617.356-.898.197-.307.437-.585.741-.79a6.762 6.762 0 011.734-.839c.668-.216 1.36-.341 2.057-.429 1.38-.174 2.787-.138 4.174-.07 1.368.065 2.734.18 4.101.278 1.35.096 2.696.231 4.047.3 2.676.138 5.352.127 8.03.122 1.3-.001 2.598.004 3.898.013.617.003 1.235.005 1.852.01.304.002.607 0 .909.023.18.014.362.033.542.057.203.026.406.086.605.137.33.086.655.199.959.357.156.084.311.173.462.266.201.128.37.282.536.45.565.572.859 1.318 1.068 2.08.18.654.27 1.337.347 2.01.07.625.11 1.255.143 1.885.069 1.339.091 2.68.109 4.02.009.591.016 1.18.022 1.772.005.338.01.677.007 1.015-.002.343 0 .692-.08 1.027a3.522 3.522 0 01-.181.581 2.62 2.62 0 01-.51.771 4.046 4.046 0 01-.454.425 4.17 4.17 0 01-.516.338c-.32.185-.68.32-1.027.444-.355.127-.717.232-1.083.322-1.358.335-2.762.499-4.155.598a48.979 48.979 0 01-2.354.103h-.032.033c-1.407.036-2.815.045-4.223.05l-1.23.003c-.997 0-1.994-.006-2.991-.019z"/></g><path d="M179.421 101.92a82.404 82.404 0 01-3.803-.113 7.157 7.157 0 01-1.153-.146 3.008 3.008 0 01-.544-.17 1.94 1.94 0 01-.326-.188.704.704 0 01-.365-.443.726.726 0 01.165-.675c.11-.165.233-.312.394-.439a3.02 3.02 0 01.945-.49c.591-.19 1.205-.292 1.823-.354 1.324-.131 2.654-.176 3.983-.213 2.516-.068 5.035-.066 7.553-.093 5.003-.057 10.003-.2 15.004-.344.99-.029 1.978-.063 2.968-.094a519.565 519.565 0 012.115-.058l.326-.006c.245-.004.48.029.72.08.707.152 1.21.869 1.216 1.57.006.831-.61 1.5-1.413 1.636-.316.054-.645.04-.966.049a158.062 158.062 0 00-2.46.07c-1.185.038-2.368.074-3.552.107-2.445.07-4.891.148-7.337.204-3.707.082-7.417.133-11.126.133-1.389 0-2.778-.007-4.167-.022zM208.187 113.17c-2.95-.024-5.9-.126-8.849-.165-2.997-.04-5.994-.05-8.991-.096-2.562-.041-5.125-.082-7.687-.16-2.547-.078-5.096-.163-7.638-.355-.16-.006-.318-.01-.477-.01l-.105.018.04-.011c-.685.114-1.38-.314-1.483-1.053a1.244 1.244 0 011.283-1.423l-.022-.002.159.007c.65-.066 1.296-.177 1.945-.255a29.279 29.279 0 012.363-.165c1.499-.056 3-.028 4.5-.01 3.016.037 6.032.09 9.05.122 2.696.028 5.391.043 8.087.083 2.6.038 5.2.113 7.8.151.903.014 1.667.73 1.674 1.65.007.889-.736 1.674-1.635 1.674h-.014z" fill="#252C30"/><path d="M145.705 84.754h.061c-1.363.038-2.724.087-4.085.17-1.337.08-2.677.181-4.002.379-.559.098-1.11.211-1.659.356-.395.123-.783.26-1.166.42-.274.127-.541.263-.805.411-.234.152-.46.311-.683.478a8.828 8.828 0 00-.46.417c-.197.21-.387.426-.57.649-.102.143-.2.289-.294.439-.074.15-.142.301-.206.455-.089.253-.167.507-.237.765-.11.514-.184 1.032-.245 1.553a42.091 42.091 0 00-.168 3.11c-.026 1.072-.04 2.147-.054 3.221-.029 2.168-.037 4.336-.053 6.504-.03 4.045-.195 8.089-.11 12.134l.002.081v-.047h0c.05 1.691.138 3.383.394 5.058.122.697.271 1.39.46 2.072.108.344.228.683.367 1.015.054.11.11.216.168.322.038.057.077.113.117.168.133.158.273.31.418.458.17.155.347.3.53.441.185.134.376.261.574.38a6.09 6.09 0 00.431.205l.057.02c.33.127.668.227 1.01.316.952.23 1.924.38 2.897.49 1.874.197 3.76.333 5.644.4 2.195.076 4.39.04 6.585.02 4.163-.04 8.327.009 12.49.024 4.165.016 8.328-.084 12.49-.107 3.923-.022 7.843-.062 11.766-.07 4.1-.009 8.204.05 12.3.172 2.037.06 4.071.134 6.106.192 1.014.03 2.026.054 3.038.081.973.026 1.943.068 2.91.18.639.076 1.277.158 1.9.324.27.073.545.178.775.34.443.315.679.82.53 1.357-.163.585-.79.861-1.328.982-.49.111-.996.131-1.498.131l-.25-.001c-.9-.008-1.802-.038-2.704-.042a251.229 251.229 0 01-6.31-.126 578.867 578.867 0 00-11.781-.253c-4.026-.042-8.053-.01-12.078.025-1.974.018-3.947.026-5.92.052-2.083.027-4.164.058-6.245.074-2.534.02-5.066.004-7.598-.012-1.767-.01-3.534-.022-5.3-.02-2.087.001-4.175.038-6.262.046a88.618 88.618 0 01-6.435-.198c-1.929-.133-3.87-.28-5.769-.668-1.007-.204-2.058-.473-2.962-.975-1.049-.584-1.994-1.355-2.72-2.313-.354-.466-.61-1.012-.815-1.557a13.635 13.635 0 01-.486-1.575 25.323 25.323 0 01-.573-3.274c-.24-2.205-.271-4.437-.281-6.652-.008-2.177.068-4.355.106-6.53.036-2.175.046-4.349.062-6.523.016-2.134.03-4.268.081-6.402.028-1.086.064-2.17.178-3.25.06-.58.131-1.16.242-1.734.12-.612.308-1.203.538-1.783a6.392 6.392 0 01.977-1.64c.376-.465.783-.927 1.245-1.308a11.806 11.806 0 011.626-1.13c.47-.271.985-.48 1.49-.676 1.1-.429 2.272-.637 3.433-.817 1.074-.167 2.168-.236 3.252-.31 2.275-.155 4.56-.226 6.84-.24 2.2-.013 4.399.051 6.598.073 4.54.047 9.08-.013 13.621-.033 4.523-.02 9.044.046 13.566.153 2.317.056 4.634.124 6.952.176 2.263.053 4.528.079 6.792.1 4.398.043 8.796.033 13.196.043 1.047.001 2.095.002 3.142.005.336 0 .673-.003 1.012-.004.66-.005 1.32-.01 1.98.01.818.027 1.508.693 1.582 1.504.08.865-.595 1.762-1.496 1.803-1.055.046-2.119.01-3.176.01l-3.178-.007c-2.168-.004-4.335-.013-6.503-.013-4.494 0-8.99-.024-13.485-.128-4.53-.106-9.06-.244-13.589-.302-4.616-.059-9.231-.018-13.846.019-2.234.017-4.47.009-6.704-.014-2.2-.023-4.398-.085-6.597-.073a125.198 125.198 0 00-1.662.02l-.111.003h-.01 0l-.039.001h-.023zm8.285 5.524c1.16.03 2.32.057 3.476.137 1.061.073 2.122.138 3.18.259.544.062 1.086.145 1.624.256.471.096.928.27 1.372.453.79.327 1.625.722 2.16 1.413.4.513.652 1.135.848 1.749.187.585.292 1.198.384 1.802.176 1.167.216 2.35.24 3.527.057 2.763-.103 5.53-.271 8.29l-.072 1.164-.073 1.466c-.063 1.485-.1 2.971-.169 4.456-.03.645-.07 1.291-.143 1.932-.025.218-.06.433-.1.649-.057.324-.106.657-.23.965-.383.944-1.398 1.302-2.304 1.535-.556.142-1.123.237-1.69.32-1.19.176-2.397.272-3.596.363-2.36.177-4.722.216-7.087.272-.732.016-1.463.028-2.194.028-.421 0-.842-.004-1.264-.013a89.877 89.877 0 01-3.522-.15c-2.05-.127-4.125-.257-6.13-.72a6.054 6.054 0 01-1.135-.377 2.742 2.742 0 01-1.027-.787c-.386-.473-.565-1.13-.538-1.73.016-.358.107-.69.33-.976.113-.145.25-.269.406-.366a.688.688 0 01-.004-.063 5.223 5.223 0 01-.561-1.3c-.157-.55-.232-1.124-.305-1.69-.16-1.257-.161-2.53-.16-3.796.002-1.184.04-2.368.079-3.552.035-1.15.09-2.298.179-3.447.082-1.091.173-2.182.27-3.272.098-1.072.263-2.133.429-3.197.158-1.02.367-2.097 1.025-2.93.738-.931 1.952-1.349 3.075-1.593 2.295-.498 4.635-.747 6.975-.918l-.215.016c1.178-.087 2.359-.167 3.54-.186a76.3 76.3 0 013.198.011zm-1.801 3.303c-.885 0-1.77.003-2.656.045-.56.028-1.119.062-1.679.099l-.695.048h0a78.083 78.083 0 00-3.934.384c-1.163.15-2.332.284-3.484.498-.06.014-.121.03-.181.046a6.168 6.168 0 00-.163.402c-.035.11-.066.22-.092.333-.09.527-.147 1.06-.183 1.596-.052.99-.068 1.982-.107 2.973a185.043 185.043 0 01-.159 3.354 373.495 373.495 0 01-.48 7.177 352.6 352.6 0 01-.232 2.936c-.038.458-.08.916-.141 1.374-.045.34-.118.675-.198 1.008a.649.649 0 01.038.204c.39.151.718.458.904.861l.079.173.02.008c.285.087.576.153.868.213 1.494.28 3.02.398 4.538.494l.707.043.919.049a70.326 70.326 0 005.599.062c2.205-.052 4.408-.089 6.61-.235 1.535-.116 3.083-.233 4.597-.523.173-.039.346-.08.518-.125.07-.472.112-.947.143-1.423.065-1.12.083-2.245.125-3.367.034-.93.08-1.86.131-2.79l.068-1.173.013-.221-.005.06-.002.05.003-.052v.002l.004-.06h0l-.003.04.052-.857c.183-3.115.344-6.245.15-9.36a19.901 19.901 0 00-.266-2 9.12 9.12 0 00-.181-.685 6.634 6.634 0 00-.185-.446 4.001 4.001 0 00-.042-.076 3.431 3.431 0 00-.055-.042 3.832 3.832 0 00-.22-.123 9.348 9.348 0 00-.82-.346 5.39 5.39 0 00-.425-.116c-.739-.127-1.492-.166-2.24-.22-.813-.06-1.626-.117-2.44-.168a82.344 82.344 0 00-4.818-.124zm24.59 14.165c1.74.019 3.48.047 5.219.077 3.086.055 6.174.09 9.26.077 3.364-.016 6.725-.093 10.088-.035 2.11.037 4.222.092 6.328.207.528.029 1.16.004 1.674.16 1.135.342 1.961 1.335 1.97 2.542.009 1.282-.983 2.512-2.288 2.65-.13.014-.26.02-.391.02-.305 0-.612-.03-.916-.052-5.353-.303-10.714-.205-16.073-.178a331.56 331.56 0 01-7.432-.053c-2.662-.046-5.331-.089-7.988-.248l-.343-.02a2.494 2.494 0 01-.067-.005c-.223-.008-.448-.028-.674-.045a17.18 17.18 0 01-1.053-.102c-.4-.052-.826-.11-1.23-.224a2.346 2.346 0 01-.935-.305 2.355 2.355 0 01-1.155-1.995 2.353 2.353 0 011.166-2.036c.38-.22.79-.317 1.196-.306.435-.083.882-.107 1.344-.124.766-.028 1.535-.013 2.3-.005zm15.123-10.048c3.193.078 6.383.108 9.576.053 2.181-.04 4.361-.08 6.541-.076l1.278.004c1.448.005 2.67 1.179 2.681 2.64.011 1.435-1.19 2.685-2.639 2.68-2.07-.009-4.14.018-6.211.047-1.844.024-3.688.05-5.532.05-.816 0-1.631-.006-2.447-.018-3.309-.049-6.614-.208-9.922-.3-1.74-.048-3.481-.082-5.222-.07-1.576.013-3.152.07-4.728-.001-.886-.04-1.883-.103-2.608-.676-.646-.51-.908-1.423-.574-2.187.375-.859 1.197-1.332 2.056-1.602.774-.243 1.591-.361 2.394-.457 1.719-.208 3.453-.28 5.18-.31 3.394-.058 6.786.14 10.177.223zm-10.791-70.825c1.865.004 3.73.016 5.596.016 1.98 0 3.957-.023 5.936-.007 1.98.016 3.96.07 5.94.114 1.879.043 3.76.095 5.637.17 1.789.072 3.579.144 5.365.276a24.38 24.38 0 01.815.073l.124.013h.01a1108.591 1108.591 0 01.609.072c.49.061.98.137 1.463.232 1.78.35 3.569.963 4.958 2.17.458.398.82.854 1.131 1.374.255.427.464.877.656 1.336.35.84.611 1.72.8 2.609.411 1.935.422 3.934.398 5.903-.026 2.095-.12 4.186-.205 6.279-.173 4.234-.335 8.47-.433 12.706-.046 2.013-.059 4.026-.137 6.037-.04.997-.095 1.99-.189 2.983-.104 1.126-.298 2.274-.807 3.298a8.618 8.618 0 01-1.045 1.627c-.332.408-.753.76-1.16 1.09-.887.723-1.916 1.218-2.998 1.574-1.057.349-2.145.573-3.241.756a27.98 27.98 0 01-3.12.335c-1.638.088-3.28.121-4.921.121-2.672 0-5.346-.087-8.015-.167-4.21-.126-8.417-.344-12.623-.59-2.06-.121-4.117-.246-6.18-.31-2.142-.066-4.285-.055-6.427-.053-4.255.006-8.508-.04-12.762-.066a1416.43 1416.43 0 01-12.698-.142c-2.074-.033-4.15-.061-6.223-.15a40.88 40.88 0 01-1.471-.083c-.553-.044-1.12-.083-1.664-.2-1.213-.264-2.41-.784-3.387-1.559a11.646 11.646 0 01-1.984-2.05c-.577-.753-.996-1.648-1.358-2.52-.345-.839.163-1.83.987-2.134a1.672 1.672 0 011.29.06c.4.19.677.522.844.925l.091.218c.175.379.367.748.574 1.112.113.176.232.346.359.514.225.27.463.53.709.785.208.195.425.381.648.561.115.079.232.155.35.229.277.145.558.276.844.399.157.055.312.106.47.154.309.062.619.108.932.146 2.021.187 4.063.2 6.093.237 2.147.039 4.295.07 6.442.093 2.096.024 4.192.053 6.287.07 2.11.017 4.22.02 6.328.037 2.134.016 4.266.04 6.4.043.71.002 1.42 0 2.132 0 1.42-.002 2.841-.004 4.264.013 4.154.047 8.299.365 12.447.582 4.212.221 8.424.369 12.64.466 2.127.051 4.25.067 6.378.024 1.538-.045 3.074-.119 4.598-.344.82-.14 1.631-.306 2.438-.514.474-.146.937-.31 1.394-.505.155-.076.308-.154.461-.236.18-.115.353-.235.524-.363.23-.19.45-.389.666-.595.08-.088.157-.176.233-.267.108-.157.211-.317.311-.48.086-.163.166-.327.241-.494.077-.208.144-.417.202-.631.07-.318.126-.635.167-.957.19-1.938.243-3.887.28-5.833.038-2.037.075-4.073.134-6.108.12-4.221.302-8.438.473-12.656.075-1.898.134-3.8.09-5.699a23.73 23.73 0 00-.224-2.46 16.3 16.3 0 00-.346-1.506 14.157 14.157 0 00-.468-1.275 9.698 9.698 0 00-.402-.778 5.676 5.676 0 00-.136-.199 3.76 3.76 0 00-.134-.149c-.09-.08-.182-.159-.278-.234a8.612 8.612 0 00-.709-.456 7.977 7.977 0 00-.635-.308 13.556 13.556 0 00-1.295-.397c-.794-.187-1.601-.31-2.412-.403-1.656-.168-3.323-.22-4.984-.292-1.89-.083-3.782-.142-5.675-.191a485.84 485.84 0 00-5.963-.13c-1.962-.027-3.922-.015-5.884-.005-1.972.008-3.943 0-5.915-.01-1.894-.008-3.788-.018-5.68-.01-3.831.015-7.663 0-11.493.093-.046 0-.091.002-.137.003-.147.02-.297.024-.445.011l-.142.005h0l-.675.016-1.402.038-.717.017-.195.006c-.227.022-.462.011-.686.017-.478.013-.955.025-1.433.04-1.019.032-2.037.07-3.054.123-2 .104-3.997.262-5.996.377-1.389.08-2.778.146-4.169.193l-1.38.04h.006-.024 0l-.197.005.127-.002a36.549 36.549 0 00-4.437.398c-.816.134-1.632.276-2.43.495-.509.163-1.004.353-1.495.562-.424.194-.84.4-1.245.632-.235.148-.465.302-.688.47a10.18 10.18 0 00-.614.556c-.189.207-.365.422-.537.643a7.15 7.15 0 00-.17.254 10.08 10.08 0 00-.363.77c-.06.169-.117.34-.166.512-.149.643-.25 1.286-.325 1.94-.196 1.867-.272 3.742-.316 5.616-.043 1.905-.05 3.81-.043 5.714.005 1.936-.006 3.873-.057 5.809a83.07 83.07 0 01-.125 3.074c-.07 1.104-.176 2.209-.546 3.26-.126.355-.305.711-.624.928-.305.207-.675.172-.961-.046-.423-.321-.593-.927-.714-1.418a9.45 9.45 0 01-.244-1.654 50.77 50.77 0 01-.072-3.21c.007-1.987.04-3.975.031-5.961-.009-1.908-.016-3.816.017-5.723.03-1.907.09-3.814.252-5.715.09-1.038.198-2.08.43-3.096a8.666 8.666 0 01.583-1.74c.132-.28.264-.568.43-.83.15-.24.32-.466.49-.692a9.123 9.123 0 012.2-2.043c.865-.579 1.819-1.01 2.778-1.401.77-.314 1.579-.53 2.392-.696.809-.166 1.626-.3 2.444-.412 1.553-.214 3.116-.286 4.68-.328h-.008l1.508-.049c1.537-.06 3.075-.148 4.61-.25 1.959-.128 3.916-.272 5.878-.35a247.648 247.648 0 014.124-.127l-.094.002h.051l.05-.002.083-.002h-.037 0c.9-.022 1.8-.046 2.701-.07.231-.007.472-.03.707-.018l.174-.004.791-.02c.501-.011 1.003-.024 1.504-.033.921-.018 1.841-.023 2.761-.026 3.894-.01 7.789-.024 11.683-.017zM149.057 38.24c2.2-.01 4.402.025 6.602.052 2.122.024 4.248.028 6.366.158 1.092.067 2.177.27 3.096.899 1.035.708 1.725 1.818 2.123 2.993.356 1.044.598 2.136.69 3.238.095 1.16.127 2.317.118 3.48-.011 1.124-.068 2.246-.124 3.366-.053 1.1-.114 2.2-.184 3.3a332.371 332.371 0 01-.478 6.257c-.075.895-.145 1.792-.228 2.687l-.049.512c-.073.784-.679 1.4-1.309 1.803a7.745 7.745 0 01-1.749.836c-1.642.54-3.372.78-5.092.924l-.436.033-.902.063c-.98.062-1.962.108-2.945.125-.756.014-1.512.01-2.268.008-.35-.001-.698-.003-1.046-.001-1.609.002-3.218.032-4.827.032a93.26 93.26 0 01-1.821-.016 73.438 73.438 0 01-4.05-.176c-.458-.034-.922-.062-1.372-.148-.368-.069-.695-.203-.963-.474a1.654 1.654 0 01-.475-1.142c-.003-.44.174-.871.486-1.18.289-.286.73-.5 1.143-.477.735.042 1.467.124 2.201.174 2.174.119 4.348.125 6.525.103 1.13-.012 2.262-.02 3.393-.02h.976c.749.003 1.498.004 2.247-.008a69.467 69.467 0 003.515-.162 44.81 44.81 0 001.835-.18c.65-.08 1.295-.186 1.938-.313.343-.075.68-.16 1.016-.26.13-.05.257-.103.385-.16.114-.063.227-.127.34-.194.126-1.435.242-2.87.356-4.307.142-1.792.286-3.583.395-5.377l-.007.11.048-.788c.16-2.697.317-5.407.15-8.105a20.975 20.975 0 00-.3-2.09c-.093-.415-.2-.822-.33-1.227a11.342 11.342 0 00-.274-.654c-.061-.11-.123-.22-.187-.328a5.515 5.515 0 00-.147-.195 5.798 5.798 0 00-.146-.146c-.05-.04-.1-.079-.151-.117a6.197 6.197 0 00-.186-.11l-.136-.06h0a4.45 4.45 0 00-.251-.064 9.295 9.295 0 00-.756-.083c-.993-.055-1.985-.057-2.98-.061a203.945 203.945 0 00-3.152.003c-2.203.023-4.403.088-6.603.192-1.111.053-2.221.111-3.333.187-.79.06-1.58.127-2.37.214s-1.586.164-2.368.302a7.237 7.237 0 00-.337.09c-.07.027-.138.054-.207.084-.12.062-.238.127-.355.195a5.492 5.492 0 00-.256.192l-.067.064a3.912 3.912 0 00-.093.118c-.033.055-.065.11-.096.166a5.38 5.38 0 00-.133.315c-.084.27-.154.544-.213.821-.04.244-.072.487-.093.734-.039.926.023 1.856.026 2.783.003 1.1-.02 2.2-.054 3.3-.063 2.032-.147 4.06-.224 6.091a106.086 106.086 0 01-.214 4.098 16.851 16.851 0 01-.255 2c-.122.62-.284 1.313-.774 1.748l.02-.017-.063.056a1.035 1.035 0 01-.086.068.53.53 0 01-.597.05c-.41-.182-.647-.634-.795-1.032-.2-.528-.261-1.11-.328-1.669-.129-1.066-.158-2.146-.172-3.22-.027-2.139.057-4.278.12-6.416.03-1.026.066-2.05.082-3.075.019-1.08.003-2.162.061-3.24.058-1.066.2-2.112.51-3.135.176-.577.364-1.132.674-1.653.334-.556.804-1.002 1.294-1.418.564-.477 1.221-.858 1.938-1.05a11.532 11.532 0 012.096-.337c1.103-.078 2.207-.093 3.311-.11 1.11-.018 2.22-.023 3.33-.029zm43.364 17.37c3.162.01 6.325.073 9.486.129 2.047.035 4.094.072 6.14.138.721.023 1.396.267 1.91.787.485.491.765 1.163.77 1.851.011 1.382-1.149 2.683-2.564 2.683l-.074-.001c-2.234-.072-4.47-.11-6.704-.148-3.403-.058-6.806-.118-10.21-.126-3.345-.008-6.69-.003-10.035-.01a79.903 79.903 0 01-5.033-.153c-1.84-.119-4.865-.38-4.696-2.902.053-.793.663-1.391 1.334-1.718.402-.195.875-.272 1.314-.33.878-.116 1.77-.144 2.654-.15l5.058-.032h0c3.55-.03 7.1-.03 10.65-.018zm7.39-10.418c1.218 0 2.438.006 3.656.017 1.176.01 2.367-.015 3.54.08 1.304.104 2.313 1.342 2.321 2.61.01 1.47-1.187 2.632-2.631 2.674-.63.019-1.266-.02-1.897-.03-.786-.012-1.572-.019-2.36-.023-1.605-.01-3.212-.01-4.817-.004-3.423.01-6.845.013-10.268.053-1.498.018-2.997.026-4.496.026-1.106 0-2.212-.005-3.318-.013-1.326-.01-2.655-.015-3.98-.093-.738-.044-1.465-.091-2.19-.239-.79-.161-1.552-.458-2.066-1.105-.52-.653-.511-1.65.009-2.298.665-.834 1.752-1.07 2.755-1.228.853-.134 1.73-.168 2.592-.198 1.716-.06 3.432-.093 5.148-.105 3.468-.026 6.934-.093 10.4-.106 2.535-.008 5.068-.018 7.602-.018z" stroke="#FFF" fill="#0062C3"/><path d="M36.092 95.48a1.074 1.074 0 01-.52-1.054c.03-.232.137-.443.294-.606.11-.208.268-.392.453-.528.476-.35 1.013-.501 1.584-.619 1.006-.206 2.05-.302 3.073-.38 1.094-.082 2.193-.109 3.287-.143a287.9 287.9 0 013.241-.084c.897-.017 1.655.745 1.662 1.636.006.917-.739 1.628-1.636 1.66-1.954.073-3.912.08-5.867.105-.944.014-1.887.07-2.832.087-.444.007-.888-.002-1.333-.006a5.728 5.728 0 01-.45-.02 1.027 1.027 0 01-.957-.05zM54.54 109.221c-3.556-.007-7.11.005-10.664-.168-1.062-.053-2.13-.099-3.187-.226a9.586 9.586 0 01-1.488-.288 4.506 4.506 0 01-.9-.352c-.615-.147-1.123-.67-1.288-1.272-.184-.668.049-1.504.642-1.904l.02-.013c.55-.615 1.416-.934 2.193-1.152.885-.25 1.811-.369 2.727-.444 1.812-.152 3.628-.208 5.445-.257 3.503-.096 7.006-.153 10.511-.173 7.017-.04 14.032-.175 21.046-.344 6.886-.165 13.768-.504 20.652-.717 1.029-.031 2.057-.062 3.084-.088.495-.012.988-.02 1.481-.03.612-.012 1.225.052 1.835.097.605.029 1.21.046 1.815.059.813.019 1.581.306 2.16.892.547.552.866 1.314.871 2.092.012 1.616-1.345 3.048-2.983 3.032a31.806 31.806 0 00-2.136.038c-.475.042-.948.089-1.425.104-.4.014-.8.016-1.2.026-.803.018-1.605.04-2.408.064-1.7.051-3.4.105-5.099.166-3.478.124-6.956.262-10.434.386-3.476.124-6.951.217-10.428.284-3.546.066-7.092.154-10.639.187-1.301.012-2.603.016-3.904.016-2.1 0-4.199-.01-6.298-.015zM94.287 121.569c-1.785-.004-3.57-.01-5.355-.022a2114.36 2114.36 0 01-10.97-.103c-7.502-.086-15.003-.196-22.505-.264-2.883-.026-5.767-.032-8.65-.077-.041 0-.083 0-.124-.002-1.45-.023-2.905-.059-4.349-.196-1.122-.107-2.327-.258-3.378-.719a1.601 1.601 0 01-.583-.042 1.58 1.58 0 01-1.148-1.299 1.58 1.58 0 01.602-1.463c.239-.182.541-.294.849-.319.988-.643 2.184-.976 3.325-1.204a36.247 36.247 0 014.43-.57c.149-.016.297-.024.45-.035l.383-.029h.016l-.25.018c3.75-.275 7.527-.3 11.287-.289 3.692.012 7.385.045 11.078.081 7.375.076 14.751.183 22.128.21 1.726.004 3.452.013 5.178.011.885 0 1.771.025 2.656.02.753-.003 1.506-.039 2.257-.09a57.065 57.065 0 001.58-.152c.82-.088 1.633.1 2.291.612a3.08 3.08 0 011.148 1.985c.225 1.607-.949 3.26-2.597 3.44-1.312.143-2.628.243-3.943.34l-.401.03c-.937.068-1.868.13-2.806.132h-.478c-.707 0-1.414-.002-2.121-.004z" fill="#FFF"/><path d="M236.677 98.875a196.74 196.74 0 00-5.584-.246c-1.082-.03-2.163-.074-3.246-.1-1.134-.03-2.27-.05-3.404-.118-.279-.017-.569-.026-.84-.105-.544-.158-1.065-.605-1.038-1.226.065-1.545 1.929-1.679 3.098-1.756 1.074-.07 2.16-.053 3.235-.034 2.111.038 4.222.094 6.332.2l1.421.078c.452.026.862.161 1.187.49.301.304.476.722.48 1.15.003.442-.176.877-.49 1.188-.276.273-.692.48-1.09.48h-.06zM253.896 98.297c.06.013.12.023.178.036-.132-.023-.266-.027-.396-.068a1.386 1.386 0 01-.615-.362 1.287 1.287 0 01-.348-.832c-.033-.448.291-.935.681-1.137.112-.056.219-.1.331-.149a3.497 3.497 0 01.745-.217 14.062 14.062 0 01.029-.006c.527-.101 1.056-.134 1.593-.17.385-.027.794.169 1.058.435.269.271.424.644.427 1.026a1.48 1.48 0 01-.436 1.057c-.283.28-.636.4-1.024.427-.349.024-.696.054-1.042.062a5.431 5.431 0 01-1.18-.102z" fill="#0062C3"/><path d="M206.856 169.34c-1.906-.068-3.812-.136-5.72-.166a176.178 176.178 0 00-5.863.01c-.896.016-1.79.047-2.684.081-.501.02-1.001.037-1.503.042-.44.007-.878-.012-1.317-.026a13.951 13.951 0 01-1.66-.144c-.491-.075-.976-.193-1.468-.246l.149.014c-.41-.038-.8-.095-1.19-.236-.43-.154-.887-.49-.81-1.008.065-.436.471-.684.859-.797a4.585 4.585 0 011.09-.161c.145-.01.29-.028.434-.052.37-.07.742-.144 1.113-.216.474-.094.945-.152 1.426-.208.954-.11 1.907-.199 2.865-.257 1.945-.118 3.9-.14 5.848-.142a192.39 192.39 0 015.799.101c.914.026 1.829.056 2.743.088.938.034 1.877.036 2.813.09.95.056 1.88.267 2.824.37.263.021.526.037.79.054.344.022.684.07 1.026.107.286.024.573.04.86.062.268.02.514.095.725.269.236.195.391.48.424.785.068.614-.402 1.271-1.046 1.307-.114.006-.228.012-.341.016l.021-.001-.536.023.162-.007c-.41.02-.818.069-1.23.081-.303.009-.607.005-.91.013-.976.05-1.942.21-2.92.223l-.297.002c-.825 0-1.652-.042-2.476-.071z" fill="#252C30"/><path d="M248.85 187.825c-1.693-.082-3.382-.185-5.075-.264-1.738-.08-3.478-.137-5.219-.158l.221.001c-1.742-.013-3.485-.013-5.227-.031l.22.003a191.699 191.699 0 01-6.664-.153 71.662 71.662 0 01-3.237-.2c-.6-.054-1.205-.127-1.792-.26a9.182 9.182 0 01-1.75-.59 9.834 9.834 0 01-1.592-.916c-.47-.328-.912-.706-1.355-1.07-.919-.758-1.575-1.762-2.076-2.834-1.003-2.146-1.172-4.555-1.286-6.889a85.105 85.105 0 01-.085-4.953l-.001.22c0-.184.002-.367.004-.55l-.002.221c.018-2.24.106-4.482.182-6.723.074-2.184.184-4.365.27-6.55.089-2.199.154-4.399.176-6.6l-.003.22.004-.413c-.001.073-.001.147-.003.22l.004-.49v.048l.01-1.304a1.632 1.632 0 010-.119l.002-.159.009-.768c-.002.073-.002.146-.003.221.019-2.21-.004-4.42-.023-6.63-.006-.764-.025-1.528-.043-2.291a2.388 2.388 0 01-.094-.263c-.164-.566-.245-1.131-.314-1.715-.12-1.01-.137-2.04-.147-3.057-.01-1.065.02-2.131.045-3.195.024-1.042.038-2.084.047-3.127v.013c.014-2.13.039-4.26.014-6.39-.024-2.213-.096-4.424-.146-6.637a625.15 625.15 0 01-.12-17.65l-.002.221c.016-2.182.07-4.364.322-6.533.125-1.073.264-2.15.5-3.205.244-1.09.678-2.134 1.18-3.127.297-.588.73-1.12 1.18-1.596a7.985 7.985 0 011.47-1.22c1.013-.655 2.183-1 3.36-1.215a29.079 29.079 0 013.228-.402c1.157-.08 2.323-.046 3.481-.03.874.01 1.75.029 2.623.037h-.047c1.904.012 3.807.016 5.708.076 1.679.051 3.356.132 5.035.147l-.22-.002c.464.003.927.01 1.39.015a20.523 20.523 0 00.066 0h.024-.017c2.081.01 4.164-.024 6.245-.037 2.041-.012 4.089-.064 6.13.003.804.025 1.613.094 2.408.201.41.056.821.118 1.222.219.557.14 1.074.327 1.563.632.93.579 1.744 1.327 2.493 2.12a11.84 11.84 0 011.928 2.749c.52 1.019.83 2.153 1.076 3.265.233 1.054.374 2.135.49 3.208.239 2.22.236 4.451.195 6.68-.08 4.258-.267 8.512-.413 12.767-.037 1.039-.064 2.08-.073 3.119l.003-.221c-.018 2.23.01 4.46-.038 6.689-.05 2.156-.082 4.313-.133 6.469-.052 2.173-.134 4.345-.17 6.518-.033 2.133-.05 4.265-.078 6.398-.029 2.165-.053 4.33-.098 6.493-.044 2.179-.096 4.356-.118 6.535l-.028 2.894.003-.22-.006.574v-.015a6.943 6.943 0 01.001-.037c0-.057 0-.113.002-.17l-.002.24V156.32l-.002.182.001-.22-.002.404v-.22c-.013 1.797-.023 3.595-.038 5.391l-.001.108v.073l-.006.602c.001-.073.001-.148.003-.22-.02 2.228-.048 4.458-.087 6.687-.038 2.177-.09 4.355-.248 6.527a68.954 68.954 0 01-.28 3.08c-.063.546-.124 1.097-.263 1.628a10.185 10.185 0 01-.624 1.709c-.51 1.097-1.249 2.093-2.19 2.857-.13.105-.26.202-.394.301a13.93 13.93 0 01-.466.333c-.237.162-.483.305-.731.45-.49.285-.998.534-1.514.767a12.2 12.2 0 01-3.332.953c-1.138.159-2.284.213-3.43.213-1.078 0-2.156-.048-3.23-.1zm5.994-3.374c.437-.062.868-.14 1.297-.244.359-.108.71-.229 1.06-.36.483-.207.95-.436 1.414-.684.307-.181.606-.371.902-.573a13.6 13.6 0 00.072-.054c.184-.138.357-.288.529-.44.104-.108.206-.218.306-.33.167-.22.322-.444.471-.676.122-.222.233-.447.337-.677.097-.237.186-.474.264-.717.062-.245.112-.492.153-.742.13-.956.212-1.919.288-2.88a89.78 89.78 0 00.19-3.131c.093-2.179.117-4.36.149-6.54.017-1.305.032-2.61.044-3.913l-.002.22.005-.514c-.001.073-.001.147-.003.22.002-.183-.008-.37 0-.556-.01-.264.008-.533.011-.79.012-1.574.02-3.148.034-4.721l-.001.22.002-.3v-.04.068l.004-.55v.221c.017-2.19.04-4.379.083-6.569.042-2.14.09-4.281.123-6.423.064-4.327.068-8.654.2-12.98.058-1.926.103-3.853.138-5.78.035-1.917.09-3.833.112-5.75.012-2.117-.018-4.232.035-6.349.052-2.078.15-4.156.221-6.234.106-3.021.218-6.042.252-9.065.004-.941 0-1.884-.046-2.825a41.007 41.007 0 00-.247-2.871 27.663 27.663 0 00-.5-2.739c-.13-.463-.28-.917-.45-1.367-.119-.277-.248-.546-.39-.81a13.007 13.007 0 00-.476-.739c-.276-.357-.57-.7-.876-1.031-.336-.335-.684-.651-1.05-.955a9.004 9.004 0 00-.65-.462 6.933 6.933 0 00-.116-.063 4.259 4.259 0 00-.25-.085 8.383 8.383 0 00-.868-.18c-1.185-.16-2.383-.212-3.579-.223-1.97-.011-3.952.017-5.932.034a355.185 355.185 0 01-6.403.01l.187.001c-1.347-.01-2.692-.055-4.036-.106a160.94 160.94 0 00-4.572-.105l.22.001a1581.38 1581.38 0 01-6.189-.064l-.048-.001h.035a36.604 36.604 0 00-1.868.037c-.61.03-1.218.093-1.824.165-.683.098-1.365.215-2.036.377-.231.072-.458.15-.684.235-.14.062-.277.126-.415.194-.152.09-.3.187-.445.289-.166.131-.328.267-.488.408-.136.137-.267.279-.395.425a8.276 8.276 0 00-.322.446c-.163.294-.305.598-.442.905-.145.35-.276.703-.391 1.064a18.05 18.05 0 00-.39 1.95 46.298 46.298 0 00-.364 3.548 68.929 68.929 0 00-.114 3.627v-.023l-.004.427.002-.221c-.019 4.383 0 8.766.044 13.15.043 4.357.235 8.713.234 13.072v.34c.264.189.075 4.79.053 6.767.012 1.115.061 2.225.17 3.335.056.583.108 1.164.135 1.75.026.54.032 1.08.043 1.623.046 2.17.086 4.337.1 6.506.004 1.072.011 2.142.01 3.213 0 .585-.007 1.17-.014 1.753l-.001.106v.127l-.003.21v.031l-.002.407-.009.996c.002-.073.002-.147.003-.221l-.004.49.001-.22c-.035 4.511-.302 9.014-.45 13.522-.069 2.071-.147 4.143-.176 6.216l.002-.22-.004.478.002-.221-.002.33c-.004 2.453.028 4.918.296 7.359.07.53.16 1.053.282 1.574.104.362.22.718.352 1.072.126.29.263.572.413.85.117.197.238.39.368.578.07.087.14.173.213.258.26.254.538.485.82.713.352.279.71.546 1.086.79.24.136.484.26.734.375.267.103.535.195.808.279.272.06.544.111.818.155 1.658.192 3.329.258 4.995.316 1.78.061 3.562.088 5.342.107l-.22-.001.923.008-.22-.001c2.277.017 4.556.01 6.834.068 2.157.056 4.315.168 6.468.294 1.326.077 2.652.153 3.98.18 1.102.004 2.205-.028 3.302-.154z" fill="#252C30"/></g></svg>