<svg width="115" height="236" xmlns="http://www.w3.org/2000/svg"><g fill="none" fill-rule="evenodd"><g fill="#0062C3"><path d="M53.671 139.447a20.517 20.517 0 01-2.353-.172 35.147 35.147 0 01-2.29-.4 72.147 72.147 0 01-2.283-.494 57.636 57.636 0 01-2.372-.634c-.832-.24-1.66-.5-2.476-.792-.749-.27-1.481-.588-2.201-.927-1.454-.686-2.867-1.457-4.19-2.37a39.745 39.745 0 01-3.05-2.32 16.646 16.646 0 01-1.413-1.335c-.208-.222-.402-.476-.502-.766a.79.79 0 01-.023-.437.474.474 0 01-.305-.182.517.517 0 01.055-.667c.11-.197.27-.364.422-.535.318-.36.645-.712.966-1.072l-.06.07a147.001 147.001 0 014.325-4.78c.809-.848 1.56-1.749 2.364-2.602.832-.882 1.706-1.726 2.54-2.605.566-.596 1.115-1.205 1.67-1.81.505-.547 1.012-1.09 1.506-1.647.755-.865 1.496-1.743 2.273-2.591.74-.807 1.517-1.58 2.294-2.351.721-.717 1.414-1.465 2.143-2.174.754-.731 1.546-1.42 2.335-2.112l-.173.152a55.152 55.152 0 002.337-2.214l-.016-.648c-.05-1.7-.169-3.396-.222-5.094-.11-3.4-.106-6.804.003-10.202.052-1.647.072-3.293.102-4.938.03-1.581.054-3.162.07-4.743.018-1.633.08-3.264.105-4.895.01-.758.012-1.515.06-2.272.044-.71.096-1.432.21-2.137l.014-.09a.827.827 0 01.04-.237c.033-.156.09-.303.22-.409a.421.421 0 01.183-.085.868.868 0 01.364-.113c.352-.032.702-.086 1.055-.11.528-.037 1.07-.019 1.596.01.405.023.81.061 1.214.092.411.03.821.046 1.23.08.84.068 1.667.206 2.5.316.537.069 1.072.145 1.607.245.647.119 1.285.287 1.92.458 1.14.306 2.223.766 3.314 1.211.579.239 1.16.476 1.726.745a21.51 21.51 0 011.582.845c1.03.596 2.064 1.202 3.04 1.884.43.3.846.619 1.265.932.508.38 1.018.752 1.52 1.14.43.335.859.675 1.272 1.03.492.425.95.89 1.388 1.37.37.406.735.81 1.075 1.242.388.494.776.991 1.15 1.497.334.453.628.94.944 1.407.309.457.63.905.937 1.362.453.67.936 1.305 1.301 2.032.376.744.691 1.52 1.046 2.273.385.82.797 1.634 1.124 2.48.162.422.273.856.402 1.288l.069.237c.1.24.201.482.3.725.35.873.67 1.761.973 2.653.307.903.569 1.833.75 2.77.175.911.26 1.831.331 2.755.069.914.109 1.83.14 2.747.031.965.014 1.931-.012 2.896-.024.93-.096 1.86-.194 2.785-.1.948-.218 1.896-.4 2.832a21.316 21.316 0 01-.477 1.949c-.199.676-.46 1.332-.728 1.983l.025-.061-.046.111a147.38 147.38 0 01-1.156 2.712c-.375.858-.742 1.716-1.167 2.55-.428.84-.92 1.64-1.432 2.43a31.227 31.227 0 01-1.56 2.207c-1.074 1.376-2.155 2.77-3.39 4.006a22.463 22.463 0 01-1.774 1.594c-.47.378-.978.707-1.478 1.043a5.1 5.1 0 01-.392.236 1 1 0 01-.37.769c-.597.472-1.233.897-1.868 1.317-.663.44-1.336.866-2.018 1.277-.674.407-1.347.807-2.042 1.174-.711.376-1.444.694-2.185 1.003-.757.315-1.52.602-2.3.856-.718.234-1.438.462-2.163.679-1.613.48-3.249.894-4.918 1.122a74.065 74.065 0 01-1.307.165c-.216.045-.451.05-.667.07-.212.019-.425.039-.639.056-.792.064-1.584.14-2.379.163-.289.008-.578.011-.868.011-.512 0-1.026-.01-1.538-.021z"/><path d="M49.583 68.084a.845.845 0 01-.097.558c.144.155.243.365.296.566.09.339.108.685.126 1.032.03.602.05 1.205.055 1.808.003.602-.014 1.203-.023 1.805-.009.64-.013 1.28-.018 1.92l-.008 2.755-.022 1.377-.002.064-.002.05v.024l-.001.012v.028-.028c-.021.733-.054 1.466-.077 2.2l-.002.08v-.018l-.003.124v.003c-.031 1.105-.05 2.211-.073 3.317-.02 1.125-.063 2.247-.096 3.37-.023.774-.025 1.548-.034 2.322l-.023 1.153v-.004c-.034 1.181-.048 2.365-.083 3.548v-.009.036l-.003.08v-.015c-.014.411-.034.823-.053 1.235a.777.777 0 01-.154.424 1.06 1.06 0 01-.313 1.097c-.518.463-1.035.933-1.537 1.414-.477.472-.938.958-1.405 1.44-.516.538-1.041 1.067-1.554 1.606-.532.56-1.075 1.108-1.605 1.668-.534.563-1.019 1.168-1.539 1.742-.546.605-1.119 1.185-1.68 1.776-.539.568-1.068 1.143-1.6 1.716-1.082 1.165-2.212 2.283-3.309 3.435-1.12 1.174-2.24 2.349-3.362 3.521-.28.295-.564.588-.85.877-.305.307-.626.635-.993.87a3.759 3.759 0 01-.409.231.724.724 0 01-.102.05l-.066.025a.792.792 0 01-.165.056 1.78 1.78 0 01-.414.077.279.279 0 01-.052.123c-.11.147-.23.246-.417.271a.763.763 0 01-.105.007c-.169 0-.329-.054-.48-.13a1.689 1.689 0 01-.412-.304 4.447 4.447 0 01-.376-.4c-.43-.526-.8-1.098-1.163-1.672a26.798 26.798 0 01-1.071-1.858 22.48 22.48 0 01-.845-1.845 28.785 28.785 0 01-2.019-8.14c-.069-.685-.141-1.371-.184-2.058a32.268 32.268 0 01-.062-2.11c.002-.732.012-1.463.035-2.194.022-.646.085-1.29.162-1.93a39.12 39.12 0 01.32-2.174c.118-.663.28-1.32.444-1.974.169-.67.338-1.341.542-2.001.204-.659.434-1.308.674-1.956a32.944 32.944 0 011.623-3.688c.316-.607.67-1.196 1.04-1.772a36.68 36.68 0 011.21-1.787c.406-.56.832-1.105 1.263-1.646.43-.538.864-1.07 1.32-1.585.466-.523.947-1.034 1.444-1.529.5-.497 1.006-.985 1.545-1.437.467-.39.951-.763 1.44-1.125l-.046.034.186-.138a1.596 1.596 0 00-.017.014c1.083-.806 2.23-1.526 3.382-2.23 1.185-.726 2.406-1.383 3.639-2.025 1.144-.596 2.3-1.185 3.495-1.676 1.112-.456 2.237-.875 3.415-1.13.092-.02.184-.038.277-.055.461-.09.915.248.993.702zm-1.377 1.148l.165-.045c-.643.164-1.272.373-1.891.609-.804.32-1.592.686-2.367 1.073-.87.437-1.733.893-2.584 1.363l.106-.059-.199.11-.004.002.06-.033-.081.045-.04.022.019-.01.002-.002.007-.003.003-.002.018-.01-1.006.58c-.678.399-1.35.806-2.031 1.2a34.515 34.515 0 00-2.884 1.856c-.657.491-1.28 1.02-1.878 1.585-1.576 1.536-3.105 3.13-4.487 4.846a35.222 35.222 0 00-2.064 2.925c-.37.632-.698 1.282-1.005 1.947-.513 1.164-.913 2.365-1.285 3.58-.473 1.611-.887 3.243-1.171 4.898a41.929 41.929 0 00-.51 5.118 31.554 31.554 0 00.104 3.559c.171 1.49.485 2.957.833 4.415l-.006-.029.17.68a34.383 34.383 0 001.067 3.483l.092.238a41.055 41.055 0 001.858 3.98l-.055-.097.086.154.058.106-.027-.047c.152.27.306.538.459.807.03-.068.062-.133.096-.196.206-.384.49-.729.779-1.053a99.208 99.208 0 011.65-1.8c1.096-1.174 2.223-2.318 3.337-3.475a617.115 617.115 0 013.36-3.449c1.148-1.173 2.246-2.395 3.453-3.507.253-.234.506-.468.755-.705.535-.528 1.051-1.071 1.583-1.602.536-.536 1.066-1.075 1.598-1.612.485-.49.978-.97 1.462-1.455.343-.343.671-.697 1.017-1.038.263-.26.532-.513.807-.76l.05-.04c0-.024 0-.049.002-.074l.007-.152c.014-.505.03-1.009.047-1.512.03-1.091.043-2.184.02-3.275-.01-.585.002-1.17.002-1.756.002-.61-.002-1.223-.01-1.835a94.438 94.438 0 01.003-3.005c.02-1.067.049-2.133.08-3.198v-.031c.017-.59.025-1.18.039-1.77l.01-.47.006-.167c-.008-.18.01-.363.016-.54.01-.309.025-.617.04-.926.03-.596.071-1.19.107-1.785.045-.738.08-1.475.103-2.213l.003-.08.002-.053.002-.063-.002.031.016-.888c.007-.593.007-1.186.007-1.778 0-.456.004-.91-.003-1.366-.006-.417-.048-.836.024-1.246z"/></g><path d="M95.666 150.966c.966.107 1.908.361 2.759.835.596.333 1.133.815 1.567 1.34.376.453.7.95.933 1.49.503 1.18.524 2.476.53 3.737.007 1.305-.068 2.61-.098 3.914-.031 1.282-.045 2.565-.069 3.847a70.893 70.893 0 00.02 3.972c.054 1.399.149 2.795.228 4.192.033.576.064 1.152.079 1.728.015.664-.02 1.324-.07 1.984a9.7 9.7 0 01-.402 2.057 6.533 6.533 0 01-1.519 2.575 5.5 5.5 0 01-2.64 1.543c-.779.198-1.555.276-2.359.292-.13.003-.258.003-.39.003-.96 0-1.922-.07-2.88-.163-.628.04-1.258.067-1.886.09-2.783.104-5.57.172-8.352.203-5.131.055-10.258.23-15.39.204-2.555-.01-5.107.014-7.663.017-2.994.005-5.992.084-8.986.142-1.083.02-2.167.042-3.252.042-.369 0-.737-.001-1.106-.008-1.429-.023-2.855-.064-4.282-.097a519.98 519.98 0 00-8.423-.133c-.605-.005-1.21-.004-1.815-.017a60.14 60.14 0 01-1.03.007 47.989 47.989 0 01-2.595-.09l-.043.007a17.477 17.477 0 01-1.435.185c-.223.02-.448.023-.671.033a10.4 10.4 0 01-.43.008c-.313 0-.625-.011-.937-.02-.423-.013-.844-.053-1.266-.09l-.612-.063-.114.007c-.326.012-.653.015-.98.015h-.349c-1.733-.008-3.491-.342-4.933-1.348-.76-.532-1.332-1.29-1.744-2.109a8.57 8.57 0 01-.682-1.84c-.318-1.339-.408-2.707-.478-4.076a57.448 57.448 0 01-.04-3.796c.023-1.38-.02-2.76-.004-4.14.008-.651-.019-1.303-.028-1.954a53.688 53.688 0 00-.054-2.016c-.03-.64-.052-1.284-.062-1.928-.006-.438.044-.873.068-1.308.005-.2.01-.402.017-.6-.023-.114-.042-.227-.061-.338-.095-.56-.006-1.135.08-1.691a19.75 19.75 0 01.365-1.711c.13-.517.355-1.07.642-1.521.343-.539.823-.947 1.322-1.336a7.395 7.395 0 011.565-.922c.58-.259 1.17-.41 1.798-.5 1.263-.178 2.55-.231 3.823-.244 1.198-.013 2.398-.006 3.596.008 1.33.015 2.66.055 3.992.048a321.19 321.19 0 003.89-.043c1.112-.018 2.223-.02 3.333-.06.988-.05 1.976-.108 2.967-.105.965.001 1.927.06 2.892.09.98.032 1.954.11 2.933.18.349.024 1.86.031 3.743.033l5.522.001h.257l.497.001c1.622.003 2.857.012 3.105.035.15.014 1.175-.028 1.538-.05.884-.053 1.772-.042 2.656-.074l.722-.034.683-.043-.032.004c1.865-.118 3.733-.153 5.6-.244 1.792-.085 3.589-.127 5.385-.12.388 0 .775.015 1.163.021.448.008.897-.01 1.345-.01 1.065 0 2.13.002 3.195-.026 1.144-.031 2.288-.066 3.433-.019a127.306 127.306 0 013.2.16c.57.033 7.295-.196 7.663-.205.35-.011.707.005 1.056.042zm-64.941 7.417c-1.144-.027-2.34.161-3.386.645a9.399 9.399 0 00-2.502 1.672c-1.569 1.47-2.705 3.344-3.215 5.432-.276 1.133-.31 2.428.027 3.554.319 1.058.833 2.025 1.585 2.846a7.895 7.895 0 002.9 2.012c.9.36 1.875.502 2.842.502a10.273 10.273 0 00.8-.032c.261.021.525.029.78.023 1.039-.02 2.073-.183 3.043-.562 1.427-.555 2.739-1.44 3.716-2.623 1.403-1.695 2.271-3.901 2.03-6.12-.22-2.024-1.212-3.922-2.852-5.164a10.982 10.982 0 00-2.786-1.545c-.947-.353-1.967-.617-2.982-.64zm25.41 11.295c-1.476-.003-2.976-.006-4.44.139-.713.07-1.448.13-2.143.276a16.84 16.84 0 00-1.75.465l-.137-.01c-.653-.046-1.148.478-.998.96.073.232.281.432.557.534.279.104.569.09.843.004.455.085.91.168 1.373.224 1.054.131 2.12.186 3.186.223.4.014.802.026 1.202.038 1.34.04 2.681.07 4.021.09 2.86.047 5.716-.005 8.575-.013 2.78-.01 5.56.042 8.34.005a623.92 623.92 0 004.286-.067c.661-.014 1.326-.011 1.983-.052.303-.02.604-.046.905-.07.367-.028.732-.043 1.095-.094.723-.1 1.202-.695 1.126-1.25-.07-.499-.588-.977-1.24-1.045-.34-.036-.677-.042-1.02-.065-.253-.016-.508-.038-.763-.055-2.708-.18-5.44-.153-8.152-.121a427.358 427.358 0 01-12.708-.043l-2.76-.058zm6.524-7.38h-.026.059c-1.857.02-3.714.061-5.571.088l.153-.001c-1.5.02-3 .006-4.5.001-1.476-.005-2.942.033-4.403.252l.01-.002h.007l-.28.04c-.257.036-.516.073-.775.091-.514-.113-.994.414-.882.918a.761.761 0 00.713.59.78.78 0 00.208-.016h-.002.003l.02-.005.016-.004a5.19 5.19 0 01.352-.018c.442.002.882.048 1.324.081 1.058.083 2.118.127 3.177.173 1.122.048 2.242.093 3.362.123 2.167.06 4.334.01 6.5.036 2.187.023 4.37.14 6.558.126 2.182-.011 4.36-.169 6.54-.209.632-.01 1.107-.649 1.057-1.243-.047-.554-.524-1.04-1.094-1.054-.993-.023-1.984-.053-2.976-.098a45.458 45.458 0 00-3.104-.054c-2.004.048-4.005.147-6.01.177h.041l-.401.006h.031-.105l-.002.001zM25.748 52.296c-2.134-.035-4.267-.07-6.401-.099-.826-.011-1.652-.023-2.48-.028l.042.001a319.212 319.212 0 00-6.173.011c-1.062.015-2.125.056-3.188.048-.501-.004-1.002-.017-1.501-.068-.504-.049-.998-.147-1.492-.264a7.26 7.26 0 01-.962-.284 2.215 2.215 0 01-.515-.267.852.852 0 01-.032-.012c-.331.008-.663-.234-.686-.61-.026-.414.322-.693.675-.689a.817.817 0 01.042-.015 2.4 2.4 0 01.568-.285c.378-.148.782-.238 1.176-.329.817-.185 1.646-.252 2.482-.269.903-.018 1.807.02 2.71.038.84.015 1.678.026 2.517.031h-.2c4.254.015 8.507-.054 12.761-.126 2.21-.038 4.422-.084 6.633-.041 2.202.044 4.402.093 6.603.123 3.813.052 7.626.146 11.441.176h-.01c4.289.022 8.579-.035 12.865.11 4.277.144 8.554.325 12.832.356l.928.006h-.118c1.627.009 3.252.002 4.879.012h-.118c1.116.006 2.23.02 3.347.028 1.002.006 2.003.013 3.003.05 2.01.074 4.016.188 6.027.222.724.013 1.448.022 2.172.026h-.072c3.503.02 7.008-.014 10.512.097.217.007.394.2.406.41.014.234-.171.459-.411.465-3.505.114-7.014.08-10.522.099-2.049.011-4.096.067-6.143.158-.928.039-1.854.091-2.782.113-1.037.026-2.075.026-3.11.034-4.075.036-8.15-.003-12.222.104-4.3.111-8.596.364-12.897.38-4.276.019-8.55.002-12.823.073-4.314.07-8.63.138-12.945.23-.88.018-1.76.025-2.64.025-1.392 0-2.785-.018-4.178-.04zM15.002 40.465a4.521 4.521 0 01-1.834-.542c-.551-.312-.998-.748-1.394-1.238-.898-1.106-1.448-2.654-1.169-4.078.24-1.225.962-2.216 1.94-2.966.334-.26.686-.478 1.078-.64a5.012 5.012 0 011.091-.281h.002c.239-.046.476-.06.71-.046.205.004.41.02.613.05.608-.141 1.197-.02 1.75.265.859.442 1.466 1.26 1.877 2.143.177.31.318.64.417.98.086.295.121.603.12.911.032.432.007.87-.054 1.295a5.235 5.235 0 01-.926 2.293 4.62 4.62 0 01-1.85 1.493c-.584.267-1.25.381-1.897.381-.16 0-.318-.007-.474-.02zM97.605 40.606a4.355 4.355 0 01-.75-.09 5.079 5.079 0 01-1.409-.498 4.479 4.479 0 01-.698-.49 8.21 8.21 0 01-.745-.68 3.994 3.994 0 01-.556-.719c-.127-.213-.2-.458-.272-.695a6.849 6.849 0 01-.208-.86 5.564 5.564 0 01-.062-.875c-.004-.53.016-1.072.134-1.59.062-.282.145-.567.268-.83.108-.231.232-.451.37-.666.155-.247.311-.493.477-.734.163-.236.355-.45.564-.644.194-.18.399-.355.627-.488.195-.115.398-.222.601-.318.214-.102.45-.147.681-.19.215-.041.435-.06.653-.052.261.01.512.054.758.144.1.038.199.08.3.115l.093.031-.01-.003c.132.046.255.106.368.19a.733.733 0 01.255.349c.227-.309.68-.431 1.015-.218.387.245.724.567.982.95.296.44.57.908.773 1.402.133.328.22.677.292 1.02.117.547.156 1.11.105 1.666a5.144 5.144 0 01-.182.872c-.065.24-.13.483-.217.717-.187.506-.467.964-.785 1.396-.293.398-.66.747-1.078 1.006a9.99 9.99 0 01-.622.369 4.137 4.137 0 01-.805.293 3.16 3.16 0 01-.917.12zm.342-1.471a5.23 5.23 0 00.542-.074c.08-.018.16-.038.239-.062.165-.059.328-.127.487-.204a4.13 4.13 0 00.283-.158c.117-.082.231-.172.34-.264.19-.167.369-.346.537-.534l-.003.003a3.47 3.47 0 00.222-.294c.074-.119.141-.24.204-.364.033-.074.064-.149.092-.225a4.532 4.532 0 00.173-.875c.016-.3.035-.6.019-.9a5.252 5.252 0 00-.07-.475 4.154 4.154 0 00-.11-.392l.025.075a5.745 5.745 0 00-.255-.61 3.193 3.193 0 00-.134-.24 10 10 0 00-.715-.905 3.258 3.258 0 00-.213-.217c-.133-.113-.28-.208-.413-.318a.824.824 0 01-.3-.58.841.841 0 01-.377.174c-.169.039-.34.054-.512.083-.42.093-.847.144-1.269.228a4.663 4.663 0 00-.468.125 3.563 3.563 0 00-.287.117 3.918 3.918 0 00-.23.134 3.39 3.39 0 00-.248.19c.023-.023.049-.044.072-.067-.19.17-.372.35-.542.542a6.75 6.75 0 00-.423.552c-.041.065-.08.13-.116.198-.032.074-.06.148-.087.223a5.49 5.49 0 00-.124.474 8.68 8.68 0 00-.096.89 8.29 8.29 0 000 .817c.01.093.022.185.038.277.044.2.103.395.168.59l-.027-.078c.041.121.084.243.134.36.025.05.053.097.081.144.038.054.077.107.118.159.07.076.143.149.219.218.224.195.456.384.698.555.207.14.416.28.636.4a4.533 4.533 0 00.78.264c.123.022.245.042.368.053.181.007.363.002.544-.01zM100.575 18.251c1.014.007 2.02.133 3.024.245.747.082 1.279.823 1.179 1.553a1.372 1.372 0 01-1.39 1.186c-.053 0-.107-.002-.162-.007-.54-.05-1.08-.112-1.62-.158-.406-.034-.811-.064-1.215-.111-.493-.057-.983-.131-1.479-.17-.38-.021-.761-.042-1.141-.049a3.48 3.48 0 01-.757-.066c-.56.001-.986-.599-.837-1.137.236-.865 1.13-1.075 1.914-1.17.422-.052.847-.063 1.272-.084a21.31 21.31 0 011.212-.032zm-6.238-.442c.194.003.401.007.588.064.14.043.271.125.329.263.039.09.034.189.026.284-.008.111-.048.221-.084.326-.07.196-.16.385-.251.572-.164.338-.342.668-.529.995-.093.16-.182.325-.279.484-.084.138-.185.276-.327.358a.52.52 0 01-.266.076.472.472 0 01-.262-.08 2.373 2.373 0 01-.452-.418 13.204 13.204 0 01-.502-.59c-.186-.232-.364-.473-.552-.705a.432.432 0 01-.42-.366.419.419 0 01-.001-.096.507.507 0 01.197-.778c.164-.069.334-.131.51-.164.151-.031.304-.056.458-.08.407-.066.808-.133 1.222-.142.198-.003.397-.006.595-.003zm-74.99.597c.36.021.685.131.946.392.25.25.392.593.392.946 0 .708-.593 1.338-1.31 1.338h-.028c-.883-.018-1.746-.187-2.625-.253l.158.01-.84-.057h.012l.005.001h-.002l-.037-.002-.852-.046-.78-.048-.042-.002a12.318 12.318 0 01-.05-.004l-.412-.025-.395-.024h.004a6.26 6.26 0 01-1.075-.167c-.228-.054-.45-.113-.642-.253-.28-.204-.378-.649-.184-.942.243-.371.63-.458 1.044-.513.457-.062.916-.072 1.375-.097.55-.04 1.1-.084 1.653-.105.472-.016.945-.035 1.419-.06.384-.029.766-.07 1.152-.096.369-.023.743-.014 1.114.007zM41.72 40.989a63.059 63.059 0 01-2.638-.098c-.834-.048-1.668-.11-2.5-.168-.384-.027-.767-.053-1.15-.082-.374-.027-.752-.048-1.124-.103a.582.582 0 01-.499-.569c-.003-.307.254-.586.564-.58.352.007.703.042 1.055.066a120.682 120.682 0 00.946.06l.232.013-.076-.004c1.205.065 2.41.111 3.617.107 1.206-.005 2.412-.015 3.618-.02a71.81 71.81 0 002.276-.054c.745-.028 1.49-.058 2.232-.11 1.265-.097 2.53-.223 3.796-.291 1.19-.065 2.387-.136 3.58-.12.594.01 1.185.044 1.778.068.6.024 1.2.032 1.801.046.595.013 1.189.048 1.782.066.616.02 1.231.02 1.847.007.6-.01 1.2-.03 1.8-.036.587-.007 1.174-.004 1.763-.004 1.251 0 2.502-.005 3.752.004a97.68 97.68 0 014.832.137l-.095-.006c1.334.075 2.672.117 4.007.02l-.078.004c.632-.06 1.263-.146 1.886-.272.332-.07.656-.154.979-.258.156-.057.31-.119.463-.186.108-.057.213-.118.317-.183.106-.076.208-.155.309-.238.084-.08.165-.16.244-.246a3.5 3.5 0 00.15-.189 1.88 1.88 0 00.043-.078c.076-.174.143-.351.204-.532a3.55 3.55 0 00.048-.184c.008-.061.014-.123.02-.184a6.803 6.803 0 00-.008-.607 5.644 5.644 0 00-.067-.502 7.293 7.293 0 00-.083-.307 7.773 7.773 0 00-.162-.415 4.996 4.996 0 00-.207-.367 7.378 7.378 0 00-.168-.219 7.028 7.028 0 00-.342-.349 8.236 8.236 0 00-.599-.474 13.51 13.51 0 00-.114-.078 10.45 10.45 0 00-.716-.417 8.413 8.413 0 00-.473-.202 6.275 6.275 0 00-.562-.148c-.445-.08-.891-.12-1.342-.148l.096.005c-2.369-.13-4.744-.193-7.116-.13-1.255.034-2.509.12-3.765.142-.611.012-1.224.007-1.837.017-.595.007-1.19.042-1.783.067-1.233.053-2.466.104-3.7.117-.706.008-1.412-.001-2.118-.009a95.167 95.167 0 00-1.604-.012c-1.24 0-2.48.03-3.72.05-1.2.018-2.4.029-3.598.045-2.448.032-4.896-.063-7.344-.095-.693-.009-1.386-.015-2.078-.042a85.395 85.395 0 01-2.022-.108c-.296-.016-.59-.023-.886-.04-.33-.017-.657-.053-.986-.076a14.283 14.283 0 00-.943-.006c-.308.009-.618.012-.926.031-.67.07-1.343.152-2.005.274-.17.04-.34.078-.506.129a4.757 4.757 0 00-.112.069c-.105.073-.206.15-.303.233-.119.11-.23.228-.337.35a4.418 4.418 0 00-.223.298c-.07.11-.138.223-.198.339a4.202 4.202 0 00-.066.174 4.447 4.447 0 00-.086.314c-.06.347-.099.696-.124 1.048-.004.196.003.392.014.587.008.084.018.167.033.25.033.144.073.285.118.425.039.104.082.207.129.308.067.136.138.27.217.4.166.24.342.473.51.712.13.184.3.413.337.651.013.029.024.06.035.093a.337.337 0 01-.152.373.504.504 0 01-.215.075c-.174.05-.362.013-.537-.052a3.056 3.056 0 01-.629-.336 3.378 3.378 0 01-.647-.565 3.51 3.51 0 01-.556-.874c-.138-.3-.23-.635-.285-.961-.047-.278-.055-.564-.064-.847a5.5 5.5 0 01.054-.883 4.98 4.98 0 01.158-.777c.082-.275.225-.526.37-.772.159-.266.372-.484.583-.706a5.957 5.957 0 011.205-1.003c.316-.196.688-.27 1.05-.337.286-.053.574-.101.862-.15.268-.047.537-.092.805-.133.337-.053.67-.089 1.01-.113l-.088.006c.495-.037.99-.051 1.486-.067.48-.017.957-.056 1.438-.055.507.002 1.016-.028 1.525-.031.485-.003.97.015 1.454.04l.23.014c-.036-.002-.073-.005-.11-.006l.783.046-.016-.001.035.002.073.004-.02-.001.11.006a1.33 1.33 0 01-.022-.002l.107.006.027.002c1.22.064 2.439.063 3.661.06 1.205-.003 2.41.013 3.614.043.617.015 1.233.026 1.85.018.598-.007 1.197-.02 1.795-.024.727-.006 1.455-.004 2.182-.003.503.002 1.006.002 1.51.002 2.48-.006 4.956-.087 7.435-.117.3-.003.6-.003.9-.003.301 0 .602.001.904-.002.62-.005 1.24-.02 1.861-.038 1.238-.034 2.476-.016 3.715-.012 1.21.005 2.42-.009 3.63-.015 1.177-.007 2.353.04 3.53.057.503.008 1.006.013 1.505.06a6.98 6.98 0 011.486.299l-.044-.016a30.475 30.475 0 00.103.035l-.021-.007c.654.22 1.242.596 1.771 1.039.505.42.96.935 1.273 1.517.17.313.295.635.407.973.104.316.142.657.159.988.014.302.01.61-.012.913-.015.194-.04.385-.09.576-.04.158-.102.311-.163.463a5.74 5.74 0 01-.17.394c-.12.253-.28.465-.472.666-.224.234-.497.411-.77.578-.516.313-1.089.505-1.667.659-1.178.312-2.4.358-3.607.458-.633.053-1.267.09-1.9.124-.59.031-1.18.069-1.77.082-1.22.027-2.439-.027-3.66-.03-.592-.001-1.184 0-1.774.002-.652.003-1.303.004-1.953.003-1.206-.005-2.41-.065-3.615-.108-1.194-.046-2.388-.046-3.583-.073-.612-.013-1.227-.039-1.84-.054-.591-.015-1.183-.009-1.775-.004-1.196.01-2.393.03-3.589.043-1.21.015-2.42.04-3.628.094-2.237.1-4.477.281-6.717.281-.179 0-.358 0-.536-.003zM12.407 213.98c-.336-.232-.385-.719-.433-1.09-.049-.397-.045-.798-.056-1.196l.001.019v-.02l-.001-.015v.01a68.9 68.9 0 01-.043-3.585c.014-1.159.025-2.315.012-3.473-.01-1.145-.023-2.29-.007-3.435.009-.606.03-1.213.06-1.82.03-.588.056-1.176.113-1.762.035-.316.089-.625.163-.935.068-.281.169-.553.262-.826.1-.297.207-.592.322-.883.118-.301.273-.584.434-.863.308-.534.712-1.004 1.144-1.44.205-.206.417-.407.64-.594.257-.216.513-.438.789-.63.259-.178.538-.33.82-.467.266-.13.536-.256.812-.358.595-.222 1.201-.421 1.83-.512.669-.098 1.338-.178 2.012-.184.633-.008 1.26.058 1.89.1.642.043 1.284.082 1.928.112.61.03 1.223.025 1.836.028 1.294.007 2.587.01 3.88.041.625.014 1.248.033 1.872.032.656-.002 1.313-.015 1.97-.002 1.276.022 2.552.1 3.827.135 1.268.036 2.534.052 3.801.055 1.282.003 2.562.045 3.843.052.586.003 1.173-.002 1.759-.005.715-.005 1.428-.01 2.143 0 .635.006 1.27.028 1.904.04.661.012 1.323.01 1.984 0 .649-.01 1.296-.024 1.945-.021.626.003 1.251.016 1.878.016.631 0 1.261-.011 1.891-.007.652.003 1.304.02 1.956.041 1.253.043 2.505.123 3.76.152 1.264.03 2.53.033 3.794.05.59.009 1.184.009 1.774.029a.89.89 0 01.86.903c-.015.488-.427.854-.909.854-.64 0-1.283-.025-1.924-.038-.61-.012-1.22-.03-1.83-.045a112.966 112.966 0 00-3.79-.049c-1.303.006-2.605-.001-3.906-.04-.631-.02-1.26-.05-1.89-.071-.626-.02-1.25-.024-1.873-.04-.648-.017-1.296-.05-1.944-.08a59.994 59.994 0 00-1.992-.051c-.635-.007-1.268-.004-1.902-.01-.627-.006-1.254-.022-1.879-.034a217.586 217.586 0 00-3.917-.033c-1.274 0-2.548-.027-3.822-.033-1.266-.008-2.53-.007-3.794.015-.654.011-1.306.024-1.957.02-.641 0-1.282-.03-1.923-.045-1.283-.031-2.565-.04-3.848-.102-1.258-.06-2.518-.165-3.779-.152-.23.001-.458.009-.686.016.027 0 .054 0 .08-.002-.808.033-1.615.085-2.417.192-.76.098-1.524.179-2.281.3a7.266 7.266 0 00-.696.166 16.43 16.43 0 00-1.526.577 4.958 4.958 0 00-.39.208 9.751 9.751 0 00-.663.457c-.31.261-.605.547-.885.838-.293.314-.581.632-.843.97-.046.068-.09.135-.13.205a7.83 7.83 0 00-.521 1.362 8.834 8.834 0 00-.113.83l.002-.018.012-.117-.018.177a7.98 7.98 0 01-.004.039l-.025.263.002-.026-.003.03.002-.026a40.434 40.434 0 00-.169 3.736c-.004 1.185.027 2.37.03 3.556.008 2.315-.113 4.628-.293 6.936-.022.305-.06.606-.136.903-.068.267-.163.537-.414.685a.382.382 0 01-.19.048.382.382 0 01-.215-.063z" fill="#0062C3"/><path d="M82.882 224.286c-.87-.003-1.738-.004-2.607-.009-.864-.006-1.727-.03-2.59-.04-.875-.013-1.753-.004-2.627-.002-1.798.004-3.594-.007-5.392-.02-.955-.005-1.91.002-2.863.01-.764.008-1.528.014-2.29.014a315.929 315.929 0 01-5.175-.036c-1.812-.03-3.624-.07-5.436-.081-1.812-.01-3.624-.02-5.436-.032-.88-.005-1.758-.023-2.638-.033-.868-.01-1.737.002-2.606-.012-.932-.014-1.867-.043-2.8-.066-.882-.022-1.764-.029-2.645-.033a136.58 136.58 0 01-5.501-.127c-.917-.044-1.834-.07-2.75-.106-.91-.036-1.821-.095-2.732-.119-.844-.024-1.689-.014-2.533-.025a48.988 48.988 0 01-2.586-.105 19.94 19.94 0 01-2.691-.37c-.848-.172-1.71-.419-2.494-.786a12.142 12.142 0 01-1.08-.564 6.95 6.95 0 01-1.034-.766c-.356-.314-.703-.634-.969-1.033a5.42 5.42 0 01-.533-1.054c-.229-.59-.37-1.248-.34-1.884a1.89 1.89 0 01.215-.834.811.811 0 01.27-.31.397.397 0 01.463.018l-.007-.006.01.008a.453.453 0 01.009.008l.005.004.001.002.01.009a.309.309 0 00-.008-.008c.002.003.004.006.008.008.123.124.131.299.159.466.027.124.057.25.08.374l-.013-.075c.042.202.067.407.104.61.024.094.053.187.084.281.077.221.16.44.258.652.078.155.161.306.253.454.177.256.382.494.583.732.15.175.305.341.475.5.171.144.35.275.535.403.172.11.35.21.531.305.314.15.633.28.96.395.495.16.994.291 1.503.397.794.153 1.601.256 2.41.316.827.049 1.657.06 2.488.064.836.005 1.673.036 2.51.03.894-.006 1.79-.033 2.684-.036.373-.003.744-.002 1.116-.002.56.002 1.116.002 1.675-.004.903-.013 1.803-.04 2.705-.047.918-.007 1.836.01 2.755.012.901.002 1.802.018 2.704.018.92 0 1.839-.004 2.759.006.876.008 1.752.04 2.63.047.876.006 1.753 0 2.63 0 1.811-.002 3.625.005 5.437.027 3.537.042 7.073.132 10.61.182 1.719.023 3.438.063 5.155.08 1.793.017 3.588.04 5.381.097.878.028 1.755.049 2.635.07.866.024 1.734.007 2.602.006.869-.004 1.737-.005 2.605-.008.906-.005 1.81-.02 2.715-.04 2.569-.052 5.14.023 7.708-.143a24.27 24.27 0 002.978-.39l-.027.005a7.488 7.488 0 00.008-.002 15.79 15.79 0 001.696-.415l.088-.035.058-.031.082-.061c.05-.046.098-.093.146-.142.066-.08.13-.161.192-.246.122-.183.233-.37.336-.565.14-.301.264-.606.377-.919l-.046.135c.172-.504.34-1.01.482-1.523.147-.535.27-1.08.385-1.625.12-.642.215-1.285.263-1.937.034-.862.048-1.726.075-2.59.027-.872.047-1.745.038-2.616-.004-.418-.032-.834-.046-1.25-.016-.424-.02-.85-.02-1.275-.004-.823.007-1.642-.038-2.463-.056-.759-.117-1.517-.162-2.278-.042-.717-.08-1.436-.123-2.153-.029-.347-.072-.692-.107-1.037-.04-.38-.073-.759-.112-1.137a46.656 46.656 0 00-.122-1.04c-.049-.379-.082-.76-.15-1.137-.038-.179-.076-.36-.127-.535a5.55 5.55 0 00-.112-.263 6.534 6.534 0 00-.275-.465 5.172 5.172 0 00-.2-.285 2.343 2.343 0 00-.042-.041 14.757 14.757 0 00-.906-.664 2.973 2.973 0 00-.168-.098 6.089 6.089 0 00-.465-.2c-.609-.19-1.235-.34-1.86-.471a20.398 20.398 0 00-2.195-.272l-.048-.003-.075-.005.059.004c-.582-.031-1.164-.043-1.744-.086-.588-.042-1.177-.103-1.766-.145l.054.003-.082-.005-.022-.002.014.001a59.933 59.933 0 00-4.733-.101c-.785.015-1.57.025-2.354.022-.808-.003-1.614-.074-2.42-.126l.065.005c-.961-.049-1.924-.025-2.885-.01-.865.015-1.732.033-2.597.046a.433.433 0 01-.43-.427.433.433 0 01.427-.429c1.671-.042 3.349-.025 5.019-.127h-.014c.883-.064 1.759-.189 2.643-.234.868-.044 1.74-.044 2.607-.061.919-.02 1.836-.063 2.753-.082.854-.019 1.71-.045 2.562-.083.44-.02.882-.049 1.324-.049.433-.001.865.011 1.3.022.856.024 1.715.016 2.572.05.423.018.85.022 1.27.085.405.06.812.15 1.202.273.499.159.968.398 1.39.702.375.27.738.573 1.044.919.207.234.376.488.543.752.156.248.322.496.454.758.26.515.36 1.088.471 1.649.045.216.09.433.13.65.037.217.055.438.08.657.04.37.082.74.115 1.111.076.869.107 1.742.152 2.612.045.859.082 1.72.102 2.58.01.464 0 .928.005 1.393.005.411.024.824.041 1.235.038.886.06 1.77.033 2.656-.028.923-.024 1.845-.031 2.768a32.6 32.6 0 01-.128 2.776c-.043.45-.092.898-.125 1.347-.033.434-.066.867-.112 1.299-.197 1.83-.66 3.684-1.815 5.16-.52.664-1.23 1.192-2.04 1.443-.685.21-1.385.352-2.091.479-.78.14-1.567.25-2.354.342-.432.05-.865.102-1.299.148-.418.044-.84.063-1.26.086-1.74.094-3.484.203-5.229.203-.91 0-1.821-.027-2.732-.029z" fill="#0062C3"/><path d="M25.876 213.78c-.922-.285-1.744-.717-2.46-1.364-.634-.572-1.118-1.28-1.513-2.027a9.134 9.134 0 01-1.038-4.632c.036-.858.123-1.718.4-2.535.256-.746.64-1.418 1.112-2.049.977-1.31 2.468-2.24 4.056-2.62 1.167-.28 2.345-.33 3.515-.06 1.074.111 2.097.489 3.034 1.044 1.397.829 2.418 2.118 3.032 3.603.594 1.433.862 3.056.712 4.6-.153 1.573-.934 3.176-2.121 4.238a7.49 7.49 0 01-2.31 1.435 9.714 9.714 0 01-2.07.55c-.634.09-1.29.15-1.945.15-.817 0-1.634-.093-2.404-.332zM58.244 204.309c-1.182-.037-2.36-.11-3.543-.154a28.127 28.127 0 01-1.959-.118c-.593-.064-1.185-.14-1.779-.209-.212-.025-.424-.042-.636-.061a46.414 46.414 0 00-2.677-.052c-.478 0-.961.002-1.436-.058a2.612 2.612 0 01-.69-.18c-.165-.071-.298-.17-.437-.27a.757.757 0 01-.408-.57.772.772 0 01.272-.698c.15-.189.318-.349.529-.479.27-.165.565-.268.87-.352.585-.158 1.227-.174 1.83-.182.472-.006.944.002 1.418.011.675.014 1.354.029 2.033-.004.59-.029 1.177-.062 1.768-.07.6-.007 1.2.03 1.799.048 1.204.034 2.41-.044 3.615-.073 1.163-.025 2.325-.045 3.488-.095 1.27-.055 2.535-.082 3.802.007 1.189.084 2.373.264 3.557.4.562.065 1.125.122 1.687.194.606.077 1.21.168 1.815.237.155.019.311.028.466.042l-.028-.001.23.016-.044-.004a11.967 11.967 0 00.13.01c.793.052 1.592.044 2.386.036.298-.003.549.25.549.546a.554.554 0 01-.55.545c-.66.014-1.322.038-1.982.08l.08-.004c-.741.06-1.474.157-2.208.28-.77.131-1.54.255-2.313.367-1.477.214-2.96.476-4.449.583-1.232.082-2.464.126-3.698.162-.936.028-1.872.08-2.808.08-.226 0-.452-.003-.679-.01zM50.61 211.3a16.463 16.463 0 01-2.63-.27c-.443-.084-.893-.166-1.314-.326a3.063 3.063 0 01-.66-.325c-.15-.102-.28-.224-.415-.345-.25-.22-.253-.63-.057-.881a.69.69 0 01.392-.245c.172-.1.344-.19.533-.264.298-.12.616-.188.93-.253.623-.13 1.25-.224 1.883-.29 1.275-.135 2.558-.088 3.837-.047 2.445.076 4.888.026 7.332-.055.334-.012.67-.033 1.004-.054 1.652-.14 3.288-.383 4.951-.36.802.012 1.604.078 2.404.14.675.052 1.347.132 2.022.188l.302.015c.615.028 1.149.444 1.236 1.072.093.68-.395 1.294-1.067 1.398-.19.03-.379.06-.567.094a225.637 225.637 0 01-.17.036l-.086.017-.093.02.067-.015c-1.11.221-2.237.382-3.364.489-1.29.12-2.573.152-3.867.128-1.268-.023-2.535-.01-3.803-.003-1.23.008-2.46.017-3.692.047-1.372.034-2.743.101-4.115.101-.331 0-.662-.004-.993-.013z" fill="#0062C3"/><path d="M12.53 209.79c.07 4.556.446 7.614 1.13 9.175" stroke="#0062C3" stroke-width="2"/><path stroke="#0062C3" stroke-width="2.5" d="M63.83 191.613l28.704-.447"/><path d="M18.57 2.764c.192.84-.348 1.7-1.188 1.896-1.088.251-2.178.48-3.253.787-.618.191-1.218.41-1.811.668-.403.188-.795.388-1.182.61-.428.272-.849.555-1.253.864-.19.172-.373.35-.553.534-.333.367-.65.744-.949 1.142-.44.636-.85 1.29-1.223 1.966-.208.422-.397.848-.573 1.285-.124.354-.23.708-.32 1.072a41.82 41.82 0 00-.56 3.765c-.187 2.09-.23 4.19-.286 6.284-.064 2.347-.11 4.695-.162 7.043-.05 2.263-.142 4.524-.224 6.785a638.503 638.503 0 01-.285 7.031c-.11 2.324-.224 4.648-.305 6.972-.08 2.317-.133 4.635-.188 6.954-.055 2.35-.113 4.7-.15 7.052a313.538 313.538 0 00-.02 7.07c.031 4.672.094 9.344.22 14.014.124 4.523.203 9.045.282 13.569.08 4.659.064 9.318.033 13.978-.014 2.316-.056 4.634-.072 6.95-.016 2.294-.023 4.59-.053 6.886-.032 2.332-.09 4.665-.115 6.999-.022 2.261-.037 4.524-.06 6.787-.046 4.849-.184 9.695-.31 14.542-.235 9.185-.327 18.372-.527 27.557-.053 2.47-.138 4.94-.074 7.413.055 1.49.141 2.981.224 4.47.087 1.61.145 3.22.2 4.83.069 1.99.124 3.98.183 5.969l.089 2.9.035.918c.103 2.337.299 4.667.668 6.979.236 1.358.5 2.715.854 4.048.19.6.42 1.181.666 1.76.252.552.53 1.082.843 1.601.194.299.392.589.606.872.322.37.665.719 1.017 1.061.174.154.352.3.537.44.71.486 1.444.918 2.202 1.32 1.032.529 2.085.988 3.17 1.395a27.73 27.73 0 003.13.92c1.531.327 3.088.562 4.646.715 1.662.15 3.33.24 4.994.382 1.888.165 3.775.295 5.669.368 2.604.096 5.21.091 7.817.088 1.4-.003 2.8-.005 4.199.01 2.127.02 4.253.104 6.382.045 2.045-.055 4.087-.1 6.133-.076 2.198.028 4.398.053 6.594.121 2.14.066 4.278.182 6.418.272 1.115.048 2.229.089 3.343.127 1.4.05 2.798.118 4.197.165 1.416.048 2.832.069 4.246.069.865 0 1.73-.003 2.595-.017l1.296-.031c-.003.001-.002.001-.001.001v-.001h.01c.027 0 .053 0 .08-.002h-.011.02-.002v-.001l1.15-.05c.779-.04 1.557-.086 2.337-.121.604-.029 1.262-.08 1.838.136.236-.104.554.034.582.332.03.317-.295.521-.557.422-.36.141-.732.194-1.12.261-.753.127-1.505.264-2.262.37-2 .284-4.012.392-6.028.506-2.272.13-4.548.137-6.824.105a266.531 266.531 0 01-5.675-.145 198.75 198.75 0 00-6.57-.155c-2.267-.006-4.535.073-6.8.145l.094-.005h0c-2.067.073-4.133.197-6.2.237a16.39 16.39 0 01-.484.005c-.947 0-1.893-.05-2.84-.084a109.17 109.17 0 00-3.164-.05c-1.006-.006-2.011-.003-3.018-.001-1.088.003-2.177.006-3.266-.002-1.873-.013-3.746-.088-5.616-.164a85.64 85.64 0 01-2.873-.166l-1.814-.142a56.825 56.825 0 00-.907-.06c-1.698-.102-3.395-.123-5.086-.307-1.95-.21-3.91-.576-5.782-1.17-2.267-.72-4.445-1.745-6.49-2.954-.472-.277-.93-.58-1.37-.905-.422-.313-.79-.691-1.154-1.067-.325-.334-.63-.686-.91-1.058-.344-.462-.64-.966-.927-1.465-.267-.467-.496-.96-.71-1.454a18.383 18.383 0 01-.667-1.719c-.322-1.003-.541-2.042-.757-3.073-.45-2.167-.707-4.38-.89-6.585-.187-2.235-.278-4.478-.368-6.719-.093-2.346-.219-4.69-.293-7.039-.074-2.363-.122-4.725-.179-7.088-.054-2.303-.053-4.606-.06-6.909-.007-2.175-.015-4.353.031-6.528.054-2.38.113-4.756.149-7.135.035-2.375.08-4.749.132-7.123.101-4.754.11-9.51.172-14.265l.068-4.755c.01-.793.019-1.585.024-2.378.014-2.314-.002-4.63-.016-6.946-.03-4.617-.107-9.235-.13-13.853-.027-4.62.06-9.236.094-13.854l.038-4.668c.005-.778.008-1.556.007-2.334-.003-2.301-.051-4.603-.085-6.902-.064-4.477-.217-8.953-.319-13.43A413.181 413.181 0 01.876 66.24c.03-2.326.079-4.653.116-6.979.037-2.291.073-4.585.15-6.876.158-4.67.431-9.338.59-14.008.157-4.645.197-9.29.312-13.935.053-2.133.075-4.275.265-6.399.099-1.087.248-2.163.437-3.235.169-.976.33-1.967.665-2.9.52-1.455 1.303-2.78 2.17-4.051.803-1.174 1.724-2.292 2.864-3.15 1.211-.912 2.567-1.585 3.991-2.094.71-.253 1.446-.45 2.177-.638.748-.191 1.493-.355 2.262-.433a1.596 1.596 0 011.695 1.221zm8.104.079c.027.201.043.404.063.607.055.55.125 1.1.185 1.65l.2 1.813h0c.061.55.13 1.105.237 1.648.044.201.095.4.156.597.158.459.345.907.554 1.344.076.154.158.302.248.445.061.089.126.175.194.26.107.116.219.226.335.332.132.11.267.215.408.314.123.077.25.148.38.215.178.079.359.148.543.21.389.121.783.224 1.182.304.77.134 1.552.221 2.329.31.558.064 1.118.12 1.678.164l.828.059h.001l.01.001.787.029a76.6 76.6 0 001.62.018c.806.001 1.61.02 2.414-.002 1.616-.045 3.23-.083 4.843-.169 1.714-.092 3.426-.114 5.14-.158.795-.02 1.59-.019 2.384-.017a81.14 81.14 0 002.427-.016c3.065-.084 6.128-.261 9.193-.228 1.456.017 2.908.063 4.364.04.784-.014 1.572-.022 2.356-.065.823-.045 1.645-.097 2.466-.136a67.794 67.794 0 012.496-.072c.818-.01 1.633.022 2.45.027.488.004.977 0 1.467 0a74.83 74.83 0 012.82.026c.304.01.608.01.912-.005.155-.013.31-.034.463-.062.14-.032.278-.07.416-.112.224-.078.44-.166.655-.265.196-.1.388-.207.574-.324a5.96 5.96 0 00.467-.36c.11-.1.213-.203.315-.311.055-.066.107-.134.157-.203.037-.06.072-.122.106-.185.031-.07.06-.14.086-.213.09-.297.16-.6.23-.904.077-.33.155-.657.223-.989.088-.502.131-1.008.162-1.516.048-.88.072-1.76.084-2.644a.902.902 0 01.09-.379c-.504-.02-1.009-.035-1.514-.05l.009.001-1.604-.029c-1.623-.02-3.247-.015-4.871.007-1.037.013-2.076.024-3.113.016-1.083-.01-2.163-.072-3.246-.106a81.613 81.613 0 00-1.78-.01c-.685.002-1.37-.029-2.054-.058-1.014-.043-2.029-.081-3.044-.115l-1.498-.045-1.378-.022c-1.458-.013-2.915 0-4.374.015-1.478.014-2.958.029-4.437.016-3.867-.035-7.727-.246-11.59-.353h.007l-1.306-.03c-1.325-.031-2.652-.064-3.977-.136-.77-.042-1.54-.074-2.306-.153-.216-.022-.434-.042-.65-.075-.159-.025-.34-.057-.475-.15a.287.287 0 01-.022-.453c.135-.12.34-.154.51-.198.311-.079.622-.153.935-.224.425-.096.863-.15 1.294-.206.554-.072 1.108-.14 1.662-.204 2.163-.252 4.336-.277 6.51-.306 2.752-.037 5.508-.036 8.262-.034 1.475 0 2.952.002 4.427-.003 1.241-.005 2.483-.008 3.725-.015 1.324-.006 2.647.036 3.97.07 1.365.033 2.73.078 4.093.132 1.166.046 2.327.148 3.493.185h-.003c1.81.035 3.619-.048 5.428-.13 1.016-.046 2.032-.118 3.05-.14.989-.019 1.974-.01 2.963.017 2.05.058 4.107.12 6.152.285 1.912.153 3.831.394 5.69.88l.292.078h0l.273.077.018.005h0l-.011-.003.81.244c.815.255 1.62.538 2.417.848.92.357 1.821.742 2.69 1.213.9.488 1.761 1.069 2.568 1.699a15.328 15.328 0 012.367 2.293c.316.382.617.773.902 1.177.318.448.585.944.847 1.426.538.984.954 2.029 1.308 3.093.35 1.047.582 2.142.781 3.226.203 1.103.375 2.21.53 3.322.327 2.347.541 4.706.649 7.074.055 1.191.063 2.386.077 3.58.015 1.063.04 2.127.065 3.19.051 2.264.137 4.529.162 6.793.026 2.276-.006 4.55-.027 6.825-.042 4.405-.05 8.81.008 13.214.027 2.193.042 4.387.065 6.58.02 2.184.069 4.368.086 6.552.04 4.551.018 9.104-.035 13.655l-.02 2.289h0l-.022 4.58h0a277.29 277.29 0 01-.142 7.13c-.041 1.326-.083 2.654-.12 3.98-.114 4.536-.224 9.07-.31 13.605-.088 4.63-.074 9.26-.077 13.892-.003 4.48.003 8.96-.042 13.438-.02 2.126-.051 4.252-.08 6.378a259.048 259.048 0 01-.092 4.052l-.06 2.022V159.881h0l-.004.131.001-.051h0c-.05 2.05-.091 4.103-.125 6.155-.036 2.221-.052 4.442.004 6.663.113 4.36.298 8.719.467 13.078.089 2.27.11 4.543.104 6.816-.007 2.441-.007 4.886-.065 7.327-.056 2.35-.151 4.7-.296 7.046-.07 1.132-.145 2.265-.206 3.398-.057 1.062-.099 2.126-.184 3.187-.16 2.005-.435 4.01-.89 5.97-.247 1.062-.513 2.128-.919 3.14-.384.962-.856 1.901-1.391 2.789a18.816 18.816 0 01-1.81 2.518c-.583.68-1.33 1.173-2.073 1.66-.593.392-1.235.687-1.887.965-.282.12-.567.232-.857.332-.35.12-.702.184-1.068.22-.026.005-.051.005-.077.005-.365 0-.716-.26-.865-.582-.179-.387-.087-.905.261-1.174.66-.511 1.414-.877 2.097-1.355.2-.149.402-.296.604-.443.426-.32.824-.663 1.212-1.028.246-.255.477-.521.7-.798.346-.453.667-.92.967-1.405a25.76 25.76 0 001.29-2.555c.205-.52.385-1.046.545-1.582.283-1.02.53-2.049.724-3.09l.117-.678.099-.786c.121-1.09.185-2.184.243-3.282.052-.973.1-1.946.138-2.92l.047-1.378.033-1.649c.025-1.706.022-3.41-.004-5.119a921.05 921.05 0 00-.143-7.313c-.053-2.317-.124-4.633-.16-6.95-.036-2.199-.056-4.397-.086-6.597-.03-2.14-.084-4.28-.099-6.423-.014-2.212-.022-4.425-.078-6.638a366.709 366.709 0 01-.104-6.38c-.014-2.081-.064-4.16-.045-6.241.042-4.556.087-9.112.099-13.67.01-4.606.043-9.213.033-13.82-.01-4.484.1-8.968.197-13.452.064-2.936.137-5.872.218-8.808l.126-4.405-.003.114.006-.218v-.026h0c.056-2.232.082-4.471.088-6.713.006-2.261.029-4.524.051-6.787.049-4.562.063-9.125.004-13.686-.058-4.366-.11-8.73-.152-13.096-.043-4.411-.024-8.824.068-13.235.09-4.38.179-8.76.274-13.14.048-2.282.085-4.562.045-6.844a91.41 91.41 0 00-.113-3.451 78.275 78.275 0 00-.263-3.228 56.905 56.905 0 00-.262-2.08 31.661 31.661 0 00-.42-2.234c-.162-.66-.348-1.31-.583-1.95a17.12 17.12 0 00-.9-1.965 15.774 15.774 0 00-1.004-1.587l.105.14-.149-.2c-.285-.38-.584-.74-.91-1.088-.27-.276-.547-.54-.846-.786a22.293 22.293 0 00-2.044-1.405c-.482-.276-.98-.521-1.486-.749a29.07 29.07 0 00-3.092-1.12 41.519 41.519 0 00-4.526-.995 45.628 45.628 0 00-3.985-.384.788.788 0 01.051.293c-.019 1.37-.104 2.736-.122 4.104-.011.78-.05 1.559-.274 2.31a5.113 5.113 0 01-.528 1.221c-.21.34-.482.638-.767.915-.613.593-1.336 1.036-2.114 1.38a6.078 6.078 0 01-1.04.35c-.37.085-.741.116-1.117.153a64.99 64.99 0 01-4.372.285c-.792.026-1.585.07-2.379.064a75.854 75.854 0 01-2.567-.056 33.22 33.22 0 00-2.37-.026c-.817.023-1.633.05-2.451.068-1.464.03-2.927.008-4.39-.011-.613-.01-1.223-.009-1.833-.009-.899 0-1.798.002-2.695-.025-.744-.023-1.486-.045-2.23-.063-.794-.018-1.588-.005-2.382.005-.826.011-1.652.013-2.479.022-.797.01-1.594.044-2.391.071-.792.026-1.585.036-2.377.05l-2.63.063h0l-3.292.075c-.55.011-1.098.02-1.647.021h-.15 0c-1.567 0-3.132-.071-4.7-.104a30.22 30.22 0 01-4.963-.532c-.804-.151-1.594-.354-2.35-.67a5.543 5.543 0 01-2.005-1.423c-.523-.593-.863-1.289-1.16-2.015a7.686 7.686 0 01-.387-1.201 13.525 13.525 0 01-.177-1.078 20.757 20.757 0 01-.16-1.702c-.03-.57-.018-1.147-.005-1.717.012-.502.032-1 .089-1.5.035-.302.068-.654.24-.919l.074-.098-.027.03h0l.035-.04h0l-.007.009.029-.03c.142-.131.342-.158.503-.017.049.044.08.105.103.167L26.56 2.4h0l-.003-.006.011.023h0l.002.005v.002l.002.004c.059.125.084.267.103.414z" stroke="#262C30" fill="#262C30"/></g></svg>