<svg width="209" height="197" xmlns="http://www.w3.org/2000/svg"><g fill="none" fill-rule="evenodd"><path d="M113.148 67.18c.499.157.925.51 1.173.97.522.971.143 2.212-.824 2.734-.578.313-1.21.537-1.822.775-.604.235-1.21.468-1.819.694a41.92 41.92 0 01-3.753 1.22c-1.246.333-2.506.613-3.763.898-1.314.299-2.631.571-3.957.815-2.212.407-4.41.882-6.625 1.277-2.249.4-4.518.683-6.777 1.023-.83.144-1.658.293-2.478.489-.935.224-1.866.46-2.795.71-1.823.491-3.64.99-5.447 1.542-1.833.57-3.68 1.128-5.57 1.48a38.736 38.736 0 01-3.025.46c-.343.037-.695.064-1.044.064-.104 0-.207-.002-.31-.008-.557-.029-1.21-.066-1.62-.489-.345-.355-.27-.958.124-1.24a.803.803 0 01.15-.086c.149-.075.306-.135.464-.19l.237-.081c.315-.108.629-.216.945-.32.586-.192 1.173-.384 1.757-.58a107.31 107.31 0 003.814-1.34l2.523-.962c.421-.159.843-.316 1.266-.47 1.248-.454 2.523-.842 3.794-1.219 1.976-.584 3.948-1.171 5.975-1.555 2.034-.386 4.09-.658 6.135-.985 2.555-.438 5.085-.996 7.634-1.469 1.331-.247 2.654-.525 3.973-.825 1.265-.287 2.531-.574 3.785-.91.301-.08.6-.17.9-.26a60.8 60.8 0 002.899-1.023c.925-.35 1.851-.702 2.757-1.1.403-.178.91-.17 1.324-.04zm-8.786-8.639c.451.264.79.702.928 1.206.143.521.07 1.09-.204 1.556-.27.463-.7.768-1.206.927-.355.112-.727.177-1.09.26l-1.292.301c-.756.178-1.513.358-2.262.565a85.761 85.761 0 00-4.794 1.49c-.655.227-1.31.452-1.969.67-.624.207-1.267.36-1.904.52-.66.166-1.332.293-1.998.43-.633.13-1.268.254-1.906.36-2.718.46-5.455.843-8.191 1.18-1.435.176-2.87.34-4.303.544-1.489.212-2.966.532-4.44.825l.044-.009c-1.52.315-3.046.627-4.548 1.018-.825.216-1.646.435-2.467.664-.352.097-.703.204-1.057.293l-.717.18a3.125 3.125 0 01-.74.115 1.4 1.4 0 01-.215-.015c-.563-.09-.888-.722-.595-1.224a.829.829 0 01.775-.396c.57-.315 1.126-.659 1.7-.968.628-.34 1.255-.67 1.898-.983.631-.305 1.276-.572 1.924-.843.26-.11.532-.197.799-.295.331-.12.662-.249.999-.358 2.642-.861 5.305-1.63 8.052-2.078 1.968-.321 3.944-.597 5.915-.904 2.015-.315 4.03-.62 6.033-1.007.767-.16 1.534-.32 2.295-.513.825-.21 1.631-.46 2.438-.729 1.709-.596 3.42-1.191 5.165-1.673a92.39 92.39 0 015.378-1.313c.54-.114 1.07-.08 1.555.204zm7.358-12.662c.413.976-.043 2.258-1.072 2.64-1.272.472-2.58.853-3.866 1.283-1.24.414-2.476.836-3.728 1.218-1.259.385-2.519.773-3.784 1.136-1.313.377-2.637.741-3.983.977a45.986 45.986 0 01-3.027.431c-.958.103-1.922.154-2.883.214a53.405 53.405 0 00-5.627.767c-1.24.275-2.445.653-3.648 1.059-1.238.417-2.48.81-3.738 1.162-1.228.343-2.474.63-3.71.944-1.282.325-2.563.655-3.846.978-1.144.287-2.29.569-3.428.873-1.105.296-2.195.63-3.278.994-.629.236-1.252.478-1.872.735-.571.237-1.132.498-1.695.754l-.924.484c-.357.186-.698.402-1.054.59-.33.173-.68.273-1.041.273-.17 0-.343-.022-.516-.07a2.038 2.038 0 01-1.208-.928c-.602-1.029-.154-2.427.959-2.883.71-.291 1.44-.54 2.162-.8.552-.2 1.1-.41 1.65-.612a227.93 227.93 0 014.09-1.477c2.505-.87 5.057-1.607 7.606-2.335l1.242-.347 2.488-.674a74.344 74.344 0 003.706-1.096c1.214-.4 2.416-.83 3.642-1.193 1.288-.38 2.631-.609 3.96-.794.916-.126 1.83-.248 2.75-.35.846-.094 1.7-.133 2.551-.186a46.779 46.779 0 004.165-.535c2.474-.528 4.887-1.292 7.305-2.03 2.433-.742 4.816-1.652 7.26-2.362.958-.278 2.007.25 2.392 1.16zM99.903 35.542c.45.264.787.7.925 1.203.28 1.02-.337 2.233-1.406 2.476-2.54.574-5.098 1.073-7.627 1.689-1.37.333-2.73.705-4.084 1.102-1.229.36-2.445.763-3.67 1.141a38.19 38.19 0 01-3.702.952c-1.173.238-2.349.467-3.524.695-1.679.327-3.361.63-5.043.94l-2.493.468-.004.002-.01.001-1.47.305c-1 .21-2.001.422-3 .64-1.513.332-2.997.772-4.464 1.266-.748.294-1.482.604-2.217.932-.949.483-1.875.99-2.774 1.567a1.806 1.806 0 01-.983.282c-.712 0-1.426-.386-1.791-1.01a2.042 2.042 0 01-.204-1.562c.143-.523.482-.924.931-1.212a28.174 28.174 0 013.742-2.025 32.138 32.138 0 014.026-1.46 48.44 48.44 0 013.756-.929c1.36-.287 2.72-.583 4.084-.849 1.834-.355 3.677-.663 5.51-1.015 1.708-.328 3.414-.657 5.118-1.001a45.445 45.445 0 003.85-1.026c1.264-.391 2.522-.799 3.792-1.17 2.558-.75 5.155-1.32 7.761-1.877 1.14-.243 2.281-.477 3.42-.728.536-.118 1.069-.079 1.551.203zm-45.86-6.75c.366.085.717.215 1.048.393.376.202.7.454 1.016.74.538.49.878 1.158 1.098 1.84.2.626.179 1.264.102 1.907a5.133 5.133 0 01-.548 1.732 3.667 3.667 0 01-1.448 1.509c-.698.394-1.558.523-2.373.405a5.91 5.91 0 01-.66.048c-.119 0-.236-.007-.35-.024a5.262 5.262 0 01-1.245-.347 3.928 3.928 0 01-2.012-1.93 3.647 3.647 0 01-.31-1.087c-.043-.346-.012-.692.02-1.038.025-.298.1-.596.19-.88.088-.27.173-.541.298-.797a4.788 4.788 0 011.207-1.567 4.442 4.442 0 011.79-.887 4.68 4.68 0 012.177-.018zm52.918-12.746c.606.355 1.06.944 1.247 1.623.355 1.288-.318 2.712-1.562 3.224-.648.266-1.345.429-2.021.613-.591.163-1.187.306-1.786.442-1.24.282-2.48.563-3.7.918-2.505.727-4.982 1.544-7.527 2.126-1.285.294-2.579.557-3.862.857a62.16 62.16 0 00-3.723 1.002l-3.08.932c-1.541.464-3.084.917-4.64 1.33-2.326.617-4.66 1.244-7.016 1.735-1.257.263-2.522.532-3.803.648-.521.047-1.05.087-1.578.087-.79 0-1.576-.091-2.319-.387a1.018 1.018 0 01-.616-.563c-.133-.313-.102-.736.13-1 .079-.09.159-.188.26-.257.114-.078.235-.137.36-.174.504-.27 1.042-.445 1.588-.623.59-.192 1.182-.379 1.772-.573 2.368-.83 4.707-1.745 7.066-2.604 2.515-.917 5.046-1.793 7.57-2.692 2.568-.916 5.167-1.75 7.827-2.356 1.284-.294 2.57-.58 3.844-.911a89.33 89.33 0 003.744-1.076c1.663-.51 3.32-1.014 5.013-1.417.778-.187 1.564-.347 2.338-.548.417-.108.833-.22 1.248-.336.486-.135.982-.32 1.487-.366.612-.055 1.2.031 1.739.346zM129.145 108.647a39.63 39.63 0 014.183.355c1.364.194 2.707.465 4.044.792 1.313.322 2.606.744 3.89 1.16 1.58.513 3.153 1.052 4.693 1.676 1.633.662 3.19 1.476 4.777 2.237a50.494 50.494 0 005.384 2.17c1.176.36 2.362.68 3.55 1.003 1.234.334 2.46.7 3.684 1.074a485.015 485.015 0 018.536 2.664c1.275.398 2.554.783 3.822 1.202.583.193 1.16.396 1.73.62.557.219 1.121.43 1.668.675.471.212.85.541 1.058 1.024.195.456.206.98.024 1.444a1.905 1.905 0 01-1.789 1.203c-.226 0-.456-.04-.678-.12-.693-.253-1.368-.556-2.059-.82-.734-.28-1.484-.52-2.234-.759-1.747-.55-3.496-1.099-5.243-1.653l.008.003a564.871 564.871 0 00-7.201-2.216c-2.549-.766-5.144-1.356-7.646-2.273a50.951 50.951 0 01-3.616-1.514c-1.222-.557-2.408-1.187-3.617-1.77-2.859-1.299-5.847-2.303-8.835-3.263a62.186 62.186 0 00-3.215-.878c-1.097-.268-2.208-.475-3.32-.672a36.364 36.364 0 00-3.197-.365 20.163 20.163 0 00-1.064.013c-.174.021-.345.046-.516.074-.377.348-.97.465-1.456.347a1.644 1.644 0 01-1.181-1.138 1.645 1.645 0 01.405-1.589 1.66 1.66 0 011.548-.44l.012.003c1.28-.153 2.558-.314 3.85-.269zm4.404-10.702c1.391-.007 2.774.13 4.154.298.655.08 1.312.203 1.959.336.728.149 1.446.317 2.167.495 1.35.334 2.674.782 3.994 1.21 1.23.4 2.444.85 3.635 1.35 1.223.512 2.427 1.07 3.643 1.597 2.395 1.04 4.796 2.068 7.279 2.884.486.16.973.318 1.461.474.823.254 1.646.5 2.48.71.946.238 1.932.38 2.82.793.38.176.695.408.911.773.24.409.315.904.203 1.365a1.846 1.846 0 01-.848 1.143 1.795 1.795 0 01-.926.247c-.145 0-.291-.015-.438-.044-.67-.131-1.336-.26-2.001-.416a43.329 43.329 0 01-1.887-.493c-1.358-.381-2.698-.84-4.033-1.296a54.012 54.012 0 01-3.527-1.367 186.412 186.412 0 01-3.734-1.62c-1.64-.735-3.271-1.477-4.95-2.121a97.324 97.324 0 00-4.88-1.698 51.843 51.843 0 00-2.973-.81 64.233 64.233 0 00-3.162-.646 71.824 71.824 0 00-2.14-.287c-.654-.076-1.312-.117-1.97-.16a21.018 21.018 0 00-1.003-.012c-.743.565-1.902.196-2.166-.73-.281-.988.647-1.996 1.66-1.728l.048.013.205-.017c1.339-.136 2.672-.235 4.019-.243zm5.111-12.172c.74.019 1.473.112 2.205.205 1.365.17 2.717.478 4.057.782 1.288.293 2.558.663 3.82 1.054a176.03 176.03 0 017.645 2.577c2.472.894 4.912 1.87 7.368 2.804 2.752 1.046 5.515 2.055 8.317 2.96 1.96.607 3.937 1.167 5.927 1.674 1.02.26 2.043.513 3.074.728.503.105 1.006.21 1.51.309.544.106 1.094.195 1.635.318.919.208 1.542 1.129 1.442 2.054a1.92 1.92 0 01-1.866 1.707c-.079 0-.156-.006-.232-.02-2.645-.454-5.257-1.055-7.847-1.752-2.597-.699-5.164-1.48-7.707-2.355-4.975-1.713-9.818-3.784-14.777-5.543a432.364 432.364 0 00-4.333-1.515l-2.143-.726-.861-.265a71.394 71.394 0 00-6.465-1.652 57.98 57.98 0 00-1.692-.25c-.596-.08-1.193-.147-1.787-.252a59.063 59.063 0 01-2.6-.51c-.165-.036-.327-.078-.49-.118-.12.031-.248.041-.38.027a1.095 1.095 0 01-.955-.917 1.093 1.093 0 01.645-1.158c.25-.108.543-.111.802-.021.594-.087 1.208-.088 1.808-.11a99.2 99.2 0 011.94-.051 44.5 44.5 0 011.94.016zm.55-10.87c1.285.102 2.568.282 3.837.496 1.385.234 2.706.643 4.035 1.087a213.7 213.7 0 0110.427 3.792c1.06.42 2.099.881 3.15 1.317 1.039.43 2.104.793 3.17 1.144 2.152.668 4.34 1.208 6.519 1.779 1.036.272 2.071.548 3.11.813.554.142 1.11.275 1.667.406.55.13 1.11.235 1.655.382 1.003.27 1.651 1.277 1.401 2.303a1.926 1.926 0 01-2.302 1.4c-1.238-.295-2.482-.56-3.713-.882-1.265-.33-2.529-.663-3.793-.994-2.624-.685-5.246-1.361-7.795-2.295-1.175-.432-2.315-.945-3.47-1.426-1.19-.496-2.396-.949-3.601-1.405-2.451-.929-4.903-1.856-7.38-2.713-.639-.22-1.276-.442-1.919-.65-1.137-.334-2.29-.57-3.458-.78-1.52-.254-3.05-.505-4.589-.618-.283.211-.624.336-.993.344a1.755 1.755 0 01-1.636-1.053 1.757 1.757 0 01.207-1.732c.413-.55 1.062-.755 1.72-.66 1.241-.232 2.497-.156 3.752-.055zm15.62-13.123c.649.068 1.296.147 1.94.255 1.436.24 2.865.51 4.288.823 1.304.287 2.58.711 3.851 1.114 1.36.428 2.715.871 4.065 1.33 1.147.39 2.292.795 3.409 1.264a98.998 98.998 0 003.673 1.472c2.371.884 4.723 1.821 7.123 2.625 1.594.5 3.196.964 4.814 1.379 1.519.39 3.055.762 4.598 1.051l.062.01c.738.112 1.398.44 1.865 1.037.435.558.641 1.28.565 1.985-.151 1.392-1.367 2.444-2.739 2.444-.094 0-.188-.005-.284-.015-.625-.066-1.25-.226-1.864-.361-.625-.137-1.25-.278-1.873-.422a75.253 75.253 0 01-3.664-.944 94.212 94.212 0 01-4.132-1.271c-1.209-.405-2.397-.87-3.588-1.325-1.143-.435-2.29-.861-3.436-1.288-1.103-.411-2.186-.875-3.27-1.33-2.162-.907-4.419-1.603-6.648-2.318-1.077-.34-2.155-.682-3.25-.96-1.164-.293-2.341-.52-3.521-.738-.981-.163-1.958-.312-2.95-.38a13.41 13.41 0 00-.423.01c-.448.13-.912.159-1.394.041a2.762 2.762 0 01-1.712-1.27 2.762 2.762 0 01-.304-2.046c.166-.68.632-1.385 1.27-1.712.435-.224.858-.35 1.34-.44.309-.059.633-.062.947-.067.409-.006.834.003 1.241.047zm-8.728-2.263c.137.18.26.375.374.572.115.199.201.41.275.628.063.185.128.389.149.583.05.448.052.87-.03 1.315-.053.29-.14.566-.235.844a5.63 5.63 0 01-.474.996 4.6 4.6 0 01-1.57 1.594c-.555.345-1.227.534-1.87.607-.18.02-.359.031-.537.031a4.98 4.98 0 01-1.709-.31c-.55-.2-1.042-.547-1.472-.941a4.644 4.644 0 01-.76-.63 4.653 4.653 0 01-1.078-1.818 4.055 4.055 0 01-.192-1.037c-.02-.366.025-.714.09-1.073.064-.355.23-.702.395-1.018.188-.357.459-.68.741-.964.782-.788 1.869-1.303 2.959-1.462 1.886-.277 3.796.591 4.944 2.083z" fill="#262C30"/><path d="M85.167 177.755c2.727.068 5.452.201 8.176.366 2.741.165 5.473.53 8.191.912 1.64.23 3.273.524 4.92.712 1.676.192 3.355.345 5.035.492.762.052 1.519.093 2.282.12.672.021 1.347-.013 2.019-.042.875-.067 1.738-.16 2.605-.294.644-.136 1.277-.29 1.91-.472.758-.25 1.504-.526 2.25-.807.971-.366 2.084.1 2.469 1.075a1.92 1.92 0 01-.033 1.472c-.208.465-.583.795-1.044.996-.569.248-1.16.45-1.746.652-.671.231-1.349.433-2.037.606-1.38.346-2.821.522-4.241.581a59.798 59.798 0 01-2.181.051c-.6 0-1.2-.043-1.798-.085-1.389-.096-2.775-.23-4.16-.365a82.222 82.222 0 01-3.274-.384c-1.127-.155-2.25-.337-3.375-.508-2.127-.325-4.266-.56-6.405-.782a200.555 200.555 0 00-7.979-.437c-2.506-.094-5.017-.165-7.526-.1-1.803.045-3.605.09-5.406.17-.727.049-1.443.116-2.163.227l-.592.14a7.085 7.085 0 00-.524.192l-.042.022c-.686.505-1.71.236-2.112-.496-.425-.775-.05-1.723.746-2.06 2.553-1.083 5.354-1.478 8.1-1.712a69.042 69.042 0 014.156-.253c1.26-.03 2.52-.02 3.78.011zm-7.004-11.944c.731.02 1.458.063 2.187.131a93.67 93.67 0 013.823.446c1.775.237 3.559.437 5.343.593 1.5.114 2.999.223 4.496.37 1.462.143 2.922.302 4.385.434 2.226.162 4.46.06 6.689-.04.92-.05 1.843-.103 2.752-.248.325-.067.647-.148.965-.24.573-.322 1.343-.275 1.892.062.664.41.946 1.133.878 1.887-.065.728-.663 1.378-1.344 1.6-.291.096-.586.18-.883.259-.59.159-1.196.256-1.802.32-1.241.134-2.492.185-3.737.226-1.07.034-2.141.087-3.211.087-.227 0-.453-.002-.68-.008-1.335-.032-2.666-.178-3.993-.312-1.421-.143-2.841-.292-4.264-.42l-2.07-.148c-.345-.026-.69-.055-1.034-.088-1.026-.1-2.052-.21-3.075-.329-2.08-.241-4.147-.554-6.233-.74a26.636 26.636 0 00-2.383-.046c-.906.065-1.797.173-2.694.315a49.93 49.93 0 00-4.198 1.035c-.244.081-.487.162-.731.245-.49.166-.994.18-1.474-.033a1.92 1.92 0 01-1-1.046c-.424-1.076.222-2.245 1.312-2.549 1.33-.37 2.667-.714 4.015-1.017 1.286-.29 2.595-.548 3.912-.655.716-.059 1.438-.11 2.157-.09zm46.968-11.06l.02.003c.479.111.906.49 1.138.913.294.535.291 1.135.07 1.693-.18.457-.596.827-1.047 1.005a1.765 1.765 0 01-.29.084h-.002l-.002.001c-.222.084-.439.188-.656.283-.508.221-1.023.416-1.547.594-.547.185-1.091.39-1.65.533a18.82 18.82 0 01-1.998.374c-1.246.18-2.498.324-3.75.441-.729.069-1.46.095-2.192.095a40.46 40.46 0 01-1.781-.043c-2.09-.093-4.15-.445-6.222-.707-2.052-.26-4.118-.426-6.18-.603-1.253-.099-2.506-.186-3.762-.245-1.258-.06-2.518-.075-3.776-.108a105.903 105.903 0 01-3.77-.184 246.258 246.258 0 00-3.789-.197c-1.005-.047-2.01-.097-3.016-.143-1.098-.05-2.196-.115-3.293-.141a60.957 60.957 0 00-3.211.009c-.49.013-.98.03-1.47.015a12.54 12.54 0 01-.853-.055c-.296-.03-.594-.1-.825-.298a.587.587 0 01-.19-.607.573.573 0 01.108-.203h-.002c.233-.252.512-.41.807-.574.272-.153.557-.283.842-.41a14.124 14.124 0 011.842-.688c.315-.09.628-.178.947-.255.379-.09.762-.152 1.146-.218.636-.11 1.295-.142 1.939-.168 2.572-.106 5.156-.062 7.727.057 1.28.06 2.558.148 3.839.202l1.275.043 2.552.065c2.583.07 5.158.286 7.73.523 1.513.139 3.025.288 4.533.482.734.094 1.466.202 2.2.306.655.094 1.312.16 1.971.222 1.291.097 2.583.13 3.876.077a54.37 54.37 0 005.124-.612c.369-.074.73-.163 1.09-.273.767-.255 1.534-.512 2.276-.834.221-.096.44-.195.663-.286.13-.055.26-.098.393-.134.385-.138.77-.126 1.166-.034zm-40.576-13.064a70.886 70.886 0 013.858.093c.677.034 1.355.089 2.027.176.63.082 1.256.187 1.883.281 1.261.19 2.53.323 3.798.463 1.285.142 2.572.278 3.861.383l.159.013.937.07 1.004.076c.078 0 .156.007.232.017.18.01.363.03.545.046l-.253-.02c.543.043 1.085.09 1.628.134l-.189-.016 2.075.171c1.268.1 2.535.18 3.807.175.943-.003 1.756.759 1.865 1.682.119 1.016-.639 2.012-1.67 2.113-.204.02-.41.027-.615.027-.286 0-.572-.013-.857-.02a33.722 33.722 0 01-1.25-.061c-1.01-.066-2.018-.156-3.026-.238l.252.021-2.111-.174c-.14-.01-.283-.017-.425-.033a1.852 1.852 0 01-.192-.017 7.473 7.473 0 01-.114-.01c-1.059-.08-2.12-.153-3.177-.251a210.957 210.957 0 01-3.41-.352c-1.072-.119-2.144-.24-3.213-.39-.516-.072-1.028-.162-1.544-.238a27.769 27.769 0 00-1.53-.178 77.136 77.136 0 00-7.969-.087 94.93 94.93 0 00-2.76.207l-2.758.248c-.906.08-1.812.153-2.715.252-.479.053-.956.109-1.435.162-.36.039-.752.083-1.106-.003a.942.942 0 01-.45-.212 1.063 1.063 0 01-.141-.142c-.303-.368-.26-.894.014-1.262.234-.315.55-.565.89-.758.293-.165.588-.311.893-.453.315-.147.659-.246.99-.351 1.357-.433 2.765-.66 4.165-.904a44.728 44.728 0 013.99-.505c1.342-.11 2.69-.13 4.037-.135zm-8.237-19.062c.136.06.235.192.312.317.061.1.118.203.172.308.052.102.096.209.141.314.043.1.088.198.132.298.089.196.16.4.246.598.079.183.175.36.27.534v.001l.002.001c.096.174.192.348.277.528l.246.524c.08.169.161.336.237.506l.075.17.073.153-.008-.014a.65.65 0 01.036.08c.083 0 .165.002.248.008.267.018.532.066.796.103l.71.096c.248.034.497.058.746.088.18.021.36.045.542.075.17.027.34.055.511.07.058.003.117.002.176 0 .114-.002.229-.006.338.027.114.034.207.12.233.239a.295.295 0 01-.025.211c-.04.075-.115.125-.183.174-.104.074-.206.15-.306.232l-.291.252c-.208.174-.432.328-.653.486l-.192.144-.18.146-.249.233c-.09.086-.181.172-.275.254l-.266.224-.236.198-.147.14-.15.148.015.048c.031.115.044.235.06.353.015.12.028.24.037.359.019.262.03.524.053.785.023.256.051.512.087.767l.014.103-.001-.009.003.022v.007l.002.005v.006l.002.004c.037.24.077.481.129.72.054.259.117.519.164.78.026.143.048.286.065.43.008.061.008.123.01.183 0 .16-.02.319-.12.448a.348.348 0 01-.281.127.473.473 0 01-.157-.027c-.043-.015-.085-.033-.126-.05a7.013 7.013 0 01-.439-.19c-.218-.108-.43-.222-.64-.341-.217-.123-.441-.234-.657-.36-.241-.14-.477-.285-.706-.443l-.09-.066-.089-.067-.002-.001-.001-.001-.002-.002-.033-.026-.007-.005.007.005-.197-.158a6.315 6.315 0 01-.381-.34c-.089-.086-.181-.174-.251-.275a1.011 1.011 0 01-.052-.08l-.286.211-.284.215h.002c-.301.235-.596.482-.919.689-.336.218-.69.406-1.037.606-.302.177-.602.357-.913.518-.081.042-.163.086-.255.086h-.024a.373.373 0 01-.275-.158.405.405 0 01-.057-.107.34.34 0 01-.016-.17c.015-.124.04-.244.06-.368l.056-.342c.023-.125.048-.248.072-.373.1-.513.202-1.026.351-1.528.067-.227.138-.452.207-.678l.108-.348c.032-.104.063-.21.104-.31l.001-.003v-.001l.002-.003a.036.036 0 00.001-.003h-.001l.002-.002.001-.004c.045-.105.09-.21.143-.311.02-.039.042-.075.065-.11-.1-.08-.2-.16-.296-.244-.168-.145-.329-.297-.496-.442a5.535 5.535 0 00-.343-.261l-.174-.12-.004-.002-.003-.002-.03-.02.008.005.008.006c-.437-.285-.875-.565-1.313-.848a15.814 15.814 0 01-.695-.47c-.101-.074-.2-.151-.296-.23-.124-.101-.285-.216-.324-.38a.328.328 0 01.295-.401c.057-.004.113 0 .17.003.18.01.36.01.54.004h-.003.018l.014-.001c.23-.016.456-.05.686-.068.265-.022.532-.034.798-.05a9.22 9.22 0 00.767-.077c.258-.038.514-.093.772-.125.127-.016.253-.02.38-.023a1.77 1.77 0 01.278.013.214.214 0 01.056-.065c.026-.095.052-.19.082-.284.036-.109.08-.216.126-.32.103-.23.211-.458.32-.684l-.018.036.066-.142.048-.104c.229-.49.48-.966.715-1.452.122-.263.252-.524.394-.777.084-.15.145-.317.241-.461a.281.281 0 01.33-.097zm25.59 3.908c1.261.043 2.516.172 3.776.25 1.35.084 2.705.115 4.057.185.635.033 1.27.084 1.904.14l1.902.174c1.58.109 3.158.11 4.74.034.758-.039 1.516-.073 2.274-.11.449-.029.892-.082 1.335-.157.459-.091.9-.191 1.382-.117.964.148 1.791.8 2.148 1.708.386.982.17 2.288-.664 2.99-.386.324-.788.575-1.285.689-.083.018-.166.037-.25.053-.327.067-.658.125-.988.175-.987.152-1.991.155-2.987.202-1.446.076-2.89.14-4.337.097-1.451-.044-2.894-.21-4.339-.335-1.216-.088-2.434-.135-3.653-.19a92.459 92.459 0 01-3.79-.265 51.967 51.967 0 00-6.014-.101c-1.517.082-3.033.175-4.55.251-.379.023-.753.052-1.128.1a2.694 2.694 0 01-1.051.533c-.21.053-.423.078-.635.078a2.704 2.704 0 01-2.355-1.383 2.697 2.697 0 01.502-3.224c.588-.556 1.447-.815 2.249-.707.14-.045.282-.087.426-.124.43-.11.868-.182 1.306-.25.629-.096 1.263-.164 1.895-.24a87.882 87.882 0 013.813-.388c1.435-.112 2.88-.117 4.317-.068zM2.772 11.679c.13.097.197.247.261.39l.007.021c.139.047.27.119.376.185.34.217.632.51.912.8.296.304.557.65.818.985.267.344.523.697.773 1.053.962 1.373 1.822 2.811 2.691 4.245.271.446.528.9.784 1.355.142.251.282.503.422.754.13.233.27.461.381.703.13.28.194.567.14.875a1.343 1.343 0 01-.13.386 2.131 2.131 0 01.107.566l.12.279c.574 1.333 1.008 2.733 1.436 4.12.885 2.864 1.627 5.773 2.366 8.678.75 2.954 1.507 5.907 2.233 8.867a311.669 311.669 0 012.007 8.785c1.257 5.875 2.52 11.749 3.72 17.636.613 3 1.24 5.998 1.862 8.996.617 2.976 1.226 5.954 1.86 8.927.626 2.94 1.226 5.887 1.875 8.824.634 2.871 1.285 5.739 1.943 8.605.663 2.885 1.315 5.772 2.05 8.64.374 1.46.746 2.92 1.125 4.38.375 1.437.778 2.869 1.17 4.302a347.502 347.502 0 012.191 8.439c.722 2.925 1.35 5.872 1.976 8.82.613 2.893 1.22 5.788 1.89 8.669.663 2.845 1.325 5.69 1.973 8.54.274 1.21.536 2.422.822 3.63.234.986.475 1.97.714 2.954.102.19.157.404.15.628l-.026-.12c.09.373.038.752-.119 1.08a5.39 5.39 0 01-.172.593l.01.053-.038.023c-.05.134-.105.266-.166.396-.186.395-.463.743-.763 1.059a4.995 4.995 0 01-.807.685c-.675.46-1.416.803-2.22.96-.4.077-.803.116-1.208.102l-.15-.007a5.507 5.507 0 01-1.232-.238 4.785 4.785 0 01-1.837-1.059 3.646 3.646 0 01-.687-.826c-.139-.236-.26-.508-.206-.789l.02-.077L1.028 26.865a.884.884 0 01-.152-.147 1.016 1.016 0 01-.17-.964c-.401-.233-.677-.674-.641-1.156.175-2.314.316-4.634.578-6.942l.01-.082.006-.063-.007.062.01-.081.067-.595a34.29 34.29 0 01.4-2.729c.111-.556.25-1.11.463-1.637.171-.425.594-1.284 1.18-.852zm2.383 6.815l-.118.058c-.093.04-.189.07-.286.09-.115.021-.231.039-.347.056-.375.064-.744.123-1.126.122h-.056l-.141-.009c-.051.698-.106 1.396-.158 2.094-.072.985-.145 1.97-.22 2.955.694-.31 1.416-.542 2.139-.764a49.508 49.508 0 012.458-.673l.06.115a99.041 99.041 0 00-.566-1.05c-.349-.632-.692-1.267-1.038-1.9l-.6-1.094z" fill="#0062C3"/><path d="M115.483 15.259l-.08-.257-.683-2.161-.008-.028-.018-.054-.035-.11-.002-.007-.002-.006v-.002l-.003-.01-.1-.32-.11-.349.023.074-.338-1.086c-.48-1.558-.937-3.12-1.348-4.697a37.716 37.716 0 01-.618-2.833c-.098-.541-.15-1.078-.16-1.627-.006-.26.06-.522.124-.77.09-.344.362-.62.664-.782.357-.191.862-.098 1.086.252.396.36.63.905.856 1.374.29.605.524 1.236.763 1.863.46 1.212.864 2.446 1.282 3.673.842 2.47 1.688 4.938 2.49 7.422a442.814 442.814 0 014.673 15.375c1.382 4.876 2.58 9.802 4.068 14.647.17.555.342 1.11.515 1.665l.079.252c.116-.45.237-.897.366-1.343.148-.51.317-1.018.522-1.509l.02-.05a.84.84 0 01.348-1.051.805.805 0 01.234-.09l.07-.036a.818.818 0 011.03-.27c.14-.016.282-.024.425-.033.35-.021.712.026 1.06.052.295.023.59.062.884.106 1.337.201 2.661.48 3.984.762 2.635.559 5.27 1.115 7.897 1.719 5.28 1.212 10.512 2.616 15.786 3.852 2.64.618 5.282 1.225 7.91 1.896 2.606.665 5.196 1.396 7.781 2.138 2.584.741 5.162 1.506 7.73 2.302 2.555.793 5.1 1.617 7.649 2.429 2.526.803 5.064 1.576 7.585 2.397 1.27.412 2.542.821 3.784 1.31 1.124.442 2.266.839 3.407 1.238l.233.083c.432.15.79.552.964.966.078.187.123.386.134.587.138.064.257.17.326.306.18.355.25.746.248 1.143-.001.403-.02.807-.066 1.208a29.673 29.673 0 01-.355 2.31l-.139.7c-.467 2.304-1.135 4.567-1.793 6.822-.677 2.321-1.372 4.638-2.065 6.954a152.96 152.96 0 00-1.905 6.937c-.57 2.285-1.1 4.578-1.605 6.877-1.008 4.589-2.027 9.175-3.185 13.729a481.418 481.418 0 01-3.72 13.783c-.635 2.22-1.28 4.435-1.954 6.641-.666 2.18-1.353 4.351-2.001 6.535-.296.992-.57 1.993-.881 2.98-.156.49-.443.905-.896 1.166a1.934 1.934 0 01-1.46.191l-.034-.01c-.139.16-.304.298-.489.404-.3.173-.613.246-.936.246-.169 0-.34-.02-.512-.055-2.436-.5-4.832-1.175-7.219-1.86-2.473-.71-4.93-1.464-7.381-2.245-2.513-.8-5.022-1.612-7.541-2.396a319.586 319.586 0 00-7.728-2.273c-2.543-.72-5.097-1.4-7.644-2.11a216.832 216.832 0 01-3.931-1.139 47.188 47.188 0 01-1.895-.602c-.664-.228-1.332-.456-1.96-.774-.504-.256-1.023-.535-1.267-1.073-.162-.357-.09-.807.149-1.11.539-.684 1.537-.609 2.314-.547.667.053 1.33.176 1.985.31 1.349.275 2.688.597 4.026.926 2.556.627 5.105 1.287 7.644 1.981 2.602.71 5.195 1.456 7.78 2.23 2.504.75 4.993 1.553 7.484 2.351 2.437.782 4.877 1.554 7.333 2.277 2.38.701 4.768 1.383 7.183 1.961.502.12 1.003.24 1.503.367l-.221.787c.288-1.075.624-2.14.94-3.207.317-1.062.643-2.12.97-3.177.688-2.23 1.374-4.459 2.03-6.698a460.406 460.406 0 003.789-13.67 345.647 345.647 0 001.695-6.726c.554-2.315 1.08-4.637 1.597-6.96 1.033-4.645 2.04-9.296 3.31-13.885.642-2.317 1.368-4.612 2.07-6.912.708-2.313 1.43-4.623 2.152-6.932.425-1.354.845-2.71 1.3-4.053.214-.634.44-1.262.724-1.867a2.126 2.126 0 01-.264-.075l-.854-.296a51.508 51.508 0 00-1.663-.541c-.585-.178-1.178-.328-1.762-.508-1.247-.387-2.485-.804-3.728-1.203-2.5-.806-5.014-1.571-7.516-2.37-2.536-.81-5.069-1.628-7.614-2.408a438.397 438.397 0 00-7.871-2.324 267.66 267.66 0 00-7.804-2.11c-2.61-.663-5.24-1.249-7.86-1.867-2.592-.612-5.172-1.27-7.752-1.925a448.894 448.894 0 00-7.916-1.924c-2.375-.557-4.755-1.096-7.114-1.72a46.733 46.733 0 01-4.45-1.433c-.01.372-.041.745-.078 1.112a47.437 47.437 0 01-.53 3.736 126.855 126.855 0 01-1.708 7.917c-1.288 5.182-2.816 10.298-4.265 15.436-.695 2.461-1.39 4.922-2.07 7.388-.694 2.516-1.352 5.043-2.025 7.566-1.296 4.869-2.567 9.744-3.927 14.595-.398 1.42-.792 2.838-1.194 4.255-.197.69-.437 1.366-.641 2.052-.224.75-.417 1.51-.612 2.266-.203.782-.98 1.277-1.755 1.277-.171 0-.342-.024-.507-.074a1.828 1.828 0 01-1.057-.86c-.242-.438-.268-.923-.145-1.4.181-.708.363-1.416.534-2.125.135-.588.25-1.18.386-1.766.145-.622.318-1.236.49-1.849.34-1.214.684-2.425 1.022-3.639.68-2.436 1.333-4.88 1.983-7.325.791-2.971 1.57-5.947 2.363-8.919l-.26.08c-.638.202-1.273.395-1.923.552-.61.148-1.222.293-1.834.437-1.282.301-2.565.595-3.847.89-2.575.594-5.15 1.182-7.731 1.75-5.25 1.154-10.5 2.301-15.75 3.45-5.251 1.15-10.497 2.322-15.746 3.474-2.736.6-5.471 1.198-8.213 1.772-1.272.267-2.548.519-3.824.766-.675.132-1.356.254-2.036.352-.68.097-1.362.201-2.05.223a6.108 6.108 0 01-.787-.027 1.033 1.033 0 01-.612.084 1.09 1.09 0 01-.872-.81 1.087 1.087 0 01.119-.804 1.691 1.691 0 01-.725-.87c-.439-1.213-.888-2.42-1.264-3.656-.361-1.19-.696-2.389-1.031-3.586-.705-2.51-1.389-5.025-2.09-7.536-1.446-5.165-2.947-10.314-4.415-15.472a1085.626 1085.626 0 01-4.266-15.518c-1.391-5.176-2.783-10.353-4.075-15.555-.482-1.942-.96-3.884-1.435-5.827-.24-.983-.472-1.967-.69-2.955a30.538 30.538 0 01-.293-1.48 10.018 10.018 0 01-.12-.901 1.345 1.345 0 01-.322-.604 1.423 1.423 0 01.69-1.569c.161-.088.335-.142.512-.163a1.472 1.472 0 01.589-.926 4.53 4.53 0 01.907-.499c.57-.238 1.148-.446 1.738-.63a89.117 89.117 0 013.482-.992c2.374-.637 4.757-1.243 7.14-1.852 4.788-1.226 9.535-2.604 14.29-3.95 4.722-1.334 9.448-2.653 14.177-3.964A580.532 580.532 0 0189.85 4.922l14.19-3.534 1.3-.327c.423-.107.846-.223 1.276-.3a33.283 33.283 0 002.68-.571c.92-.243 1.89.373 2.112 1.283.11.453.033.938-.212 1.334-.25.402-.626.645-1.072.778l-.626.19c-.502.163-.997.342-1.496.515-.613.214-1.235.384-1.864.542-1.164.293-2.329.585-3.492.874-2.44.606-4.88 1.208-7.32 1.818-4.714 1.18-9.427 2.365-14.12 3.632-4.706 1.27-9.4 2.59-14.094 3.909-2.413.678-4.83 1.352-7.242 2.034a521.725 521.725 0 01-7.08 1.967 224.975 224.975 0 01-7.129 1.774c-2.428.568-4.859 1.138-7.32 1.545-.723.119-1.452.225-2.183.277a14.511 14.511 0 01-1.224.046l.01.086c.087.117.167.24.237.37.176.322.338.651.483.989.252.59.468 1.193.675 1.8.447 1.312.848 2.64 1.23 3.972.723 2.52 1.36 5.065 2.03 7.6a2690.506 2690.506 0 004.193 15.606 990.467 990.467 0 004.332 15.518c1.48 5.122 2.94 10.25 4.36 15.39.525 1.897 1.043 3.798 1.586 5.69.264.925.537 1.848.8 2.773.256.906.485 1.82.74 2.725.048.172.066.347.056.52l-.517.198a33.54 33.54 0 011.974-.71c1.269-.417 2.565-.758 3.858-1.089 2.66-.68 5.331-1.307 8.005-1.926 5.279-1.222 10.57-2.393 15.863-3.553 5.279-1.157 10.558-2.314 15.836-3.473a833.595 833.595 0 007.746-1.74l3.861-.892c.62-.144 1.242-.289 1.862-.437.606-.143 1.21-.303 1.819-.433.583-.124 1.168-.235 1.75-.363a36.48 36.48 0 001.65-.415c.169-.636.343-1.27.519-1.902 1.407-5.064 2.86-10.116 4.315-15.166.732-2.54 1.42-5.092 2.08-7.652.283-1.1.554-2.202.821-3.306a1.709 1.709 0 01-.823-.954 249.221 249.221 0 01-2.351-7.429c-.722-2.396-1.355-4.816-2.002-7.233a478.627 478.627 0 00-2.067-7.519c-.715-2.508-1.472-5.005-2.228-7.501-.424-1.399-.85-2.797-1.281-4.192l-.64-2.06-.035-.11-.03-.093-.056-.179-.113-.36z" fill="#252C30"/><path d="M135.478 192.593c.021-1.204.067-2.408.098-3.612.032-1.195.06-2.39.102-3.584.09-2.605.218-5.209.374-7.81.154-2.57.264-5.14.361-7.71.1-2.612.197-5.226.227-7.84.03-2.616-.001-5.232-.007-7.848-.006-2.637.004-5.274-.018-7.91-.044-5.339-.195-10.677-.385-16.011-.095-2.65-.152-5.299-.181-7.95a83.194 83.194 0 01.023-3.928c.024-.683.074-1.365.176-2.04.082-.544.249-1.259.708-1.627.151-.151.365-.25.572-.278a.982.982 0 01.538.08c.28.094.517.306.686.543.223.309.334.678.43 1.042.08.307.126.638.163.953.041.337.081.676.113 1.014.124 1.367.217 2.736.287 4.106.138 2.685.203 5.373.313 8.059.22 5.334.363 10.672.408 16.01.023 2.637.013 5.274.019 7.91.006 2.617.036 5.233.007 7.848-.029 2.615-.128 5.228-.227 7.841-.097 2.571-.206 5.14-.36 7.709a309.697 309.697 0 00-.375 7.81c-.082 2.398-.091 4.8-.21 7.196-.027.524-.191 1.004-.572 1.379-.354.349-.84.552-1.337.555h-.01c-1.023 0-1.943-.865-1.923-1.907z" fill="#262C30"/><path d="M133.758 117.459c-1.238-.028-2.476-.03-3.714-.04a236.901 236.901 0 01-7.876-.168c-5.245-.21-10.49-.412-15.733-.638-5.29-.229-10.58-.447-15.875-.523-5.266-.077-10.533-.124-15.8-.192a471.113 471.113 0 00-8.076-.053c-1.286.004-2.571.02-3.857.03-1.3.01-2.6.019-3.898.07l-.323.017-.311.03c-.43.146-.893.146-1.338-.04a1.92 1.92 0 01-1.148-1.495 1.92 1.92 0 01.733-1.776 1.88 1.88 0 011.414-.361l.07-.004c2.578-.211 5.157-.258 7.742-.295 2.676-.04 5.351-.017 8.026.016 5.263.065 10.526.114 15.788.187 5.296.073 10.587.266 15.879.495 5.242.228 10.486.436 15.73.641 2.637.104 5.273.176 7.913.2 2.41.022 4.817.051 7.226.108.31.007.618.009.927.026.525.03 1.003.19 1.38.57.35.355.551.84.554 1.34a1.94 1.94 0 01-1.908 1.933l-.289.001c-1.078 0-2.158-.056-3.236-.08z" fill="#262C30"/><path d="M55.98 194.784c-.007-1.27-.007-2.54-.083-3.808-.04-.642-.07-1.278-.068-1.922.003-.636.013-1.273.024-1.909.047-2.62.172-5.24.24-7.86.132-5.236.102-10.476-.004-15.712-.054-2.724-.122-5.446-.187-8.168-.063-2.628-.085-5.257-.128-7.884-.085-5.352-.22-10.701-.257-16.054a483.759 483.759 0 01-.007-8.183 83.57 83.57 0 01.132-4.118c.041-.68.088-1.372.208-2.044.07-.398.147-.79.243-1.184a4.87 4.87 0 01.402-1.047c.094-.183.221-.323.365-.465.061-.06.124-.113.19-.157a.9.9 0 01.457-.298c.434-.118.9.111 1.074.525a.894.894 0 01.048.531c.147.456.186.96.24 1.417.083.704.124 1.416.164 2.123.08 1.385.126 2.771.168 4.158.08 2.637.102 5.277.135 7.917.035 2.746.069 5.494.118 8.241.046 2.61.119 5.22.16 7.831.044 2.735.071 5.47.13 8.205.054 2.597.128 5.193.18 7.79.11 5.327.149 10.655.034 15.981-.045 2.098-.135 4.196-.199 6.294-.031 1.02-.054 2.042-.068 3.063-.007.5-.005 1-.016 1.5-.012.536-.051 1.072-.086 1.607a70.36 70.36 0 00-.058 3.607c.002.966-.794 1.781-1.764 1.787h-.01c-.961 0-1.774-.8-1.778-1.764z" fill="#262C30"/><path d="M61.115 196.658a26.933 26.933 0 01-2.123-.118c-.815-.082-1.727-.262-2.28-.918a1.33 1.33 0 01-.128-.178 1.357 1.357 0 01-.18-1.093c.098-.365.376-.709.728-.875.47-.247 1.09-.264 1.59-.3.663-.05 1.329-.086 1.994-.12 1.328-.067 2.655-.131 3.983-.182 2.69-.103 5.38-.204 8.072-.266 2.629-.06 5.26-.066 7.888-.105 2.694-.04 5.388-.095 8.082-.101 1.98-.005 3.958-.003 5.936 0 3.382.003 6.762.007 10.143-.022 5.329-.045 10.658-.096 15.987-.102 2.631-.003 5.264.013 7.895.094 1.272.039 2.545.084 3.818.097 1.145.01 2.288-.025 3.432-.057.098-.003.197.004.294.007.43.016.834.132 1.178.4.386.301.645.75.713 1.235.145 1.047-.602 1.965-1.618 2.137-.631.108-1.286.1-1.924.117a58.89 58.89 0 01-1.766.015c-1.268-.007-2.534-.05-3.8-.09a239.043 239.043 0 00-7.778-.102c-5.323.005-10.646.053-15.97.098-3.35.027-6.7.024-10.05.022-2.025-.002-4.052-.004-6.078.002-2.732.008-5.464.05-8.196.095-2.668.046-5.337.054-8.003.097-2.633.042-5.265.134-7.896.187-.92.019-1.842.037-2.763.037-.393 0-.786-.003-1.18-.011z" fill="#262C30"/></g></svg>