<?xml version="1.0" encoding="UTF-8"?>
<svg width="220px" height="182px" viewBox="0 0 220 182" version="1.1" xmlns="http://www.w3.org/2000/svg" xmlns:xlink="http://www.w3.org/1999/xlink">
    <title>Strategy and Visioning</title>
    <g id="Pages" stroke="none" stroke-width="1" fill="none" fill-rule="evenodd">
        <g id="Service-Landing" transform="translate(-142.000000, -2092.000000)">
            <g id="Grid" transform="translate(57.000000, 1496.000000)">
                <g id="Strategy-and-Visioning" transform="translate(0.000000, 523.000000)">
                    <g id="Group" transform="translate(85.000000, 73.000000)">
                        <path d="M31.3130194,30.7449975 C31.5367258,30.8020575 31.7552602,30.8792131 31.9728,30.9566546 L31.9284407,30.9412153 C32.435092,31.1215038 32.9386004,31.3209484 33.4032397,31.6017556 C33.9083394,31.9064978 34.3807764,32.2846379 34.7894791,32.7170198 C35.7125911,33.6934529 36.3420164,34.9108288 36.826866,36.1648833 C37.0941758,36.8573232 37.212295,37.6104176 37.3257197,38.342722 C37.3801046,38.6953342 37.3863507,39.057504 37.4018666,39.4133021 C37.4174222,39.7356075 37.4298348,40.0562792 37.4174222,40.3785846 C37.3894539,41.1348648 37.3195133,41.8847324 37.1780806,42.6266354 C37.0584496,43.2440845 36.8921518,43.8583477 36.6947826,44.4550886 C36.5331395,44.9433052 36.3792942,45.4331147 36.1834765,45.9085877 C35.9892502,46.3840198 35.7670159,46.8483422 35.5416783,47.3094379 C35.0443763,48.3225496 34.4631296,49.3038023 33.8430536,50.2419231 C33.8679187,50.2052446 33.8912322,50.168566 33.9160973,50.1318467 L32.9031152,51.7205455 L32.9161025,51.7026925 C32.920986,51.6954936 32.9258894,51.6882948 32.9308027,51.6810857 C32.7256755,51.9985714 32.5454135,52.3304345 32.3495958,52.6527399 C32.1297485,53.0145013 31.863314,53.3433828 31.6277917,53.694402 C31.2971853,54.2100253 31.0117339,54.7541991 30.6661289,55.2581409 C30.6647364,55.2602648 30.6633042,55.2624704 30.661872,55.2645535 C30.4785067,55.559738 29.0705054,57.7726624 28.7488106,57.6322792 C28.7194845,57.6196528 28.699301,57.5892077 28.6869942,57.5439085 L28.6821152,57.5195455 L28.6550956,57.5511534 C28.5962081,57.603701 28.5216032,57.6363391 28.4417564,57.6363636 C28.4256438,57.6363636 28.4093721,57.6350158 28.3929412,57.6322792 C28.3415533,57.622594 28.2986593,57.6063452 28.2566309,57.5830888 C28.1091312,57.5515733 27.9803835,57.4576937 27.9057971,57.322603 L27.9057971,57.322603 L27.8767151,57.2728949 C27.8111885,57.2041487 27.7485707,57.1318625 27.6862153,57.0585338 L27.6320094,56.9968277 L27.6320094,56.9968277 L27.5815929,56.9377561 L27.5815929,56.9377561 C27.5786787,56.9342843 27.5725917,56.9270548 27.566465,56.919907 L27.5351151,56.8824116 L27.5351151,56.8824116 L27.5411152,56.8885455 L27.2183704,56.495715 C26.7833582,55.9456632 26.3829895,55.3664855 25.9903357,54.7843016 C25.5381091,54.1142037 25.0905372,53.4409199 24.6398622,52.769229 C24.1254529,52.0001644 23.598631,51.2375532 23.060948,50.4860518 C22.4890507,49.6851283 21.8922882,48.8921696 21.3918432,48.0433353 C20.8738533,47.1652562 20.4375802,46.2542154 20.1027964,45.2884428 L20.0904235,45.2523769 L20.0904235,45.2523769 L20.0856097,45.2377137 L20.0856097,45.2377137 L20.0781152,45.2165455 L19.9634998,44.8519789 C19.4148529,43.0445134 19.1673911,41.1367328 19.4057778,39.2489839 C19.4772302,38.6857765 19.5673811,38.1305338 19.7305758,37.5864826 C19.881318,37.0807028 20.0631316,36.5908933 20.277608,36.1090486 C20.4920447,35.622425 20.7298346,35.1565505 21.0266643,34.716163 C21.3110415,34.2933797 21.6249784,33.8913046 21.9606374,33.5099786 C22.6226857,32.7569251 23.4106111,32.1442548 24.2637825,31.6352891 C24.7875012,31.3225413 25.346986,31.0864182 25.9266412,30.9061297 C26.1986058,30.8215812 26.482983,30.7784901 26.7596023,30.7210625 C26.9771819,30.6779713 27.1947615,30.6348802 27.4138927,30.5966087 C28.7161876,30.3684503 30.0324865,30.4131344 31.3130194,30.7449975 Z" id="Combined-Shape" fill="#0062C3"></path>
                        <circle id="Oval" fill="#FFFFFF" cx="28.3688014" cy="39.6880545" r="4.25"></circle>
                        <path d="M28.0392396,57.1500866 C28.005065,57.0198561 28.0361364,56.8834672 28.0578983,56.7532367 C28.0905213,56.5555767 28.1744262,56.371685 28.2599223,56.192422 C28.4463907,55.7955721 28.6872838,55.4400665 28.9623515,55.0983685 C29.613499,54.2893314 30.4946785,53.6733648 31.358711,53.1033712 C32.7760219,52.1686931 34.2648249,51.3443186 35.7769415,50.5720755 C36.6876408,50.1062663 37.8485427,50.5077056 38.3023209,51.4025693 C38.7654086,52.3142609 38.3707099,53.4312617 37.4600106,53.8924815 C36.802617,54.2250006 36.1545728,54.5743478 35.5034253,54.9160458 C34.6797737,55.3481599 33.8499158,55.7679962 33.0231213,56.1908922 C32.0984577,56.6628207 31.1660363,57.1332194 30.1543249,57.3952493 C29.7657928,57.4963741 29.3663995,57.5484663 28.9654547,57.5638036 C28.935537,57.5650589 28.9041871,57.5657649 28.8719619,57.5657649 C28.5479597,57.5657649 28.1297087,57.4929222 28.0392396,57.1500866 Z" id="Fill-14" fill="#0062C3"></path>
                        <path d="M43.2674245,49.4154957 C42.7561185,49.2668682 42.4018007,48.7995292 42.3505189,48.287747 C42.2774752,47.5691259 42.8027455,46.9317027 43.3295674,46.5011185 C43.8657386,46.0628851 44.4640527,45.7150678 45.0701247,45.379489 C46.0103438,44.8554683 46.9878806,44.3942485 47.9638259,43.9391872 C49.5878156,43.1822423 51.2335671,42.4712703 52.8995291,41.8047414 C53.2196722,41.6760015 53.5398154,41.5963334 53.8941332,41.6147305 C54.5639394,41.6514853 55.1762575,42.0529638 55.4761903,42.6428842 C55.7978851,43.275718 55.7341508,44.1490858 55.2275393,44.6807948 C54.9664756,44.9550633 54.6976142,45.1312666 54.3495027,45.2737748 C54.2780106,45.3028806 54.2065185,45.3319863 54.1350263,45.3596014 C54.0044945,45.4116936 53.8739626,45.4653156 53.743391,45.5174078 C53.4931884,45.6200623 53.2414342,45.7227169 52.9912316,45.8269405 C53.06893,45.7947359 53.1466285,45.7625706 53.224327,45.7288754 C51.5599564,46.4199206 49.9204112,47.1661176 48.2824175,47.9169432 C47.4198968,48.3122633 46.5604793,48.7152324 45.6808912,49.0722678 C45.172728,49.2775769 44.6256957,49.4691177 44.0739689,49.5043819 C44.0219312,49.50752 43.9703312,49.5090891 43.9192483,49.5090891 C43.6973322,49.5090891 43.4834128,49.4790026 43.2674245,49.4154957 Z" id="Fill-15" fill="#0062C3"></path>
                        <path d="M64.2589824,40.6878975 C63.5689659,40.6817783 62.624092,40.3707158 62.5852626,39.5616787 C62.5572943,39.0023938 62.8882986,38.5228162 63.2923466,38.1611913 C63.7523709,37.7490041 64.3133674,37.4593982 64.8852648,37.2311026 C65.7897578,36.8679479 66.7346317,36.6120765 67.6748111,36.3607944 C68.5995145,36.1125328 69.5272812,35.8704689 70.4628058,35.662061 C70.9072745,35.562466 71.3532948,35.4644009 71.8008667,35.3816732 C72.3067223,35.2887467 72.8206144,35.2691729 73.3300506,35.2097847 C73.9212831,35.1265863 74.5102479,35.0338951 75.1032707,34.9679562 C76.079216,34.8576133 76.9650503,35.6819878 77.0303361,36.6181957 C77.0629591,37.0778857 76.9106653,37.5421651 76.6091809,37.8930421 C76.2828314,38.273064 75.8461206,38.4569164 75.3565765,38.5197565 C75.2587472,38.5322304 75.1600427,38.5447043 75.0611393,38.5571782 C74.8192515,38.5905596 74.5774036,38.6259807 74.3355556,38.6637553 C73.8087337,38.7434627 73.3036737,38.8767528 72.7877129,39.0039236 C72.2531331,39.1357231 71.7076524,39.2307286 71.1699296,39.3486813 C70.6508656,39.4605539 70.1349048,39.5846651 69.6189837,39.7057167 C68.4844984,39.9738659 67.3515648,40.2496642 66.2062184,40.4687809 C65.5756792,40.5901463 64.9435486,40.6880545 64.302745,40.6880545 C64.2881442,40.6880545 64.2735832,40.687976 64.2589824,40.6878975 Z" id="Fill-16" fill="#0062C3"></path>
                        <path d="M97.0999357,39.9884188 C96.7373429,39.8758793 96.4217351,39.6561742 96.0945103,39.4682422 C95.2987076,39.0473468 94.4613703,38.7102382 93.6237943,38.3821516 C92.4132019,37.9182644 91.1897593,37.5167859 89.9325399,37.1923081 C88.9212662,36.9558535 87.8983755,36.7701182 86.8695172,36.629689 C86.401735,36.565319 85.9261948,36.522445 85.4677221,36.4166915 C84.7714992,36.2588852 83.8779071,35.9156573 83.8421809,35.0821039 C83.8017602,34.1673526 84.620757,33.5942602 85.4164403,33.3383887 C86.1111116,33.1162124 86.8819298,33.0641202 87.6092242,33.1024048 C88.2821335,33.1391989 88.9488366,33.2219266 89.6155396,33.3215215 C90.3164173,33.4272357 91.0033307,33.6111274 91.6824464,33.8057278 C92.8495546,34.1397375 93.9980041,34.5350968 95.1324894,34.964112 C96.1519586,35.351783 97.1543207,35.7700895 98.1100955,36.2941102 C98.4535124,36.4825913 98.8156279,36.6848408 99.0704852,36.9882542 C99.3408982,37.3100254 99.5211603,37.6762397 99.5507199,38.0991357 C99.5786882,38.4944557 99.4745332,38.8958951 99.2569934,39.229944 C98.9052616,39.7695375 98.2964445,40.0746376 97.6692471,40.0746376 C97.4789197,40.0746376 97.2869611,40.0465518 97.0999357,39.9884188 Z" id="Fill-17" fill="#0062C3"></path>
                        <path d="M89.921639,54.8785065 C89.4414441,54.0587607 89.6760911,53.0397858 90.4111831,52.4544548 C90.67535,52.2430264 91.0001479,52.0897703 91.2876681,51.9105073 C91.5604681,51.7405408 91.8303639,51.566338 92.0987479,51.3905661 C93.059257,50.7573401 94.0073534,50.1059132 94.8845545,49.3652864 C95.4382307,48.8755492 95.9633817,48.3622372 96.4585752,47.8161715 C96.8767864,47.3359271 97.274628,46.8362658 97.6383746,46.3127942 C97.9276055,45.8719328 98.2093968,45.4227946 98.5358258,45.009156 C99.0517867,44.353375 99.9236169,43.8691688 100.742614,44.3242301 C101.567817,44.7823902 101.659519,45.7844979 101.460599,46.6042437 C101.295852,47.2830504 100.963296,47.9358109 100.596526,48.528791 C99.8521247,49.7270289 98.9025961,50.7965662 97.867611,51.7572904 C96.8714553,52.6827504 95.7711446,53.4749595 94.6382507,54.2288056 C94.0585556,54.6149467 93.4757972,54.9980283 92.8790347,55.3596531 C92.6925265,55.4714866 92.5014034,55.5925381 92.2978278,55.6706764 C92.0610723,55.7604648 91.8146094,55.8042019 91.5715281,55.8042019 C90.9098777,55.8042019 90.2728536,55.4802732 89.921639,54.8785065 Z" id="Fill-18" fill="#0062C3"></path>
                        <path d="M71.3720729,65.5423021 C70.9042907,64.7439737 71.1125608,63.6897738 71.8600655,63.1289983 C72.1475459,62.9144711 72.4816931,62.7750225 72.8033879,62.6156863 C73.0318285,62.5022838 73.2618208,62.3888813 73.4902615,62.2739883 C74.4320322,61.7989609 75.3629021,61.3040459 76.3000182,60.8183099 C77.4173962,60.2376075 78.5176671,59.6247006 79.6428429,59.0592965 C80.3032998,58.7283071 80.9715544,58.4095955 81.6786782,58.1858894 C82.1655966,58.0310642 82.7181986,57.9272329 83.2308972,58.0181197 C83.2863961,58.0082347 83.3435659,58.002743 83.4021282,58.0019977 C83.7751048,57.9974083 84.1325257,58.198128 84.3190339,58.5168395 C84.5476337,58.9067464 84.4689008,59.3817738 84.2019889,59.7015445 C84.0397093,60.1537423 83.7256531,60.5562407 83.3632591,60.8719711 C82.8208816,61.3438996 82.2319168,61.7376898 81.6242535,62.1223012 C80.5644033,62.7918897 79.4594379,63.3971475 78.3498575,63.9839691 C77.3909795,64.4911618 76.433693,64.9998844 75.4655055,65.4917397 C75.2292671,65.6112614 74.9930685,65.7292534 74.7552786,65.8472061 C74.4413417,66.001992 74.1227899,66.1904339 73.7932975,66.3130153 C73.7031863,66.3452199 73.6037259,66.3804449 73.5089203,66.406491 C73.3468396,66.451444 73.1816557,66.4729791 73.0177052,66.4729791 C72.3545031,66.4729791 71.7109943,66.1209254 71.3720729,65.5423021 Z" id="Fill-19" fill="#0062C3"></path>
                        <path d="M52.8260875,77.4109255 C52.0179915,77.2546489 51.4010187,76.4287446 51.4087042,75.6350449 C51.4165345,74.9838142 51.7118126,74.472032 52.2075631,74.0629044 C52.2852615,73.9970438 52.3707577,73.9387932 52.4546625,73.8790519 C52.6520318,73.7380735 52.8509526,73.600194 53.051425,73.463805 C53.7491995,72.9903467 54.4563232,72.5291269 55.1680619,72.077086 C57.0842265,70.8604903 59.0796411,69.7403907 61.1465876,68.7903752 C61.7635207,68.5069278 62.4084618,68.2280307 63.0705101,68.0671647 C63.5196335,67.9583516 64.0309396,67.8710345 64.4862694,67.9936159 C65.0146429,68.1376539 65.4342465,68.4609549 65.5321553,69.01871 C65.6424768,69.6438554 65.2244646,70.2031403 64.8188252,70.6306257 C64.4272297,71.0412832 63.9097173,71.3523457 63.4294826,71.6511304 C62.619835,72.1552635 61.765112,72.5873384 60.9336628,73.0546774 C59.2752996,73.9877473 57.640807,74.9517272 56.0490425,75.9924726 C55.7507806,76.1895834 55.4528768,76.3892832 55.1587525,76.5927095 C54.9940062,76.7076026 54.8277084,76.8225349 54.6661051,76.9405268 C54.6070654,76.9834401 54.5495375,77.027844 54.4904978,77.0707572 C54.1271888,77.3368667 53.7255677,77.4581536 53.3001954,77.4581536 C53.1450769,77.4581536 52.9867757,77.4420317 52.8260875,77.4109255 Z" id="Fill-20" fill="#0062C3"></path>
                        <path d="M42.570963,95.5498709 C41.8778432,95.0105128 41.4644857,94.135576 41.1505489,93.3418762 C40.8987947,92.7075127 40.724739,92.0563212 40.601965,91.3866934 C40.4651871,90.6420262 40.4481197,89.8988889 40.4931553,89.1465334 C40.5802031,87.6801463 41.0899178,86.2505532 41.7644186,84.95578 C42.1280458,84.2570465 42.5756177,83.5920474 43.0760229,82.9822002 C43.6137457,82.3264192 44.2260638,81.7701939 44.9362509,81.3043847 C45.2661412,81.0875431 45.6601238,80.9380919 46.0607504,80.8918836 C46.200353,80.8022129 46.3595692,80.7412164 46.5276176,80.7175239 C46.9876419,80.6546838 47.4553843,80.8784291 47.6885195,81.2768088 C47.9200633,81.6721288 47.8858887,82.1762227 47.6045749,82.5393774 C47.5602553,82.5966474 47.5111219,82.6485042 47.4580896,82.6950263 C47.3708429,82.9720406 47.245125,83.2379147 47.0933086,83.5016706 C46.7700623,84.0624461 46.392431,84.5926253 46.0272123,85.1273939 C46.0272919,85.127237 46.0274112,85.1271194 46.0274908,85.1269232 C46.0243081,85.1317088 46.0210856,85.1364552 46.017863,85.1412407 C45.6593679,85.6791082 45.3350076,86.2350589 45.0437478,86.8090536 C44.8915335,87.1394545 44.7539201,87.4726797 44.6297537,87.8139855 C44.5273095,88.1448572 44.4409779,88.4773371 44.3709577,88.8157794 C44.3299403,89.0789077 44.2980731,89.3405454 44.2774252,89.6048505 C44.2726908,89.8036088 44.2745209,90.0007981 44.2836713,90.1984582 C44.3119976,90.4640185 44.3506678,90.7272644 44.4010346,90.9901966 C44.4570109,91.2337903 44.522615,91.4738537 44.5999554,91.711132 C44.6884752,91.9516661 44.7853496,92.1885521 44.8949152,92.4199858 C44.943054,92.5098134 44.9931025,92.5983074 45.0464929,92.6852715 C45.108039,92.7664302 45.1730065,92.84449 45.2346322,92.9266293 C45.7941169,93.6743954 45.7428351,94.7270262 45.0667828,95.3905347 C44.7051049,95.7463149 44.2082007,95.9327955 43.7120922,95.9327955 C43.3065324,95.9327955 42.9015694,95.808292 42.570963,95.5498709 Z" id="Fill-21" fill="#0062C3"></path>
                        <path d="M57.359891,102.620169 C56.2798304,102.499117 55.1810714,102.358139 54.1320823,102.073162 C53.5151094,101.906137 52.8810692,101.729934 52.3184813,101.421931 C51.6844411,101.075643 51.0566072,100.617483 50.8669958,99.8896832 C50.733321,99.3840203 50.9509006,98.855371 51.4093734,98.587261 C52.0838343,98.1934315 52.932351,98.2838475 53.6798557,98.3635156 C54.3123443,98.4294154 54.940218,98.5382284 55.5680519,98.6286052 C56.7956719,98.8064561 58.031567,98.9420213 59.2692922,99.0172176 C60.7685187,99.0800577 62.2586346,99.0328688 63.7564289,98.9856406 C64.6997512,98.9565349 65.5312005,99.693553 65.6617323,100.602185 C65.7332245,101.0971 65.5948949,101.607352 65.2872042,102.004202 C64.999684,102.375006 64.5241439,102.683009 64.0423975,102.719764 C62.9794043,102.802491 61.9117565,102.81171 60.8472118,102.817829 C60.8038868,102.818064 60.7604425,102.818182 60.7170778,102.818182 C59.5974718,102.818182 58.4715003,102.742593 57.359891,102.620169 Z" id="Fill-22" fill="#0062C3"></path>
                        <path d="M74.4396708,99.468827 C74.2230858,99.5129563 73.9974698,99.5107597 73.789518,99.4587067 C73.2331364,99.3192974 72.8073265,98.8504285 72.7265249,98.2896138 C72.6472748,97.7272692 72.9285489,97.1572756 73.4274025,96.873789 C73.5540753,96.8019661 73.6950704,96.7501878 73.8417546,96.7194738 C74.0906045,96.5563327 74.339733,96.4126084 74.611618,96.2869282 C75.10892,96.0571028 75.6233293,95.8793304 76.1423535,95.703127 C77.1665173,95.3583693 78.217058,95.0795114 79.2644955,94.8113622 C80.8418581,94.4098837 82.4285699,94.0437086 83.9857619,93.5656216 C84.9772629,93.2622474 86.0604266,93.9195581 86.3277364,94.8818514 C86.4598198,95.3598992 86.3945759,95.8778006 86.1459228,96.3083849 C85.889474,96.7496778 85.4792197,97.0392837 84.9927787,97.189441 C83.4371781,97.6705484 81.8489146,98.0352329 80.2684091,98.4229039 C79.2163168,98.6818742 78.1704309,98.9622619 77.1167871,99.2089545 C76.4542614,99.3650349 75.7587546,99.5171143 75.0729949,99.5171143 C74.8605475,99.5171143 74.6490151,99.5024437 74.4396708,99.468827 Z" id="Fill-23" fill="#0062C3"></path>
                        <path d="M94.0897066,93.1390384 C93.546056,93.2359659 92.9849402,92.9427905 92.7697874,92.4333619 C92.5630689,91.9445662 92.7184658,91.3638246 93.1458671,91.0405236 C93.2324772,90.9754476 93.3285162,90.9233554 93.4300454,90.8845608 C93.7171677,90.5966809 94.0749865,90.3746615 94.4357493,90.1885732 C95.0728927,89.8591529 95.7598061,89.6446257 96.4451282,89.4423762 C97.534538,89.120605 98.6441581,88.8677539 99.7428774,88.5797171 C101.505754,88.1182227 103.264174,87.6229155 104.992,87.0424485 C105.271882,86.9451287 105.549416,86.8416896 105.842586,86.7930886 C106.680241,86.65364 107.534964,87.1638923 107.856659,87.9238969 C108.221878,88.7911455 107.864457,89.7871339 107.054769,90.2636518 C106.72842,90.4567224 106.321269,90.560946 105.962256,90.6804285 C105.632804,90.7907714 105.301799,90.8980154 104.969204,91.002239 C103.826961,91.360765 102.673856,91.6794766 101.517609,91.9890093 C100.288358,92.3199594 99.0482061,92.6049758 97.8033994,92.8623771 C97.0745534,93.0125736 96.3441162,93.1565724 95.5997146,93.2071348 C95.3964573,93.2217269 95.1880679,93.2329847 94.9794397,93.2329847 C94.6788306,93.2329847 94.3777042,93.2095276 94.0897066,93.1390384 Z" id="Fill-24" fill="#0062C3"></path>
                        <path d="M113.607739,86.1991278 C113.603601,86.1977549 113.599464,86.1964213 113.595326,86.1950091 C113.146203,86.0448518 112.87579,85.4947458 113.006321,85.0534529 C113.016506,85.0200323 113.026691,84.9865724 113.036876,84.9531126 C113.148908,84.3160033 113.685318,83.8243048 114.254271,83.5073976 C114.868101,83.1656996 115.542562,82.9358742 116.212368,82.7275055 C117.443211,82.344424 118.697327,82.0257124 119.946828,81.7024113 C121.922032,81.192159 123.877066,80.6206356 125.836715,80.0552314 C126.834462,79.7671553 127.908316,80.3953604 128.178729,81.371422 C128.4569,82.3704701 127.841479,83.3925046 126.843771,83.6790116 C124.907396,84.2382965 122.975676,84.8067603 121.020682,85.3001847 C119.805395,85.6050887 118.59166,85.9084629 117.368615,86.1781419 C116.717468,86.3221799 116.061626,86.4600987 115.394923,86.5152505 C115.254206,86.5268222 115.110387,86.5339221 114.966328,86.5339221 C114.482553,86.5339221 113.995435,86.4542932 113.607739,86.1991278 Z" id="Fill-25" fill="#0062C3"></path>
                        <path d="M136.527635,80.1304669 C135.999938,80.227826 135.440891,79.9896062 135.165624,79.5179523 C134.876552,79.0230373 134.962049,78.3809855 135.372303,77.9780164 C135.441885,77.90941 135.517833,77.8504925 135.598436,77.8011461 C136.173954,77.1192014 137.279556,76.7766012 138.081048,76.5836483 C139.213981,76.3124394 140.384193,76.1592225 141.545055,76.0626872 C142.684195,75.9676817 143.832644,75.9140597 144.976439,75.9232386 C145.481539,75.9278281 145.986599,75.9431655 146.490107,75.9646221 C147.125739,75.9891384 147.761331,76.0197739 148.386061,76.1392957 C149.302967,76.3124394 149.901281,77.288501 149.797166,78.1649677 C149.688396,79.0659114 148.875606,79.8182669 147.941633,79.8075582 C147.502972,79.8020273 147.065665,79.7569566 146.628397,79.7278509 C145.047494,79.6550865 143.4611,79.6727383 141.881629,79.7780602 C140.898443,79.8581598 139.917843,79.9505371 138.937322,80.0542507 C138.404294,80.1109324 137.869714,80.1584351 137.333543,80.1829514 C137.276413,80.1854226 137.21789,80.1867563 137.158532,80.1867563 C136.953723,80.1867563 136.737894,80.1707913 136.527635,80.1304669 Z" id="Fill-26" fill="#0062C3"></path>
                        <path d="M169.439245,86.3672507 C168.983915,86.3151585 168.570518,86.0960418 168.256581,85.7727408 C168.159985,85.6727144 168.06148,85.5755907 167.958797,85.4819974 C167.676448,85.2483278 167.377709,85.0356442 167.071769,84.8323357 C166.014027,84.1524699 164.904049,83.5548612 163.771593,83.0065595 C162.671123,82.5012889 161.535205,82.0792167 160.399208,81.6601257 C159.75737,81.422612 159.120187,81.1851375 158.512564,80.8725452 C158.120133,80.6700996 157.690901,80.3922223 157.401591,80.0294207 C157.067921,79.8523543 156.867687,79.4837864 156.913439,79.1073733 C156.956923,78.7396292 157.230439,78.4270369 157.592555,78.3289718 C157.63958,78.3163017 157.686644,78.3075543 157.73347,78.3023373 C158.174398,78.0612932 158.720595,78.0009636 159.214993,77.9658171 C159.943879,77.9152547 160.711554,78.0746301 161.417126,78.2416546 C162.713215,78.5450288 163.987541,79.0000901 165.199725,79.5440768 C166.369976,80.0696274 167.509076,80.6748852 168.600038,81.3444737 C169.217011,81.721436 169.833983,82.116756 170.382567,82.5886845 C170.569036,82.7495505 170.753992,82.9104557 170.924945,83.0881889 C171.125417,83.2965969 171.304128,83.5172434 171.417592,83.7838628 C171.677104,84.3998293 171.580747,85.12151 171.170493,85.6501594 C170.812634,86.1118891 170.242328,86.3799207 169.658336,86.3799207 C169.585332,86.3799207 169.512249,86.3757627 169.439245,86.3672507 Z" id="Fill-27" fill="#0062C3"></path>
                        <path d="M178.329176,98.9996051 C178.24726,98.7404779 178.166538,98.4839396 178.073125,98.2287349 C177.834698,97.6299886 177.560387,97.0465797 177.292599,96.4606211 C176.942181,95.6990083 176.573023,94.9430832 176.171641,94.2062613 C175.923785,93.7671257 175.663796,93.3291278 175.474344,92.862887 C175.346915,92.5472351 175.236594,92.2177755 175.224141,91.8745477 C175.205482,91.3413481 175.457276,90.8770687 175.939023,90.6272772 C176.545095,90.3116645 177.289496,90.5920523 177.816318,90.9322205 C178.287204,91.2355947 178.678839,91.6401329 179.030054,92.0691481 C179.659439,92.8353111 180.130324,93.734725 180.574793,94.6127215 C180.912043,95.2777206 181.199524,95.9657062 181.476183,96.6567513 C181.668858,97.1424874 181.877128,97.6435609 181.973485,98.1584027 C182.142846,99.0593464 181.546084,99.9679784 180.669599,100.231538 C180.492957,100.284533 180.313809,100.309676 180.137048,100.309676 C179.332294,100.309676 178.576355,99.7885585 178.329176,98.9996051 Z" id="Fill-28" fill="#0062C3"></path>
                        <path d="M183.071011,148.709016 C183.064645,148.698195 183.058956,148.687254 183.053705,148.676274 C182.811499,148.486702 182.618068,148.241432 182.41676,148.009689 C182.067097,147.605601 181.740748,147.182894 181.422156,146.755532 C180.786524,145.905462 180.183556,145.032079 179.569686,144.168006 C178.927848,143.263512 178.289153,142.359057 177.703252,141.417286 C177.143807,140.517486 176.616945,139.599028 176.094778,138.677466 C175.529127,137.679757 174.966539,136.680497 174.372879,135.698305 C173.763704,134.689735 173.121866,133.701336 172.528207,132.683417 C171.990484,131.761855 171.491631,130.81698 170.989674,129.87676 C170.473713,128.913226 169.973308,127.940382 169.499319,126.956678 C168.580862,125.046717 167.71679,123.102582 167.09361,121.074502 C166.40984,118.842846 166.091248,116.458897 166.144082,114.126268 C166.198467,111.625751 166.830995,109.160999 167.979445,106.937102 C168.510921,105.909873 169.196283,104.961895 169.957792,104.093167 C170.363391,103.630039 170.775197,103.17626 171.227464,102.758207 C171.675036,102.343298 172.136572,101.942352 172.613663,101.563129 C173.480839,100.8716 174.402399,100.253075 175.347273,99.6749307 C176.234659,99.1310407 177.171775,98.6803253 178.146169,98.3166976 C179.176499,97.9343713 180.228631,97.6064698 181.300934,97.3640247 C182.450935,97.1014091 183.616491,96.8915872 184.802259,96.910246 C185.360152,96.9195953 185.92274,96.9661826 186.474427,97.0563336 C186.990388,97.1386869 187.501654,97.2645642 188.008305,97.3904812 C188.945382,97.6220254 189.866942,97.9017482 190.76678,98.2529633 C191.725618,98.6290434 192.647179,99.1434534 193.503493,99.7122483 C194.487196,100.364948 195.394793,101.109351 196.257273,101.914344 C197.004778,102.613711 197.727418,103.347213 198.397224,104.121135 C198.984677,104.7987 199.471118,105.564864 199.873614,106.363652 C200.338254,107.283662 200.715925,108.233232 200.989441,109.227837 C201.318893,110.42757 201.497604,111.663069 201.576854,112.901631 C201.732291,115.32445 201.326651,117.750332 200.583801,120.050377 C199.907789,122.146806 199.118312,124.1982 198.220065,126.209172 C197.492771,127.836267 196.745266,129.454053 196.005519,131.076493 C195.525324,132.127074 195.024919,133.166716 194.499649,134.195535 C194.27276,134.643108 194.044279,135.09068 193.795628,135.528903 C193.514354,136.024654 193.177104,136.484679 192.857,136.955565 C192.861536,136.948523 192.866191,136.941561 192.870806,136.934519 C192.556312,137.400273 192.236765,137.862685 191.921277,138.327484 C191.596638,138.819575 191.309635,139.334224 190.987423,139.825917 C190.664177,140.317013 190.361141,140.818971 190.059656,141.320928 C189.748863,141.839993 189.422473,142.3513 189.108576,142.868813 C188.80737,143.364524 188.514121,143.860235 188.193063,144.34238 C188.196723,144.337089 188.200423,144.331758 188.204083,144.326506 C187.994301,144.640444 187.809384,144.968345 187.605769,145.285385 C187.450372,145.526239 187.296527,145.765581 187.155094,146.014232 C186.935963,146.393416 185.950748,147.301013 185.700505,147.659986 C185.406819,148.084245 184.225189,149.130172 183.794725,148.878417 C183.348704,148.617313 184.472766,146.567472 184.677933,146.090379 C184.811488,145.78058 184.965771,145.475713 185.119179,145.173512 C185.117667,145.176576 185.116116,145.179679 185.114604,145.182822 C185.118224,145.175621 185.121805,145.16846 185.125386,145.161259 C185.143089,145.126447 185.160714,145.091676 185.178338,145.056944 C185.170023,145.072977 185.161708,145.089011 185.153473,145.105044 C185.18717,145.037729 185.220828,144.970414 185.254485,144.903059 C185.240799,144.931465 185.226358,144.960587 185.211757,144.98947 C185.216412,144.98032 185.221066,144.971209 185.225721,144.962059 C185.400215,144.60981 185.556129,144.24829 185.729508,143.896041 C185.719681,143.915416 185.709974,143.934632 185.700505,143.953529 C185.932049,143.48885 186.124764,143.003999 186.360962,142.53932 C186.573648,142.119755 186.795644,141.702817 187.00841,141.282337 C186.998663,141.301832 186.989075,141.321366 186.979487,141.341139 C187.026114,141.246333 187.074292,141.153118 187.120919,141.058313 C187.096054,141.109594 187.069638,141.160876 187.044773,141.210607 C187.417192,140.465727 187.834528,139.744001 188.215581,139.003537 C188.461606,138.508105 188.696253,138.006505 188.939175,137.510356 C189.229799,136.913593 189.453584,136.291965 189.70689,135.679646 C189.943089,135.107748 190.124942,134.514127 190.375145,133.948436 C190.655464,133.320362 190.982569,132.714926 191.29404,132.102368 C192.196504,130.285025 193.005475,128.424835 193.857811,126.582149 C194.737399,124.676844 195.584364,122.76378 196.307004,120.793228 C196.394051,120.555437 196.477956,120.317687 196.560349,120.079897 C196.533893,120.159147 196.505925,120.236845 196.479508,120.316135 C196.881407,119.152566 197.25705,117.983229 197.511867,116.776932 C197.619682,116.210365 197.705338,115.643201 197.749816,115.068001 C197.792186,114.336051 197.803485,113.605215 197.760996,112.873225 C197.706054,112.23063 197.612203,111.590741 197.487798,110.95658 C197.381574,110.468547 197.248814,109.987795 197.09286,109.514363 C196.926602,109.059072 196.737946,108.61333 196.525896,108.177176 C196.357052,107.848876 196.175119,107.531358 195.973573,107.221917 C195.79164,106.960972 195.598408,106.708303 195.391331,106.4655 C194.682775,105.674152 193.918362,104.922867 193.127493,104.215384 C192.636119,103.791165 192.129865,103.385684 191.595166,103.01585 C191.104627,102.692404 190.601636,102.394818 190.080981,102.125002 C189.641565,101.912872 189.192879,101.726682 188.732536,101.562771 C187.906736,101.287743 187.063511,101.066145 186.213562,100.88075 C185.875516,100.817096 185.536197,100.770787 185.194013,100.739357 C184.867266,100.722051 184.541274,100.720261 184.214408,100.733987 C183.719652,100.775641 183.230307,100.852384 182.742513,100.946474 C181.797361,101.147464 180.870708,101.405305 179.956348,101.713951 C179.354414,101.927831 178.767677,102.166059 178.191045,102.444469 C177.505683,102.802447 176.848926,103.215686 176.205975,103.645793 C175.519141,104.120817 174.859798,104.6328 174.226593,105.177923 C173.786381,105.57489 173.36817,105.990754 172.969652,106.430967 C172.585456,106.875038 172.220954,107.333273 171.885414,107.81494 C171.685698,108.122273 171.497558,108.434619 171.325611,108.758503 C171.055079,109.315521 170.822501,109.890085 170.609337,110.470218 C170.447893,110.952324 170.315491,111.439243 170.206642,111.934476 C170.101174,112.479361 170.023953,113.025718 169.978957,113.578599 C169.944146,114.283018 169.941321,114.986244 169.980787,115.690783 C170.052717,116.60025 170.170995,117.501362 170.344494,118.398457 C170.524318,119.23297 170.754191,120.049939 171.027946,120.857718 C171.725641,122.802808 172.60145,124.689813 173.522811,126.537074 C173.487085,126.46403 173.449767,126.390986 173.414041,126.317942 C174.208173,127.893755 175.025578,129.458707 175.816607,131.036112 C175.780881,130.966171 175.745115,130.894679 175.709389,130.824738 C175.75514,130.915048 175.800017,131.005398 175.845331,131.095708 C175.825877,131.057317 175.806502,131.018965 175.787087,130.980135 C175.844575,131.095151 175.902103,131.208616 175.959591,131.323592 C175.955215,131.314919 175.950958,131.306286 175.946661,131.297613 C176.478735,132.36391 176.989603,133.441545 177.519886,134.509433 C177.514078,134.498134 177.508269,134.486796 177.502501,134.475497 C177.748486,134.96528 177.996023,135.455104 178.241889,135.944887 C178.23437,135.929928 178.226771,135.915089 178.219212,135.900329 C178.233773,135.929252 178.248454,135.958135 178.263094,135.987019 C178.279525,136.019801 178.296036,136.052503 178.312467,136.085286 C178.301048,136.06241 178.28963,136.039613 178.278173,136.016857 C179.249742,137.933899 180.324193,139.797232 181.20768,141.759191 C181.638144,142.716479 182.035986,143.687771 182.44628,144.654408 C182.651407,145.137746 182.861229,145.621045 183.058598,146.107486 C183.266828,146.620305 183.487511,147.134715 183.655361,147.659986 C183.72745,147.886995 183.797191,148.119772 183.794725,148.358278 C183.859493,148.547771 183.798504,148.785999 183.579174,148.878417 C183.529643,148.899185 183.477406,148.909091 183.425567,148.909091 C183.283856,148.909091 183.14497,148.835291 183.071011,148.709016 Z" id="Fill-12" fill="#0062C3"></path>
                        <path d="M183.874107,100.409091 C174.959959,100.409091 167.707409,107.661641 167.707409,116.575789 C167.707409,119.251815 168.376462,121.905106 169.648356,124.258492 L182.990024,148.388095 C183.167636,148.709786 183.506094,148.909091 183.874107,148.909091 C184.24212,148.909091 184.580578,148.709786 184.75819,148.388095 L198.104784,124.250535 C199.371752,121.905106 200.040805,119.25172 200.040805,116.575694 C200.040805,107.661641 192.788255,100.409091 183.874107,100.409091 Z" id="Shape" fill="#0062C3" fill-rule="nonzero"></path>
                        <path d="M210.754027,6.26057069 C211.346134,6.40820972 211.913377,6.62419796 212.468167,6.87595216 C212.89712,7.06866665 213.296513,7.34063121 213.691252,7.59548857 C214.357915,8.02909619 214.928261,8.60875148 215.450428,9.2024108 C215.719289,9.50699837 215.944627,9.85355823 216.173068,10.189257 C216.538286,10.7253884 216.816457,11.3423613 217.015378,11.9562309 C217.242267,12.6540054 217.431878,13.3704387 217.560859,14.0930783 C217.82972,15.6051948 217.975807,17.129724 218.083026,18.6604596 C218.180935,20.0777705 218.238423,21.4982243 218.283498,22.9170868 C218.378304,25.9071055 218.445141,28.8986758 218.511939,31.8886946 C218.577225,34.872507 218.626955,37.8563194 218.689098,40.8385802 C218.754384,43.8488093 218.832082,46.8574868 218.88961,49.8677159 C219.006138,55.8959718 219.082285,61.9257395 219.173987,67.9555469 C219.267241,73.9915607 219.254789,80.0244315 219.184848,86.0604453 L219.122004,91.9006312 C219.110607,92.8739964 219.097827,93.8473603 219.082285,94.8207196 L219.086939,94.5689654 L219.086939,94.5689654 C219.083836,94.7368148 219.082285,94.9046642 219.079181,95.0724738 L219.079843,95.0307999 L219.079843,95.0307999 L219.076854,95.2154731 L219.076854,95.2154731 L219.075,95.284 L219.075,95.305 L219.074,95.341 L219.074527,95.305609 L219.074527,95.305609 C219.037225,97.7380288 218.973074,100.16971 218.899675,102.601244 L218.669337,109.895993 C218.63219,111.111907 218.597133,112.327933 218.566364,113.544142 C218.544005,114.463992 218.523238,115.383842 218.509194,116.303692 C218.476491,118.881029 218.484607,121.456775 218.532149,124.035665 C218.581879,126.672917 218.653372,129.308618 218.611399,131.945871 L218.611956,131.920687 C218.611121,131.974117 218.610285,132.027547 218.609529,132.081057 C218.59278,133.11091 218.571973,134.140723 218.555463,135.170576 C218.515002,137.763628 218.481504,140.356919 218.322367,142.948699 C218.241526,144.264998 218.100133,145.581296 217.898109,146.885143 C217.790851,147.579814 217.668077,148.274525 217.49247,148.956744 C217.358835,149.471153 217.192537,150.016634 216.824215,150.416027 L216.79004,150.456408 L216.79004,150.456408 C216.807148,150.436238 216.822663,150.416027 216.838219,150.395817 C216.786937,150.462654 216.734104,150.524797 216.667266,150.577631 C216.563748,150.659785 216.44547,150.698177 216.329499,150.698177 C216.13388,150.698177 215.944468,150.588969 215.842063,150.395817 C215.803632,150.322057 215.780477,150.243722 215.764962,150.160852 C215.616686,149.545709 215.653964,148.907253 215.652452,148.276077 C215.648036,147.3649 215.678749,146.453723 215.697846,145.542587 C215.737312,142.995962 215.624404,140.447707 215.584103,137.901083 C215.562341,136.559919 215.539027,135.218755 215.490849,133.877591 C215.441118,132.477387 215.386734,131.075592 215.347864,129.675388 C215.26396,126.651155 215.231297,123.626962 215.206432,120.602729 C215.183118,117.654682 215.142737,114.706596 215.114769,111.75855 C215.082432,108.200349 215.144585,104.644135 215.207343,101.087524 L215.251,98.545 L215.253059,98.4199533 L215.253059,98.4199533 L215.257713,98.1060165 L215.257713,98.1060165 L215.257475,98.1679206 L215.257475,98.1679206 L215.259583,98.0139161 L215.259583,98.0139161 L215.259305,98.0764966 L215.259305,98.0764966 C215.260856,97.9070956 215.26396,97.7361829 215.267063,97.5652303 L215.264735,97.6910925 L215.264735,97.6910925 L215.262408,97.8169845 C215.309035,94.8254142 215.335452,91.8338041 215.358765,88.8437853 C215.382039,85.8817349 215.419357,82.921236 215.436464,79.9591855 C215.47219,73.8625407 215.352519,67.7674872 215.26396,61.6708821 C215.176912,55.6721858 215.0759,49.6750412 214.940713,43.6778965 C214.803935,37.6527438 214.69982,31.6260793 214.545975,25.6009664 C214.469947,22.6123003 214.398574,19.6080388 214.08782,16.6316661 C213.979329,15.7527543 213.843148,14.8802477 213.645142,14.0162948 C213.546159,13.6460634 213.443078,13.2783781 213.31374,12.9171777 C213.258241,12.7899479 213.199519,12.6656622 213.137217,12.5421721 C213.014722,12.3383579 212.888169,12.1400736 212.755568,11.9425452 C212.61513,11.7635164 212.471788,11.5896199 212.323035,11.4179114 C212.157652,11.2570242 211.990001,11.1027412 211.816622,10.9515216 C211.622077,10.8096911 211.426777,10.6735099 211.226344,10.5404318 C211.030407,10.4300706 210.834868,10.3239662 210.632247,10.2253413 C210.396526,10.1343151 210.159771,10.0558607 209.92023,9.98146432 C209.491158,9.87679219 209.061887,9.78819285 208.627444,9.71371689 C208.050334,9.64218496 207.476448,9.59468267 206.89552,9.57113044 C206.484589,9.57419382 206.078512,9.5936085 205.668337,9.6302895 C204.572602,9.7948368 203.490512,10.0263011 202.413992,10.289354 C198.395553,11.365078 194.498296,12.8466801 190.631315,14.3723233 L190.645956,14.3665944 L190.645956,14.3665944 C190.47747,14.4329146 190.312365,14.5044465 190.143641,14.5625314 C190.046448,14.6041456 189.946908,14.6434126 189.845578,14.6835946 C189.921764,14.6540748 189.997911,14.6230033 190.074058,14.5934835 C188.427471,15.2512749 186.785481,15.9195339 185.140863,16.5817104 L182.699984,17.5570855 L182.699984,17.5570855 C177.201693,19.7405599 171.784203,22.1400225 166.177142,24.0422228 C163.482362,24.9560253 160.800034,25.9086571 158.106845,26.8286659 C155.500664,27.7176033 152.886725,28.5847788 150.261925,29.4146367 C149.550203,29.6398254 148.844688,29.8575657 148.116482,30.0100021 C148.192733,30.1187864 148.256708,30.2418148 148.307249,30.3766178 C148.423817,30.6921062 148.482856,31.0153526 148.534138,31.3479084 C148.644499,32.0783059 148.652257,32.8320567 148.680226,33.5686605 C148.733059,35.0123881 148.74396,36.4592586 148.753269,37.9045378 C148.770376,40.8199612 148.775031,43.7338331 148.776583,46.6492565 L148.779298,55.8748066 L148.779298,55.8748066 L148.779686,169.925824 L148.779686,169.925824 C148.779686,171.270091 148.787444,172.614358 148.742408,173.958626 C148.70525,175.107672 148.606943,176.252581 148.522282,177.399956 L148.513308,177.583085 C148.615729,177.550065 148.718023,177.516354 148.820266,177.482031 C149.449194,177.251243 150.069727,176.999866 150.687217,176.741075 L152.535908,175.955632 L152.535908,175.955632 C153.810235,175.417909 155.090807,174.895742 156.379138,174.390682 C159.033458,173.351002 161.717337,172.385918 164.402769,171.428631 C167.155037,170.449583 169.918167,169.495359 172.668884,168.510105 C175.306136,167.563639 177.92473,166.570626 180.523153,165.521598 C183.135541,164.464851 185.723063,163.347473 188.313689,162.239404 C190.882552,161.142236 193.468523,160.088592 196.063843,159.056671 C198.402714,158.127352 200.738482,157.187133 203.066453,156.23295 C204.160517,155.785378 205.25303,155.336255 206.34244,154.877782 C207.357732,154.449465 208.38289,154.028111 209.372163,153.541113 C209.673926,153.386234 209.964868,153.214366 210.257122,153.042419 C211.149163,152.514045 212.336482,152.834189 212.858649,153.723126 C213.115058,154.16294 213.184998,154.69752 213.049812,155.188615 C212.916137,155.675017 212.597545,156.057343 212.17643,156.324613 C211.055909,157.034839 209.814245,157.541451 208.597407,158.063618 C207.363461,158.592031 206.120206,159.103298 204.876951,159.613052 C202.339158,160.654283 199.793608,161.675304 197.246467,162.690079 C194.641837,163.726655 192.046557,164.784994 189.471448,165.893023 C186.82954,167.029059 184.181427,168.154195 181.514614,169.232744 C176.286736,171.347829 170.937636,173.139669 165.627405,175.034071 C162.938831,175.994501 160.250296,176.956442 157.597528,178.008574 C156.304543,178.521392 155.017764,179.045111 153.737191,179.58904 C152.411582,180.151628 151.095284,180.725077 149.732358,181.19441 C149.029928,181.435264 148.31815,181.624875 147.589304,181.770963 C147.082692,181.871975 146.56518,181.990094 146.046116,181.999403 L145.990339,182 L145.990339,182 C145.499123,182 145.04634,181.86362 144.579075,181.724336 C143.421276,181.379327 142.271275,181.004799 141.125929,180.616267 C138.569478,179.749131 136.033237,178.81667 133.5001,177.884249 C128.253563,175.952528 123.017927,173.99284 117.7807,172.033152 C115.154348,171.049448 112.523302,170.079709 109.910914,169.061792 C107.253452,168.025215 104.60685,166.96067 101.969597,165.874404 C96.8023502,163.746866 91.6241626,161.636435 86.5812411,159.22452 C84.8080211,158.376003 83.0488051,157.505725 81.3362559,156.537537 C80.5312233,156.082208 79.7324368,155.615977 78.9523091,155.120226 C78.5762294,154.882437 78.2110108,154.633785 77.856693,154.364964 C77.6950499,154.243742 77.5365498,154.108515 77.3997718,153.960876 C77.3305872,153.886838 77.2538833,153.807946 77.2021241,153.717715 C77.0887392,153.592236 77.0882221,153.386631 77.1915415,153.253792 C77.2752076,153.145062 77.4053018,153.100384 77.5307015,153.118287 C77.6654505,153.103368 77.8052918,153.120276 77.9390462,153.138776 C78.2451854,153.180748 78.542015,153.266205 78.8372931,153.353253 C79.4573691,153.539721 80.0743419,153.740233 80.6944179,153.931356 C82.0448914,154.347857 83.3860554,154.790774 84.7194615,155.260108 C86.0046492,155.710783 87.2805672,156.189426 88.5642033,156.643204 C89.924026,157.12499 91.2807456,157.614495 92.6312191,158.118043 C97.8839623,160.077692 103.052801,162.250305 108.263571,164.320315 C113.550529,166.419844 118.891871,168.374878 124.216107,170.376539 C129.346076,172.305116 134.482291,174.221281 139.64178,176.065953 C140.210575,176.269568 140.78092,176.470041 141.352818,176.668962 L141.116619,176.58812 L141.116619,176.58812 C142.486328,177.062394 143.862331,177.520128 145.248622,177.943014 C145.241448,177.760664 145.234467,177.581064 145.223698,177.401866 C145.142021,176.28039 145.046539,175.162654 145.006397,174.037876 C144.958218,172.710716 144.966016,171.378861 144.966016,170.05015 L144.966016,69.5158421 C144.966016,63.459618 144.966016,57.4034336 144.967567,51.3472094 C144.967567,48.3789526 144.969119,45.4106958 144.975325,42.4423993 C144.981531,39.5021107 144.964464,36.5571675 145.063924,33.6168392 C145.08879,32.8848901 145.113655,32.1466949 145.203766,31.4194006 C145.245738,31.0774954 145.306369,30.7324872 145.427552,30.4092408 C145.50159,30.208848 145.600295,30.0343546 145.726132,29.8804695 C145.730707,29.8743427 145.735242,29.8682557 145.739937,29.8622085 C145.830088,29.7454022 145.940927,29.6437935 146.065173,29.5601274 C146.092743,29.5397181 146.121069,29.5196669 146.150191,29.5001329 L146.183209,29.4818066 C146.018622,29.2991578 145.889742,29.0816513 145.811071,28.8380846 C145.529757,27.9693575 145.957119,27.0509003 146.7606,26.6499555 C147.159993,26.4510346 147.557835,26.2754273 147.980541,26.1308915 C148.333308,26.0112207 148.69228,25.9117603 149.048189,25.7998872 C149.662019,25.6056211 150.275889,25.4082519 150.888207,25.2077795 C152.223125,24.7741718 153.554979,24.3343977 154.885282,23.8914806 C157.589332,22.9885391 160.270109,22.0281494 162.966441,21.106589 C164.226763,20.6760845 165.491781,20.2580723 166.744345,19.8073973 C168.138343,19.3085038 169.519848,18.7801701 170.896738,18.2377926 C172.835937,17.4670142 174.765629,16.6713707 176.696633,15.8771196 C178.054334,15.3183908 179.416101,14.7702887 180.780097,14.2271789 L182.817,13.419 L182.822,13.417 L182.831271,13.4140421 L182.884508,13.3930162 L182.884508,13.3930162 L182.891,13.39 L182.845116,13.4085121 L182.845116,13.4085121 C184.103383,12.9066747 185.357,12.3920709 186.612485,11.8827128 L188.497929,11.1248612 C188.492837,11.1268902 188.487784,11.1289192 188.482692,11.1310278 C188.490887,11.1277257 188.499043,11.1244236 188.507238,11.1211215 L188.603322,11.0829785 L188.603322,11.0829785 L188.668,11.056 L188.627983,11.0727788 L188.627983,11.0727788 L188.602,11.082 L188.648005,11.0638174 C188.678718,11.0512705 188.709422,11.0387683 188.740175,11.0264352 L188.809797,10.9977011 L188.809797,10.9977011 L188.880454,10.9718513 L188.880454,10.9718513 C189.023796,10.9090321 189.172509,10.8566762 189.315653,10.7999837 C189.508367,10.7253884 189.701082,10.6492415 189.893756,10.5730946 C190.248114,10.4332533 190.603983,10.2949238 190.959853,10.1565942 C191.642111,9.89087578 192.328985,9.63132388 193.015898,9.37491494 C195.836516,8.31812815 198.680487,7.29865891 201.606772,6.56826142 C202.351173,6.38179304 203.100269,6.21704681 203.85398,6.06630461 C204.60614,5.9155624 205.375406,5.80209796 206.14157,5.77102653 C207.690964,5.7072923 209.251259,5.88914572 210.754027,6.26057069 Z M73.6171332,4.11314079 C73.8207088,4.20945826 73.9450343,4.38041081 74.0258359,4.58712934 C74.1408519,4.88236763 74.2154473,5.18699498 74.2760385,5.49778888 C74.4143681,6.18780545 74.5044792,6.88092518 74.5884238,7.58025124 C74.7655827,9.05660183 74.8883566,10.5454049 74.9986781,12.0295532 C75.2193609,15.011814 75.2659879,18.0018327 75.2939562,20.9918515 C75.3514443,26.9796866 75.3297222,32.9675218 75.3328253,38.955357 L75.3347648,47.7785698 L75.3347648,47.7785698 L75.3343769,127.757951 C75.3343769,129.181468 75.3405832,130.606576 75.3017141,132.030094 C75.277154,132.934282 75.2420025,133.837179 75.1947153,134.739622 L75.1152457,136.083105 L75.1152457,136.083105 L75.1144898,136.093052 L75.1144898,136.093052 L75.1152457,136.083105 C75.0499599,137.105678 74.973813,138.126699 74.872801,139.144616 C74.7800641,140.091519 74.6572504,141.035598 74.5885432,141.983654 C74.4847861,143.643052 74.5067867,145.305354 74.4236776,146.964711 C74.3926061,147.584787 74.3770505,148.203272 74.3428759,148.821796 C74.3135152,149.332545 74.2550723,149.840589 74.2159644,150.35106 C74.1867629,150.825566 74.1578796,151.300071 74.151713,151.774537 C74.1505886,151.869895 74.131053,151.961444 74.0964367,152.045458 C74.3355753,152.247098 74.5276002,152.508242 74.6433259,152.813541 C75.0131596,153.792629 74.4987901,154.894451 73.5321542,155.270531 C70.9042112,156.294655 68.2529944,157.256636 65.5846306,158.170439 C62.8789891,159.098205 60.1562802,159.960726 57.4226704,160.803036 L56.7168197,161.0199 L56.7168197,161.0199 L56.722,161.018 L54.7214434,161.628769 C53.3786807,162.036995 52.0347804,162.442051 50.6888821,162.840423 L46.6263677,164.036969 C45.949452,164.237533 45.2729178,164.439614 44.5972103,164.644635 C43.1918346,165.075418 41.7882891,165.5101 40.3962809,165.979633 C38.9650058,166.461379 37.5398972,166.958681 36.1179315,167.463781 C33.3827702,168.435072 30.6740255,169.47316 27.9792848,170.548605 C26.709613,171.055217 25.4492506,171.58359 24.1873367,172.112004 C22.8648314,172.665242 21.5361199,173.198271 20.2011622,173.720438 C18.8273752,174.258161 17.4488936,174.771018 16.0378289,175.204586 C14.5505774,175.663019 13.0338061,176.042242 11.4828204,176.197639 C10.9256432,176.253138 10.3659198,176.296741 9.80623612,176.296741 C9.58229105,176.296741 9.35846534,176.289779 9.13463962,176.273786 C8.71658761,176.242714 8.30167855,176.200742 7.88672971,176.133904 C7.49199122,176.071762 7.10815359,175.964543 6.72582776,175.849527 C6.32488294,175.726753 5.93949373,175.534039 5.56492581,175.34757 C5.05521109,175.092713 4.57032168,174.778776 4.14451176,174.399593 C3.83682102,174.124526 3.54930086,173.830799 3.29289191,173.509104 C3.05199879,173.206068 2.84532005,172.892131 2.64484764,172.561127 C2.46768875,172.265849 2.34336324,171.928599 2.21903772,171.606904 C2.1040217,171.311626 2.00766445,171.00859 1.9113072,170.707106 C1.67976336,169.982914 1.50260447,169.247822 1.35651701,168.501869 C1.07679455,167.072146 0.941568169,165.62997 0.848353869,164.178484 C0.658742537,161.266124 0.629222686,158.341391 0.596599671,155.424376 C0.562385288,152.425048 0.54062335,149.424129 0.525107526,146.423209 C0.492444726,140.368576 0.489341561,134.315495 0.439611354,128.260822 C0.416297833,125.348502 0.397678844,122.437734 0.358809714,119.526965 C0.33499226,117.672439 0.292502772,115.817914 0.243341331,113.963848 L0.169979146,111.306716 L0.169979146,111.306716 L0.173892913,111.430251 C0.0790872471,108.315906 -0.0265794962,105.198459 0.00604351946,102.082523 C0.0355633702,99.0567784 0.147476227,96.0372001 0.305976342,93.0176615 C0.45361538,90.2048016 0.627671104,87.3934934 0.786171219,84.5805937 C0.95246903,81.6309957 1.0721398,78.6798063 1.16069935,75.7270654 C1.24929869,72.7992293 1.32854875,69.8713534 1.37983054,66.9419259 C1.43266391,63.9954311 1.44201319,61.0473449 1.4497711,58.1008102 C1.45752901,55.1807321 1.49329497,52.2622055 1.50260447,49.3420875 C1.51346555,46.3365132 1.48860044,43.3262841 1.67510861,40.3254043 C1.77922377,38.6485415 2.00611287,36.9701669 2.40705769,35.3399311 C2.58111341,34.6312956 2.78003424,33.9505885 3.1265941,33.307199 C3.26337206,33.05079 3.43122146,32.816143 3.65190422,32.6249801 C3.73425744,32.5539654 3.868529,32.4595973 3.98831912,32.4806432 C4.03267847,32.4828711 4.07636148,32.5062642 4.10198248,32.5427065 C4.15537283,32.5991204 4.18127233,32.6864467 4.20514283,32.755512 C4.29370238,33.0026114 4.34343258,33.2637149 4.38230171,33.523227 C4.47710738,34.1464062 4.50662723,34.7742401 4.56101219,35.4021138 C4.68068295,36.811627 4.8360799,38.2180768 4.92933399,39.6291814 C5.1298064,42.6782398 5.20285013,45.7350959 5.246374,48.7888489 C5.2898581,51.7198279 5.25413191,54.650807 5.25102875,57.581786 C5.24947717,60.5049673 5.246374,63.4281885 5.20129854,66.3513698 C5.1546715,69.2776941 5.07852461,72.2040184 4.99302844,75.1303029 C4.90446889,78.0954963 4.79725056,81.0590983 4.6356075,84.0211488 C4.3170159,89.8209242 3.92227741,95.6160449 3.80730117,101.42517 C3.74822169,104.444708 3.73425744,107.468941 3.79174556,110.48848 C3.84923368,113.445876 3.91607108,116.404823 3.96114654,119.362219 C4.006222,122.330515 4.03884501,125.298772 4.0901268,128.265477 C4.14296017,131.300571 4.19734513,134.334114 4.20203966,137.369208 C4.21134916,143.408325 4.22845635,149.447442 4.24086901,155.485007 C4.24536462,157.633989 4.25145159,159.781339 4.30492151,161.928809 C4.36849661,163.805547 4.49210601,165.676119 4.77803481,167.532926 C4.91405687,168.31735 5.0838159,169.088367 5.30688572,169.854133 C5.4046752,170.157249 5.51038172,170.455272 5.63164386,170.749078 C5.68769975,170.858246 5.74566528,170.966021 5.80585872,171.073319 C5.88371633,171.187022 5.96328466,171.297741 6.04583681,171.407307 C6.13897154,171.512178 6.2337772,171.61506 6.33112906,171.71647 C6.40401365,171.78088 6.47689824,171.844256 6.5523688,171.905723 C6.63587576,171.963291 6.72005906,172.018193 6.8066294,172.071782 C7.03335936,172.187275 7.26168069,172.292505 7.49589007,172.389697 C7.65709551,172.442531 7.81798267,172.489516 7.98117732,172.533199 C8.09344823,172.552295 8.20643526,172.571232 8.31866639,172.589294 C8.78028206,172.6288 9.23994831,172.645828 9.70359297,172.642565 C10.3412934,172.604054 10.9689284,172.526793 11.5998256,172.432545 C12.1196853,172.340922 12.6409773,172.24361 13.1519253,172.107309 C13.6728989,171.969895 14.1890189,171.822654 14.7045819,171.668967 C16.0695766,171.234803 17.4071998,170.736864 18.7387759,170.211355 C20.0877376,169.678327 21.4320047,169.139052 22.7684742,168.579607 C25.3404807,167.50261 27.9217967,166.45207 30.527938,165.459017 C33.3066233,164.399127 36.108622,163.40142 38.9276882,162.451891 C41.8229411,161.475946 44.7585749,160.619631 47.6895539,159.755599 C49.3409946,159.269675 50.9903842,158.777545 52.6381589,158.281047 L54.989,157.569 L54.8708742,157.604748 L54.8708742,157.604748 L55.5785152,157.38872 L55.5785152,157.38872 L55.5173669,157.407378 C58.2742902,156.558862 61.0265588,155.696341 63.7570654,154.767023 C66.3974211,153.868776 69.0206696,152.923902 71.622196,151.92154 C71.8102557,151.848496 71.9982757,151.775452 72.1847839,151.702409 C72.3529667,151.63708 72.5258854,151.598903 72.6987341,151.585466 L72.7033307,151.774537 C72.6991931,151.454407 72.6853836,151.13426 72.6678786,150.814118 L72.6458426,150.441131 L72.6458426,150.441131 C72.608525,149.915861 72.5510369,149.392142 72.5168623,148.866872 C72.4764416,148.253002 72.4671321,147.637621 72.4344693,147.022199 C72.3501269,145.350906 72.3716501,143.675078 72.2692457,142.003666 L72.267336,141.972952 L72.267336,141.972952 L72.266,141.954 L72.1815289,141.027374 C72.1163242,140.400152 72.0397971,139.773631 71.9822427,139.144616 C71.9237069,138.504595 71.8694678,137.864556 71.8210461,137.223746 L71.7569052,136.313098 L71.7569052,136.313098 C71.75233,136.247335 71.747914,136.181691 71.7434979,136.115927 L71.742,136.095 L71.742,136.093 L71.741,136.088 L71.662406,134.760524 C71.6155432,133.869126 71.5809929,132.977103 71.5564328,132.084479 C71.5294856,131.133398 71.5232793,130.181611 71.5221359,129.230059 L71.5222582,47.7047702 L71.5222582,47.7047702 C71.5222582,41.7386969 71.5191152,35.7726237 71.5269129,29.8065505 C71.5315677,26.8833294 71.5362224,23.960148 71.5610875,21.0353753 C71.5859526,18.0500113 71.6434407,15.0661989 71.8532624,12.0885929 C71.9635839,10.5283375 72.1003619,8.96338753 72.2868303,7.41085026 C72.3769812,6.66334558 72.4826479,5.92204722 72.644291,5.18699498 C72.7048823,4.91658201 72.7872355,4.62751027 72.9302198,4.38665693 C73.0623032,4.16127963 73.3575813,3.99191844 73.6171332,4.11314079 Z M75.4463693,2.30829234 L75.6524662,2.36775475 L75.6524662,2.36775475 L75.784,2.403 L75.7245402,2.38758218 C75.7470779,2.39378851 75.7696157,2.40000479 75.7921484,2.40622107 L75.8597268,2.42485995 L75.8597268,2.42485995 L75.834,2.417 L77.082166,2.75733032 C77.9854876,3.01108847 78.8862807,3.27521996 79.7905217,3.52485234 C81.7629013,4.05903433 83.724937,4.6284253 85.6752363,5.23616821 C87.7002105,5.86710529 89.7220418,6.50428848 91.7112501,7.24093209 C95.7502579,8.73594146 99.7784047,10.2620223 103.803448,11.791246 C107.746139,13.287807 111.665476,14.8496537 115.589507,16.3912901 C119.611448,17.9702043 123.648904,19.507186 127.65684,21.1172114 C131.478308,22.6510501 135.239145,24.3248097 138.897458,26.2161091 C140.142265,26.8594987 141.366862,27.5386144 142.589906,28.2224246 C143.146248,28.5347701 143.715042,28.8253934 144.266729,29.1470882 C144.420615,29.2356477 144.57446,29.3242471 144.715893,29.4345685 C144.830869,29.5247195 144.931881,29.6257315 145.037548,29.7251919 C145.186738,29.8635214 145.339072,30.0577477 145.174326,30.2520138 C145.095075,30.3468195 144.962952,30.3685814 144.846424,30.3670298 C144.698348,30.3670298 144.554966,30.3796016 144.409594,30.3796016 C144.350555,30.3796016 144.291157,30.3774931 144.231003,30.3716846 C143.780328,30.3281607 143.32655,30.1805216 142.896046,30.0515414 C142.002453,29.7811284 141.115107,29.4889933 140.232376,29.1843659 C138.401708,28.5534289 136.577206,27.9146941 134.757399,27.2557887 C133.803215,26.9107804 132.841234,26.5999468 131.87615,26.2876013 C130.914169,25.9767676 129.958434,25.6473149 128.999556,25.3287233 C126.974621,24.6542624 124.954342,23.9657974 122.948026,23.2400546 C118.893463,21.7730135 114.876177,20.1940994 110.863586,18.6182486 C106.931797,17.073509 102.990658,15.5551861 99.0386579,14.0648315 C97.0323822,13.3095689 95.0260668,12.5542665 93.0197513,11.8005555 C91.0492018,11.0608087 89.0802039,10.3195502 87.1391742,9.50986283 L85.531884,8.83928083 L85.531884,8.83928083 L84.1320483,8.25105205 L84.1320483,8.25105205 L84.077,8.227 L84.08,8.229 L84.029,8.207 L84.001,8.195 L82.2828612,7.46074108 C81.0518919,6.92954585 79.8234099,6.39241541 78.5904721,5.86559349 L78.6617256,5.89511334 C78.6288639,5.88134802 78.595843,5.8675827 78.5629813,5.85385716 L78.533,5.841 L78.5210338,5.83607364 L78.5210338,5.83607364 L78.5032255,5.82827595 L78.5032255,5.82827595 L78.513,5.833 L77.8407346,5.55263136 C77.6077535,5.45571713 77.3746481,5.35898193 77.1418511,5.2625849 C76.5855093,5.03259264 76.0213699,4.82436232 75.4665797,4.58967552 C75.49049,4.59958178 75.51444,4.60992566 75.5383901,4.62026955 L75.2789973,4.51002762 L75.2789973,4.51002762 C75.1062545,4.43845591 74.9332332,4.36887341 74.7579043,4.30060378 C74.2248761,4.09082187 73.9140424,3.5189245 74.1067569,2.96103114 C74.301023,2.39689168 74.8946823,2.15134381 75.4463693,2.30829234 Z M71.8271242,1.17774571 C72.1798904,2.1086554 71.6950408,3.18716434 70.7625795,3.53682737 C68.4299543,4.40865757 66.1221545,5.34267042 63.7848348,6.2004966 C61.4413087,7.05991414 59.0946397,7.91153398 56.7480105,8.76315383 C51.9956726,10.4881952 47.2541958,12.2536176 42.5515881,14.1153972 C37.7697303,16.0082482 33.0204956,17.9803493 28.2572568,19.9198273 C24.4939532,21.4516371 20.7197886,22.9744556 17.0093582,24.6303919 C15.1424862,25.4901675 13.3024686,26.4038108 11.4297881,27.2534812 C10.4662554,27.690192 9.49810776,28.1113472 8.51591628,28.5060459 C8.07455075,28.6847962 7.63163364,28.8510542 7.1825102,29.0080425 C6.74110488,29.160575 6.28275151,29.2581656 5.83303131,29.38269 C5.36560715,29.5501813 4.89631313,29.8145869 4.39097466,29.8145869 L4.38675754,29.8145869 C3.99357063,29.8130353 3.67497904,29.4788881 3.63149494,29.1012568 C3.58797107,28.7127644 3.79930455,28.3739625 4.03399135,28.0848907 C4.29306583,27.7647873 4.60775858,27.5188416 4.92889636,27.2650584 C5.12869244,27.0990391 5.32781219,26.9313886 5.5305523,26.7686316 C5.79161599,26.5588099 6.07603299,26.3800995 6.3604102,26.2029406 C6.91368859,25.8610355 7.46847878,25.5253765 8.02637213,25.1943324 C9.12198826,24.5447366 10.2409179,23.9340098 11.3629905,23.3294497 C12.4927812,22.7202745 13.6319213,22.1266152 14.7850255,21.557821 C15.9552369,20.9797173 17.1534167,20.4575501 18.348533,19.9353829 C23.043343,17.883992 27.8096849,15.9973473 32.5496102,14.0547661 C34.9521759,13.0695112 37.3532299,12.082665 39.7635933,11.1175807 C42.1335361,10.1711552 44.5159312,9.25890431 46.9014296,8.35289951 C51.5947278,6.57036998 56.3175061,4.87023346 61.0310146,3.14674363 C62.4405676,2.63237415 63.8423229,2.09930612 65.2627369,1.6144565 C66.6722899,1.13267026 68.0724936,0.63071344 69.4695942,0.113201017 C70.403607,-0.233319064 71.474358,0.242221065 71.8271242,1.17774571 Z" id="Combined-Shape" fill="#252C30"></path>
                        <path d="" id="Path-11" fill="#0062C3"></path>
                        <circle id="Oval" fill="#FFFFFF" cx="183.853469" cy="115.652465" r="9"></circle>
                        <path d="M113.524473,115.849365 C115.003663,115.974691 116.485903,116.189772 117.943427,116.466724 C119.444283,116.7514 120.898718,117.186198 122.348478,117.667378 C123.063317,117.905671 123.761123,118.193476 124.45893,118.476607 C125.16759,118.764413 125.871615,119.114088 126.541576,119.485431 C127.151172,119.822748 127.771621,120.150757 128.35341,120.539092 C128.986217,120.961531 129.636096,121.379257 130.227154,121.863566 C131.38293,122.808935 132.512445,123.80536 133.460902,124.96272 C133.983871,125.598657 134.475905,126.246951 134.92615,126.937034 C135.364037,127.610084 135.760135,128.306346 136.146965,129.010372 C136.843227,130.282204 137.426522,131.623671 137.899978,132.994568 C138.149124,133.710912 138.387378,134.436604 138.582337,135.171526 C138.771118,135.886365 138.932013,136.598114 139.066647,137.325311 C139.340509,138.821534 139.436444,140.354871 139.423812,141.87272 C139.410104,143.339512 139.252298,144.815613 138.98307,146.25456 C138.716932,147.684238 138.340955,149.084486 137.915466,150.47396 C137.493066,151.854086 136.914406,153.183194 136.320258,154.49527 C135.738469,155.781046 135.116475,157.045154 134.455783,158.290686 C133.779643,159.568738 133.019926,160.801911 132.263338,162.03354 C130.135854,165.494728 127.814954,168.833719 125.238769,171.977751 C124.872536,172.424273 124.327861,172.652465 123.780849,172.652465 C123.347993,172.652465 122.91371,172.509632 122.565104,172.219134 C121.765183,171.552262 121.669248,170.343845 122.323722,169.545469 C123.354291,168.288133 124.342873,166.99915 125.298421,165.684776 C126.30467,164.28132 127.265209,162.846413 128.190931,161.388295 C129.193575,159.807466 130.179464,158.209605 131.081618,156.569321 C132.101651,154.629152 133.041078,152.643549 133.854109,150.608752 C134.320199,149.312678 134.706513,147.996522 135.02771,146.655728 C135.137634,146.138208 135.236875,145.62187 135.323306,145.10293 L135.41038,145.040201 C133.920377,146.120203 132.362284,147.102686 130.849069,148.147079 C129.345122,149.185293 127.869021,150.256026 126.320237,151.226151 C124.729624,152.222576 123.208685,153.310302 121.675348,154.388759 C120.090954,155.501242 118.466316,156.542545 116.82932,157.576085 C115.22326,158.592632 113.621873,159.615398 112.015813,160.631945 C110.361784,161.677883 108.707756,162.733129 106.982549,163.661465 C106.39462,163.978661 105.794254,164.269555 105.180024,164.535654 C104.858194,164.676467 104.53169,164.808012 104.200591,164.925574 C104.012682,164.99295 103.821881,165.05799 103.627476,165.105363 C103.558278,165.164065 103.477077,165.210606 103.385183,165.241225 C103.307191,165.267961 103.226664,165.280795 103.146692,165.280795 C102.898298,165.280795 102.655728,165.157173 102.514083,164.944151 C102.345424,164.69041 102.348514,164.351548 102.520262,164.099352 C102.597778,163.98682 102.703656,163.900154 102.823277,163.844225 C103.045409,163.570759 103.323867,163.333099 103.575508,163.098253 C103.897338,162.799634 104.23929,162.519592 104.582786,162.247275 C105.381163,161.619102 106.210474,161.034223 107.061492,160.478774 C108.670642,159.431252 110.318451,158.441006 111.961666,157.44767 C113.597117,156.458968 115.224805,155.457909 116.858711,154.463028 C117.709729,153.946238 118.570015,153.443352 119.43648,152.951358 C120.293638,152.465503 121.166282,152.009039 122.031203,151.538672 L122.915181,151.053065 L122.915181,151.053065 L123.789405,150.560383 L123.789405,150.560383 C125.032917,149.836716 126.242879,149.050698 127.510077,148.357526 C128.786227,147.659759 130.063882,146.965002 131.326605,146.24335 C132.520168,145.551287 133.711039,144.850628 134.930705,144.206216 C135.099335,144.117616 135.306136,144.152351 135.449093,144.267618 L135.507266,143.832536 L135.507266,143.832536 C135.552303,143.329848 135.592625,142.827001 135.611598,142.322965 C135.632433,141.803997 135.630809,141.286217 135.620194,140.767486 C135.567513,139.862401 135.476608,138.967813 135.34744,138.071165 C135.262913,137.62191 135.171652,137.177012 135.070053,136.729619 C134.972414,136.298862 134.841227,135.872739 134.714435,135.4482 C134.549143,134.933272 134.379296,134.422662 134.202042,133.912091 C134.033265,133.425088 133.829829,132.950482 133.627185,132.476036 L133.429541,132.063396 L133.092863,132.294775 C132.604609,132.639941 132.129417,133.004035 131.648989,133.360286 C131.006874,133.838377 130.366304,134.319557 129.700977,134.765168 C129.03874,135.207689 128.370324,135.639397 127.700363,136.069521 C125.070031,137.759118 122.442789,139.45339 119.806238,141.132174 C117.155785,142.820227 114.499152,144.495922 111.854878,146.193244 C109.181213,147.907598 106.496734,149.604959 103.827704,151.328621 L102.481535,152.205338 L102.481535,152.205338 L99.7970847,153.972856 L99.7970847,153.972856 C98.4556179,154.854809 97.1002084,155.705787 95.7092293,156.507292 C94.5317869,157.186522 93.3527601,157.859573 92.1551562,158.500143 C91.6121052,158.789493 91.0643406,159.072624 90.5150708,159.349616 C90.0922356,159.563509 89.6593396,159.777402 89.2146002,159.950418 C89.1215962,160.116423 88.9692171,160.247849 88.7852294,160.310432 C88.7041876,160.337961 88.6206109,160.351151 88.5378263,160.351151 C88.2808376,160.351151 88.0310182,160.224083 87.8847391,160.00409 C87.711446,159.742585 87.7129907,159.391365 87.8909182,159.131445 C88.0277702,158.931653 88.2654689,158.801297 88.5078416,158.790008 C88.7381069,158.581158 88.9793221,158.384333 89.2245276,158.192935 L89.5720395,157.925642 C89.5794861,157.920136 89.5869724,157.91463 89.5944586,157.909085 L89.5944586,157.909085 L89.583541,157.916396 L90.5280486,157.212194 C91.4907109,156.50775 92.4720945,155.828885 93.4610534,155.162696 C94.8071942,154.254482 96.1656932,153.370984 97.5582171,152.533909 C98.8981391,151.726265 100.261273,150.958824 101.607374,150.158863 C102.999937,149.332641 104.384737,148.494022 105.769498,147.653857 C108.471048,146.018406 111.181827,144.401532 113.881793,142.762991 C116.547734,141.144533 119.207456,139.51835 121.878032,137.907655 C123.245799,137.082978 124.616696,136.261391 125.987554,135.439803 C127.36154,134.615086 128.726218,133.771832 130.143498,133.021424 C131.137532,132.494744 132.155748,132.015007 133.136755,131.464881 C133.048036,131.28205 132.957248,131.101635 132.86521,130.92123 C132.607389,130.413868 132.313524,129.923854 132.02259,129.433484 C131.853218,129.172772 131.683767,128.9121 131.51289,128.651388 L131.337643,128.397141 L131.337643,128.397141 L130.967819,127.900504 L130.967819,127.900504 C130.716494,127.593448 130.465447,127.288928 130.196179,126.995815 C129.882905,126.654576 129.556995,126.328508 129.228748,126.003905 C128.880538,125.69166 128.533714,125.381634 128.170809,125.084956 C127.83365,124.808876 127.487341,124.548679 127.136833,124.289828 C126.721366,124.01145 126.306928,123.736281 125.879339,123.475806 C125.743506,123.392989 125.6068,123.312049 125.469446,123.232369 C125.441349,123.269417 125.406749,123.302407 125.367105,123.330438 C124.618241,123.861131 123.870922,124.396498 123.11275,124.911703 L122.400104,125.386207 L122.400104,125.386207 L120.962093,126.313535 L120.962093,126.313535 C119.431846,127.308416 117.932534,128.351264 116.420864,129.37094 C114.785412,130.474114 113.16232,131.59432 111.539266,132.716111 C109.849669,133.887374 108.141494,135.026157 106.420921,136.150998 C103.01388,138.379052 99.5248066,140.478691 96.0728477,142.635566 C92.6147097,144.797115 89.1782779,146.995779 85.7108712,149.141841 C84.1496886,150.107331 82.5761081,151.051154 80.9824453,151.962498 C80.2242732,152.395711 79.4630115,152.832053 78.6832124,153.229696 C78.2994721,153.4262 77.9064632,153.608762 77.514999,153.789819 C77.2828061,153.896805 77.0466522,153.997889 76.8125579,154.102974 C76.7350415,154.233014 76.6275799,154.348278 76.4876383,154.441203 C76.3051162,154.562647 76.094669,154.621467 75.8851725,154.621467 C75.5742748,154.621467 75.265318,154.492102 75.0517813,154.246243 C74.6943816,153.834657 74.6990159,153.203395 75.06105,152.796443 C75.2455923,152.589482 75.5070569,152.464038 75.7775526,152.435598 C75.9936243,152.257195 76.2068045,152.074712 76.4257281,151.900587 C76.8388589,151.571034 77.2504448,151.235261 77.682113,150.928918 C78.5052453,150.347168 79.3361411,149.773103 80.1763057,149.216109 C81.9185053,148.061838 83.6855008,146.947811 85.4633097,145.849232 C88.9631964,143.687723 92.4785707,141.554059 95.9738231,139.386331 C97.6541522,138.341938 99.3313917,137.291366 101.011721,136.245388 C102.770953,135.148393 104.551851,134.093147 106.337384,133.041031 C106.657511,132.85225 106.977677,132.66648 107.29923,132.48071 C107.429388,132.405966 107.559982,132.330469 107.689664,132.255013 L107.545801,132.33855 L107.545801,132.33855 C109.279643,131.337292 111.038306,130.381108 112.786864,129.4075 L114.509541,128.437396 L114.516506,128.434152 L114.530761,128.42577 L114.530761,128.42577 L114.502281,128.442565 C114.531632,128.425612 114.560943,128.408738 114.590334,128.391785 L114.604395,128.383784 L114.604395,128.383784 L114.600236,128.386081 C116.140782,127.497394 117.689963,126.624235 119.234708,125.74252 C120.154924,125.210638 121.062346,124.654793 121.980185,124.119506 C122.817338,123.629935 123.672256,123.169901 124.52629,122.709433 L124.678725,122.786318 C124.243017,122.567117 123.808101,122.350094 123.36348,122.148242 C122.923969,121.949282 122.478715,121.767433 122.030569,121.586258 C121.312046,121.326378 120.591583,121.075964 119.860504,120.853198 C119.164202,120.640256 118.46287,120.460348 117.754131,120.293828 C116.275099,120.013113 114.790324,119.799616 113.29525,119.634839 C112.293596,119.55146 111.290517,119.479172 110.28605,119.443642 C109.203434,119.404508 108.123749,119.391833 107.041291,119.406884 C106.135136,119.455327 105.232863,119.518228 104.33063,119.606122 C103.379914,119.700274 102.433596,119.824293 101.487395,119.954649 C100.362238,120.144776 99.244963,120.356966 98.1276879,120.588605 C96.9257666,120.837354 95.739214,121.160135 94.5557905,121.48454 C92.9001779,121.984218 91.2631028,122.527784 89.6486845,123.147797 C88.014897,123.775851 86.4057072,124.463478 84.8043998,125.168414 C79.5345865,127.556453 74.3504493,130.130934 69.1892857,132.740788 C66.5898893,134.054409 63.9935824,135.372704 61.3802829,136.65535 C59.9104123,137.376877 58.4228459,138.061642 56.9193016,138.709398 L57.5829658,138.292267 C56.8325572,138.759505 56.082109,139.229872 55.3394243,139.711092 C54.6834059,140.136581 54.0428354,140.588371 53.3991753,141.032437 C52.0917334,141.931422 50.805958,142.861303 49.510914,143.775736 C48.2560739,144.663868 46.9997287,145.54891 45.7464334,146.438587 C44.468382,147.345257 43.1687036,148.22103 41.8566273,149.079732 C39.1488979,150.854452 36.4303946,152.616773 33.6870956,154.337346 C30.881926,156.096578 28.0720824,157.848086 25.2452462,159.571708 C22.426134,161.290736 19.5884447,162.9757 16.750795,164.662208 C15.4650196,165.426559 14.1761547,166.186237 12.8919241,166.952133 C11.6076936,167.714939 10.3280973,168.483925 9.03459806,169.229699 L9.04366872,169.224347 L9.04366872,169.224347 L8.92838425,169.29053 L8.92838425,169.29053 L8.81554104,169.354396 L8.82573532,169.348845 C8.82211102,169.350984 8.81849662,169.353123 8.81488222,169.355262 L8.80402912,169.361679 L8.80402912,169.361679 L8.77800545,169.376493 L8.77800545,169.376493 C8.75986414,169.386911 8.74168322,169.397288 8.72358152,169.407666 L8.74196049,169.397447 L8.74196049,169.397447 C7.85161027,169.913999 6.94977319,170.414469 6.04064791,170.89458 C5.60121623,171.126654 5.15869498,171.347915 4.71153937,171.562996 C4.48718918,171.669745 4.2612942,171.773404 4.03539923,171.873973 C3.88305974,171.943013 3.72521449,172.002943 3.57311266,172.074835 C3.54395981,172.129219 3.50506294,172.17889 3.45673892,172.22056 C3.36005128,172.304651 3.2382906,172.345885 3.11680719,172.345885 C2.96993386,172.345885 2.82337741,172.285639 2.72177815,172.167958 C2.53454238,171.954421 2.55929854,171.618688 2.77283524,171.432997 C2.8607295,171.356312 2.97599417,171.313613 3.09288284,171.307394 C3.33394839,171.115009 3.56210112,170.905988 3.80332511,170.713524 C4.10503334,170.473726 4.40828636,170.236978 4.71775812,170.006448 C5.35519944,169.531447 6.00662304,169.071893 6.66264139,168.621648 C8.02268521,167.687093 9.40130606,166.783513 10.786106,165.886073 C13.5247311,164.111393 16.2587614,162.327366 18.9989709,160.551141 C21.8087748,158.728454 24.6387006,156.935198 27.482569,155.165113 C30.2382659,153.449214 32.995468,151.736405 35.7805158,150.068434 C37.1854376,149.226725 38.5903594,148.38656 39.9999155,147.552614 C41.3754072,146.74184 42.7509385,145.927977 44.1543155,145.169804 C46.8883062,143.692199 49.6238813,142.219187 52.3516929,140.730728 L53.3512227,140.179023 L53.3512227,140.179023 L53.4370795,140.132581 C53.3142787,140.180102 53.191383,140.227383 53.0683935,140.274423 C51.7857077,140.766417 50.4798105,141.218247 49.1677342,141.629793 C47.7334219,142.078493 46.2944753,142.521015 44.8338621,142.875364 C43.312923,143.245162 41.7857652,143.559228 40.2400701,143.80679 C38.7964494,144.037359 37.3482341,144.184351 35.8922552,144.297279 C32.9756631,144.523174 30.0204118,144.260164 27.1347549,143.837765 C26.4818262,143.74183 25.8257682,143.616504 25.1821081,143.475691 C24.4332443,143.311667 23.6812909,143.153861 22.9416958,142.954267 C21.4609607,142.550445 20.0251037,142.019712 18.6109132,141.428654 C16.8660754,140.699954 15.1649456,139.844808 13.5382421,138.870144 L13.5880673,138.82898 C13.2445706,139.09904 12.9181855,139.390093 12.5805115,139.667046 C12.2174476,139.966694 11.8383417,140.246221 11.4618501,140.529352 C10.7894729,141.046419 10.1861752,141.642785 9.49680541,142.139572 C8.77887687,142.654817 8.01452558,143.108151 7.26566175,143.576974 C6.45334294,144.086039 5.64565848,144.633764 4.77301386,145.034497 C4.34598006,145.229457 3.90809317,145.39966 3.45012408,145.506409 C3.35399097,145.528353 3.25425337,145.543246 3.1538424,145.549227 C3.14897038,145.55101 3.14405876,145.552713 3.13910753,145.554376 C3.04182574,145.586936 2.94145438,145.602542 2.8418356,145.602542 C2.52963076,145.602542 2.22507062,145.448935 2.04674708,145.181489 C1.81158339,144.827179 1.84560826,144.344414 2.12873947,144.027219 C2.14973269,144.00369 2.17163693,143.981549 2.19421455,143.960714 C2.21374221,143.927125 2.23378479,143.89409 2.25406503,143.861689 C2.44284558,143.556852 2.72756119,143.298477 2.99211538,143.061729 C3.62959631,142.493882 4.34598006,142.040547 5.06854296,141.591847 C6.4121883,140.759327 7.74062347,139.855787 9.21117878,139.262748 C9.54980339,139.120984 9.88573453,138.973675 10.2178235,138.816068 C10.5814419,138.642774 10.9372968,138.44936 11.30246,138.277611 C11.5536814,138.159517 11.8078585,138.047392 12.0629537,137.93708 C11.7124563,137.706918 11.3663331,137.468683 11.0246762,137.224742 C9.79617666,136.347463 8.62023942,135.419087 7.48767496,134.422662 C6.36125004,133.432416 5.33388934,132.323023 4.351367,131.192003 C3.60206181,130.33127 2.90502221,129.409162 2.28561607,128.446134 L1.98254104,127.961396 L2.10164633,128.159354 L2.10164633,128.159354 C1.63900328,127.399677 1.16709152,126.633781 0.837537562,125.805975 C0.49095137,124.936419 0.220178433,123.840969 0.879325954,123.044138 C1.22436736,122.624828 1.90050751,122.428324 2.39872021,122.694423 C2.64782656,122.827512 2.84742059,122.971414 3.02843761,123.188001 C3.20485988,123.396903 3.35026764,123.624343 3.49880458,123.853328 C3.76030882,124.260279 4.02181305,124.667191 4.29258599,125.067924 C4.88122797,125.937638 5.50246887,126.781763 6.15484311,127.604618 C6.62715096,128.173297 7.10215229,128.742134 7.60991096,129.27956 C8.15514055,129.856676 8.71272842,130.420086 9.28105055,130.973911 C9.84022281,131.489711 10.4084261,131.992241 10.9968304,132.473105 C11.5474866,132.9243 12.1155711,133.351334 12.6848834,133.776665 C13.3931076,134.277373 14.1087783,134.761009 14.8402535,135.228801 C15.5337031,135.670768 16.2572959,136.069045 16.9788289,136.464668 C17.7450022,136.863143 18.5159684,137.250567 19.3056303,137.599213 C20.1437352,137.968377 20.9896827,138.309893 21.8447406,138.633585 C22.3486175,138.809968 22.8526132,138.997837 23.3687296,139.138729 C23.9355465,139.291267 24.5009771,139.436477 25.0704876,139.57321 C25.9369531,139.76302 26.8065081,139.953781 27.6855695,140.081008 C28.6344631,140.220554 29.5819307,140.333561 30.5360132,140.426723 C31.1737318,140.47477 31.8101828,140.515924 32.4480599,140.551375 C33.1204767,140.588252 33.795587,140.574547 34.4668947,140.567813 C35.4599533,140.520361 36.4489717,140.455084 37.4379504,140.351781 C38.4146897,140.24836 39.3835466,140.10624 40.3517302,139.952712 C41.4913848,139.738462 42.6233948,139.507259 43.7507703,139.23312 C44.7711993,138.985004 45.7788739,138.69605 46.7873803,138.402541 C48.3884897,137.899892 49.9747057,137.364367 51.5505044,136.789984 C53.1020619,136.225781 54.6209808,135.575348 56.1333245,134.917349 C61.3303349,132.573199 66.3606275,129.883333 71.4668521,127.351709 C76.7925154,124.710524 82.1274869,122.077103 87.6449806,119.853683 C90.3619787,118.758233 93.1640587,117.891768 96.0048376,117.180019 C97.3587023,116.842701 98.734194,116.570383 100.109725,116.341399 C101.601274,116.093837 103.095951,115.914365 104.601403,115.765828 C107.567507,115.473389 110.561458,115.598714 113.524473,115.849365 Z M106.449599,120.737736 C106.568745,120.915663 106.520778,121.172493 106.339761,121.290095 C105.477929,121.844039 104.645489,122.435057 103.802235,123.015302 C103.019346,123.553758 102.239507,124.095304 101.456619,124.632176 C99.8567371,125.7323 98.1949851,126.739539 96.5796558,127.816452 C94.9163193,128.925844 93.2700547,130.061538 91.6253349,131.198737 C89.9914286,132.326707 88.3621566,133.4624 86.7004045,134.548581 C83.25308,136.799847 79.7562828,138.975299 76.2780626,141.177052 C72.7905341,143.384985 69.3122743,145.608404 65.809298,147.793125 C62.2830707,149.993334 58.7630621,152.204355 55.2058995,154.353507 C51.6379233,156.510382 48.0622233,158.661078 44.4354266,160.718928 C43.2455863,161.393524 42.0464773,162.052671 40.8550922,162.725722 C39.7099318,163.372472 38.5346679,163.957311 37.3872894,164.598119 C37.2838285,164.732278 37.141233,164.837046 36.9838235,164.890321 C36.8967214,164.919632 36.8068467,164.933694 36.7177245,164.933694 C36.4395841,164.933694 36.1684151,164.796723 36.0090647,164.557678 C35.8002019,164.242027 35.8311372,163.811903 36.0833331,163.528732 C36.2130158,163.382968 36.3773174,163.296896 36.5526702,163.266119 C36.8640037,163.066367 37.1582256,162.835837 37.4557352,162.620518 C37.8549629,162.331168 38.254151,162.041818 38.6548838,161.754053 C39.4733818,161.167629 40.3120015,160.60909 41.1397682,160.03657 C42.8634304,158.845185 44.6025405,157.677011 46.3540485,156.527414 C49.7580002,154.297815 53.1758946,152.088299 56.6263087,149.934513 C60.1726182,147.718857 63.7236017,145.510924 67.2869038,143.324619 C70.8286186,141.152296 74.3826521,139.000055 77.9320511,136.838506 C81.4397015,134.701753 84.9287747,132.537154 88.5168727,130.534995 C90.8563096,129.230642 93.2019654,127.935598 95.5259545,126.601855 C95.496564,126.618848 95.4656287,126.63588 95.4361986,126.654457 C97.0871372,125.69978 98.7055957,124.690997 100.356495,123.740955 C101.419993,123.129273 102.497222,122.543029 103.57079,121.950607 L105.159704,121.06218 C105.16521,121.05913 105.170715,121.05612 105.176221,121.053387 L105.176221,121.053387 L105.166541,121.057396 L105.529808,120.845361 C105.653045,120.77283 105.776093,120.699928 105.898784,120.626313 C106.084475,120.51493 106.325818,120.5505 106.449599,120.737736 Z M26.0012398,144.28801 C26.1497768,144.510815 26.1157519,144.837319 25.90376,145.010612 C25.5200594,145.323134 25.1316848,145.629516 24.7371311,145.92968 L24.7439786,145.924238 C24.241493,146.305934 23.7143255,146.671018 23.1914359,147.037528 C22.6452557,147.421228 22.0913119,147.787936 21.5343182,148.151555 C20.9974067,148.501231 20.4605347,148.849361 19.9298024,149.206761 C19.3898013,149.571924 18.8529294,149.941722 18.3082939,150.299122 C17.2267469,151.010871 16.1250782,151.69323 15.0296281,152.380184 C13.8784867,153.102786 12.7226712,153.816041 11.565311,154.523156 C10.0056732,155.476089 8.44750086,156.435044 6.86385943,157.347536 C6.86358216,157.347734 6.86259191,157.348249 6.86160167,157.348843 L6.83919735,157.361796 L6.83919735,157.361796 L6.82154104,157.371396 L6.82821056,157.368133 C6.23992506,157.707114 5.64577731,158.037144 5.04053879,158.344873 C4.71716397,158.508897 4.38757041,158.662068 4.04874775,158.793573 C3.80201799,158.889746 3.5241945,158.998316 3.25096575,158.998316 C3.1900458,158.998316 3.12940312,158.992929 3.06931498,158.980809 C2.81402949,158.928207 2.61906981,158.64971 2.68870392,158.38975 C2.7722411,158.077229 3.00898917,157.848205 3.23488415,157.630034 C3.41228347,157.458813 3.60276284,157.301342 3.79714451,157.149369 L4.03554104,156.965396 L4.6682344,156.497755 C5.56282002,155.853993 6.48969686,155.254401 7.41558504,154.65775 C8.57136086,153.91352 9.73026587,153.177055 10.89535,152.448273 C12.0341332,151.736523 13.1729164,151.024814 14.316334,150.319243 C15.4133684,149.643103 16.5088184,148.966924 17.6243902,148.321719 C18.1699367,148.006424 18.7209493,147.699408 19.2683575,147.386332 L19.260541,147.390396 C19.2660403,147.387718 19.2691299,147.385916 19.2722392,147.384114 C19.3011148,147.367597 19.33003,147.351159 19.358866,147.334602 L19.3240242,147.354327 L19.3240242,147.354327 L19.314541,147.358396 L20.0206531,146.94406 C20.7502981,146.511256 21.4776761,146.074008 22.2228562,145.668176 C22.6994023,145.408256 23.1774932,145.151386 23.6571685,144.8961 C24.1940404,144.60984 24.7448946,144.351465 25.2987988,144.097724 C25.5479051,143.983212 25.8465238,144.055936 26.0012398,144.28801 Z M212.70025,14.2192032 C212.819396,14.3971306 212.769884,14.6493265 212.590412,14.7669282 C210.970408,15.8283533 209.34581,16.8773806 207.696417,17.892383 C206.090356,18.8810845 204.513686,19.9115348 202.944779,20.9606016 C201.351117,22.0266612 199.721845,23.038574 198.106515,24.0721534 C196.477243,25.1150016 194.841792,26.1454519 193.209431,27.1805761 C189.916862,29.2662724 186.686164,31.4541224 183.508107,33.711567 L181.138289,35.4003875 C180.347063,35.9616541 179.552548,36.5182814 178.748746,37.0613721 C177.31097,38.0345323 175.845719,38.9618615 174.372697,39.8788567 L173.898955,39.9838265 C175.22339,39.6635412 176.571075,39.4701263 177.917177,39.2736219 C178.545389,39.1807764 179.184375,39.1452067 179.817221,39.0833361 C180.098808,39.0554508 180.385068,39.0523612 180.669744,39.0353686 C181.068972,39.013702 181.47125,38.9811823 181.871982,38.9750032 C183.154668,38.9548814 184.435809,38.9332148 185.716911,38.9966698 C186.406993,39.0322394 187.093987,39.072483 187.782525,39.1312641 C188.517446,39.1931742 189.246228,39.2813854 189.978059,39.3726465 C190.598508,39.4500045 191.22363,39.5645166 191.833226,39.7037848 C192.132316,39.7727866 192.431397,39.840376 192.729621,39.9113257 L192.258557,40.2881093 C192.78311,39.8610755 193.318437,39.4494896 193.864617,39.0503015 C194.950799,38.2550149 196.052467,37.4751762 197.175763,36.7324915 C198.331579,35.9665954 199.51215,35.2424878 200.688048,34.507527 C201.763376,33.8344764 202.843378,33.167605 203.928015,32.5069127 C204.714033,32.0288218 205.496921,31.5476413 206.278305,31.0633317 C206.807466,30.7342794 207.342824,30.4162299 207.881609,30.1027634 L208.69201,29.6351985 C208.654896,29.6568651 208.619287,29.6769869 208.583717,29.6986535 C209.283068,29.2932863 209.968517,28.8569442 210.678721,28.4701144 C211.39974,28.0786898 212.150148,27.7552754 212.902102,27.4272662 C213.185272,27.3034854 213.517916,27.3762091 213.694299,27.6408029 C213.862957,27.8945436 213.819624,28.2550725 213.584461,28.4546665 C213.275741,28.7145864 212.968906,28.9757561 212.656173,29.2299721 L212.189541,29.5973959 L211.794741,29.8896615 C211.367044,30.1946431 210.927828,30.4815719 210.486851,30.7693474 C209.895793,31.1530876 209.314004,31.5507309 208.726075,31.9390658 C207.66465,32.6400018 206.572289,33.2975649 205.495376,33.978379 C203.258054,35.3956591 201.016057,36.80676 198.743125,38.1668038 L198.368133,38.3885249 L198.368133,38.3885249 L198.022928,38.5868091 C198.012012,38.5931596 198.001093,38.5995352 197.990142,38.605879 L197.990142,38.605879 L198.026781,38.5845689 C196.910128,39.2282647 195.775798,39.843894 194.633859,40.438724 C195.012894,40.5530832 195.390164,40.6737593 195.76791,40.7976901 C196.061894,40.8951699 196.3497,41.0080976 196.63901,41.1179753 C196.940758,41.230903 197.245556,41.334562 197.541085,41.4630167 C198.799014,42.0045626 200.041457,42.5847677 201.223573,43.2794849 C202.356137,43.9463563 203.484107,44.6194069 204.556346,45.3822134 C204.721967,45.2256712 204.893087,45.0801414 205.046161,44.9512978 C205.549008,44.5257692 206.090554,44.1559716 206.650677,43.8093854 C207.176735,43.4844658 207.699704,43.1487327 208.269096,42.9011712 C208.531353,42.7866789 208.79864,42.6876543 209.067863,42.5938482 L209.878246,42.3178369 L209.878246,42.3178369 C210.252678,42.187877 210.679751,42.3379587 210.897883,42.6659679 C211.006216,42.8284475 211.057273,43.0280415 211.041785,43.2230012 C211.023208,43.4643836 210.908736,43.6562141 210.740077,43.8217833 C210.68601,43.8747813 210.631269,43.9285319 210.57629,43.9824409 L210.304354,44.255432 L210.304354,44.255432 L210.043541,44.5163959 L210.056173,44.505687 C210.052292,44.5094103 210.04841,44.5131337 210.044548,44.5168619 L210.036541,44.5233959 L210.018386,44.5426034 L210.018386,44.5426034 L209.988541,44.5703959 L209.998898,44.5615765 C209.991114,44.5692806 209.98338,44.5769847 209.975662,44.5846888 L209.952514,44.6078012 C209.974538,44.586095 209.996442,44.5643492 210.018386,44.5426034 L209.998898,44.5615765 C209.284732,45.2520554 208.433318,45.7831443 207.577468,46.2803667 C207.219533,46.4882751 206.858897,46.6817531 206.485917,46.8546136 C206.505604,46.8706896 206.525114,46.8869053 206.544602,46.9031524 C207.132531,47.3920964 207.701922,47.902707 208.268224,48.4164071 C208.314172,48.4580371 208.358495,48.5004196 208.401234,48.5436736 L208.860827,48.9803722 L208.860827,48.9803722 C208.908201,49.0213288 208.953514,49.0645827 208.996768,49.1100548 L208.976541,49.0903959 L208.999264,49.1127483 L208.999264,49.1127483 C208.999541,49.1130256 208.999739,49.1132236 209.000056,49.1135405 C210.720748,50.7697076 212.235983,52.6293901 213.521164,54.6410159 C214.848728,56.7220779 215.941088,58.9393185 216.541415,61.3406656 C216.792106,62.344815 216.109747,63.3876631 215.116411,63.6166873 C214.975994,63.6490089 214.835934,63.6644567 214.698052,63.6644567 C213.833686,63.6644567 213.058125,63.0564059 212.841934,62.1916437 C212.788461,61.979018 212.73166,61.7675014 212.671533,61.5570542 C212.474672,60.9325257 212.243548,60.3235243 211.987114,59.7212565 C211.612365,58.907076 211.195234,58.1214147 210.741978,57.3495375 C210.095348,56.3105711 209.401225,55.3105016 208.653113,54.3416447 C207.901279,53.435807 207.107299,52.5782537 206.272284,51.7476352 L206.338541,51.8093959 L206.104561,51.5868043 C206.025396,51.5115308 205.946156,51.4362621 205.866798,51.3610034 C205.820969,51.3216708 205.776844,51.2801597 205.734778,51.2365493 C204.839398,50.3946023 203.88278,49.6194375 202.912893,48.8643946 C202.131748,48.3127086 201.340422,47.7865709 200.527311,47.2807135 C199.781695,46.8170406 199.017502,46.3930172 198.248279,45.9720437 C197.68467,45.6940221 197.123557,45.4180603 196.547749,45.1686767 C195.983348,44.9240858 195.412927,44.7048057 194.839614,44.4884963 C194.172267,44.2711571 193.509396,44.0523523 192.834325,43.8612743 C192.218511,43.6870702 191.597825,43.5396424 190.974405,43.3952248 L189.541757,43.1433458 L189.541757,43.1433458 C189.077846,43.0603236 188.602726,43.0227338 188.135132,42.9652995 C187.150985,42.8808909 186.161808,42.7879266 185.175365,42.7704191 C184.616826,42.7611504 184.055159,42.7333046 183.498165,42.7410286 L181.865684,42.7686366 L181.865684,42.7686366 C181.022985,42.8154555 180.184048,42.8614425 179.34531,42.9437122 C178.947666,42.982411 178.548478,43.0133463 178.15238,43.0706221 C177.670249,43.141088 177.18689,43.2116332 176.703412,43.2832874 C175.876121,43.445569 175.051642,43.6092369 174.231599,43.8086329 C173.361331,44.0186839 172.49843,44.2537683 171.634262,44.493804 C170.486052,44.8444304 169.338515,45.1945023 168.205039,45.5895313 C166.896053,46.04754 165.588611,46.5132727 164.282713,46.9805501 C161.861284,47.8438864 159.419693,48.713481 156.900744,49.2503529 C154.295169,49.8042967 151.660203,50.2529971 148.995807,50.3968997 C146.402589,50.5361283 143.783071,50.3582008 141.223918,49.9172244 C140.526111,49.7980779 139.839118,49.6387275 139.152125,49.4731583 C138.493017,49.3153527 137.853991,49.0801494 137.221145,48.8418962 C136.011222,48.3838875 134.852317,47.7680731 133.786258,47.0346967 C132.642801,46.2486789 131.620074,45.2909127 130.770641,44.1939179 C130.000111,43.2021268 129.334784,42.1205799 128.749905,41.0080976 C128.466774,40.4696809 128.19909,39.928135 127.949984,39.3741913 C127.666813,38.7491082 127.444008,38.1085377 127.245958,37.4540642 C126.857623,36.1682888 126.735387,34.8330011 126.692054,33.4946239 C126.65494,32.3449876 126.733843,31.2000253 126.835957,30.0550629 C126.937279,28.9461455 127.045612,27.8386937 127.154262,26.7312023 C127.176245,26.4363862 127.175057,26.142996 127.190267,25.8496059 C127.205992,25.5324894 127.294322,25.2549432 127.473359,24.999935 C127.461634,25.015977 127.44991,25.0320586 127.437829,25.0481402 C127.586366,24.7835464 127.878805,24.6087085 128.177424,24.579318 C129.03462,24.4957412 129.668972,25.1935479 129.945964,25.937817 C130.23064,26.6990391 130.286331,27.5237558 130.321941,28.3267663 C130.387891,29.8489333 130.279518,31.3697535 130.313623,32.8918016 C130.347132,33.6138892 130.41233,34.3281736 130.497293,35.0463794 C130.571126,35.4587972 130.661595,35.8646397 130.768027,36.2717893 C130.930863,36.7723786 131.112078,37.261283 131.313811,37.7470978 C131.447435,38.0302836 131.585822,38.3103979 131.72852,38.5879842 C131.819733,38.4684329 131.930207,38.3613767 132.032928,38.2626596 C132.227887,38.0770083 132.452238,37.9192026 132.673498,37.7659917 C133.117564,37.4565596 133.591021,37.1857866 134.055209,36.9072898 C134.482242,36.6504199 134.906187,36.3889553 135.334765,36.135175 C135.789684,35.8675312 136.260051,35.6276936 136.728874,35.3816768 C137.262154,35.1031667 137.786509,34.8074748 138.308793,34.5078864 L139.023433,34.0959014 L139.023433,34.0959014 C140.245793,33.3903708 141.435633,32.6321986 142.64405,31.9018722 C142.902425,31.7456113 143.241287,31.7966684 143.414581,32.0566279 C143.58011,32.3057342 143.513605,32.6646787 143.25828,32.8287031 C142.374822,33.3919156 141.482056,33.9427301 140.598558,34.5074874 C140.152947,34.7921634 139.713515,35.0830581 139.275668,35.380132 C138.840871,35.6756611 138.399894,35.965011 137.968226,36.2667193 C137.525705,36.5761514 137.097126,36.9026158 136.65615,37.2136324 C136.264686,37.4890397 135.860863,37.7427804 135.458546,37.9996502 C135.009846,38.2843262 134.56578,38.575221 134.11399,38.8552626 C133.611143,39.1678239 133.089719,39.4927435 132.512563,39.6443701 C132.450958,39.6606761 132.386432,39.6747274 132.321005,39.6835732 C132.483492,39.9737215 132.651363,40.2617115 132.822907,40.5483065 C133.140063,41.0414491 133.471201,41.5198173 133.829551,41.9845596 C134.110147,42.3120143 134.398151,42.6253282 134.702117,42.9312351 C135.035038,43.2289823 135.376831,43.5113609 135.730864,43.7835994 C136.151362,44.0695429 136.579426,44.3345724 137.020283,44.5881151 C137.64291,44.9051523 138.272311,45.1877686 138.923497,45.4399645 L139.37672,45.5806752 C139.561996,45.4188728 139.75599,45.2670576 139.951135,45.1169462 C140.628859,44.5970669 141.33439,44.1205208 142.056953,43.6656017 C143.480452,42.7712905 144.930252,41.9187677 146.366109,41.0414491 C149.234694,39.2899807 152.09096,37.5198957 154.975032,35.7931439 C157.846746,34.0757004 160.724679,32.3706152 163.583996,30.6330499 C166.483556,28.8722732 169.338237,27.0403176 172.242471,25.2888096 C175.061584,23.5883587 177.922445,21.9591264 180.744646,20.2617651 C181.84477,19.6010727 182.952579,18.9512335 184.07128,18.3199714 C184.277053,18.2023697 184.55555,18.2952152 184.680875,18.4839561 C184.827868,18.703672 184.762907,19.0022906 184.547826,19.1492828 C183.173839,20.0853824 181.773592,20.9827832 180.376394,21.8848579 C178.976146,22.7915274 177.589801,23.7183583 176.197277,24.6374256 C173.423003,26.4693812 170.602386,28.2239788 167.7786,29.9739023 C164.914649,31.7470769 162.080049,33.5650898 159.251668,35.3939558 C156.451133,37.2057896 153.652143,39.0192078 150.825306,40.7892532 C149.367783,41.7021414 147.913349,42.6165744 146.463549,43.5402761 C145.03874,44.4456061 143.627612,45.3768912 142.162018,46.2188422 C142.942208,46.3445946 143.725071,46.4441236 144.514031,46.5244822 C145.166603,46.5726478 145.816443,46.617407 146.470679,46.6370534 C147.100673,46.6571752 147.729321,46.6505604 148.359078,46.6345976 C149.200154,46.5879372 150.042338,46.533949 150.878819,46.4312407 C151.716409,46.3274629 152.550117,46.2078807 153.382281,46.0751085 C154.301427,45.9091036 155.223426,45.7413163 156.134848,45.5322951 C157.014385,45.3296511 157.883188,45.1029639 158.748821,44.8485499 C160.261184,44.3620123 161.759358,43.8371403 163.256258,43.3073839 C164.134807,42.7026294 165.025146,42.1158721 165.920422,41.5376021 C167.558963,40.4792665 169.216081,39.4472714 170.868524,38.4106024 C172.581373,37.3352346 174.295727,36.2614512 176.039472,35.2355956 C177.75541,34.2283568 179.505333,33.2814437 181.261476,32.3453441 C182.944894,31.4494881 184.6175,30.5365999 186.276162,29.5958659 C186.816163,29.2910285 187.35458,28.9846859 187.891491,28.6752142 C187.860556,28.6937912 187.829621,28.7108234 187.798646,28.7294004 L188.23885,28.4750606 L188.23885,28.4750606 L188.633541,28.2473959 L188.589298,28.2729365 L188.589298,28.2729365 C188.683332,28.219186 188.778514,28.1643659 188.872905,28.1102985 C188.947609,28.0666484 189.022353,28.0235529 189.097096,27.9806951 C189.083075,27.9885774 189.069053,27.9963409 189.055031,28.0037084 C190.715238,27.0382183 192.355324,26.0417929 193.995449,25.0407331 C195.66029,24.0241859 197.329766,23.0169074 198.997737,22.0049946 C199.81778,21.5052371 200.636278,21.00239 201.465589,20.5149908 C202.29803,20.0260468 203.135105,19.5464112 203.970635,19.0621015 C205.568932,18.1337654 207.120846,17.1326661 208.695932,16.1687208 C209.839389,15.4693692 210.996709,14.7885948 212.15098,14.1077806 C212.338176,13.9979425 212.576469,14.0319674 212.70025,14.2192032 Z" id="Combined-Shape" fill="#252C30"></path>
                    </g>
                </g>
            </g>
        </g>
    </g>
</svg>