<?xml version="1.0" encoding="UTF-8"?>
<svg width="24px" height="24px" viewBox="0 0 24 24" version="1.1" xmlns="http://www.w3.org/2000/svg" xmlns:xlink="http://www.w3.org/1999/xlink">
    <title>4101885d-0b89-448d-824c-744e61a3360a@1.00x</title>
    <g id="Iconography" stroke="none" stroke-width="1" fill="none" fill-rule="evenodd">
        <g id="1.-Primitives/Icons/1.-Foreground-Primary/Add" fill="#173145">
            <path d="M12,0 C12.5128358,0 12.9355072,0.38604019 12.9932723,0.883378875 L13,1 L13,11 L23,11 C23.5522847,11 24,11.4477153 24,12 C24,12.5128358 23.6139598,12.9355072 23.1166211,12.9932723 L23,13 L13,13 L13,23 C13,23.5522847 12.5522847,24 12,24 C11.4871642,24 11.0644928,23.6139598 11.0067277,23.1166211 L11,23 L11,13 L1,13 C0.44771525,13 0,12.5522847 0,12 C0,11.4871642 0.38604019,11.0644928 0.883378875,11.0067277 L1,11 L11,11 L11,1 C11,0.44771525 11.4477153,0 12,0 Z" id="Path"></path>
        </g>
    </g>
</svg>