<?xml version="1.0" encoding="UTF-8"?>
<svg width="24px" height="24px" viewBox="0 0 24 24" version="1.1" xmlns="http://www.w3.org/2000/svg" xmlns:xlink="http://www.w3.org/1999/xlink">
    <title>Add</title>
    <g id="add">
        <path d="M22.2857143,9.42857143 L14.5714286,9.42857143 L14.5714286,1.71428571 C14.5714286,0.767678571 13.80375,0 12.8571429,0 L11.1428571,0 C10.19625,0 9.42857143,0.767678571 9.42857143,1.71428571 L9.42857143,9.42857143 L1.71428571,9.42857143 C0.767678571,9.42857143 0,10.19625 0,11.1428571 L0,12.8571429 C0,13.80375 0.767678571,14.5714286 1.71428571,14.5714286 L9.42857143,14.5714286 L9.42857143,22.2857143 C9.42857143,23.2323214 10.19625,24 11.1428571,24 L12.8571429,24 C13.80375,24 14.5714286,23.2323214 14.5714286,22.2857143 L14.5714286,14.5714286 L22.2857143,14.5714286 C23.2323214,14.5714286 24,13.80375 24,12.8571429 L24,11.1428571 C24,10.19625 23.2323214,9.42857143 22.2857143,9.42857143 Z" />
    </g>
</svg>