<?xml version="1.0" encoding="UTF-8"?>
<svg width="2px" height="24px" viewBox="0 0 2 24" version="1.1" xmlns="http://www.w3.org/2000/svg" xmlns:xlink="http://www.w3.org/1999/xlink">
    <title>090F0CAA-BAE3-47E1-A8AC-CA4F4ABB0840@2.00x</title>
    <g id="Iconography" stroke="none" stroke-width="1" fill="none" fill-rule="evenodd">
        <g transform="translate(-139.000000, -309.000000)" fill="#173145" id="Group">
            <g transform="translate(128.000000, 309.000000)" id="Shape">
                <path d="M12.01,22 C12.5622847,22 13.01,22.4477153 13.01,23 C13.01,23.5128358 12.6239598,23.9355072 12.1266211,23.9932723 L12,24 C11.4477153,24 11,23.5522847 11,23 C11,22.4871642 11.3860402,22.0644928 11.8833789,22.0067277 L12.01,22 Z M12,0 C12.5128358,0 12.9355072,0.365722285 12.9932723,0.83688525 L13,0.947368421 L13,17.0526316 C13,17.5758487 12.5522847,18 12,18 C11.4871642,18 11.0644928,17.6342777 11.0067277,17.1631148 L11,17.0526316 L11,0.947368421 C11,0.42415129 11.4477153,0 12,0 Z"></path>
            </g>
        </g>
    </g>
</svg>