<?xml version="1.0" encoding="UTF-8"?>
<svg width="24px" height="24px" viewBox="0 0 24 24" version="1.1" xmlns="http://www.w3.org/2000/svg" xmlns:xlink="http://www.w3.org/1999/xlink">
    <title>Alert</title>
    <g id="alert">
        <path d="M15.75,20.25 C15.75,22.31775 14.06775,24 12,24 C9.93225,24 8.25,22.31775 8.25,20.25 C8.25,18.18225 9.93225,16.5 12,16.5 C14.06775,16.5 15.75,18.18225 15.75,20.25 Z M8.6840625,1.18120313 L9.3215625,13.9312031 C9.35151563,14.5299375 9.84567188,15 10.4451563,15 L13.5548438,15 C14.1543281,15 14.6484844,14.5299375 14.6784375,13.9312031 L15.3159375,1.18120313 C15.3480469,0.53859375 14.83575,0 14.1923438,0 L9.80765625,0 C9.16425,0 8.65195313,0.53859375 8.6840625,1.18120313 Z" />
    </g>
</svg>