<svg xmlns="http://www.w3.org/2000/svg" fill="none" width="32" height="33" viewBox="0 0 32 33"><path stroke="#0062C3" stroke-linecap="round" stroke-linejoin="round" stroke-width="2.667" d="M2.999 16.887a1.333 1.333 0 0 1 1.333-1.333h5.334a1.333 1.333 0 0 1 1.333 1.333v8a1.334 1.334 0 0 1-1.333 1.333H4.332A1.334 1.334 0 0 1 3 24.887v-8ZM19 11.553a1.333 1.333 0 0 1 1.333-1.333h5.334A1.333 1.333 0 0 1 27 11.553v13.333a1.333 1.333 0 0 1-1.333 1.334h-5.334A1.333 1.333 0 0 1 19 24.886V11.553ZM10.999 6.22a1.334 1.334 0 0 1 1.333-1.334h5.334a1.333 1.333 0 0 1 1.333 1.333v18.667a1.333 1.333 0 0 1-1.333 1.333h-5.334A1.333 1.333 0 0 1 11 24.886V6.219ZM4.333 26.22H23"/></svg>