<svg width="40" height="40" viewBox="0 0 40 40" xmlns="http://www.w3.org/2000/svg"><g id="Sub-Atomic/Blobs/Blob-2" stroke="none" stroke-width="1" fill-rule="evenodd"><path d="M19.24 39.995a19.995 19.995 0 0 1-2.256-.186 17.121 17.121 0 0 1-4.024-1.105 25.604 25.604 0 0 1-6.358-3.773c-2.207-1.78-4.02-4.219-4.889-6.856a14.909 14.909 0 0 1-.28-.957C.61 25.488.234 23.703.077 21.9c-.17-2.435-.106-4.904.624-7.264.412-1.336.927-2.64 1.618-3.872.619-1.097 1.348-2.123 2.131-3.119a22.564 22.564 0 0 1 5.68-5.091C11.35 1.786 12.738 1.243 14.117.8a17.14 17.14 0 0 1 4.229-.774C23.37-.26 28.169 1.805 31.98 4.789c2.083 1.63 3.922 3.658 5.254 5.892 1.334 2.239 2.218 4.653 2.601 7.201.384 2.548.064 5.175-.618 7.649-.682 2.477-1.973 4.918-3.612 6.941-1.714 2.115-3.861 3.782-6.333 5.036a23.686 23.686 0 0 1-3.91 1.548c-1.284.384-2.634.713-3.977.83-.619.053-1.239.114-1.86.114-.095 0-.19-.001-.285-.005Z" id="Fill-11"/></g></svg>