<svg width="40" height="40" viewBox="0 0 40 40" xmlns="http://www.w3.org/2000/svg"><g id="Sub-Atomic/Blobs/Blob-1" stroke="none" stroke-width="1" fill-rule="evenodd"><path d="M16.168 39.658c-3.057-.618-5.866-2.1-8.262-4.027a22.013 22.013 0 0 1-2.968-2.917 16.242 16.242 0 0 1-1.585-2.25C2.31 29.154 1.47 27.692.917 26.13c-1.018-2.873-1.174-5.964-.54-8.934.583-2.73 1.957-5.151 3.897-7.176.185-.276.377-.548.575-.816.42-.571.891-1.104 1.346-1.648 1.777-2.12 4.007-3.905 6.467-5.22a19.748 19.748 0 0 1 8.681-2.33c1.52-.046 3.057.184 4.528.536 1.304.31 2.563.791 3.756 1.384.72.358 1.42.718 2.097 1.15a18.408 18.408 0 0 1 3.47 2.866 16.972 16.972 0 0 1 4.269 7.957c.475 2.105.61 4.276.501 6.427-.073 1.448-.295 2.86-.608 4.276-.322 1.46-.9 2.835-1.586 4.164-1.436 2.782-3.925 4.954-6.568 6.626-.209.132-.42.26-.635.384a16.865 16.865 0 0 1-5.035 3.116A16.252 16.252 0 0 1 19.579 40c-1.145 0-2.29-.115-3.41-.342Z" id="Blob"/></g></svg>