<svg width="40" height="40" viewBox="0 0 40 40" xmlns="http://www.w3.org/2000/svg"><g id="Sub-Atomic/Blobs/Blob-3" stroke="none" stroke-width="1" fill-rule="evenodd"><path d="M18.804 39.956c-2.58-.126-5.118-.708-7.575-1.496-1.622-.52-3.215-1.21-4.657-2.13-2.555-1.627-4.58-3.965-5.664-6.848C-.45 25.868-.093 21.913.735 18.224c.569-2.535 1.574-5.007 2.84-7.26 1.551-2.76 3.709-5.151 6.327-6.88.884-.584 4.55-2.405 5.462-2.81C16.55.75 17.796.439 19.064.216c1.172-.205 2.37-.23 3.556-.208 1.3.025 2.661.224 3.912.587.669.194 1.322.424 1.976.667.655.241 1.274.615 1.888.948 1.207.652 2.264 1.604 3.265 2.536.938.871 1.766 1.947 2.465 3.026 1.352 2.086 2.457 4.405 3.09 6.828.348 1.333.63 2.676.727 4.053.129 1.796.049 3.582-.337 5.345-.27 1.23-.592 2.482-1.095 3.638a28.995 28.995 0 0 1-1.813 3.543c-1.257 2.068-2.964 3.92-4.918 5.304a16.982 16.982 0 0 1-3.43 1.905c-.712.287-1.43.535-2.159.773-1.178.383-2.427.562-3.65.718-.704.09-1.415.122-2.127.122-.537 0-1.075-.018-1.61-.044Z" id="Fill-14"/></g></svg>