<svg width="24" height="22" xmlns="http://www.w3.org/2000/svg"><path d="M7.6 0A5.38 5.38 0 0112 2.287a5.384 5.384 0 014.142-2.28L16.4 0H23a1 1 0 01.993.883L24 1v16.667a1 1 0 01-.883.993l-.117.007h-7.7c-1.268 0-2.3 1.042-2.3 2.333 0 .598-.402.927-.845.99l-.103.009h-.104c-.447-.02-.881-.31-.941-.866l-.012-.293c-.078-1.163-.995-2.09-2.138-2.168l-.157-.005H1a1 1 0 01-.993-.884L0 17.667V1A1 1 0 01.883.007L1 0h6.6zm0 2H2v14.666h6.7c.746 0 1.447.192 2.058.528l.242.144V5.444l-.005-.189C10.905 3.565 9.611 2.2 7.97 2.02l-.184-.015L7.6 2zM22 2h-5.6c-1.813 0-3.298 1.439-3.395 3.255l-.005.19v11.892l.223-.132a4.248 4.248 0 011.617-.514l.251-.02.209-.004 6.7-.001V2z" /></svg>