<?xml version="1.0" encoding="UTF-8"?>
<svg width="24px" height="22px" viewBox="0 0 24 22" version="1.1" xmlns="http://www.w3.org/2000/svg" xmlns:xlink="http://www.w3.org/1999/xlink">
    <title>A58F56DC-89B5-49EF-B337-82FE672AD634@2.00x</title>
    <g id="Iconography" stroke="none" stroke-width="1" fill="none" fill-rule="evenodd">
        <g transform="translate(-192.000000, -310.000000)" fill="#173145" id="Group">
            <g transform="translate(192.000000, 309.000000)" id="Shape">
                <path d="M7.6,1 C9.41590735,1 11.0211073,1.90316898 11.9997834,3.28721545 C12.9322685,1.96907596 14.4326362,1.08710652 16.1420629,1.00609841 L16.4,1 L23,1 C23.5128358,1 23.9355072,1.38604019 23.9932723,1.88337887 L24,2 L24,18.6666667 C24,19.1795025 23.6139598,19.6021738 23.1166211,19.6599389 L23,19.6666667 L15.3,19.6666667 C14.0320073,19.6666667 13,20.7090983 13,22 C13,22.5977011 12.5980975,22.9274673 12.1546189,22.9892985 L12.0517036,22.9988109 L11.9482964,22.9988109 C11.5005535,22.9782006 11.0666694,22.6896552 11.0069704,22.1331748 L10.9946825,21.8399888 C10.9171155,20.6769062 10.0002455,19.7504052 8.85721241,19.6720386 L8.7,19.6666667 L1,19.6666667 C0.487164161,19.6666667 0.0644928393,19.2806265 0.00672773133,18.7832878 L0,18.6666667 L0,2 C0,1.48716416 0.38604019,1.06449284 0.883378875,1.00672773 L1,1 L7.6,1 Z M7.6,3 L2,3 L2,17.666 L8.7,17.6666667 C9.44575269,17.6666667 10.146804,17.8578386 10.757802,18.1940607 L11,18.338 L11,6.44444444 L10.9949618,6.25524836 C10.9046657,4.56420684 9.61121328,3.20026992 7.97007332,3.02018369 L7.78633709,3.00508945 L7.6,3 Z M22,3 L16.4,3 C14.587011,3 13.102023,4.4389445 13.0050382,6.25524836 L13,6.44444444 L13,18.337 L13.2231336,18.2046148 C13.7116963,17.9325169 14.2584974,17.7534261 14.8401351,17.6911418 L15.0914731,17.6716693 L15.3,17.6666667 L22,17.666 L22,3 Z"></path>
            </g>
        </g>
    </g>
</svg>