<?xml version="1.0" encoding="UTF-8"?>
<svg width="22px" height="24px" viewBox="0 0 22 24" version="1.1" xmlns="http://www.w3.org/2000/svg" xmlns:xlink="http://www.w3.org/1999/xlink">
    <title>Calendar</title>
    <g id="Iconography" stroke="none" stroke-width="1" fill="none" fill-rule="evenodd">
        <g transform="translate(-257.000000, -309.000000)" fill="#173145" id="Group">
            <g transform="translate(256.000000, 309.000000)" id="Shape">
                <path d="M16.5,0 C17.0128358,0 17.4355072,0.38604019 17.4932723,0.883378875 L17.5,1 L17.5,2 L20,2 C21.5976809,2 22.9036609,3.24891996 22.9949073,4.82372721 L23,5 L23,21 C23,22.5976809 21.75108,23.9036609 20.1762728,23.9949073 L20,24 L4,24 C2.40231912,24 1.09633912,22.75108 1.00509269,21.1762728 L1,21 L1,5 C1,3.40231912 2.24891996,2.09633912 3.82372721,2.00509269 L4,2 L6.5,2 L6.5,1 C6.5,0.44771525 6.94771525,0 7.5,0 C8.01283584,0 8.43550716,0.38604019 8.49327227,0.883378875 L8.5,1 L8.5,2 L15.5,2 L15.5,1 C15.5,0.44771525 15.9477153,0 16.5,0 Z M21,10.5 L3,10.5 L3,21 C3,21.5128358 3.38604019,21.9355072 3.88337887,21.9932723 L4,22 L20,22 C20.5128358,22 20.9355072,21.6139598 20.9932723,21.1166211 L21,21 L21,10.5 Z M6.5,4 L4,4 C3.48716416,4 3.06449284,4.38604019 3.00672773,4.88337887 L3,5 L3,8.5 L21,8.5 L21,5 C21,4.48716416 20.6139598,4.06449284 20.1166211,4.00672773 L20,4 L17.5,4 L17.5,5 C17.5,5.55228475 17.0522847,6 16.5,6 C15.9871642,6 15.5644928,5.61395981 15.5067277,5.11662113 L15.5,5 L15.5,4 L8.5,4 L8.5,5 C8.5,5.55228475 8.05228475,6 7.5,6 C6.98716416,6 6.56449284,5.61395981 6.50672773,5.11662113 L6.5,5 L6.5,4 Z"></path>
            </g>
        </g>
    </g>
</svg>