<svg xmlns="http://www.w3.org/2000/svg" viewBox="0 0 24 24"><path d="M13.2 18.95a10.46 10.46 0 01-6.82-2.88 9.47 9.47 0 01-2.77-5.12 5.56 5.56 0 00-1.73 4 5.5 5.5 0 001.34 3.59.93.93 0 01.16 1l-.71 1.75 2.2-1a.91.91 0 01.74 0 7.29 7.29 0 002.74.56 6.88 6.88 0 004.85-1.9zm10.73.31a.94.94 0 01-.21 1 1 1 0 01-.66.27 1 1 0 01-.38-.08l-5-2.22a11 11 0 01-1.94.54 8.08 8.08 0 01-2.84 2.76 8.86 8.86 0 01-4.41 1.2h-.1a9 9 0 01-3.13-.56l-3.94 1.78a.87.87 0 01-.38.08 1 1 0 01-.66-.26.94.94 0 01-.21-1l1.37-3.39A7.3 7.3 0 010 14.95a7.57 7.57 0 013.51-6.28 9.09 9.09 0 013-5.92A10.64 10.64 0 0113.73 0 10.65 10.65 0 0121 2.75a9.05 9.05 0 013 6.73 10.61 10.61 0 01-.1 1.35.96.96 0 11-1.9-.28 7.94 7.94 0 00.08-1.07c0-4.19-3.76-7.6-8.39-7.6s-8.35 3.41-8.35 7.6c0 3.67 3.38 7.6 8.39 7.6a9 9 0 003.57-.72 1 1 0 01.75 0l3.28 1.45-1.11-2.73a.94.94 0 111.74-.7zM16.5 9.52a.94.94 0 10.94-.94.94.94 0 00-.94.94zm-3.75 0a.94.94 0 10.94-.94.94.94 0 00-.94.94zm-2.81-.94a.94.94 0 11-.94.94.94.94 0 01.94-.94z"/></svg>