<?xml version="1.0" encoding="UTF-8"?>
<svg width="24px" height="24px" viewBox="0 0 24 24" version="1.1" xmlns="http://www.w3.org/2000/svg" xmlns:xlink="http://www.w3.org/1999/xlink">
    <title>Close</title>
    <g id="close" >
        <path d="M16.5490909,12 L23.3720455,5.17704545 C24.2093182,4.33977273 24.2093182,2.98227273 23.3720455,2.14431818 L21.8556818,0.627954545 C21.0184091,-0.209318182 19.6609091,-0.209318182 18.8229545,0.627954545 L12,7.45090909 L5.17704545,0.627954545 C4.33977273,-0.209318182 2.98227273,-0.209318182 2.14431818,0.627954545 L0.627954545,2.14431818 C-0.209318182,2.98159091 -0.209318182,4.33909091 0.627954545,5.17704545 L7.45090909,12 L0.627954545,18.8229545 C-0.209318182,19.6602273 -0.209318182,21.0177273 0.627954545,21.8556818 L2.14431818,23.3720455 C2.98159091,24.2093182 4.33977273,24.2093182 5.17704545,23.3720455 L12,16.5490909 L18.8229545,23.3720455 C19.6602273,24.2093182 21.0184091,24.2093182 21.8556818,23.3720455 L23.3720455,21.8556818 C24.2093182,21.0184091 24.2093182,19.6609091 23.3720455,18.8229545 L16.5490909,12 Z" />
    </g>
</svg>