<svg id="Layer_1" data-name="Layer 1" xmlns="http://www.w3.org/2000/svg" viewBox="0 0 1080 1080"><defs><style>.cls-1{fill:#0061c2}</style></defs><path class="cls-1" d="M620.75 604q-12.75-11.35-33.42-20.36v142.12q19.95-8 32.88-22.34Q640 681.47 640 652.34 640 621 620.75 604Z"/><path class="cls-1" d="M540 0C241.77 0 0 241.77 0 540s241.77 540 540 540 540-241.77 540-540S838.23 0 540 0Zm169.6 717.27q-19.24 35.79-56.6 58.45-28.69 17.37-65.62 23.95v77.83a46.16 46.16 0 0 1-92.31 0v-77.66a208.6 208.6 0 0 1-50.16-16.21q-31.53-15.11-52.57-37.63t-31.12-46.76q-10.06-24.24-10.07-47.62 0-17.26 13.49-31.12t33.63-13.85q16.2 0 27.34 7.56a38.94 38.94 0 0 1 15.47 21.22q9.71 29.51 16.91 45.15t21.76 28.59A79.37 79.37 0 0 0 495 719.7v-165q-33-10.46-57.16-22.7a135.56 135.56 0 0 1-52.52-46.58q-20.15-30.21-20.14-77.7 0-61.86 39.39-101.43 33-33.1 90.45-43V202.5a46.16 46.16 0 0 1 92.31 0v61.05a199.06 199.06 0 0 1 42.78 12.53 130.43 130.43 0 0 1 48 36 152.91 152.91 0 0 1 25 37.77q8.8 19.43 8.81 35.61 0 18-13.13 31.12a43.36 43.36 0 0 1-31.79 13.1q-35.26 0-45.69-38.13-8.46-32.06-34-48.73v145.24q28.65 8.43 47.81 15.72a147.2 147.2 0 0 1 47.3 29.13 134.85 134.85 0 0 1 34.36 47.31q12 27.51 12.05 60.25a159.71 159.71 0 0 1-19.23 76.8Z"/><path class="cls-1" d="M454.39 398.74q0 28.42 15.83 43 9.43 8.68 24.8 16.42v-119a100.78 100.78 0 0 0-23.72 15q-16.92 14.73-16.91 44.58Z"/></svg>