<svg width="17" height="13" viewBox="0 0 17 13" xmlns="http://www.w3.org/2000/svg">
<path d="M1.8125 1.29956C4 1.87378 6.1875 1.3269 8.375 0.780027C10.7539 0.178464 13.1328 -0.450442 15.5117 0.451902C15.9492 0.615964 16.25 1.08081 16.25 1.573V10.0496C16.25 10.7058 15.5391 11.1433 14.9102 10.9519C12.7227 10.3777 10.5352 10.9246 8.375 11.4714C5.96875 12.073 3.58984 12.7019 1.21094 11.7996C0.773438 11.6355 0.5 11.1707 0.5 10.6785V2.2019C0.5 1.54565 1.18359 1.10815 1.8125 1.29956ZM8.34766 8.73706C9.57812 8.73706 10.5625 7.56128 10.5625 6.11206C10.5625 4.66284 9.57812 3.48706 8.34766 3.48706C7.14453 3.48706 6.16016 4.66284 6.16016 6.11206C6.16016 7.56128 7.14453 8.73706 8.34766 8.73706ZM2.22266 10.4871H3.97266C3.97266 9.53003 3.20703 8.73706 2.22266 8.73706V10.4871ZM2.22266 3.04956V4.79956C3.20703 4.79956 3.97266 4.03393 3.97266 3.04956H2.22266ZM14.5 7.42456C13.5156 7.42456 12.75 8.21753 12.75 9.17456H14.5V7.42456ZM12.75 1.73706C12.75 2.72143 13.5156 3.48706 14.5 3.48706V1.73706H12.75Z" />
</svg>
