<svg viewBox="0 0 80 80" xmlns="http://www.w3.org/2000/svg"><path d="M39.363 40.979c.953-.401 1.978-.654 2.965-1.096-.457-.86-.894-1.847-1.293-2.644-.141-.292-.243-.651-.51-.838-6.347 1.84-13.383 2.989-21.592 2.967-.165 6.627 2.241 11.249 5.414 14.756 3.66-5.665 8.53-10.423 15.016-13.145zm4.316 2.511c-7.31 2.637-13.052 6.841-16.625 13.213 2.401 1.888 5.662 3.516 9.475 4.19 4.194.739 8.593-.044 11.73-1.417-.943-5.407-2.464-10.547-4.19-15.081-.113-.293-.098-.696-.39-.905zM30.987 20.933c-5.876 2.933-10 7.623-11.667 14.761 7.305-.085 13.791-.991 19.526-2.644-2.481-4.178-4.975-8.338-7.859-12.117zM40 4.316C20.289 4.316 4.316 20.294 4.316 40S20.289 75.684 40 75.684c17.966 0 32.826-13.283 35.31-30.561.243-1.181.355-2.396.335-3.648.019-.488.039-.982.039-1.475C75.684 20.294 59.706 4.316 40 4.316zm18.243 52.449c-1.968 2.156-4.306 3.888-7.086 5.286-2.765 1.392-5.92 2.462-9.662 2.644-7.888.384-14.068-2.651-18.175-6.442-4.233-3.908-7.431-9.142-7.99-16.693-.296-4.015.491-7.563 1.677-10.569 1.23-3.125 2.688-5.468 4.7-7.667 2.819-3.077 6.649-5.755 11.473-7.089a26.348 26.348 0 0 1 5.351-.904c8.068-.52 14.034 2.731 18.233 6.508 4.19 3.762 7.485 9.232 7.927 16.756.468 7.918-2.574 13.947-6.448 18.17zM47.742 42.459c1.628 4.731 3.125 9.589 4.058 15.018 1.166-.654 2.202-1.558 3.159-2.515 2.916-2.919 5.069-6.7 5.925-11.599-3.628-1.062-8.716-1.604-13.142-.904zm-4.704-10.632c4.413-1.791 8.34-4.073 10.953-7.669-3.465-2.916-8.462-5.553-14.821-5.217-1.541.078-2.678.192-4.058.515 2.372 3.482 4.899 7.094 6.96 10.763.3.529.504 1.159.966 1.608zm1.545 3.22c.496.967.996 2.046 1.419 3.03.151.36.214.78.515 1.033 4.899-.549 10.345-.141 14.627.707-.165-5.786-2.085-9.815-4.768-13.084-3.061 3.639-7.122 6.283-11.793 8.314z"></path></svg>