<svg width="18" height="19" xmlns="http://www.w3.org/2000/svg"><g id="ðŸ—-Page-Components" stroke="none" stroke-width="1" fill-rule="evenodd"><g id="Page-Components/Desktop/Footer" transform="translate(-442 -425)" fill-rule="nonzero"><g id="Lower-Section" transform="translate(56 389)"><g id="Social-Media" transform="translate(147 36)"><path d="M248.586 18.25v-6.797h-2.266V8.836h2.266V6.883c0-1.12.312-1.98.937-2.578.625-.6 1.446-.899 2.461-.899.808 0 1.485.026 2.032.078v2.383h-1.407c-.494 0-.846.117-1.054.352-.157.182-.235.495-.235.937v1.68h2.617l-.351 2.617h-2.266v6.797h4.453c.287 0 .521-.098.704-.293a.97.97 0 00.273-.684V1.727a.919.919 0 00-.293-.704.97.97 0 00-.684-.273h-15.546a.952.952 0 00-.704.273.952.952 0 00-.273.704v15.546c0 .26.091.489.273.684a.919.919 0 00.704.293h8.359z" id="Facebook"/></g></g></g></g></svg>
