<?xml version="1.0" encoding="UTF-8"?>
<svg width="24px" height="24px" viewBox="0 0 24 24" version="1.1" xmlns="http://www.w3.org/2000/svg" xmlns:xlink="http://www.w3.org/1999/xlink">
    <title>198c0f88-b3b2-4f4a-9352-63cf3d6720f9@1.00x</title>
    <defs>
        <filter id="filter-1">
            <feColorMatrix in="SourceGraphic" type="matrix" values="0 0 0 0 0.000000 0 0 0 0 0.384314 0 0 0 0 0.764706 0 0 0 1.000000 0"></feColorMatrix>
        </filter>
    </defs>
    <g id="Iconography" stroke="none" stroke-width="1" fill="none" fill-rule="evenodd">
        <g id="facebook" filter="url(#filter-1)">
            <g>
                <path d="M24,12.0730223 C24,5.40365112 18.6290323,0 12,0 C5.37096774,0 0,5.40365112 0,12.0730223 C0,18.0988235 4.38822581,23.0935497 10.125,24 L10.125,15.563002 L7.0766129,15.563002 L7.0766129,12.0730223 L10.125,12.0730223 L10.125,9.41306288 C10.125,6.38750507 11.9153226,4.71626775 14.6574194,4.71626775 C15.9706452,4.71626775 17.343871,4.95188641 17.343871,4.95188641 L17.343871,7.92146045 L15.8303226,7.92146045 C14.34,7.92146045 13.875,8.85225152 13.875,9.80689655 L13.875,12.0730223 L17.2030645,12.0730223 L16.6708065,15.563002 L13.875,15.563002 L13.875,24 C19.6117742,23.0935497 24,18.0988235 24,12.0730223 Z" id="Path" fill="#000000" fill-rule="nonzero"></path>
            </g>
        </g>
    </g>
</svg>