<?xml version="1.0" encoding="UTF-8"?>
<svg width="24px" height="24px" viewBox="0 0 24 24" version="1.1" xmlns="http://www.w3.org/2000/svg" xmlns:xlink="http://www.w3.org/1999/xlink">
    <title>File</title>
    <g id="file" >
        <path d="M13.5,6.375 L13.5,0 L4.125,0 C3.5015625,0 3,0.5015625 3,1.125 L3,22.875 C3,23.4984375 3.5015625,24 4.125,24 L19.875,24 C20.4984375,24 21,23.4984375 21,22.875 L21,7.5 L14.625,7.5 C14.00625,7.5 13.5,6.99375 13.5,6.375 Z M16.5,17.4375 C16.5,17.746875 16.246875,18 15.9375,18 L8.0625,18 C7.753125,18 7.5,17.746875 7.5,17.4375 L7.5,17.0625 C7.5,16.753125 7.753125,16.5 8.0625,16.5 L15.9375,16.5 C16.246875,16.5 16.5,16.753125 16.5,17.0625 L16.5,17.4375 Z M16.5,14.4375 C16.5,14.746875 16.246875,15 15.9375,15 L8.0625,15 C7.753125,15 7.5,14.746875 7.5,14.4375 L7.5,14.0625 C7.5,13.753125 7.753125,13.5 8.0625,13.5 L15.9375,13.5 C16.246875,13.5 16.5,13.753125 16.5,14.0625 L16.5,14.4375 Z M16.5,11.0625 L16.5,11.4375 C16.5,11.746875 16.246875,12 15.9375,12 L8.0625,12 C7.753125,12 7.5,11.746875 7.5,11.4375 L7.5,11.0625 C7.5,10.753125 7.753125,10.5 8.0625,10.5 L15.9375,10.5 C16.246875,10.5 16.5,10.753125 16.5,11.0625 Z M21,5.7140625 L21,6 L15,6 L15,0 L15.2859375,0 C15.5859375,0 15.871875,0.1171875 16.0828125,0.328125 L20.671875,4.921875 C20.8828125,5.1328125 21,5.41875 21,5.7140625 Z" />
    </g>
</svg>