<?xml version="1.0" encoding="UTF-8"?>
<svg width="20px" height="24px" viewBox="0 0 20 24" version="1.1" xmlns="http://www.w3.org/2000/svg" xmlns:xlink="http://www.w3.org/1999/xlink">
    <title>3B557914-C60A-459F-91B3-9931C8249707@2.00x</title>
    <g id="Iconography" stroke="none" stroke-width="1" fill="none" fill-rule="evenodd">
        <g transform="translate(-386.000000, -373.000000)" fill="#173145" id="Group">
            <g transform="translate(384.000000, 373.000000)" id="Shape">
                <path d="M13.125,0 C13.3427711,0 13.5533322,0.0710390265 13.7256005,0.200446209 L13.8241176,0.284993331 L21.6991176,7.98499333 C21.859465,8.14177746 21.9615129,8.34690377 21.9910747,8.56666021 L22,8.7 L22,20.8 C22,22.5112862 20.6389146,23.9011351 18.9339449,23.9949519 L18.75,24 L5.25,24 C3.52176456,24 2.10108483,22.6691609 2.0051619,20.9820777 L2,20.8 L2,3.2 C2,1.48871385 3.3610854,0.0988649266 5.06605513,0.00504809975 L5.25,0 L13.125,0 Z M12,2 L5.25,2 C4.59813447,2 4.069884,2.47667534 4.00639904,3.07814616 L4,3.2 L4,20.8 C4,21.4165463 4.48750888,21.9317558 5.12137618,21.9937486 L5.25,22 L18.75,22 C19.4018655,22 19.930116,21.5233247 19.993601,20.9218538 L20,20.8 L20,10 L13,10 C12.4871642,10 12.0644928,9.61395981 12.0067277,9.11662113 L12,9 L12,2 Z M18.852,8 L14,3.255 L14,8 L18.852,8 Z"></path>
            </g>
        </g>
    </g>
</svg>