<svg viewBox="0 0 80 80" xmlns="http://www.w3.org/2000/svg"><path d="M40.077 2.762c-20.567 0-37.238 16.673-37.238 37.24 0 20.562 16.67 37.235 37.238 37.235 20.562 0 37.232-16.673 37.232-37.235 0-20.567-16.67-37.24-37.232-37.24M26.486 51.035c-6.095 0-11.035-4.942-11.035-11.032 0-6.098 4.939-11.043 11.035-11.043s11.04 4.945 11.04 11.043c0 6.092-4.945 11.032-11.04 11.032m27.179 0c-6.095 0-11.04-4.942-11.04-11.032 0-6.098 4.945-11.043 11.04-11.043S64.7 33.905 64.7 40.003c0 6.092-4.94 11.032-11.035 11.032"></path></svg>