<svg xmlns="http://www.w3.org/2000/svg" width="41" height="42">
    <g fill="none" fill-rule="nonzero">
        <path fill="#163045" d="M35.6536443 6.63531874C28.6857717-.28363935 17.4334344-1.52616661 9.24176936 3.93423382 7.30081171 5.22803745 5.67543622 6.81044042 4.37703533 8.5912228.19563339 14.3260979-.59467144 22.1183923 2.38662177 28.9548099c.19740029.4036666.26216985.85805.18527426 1.2997702L.51329314 38.8655576c-.14177817.6690605.06710643 1.3636018.55582278 1.8481108.39853131.390315.94139399.6030697 1.50278011.5889583.37425741-.0094075 3.44843771-.5915963 9.22254087-1.7465662.4478076-.0531154.9711443-.421212 1.39985-.2843247 9.2225409 2.9447919 20.00962-.7311207 23.7151052-6.3363796 3.7054852-5.605259 5.7121249-19.3810794-1.2557478-26.30003746z" />
        <path fill="#FFF" d="M30.2395188 35.8598391c-4.4165198 2.4082695-10.9124074 2.419721-15.5630378.4874138-.8140885-.3416145-1.6886084-.521066-2.5732536-.5280316-.3864418.0026687-.7720093.036631-1.1528176.1015445l-5.76408811.7717386.84402718-5.7068035c.23370285-1.2403184.08304897-2.5213316-.43230661-3.6759126-1.95867399-4.5880258-1.34771837-9.8290112 1.09341255-14.1860778C9.13258573 8.76664391 13.4637871 5.75417256 18.4437242 4.94967928c5.2341859-.84745928 10.5617214.35662538 14.3123628 4.05677741 3.7506414 3.70015201 5.7534252 9.50431121 4.8944021 14.66803691-.859023 5.1637256-2.9944506 9.7770759-7.4109703 12.1853455z" />
        <path fill="#163045" d="M28.0412621 26.3838389c.5582845 0 1.0108636.452579 1.0108636 1.0108636 0 .0462992-.0031809.0925437-.0095201.1384068-.0918352.6644074-.6480189 1.1666186-1.3183216 1.1903906l-13.6079026.4825991c-.7652855.0271406-1.4076738-.5712442-1.4348144-1.3365297l-.0008711-.4857304c0-.5522848.4477152-1 1-1h14.3605662zm-4.589498-5.7463525c.9599388 0 1.8309777.5619803 2.2266337 1.4365881.2315704.5118926.0043244 1.1145884-.5075681 1.3461589-.1317496.059601-.2746917.0904293-.4192954.0904293H14.117284c-.7934057 0-1.4365881-.6431824-1.4365881-1.4365882 0-.7934057.6431824-1.4365881 1.4365881-1.4365881h9.3344801zm-9.334664-5.7233699l15.3718237.2459492c.6375955.0102015 1.1491234.5299793 1.1491234 1.1676564 0 .6344332-.5136036 1.1491157-1.1480353 1.1504629-2.2509388.0047236-4.3657771.0234806-6.3445148.0562711-2.0680869.0342712-5.0777454.0992012-9.0289756.1947902-.7740328.0187109-1.41669-.5935862-1.4354156-1.3676186l-.00041-.0339056c0-.7808127.6329738-1.4137865 1.4137865-1.4137865l.0226177.0001809z" />
    </g>
</svg>
