<svg xmlns="http://www.w3.org/2000/svg" width="45" height="44">
    <g fill="none" fill-rule="nonzero">
        <path fill="#0B3047" d="M23.1510394 0c.7690718 0 1.5323259.0415456 2.2862717.12516947 2.1025451.23287693 4.1002424.72955992 5.9504658 1.49896644.9780169.40585822 1.867264.83799357 2.6920076 1.3172196.8587375.49824962 1.6835605 1.0544608 2.4735045 1.66724833 3.1610155 2.45040648 5.6184229 5.75313626 7.0453979 9.47608626.7377702 1.9230329 1.1974835 3.9578202 1.3808971 6.0675296.0964625 1.1097798.1085048 2.1834431.0301855 3.2313929-.0820018 1.1124526-.229314 2.1768609-.4481962 3.1922247-.8596963 3.9945078-2.8435294 7.7304265-5.6691845 10.6668654-1.4472271 1.5036833-3.0780378 2.7929049-4.8279284 3.8020523-1.8172306 1.0483848-3.748618 1.8344454-5.7150393 2.3119766-2.1346845.5181495-4.3012707.7307345-6.398258.6105887-2.1498246-.1218701-4.2216298-.5193578-6.1414141-1.1985994-1.9544508-.6906414-3.7641095-1.6073731-5.37345058-2.7414741-1.68683514-1.1889748-3.16642315-2.5380093-4.39979805-4.0382586-1.32694226-1.6137926-2.39909571-3.3211393-3.18601636-5.1146014-.45314618-1.0321531-.80610483-1.9869102-1.07134149-2.9320002-.27716854-.9845492-.48463489-1.9854364-.62231371-3.0009577-.150578-1.1102798-.22495774-2.1704257-.2174477-3.2047986.00844718-1.0219021.0947736-2.066485.25422203-3.1365099.15220217-1.019113.36557148-1.9980262.644924-2.9377014.2813391-.9406537.63532326-1.8837116 1.06524677-2.8535759.13991607-.3130578.38652705-.5630272.67496772-.733208L3.64199984 12.041l.07564161-.1513422c.25818841-.5068366.53502602-1.0004751.82994223-1.4792765l.30092127-.47379502c2.1652925-3.30521693 5.17208164-5.99319314 8.64837445-7.69386516C15.1409237 1.4379355 16.8445443.84161056 18.5682586.47774719L19.1435201.365102l.5736444-.09631648C20.8648414.09067102 22.0133493 0 23.1510394 0z"/>
        <path fill="#FFF" d="M20.5809497 3.14195374c-1.6596451.23445778-3.2769205.67769596-4.8091865 1.31690379-1.4857256.64015124-2.8850842 1.45831211-4.1645756 2.43314452-1.29992347 1.01321136-2.4664046 2.18126893-3.47141424 3.47397835-.67164225.8846909-1.26615371 1.8203493-1.77886401 2.7996755L6.28599984 13.303l.0089121.0361064c.03012563.1890055.03012563.3797633 2e-8.5687689l-.04016747.1882916-.04680299.135183-.11977898.2802792c-.62699137 1.5148922-1.06106596 3.0992822-1.29234936 4.7080832-.21275097 1.6766805-.21351522 3.3729939-.00443788 5.0324689.23269301 1.6286491.66946805 3.2230076 1.2953209 4.74158.64021462 1.4847103 1.46425461 2.8883328 2.44738012 4.176712.97586723 1.2373543 2.09143506 2.3516515 3.3163788 3.3154161 1.2858429.9785396 2.6786855 1.7930303 4.139661 2.42225 1.5006783.617141 3.0681844 1.0453725 4.65805 1.2752373 1.673259.2108266 3.3701038.2112854 5.0324318.0041616 1.6491959-.2335555 3.2649236-.6765472 4.8053695-1.3136498 1.4965936-.6462883 2.9126477-1.4788484 4.2113416-2.4716665 1.2529655-.9873384 2.3798433-2.1181303 3.3533973-3.3627426.9583972-1.2620179 1.7573521-2.6313285 2.3799679-4.0754439.6258869-1.5068864 1.0591201-3.0668515 1.2811396-4.623405.219822-1.7198447.2279007-3.4440155.0199699-5.0964655-.2291652-1.647353-.6637524-3.2511891-1.2916789-4.7701088-.6447786-1.5071118-1.4743925-2.9257709-2.4660636-4.2208365-.9963362-1.26881935-2.140069-2.40929802-3.4023626-3.39448982-1.2891205-.98292381-2.680026-1.79636693-4.1409232-2.42111233-1.3631824-.56441604-2.7837137-.97213544-4.2402412-1.21777904l-.5478435-.08450854-.5498324-.06181435c-1.5006721-.14778106-3.0142241-.12424267-4.5118886.06843822z"/>
        <path fill="#0B3047" d="M31.4894392 12.7477638c.2518149.3957814.2850959.9324659.052902 1.3414365-.080284.141078-.1579091.2719815-.2351778.3959236l-.2120507.3290249c-.1299675.1986577-.2322958.3427394-.3418061.4721293l-.8748072.951159-1.4929266 1.7049961-.7151606.8473888-1.1794934 1.4322755-.8394433.9845342 3.7219463 3.7908047.7249775.7522978c.5740711.6025073.9306041 1.0006251 1.3279406 1.4842006l.6008978.7446284c.3599501.4538432.7513762.9604041 1.2529224 1.6175102.382823.501392.3060539 1.2643466-.1053917 1.7315203-.2438595.2778711-.5897631.4462098-.9587991.465312-.1981429.0095851-.3904653-.0227487-.548531-.0846712l-.1116819-.0517972c-.2217679-.0898539-.4363144-.2200056-.6398302-.3816763l-.1883326-.1611748-.1998646-.1849597c-.0851899-.0817904-.1526632-.1522188-.2222062-.2323091l-.4608188-.5411825-.3093002-.3704873c-.3438582-.411483-.6987698-.8145295-1.1543033-1.3138685l-1.8142507-1.9628954-1.7302149-1.8218397-1.1286351-1.2030619c-.6309753.7603864-1.2730399 1.5760192-2.2032942 2.7877274l-1.122653 1.4673924-.7719169.9543297c-.0408974.0481742-.0790357.0917164-.12057.1377752l-.5598636.6170851c-.6414465.7062684-1.3466459 1.3747489-2.3140123 2.2197422-.2713291.23826-.6845291.3027095-1.0305533.222437-.3248136-.073601-.6099872-.2763164-.7896504-.5586229-.1841958-.2885258-.2470529-.6438321-.1747038-.9815332.0695704-.3192857.2190788-.5239268.4903507-.7605506l.1136946-.0994291c.615882-.5517661 1.1449513-1.0632393 1.6174144-1.5714807l.6493956-.7184811.6055879-.7494835c.1144792-.1425312.2163766-.2755284.3607204-.4705137l.8807431-1.195828c1.0656165-1.4388534 1.7737556-2.3699528 2.5075801-3.2825275-.3893834-.4154088-.7460056-.8021509-1.0846285-1.1763752l-.7431627-.8342785c-.0895597-.102465-.1785436-.2052801-.2737705-.3163633l-2.0354826-2.4114015c-.093804-.1093524-.1735492-.2007929-.2490305-.2853327l-.4370035-.4723589c-.5808871-.6215407-.8713419-.9263978-1.2198294-1.2731848-.5086187-.5082083-.5885126-1.3047155-.1807622-1.881385l.0948605-.120022.1078285-.1092936c.2266409-.2051992.5179798-.3308079.8251694-.359243.3983416-.0359895.791763.0947109 1.0768448.378681l.4138897.4199435.8873424.9355669c.2870124.3048456.4274198.4575116.5895787.6457988l1.2348291 1.4399088.6273662.7351698c.5760806.6761747 1.1084244 1.2575646 1.9163094 2.0938409l.3028576.3079397.4143831-.5085372c.2087154-.2610195.382802-.4848478.6780048-.8710281l.9678211-1.2611034.3476807-.434098c.1211431-.1479966.2534016-.306473.4143729-.4969766l1.074234-1.2668137.3725676-.4467655c.1489191-.1755465.2668848-.3083401.3851441-.4317663l.4009555-.392794c.0721877-.068193.1269445-.1179842.1678848-.1513851l.0364686-.0280118.0650038-.0702112.3287155-.2875565c.0197003-.0164829.0393631-.0327365.059638-.0493095.0913501-.0743677.1854576-.1321427.2998093-.1884484l.2396385-.1068264.1093731-.0403564.1119354-.028181.1134767-.0160616c.4688618-.0429514.9498937.2078449 1.2028562.6053628z"/>
    </g>
</svg>
