<svg viewBox="0 0 80 80" xmlns="http://www.w3.org/2000/svg"> <path d="M40.183 3.163C20.29 3.163 4.162 19.71 4.162 40.101c0 16.322 10.324 30.151 24.635 35.04.226.048.418.064.612.064 1.335 0 1.849-.981 1.849-1.833 0-.884-.032-3.2-.048-6.288-1.351.306-2.557.435-3.634.435-6.931 0-8.507-5.386-8.507-5.386-1.641-4.263-4.004-5.404-4.004-5.404-3.135-2.204-.016-2.267.225-2.267h.017c3.618.32 5.516 3.825 5.516 3.825 1.801 3.153 4.212 4.037 6.368 4.037 1.688 0 3.216-.546 4.117-.964.321-2.38 1.253-4.005 2.283-4.938-7.993-.934-16.403-4.101-16.403-18.252 0-4.036 1.399-7.332 3.698-9.906-.37-.933-1.607-4.696.354-9.777 0 0 .257-.08.803-.08 1.303 0 4.246.498 9.102 3.875 2.878-.82 5.95-1.221 9.022-1.238 3.054.017 6.142.418 9.021 1.238 4.856-3.377 7.8-3.875 9.103-3.875.546 0 .804.08.804.08 1.96 5.082.723 8.845.354 9.777 2.3 2.589 3.698 5.886 3.698 9.906 0 14.184-8.427 17.303-16.451 18.22 1.287 1.142 2.445 3.393 2.445 6.834 0 4.938-.049 8.925-.049 10.131 0 .868.498 1.85 1.832 1.85.194 0 .419-.017.645-.064 14.328-4.889 24.636-18.734 24.636-35.04C76.204 19.71 60.076 3.163 40.183 3.163z"></path></svg>