<svg width="18" height="19" xmlns="http://www.w3.org/2000/svg"><g id="ðŸ—-Page-Components" stroke="none" stroke-width="1" fill-rule="evenodd"><g id="Page-Components/Desktop/Footer" transform="translate(-321 -425)" fill-rule="nonzero"><g id="Lower-Section" transform="translate(56 389)"><g id="Social-Media" transform="translate(147 36)"><path d="M127.332 18.25c1.52-.003 2.628-.022 3.32-.059.743-.039 1.387-.15 1.934-.332a4.553 4.553 0 001.7-1.074 4.553 4.553 0 001.073-1.7c.183-.546.293-1.19.332-1.933.04-.742.059-1.96.059-3.652v-.651a99.25 99.25 0 00-.04-2.982c-.051-.755-.168-1.406-.35-1.953a4.553 4.553 0 00-1.075-1.7 4.553 4.553 0 00-1.7-1.073c-.546-.183-1.19-.293-1.933-.332-.742-.04-1.96-.059-3.652-.059h-.332c-1.52.003-2.628.022-3.32.059-.743.039-1.387.15-1.934.332a4.553 4.553 0 00-1.7 1.074 4.553 4.553 0 00-1.073 1.7c-.183.546-.293 1.19-.332 1.933-.04.742-.059 1.96-.059 3.652v.332c.003 1.52.022 2.628.059 3.32.039.743.15 1.387.332 1.934a4.553 4.553 0 001.074 1.7 4.164 4.164 0 001.7 1.034c.546.209 1.19.332 1.933.371.742.04 1.96.059 3.652.059h.332zm.605-1.563h-1.9a51.83 51.83 0 01-2.084-.039c-.963-.052-1.667-.156-2.11-.312-.78-.313-1.34-.872-1.679-1.68-.156-.442-.26-1.146-.312-2.11a56.99 56.99 0 01-.04-2.421l.001-1.589c.003-.88.015-1.574.039-2.083.052-.99.156-1.693.312-2.11a2.82 2.82 0 011.68-1.679c.442-.156 1.146-.26 2.11-.312a56.99 56.99 0 012.421-.04h1.25c1.042 0 1.849.014 2.422.04.99.052 1.693.156 2.11.312a2.82 2.82 0 011.679 1.68c.156.416.26 1.12.312 2.11.026.546.04 1.353.04 2.421v1.25c0 1.042-.014 1.849-.04 2.422-.052.963-.156 1.667-.312 2.11-.313.78-.872 1.34-1.68 1.679-.416.156-1.12.26-2.11.312a55.32 55.32 0 01-2.421.04h.312zm3.75-10.82a.951.951 0 00.723-.312c.195-.209.306-.456.332-.742 0-.287-.104-.534-.312-.743a1.014 1.014 0 00-.743-.312c-.286 0-.533.104-.742.312a1.014 1.014 0 00-.312.743c0 .286.104.533.312.742.209.208.456.312.742.312zM127 13.992c.807 0 1.556-.202 2.246-.605a4.505 4.505 0 001.64-1.64c.404-.691.606-1.44.606-2.247 0-.807-.202-1.556-.605-2.246a4.505 4.505 0 00-1.64-1.64A4.371 4.371 0 00127 5.007c-.807 0-1.556.202-2.246.605-.69.404-1.237.95-1.64 1.64a4.371 4.371 0 00-.606 2.247c0 .807.202 1.556.605 2.246.404.69.95 1.237 1.64 1.64.691.404 1.44.606 2.247.606zm0-1.562a2.822 2.822 0 01-2.07-.86 2.822 2.822 0 01-.86-2.07c0-.807.287-1.497.86-2.07a2.822 2.822 0 012.07-.86c.807 0 1.497.287 2.07.86.573.573.86 1.263.86 2.07 0 .807-.287 1.497-.86 2.07a2.822 2.822 0 01-2.07.86z" id="Insta"/></g></g></g></g></svg>
