<svg width="24" height="24" xmlns="http://www.w3.org/2000/svg"><path d="M12 0c6.627 0 12 5.373 12 12s-5.373 12-12 12S0 18.627 0 12 5.373 0 12 0zM9.113 5.05C7.994 5.101 7 5.357 6.18 6.176c-.822.818-1.075 1.812-1.13 2.933-.066 1.156-.066 4.62 0 5.777.052 1.121.308 2.114 1.13 2.933.821.818 1.811 1.075 2.933 1.13 1.155.066 4.619.066 5.774 0 1.122-.052 2.115-.308 2.933-1.13.818-.819 1.075-1.812 1.13-2.933.066-1.156.066-4.618 0-5.774-.052-1.121-.308-2.114-1.13-2.933-.818-.818-1.811-1.075-2.933-1.13-1.155-.066-4.619-.066-5.774 0zm2.889 1.211c1.018 0 3.207-.08 4.125.281a2.362 2.362 0 011.33 1.331c.366.922.282 3.109.282 4.127 0 1.018.084 3.208-.281 4.127a2.362 2.362 0 01-1.33 1.33c-.922.366-3.108.282-4.126.282-1.019 0-3.208.08-4.126-.281a2.362 2.362 0 01-1.33-1.331c-.366-.922-.282-3.109-.282-4.127 0-1.018-.081-3.208.281-4.127a2.362 2.362 0 011.33-1.33c.922-.366 3.108-.282 4.127-.282zm0 2.15A3.583 3.583 0 008.412 12a3.583 3.583 0 003.59 3.59A3.583 3.583 0 0015.59 12a3.583 3.583 0 00-3.588-3.59zm0 1.255A2.336 2.336 0 0114.335 12a2.338 2.338 0 01-2.333 2.334A2.338 2.338 0 019.668 12a2.336 2.336 0 012.334-2.334zm3.735-2.24a.837.837 0 100 1.675.837.837 0 000-1.674z" /></svg>