<?xml version="1.0" encoding="UTF-8"?>
<svg width="24px" height="24px" viewBox="0 0 24 24" version="1.1" xmlns="http://www.w3.org/2000/svg" xmlns:xlink="http://www.w3.org/1999/xlink">
    <title>fdcd1dd2-264f-443a-b3dc-7c1b770923a5@1.00x</title>
    <g id="Iconography" stroke="none" stroke-width="1" fill="none" fill-rule="evenodd">
        <g id="1.-Primitives/Icons/2.-Foreground-Secondary/LinkedIn" fill="#0062C3">
            <path d="M12,0 C18.627417,0 24,5.372583 24,12 C24,18.627417 18.627417,24 12,24 C5.372583,24 0,18.627417 0,12 C0,5.372583 5.372583,0 12,0 Z M8.13375,9.65291634 L5.23125,9.65291634 L5.23125,19 L8.13375,19 L8.13375,9.65291634 Z M15.5225,9.41853611 C14.1103125,9.41853611 13.16375,10.1935534 12.77625,10.9279448 L12.77625,10.9279448 L12.735625,10.9279448 L12.735625,9.65291634 L9.951875,9.65291634 L9.951875,19 L12.85125,19 L12.85125,14.3717717 C12.85125,13.1529945 13.0825,11.9748432 14.5915625,11.9748432 C16.07875,11.9748432 16.100625,13.3654992 16.100625,14.4498984 L16.100625,19 L19,19 L19,13.8655104 C19,11.3529543 18.46,9.41853611 15.5225,9.41853611 Z M6.6809375,5 C5.75258136,5 5,5.75259814 5,6.680975 C5,7.60912072 5.7528125,8.37788788 6.6809375,8.37788788 C7.60875,8.37788788 8.361875,7.60912072 8.361875,6.680975 C8.361875,5.75259814 7.60929364,5 6.6809375,5 Z" id="Combined-Shape"></path>
        </g>
    </g>
</svg>