<svg width="18" height="19" xmlns="http://www.w3.org/2000/svg"><g id="ðŸ—-Page-Components" stroke="none" stroke-width="1" fill-rule="evenodd"><g id="Page-Components/Desktop/Footer" transform="translate(-203 -425)" fill-rule="nonzero"><g id="Lower-Section" transform="translate(56 389)"><g id="Social-Media" transform="translate(147 36)"><path d="M16.5 18.25c.339 0 .631-.124.879-.371.247-.247.371-.54.371-.879V2c0-.339-.124-.631-.371-.879A1.201 1.201 0 0016.5.75h-15c-.339 0-.632.124-.879.371C.374 1.37.25 1.661.25 2v15c0 .339.124.632.371.879s.54.371.879.371h15zM4.234 6.258c-.416 0-.768-.15-1.054-.45-.287-.299-.43-.65-.43-1.054s.143-.755.43-1.055c.286-.3.638-.449 1.054-.449.417 0 .775.15 1.075.45.3.299.449.65.449 1.054s-.15.755-.45 1.055c-.299.3-.657.449-1.074.449zm5.508 9.492H7.164V7.39h2.5v1.133h.04c.181-.364.468-.664.858-.898a3.01 3.01 0 011.602-.43c1.198 0 2.044.378 2.54 1.133.364.6.546 1.55.546 2.852v4.57h-2.578v-4.062c0-.678-.065-1.172-.195-1.485-.183-.495-.573-.742-1.172-.742-.6 0-1.029.221-1.29.664-.182.339-.273.833-.273 1.484v4.141zm-4.18 0H2.945V7.39h2.617v8.36z" id="Linkedin"/></g></g></g></g></svg>
