<?xml version="1.0" encoding="UTF-8"?>
<svg width="24px" height="24px" viewBox="0 0 24 24" version="1.1" xmlns="http://www.w3.org/2000/svg" xmlns:xlink="http://www.w3.org/1999/xlink">
    <title>06ed800a-050b-4aec-8a23-1598e9e4d460@1.00x</title>
    <g id="Iconography" stroke="none" stroke-width="1" fill="none" fill-rule="evenodd">
        <g id="1.-Primitives/Icons/1.-Foreground-Primary/Search" fill="#173145">
            <path d="M10.5,0 C16.2989899,0 21,4.70101013 21,10.5 C21,13.0440431 20.0952358,15.3767671 18.589925,17.1939546 L18.6128994,17.2097046 L18.6128994,17.2097046 L18.7071068,17.2928932 L23.7071068,22.2928932 C24.0976311,22.6834175 24.0976311,23.3165825 23.7071068,23.7071068 C23.3466228,24.0675907 22.7793918,24.0953203 22.3871006,23.7902954 L22.2928932,23.7071068 L17.2928932,18.7071068 C17.256012,18.6702256 17.2226139,18.6311803 17.1926988,18.5903796 C15.3767671,20.0952358 13.0440431,21 10.5,21 C4.70101013,21 0,16.2989899 0,10.5 C0,4.70101013 4.70101013,0 10.5,0 Z M10.5,2 C5.80557963,2 2,5.80557963 2,10.5 C2,15.1944204 5.80557963,19 10.5,19 C15.1944204,19 19,15.1944204 19,10.5 C19,5.80557963 15.1944204,2 10.5,2 Z" id="Shape"></path>
        </g>
    </g>
</svg>