<svg width="28" height="29" viewBox="0 0 28 29" xmlns="http://www.w3.org/2000/svg">
<path fill-rule="evenodd" clip-rule="evenodd" d="M19.5383 11.2691C19.5383 15.8361 15.8361 19.5383 11.2691 19.5383C6.70222 19.5383 3 15.8361 3 11.2691C3 6.70222 6.70222 3 11.2691 3C15.8361 3 19.5383 6.70222 19.5383 11.2691ZM17.939 20.3534C16.0715 21.7269 13.7651 22.5383 11.2691 22.5383C5.04537 22.5383 0 17.4929 0 11.2691C0 5.04537 5.04537 0 11.2691 0C17.4929 0 22.5383 5.04537 22.5383 11.2691C22.5383 13.9153 21.6263 16.3484 20.0995 18.2713L27.8793 26.0511L25.758 28.1724L17.939 20.3534Z" />
</svg>
