<svg width="159" height="129" viewBox="0 0 159 129" xmlns="http://www.w3.org/2000/svg"><g id="🏗-Page-Components" stroke="none" stroke-width="1" fill="none" fill-rule="evenodd"><g id="Page-Components/Desktop/Get-in-Touch" transform="translate(-1149 -258)" fill="#0062C3" fill-rule="nonzero"><g id="Bubbles" transform="matrix(-1 0 0 1 1308 62)"><path d="M78.845 196l.673.007 1.543-.002.345.005.483.013 2.771.11.546.035 2.292.176.773.07 2.73.307.319.044.612.094 1.523.22.275.043.51.087 2.843.524.429.095.45.104 1.728.384.755.181 2.76.728.813.248 1.486.441.267.083.493.16 2.6.872.498.18 2.429.902.701.276 1.149.465c.45.183.904.373 1.364.57l.696.303 1.398.62.482.221 1.797.85c.195.094.376.183.55.271l.253.132 2.548 1.34 2.156 1.231.69.406 1.97 1.208.186.12 2.312 1.549.13.088 1.967 1.39.459.335 1.595 1.197.481.371 2.313 1.85.426.356 1.691 1.44.546.496 1.222 1.102.638.594 1.229 1.194.592.588 1.145 1.18.57.602 1.092 1.207.578.66 1.1 1.319.527.65 1.009 1.306.242.327 1.182 1.661.256.384 1.126 1.767.226.381 1.025 1.816.113.217.27.555.655 1.314.165.354.865 2.017.14.356.227.642.461 1.26.146.426.24.788.26.798.089.298.585 2.195.416 1.872.111.554.269 1.569.083.526.068.469.057.442.175 1.477.038.406.044.738.079 1.123.007.19.027 1.985-.006.321-.076 1.81-.045.687-.165 1.77-.037.332-.095.648-.114.868-.025.167-.054.308-.387 1.98-.082.384-.435 1.749-.167.615-.483 1.655-.135.426-.288.831-.249.75-.083.228-.593 1.554-.295.736-.619 1.437-.122.265-.606 1.267-.34.678-.702 1.322-.212.38-.718 1.224-.246.398-.9 1.38-.326.48-1.187 1.662-1.076 1.403-.128.158-1.007 1.221-.527.62-1.065 1.2-.3.326-1.05 1.075-.246.24-1.178 1.109-.635.58-.607.54-.726.633-.829.707-.614.504-1.235.969-.46.342-1.018.741-.738.515-1.291.88-1.012.658-.894.559-.926.568-.41.24-1.209.691-1.414.755-.83.431-.303.153c-.307.152-.619.305-.938.46l-.98.467c-.167.08-.337.159-.51.24a66.31 66.31 0 01-4.307 1.807l-1.235.466-.748.276-.702.252-.992.343-.957.312-1.406.442-1.147.348-.508.148-.715.198-.464.122-.469.118-1.386.334-.84.194-.79.174a66.49 66.49 0 01-.38.081l-.742.15-.726.138c-1.718.313-3.39.58-5.034.798-1.123.15-2.29.275-3.557.383l-.643.053-1.38.101c-2.482.171-4.996.256-7.543.256-3.734 0-7.537-.182-11.416-.538a82.435 82.435 0 01-17.815-3.649c-.9-.29-1.806-.603-2.723-.937l-.39-.146-.288.227a35.825 35.825 0 01-2.822 1.913l-.463.283-.483.288c-1.779 1.055-3.683 2.055-5.82 3.073a90.89 90.89 0 01-6.023 2.61c-1.303.509-2.653 1.01-4.093 1.522l-1.472.516-.761.262a144.888 144.888 0 01-6.16 1.958l-1.015.296-1.4.402-1.288.358-1.207.323-.777.2-.766.19-1.406.338-1.354.313-1.306.288c-3.423.734-6.393 1.209-9.337 1.464l-.666.056-.59.042-.536.029-.502.017-.246.005-.245.001-.35-.004-1.052-.042-.09-.006c-.605-.041-1.092-.122-1.56-.283-.951-.327-1.686-1.029-1.896-2-.2-.928.079-1.84.696-2.594l.242-.288.266-.297.306-.326 1.139-1.173 1.413-1.41 1.367-1.346a377.37 377.37 0 007.9-8.044l2.137-2.255 1.841-1.966 1.279-1.382 1.21-1.324 1.156-1.285.75-.844 1.757-2.016.64-.744 1.043-1.243.943-1.145.583-.722.554-.7c.09-.114.18-.228.268-.342l.521-.678.255-.338c.385-.512.775-1.04 1.178-1.595l1.495-2.081-.147-.027a12.957 12.957 0 01-.536-.122l-.276-.07-.423-.12a18.99 18.99 0 01-2.203-.819 36.75 36.75 0 01-2.23-1.057 43.917 43.917 0 01-4.234-2.489 65.385 65.385 0 01-3.956-2.887 33.595 33.595 0 01-1.481-1.229l-.851-.768-.272-.255-.674-.664-.111-.115-.196-.212-.583-.644-.111-.128-.2-.244-.89-1.14-.114-.163-.167-.254-.475-.701-.243-.38-.687-1.177-.13-.234-.112-.218-.696-1.417-.183-.398-.593-1.417-.075-.191-.455-1.288-.224-.658-.187-.58-.44-1.444-.06-.228-.378-1.54-.063-.28-.05-.245-.317-1.856-.062-.46-.204-1.972-.03-.428-.025-.77-.051-1.155-.003-.184.026-1.333.013-.783.014-.294.188-2.257.02-.188.025-.177.316-2.091.065-.36.445-2.087.073-.312.46-1.716.138-.48.598-1.861.248-.72.565-1.496.205-.52.097-.237.4-.912.435-.967.204-.433.197-.392.712-1.366.282-.52.21-.367.802-1.348.291-.474.176-.274.178-.267 1.289-1.901.172-.242.999-1.343.294-.403.154-.206.14-.181 1.653-2.076.339-.404.465-.537.887-1.038.6-.676 1.214-1.302.274-.283 1.525-1.52.62-.593 1.34-1.22.449-.398 1.4-1.19.652-.537 1.29-1.014a51.9 51.9 0 012.215-1.641l.836-.58.907-.613.977-.645a56.066 56.066 0 012.678-1.646l1.53-.86.64-.347 1.886-.975.517-.256.244-.116 1.358-.635.661-.315.247-.112 2.615-1.109.356-.142 2.018-.77.757-.278 1.482-.509a92.275 92.275 0 013.836-1.235l.512-.15 2.273-.652.181-.048 2.728-.68 2.48-.546.773-.16 2.761-.515.24-.037.683-.091 1.52-.221.536-.068 3.083-.324 2.653-.183.81-.045 2.742-.094.367-.005zm2.556 4.79l-2.624-.01-.433.008-2.802.095-2.936.205-.419.04-.746.085-1.689.178-.402.05-.858.129-1.662.236-.404.067-.867.169-1.468.273-2.062.448-.525.12-.483.117-2.43.609-.493.137-2.155.62-2.323.728-1.032.336-2.052.706-2.77 1.062-.905.389-1.637.697-.407.19-.51.244-1.34.624-.537.27-1.707.873-1.92 1.075-.46.265-1.866 1.146-.413.266-1.86 1.243-1.582 1.142-.662.497-1.44 1.124-.323.259-.279.232-1.647 1.397-1.598 1.466-.386.37-1.493 1.488-.246.255-1.589 1.718-1.585 1.854-.249.302-.519.662-.978 1.233-.634.861-.84 1.13-.229.323-.477.715-.705 1.037-1.28 2.127-1.107 2.105-.962 2.151-.095.26-.682 1.776-.576 1.759-.145.47-.502 1.838-.07.27-.081.36-.376 1.755-.337 2.24-.013.124-.165 1.966-.042 2.158.004.285.036.663.043 1.09.212 2.06.04.29.124.67.16.945.456 1.846.079.284.2.635.262.86.59 1.674.092.238.24.551.369.883.69 1.406.099.185.27.452.393.682.786 1.154.249.315.465.6.593.664.26.278.308.31.455.438.548.511c.55.474 1.121.947 1.72 1.43l.74.588.392.3.578.428 1.198.856.982.657.413.27.381.243.542.332.18.107c.38.224.767.446 1.16.665l.596.327.854.454c1.366.68 2.522 1.192 3.638 1.595l.995.337.478.175.391.157c.548.236 1.132.567 1.519.923.495.456.958 1.148 1.107 1.733.164.645.024 1.162-.386 2.081-.076.17-.18.359-.317.58l-.229.356-.356.519-.544.779a88.652 88.652 0 01-1.95 2.806 77.848 77.848 0 01-2.995 3.873l-.776.937-.407.485-1.101 1.295c-.372.433-.749.868-1.13 1.306l-1.164 1.322-.596.67-1.223 1.356-1.267 1.388-1.316 1.422-1.37 1.464a399.325 399.325 0 01-8.243 8.527l-.888.887-2.631 2.6.206-.015c.91-.075 1.832-.18 2.804-.316l.99-.148c1.011-.159 2.085-.352 3.262-.583l1.214-.243c2.182-.474 4.331-.99 6.455-1.552l.968-.26.991-.277 1.022-.293 1.064-.312 1.115-.336 1.177-.36 1.147-.36 1.177-.382c.399-.131.804-.267 1.219-.408l1.272-.436c.434-.151.88-.308 1.338-.47l.665-.24 1.271-.47a90.885 90.885 0 009.561-4.167c2.245-1.166 4.068-2.224 5.72-3.35l.148-.113.207-.171 1.534-1.34.22-.18.117-.087.1-.068.092-.053.091-.045a2.314 2.314 0 01.965-.21l.188.008.155.018.185.035.214.051.246.069.279.087.485.165.574.209.914.35 1.088.43a80.847 80.847 0 006.586 1.897l1.116.263 1.174.258 1.395.272c1.427.266 2.873.495 4.342.69.682.09 1.381.172 2.116.249l1.13.11 1.197.105 1.527.12c2.606.172 5.121.265 7.577.275l.493.001.997-.007 1.022-.018 1.058-.029 1.104-.04 1.162-.05 1.23-.063.598-.032 1.106-.075a53.956 53.956 0 001.67-.143l1.518-.17.869-.105.716-.094 2.264-.339.548-.09.365-.065c.6-.109 1.208-.223 1.821-.343l.94-.186 1.398-.316.61-.142.81-.197.491-.125.466-.125.681-.194 1.462-.436.897-.277.93-.302 1.325-.446 1.472-.535 1.478-.56.508-.198.445-.177.595-.247 1.554-.68.83-.374.851-.399 1.064-.52.72-.357 1.221-.645.464-.258 1.233-.706.618-.365.777-.474 1.06-.672.589-.381.554-.369 1.105-.766 1.658-1.218.603-.48.733-.575.352-.292 1.287-1.099.576-.516.538-.488 1.075-1.02.426-.419 1.093-1.134.214-.235 1.014-1.147.984-1.192.387-.487.863-1.125.283-.383.645-.89.294-.426.976-1.482 1.058-1.785.095-.173.3-.578.422-.794.648-1.36.26-.576.581-1.367.124-.309.624-1.633.468-1.389.202-.635.446-1.52.122-.458.417-1.688.324-1.657.057-.33.058-.384.188-1.314.048-.398.168-1.802.085-2.006.004-.32-.017-.727-.012-1.01-.104-1.55-.04-.459-.203-1.749-.061-.433-.31-1.856-.415-1.92-.068-.282-.133-.51-.41-1.525-.095-.312-.534-1.704-.763-2.082-.133-.33-.322-.726-.428-1-.876-1.754-.214-.4-.953-1.676-.228-.372-.962-1.509-1.094-1.537-.447-.599-1.121-1.436-.292-.356-1.188-1.416-1.35-1.48-.555-.589-1.298-1.323-.393-.387-1.24-1.2-.224-.214-1.442-1.3-.607-.531-1.696-1.438-.66-.537-1.491-1.176-1.957-1.493-.782-.577-1.593-1.13-2.322-1.548-.401-.257-.869-.523-.913-.568-.225-.132-2.491-1.421-.404-.221-.866-.447-1.13-.595-1.54-.738-.819-.395-1.642-.726-.798-.358-.375-.16-2.527-1.025-.179-.068-2.683-.99-2.869-.962-.31-.097-.945-.276-1.714-.512-.475-.125-.613-.155-1.59-.417-.44-.106-.943-.202-1.373-.307-2.907-.534-.348-.058-1.032-.144-1.672-.245-.395-.047-.882-.091-1.698-.189-.441-.035-.833-.056-1.4-.105-2.492-.098-.629-.017z" id="Shape" transform="matrix(-1 0 0 1 159 0)"/></g></g></g></svg>