<svg width="107" height="84" viewBox="0 0 107 84" xmlns="http://www.w3.org/2000/svg"><g id="🏗-Page-Components" stroke="none" stroke-width="1" fill="none" fill-rule="evenodd"><g id="Page-Components/Desktop/Get-in-Touch" transform="translate(20 -62)" fill="#0062C3" fill-rule="nonzero"><g id="Bubbles" transform="matrix(-1 0 0 1 1308 62)"><path d="M1272.213.064l1.92-.063.596.003h1.162l.421.011 1.844.071.367.023 1.52.115.519.045 1.906.21.528.079 1.012.142.36.057 2.02.36 1.776.387.506.118 1.699.436.298.083.38.114.986.286.349.107 1.89.617.334.117 1.683.61.49.19.67.265c.3.119.603.242.91.37l.464.197.929.401.472.214 1.044.481.37.179 1.878.961 1.423.793.463.266 1.31.782 1.653 1.077.1.067 1.305.899.309.219 1.059.775.471.358 1.392 1.086.284.232 1.085.899 1.218 1.072.428.389.816.773.397.384.762.765.382.394.727.784.39.432.731.856.354.426.673.849.164.216.79 1.081.173.255.752 1.15.154.253.64 1.106c.036.06.067.117.1.18l.201.402.438.856.115.24.576 1.312.098.242.15.411.307.82.1.288.158.502.173.52.048.153.041.146.368 1.346.285 1.26.052.25.197 1.116.09.573.045.34.118.963.025.275.03.474.056.8.018 1.232.001.237-.056 1.308-.029.425-.121 1.26-.078.537-.076.565-.027.169-.029.157-.265 1.32-.045.204-.233.923-.118.44-.113.392-.266.883-.092.285-.192.54-.15.442-.073.197-.395 1.009-.2.484-.413.936-.488 1-.228.445-.519.948-.443.745-.243.393-.655.983-.22.315-.755 1.033-.74.942-.106.129-.67.792-.354.406-.71.78-.207.218-.788.784-.806.742-.441.394-.547.474-.679.571-.257.213-.413.33-.825.63-.308.225-.726.514-.968.651-.69.447-.43.27-.88.531-.227.135-.275.157-.817.455-1.305.675-.382.189-.387.186-.806.377-.423.194c-.897.406-1.846.793-2.874 1.176l-.717.264-.65.234-.6.209-.567.189-.858.27-.806.244-.675.198-.595.165-.378.098-.803.194-.783.18-.716.157-.67.137-.648.12a72.352 72.352 0 01-3.349.519c-.699.09-1.423.167-2.203.234l-.597.049-.916.065c-1.65.111-3.323.166-5.017.166-2.483 0-5.011-.118-7.59-.349a56.156 56.156 0 01-11.868-2.37 52.836 52.836 0 01-1.61-.536l-.298-.107-.054.042c-.526.387-1.085.758-1.722 1.147l-.392.236-.413.241a48.726 48.726 0 01-3.88 1.997 61.354 61.354 0 01-4.012 1.695c-.742.283-1.507.561-2.313.844l-1.241.428-.648.218c-1.345.449-2.71.872-4.094 1.268l-1.227.347-1.437.391-.663.172-.96.236c-3.498.834-6.226 1.33-8.926 1.56l-.549.043-.476.03-.433.018-.209.005-.208.001-.238-.003-.694-.027-.073-.004a4.28 4.28 0 01-1.115-.199c-.734-.246-1.313-.785-1.482-1.55-.16-.72.06-1.422.536-1.988.114-.136.23-.266.368-.411l.305-.315.53-.532 1.102-1.073.855-.821a250.36 250.36 0 005.984-5.965l1.647-1.707 1.113-1.17.697-.745.67-.724.65-.711 1.161-1.3.423-.478.644-.749.586-.692.539-.65.254-.314.488-.613.236-.303c.169-.22.34-.444.513-.675l.533-.714.39-.531-.061-.014-.347-.095c-.484-.14-.979-.32-1.497-.541a24.95 24.95 0 01-1.497-.692 29.597 29.597 0 01-2.836-1.625 43.616 43.616 0 01-2.64-1.88c-.341-.26-.65-.51-.94-.756l-.654-.575-.214-.2-.396-.38-.15-.152-.453-.488-.115-.13-.104-.126-.552-.688-.057-.074-.501-.723-.169-.258-.416-.694-.117-.2-.095-.181-.465-.923-.126-.27-.395-.918-.163-.43-.292-.819-.115-.338-.103-.32-.257-.824-.042-.154-.285-1.144-.042-.197-.215-1.23-.043-.308-.136-1.286-.02-.291-.017-.493-.035-.784v-.104l.025-1.372.007-.154.128-1.518.015-.13.203-1.33.043-.255.044-.22.294-1.34.193-.722.143-.516.117-.393.401-1.214.14-.397.366-.944.21-.519.096-.219.429-.937.247-.507.556-1.044.195-.349.718-1.183.159-.25.225-.335.88-1.266.097-.13 1.001-1.315 1.157-1.418.23-.266.897-1.02.404-.442.808-.845.186-.188 1.015-.985.417-.39 1.085-.96 1.04-.863.438-.352.854-.655c.289-.221.585-.44.898-.662l.65-.453c.113-.077.228-.156.347-.235l.748-.495a42.265 42.265 0 012.358-1.445l1.04-.57.657-.346 1.087-.546.348-.168 1.59-.73.163-.069 1.662-.687.24-.093 1.34-.499.509-.182 1.497-.499.986-.315c.32-.1.631-.193.937-.282l1.942-.547 1.966-.48 1.646-.354.519-.104 1.853-.336.599-.081 1.01-.143.36-.045 1.964-.201.238-.02.464-.029 1.153-.078.542-.03zm-47.968 81.009l-.212.226-.19.216c-.102.121-.13.208-.116.27l.024.02c.025.017.07.042.142.066.12.04.267.068.458.087l.259.018a1.018 1.018 0 01-.365-.903zm34.494-12.078l.119.004c.073.001.155.01.248.026l.204.044.24.065.284.089.516.18.414.153.971.373c1.328.433 2.678.816 4.042 1.147l1.026.239.771.165.921.175a54.78 54.78 0 004.745.65l1.04.091 1.009.077c1.72.11 3.379.17 5 .177.455.002.914-.001 1.39-.01l.975-.024a88.1 88.1 0 00.51-.018l1.073-.045.57-.028.534-.028.733-.048c.364-.025.73-.056 1.095-.092l1.449-.161.553-.07 1.515-.22.619-.103.898-.163.918-.176 1.324-.294.656-.156.58-.15.37-.104 1.558-.459.699-.222.782-.257 1.216-.433 1.194-.448.352-.139 1.573-.67.668-.303 1.259-.602.94-.487 1.052-.586.528-.307.43-.259.732-.454.238-.15.362-.235.724-.49 1.11-.796.379-.293.478-.366.228-.185.87-.724.709-.623.707-.654.276-.265.686-.692.169-.18.664-.732.648-.765.252-.31.692-.883.484-.65.19-.268.637-.944.707-1.163.246-.459.273-.498.426-.871.168-.365.431-.992.44-1.118.308-.89.13-.403.321-1.068.324-1.265.218-1.09.07-.422.131-.903.03-.263.102-1.065.056-1.284.003-.193-.012-.474-.006-.63-.069-.995-.025-.285-.13-1.095-.04-.277-.204-1.199-.302-1.35-.356-1.308-.076-.246-.348-1.084-.5-1.333-.083-.202-.215-.472-.275-.627-.587-1.145-.172-.31-.538-.923-.188-.302-.627-.959-.72-.986-.291-.38-.808-1.007-.12-.141-.778-.904-.888-.951-.364-.376-.95-.941-1.125-1.061-1.042-.915-.462-.39-.963-.795-.433-.344-.788-.607-.643-.484-.844-.625-.513-.37-1.047-.723-1.532-.996-.259-.162-.843-.5-.416-.25-1.708-.95-.26-.14-.576-.29-.738-.378-1.604-.75-1.74-.751-1.78-.704-1.835-.66-2.012-.656-.71-.203-1.093-.32-.307-.08-.496-.122-.996-.255-.283-.066-.628-.131-.897-.196-2.01-.36-.189-.028-.63-.086-1.207-.17-.735-.076-1.142-.123-.235-.018-.58-.038-.916-.067-1.646-.064-.41-.01-1.735-.006-.28.005-1.843.06-2.022.14-1.954.205-.671.097-1.094.151-.259.042-.576.11-.964.174-1.363.289-.452.102-1.834.446-1.62.451-.176.053-1.46.445-.678.216-1.349.452-1.8.673-.623.26-1.049.434-.26.117-.372.174-.88.4-.353.172-1.12.559-1.268.69-.297.168-1.314.789-.248.157-1.158.755-1.043.734-.433.316-1.016.774-.25.198-1.157.956-1.071.959-.311.293-.907.881-.23.236-.97 1.021-1.108 1.265-.173.21-.268.335-.674.829-.387.514-.551.723-.147.2-.317.465-.456.653-.838 1.355-.723 1.339-.641 1.4-.051.137-.445 1.13-.38 1.128-.092.293-.341 1.22-.087.353-.244 1.11-.221 1.43-.008.072-.108 1.245-.028 1.38.002.17.024.433.027.68.139 1.316.024.171.082.437.1.584.336 1.312.146.454.169.54.386 1.07.056.14.16.36.235.55.451.897.057.105.182.296.246.418.52.745.172.211.273.345.199.219.18.194.19.2.221.214.28.261.33.3c.482.405.989.81 1.532 1.228.146.113.284.217.438.328l.691.489.377.26.825.537.496.306.312.183.569.32.581.314.558.289a24.37 24.37 0 002.059.9l.31.114.671.221.321.115.268.104c.394.166.809.396 1.1.656.375.337.72.84.839 1.295.138.53.03.918-.277 1.59a3.842 3.842 0 01-.278.487l-.367.53-.342.478a57.59 57.59 0 01-1.3 1.823 49.107 49.107 0 01-1.75 2.223l-.674.8-.36.417a144.083 144.083 0 01-3.877 4.296l-1.076 1.14-1.13 1.179a262.617 262.617 0 01-5.321 5.369l-.737.718-1.012.974.321-.036c.5-.059 1.017-.13 1.563-.218l.843-.141.898-.164.963-.187c1.441-.305 2.86-.638 4.262-.999l.855-.226.885-.244.93-.265.992-.292.523-.156c.312-.094.628-.191.95-.292l.982-.315 1.032-.342 1.097-.374a78.026 78.026 0 003.909-1.474 60.592 60.592 0 003.667-1.658c1.476-.748 2.672-1.425 3.75-2.141l.127-.097.208-.172.866-.74.198-.16.098-.07.085-.053.081-.042.088-.04c.226-.095.464-.144.705-.147z" id="Shape"/></g></g></g></svg>