<svg width="45" height="45" viewBox="0 0 45 45" xmlns="http://www.w3.org/2000/svg"><g stroke="none" stroke-width="1" fill="none" fill-rule="evenodd"><g id="Existing-Components/Desktop/Callout-Card" transform="translate(-32 -32)"><g id="Icon" transform="translate(32 32)"><circle id="Oval-Copy-7" fill="#0062C3" cx="22.145" cy="22.145" r="22.145"/><path d="M17.145 23.145a1 1 0 01.117 1.993l-.117.007H13.67l2.823 2.653a8 8 0 0013.2-2.987 1 1 0 011.886.668 10 10 0 01-7.22 6.417 9.99 9.99 0 01-9.03-2.44l-.228-.222-2.955-2.778v3.69a1 1 0 01-.883.992l-.117.007a1 1 0 01-.993-.883l-.007-.117v-6l.002-.067.015-.117.021-.09.026-.079.048-.106.026-.048.058-.087.033-.043.042-.048c.027-.028.052-.052.079-.075l-.079.075a1.01 1.01 0 01.29-.213l.106-.045.157-.041.101-.013.075-.003h6zm11.816-8.31l.229.221 2.955 2.778v-3.689a1 1 0 01.883-.993l.117-.007a1 1 0 01.993.883l.007.117-.002 6.068-.01.092-.018.083-.033.109-.048.107-.047.08-.042.062-.071.084a1.026 1.026 0 01-.079.075l.079-.075a1.01 1.01 0 01-.248.192l-.054.028-.094.038-.116.034-.14.02-.077.003h-6a1 1 0 01-.117-1.993l.117-.007h3.476l-2.823-2.653a8 8 0 00-13.2 2.987 1 1 0 01-1.886-.668 10 10 0 017.22-6.417 9.99 9.99 0 019.03 2.44z" id="Shape" fill="#FFF"/></g></g></g></svg>
