<?xml version="1.0" encoding="UTF-8"?>
<svg width="24px" height="24px" viewBox="0 0 24 24" version="1.1" xmlns="http://www.w3.org/2000/svg" xmlns:xlink="http://www.w3.org/1999/xlink">
    <title>Trash</title>
    <g id="trash" >
        <path d="M3,21.75 C3,22.9926407 4.00735931,24 5.25,24 L18.75,24 C19.9926407,24 21,22.9926407 21,21.75 L21,6 L3,6 L3,21.75 Z M15.75,9.75 C15.75,9.33578644 16.0857864,9 16.5,9 C16.9142136,9 17.25,9.33578644 17.25,9.75 L17.25,20.25 C17.25,20.6642136 16.9142136,21 16.5,21 C16.0857864,21 15.75,20.6642136 15.75,20.25 L15.75,9.75 Z M11.25,9.75 C11.25,9.33578644 11.5857864,9 12,9 C12.4142136,9 12.75,9.33578644 12.75,9.75 L12.75,20.25 C12.75,20.6642136 12.4142136,21 12,21 C11.5857864,21 11.25,20.6642136 11.25,20.25 L11.25,9.75 Z M6.75,9.75 C6.75,9.33578644 7.08578644,9 7.5,9 C7.91421356,9 8.25,9.33578644 8.25,9.75 L8.25,20.25 C8.25,20.6642136 7.91421356,21 7.5,21 C7.08578644,21 6.75,20.6642136 6.75,20.25 L6.75,9.75 Z M21.75,1.49999174 L16.125,1.49999174 L15.684375,0.6234375 C15.4939888,0.241191908 15.103597,-0.000306274953 14.6765625,-8.2627029e-06 L9.31875,-8.2627029e-06 C8.89251862,-0.00163851763 8.50286316,0.24053053 8.315625,0.6234375 L7.875,1.49999174 L2.25,1.49999174 C1.83578644,1.49999174 1.5,1.83578644 1.5,2.25 L1.5,3.75 C1.5,4.16421356 1.83578644,4.49999174 2.25,4.49999174 L21.75,4.49999174 C22.1642136,4.49999174 22.5,4.16421356 22.5,3.75 L22.5,2.25 C22.5,1.83578644 22.1642136,1.49999174 21.75,1.49999174 Z" />
    </g>
</svg>