<svg width="24" height="24" xmlns="http://www.w3.org/2000/svg"><path d="M14.286 0c1.744 0 3.183 1.327 3.28 3.018l.005.182v1.3H22a1 1 0 01.117 1.993L22 6.5h-1v14.3c0 1.715-1.38 3.101-3.1 3.195l-.186.005H6.286c-1.744 0-3.184-1.327-3.28-3.018L3 20.8V6.5H2a1 1 0 01-.117-1.993L2 4.5h4.428V3.2c0-1.715 1.38-3.101 3.1-3.195L9.715 0h4.572zM19 6.5H5v14.3c0 .613.499 1.131 1.153 1.194l.133.006h11.428c.674 0 1.215-.48 1.28-1.079L19 20.8V6.5zM9.5 10a1 1 0 01.993.883L10.5 11v7a1 1 0 01-1.993.117L8.5 18v-7a1 1 0 011-1zm5 0a1 1 0 01.993.883L15.5 11v7a1 1 0 01-1.993.117L13.5 18v-7a1 1 0 011-1zm-.214-8H9.714c-.673 0-1.214.48-1.279 1.079L8.43 3.2l-.001 1.3h7.143V3.2c0-.613-.498-1.131-1.152-1.194L14.286 2z" /></svg>