<svg width="20" height="17" xmlns="http://www.w3.org/2000/svg"><g id="ðŸ—-Page-Components" stroke="none" stroke-width="1" fill-rule="evenodd"><g id="Page-Components/Desktop/Footer" transform="translate(-261 -426)" fill-rule="nonzero"><g id="Lower-Section" transform="translate(56 389)"><g id="Social-Media" transform="translate(147 36)"><path d="M64.289 17.625c2.396 0 4.518-.612 6.367-1.836 1.693-1.094 3.008-2.565 3.946-4.414.911-1.745 1.367-3.555 1.367-5.43 0-.234-.013-.403-.04-.507A9.016 9.016 0 0078 3.289a8.81 8.81 0 01-2.344.664c.886-.547 1.485-1.302 1.797-2.265a8.345 8.345 0 01-2.617.976 4.64 4.64 0 00-1.348-.937 3.913 3.913 0 00-1.66-.352c-.73 0-1.406.182-2.031.547a4.014 4.014 0 00-1.485 1.504 4.067 4.067 0 00-.546 2.05c0 .313.026.626.078.938a11.354 11.354 0 01-4.707-1.25 11.31 11.31 0 01-3.73-3.047 3.927 3.927 0 00-.587 2.051c0 .716.17 1.374.508 1.973a4.55 4.55 0 001.328 1.484 3.861 3.861 0 01-1.836-.547v.078c0 .964.313 1.823.938 2.578a4.133 4.133 0 002.344 1.446c-.365.078-.73.117-1.094.117-.235 0-.482-.013-.742-.04a4.08 4.08 0 001.425 2.013c.69.533 1.491.8 2.403.8-1.51 1.172-3.216 1.758-5.117 1.758-.365 0-.69-.013-.977-.039 1.901 1.224 3.997 1.836 6.289 1.836z" id="Twitter"/></g></g></g></g></svg>
