<svg width="24" height="24" xmlns="http://www.w3.org/2000/svg"><path d="M12 0c6.627 0 12 5.373 12 12s-5.373 12-12 12S0 18.627 0 12 5.373 0 12 0zm3.076 6c-1.817 0-3.28 1.36-3.28 3.028 0 .235.031.469.082.694-2.72-.131-5.147-1.331-6.761-3.169-.285.45-.447.966-.447 1.528 0 1.05.579 1.978 1.462 2.522a3.512 3.512 0 01-1.482-.384v.037c0 1.472 1.127 2.69 2.63 2.972a3.74 3.74 0 01-.864.103 4.47 4.47 0 01-.62-.047c.417 1.2 1.625 2.072 3.067 2.1a6.921 6.921 0 01-4.071 1.294c-.274 0-.528-.01-.792-.037A9.833 9.833 0 009.036 18c6.03 0 9.33-4.613 9.33-8.616 0-.13 0-.262-.01-.393A6.78 6.78 0 0020 7.425a7.008 7.008 0 01-1.888.469c.68-.375 1.198-.966 1.441-1.669-.63.347-1.34.6-2.08.731A3.403 3.403 0 0015.075 6z" /></svg>