<?xml version="1.0" encoding="UTF-8"?>
<svg width="24px" height="22px" viewBox="0 0 24 22" version="1.1" xmlns="http://www.w3.org/2000/svg" xmlns:xlink="http://www.w3.org/1999/xlink">
    <title>F26AB903-7632-4183-BF8B-1F623AA1AA24@2.00x</title>
    <g id="Iconography" stroke="none" stroke-width="1" fill="none" fill-rule="evenodd">
        <g transform="translate(-192.000000, -625.000000)" id="Group">
            <g transform="translate(192.000000, 624.000000)" id="Shape">
                <path d="M23.7298802,19.5474082 C24.4989633,20.8596621 23.5335886,22.5 21.9975057,22.5 L2.00226138,22.5 C0.463220147,22.5 -0.497696247,20.8571192 0.269886868,19.5474082 L10.267634,2.48375996 C11.0370921,1.17089083 12.9642999,1.17326974 13.732383,2.48375996 L23.7298802,19.5474082 Z" fill="#FFA53F"></path>
                <path d="M12.0049751,18.5 C12.8312143,18.5 13.5,19.1721296 13.5,20 C13.5,20.7151505 12.998642,21.3218716 12.2917158,21.4693026 L12.1476773,21.4925609 L11.9950249,21.5 C11.1687857,21.5 10.5,20.8278704 10.5,20 C10.5,19.2848495 11.001358,18.6781284 11.7082842,18.5306974 L11.8523227,18.5074391 L12.0049751,18.5 Z M12,5.47512558 C12.7300347,5.47512558 13.5,6.13149503 13.5,6.97337119 C13.5,7.43987704 13.5,10.1160048 13.5,15.0017544 C13.5,15.8193732 12.8402087,16.5 12,16.5 C11.2699653,16.5 10.5,15.8058944 10.5,15.0017544 C10.5,14.6166352 10.5,11.9405075 10.5,6.97337119 C10.5,6.15575239 11.1597913,5.47512558 12,5.47512558 Z" fill="#FFFFFF"></path>
            </g>
        </g>
    </g>
</svg>