<svg width="24" height="24" xmlns="http://www.w3.org/2000/svg"><path d="M7 13a1 1 0 01.117 1.993L7 15H3.524l2.823 2.653a8 8 0 0013.2-2.987 1 1 0 011.886.668 10 10 0 01-7.22 6.417 9.99 9.99 0 01-9.03-2.44l-.228-.222L2 16.31V20a1 1 0 01-.883.993L1 21a1 1 0 01-.993-.883L0 20v-6l.002-.068.015-.116.02-.09.027-.079.047-.106.027-.048.058-.087.033-.043.042-.048c.027-.028.052-.052.079-.075l-.079.075a1.01 1.01 0 01.29-.213l.106-.045.157-.041.101-.013L1 13h6zm11.816-8.31l.229.221L22 7.69V4a1 1 0 01.883-.993L23 3a1 1 0 01.993.883L24 4l-.002 6.068-.01.092-.018.083-.034.109-.047.107-.047.08-.042.062-.071.084a1.026 1.026 0 01-.079.075l.079-.075a1.01 1.01 0 01-.248.192l-.054.028-.094.038-.116.033-.14.021L23 11h-6a1 1 0 01-.117-1.993L17 9h3.476l-2.823-2.653a8 8 0 00-13.2 2.987 1 1 0 11-1.886-.668 10 10 0 017.22-6.417 9.99 9.99 0 019.03 2.44z" /></svg>