<svg width="32" height="32" viewBox="0 0 32 32" fill="none" xmlns="http://www.w3.org/2000/svg">
<path fill-rule="evenodd" clip-rule="evenodd" d="M16 32C24.8366 32 32 24.8366 32 16C32 7.16344 24.8366 0 16 0C7.16344 0 0 7.16344 0 16C0 24.8366 7.16344 32 16 32ZM23.4785 8L17.5222 14.7749H17.5218L24 24H19.2356L14.8732 17.7878L9.41155 24H8L14.2466 16.8955L8 8H12.7644L16.8952 13.8826L22.0671 8H23.4785ZM14.956 16.0881L15.5889 16.9738V16.9742L19.8997 23.0075H22.0677L16.7851 15.6137L16.1522 14.728L12.0882 9.03974H9.92015L14.956 16.0881Z" fill="currentColor"/>
</svg>
