<?xml version="1.0" encoding="UTF-8"?>
<svg width="24px" height="24px" viewBox="0 0 24 24" version="1.1" xmlns="http://www.w3.org/2000/svg" xmlns:xlink="http://www.w3.org/1999/xlink">
    <title>E506281C-3C73-4A0A-9EE0-701084891C15@2.00x</title>
    <g id="Iconography" stroke="none" stroke-width="1" fill="none" fill-rule="evenodd">
        <g transform="translate(-756.000000, -501.000000)" fill="#0062C3" id="Group">
            <g transform="translate(756.000000, 501.000000)" id="Combined-Shape">
                <path d="M12,0 C18.627417,0 24,5.372583 24,12 C24,18.627417 18.627417,24 12,24 C5.372583,24 0,18.627417 0,12 C0,5.372583 5.372583,0 12,0 Z M12.1902464,7.00058421 L11.8097547,7.00058421 C10.9568702,7.00467367 7.48562395,7.03738932 6.5302911,7.29911458 C5.92795175,7.46375 5.45355535,7.94877604 5.29254359,8.56466146 C5.03510523,9.54703021 5.00421263,11.4685808 5.00050552,11.9156068 L5.00050552,12.1046015 C5.00421263,12.5516275 5.03510523,14.4731781 5.29254359,15.4555469 C5.45355535,16.0714323 5.92795175,16.536276 6.5302911,16.7008854 C7.62210007,17 12,17 12,17 C12,17 16.3778999,17 17.4697089,16.7008854 C18.0720483,16.536276 18.5464446,16.0714323 18.7074564,15.4555469 C19,14.3392188 19,12.0101042 19,12.0101042 C19,12.0101042 19,9.68098958 18.7074564,8.56466146 C18.5464446,7.94877604 18.0720483,7.46372396 17.4697089,7.29911458 C16.5143985,7.03738932 13.0431354,7.00467367 12.1902464,7.00058421 Z M10.5681719,9.89544271 L14.2272483,12.0101562 L10.5681719,14.1247656 L10.5681719,9.89544271 Z"></path>
            </g>
        </g>
    </g>
</svg>