<svg width="24" height="24" xmlns="http://www.w3.org/2000/svg"><path d="M12 0c6.627 0 12 5.373 12 12s-5.373 12-12 12S0 18.627 0 12 5.373 0 12 0zm.19 7h-.38c-.853.005-4.324.037-5.28.3a1.774 1.774 0 00-1.237 1.265c-.258.982-.289 2.904-.292 3.35v.19c.003.447.034 2.368.292 3.35.16.616.635 1.081 1.237 1.246C7.622 17 12 17 12 17s4.378 0 5.47-.3a1.747 1.747 0 001.237-1.244C19 14.339 19 12.01 19 12.01s0-2.329-.293-3.445a1.774 1.774 0 00-1.237-1.266c-.956-.262-4.427-.294-5.28-.298zm-1.622 2.895l3.66 2.115-3.66 2.115v-4.23z" /></svg>