<svg width="23" height="15" xmlns="http://www.w3.org/2000/svg"><g id="🏗-Page-Components" stroke="none" stroke-width="1" fill-rule="evenodd"><g id="Page-Components/Desktop/Footer" transform="translate(-379 -427)" fill-rule="nonzero"><g id="Lower-Section" transform="translate(56 389)"><g id="Social-Media" transform="translate(147 36)"><path d="M187.5 17l3.555-.04c2.5-.077 4.088-.207 4.765-.39.469-.13.873-.364 1.211-.703.339-.338.573-.729.703-1.172.183-.703.313-1.784.39-3.242l.04-1.953-.04-1.953c-.077-1.432-.207-2.5-.39-3.203a2.708 2.708 0 00-.703-1.211 2.708 2.708 0 00-1.21-.703c-.678-.183-2.266-.313-4.766-.39L187.5 2l-3.555.04c-2.5.077-4.088.207-4.765.39-.47.13-.873.364-1.211.703a2.708 2.708 0 00-.703 1.21c-.183.704-.313 1.772-.391 3.204-.026.73-.04 1.38-.04 1.953l.04 1.953c.078 1.458.208 2.54.39 3.242.13.443.365.834.704 1.172.338.339.742.573 1.21.703.678.183 2.266.313 4.766.39l3.555.04zm-2.188-4.297V6.336l5.586 3.164-5.586 3.203z" id="Youtube"/></g></g></g></g></svg>